<svg width="409" height="34" fill="none" xmlns="http://www.w3.org/2000/svg"><path fill-rule="evenodd" clip-rule="evenodd" d="M4.407 5.57c1.958-2.064 4.63-3.767 6.705-4.43 8.273-2.668 17.416 1.36 21.009 9.197 1.687 3.702 1.741 9.797.054 13.39-3.483 7.729-12.083 11.81-19.92 9.525-1.742-.49-3.103-1.089-3.103-1.307 0-.544 4.627-3.265 6.15-3.646.654-.164 2.395.054 3.865.49 1.47.435 2.885.707 3.157.544.925-.599.38-1.198-1.688-2.014-3.592-1.47-3.21-2.014 1.252-2.014 4.463 0 5.77-.326 5.77-1.36 0-.654-.599-.817-5.879-1.633-1.306-.218-2.285-.6-2.177-.926.11-.326 2.069-1.143 4.355-1.85 3.7-1.198 5.932-2.558 5.225-3.212-.11-.163-2.45.055-5.116.49-2.668.381-5.171.6-5.552.436-.381-.11.38-1.36 2.068-3.211 2.613-2.83 3.211-4.464 1.905-4.899-.326-.109-2.993 2.286-5.987 5.28-5.824 5.987-5.987 6.422-1.96 7.456 1.035.272 1.96.762 2.123 1.143.163.49-1.034.653-4.245.653H7.955L5.94 25.904c-2.286 2.45-2.34 2.45-4.409-1.687-1.687-3.32-2.014-8.22-.816-12.247.589-2.062 1.794-4.4 3.69-6.4zm.678 10.266l.683-2.103.683 2.103h2.211l-1.788 1.3.683 2.102-1.789-1.3-1.788 1.3.683-2.103-1.788-1.299h2.21zm5.23-7.477l-.682 2.103h-2.21l1.787 1.3-.683 2.102 1.789-1.3 1.788 1.3-.683-2.103 1.789-1.3h-2.211l-.683-2.102zm3.865-3.272l.683-2.103.683 2.103h2.211l-1.788 1.3.683 2.102-1.789-1.3-1.788 1.3.683-2.102-1.788-1.3h2.21z" fill="#1AACE4"/><path d="M53.126 17.658h-1.964l-3.033-8.215c-.066-.209-.214-.313-.441-.313h-.257V7.55h1.182c.351 0 .608.056.769.17.17.114.313.332.427.655l1.936 5.638c.143.418.257.83.342 1.239l.043.242h.028c.124-.588.252-1.082.385-1.48l1.936-5.639c.114-.323.252-.54.413-.655.161-.114.417-.17.769-.17h1.196v1.58h-.27c-.229 0-.376.104-.442.313l-3.019 8.215zm3.472-3.63c0-1.13.342-2.041 1.026-2.734.683-.712 1.57-1.068 2.662-1.068 1.006 0 1.794.327 2.364.982.569.636.854 1.457.854 2.464l-.043.669H58.45c.067.607.3 1.087.698 1.438.408.341.902.512 1.48.512.323 0 .656-.061.997-.185.342-.123.603-.26.783-.413l.257-.213.754 1.253a2.758 2.758 0 01-.512.384c-.684.446-1.486.684-2.406.712-1.158 0-2.103-.365-2.834-1.096-.712-.74-1.068-1.642-1.068-2.705zm1.908-.94h3.147c-.01-.427-.147-.778-.413-1.054a1.25 1.25 0 00-.954-.413c-.456 0-.84.133-1.153.399-.314.256-.522.612-.627 1.068zm8.424 4.57h-1.794v-5.41c0-.209-.104-.313-.313-.313h-.57v-1.538h1.652c.645 0 .968.294.968.883v.427l-.028.455h.028c.17-.55.465-.996.883-1.338a2.151 2.151 0 011.424-.527l.327.029v1.78a4.075 4.075 0 00-.441-.029 2.05 2.05 0 00-1.225.399c-.36.265-.612.64-.754 1.124-.105.39-.157.784-.157 1.182v2.876zm3.262-.996l-.128-.129.854-1.181.285.299c.123.104.375.26.754.47.38.199.755.299 1.125.299.304 0 .541-.062.712-.186a.6.6 0 00.27-.526c0-.295-.45-.613-1.352-.954a7.506 7.506 0 01-.854-.356 6.568 6.568 0 01-.783-.47 2.087 2.087 0 01-.641-.684 1.806 1.806 0 01-.2-.896c0-.693.267-1.22.798-1.58.55-.362 1.225-.542 2.022-.542.275 0 .546.024.811.071.276.048.546.128.812.242.275.105.498.261.67.47.17.209.255.451.255.726v.755h-1.594v-.356c0-.152-.09-.275-.27-.37a1.358 1.358 0 00-.641-.143c-.504-.038-.845.09-1.026.385-.17.294-.057.57.342.826.19.113.536.265 1.04.455.502.19.854.332 1.053.427.408.18.736.437.983.77.256.322.384.697.384 1.124 0 .664-.266 1.205-.797 1.623-.522.399-1.187.598-1.994.598-.721 0-1.367-.152-1.936-.456-.437-.237-.755-.474-.954-.711zm7.201.028V9.4c0-.209-.104-.313-.313-.313h-.57V7.549h1.723c.646 0 .968.323.968.969v7.303c0 .21.105.314.314.314h.555v1.523h-1.71c-.341 0-.588-.076-.74-.228-.152-.151-.228-.398-.228-.74zm7.319 1.14c-1.12 0-2.065-.357-2.834-1.069-.76-.73-1.139-1.642-1.139-2.733 0-1.101.38-2.008 1.14-2.72.759-.721 1.703-1.082 2.833-1.082 1.13 0 2.074.36 2.833 1.082.769.712 1.153 1.619 1.153 2.72 0 1.091-.384 2.002-1.153 2.733-.76.712-1.704 1.068-2.833 1.068zm-2.15-3.802c0 .654.209 1.2.626 1.637.418.418.926.626 1.524.626a2.09 2.09 0 001.537-.626c.418-.437.627-.982.627-1.637s-.214-1.196-.641-1.624a2.021 2.021 0 00-1.523-.64 2.05 2.05 0 00-1.524.64c-.418.437-.626.978-.626 1.624zm14.461 3.63h-3.787v-1.58h1.01V9.13h-1.01V7.55h3.787v1.58h-1.01v6.948h1.01v1.58zm3.4 0h-1.794v-5.41c0-.209-.105-.313-.313-.313h-.57v-1.538h1.666c.636 0 .954.27.954.812v.213l-.014.313h.028a2.6 2.6 0 01.94-1.068 2.43 2.43 0 011.409-.44c1.101 0 1.809.497 2.122 1.494h.028c.209-.437.541-.793.997-1.068a2.742 2.742 0 011.481-.427c1.585 0 2.377.92 2.377 2.762v2.834c0 .208.105.313.314.313h.555v1.523h-1.709c-.341 0-.588-.076-.74-.228-.152-.151-.228-.398-.228-.74v-3.36c0-.503-.071-.869-.213-1.096-.143-.238-.404-.356-.783-.356-.418 0-.783.156-1.097.47a2.433 2.433 0 00-.64 1.195 3.477 3.477 0 00-.114.926v3.19h-1.809v-4.33c0-.493-.071-.858-.213-1.095-.133-.238-.389-.356-.769-.356-.427 0-.797.156-1.11.47-.304.303-.518.707-.641 1.21a3.984 3.984 0 00-.114.91v3.19zm13.232-8.443h-1.566V7.55h1.566v1.666zm-1.652 7.475v-4.442c0-.209-.104-.313-.313-.313h-.569v-1.538h1.722c.333 0 .575.08.727.242.151.152.227.394.227.726v4.457c0 .208.105.313.314.313h.569v1.523h-1.723c-.332 0-.574-.076-.726-.228-.152-.151-.228-.398-.228-.74zm4.227-.228c-.579-.702-.869-1.575-.869-2.62 0-1.044.285-1.907.854-2.59.57-.684 1.358-1.026 2.364-1.026.569 0 1.039.104 1.409.313.38.2.632.399.755.598l.071.114h.029v-.185c0-.19.066-.346.199-.47.142-.133.342-.2.598-.2h1.68v1.539h-.555c-.209 0-.314.095-.314.284v4.998c0 .598-.109 1.125-.327 1.58a2.665 2.665 0 01-.883 1.068 3.84 3.84 0 01-1.224.584 4.77 4.77 0 01-1.395.2 5.42 5.42 0 01-2.578-.627l.556-1.424c.588.323 1.257.484 2.007.484.627 0 1.125-.147 1.495-.441.37-.295.556-.74.556-1.339v-.341l.014-.385h-.029c-.446.627-1.12.94-2.021.94-1.007 0-1.804-.351-2.392-1.054zm2.776-.47c.522 0 .935-.17 1.239-.512.303-.351.455-.892.455-1.623 0-1.396-.602-2.093-1.808-2.093-.541 0-.959.18-1.253.54-.294.361-.441.855-.441 1.482 0 .664.161 1.2.484 1.608.323.399.764.598 1.324.598zm7.479 1.666h-1.794v-5.41c0-.209-.104-.313-.313-.313h-.57v-1.538h1.652c.645 0 .968.294.968.883v.427l-.028.455h.028a2.73 2.73 0 01.883-1.338 2.152 2.152 0 011.424-.527l.327.029v1.78a4.078 4.078 0 00-.441-.029c-.446 0-.854.133-1.225.399-.36.265-.612.64-.754 1.124-.105.39-.157.784-.157 1.182v2.876zm2.817-2.093c0-.94.569-1.632 1.708-2.079a3.32 3.32 0 01.969-.256 12.324 12.324 0 011.637-.128h.228v-.057c0-.503-.109-.864-.328-1.082-.209-.228-.545-.342-1.011-.342-.265 0-.493.043-.683.128-.19.076-.285.195-.285.356v.385h-1.68v-.769c0-.304.095-.565.285-.783a1.45 1.45 0 01.769-.47 5.805 5.805 0 011.609-.242c2.088 0 3.132.963 3.132 2.89v2.706c0 .208.104.313.313.313h.57v1.523h-1.623c-.304 0-.537-.071-.698-.213-.152-.143-.228-.337-.228-.584l.014-.313h-.028c-.133.218-.233.37-.299.455-.484.55-1.115.826-1.894.826-.693 0-1.276-.204-1.751-.612-.484-.408-.726-.959-.726-1.652zm1.822-.085c0 .266.095.489.285.669.199.18.47.27.812.27.465 0 .854-.199 1.167-.598.323-.408.484-.844.484-1.31v-.17h-.313c-1.623 0-2.435.38-2.435 1.139zm8.537 2.178h-1.794v-5.41c0-.209-.104-.313-.313-.313h-.57v-1.538h1.666c.636 0 .954.27.954.812v.213l-.029.313h.029c.218-.436.546-.797.982-1.082.437-.285.964-.427 1.581-.427 1.689 0 2.534.92 2.534 2.762v2.834c0 .208.105.313.313.313h.57v1.523h-1.723c-.342 0-.588-.076-.74-.228-.152-.151-.228-.398-.228-.74v-3.332c0-.503-.086-.873-.256-1.11-.171-.247-.465-.37-.883-.37-.475 0-.888.133-1.239.398a2.056 2.056 0 00-.712 1.082 2.97 2.97 0 00-.142.969v3.331zm7.269-2.662v-3.161h-.939v-1.438h.982v-1.98h1.766v1.98h1.651v1.438h-1.651v2.933c0 .522.147.883.441 1.082.304.19.636.285.997.285l.327-.029v1.58a3.069 3.069 0 01-.555.043c-.532 0-1.03-.09-1.495-.27-1.016-.39-1.524-1.21-1.524-2.463zm7.605 2.833c-1.67 0-2.506-.92-2.506-2.762v-2.82c0-.208-.104-.312-.313-.312h-.57v-1.538h1.723c.361 0 .608.085.741.256.142.162.213.451.213.869v3.175c0 .503.086.878.256 1.125.171.237.461.355.869.355.626 0 1.12-.237 1.481-.711.37-.465.555-1.044.555-1.737v-3.332h1.808v5.425c0 .208.105.313.313.313h.57v1.523c-.532.446-.797.816-.797 1.11 0 .124.052.229.156.314a.83.83 0 00.356.17l.185.03-.427 1.338c-.114 0-.318-.048-.612-.143a2.025 2.025 0 01-.812-.427c-.218-.2-.327-.465-.327-.797 0-.589.313-1.11.94-1.566v-.029h-.385c-.598 0-.897-.27-.897-.811v-.2l.014-.313h-.042a6.99 6.99 0 01-.342.527c-.503.626-1.22.95-2.15.968zm14.264-.17h-1.865v-8.53h-1.552c-.209 0-.314.105-.314.314v.612h-1.637V8.461c0-.333.067-.565.199-.698.133-.142.371-.214.712-.214h7.048c.342 0 .579.072.712.214.133.133.199.365.199.698v1.594h-1.637v-.612c0-.209-.105-.313-.313-.313h-1.552v8.528zm2.991-3.631c0-1.13.342-2.041 1.026-2.734.683-.712 1.57-1.068 2.662-1.068 1.006 0 1.794.327 2.364.982.569.636.854 1.457.854 2.464l-.043.669h-5.012c.067.607.299 1.087.698 1.438.408.341.902.512 1.481.512.322 0 .655-.061.996-.185.342-.123.603-.26.783-.413l.257-.213.754 1.253a2.748 2.748 0 01-.512.384c-.684.446-1.486.684-2.406.712-1.158 0-2.103-.365-2.834-1.096-.712-.74-1.068-1.642-1.068-2.705zm1.908-.94h3.147c-.01-.427-.147-.778-.413-1.054a1.25 1.25 0 00-.954-.413c-.456 0-.84.133-1.153.399-.313.256-.522.612-.627 1.068zm8.339-3.873h-1.567V7.55h1.567v1.666zm-1.652 7.475v-4.442c0-.209-.104-.313-.313-.313h-.57v-1.538h1.723c.332 0 .574.08.726.242.152.152.228.394.228.726v4.457c0 .208.104.313.313.313h.57v1.523h-1.723c-.332 0-.574-.076-.726-.228-.152-.151-.228-.398-.228-.74zm3.386-.028l-.128-.129.854-1.181.285.299c.123.104.375.26.755.47.379.199.754.299 1.124.299.304 0 .541-.062.712-.186a.6.6 0 00.271-.526c0-.295-.451-.613-1.353-.954a7.57 7.57 0 01-.854-.356 6.528 6.528 0 01-.783-.47 2.092 2.092 0 01-.641-.684 1.803 1.803 0 01-.199-.896c0-.693.266-1.22.797-1.58.551-.362 1.225-.542 2.022-.542.275 0 .546.024.811.071.276.048.546.128.812.242.275.105.498.261.669.47.171.209.257.451.257.726v.755h-1.595v-.356c0-.152-.09-.275-.271-.37a1.356 1.356 0 00-.64-.143c-.503-.038-.845.09-1.025.385-.171.294-.057.57.341.826.19.113.537.265 1.04.455s.854.332 1.053.427c.408.18.736.437.983.77.256.322.384.697.384 1.124 0 .664-.266 1.205-.797 1.623-.522.399-1.187.598-1.994.598-.721 0-1.366-.152-1.936-.456-.437-.237-.755-.474-.954-.711zm8.953-7.447h-1.567V7.55h1.567v1.666zm-1.652 7.475v-4.442c0-.209-.104-.313-.313-.313h-.57v-1.538h1.723c.332 0 .574.08.726.242.152.152.228.394.228.726v4.457c0 .208.104.313.313.313h.57v1.523h-1.723c-.332 0-.574-.076-.726-.228-.152-.151-.228-.398-.228-.74zm5.878.968h-1.794v-5.41c0-.209-.105-.313-.314-.313h-.569v-1.538h1.666c.636 0 .954.27.954.812v.213l-.029.313h.029c.218-.436.546-.797.982-1.082.437-.285.964-.427 1.581-.427 1.689 0 2.534.92 2.534 2.762v2.834c0 .208.104.313.313.313h.57v1.523h-1.723c-.342 0-.589-.076-.741-.228-.151-.151-.227-.398-.227-.74v-3.332c0-.503-.086-.873-.257-1.11-.17-.247-.465-.37-.882-.37-.475 0-.888.133-1.239.398a2.056 2.056 0 00-.712 1.082 2.97 2.97 0 00-.142.969v3.331zm6.515-3.63c0-1.13.341-2.041 1.025-2.734.683-.712 1.571-1.068 2.662-1.068 1.006 0 1.794.327 2.364.982.569.636.854 1.457.854 2.464l-.043.669h-5.011c.066.607.299 1.087.697 1.438.408.341.902.512 1.481.512.323 0 .655-.061.997-.185.341-.123.602-.26.783-.413l.256-.213.755 1.253a2.793 2.793 0 01-.513.384c-.683.446-1.486.684-2.406.712-1.158 0-2.103-.365-2.834-1.096-.711-.74-1.067-1.642-1.067-2.705zm1.907-.94h3.147c-.009-.427-.147-.778-.413-1.054a1.25 1.25 0 00-.954-.413c-.455 0-.84.133-1.153.399-.313.256-.522.612-.627 1.068zm2.521-3.873h-1.567V7.564h1.567v1.651zm3.412 7.447l-.129-.129.855-1.181.284.299c.124.104.375.26.755.47.38.199.755.299 1.125.299.304 0 .541-.062.712-.186a.601.601 0 00.27-.526c0-.295-.451-.613-1.352-.954a7.513 7.513 0 01-.855-.356 6.688 6.688 0 01-.783-.47 2.078 2.078 0 01-.64-.684 1.804 1.804 0 01-.2-.896c0-.693.266-1.22.798-1.58.55-.362 1.224-.542 2.021-.542.276 0 .546.024.812.071.275.048.546.128.811.242.276.105.499.261.67.47.17.209.256.451.256.726v.755h-1.595v-.356c0-.152-.09-.275-.27-.37a1.36 1.36 0 00-.641-.143c-.503-.038-.845.09-1.025.385-.171.294-.057.57.342.826.189.113.536.265 1.039.455.503.19.854.332 1.054.427.408.18.735.437.982.77.256.322.384.697.384 1.124 0 .664-.265 1.205-.797 1.623-.522.399-1.186.598-1.993.598-.722 0-1.367-.152-1.937-.456-.436-.237-.754-.474-.953-.711zm12.99.996h-1.865V9.13h-.925V7.55h4.627c.949 0 1.723.303 2.321.91.598.608.897 1.4.897 2.378 0 .978-.299 1.78-.897 2.407-.598.616-1.372.925-2.321.925h-1.837v3.488zm0-8.528v3.445h1.495c.513 0 .916-.152 1.211-.455.294-.313.441-.74.441-1.282 0-.522-.142-.935-.427-1.238-.285-.314-.684-.47-1.196-.47h-1.524zm5.424 6.435c0-.94.57-1.632 1.709-2.079.303-.132.626-.218.968-.256a12.324 12.324 0 011.637-.128h.228v-.057c0-.503-.109-.864-.327-1.082-.209-.228-.546-.342-1.011-.342a1.66 1.66 0 00-.684.128c-.19.076-.284.195-.284.356v.385h-1.681v-.769c0-.304.095-.565.285-.783a1.45 1.45 0 01.769-.47 5.805 5.805 0 011.609-.242c2.088 0 3.132.963 3.132 2.89v2.706c0 .208.105.313.313.313h.57v1.523h-1.623c-.304 0-.536-.071-.698-.213-.152-.143-.228-.337-.228-.584l.015-.313h-.029a5.3 5.3 0 01-.299.455c-.484.55-1.115.826-1.893.826-.693 0-1.277-.204-1.752-.612-.484-.408-.726-.959-.726-1.652zm1.823-.085c0 .266.095.489.284.669.2.18.47.27.812.27.465 0 .854-.199 1.167-.598.323-.408.485-.844.485-1.31v-.17h-.314c-1.623 0-2.434.38-2.434 1.139zm6.885.982c-.579-.702-.869-1.575-.869-2.62 0-1.044.285-1.907.854-2.59.57-.684 1.358-1.026 2.364-1.026.569 0 1.039.104 1.409.313.38.2.632.399.755.598l.071.114h.029v-.185c0-.19.066-.346.199-.47.142-.133.342-.2.598-.2h1.68v1.539h-.555c-.209 0-.313.095-.313.284v4.998c0 .598-.11 1.125-.328 1.58a2.665 2.665 0 01-.883 1.068 3.84 3.84 0 01-1.224.584 4.77 4.77 0 01-1.395.2 5.42 5.42 0 01-2.577-.627l.555-1.424c.588.323 1.257.484 2.007.484.627 0 1.125-.147 1.495-.441.37-.295.556-.74.556-1.339v-.341l.014-.385h-.029c-.446.627-1.12.94-2.021.94-1.007 0-1.804-.351-2.392-1.054zm2.776-.47c.522 0 .935-.17 1.239-.512.303-.351.455-.892.455-1.623 0-1.396-.602-2.093-1.808-2.093-.541 0-.959.18-1.253.54-.294.361-.441.855-.441 1.482 0 .664.161 1.2.484 1.608.323.399.764.598 1.324.598zm4.973-.427c0-.94.57-1.632 1.709-2.079a3.34 3.34 0 01.968-.256 12.324 12.324 0 011.637-.128h.228v-.057c0-.503-.109-.864-.327-1.082-.209-.228-.546-.342-1.011-.342a1.66 1.66 0 00-.684.128c-.189.076-.284.195-.284.356v.385h-1.68v-.769c0-.304.095-.565.284-.783a1.45 1.45 0 01.769-.47 5.81 5.81 0 011.609-.242c2.088 0 3.132.963 3.132 2.89v2.706c0 .208.105.313.314.313h.569v1.523h-1.623c-.304 0-.536-.071-.698-.213-.152-.143-.227-.337-.227-.584l.014-.313h-.029a5.3 5.3 0 01-.299.455c-.484.55-1.115.826-1.893.826-.693 0-1.277-.204-1.752-.612-.484-.408-.726-.959-.726-1.652zm1.823-.085c0 .266.095.489.285.669.199.18.469.27.811.27.465 0 .854-.199 1.168-.598.322-.408.484-.844.484-1.31v-.17h-.314c-1.623 0-2.434.38-2.434 1.139zm6.7 1.21V9.4c0-.209-.105-.313-.314-.313h-.569V7.549h1.723c.645 0 .968.323.968.969v7.303c0 .21.104.314.313.314h.555v1.523h-1.708c-.342 0-.589-.076-.741-.228-.151-.151-.227-.398-.227-.74zm5.723.968h-1.708V9.4c0-.209-.104-.313-.313-.313h-.57V7.549h1.723c.645 0 .968.323.968.969v2.107l-.028.612h.028a2.44 2.44 0 01.313-.342c.465-.446 1.087-.669 1.866-.669.968 0 1.746.351 2.335 1.054.588.702.882 1.618.882 2.748 0 1.148-.313 2.069-.939 2.762-.608.693-1.405 1.04-2.392 1.04-.418 0-.812-.082-1.182-.243-.361-.161-.617-.337-.769-.527l-.214-.256h-.028c.019.17.028.332.028.484v.37zm.043-3.588c0 .608.157 1.135.47 1.58.323.437.769.656 1.338.656a1.62 1.62 0 001.296-.613c.351-.417.527-.963.527-1.637 0-.683-.166-1.234-.498-1.652a1.594 1.594 0 00-1.31-.626c-.532 0-.969.2-1.31.598-.342.399-.513.963-.513 1.694zm10.24 3.76c-1.121 0-2.065-.357-2.834-1.069-.759-.73-1.139-1.642-1.139-2.733 0-1.101.38-2.008 1.139-2.72.76-.721 1.704-1.082 2.834-1.082 1.129 0 2.074.36 2.833 1.082.769.712 1.153 1.619 1.153 2.72 0 1.091-.384 2.002-1.153 2.733-.759.712-1.704 1.068-2.833 1.068zm-2.15-3.802c0 .654.208 1.2.626 1.637.418.418.926.626 1.524.626.607 0 1.12-.208 1.537-.626.418-.437.627-.982.627-1.637s-.214-1.196-.641-1.624a2.02 2.02 0 00-1.523-.64c-.598 0-1.106.213-1.524.64-.418.437-.626.978-.626 1.624zm6.963 2.634l-.129-.129.855-1.181.284.299c.124.104.375.26.755.47.38.199.755.299 1.125.299.304 0 .541-.062.712-.186a.601.601 0 00.27-.526c0-.295-.451-.613-1.352-.954a7.513 7.513 0 01-.855-.356 6.688 6.688 0 01-.783-.47 2.078 2.078 0 01-.64-.684 1.804 1.804 0 01-.2-.896c0-.693.266-1.22.798-1.58.55-.362 1.224-.542 2.021-.542.276 0 .546.024.812.071.275.048.546.128.811.242.276.105.499.261.67.47.171.209.256.451.256.726v.755h-1.595v-.356c0-.152-.09-.275-.27-.37a1.36 1.36 0 00-.641-.143c-.503-.038-.845.09-1.025.385-.171.294-.057.57.342.826.19.113.536.265 1.039.455.503.19.854.332 1.054.427.408.18.735.437.982.77.256.322.384.697.384 1.124 0 .664-.265 1.205-.797 1.623-.522.399-1.186.598-1.993.598-.722 0-1.367-.152-1.936-.456-.437-.237-.755-.474-.954-.711zm10.997.996h-1.125v-1.58h.228c.228 0 .375-.105.442-.313l3.004-8.216h1.95l2.99 8.216c.067.208.214.313.442.313h.227v1.58h-1.11c-.351 0-.612-.057-.783-.17-.162-.115-.299-.333-.413-.656l-.627-1.765h-3.417l-.626 1.765c-.114.323-.252.541-.413.655-.161.114-.418.171-.769.171zm3.104-6.663l-.868 2.534h2.562l-.868-2.534-.399-1.51h-.028a17.342 17.342 0 01-.399 1.51zm5.579 5.667l-.128-.129.854-1.181.285.299c.123.104.375.26.754.47.38.199.755.299 1.125.299.304 0 .541-.062.712-.186a.602.602 0 00.271-.526c0-.295-.451-.613-1.353-.954a7.417 7.417 0 01-.854-.356 6.528 6.528 0 01-.783-.47 2.081 2.081 0 01-.641-.684 1.793 1.793 0 01-.199-.896c0-.693.265-1.22.797-1.58.55-.362 1.224-.542 2.022-.542.275 0 .545.024.811.071.275.048.546.128.812.242.275.105.498.261.669.47.171.209.256.451.256.726v.755h-1.594v-.356c0-.152-.091-.275-.271-.37a1.358 1.358 0 00-.641-.143c-.503-.038-.844.09-1.025.385-.171.294-.057.57.342.826.19.113.536.265 1.039.455.503.19.855.332 1.054.427.408.18.735.437.982.77.257.322.385.697.385 1.124 0 .664-.266 1.205-.798 1.623-.522.399-1.186.598-1.993.598-.721 0-1.367-.152-1.936-.456-.437-.237-.755-.474-.954-.711zm10.49 1.167c-1.12 0-2.065-.356-2.833-1.068-.76-.73-1.139-1.642-1.139-2.733 0-1.101.379-2.008 1.139-2.72.759-.721 1.703-1.082 2.833-1.082 1.129 0 2.074.36 2.833 1.082.769.712 1.153 1.619 1.153 2.72 0 1.091-.384 2.002-1.153 2.733-.759.712-1.704 1.068-2.833 1.068zm-2.15-3.801c0 .654.209 1.2.626 1.637.418.418.926.626 1.524.626a2.09 2.09 0 001.538-.626c.417-.437.626-.982.626-1.637s-.214-1.196-.641-1.624a2.02 2.02 0 00-1.523-.64c-.598 0-1.106.213-1.524.64-.417.437-.626.978-.626 1.624zm6.934 0c0-1.073.361-1.97 1.083-2.691.73-.74 1.694-1.11 2.89-1.11.389 0 .759.046 1.11.141.371.086.717.261 1.04.527.322.257.484.58.484.968v.855h-1.595v-.399c0-.17-.104-.309-.313-.413a1.604 1.604 0 00-.726-.157c-.617 0-1.134.214-1.552.641-.399.427-.598.968-.598 1.623 0 .703.218 1.253.655 1.652.446.39.982.584 1.609.584a2.7 2.7 0 001.053-.228c.361-.152.641-.318.84-.498l.257-.257.754 1.253a3.485 3.485 0 01-.512.456 3.095 3.095 0 01-.613.398 4.156 4.156 0 01-1.936.456c-1.177 0-2.126-.36-2.847-1.082-.722-.721-1.083-1.628-1.083-2.72zm9.982-4.813h-1.566V7.55h1.566v1.666zm-1.651 7.475v-4.442c0-.209-.105-.313-.313-.313h-.57v-1.538h1.723c.332 0 .574.08.726.242.152.152.228.394.228.726v4.457c0 .208.104.313.313.313h.57v1.523h-1.723c-.332 0-.575-.076-.726-.228-.152-.151-.228-.398-.228-.74zm3.372-1.125c0-.94.569-1.632 1.708-2.079a3.35 3.35 0 01.968-.256 12.35 12.35 0 011.638-.128h.228v-.057c0-.503-.11-.864-.328-1.082-.209-.228-.546-.342-1.011-.342-.266 0-.493.043-.683.128-.19.076-.285.195-.285.356v.385h-1.68v-.769c0-.304.095-.565.285-.783a1.45 1.45 0 01.769-.47 5.804 5.804 0 011.608-.242c2.089 0 3.133.963 3.133 2.89v2.706c0 .208.104.313.313.313h.57v1.523h-1.624c-.303 0-.536-.071-.697-.213-.152-.143-.228-.337-.228-.584l.014-.313h-.028c-.133.218-.233.37-.299.455-.484.55-1.116.826-1.894.826-.693 0-1.277-.204-1.751-.612-.484-.408-.726-.959-.726-1.652zm1.822-.085c0 .266.095.489.285.669.199.18.47.27.811.27.466 0 .855-.199 1.168-.598.323-.408.484-.844.484-1.31v-.17h-.313c-1.623 0-2.435.38-2.435 1.139zm6.017-1.452c0-1.073.36-1.97 1.082-2.691.731-.74 1.694-1.11 2.89-1.11.389 0 .759.046 1.111.141.37.086.716.261 1.039.527.323.257.484.58.484.968v.855h-1.595v-.399c0-.17-.104-.309-.313-.413a1.604 1.604 0 00-.726-.157c-.617 0-1.134.214-1.552.641-.399.427-.598.968-.598 1.623 0 .703.218 1.253.655 1.652.446.39.982.584 1.609.584.342 0 .693-.076 1.054-.228.36-.152.64-.318.84-.498l.256-.257.754 1.253a3.378 3.378 0 01-.512.456 3.114 3.114 0 01-.612.398 4.16 4.16 0 01-1.937.456c-1.177 0-2.126-.36-2.847-1.082-.722-.721-1.082-1.628-1.082-2.72zm9.982-4.813h-1.567V7.55h1.567v1.666zm-1.652 7.475v-4.442c0-.209-.104-.313-.313-.313h-.57v-1.538h1.723c.332 0 .574.08.726.242.152.152.228.394.228.726v4.457c0 .208.104.313.313.313h.57v1.523h-1.723c-.332 0-.574-.076-.726-.228-.152-.151-.228-.398-.228-.74zm6.049-7.475h-1.581V7.55h1.581v1.666zm-3.417 11.348v-1.524c.113.02.218.029.313.029.968 0 1.452-.446 1.452-1.339v-5.481c0-.209-.104-.313-.313-.313h-.57v-1.538h1.723c.342 0 .589.08.74.242.152.152.228.394.228.726v6.507c0 .92-.261 1.59-.783 2.007-.588.503-1.338.745-2.249.726l-.541-.042zm4.964-4.998c0-.94.57-1.632 1.709-2.079.303-.132.626-.218.968-.256a12.324 12.324 0 011.637-.128h.228v-.057c0-.503-.109-.864-.328-1.082-.208-.228-.545-.342-1.01-.342a1.66 1.66 0 00-.684.128c-.19.076-.285.195-.285.356v.385h-1.68v-.769c0-.304.095-.565.285-.783a1.45 1.45 0 01.769-.47 5.805 5.805 0 011.609-.242c2.088 0 3.132.963 3.132 2.89v2.706c0 .208.105.313.313.313h.57v1.523h-1.623c-.304 0-.536-.071-.698-.213-.152-.143-.228-.337-.228-.584l.015-.313h-.029a5.3 5.3 0 01-.299.455c-.484.55-1.115.826-1.894.826-.692 0-1.276-.204-1.751-.612-.484-.408-.726-.959-.726-1.652zm1.823-.085c0 .266.094.489.284.669.2.18.47.27.812.27.465 0 .854-.199 1.167-.598.323-.408.484-.844.484-1.31v-.17h-.313c-1.623 0-2.434.38-2.434 1.139zm14.426-1.097h-4.286v-1.58h4.286v1.58zm9.979 3.275h-1.965l-3.033-8.215c-.066-.209-.214-.313-.441-.313h-.257V7.55h1.182c.351 0 .608.056.769.17.171.114.313.332.427.655l1.936 5.638c.143.418.257.83.342 1.239l.043.242h.028a13.72 13.72 0 01.385-1.48l1.936-5.639c.114-.323.252-.54.413-.655.161-.114.418-.17.769-.17h1.196v1.58h-.271c-.228 0-.375.104-.441.313l-3.018 8.215zm8.095 0h-3.787v-1.58h1.011V9.13h-1.011V7.55h3.787v1.58h-1.011v6.948h1.011v1.58zm6.006 0h-1.866V9.13h-1.552c-.208 0-.313.104-.313.313v.612h-1.637V8.461c0-.333.066-.565.199-.698.133-.142.37-.214.712-.214h7.048c.342 0 .579.072.712.214.133.133.199.365.199.698v1.594h-1.637v-.612c0-.209-.105-.313-.314-.313h-1.551v8.528zm6.881 0h-1.865V9.13h-.926V7.55h4.628c.949 0 1.722.303 2.32.91.598.608.897 1.4.897 2.378 0 .978-.299 1.78-.897 2.407-.598.616-1.371.925-2.32.925h-1.837v3.488zm0-8.528v3.445h1.495c.512 0 .916-.152 1.21-.455.294-.313.442-.74.442-1.282 0-.522-.143-.935-.428-1.238-.284-.314-.683-.47-1.196-.47h-1.523zm5.707 8.528h-1.125v-1.58h.228c.228 0 .375-.105.441-.313l3.004-8.216h1.951l2.99 8.216c.066.208.214.313.441.313h.228v1.58h-1.11c-.352 0-.613-.057-.783-.17-.162-.115-.299-.333-.413-.656l-.627-1.765h-3.417l-.626 1.765c-.114.323-.252.541-.413.655-.162.114-.418.171-.769.171zm3.104-6.663l-.869 2.534h2.563l-.868-2.534-.399-1.51h-.029a17.05 17.05 0 01-.398 1.51z" fill="#000"/><path d="M52.444 30.08l-.677-1.742h-2.23l-.67 1.742h-.717l2.198-5.65h.639l2.19 5.65h-.733zm-1.52-4.074a25.79 25.79 0 01-.19-.567 4.655 4.655 0 00-.078-.276 10.15 10.15 0 01-.087.323 3.225 3.225 0 01-.087.292c-.026.089-.05.165-.07.228l-.639 1.702h1.78l-.63-1.702zm4.622 4.152c-.373 0-.706-.076-1-.228a1.629 1.629 0 01-.686-.71c-.163-.32-.244-.73-.244-1.228 0-.52.086-.943.26-1.269.173-.326.407-.565.7-.717a2.21 2.21 0 011.017-.228c.216 0 .423.023.623.07.2.043.362.095.488.158l-.212.575a4.082 4.082 0 00-.442-.134 1.955 1.955 0 00-.472-.063c-.284 0-.518.06-.702.181-.183.121-.32.3-.41.536-.089.237-.133.53-.133.883 0 .336.044.622.134.859.089.236.223.415.401.535.179.121.402.182.67.182.231 0 .434-.024.607-.071a2.96 2.96 0 00.488-.174v.615a1.86 1.86 0 01-.472.165 2.567 2.567 0 01-.615.063zm3.786 0c-.373 0-.707-.076-1-.228a1.629 1.629 0 01-.686-.71c-.163-.32-.245-.73-.245-1.228 0-.52.087-.943.26-1.269a1.65 1.65 0 01.702-.717 2.21 2.21 0 011.016-.228c.215 0 .423.023.622.07.2.043.363.095.489.158l-.213.575a4.09 4.09 0 00-.441-.134 1.956 1.956 0 00-.473-.063c-.283 0-.517.06-.701.181-.184.121-.32.3-.41.536-.089.237-.134.53-.134.883 0 .336.045.622.134.859.09.236.223.415.402.535.179.121.402.182.67.182.231 0 .433-.024.607-.071a3 3 0 00.488-.174v.615a1.86 1.86 0 01-.473.165 2.568 2.568 0 01-.614.063zm5.763-2.198c0 .352-.047.665-.142.938-.09.268-.22.496-.394.685-.168.19-.375.334-.622.434a2.212 2.212 0 01-.812.141c-.278 0-.535-.047-.772-.141a1.746 1.746 0 01-.614-.434 2.071 2.071 0 01-.41-.685 2.861 2.861 0 01-.142-.938c0-.467.079-.861.236-1.182a1.66 1.66 0 01.678-.74c.294-.174.643-.26 1.048-.26.383 0 .72.086 1.008.26.295.168.523.415.686.74.168.32.252.715.252 1.182zm-3.191 0c0 .331.042.62.126.867.09.241.226.428.41.56.184.13.417.196.701.196s.517-.066.701-.197c.184-.131.318-.318.402-.56.09-.246.134-.535.134-.866 0-.336-.045-.622-.134-.859a1.114 1.114 0 00-.41-.543c-.178-.132-.412-.197-.7-.197-.432 0-.744.142-.938.425-.195.284-.292.675-.292 1.174zm8.458 3.585h-.678V30.08h-3.49v-4.224h.693v3.64h2.183v-3.64h.693v3.648h.599v2.041zm1.464-3.112c0 .047-.002.115-.008.205 0 .084-.002.176-.008.275l-.015.276c-.006.084-.01.153-.016.205l2.261-3.538h.851v4.224h-.646v-2.821l.016-.402c.005-.136.01-.239.016-.307l-2.246 3.53h-.859v-4.224h.654v2.577zm6.009-2.648c.514 0 .895.113 1.142.34.247.225.37.585.37 1.079v2.876h-.504l-.134-.6h-.031a2.364 2.364 0 01-.379.387c-.126.1-.273.173-.44.22a2.16 2.16 0 01-.6.071c-.252 0-.48-.044-.685-.134a1.048 1.048 0 01-.473-.41c-.115-.188-.173-.425-.173-.708 0-.42.165-.744.496-.97.331-.23.84-.357 1.529-.378l.717-.023v-.253c0-.351-.076-.596-.229-.732-.152-.137-.367-.205-.646-.205-.22 0-.43.034-.63.102-.2.063-.386.137-.56.22l-.212-.52c.184-.099.402-.183.654-.251.252-.074.514-.11.788-.11zm.205 2.254c-.526.02-.89.105-1.096.252-.2.147-.3.355-.3.622 0 .237.072.41.214.52.147.11.333.166.559.166.357 0 .654-.097.89-.292.237-.2.355-.504.355-.913v-.379l-.623.024zm6.78 3.506h-.678V30.08h-3.49v-4.224h.693v3.64h2.183v-3.64h.693v3.648h.599v2.041zm1.464-3.112c0 .047-.003.115-.008.205 0 .084-.002.176-.008.275l-.016.276a5.95 5.95 0 01-.015.205l2.261-3.538h.851v4.224h-.646v-2.821l.016-.402c.005-.136.01-.239.016-.307l-2.246 3.53h-.859v-4.224h.654v2.577zm4.669 1.647h-.804l1.206-1.773a1.842 1.842 0 01-.473-.197 1.089 1.089 0 01-.37-.386 1.254 1.254 0 01-.142-.623c0-.404.137-.711.41-.922.273-.215.635-.323 1.087-.323h1.891v4.224h-.693V28.4H92.04l-1.087 1.679zm.087-2.97c0 .24.089.422.268.543.183.115.438.173.764.173h.993v-1.394h-1.127c-.32 0-.552.063-.693.189a.634.634 0 00-.205.488zm9.739-1.254v4.224h-.693v-3.633h-2.182v3.633h-.694v-4.224h3.569zm3.357-.078c.52 0 .938.18 1.253.543.32.363.481.909.481 1.64 0 .477-.074.882-.221 1.213a1.614 1.614 0 01-.607.74 1.672 1.672 0 01-.914.244c-.215 0-.407-.029-.575-.086a1.6 1.6 0 01-.433-.22 1.821 1.821 0 01-.3-.308h-.047c.011.09.021.202.032.339.01.136.015.254.015.354v1.734h-.693v-6.115h.567l.095.576h.031c.084-.121.184-.232.3-.331.121-.1.262-.179.425-.237.168-.058.365-.086.591-.086zm-.126.583c-.284 0-.512.055-.685.165a.9.9 0 00-.379.48c-.078.216-.12.49-.126.82v.134c0 .347.037.64.111.883.073.241.197.425.37.551.179.126.42.19.725.19a.93.93 0 00.63-.213c.168-.142.292-.334.37-.576.085-.247.127-.528.127-.843 0-.483-.095-.87-.284-1.158-.184-.289-.47-.433-.859-.433zm4.564-.576c.515 0 .896.113 1.142.34.247.225.371.585.371 1.079v2.876h-.505l-.133-.6h-.032a2.427 2.427 0 01-.378.387c-.126.1-.273.173-.441.22a2.152 2.152 0 01-.599.071 1.69 1.69 0 01-.686-.134 1.053 1.053 0 01-.472-.41c-.116-.188-.174-.425-.174-.708 0-.42.166-.744.497-.97.33-.23.84-.357 1.528-.378l.717-.023v-.253c0-.351-.076-.596-.228-.732-.153-.137-.368-.205-.646-.205-.221 0-.431.034-.631.102a4.157 4.157 0 00-.559.22l-.213-.52c.184-.099.402-.183.654-.251.252-.074.515-.11.788-.11zm.205 2.254c-.525.02-.891.105-1.095.252-.2.147-.3.355-.3.622 0 .237.071.41.213.52.147.11.333.166.559.166.358 0 .654-.097.891-.292.236-.2.354-.504.354-.913v-.379l-.622.024zm6.008-1.119c0 .263-.079.468-.236.615a1.25 1.25 0 01-.607.299v.032a1.4 1.4 0 01.685.283c.195.147.292.378.292.694 0 .178-.034.344-.103.496a.982.982 0 01-.299.394c-.136.11-.312.197-.528.26a3.04 3.04 0 01-.78.087h-1.82v-4.224h1.812c.3 0 .568.034.804.103.242.063.431.173.567.33.142.153.213.363.213.631zm-.583 1.923c0-.242-.092-.415-.276-.52-.184-.105-.454-.158-.811-.158h-1.033v1.355h1.048c.347 0 .612-.05.796-.15.184-.105.276-.28.276-.527zm-.118-1.836c0-.2-.074-.344-.221-.434-.142-.094-.375-.141-.701-.141h-1.08v1.158h.954c.341 0 .601-.047.78-.142a.469.469 0 00.268-.441zm5.516.953c0 .352-.047.665-.141.938a1.89 1.89 0 01-.394.685c-.168.19-.376.334-.623.434a2.208 2.208 0 01-.811.141c-.279 0-.536-.047-.772-.141a1.738 1.738 0 01-.615-.434 2.08 2.08 0 01-.41-.685 2.874 2.874 0 01-.142-.938c0-.467.079-.861.237-1.182.157-.325.383-.572.677-.74.295-.174.644-.26 1.048-.26.384 0 .72.086 1.009.26.294.168.522.415.685.74.168.32.252.715.252 1.182zm-3.191 0c0 .331.042.62.126.867.09.241.226.428.41.56.184.13.418.196.701.196.284 0 .518-.066.702-.197.184-.131.317-.318.402-.56.089-.246.133-.535.133-.866a2.45 2.45 0 00-.133-.859 1.118 1.118 0 00-.41-.543c-.179-.132-.413-.197-.701-.197-.431 0-.744.142-.938.425-.194.284-.292.675-.292 1.174zm7.686-1.04c0 .263-.079.468-.236.615a1.25 1.25 0 01-.607.299v.032c.263.036.491.13.686.283.194.147.291.378.291.694 0 .178-.034.344-.102.496a.985.985 0 01-.3.394c-.136.11-.312.197-.528.26a3.04 3.04 0 01-.78.087h-1.82v-4.224h1.813c.299 0 .567.034.803.103.242.063.431.173.568.33.141.153.212.363.212.631zm-.583 1.923c0-.242-.092-.415-.276-.52-.183-.105-.454-.158-.811-.158h-1.032v1.355h1.048c.346 0 .612-.05.795-.15.184-.105.276-.28.276-.527zm-.118-1.836c0-.2-.074-.344-.221-.434-.141-.094-.375-.141-.701-.141h-1.079v1.158h.953c.342 0 .602-.047.78-.142a.467.467 0 00.268-.441zm5.517.953c0 .352-.048.665-.142.938a1.879 1.879 0 01-.394.685 1.64 1.64 0 01-.622.434 2.218 2.218 0 01-.812.141 2.06 2.06 0 01-.772-.141 1.747 1.747 0 01-.615-.434 2.062 2.062 0 01-.409-.685 2.848 2.848 0 01-.142-.938c0-.467.078-.861.236-1.182.158-.325.384-.572.678-.74.294-.174.643-.26 1.048-.26.383 0 .719.086 1.008.26.294.168.523.415.686.74.168.32.252.715.252 1.182zm-3.191 0c0 .331.042.62.126.867.089.241.226.428.409.56.184.13.418.196.702.196.283 0 .517-.066.701-.197.184-.131.318-.318.402-.56.089-.246.134-.535.134-.866 0-.336-.045-.622-.134-.859a1.118 1.118 0 00-.41-.543c-.179-.132-.412-.197-.701-.197-.431 0-.743.142-.938.425-.194.284-.291.675-.291 1.174zm7.709-3.853a1.47 1.47 0 01-.197.662.964.964 0 01-.473.402c-.21.09-.483.134-.819.134-.341 0-.617-.045-.827-.134a.896.896 0 01-.449-.394 1.705 1.705 0 01-.174-.67h.646c.027.284.1.476.221.575.126.095.326.142.599.142.241 0 .43-.05.567-.15.142-.104.226-.294.252-.567h.654zm-2.765 4.326c0 .047-.003.115-.008.205 0 .084-.003.176-.008.275l-.016.276c-.005.084-.01.153-.016.205l2.262-3.538h.851v4.224h-.647v-2.821l.016-.402c.005-.136.011-.239.016-.307l-2.246 3.53h-.858v-4.224h.654v2.577zm10.094-2.577v4.224h-.694v-3.633h-2.182v3.633h-.693v-4.224h3.569zm5.019 2.104c0 .352-.047.665-.142.938-.089.268-.22.496-.394.685a1.64 1.64 0 01-.622.434 2.214 2.214 0 01-.812.141 2.06 2.06 0 01-.772-.141 1.756 1.756 0 01-.615-.434 2.079 2.079 0 01-.409-.685 2.848 2.848 0 01-.142-.938c0-.467.079-.861.236-1.182.158-.325.384-.572.678-.74.294-.174.643-.26 1.048-.26.383 0 .719.086 1.008.26.294.168.523.415.686.74.168.32.252.715.252 1.182zm-3.191 0c0 .331.042.62.126.867.089.241.226.428.41.56.184.13.417.196.701.196s.517-.066.701-.197c.184-.131.318-.318.402-.56.089-.246.134-.535.134-.866 0-.336-.045-.622-.134-.859a1.112 1.112 0 00-.41-.543c-.178-.132-.412-.197-.701-.197-.431 0-.743.142-.938.425-.194.284-.291.675-.291 1.174zm8.82-2.104v4.224h-.622v-2.695c0-.11.003-.226.008-.347l.031-.354h-.023l-1.379 3.396h-.583l-1.34-3.396h-.023c.01.115.015.233.015.354.006.121.008.244.008.37v2.672h-.622v-4.224h.922l1.331 3.396 1.355-3.396h.922zm5.02 2.104c0 .352-.047.665-.142.938-.089.268-.22.496-.394.685a1.64 1.64 0 01-.622.434 2.214 2.214 0 01-.812.141c-.278 0-.535-.047-.772-.141a1.743 1.743 0 01-.614-.434 2.064 2.064 0 01-.41-.685 2.848 2.848 0 01-.142-.938c0-.467.079-.861.236-1.182.158-.325.384-.572.678-.74.294-.174.643-.26 1.048-.26.383 0 .72.086 1.008.26.295.168.523.415.686.74.168.32.252.715.252 1.182zm-3.191 0c0 .331.042.62.126.867.089.241.226.428.41.56.184.13.417.196.701.196s.517-.066.701-.197c.184-.131.318-.318.402-.56.089-.246.134-.535.134-.866 0-.336-.045-.622-.134-.859a1.112 1.112 0 00-.41-.543c-.178-.132-.412-.197-.701-.197-.431 0-.743.142-.937.425-.195.284-.292.675-.292 1.174zm10.01-2.104v3.648h.615v2.033h-.694V30.08h-5.641v-4.224h.693v3.64h1.82v-3.64h.694v3.64h1.828v-3.64h.685zm2.074 2.577c0 .047-.002.115-.008.205 0 .084-.002.176-.007.275l-.016.276a5.658 5.658 0 01-.016.205l2.261-3.538h.851v4.224h-.646v-2.821l.016-.402c.005-.136.011-.239.016-.307l-2.246 3.53h-.859v-4.224h.654v2.577zm6.305-.89c0-.615.06-1.138.181-1.568.126-.436.318-.783.575-1.04a1.99 1.99 0 011.009-.528c.341-.074.675-.14 1-.197.326-.058.631-.11.914-.158l.118.607c-.136.02-.288.047-.457.079a22.82 22.82 0 00-.512.086c-.173.026-.341.055-.504.087a8.764 8.764 0 00-.418.079c-.173.037-.328.1-.464.189a1.17 1.17 0 00-.355.347 1.89 1.89 0 00-.228.543 3.47 3.47 0 00-.103.764h.047c.074-.1.174-.202.3-.307.131-.105.286-.194.465-.268a1.66 1.66 0 01.622-.11c.368 0 .672.081.914.244.247.158.431.378.552.662.126.284.189.615.189.993 0 .467-.082.859-.245 1.174a1.634 1.634 0 01-.677.709 2.133 2.133 0 01-1.009.228c-.289 0-.551-.055-.788-.165a1.69 1.69 0 01-.606-.504 2.37 2.37 0 01-.386-.82 4.246 4.246 0 01-.134-1.127zm1.969 2.04a1.2 1.2 0 00.599-.142.927.927 0 00.402-.464c.095-.216.142-.502.142-.86 0-.43-.081-.769-.244-1.016-.158-.252-.421-.378-.788-.378a1.28 1.28 0 00-.631.158 1.83 1.83 0 00-.472.346 1.913 1.913 0 00-.268.331c0 .258.018.507.055.749.037.241.1.46.189.654.095.189.223.341.386.457.168.11.378.165.63.165zm3.622-1.15c0 .047-.003.115-.008.205 0 .084-.003.176-.008.275a19.574 19.574 0 01-.031.481l2.261-3.538h.851v4.224h-.646v-2.821a44.709 44.709 0 01.031-.71l-2.245 3.53h-.859v-4.223h.654v2.577zm5.52-2.655c.32 0 .599.044.835.134.236.084.42.21.552.378a.925.925 0 01.197.599c0 .257-.071.462-.213.614a1.254 1.254 0 01-.583.323v.032c.168.047.323.113.465.197a.942.942 0 01.472.859c0 .23-.065.44-.197.63-.126.189-.323.339-.591.449-.262.11-.601.165-1.016.165-.2 0-.391-.01-.575-.031a3.097 3.097 0 01-.489-.095 2.142 2.142 0 01-.378-.15v-.622c.179.084.389.16.631.229a3 3 0 00.803.102c.21 0 .399-.024.568-.07a.902.902 0 00.409-.221c.1-.105.15-.247.15-.426a.57.57 0 00-.134-.394.81.81 0 00-.402-.236 2.355 2.355 0 00-.67-.079h-.567v-.567h.457c.363 0 .651-.048.867-.142.22-.1.331-.268.331-.504a.49.49 0 00-.252-.45c-.163-.1-.4-.15-.71-.15-.231 0-.435.024-.614.072a3.751 3.751 0 00-.575.197l-.245-.552c.226-.1.463-.173.71-.22a4.04 4.04 0 01.764-.071zm3.445.078v1.757h2.293v-1.757h.693v4.224h-.693v-1.883h-2.293v1.883h-.693v-4.224h.693zm5.954-.078c.363 0 .673.078.93.236.263.158.462.38.599.67.142.283.213.617.213 1v.418h-2.892c.01.478.131.843.362 1.095.237.247.565.37.985.37.268 0 .505-.023.709-.07a4.21 4.21 0 00.646-.221v.607a3.096 3.096 0 01-.638.204c-.21.048-.459.071-.748.071-.399 0-.754-.081-1.064-.244a1.73 1.73 0 01-.717-.725c-.168-.325-.252-.722-.252-1.19 0-.462.076-.858.228-1.19.158-.33.376-.585.654-.764a1.81 1.81 0 01.985-.267zm-.008.567c-.331 0-.593.108-.787.323-.19.21-.303.504-.339.882h2.151a1.64 1.64 0 00-.111-.63.888.888 0 00-.338-.418c-.147-.105-.339-.157-.576-.157zm4.519 3.813c-.373 0-.707-.076-1.001-.228a1.627 1.627 0 01-.685-.71c-.163-.32-.245-.73-.245-1.228 0-.52.087-.943.26-1.269a1.65 1.65 0 01.702-.717 2.208 2.208 0 011.016-.228c.215 0 .423.023.622.07.2.043.363.095.489.158l-.213.575a4.085 4.085 0 00-.441-.134 1.957 1.957 0 00-.473-.063c-.283 0-.517.06-.701.181-.184.121-.32.3-.41.536-.089.237-.134.53-.134.883 0 .336.045.622.134.859.09.236.224.415.402.535.179.121.402.182.67.182.231 0 .433-.024.607-.071.178-.048.341-.105.488-.174v.615a1.855 1.855 0 01-.473.165 2.565 2.565 0 01-.614.063zm4.274-1.985h-2.301v-.678h2.301v.678zm5.741-2.317v4.224h-.622v-2.695c0-.11.002-.226.008-.347l.031-.354h-.024l-1.378 3.396h-.583l-1.34-3.396h-.024c.011.115.016.233.016.354.005.121.008.244.008.37v2.672h-.622v-4.224h.921l1.332 3.396 1.355-3.396h.922zm2.002 2.577c0 .047-.002.115-.008.205 0 .084-.002.176-.008.275l-.015.276a9.53 9.53 0 01-.016.205l2.261-3.538h.851v4.224h-.646v-2.821l.016-.402c.005-.136.01-.239.016-.307l-2.246 3.53h-.859v-4.224h.654v2.577zm6.986-2.577v.583h-1.884v3.64h-.693v-4.223h2.577zm2.841-.078c.52 0 .938.18 1.253.543.32.363.48.909.48 1.64 0 .477-.073.882-.22 1.213a1.614 1.614 0 01-.607.74 1.672 1.672 0 01-.914.244c-.215 0-.407-.029-.575-.086a1.585 1.585 0 01-.433-.22 1.821 1.821 0 01-.3-.308h-.047a8.856 8.856 0 01.047.693v1.734h-.693v-6.115h.567l.095.576h.031c.084-.121.184-.232.3-.331.12-.1.262-.179.425-.237.168-.058.365-.086.591-.086zm-.126.583c-.284 0-.512.055-.686.165a.903.903 0 00-.378.48 2.522 2.522 0 00-.126.82v.134c0 .347.037.64.11.883.074.241.197.425.371.551.178.126.42.19.725.19a.93.93 0 00.63-.213c.168-.142.291-.334.37-.576.084-.247.126-.528.126-.843 0-.483-.094-.87-.283-1.158-.184-.289-.47-.433-.859-.433zm4.564-.576c.514 0 .895.113 1.142.34.247.225.371.585.371 1.079v2.876h-.505l-.134-.6h-.031a2.427 2.427 0 01-.378.387 1.25 1.25 0 01-.442.22 2.17 2.17 0 01-.598.071c-.253 0-.481-.044-.686-.134a1.048 1.048 0 01-.473-.41c-.115-.188-.173-.425-.173-.708 0-.42.165-.744.496-.97.331-.23.841-.357 1.529-.378l.717-.023v-.253c0-.351-.076-.596-.229-.732-.152-.137-.367-.205-.646-.205-.22 0-.43.034-.63.102-.2.063-.386.137-.559.22l-.213-.52c.184-.099.402-.183.654-.251.252-.074.515-.11.788-.11zm.205 2.254c-.526.02-.891.105-1.096.252a.73.73 0 00-.299.622c0 .237.071.41.213.52.147.11.333.166.559.166.357 0 .654-.097.89-.292.237-.2.355-.504.355-.913v-.379l-.622.024zm3.305-2.183v1.757h2.293v-1.757h.693v4.224h-.693v-1.883h-2.293v1.883h-.693v-4.224h.693zm7.239.583h-1.379v3.64h-.685v-3.64h-1.364v-.583h3.428v.583zm2.431-.654c.515 0 .896.113 1.143.34.247.225.37.585.37 1.079v2.876h-.504l-.134-.6h-.032a2.36 2.36 0 01-.378.387c-.126.1-.273.173-.441.22a2.147 2.147 0 01-.599.071c-.252 0-.48-.044-.685-.134a1.05 1.05 0 01-.473-.41c-.116-.188-.173-.425-.173-.708 0-.42.165-.744.496-.97.331-.23.84-.357 1.528-.378l.717-.023v-.253c0-.351-.076-.596-.228-.732-.152-.137-.368-.205-.646-.205-.221 0-.431.034-.63.102-.2.063-.386.137-.56.22l-.213-.52c.184-.099.402-.183.654-.251.253-.074.515-.11.788-.11zm.205 2.254c-.525.02-.89.105-1.095.252-.2.147-.299.355-.299.622 0 .237.07.41.212.52a.91.91 0 00.56.166c.357 0 .654-.097.89-.292.236-.2.355-.504.355-.913v-.379l-.623.024zm7.143-2.183v4.224h-.623v-2.695c0-.11.003-.226.008-.347l.032-.354h-.024l-1.379 3.396h-.583l-1.339-3.396h-.024c.011.115.016.233.016.354.005.121.008.244.008.37v2.672h-.623v-4.224h.922l1.332 3.396 1.355-3.396h.922zm3.48 4.554h-.678l2.001-6.192h.678l-2.001 6.192zm4.682-.33h-.433v-.678h.11c.136 0 .223-.058.26-.173l1.741-4.712h.828l1.741 4.712c.037.115.123.173.26.173h.118v.678h-.441c-.195 0-.336-.03-.426-.087-.084-.063-.157-.187-.22-.37l-.418-1.143h-2.048l-.418 1.143c-.068.183-.147.307-.236.37-.085.058-.224.087-.418.087zm1.867-3.956l-.606 1.694h1.662l-.607-1.694-.22-.78h-.016c-.068.32-.139.58-.213.78zm3.113 3.42l-.055-.071.394-.512a1.6 1.6 0 00.212.205c.289.257.62.386.993.386.205 0 .37-.045.497-.134a.444.444 0 00.197-.378c0-.221-.258-.426-.773-.615a6.302 6.302 0 01-.488-.205 3.594 3.594 0 01-.433-.252 1.154 1.154 0 01-.363-.37 1 1 0 01-.118-.481c0-.352.136-.625.41-.82.273-.199.63-.299 1.071-.299.315 0 .612.063.89.19.279.12.418.315.418.582v.379h-.685v-.197c0-.106-.063-.187-.189-.245a.875.875 0 00-.41-.094c-.494 0-.741.157-.741.473 0 .225.255.436.764.63.2.068.363.131.489.189.131.058.276.14.433.244a.98.98 0 01.363.37.94.94 0 01.126.489c0 .352-.139.636-.418.851-.273.21-.622.315-1.048.315-.367 0-.683-.068-.945-.205-.263-.136-.46-.278-.591-.425zm3.578 0l-.055-.071.394-.512a1.6 1.6 0 00.212.205c.289.257.62.386.993.386a.84.84 0 00.496-.134.442.442 0 00.197-.378c0-.221-.257-.426-.772-.615a6.302 6.302 0 01-.488-.205 3.6 3.6 0 01-.434-.252 1.161 1.161 0 01-.362-.37 1 1 0 01-.118-.481c0-.352.136-.625.41-.82.273-.199.63-.299 1.071-.299.315 0 .612.063.89.19.279.12.418.315.418.582v.379h-.685v-.197c0-.106-.064-.187-.19-.245a.868.868 0 00-.409-.094c-.494 0-.741.157-.741.473 0 .225.255.436.764.63.2.068.363.131.489.189.131.058.276.14.433.244a.98.98 0 01.363.37.94.94 0 01.126.489c0 .352-.139.636-.418.851-.273.21-.622.315-1.048.315-.368 0-.683-.068-.945-.205-.263-.136-.46-.278-.591-.425zm4.216-2.955c.415-.394.922-.59 1.521-.59.598 0 1.108.196 1.528.59.415.394.623.89.623 1.49 0 .593-.211 1.092-.631 1.496-.415.4-.922.6-1.52.6-.599 0-1.106-.2-1.521-.6-.415-.399-.623-.898-.623-1.497 0-.598.208-1.095.623-1.489zm1.521 2.923c.388 0 .711-.134.969-.402.268-.273.402-.617.402-1.032 0-.41-.134-.748-.402-1.016a1.29 1.29 0 00-.969-.402c-.379 0-.702.134-.97.402a1.412 1.412 0 00-.394 1.016c0 .405.132.746.394 1.025.268.273.591.41.97.41zm2.719-1.426c0-.593.2-1.09.599-1.489.399-.4.914-.599 1.544-.599.195 0 .392.024.591.071.205.047.397.142.576.284a.643.643 0 01.267.52v.41h-.693v-.221c0-.131-.081-.231-.244-.3a1.315 1.315 0 00-1.474.291c-.257.258-.386.6-.386 1.025 0 .436.137.783.41 1.04.278.253.609.379.993.379.215 0 .428-.045.638-.134.2-.09.352-.182.457-.276l.142-.142.331.544a1.298 1.298 0 01-.268.236c-.373.284-.825.433-1.355.45-.62 0-1.132-.198-1.537-.592-.394-.394-.591-.893-.591-1.497zm5.328-2.773h-.685v-.796h.685v.796zm-.701 4.262V26.92c0-.116-.058-.173-.173-.173h-.323v-.654h.748c.179 0 .307.04.386.118.079.079.118.207.118.386v2.655c0 .116.058.174.174.174h.323v.654h-.749c-.178 0-.307-.04-.386-.119-.079-.078-.118-.207-.118-.386zm1.752-.614c-.01-.294.074-.536.252-.725.179-.195.41-.339.694-.434.173-.068.354-.112.543-.133.3-.048.604-.071.914-.071h.174v-.04c0-.346-.069-.59-.205-.732-.137-.148-.363-.221-.678-.221a1.44 1.44 0 00-.441.07c-.142.043-.213.122-.213.237v.229h-.717v-.394c0-.147.05-.276.15-.386.1-.11.234-.19.402-.237a2.96 2.96 0 01.827-.126c.583 0 1.001.134 1.253.402.257.263.386.649.386 1.158v1.694c0 .116.058.174.173.174h.323v.654h-.717c-.331 0-.496-.153-.496-.457l.016-.237h-.016a2.407 2.407 0 01-.173.276c-.258.341-.623.512-1.096.512-.362 0-.68-.107-.953-.323-.268-.215-.402-.512-.402-.89zm1.521.599c.305 0 .557-.132.756-.394a1.41 1.41 0 00.308-.875v-.134h-.197c-.19 0-.36.008-.513.024a2.66 2.66 0 00-.504.086.843.843 0 00-.441.229.726.726 0 00-.166.425.599.599 0 00.197.45c.142.136.329.2.56.189zm3.175-.938v-1.915h-.52v-.614h.535v-1.095h.749v1.095h.953v.614h-.953v1.828c0 .19.029.35.087.48a.604.604 0 00.228.277c.095.052.181.089.26.11.084.021.174.031.268.031l.181-.015v.677a2.56 2.56 0 01-.268.016 1.88 1.88 0 01-.748-.142c-.515-.22-.772-.67-.772-1.347zm3.479-3.31h-.686v-.795h.686v.796zm-.701 4.263V26.92c0-.116-.058-.173-.174-.173h-.323v-.654h.749c.178 0 .307.04.386.118.079.079.118.207.118.386v2.655c0 .116.058.174.173.174h.323v.654h-.748c-.179 0-.307-.04-.386-.119-.079-.078-.118-.207-.118-.386zm2.366-2.986c.415-.394.922-.59 1.521-.59.599 0 1.108.196 1.529.59.415.394.622.89.622 1.49 0 .593-.21 1.092-.63 1.496-.415.4-.922.6-1.521.6-.599 0-1.106-.2-1.521-.6-.415-.399-.622-.898-.622-1.497 0-.598.207-1.095.622-1.489zm1.521 2.923c.389 0 .712-.134.969-.402.268-.273.402-.617.402-1.032 0-.41-.134-.748-.402-1.016a1.286 1.286 0 00-.969-.402 1.32 1.32 0 00-.969.402 1.408 1.408 0 00-.394 1.016c0 .405.131.746.394 1.025.268.273.591.41.969.41zm3.87.568h-.764v-3.16c0-.116-.058-.173-.173-.173h-.323v-.654h.732c.336 0 .505.147.505.441v.15l-.016.228h.016c.099-.22.278-.428.535-.622.247-.195.568-.292.962-.292.467 0 .811.126 1.032.378.226.247.339.63.339 1.15v1.726c0 .116.057.174.173.174h.323v.654h-.756c-.179 0-.308-.04-.387-.119-.078-.078-.118-.207-.118-.386V27.7c0-.341-.055-.593-.165-.756-.105-.163-.3-.244-.583-.244-.3 0-.565.091-.796.275a1.293 1.293 0 00-.465.701 1.64 1.64 0 00-.071.536v1.868zm6.52-3.49c.415-.395.922-.592 1.521-.592.599 0 1.108.197 1.529.591.415.394.622.89.622 1.49 0 .593-.21 1.092-.63 1.496-.415.4-.922.6-1.521.6-.599 0-1.106-.2-1.521-.6-.415-.399-.622-.898-.622-1.497 0-.598.207-1.095.622-1.489zm1.521 2.922c.389 0 .712-.134.969-.402.268-.273.402-.617.402-1.032 0-.41-.134-.748-.402-1.016a1.286 1.286 0 00-.969-.402 1.32 1.32 0 00-.969.402 1.408 1.408 0 00-.394 1.016c0 .405.131.746.394 1.025.268.273.591.41.969.41zm3.87.568h-.764v-3.373h-.496v-.614h.496v-.134c0-.494.126-.856.378-1.087.284-.263.659-.395 1.127-.395l.291.024v.654a1.335 1.335 0 00-.401 0 .95.95 0 00-.221.071.603.603 0 00-.205.134.716.716 0 00-.15.244 1.142 1.142 0 00-.055.37v.119h.946v.614h-.946v3.373zm4.056-.505v-4.207c0-.116-.058-.173-.173-.173h-.339v-.678h.796c.178 0 .307.04.386.118.078.079.118.208.118.386v4.208c0 .115.058.173.173.173h1.537c.115 0 .173-.058.173-.173v-.355h.717v.701c0 .179-.039.308-.118.386-.079.08-.208.119-.386.119h-2.38c-.178 0-.307-.04-.386-.119-.079-.078-.118-.207-.118-.386zm3.689-1.489c0-.625.189-1.13.567-1.513.378-.383.856-.575 1.434-.575.541 0 .961.176 1.261.528.304.352.457.799.457 1.34l-.024.315h-2.907c.021.404.162.73.425.977.263.236.578.354.945.354.19 0 .381-.037.576-.11a1.68 1.68 0 00.449-.236l.142-.119.331.544-.19.165c-.089.064-.265.15-.527.26a2.276 2.276 0 01-.82.158c-.625 0-1.135-.197-1.528-.59-.394-.405-.591-.904-.591-1.498zm.819-.465h2.112c-.011-.31-.105-.556-.284-.74a.86.86 0 00-.654-.276c-.305 0-.562.09-.772.268-.21.178-.344.428-.402.748zm5.285-1.623c.341 0 .617.063.827.19.216.125.352.249.41.37l.039.063h.016v-.126c0-.268.147-.402.441-.402h.741v.654h-.315c-.116 0-.173.052-.173.157v3.01c0 .315-.058.594-.174.835-.11.242-.262.431-.457.568a2.067 2.067 0 01-.638.315 2.601 2.601 0 01-.741.102c-.467 0-.921-.11-1.363-.33l.26-.615c.321.178.683.268 1.088.268.388 0 .696-.095.921-.284.226-.184.339-.46.339-.827v-.268l.016-.252h-.016c-.247.404-.643.606-1.189.606-.547 0-.98-.191-1.301-.575-.32-.383-.48-.872-.48-1.465 0-.583.155-1.061.465-1.434.315-.373.743-.56 1.284-.56zm.181 3.372c.326 0 .583-.11.772-.33.195-.226.292-.573.292-1.04 0-.893-.376-1.34-1.127-1.34-.341 0-.609.118-.803.355-.19.23-.284.551-.284.96 0 .421.102.76.307 1.017.21.252.491.378.843.378zm2.756-.41c-.011-.293.073-.535.252-.724.179-.195.41-.339.693-.434.174-.068.355-.112.544-.133a5.76 5.76 0 01.914-.071h.173v-.04c0-.346-.068-.59-.205-.732-.136-.148-.362-.221-.677-.221a1.44 1.44 0 00-.441.07c-.142.043-.213.122-.213.237v.229h-.717v-.394c0-.147.05-.276.15-.386a.823.823 0 01.401-.237c.289-.084.565-.126.828-.126.583 0 1 .134 1.252.402.258.263.387.649.387 1.158v1.694c0 .116.057.174.173.174h.323v.654h-.717c-.331 0-.496-.153-.496-.457l.015-.237h-.015a2.34 2.34 0 01-.174.276c-.257.341-.622.512-1.095.512-.362 0-.68-.107-.953-.323-.268-.215-.402-.512-.402-.89zm1.52.6c.305 0 .557-.132.757-.394a1.41 1.41 0 00.307-.875v-.134h-.197c-.189 0-.36.008-.512.024a2.66 2.66 0 00-.504.086.843.843 0 00-.441.229.726.726 0 00-.166.425.595.595 0 00.197.45c.142.136.328.2.559.189zm3.128.015v-4.23c0-.116-.058-.174-.173-.174h-.323v-.654h.756c.179 0 .307.04.386.118.079.079.118.208.118.386v4.231c0 .116.058.174.174.174h.323v.654h-.757c-.178 0-.307-.04-.386-.119-.079-.078-.118-.207-.118-.386zm4.098.505h-.433v-.678h.11c.137 0 .223-.058.26-.173l1.741-4.712h.828l1.741 4.712c.037.115.123.173.26.173h.118v.678h-.441c-.194 0-.336-.03-.425-.087-.085-.063-.158-.187-.221-.37l-.418-1.143h-2.048l-.418 1.143c-.068.183-.147.307-.236.37-.084.058-.223.087-.418.087zm1.868-3.956l-.607 1.694h1.662l-.606-1.694-.221-.78h-.016c-.068.32-.139.58-.212.78zm4.255-.811h-.686v-.796h.686v.796zm-.702 4.262V26.92c0-.116-.057-.173-.173-.173h-.323v-.654h.748c.179 0 .308.04.387.118.078.079.118.207.118.386v2.655c0 .116.058.174.173.174h.323v.654h-.748c-.179 0-.308-.04-.386-.119-.079-.078-.119-.207-.119-.386zm1.753-1.489c0-.635.168-1.14.504-1.513.336-.383.769-.575 1.3-.575.315 0 .572.06.772.181.205.121.347.245.426.37l.031.064h.016a2.62 2.62 0 01-.016-.268v-1c0-.116-.058-.174-.173-.174h-.323v-.654h.756c.179 0 .307.04.386.118.079.079.118.208.118.386v4.231c0 .116.058.174.174.174h.323v.654h-.733c-.326 0-.489-.142-.489-.426l.008-.205h-.015c-.063.105-.124.19-.182.252-.278.316-.654.473-1.126.473-.536 0-.964-.192-1.285-.575-.315-.384-.472-.888-.472-1.513zm1.906 1.426c.342 0 .618-.123.828-.37.215-.247.323-.601.323-1.064 0-.383-.1-.714-.3-.992-.194-.284-.472-.426-.835-.426-.331 0-.604.131-.819.394-.216.257-.323.602-.323 1.032 0 .426.102.77.307 1.032a1 1 0 00.819.394zm6.06.568h-.733v-4.736c0-.115-.058-.173-.174-.173h-.323v-.654h.757c.178 0 .307.04.386.118.079.079.118.208.118.386v1.3l-.016.331h.016c.095-.126.155-.202.181-.228.284-.284.652-.426 1.103-.426.531 0 .954.192 1.269.575.32.384.481.888.481 1.513 0 .62-.171 1.124-.513 1.513-.336.383-.769.575-1.3.575-.31 0-.57-.066-.78-.197-.21-.136-.352-.27-.425-.402l-.047-.07h-.016c.01.115.016.215.016.299v.276zm.015-1.978c0 .389.097.722.292 1 .199.279.478.418.835.418.326 0 .599-.126.819-.378.221-.263.331-.612.331-1.048 0-.425-.105-.77-.315-1.032a1 1 0 00-.819-.394c-.342 0-.617.123-.828.37-.21.247-.315.602-.315 1.064zm3.992.544V26.92c0-.116-.058-.173-.173-.173h-.323v-.654h.748c.341 0 .512.163.512.488v1.891c0 .336.055.586.166.749.11.163.302.244.575.244.394 0 .709-.147.945-.441.237-.294.355-.649.355-1.064v-1.867h.764v3.16c0 .115.058.173.173.173h.324v.654h-.733c-.336 0-.504-.147-.504-.442v-.15l.007-.228h-.015c-.105.231-.287.441-.544.63-.263.19-.57.284-.922.284-.903 0-1.355-.51-1.355-1.528zm4.508.898l-.056-.071.394-.512c.032.042.103.11.213.205.289.257.62.386.993.386a.84.84 0 00.496-.134.442.442 0 00.197-.378c0-.221-.257-.426-.772-.615a6.302 6.302 0 01-.488-.205 3.6 3.6 0 01-.434-.252 1.161 1.161 0 01-.362-.37 1 1 0 01-.118-.481c0-.352.136-.625.409-.82.273-.199.631-.299 1.072-.299.315 0 .612.063.89.19.279.12.418.315.418.582v.379h-.686v-.197c0-.106-.063-.187-.189-.245a.873.873 0 00-.41-.094c-.493 0-.74.157-.74.473 0 .225.255.436.764.63.2.068.363.131.489.189.131.058.275.14.433.244a.97.97 0 01.362.37.94.94 0 01.126.489c0 .352-.139.636-.417.851-.273.21-.623.315-1.048.315-.368 0-.683-.068-.946-.205-.262-.136-.459-.278-.59-.425zm4.72-4.231h-.686v-.796h.686v.796zm-.701 4.262V26.92c0-.116-.058-.173-.174-.173h-.323v-.654h.749c.178 0 .307.04.386.118.079.079.118.207.118.386v2.655c0 .116.058.174.173.174h.323v.654h-.748c-.179 0-.307-.04-.386-.119-.079-.078-.118-.207-.118-.386zm2.894.505h-.764v-3.16c0-.116-.058-.173-.173-.173h-.323v-.654h.732c.337 0 .505.147.505.441v.15l-.016.228h.016c.1-.22.278-.428.536-.622.246-.195.567-.292.961-.292.467 0 .811.126 1.032.378.226.247.339.63.339 1.15v1.726c0 .116.058.174.173.174h.323v.654h-.756c-.179 0-.308-.04-.386-.119-.079-.078-.119-.207-.119-.386V27.7c0-.341-.055-.593-.165-.756-.105-.163-.299-.244-.583-.244-.299 0-.565.091-.796.275a1.293 1.293 0 00-.465.701 1.64 1.64 0 00-.071.536v1.868zm3.782-1.994c0-.625.189-1.13.567-1.513.379-.383.857-.575 1.434-.575.541 0 .962.176 1.261.528.305.352.457.799.457 1.34l-.024.315h-2.907c.021.404.163.73.426.977.262.236.577.354.945.354.189 0 .381-.037.575-.11a1.68 1.68 0 00.449-.236l.142-.119.331.544-.189.165c-.089.064-.265.15-.528.26a2.267 2.267 0 01-.819.158c-.625 0-1.135-.197-1.529-.59-.394-.405-.591-.904-.591-1.498zm.82-.465h2.111c-.01-.31-.105-.556-.283-.74a.863.863 0 00-.654-.276c-.305 0-.562.09-.773.268-.21.178-.344.428-.401.748zm3.512 1.923l-.055-.071.394-.512a1.6 1.6 0 00.212.205c.289.257.62.386.993.386a.84.84 0 00.496-.134.442.442 0 00.197-.378c0-.221-.257-.426-.772-.615a6.302 6.302 0 01-.488-.205 3.6 3.6 0 01-.434-.252 1.161 1.161 0 01-.362-.37 1 1 0 01-.118-.481c0-.352.136-.625.41-.82.273-.199.63-.299 1.071-.299.315 0 .612.063.89.19.279.12.418.315.418.582v.379h-.685v-.197c0-.106-.064-.187-.19-.245a.868.868 0 00-.409-.094c-.494 0-.741.157-.741.473 0 .225.255.436.764.63.2.068.363.131.489.189.131.058.276.14.433.244a.98.98 0 01.363.37.94.94 0 01.126.489c0 .352-.139.636-.418.851-.273.21-.622.315-1.048.315-.367 0-.683-.068-.945-.205-.263-.136-.46-.278-.591-.425zm3.578 0l-.055-.071.393-.512c.032.042.103.11.213.205.289.257.62.386.993.386a.84.84 0 00.496-.134.442.442 0 00.197-.378c0-.221-.257-.426-.772-.615a6.302 6.302 0 01-.488-.205 3.6 3.6 0 01-.434-.252 1.161 1.161 0 01-.362-.37 1 1 0 01-.118-.481c0-.352.136-.625.409-.82.274-.199.631-.299 1.072-.299.315 0 .612.063.89.19.279.12.418.315.418.582v.379h-.686v-.197c0-.106-.063-.187-.189-.245a.868.868 0 00-.409-.094c-.494 0-.741.157-.741.473 0 .225.255.436.764.63.2.068.363.131.489.189.131.058.276.14.433.244a.98.98 0 01.363.37.94.94 0 01.126.489c0 .352-.14.636-.418.851-.273.21-.622.315-1.048.315-.368 0-.683-.068-.945-.205-.263-.136-.46-.278-.591-.425zm6.86.536h-.765v-3.16c0-.116-.057-.173-.173-.173h-.323v-.654h.733c.336 0 .504.147.504.441v.15l-.008.228h.016c.105-.247.281-.46.528-.638a1.43 1.43 0 01.835-.276c.667 0 1.066.302 1.198.906h.015c.121-.257.308-.47.56-.638a1.47 1.47 0 01.859-.268c.877 0 1.315.51 1.315 1.529v1.725c0 .116.058.174.174.174h.323v.654h-.757c-.178 0-.307-.04-.386-.119-.078-.078-.118-.207-.118-.386v-1.883c0-.336-.052-.585-.157-.748-.1-.168-.281-.252-.544-.252a.98.98 0 00-.693.291 1.535 1.535 0 00-.426.733 2.582 2.582 0 00-.063.543v1.82h-.764v-2.387c0-.336-.05-.585-.15-.748-.1-.168-.278-.252-.536-.252-.273 0-.512.1-.717.299a1.627 1.627 0 00-.425.756 2.054 2.054 0 00-.055.512v1.82zm7.355-4.767h-.685v-.796h.685v.796zm-.701 4.262V26.92c0-.116-.058-.173-.174-.173h-.323v-.654h.749c.178 0 .307.04.386.118.079.079.118.207.118.386v2.655c0 .116.058.174.173.174h.324v.654h-.749c-.179 0-.307-.04-.386-.119-.079-.078-.118-.207-.118-.386zm3.501-3.577c.342 0 .617.063.827.19.216.125.352.249.41.37l.04.063h.015v-.126c0-.268.147-.402.442-.402h.74v.654h-.315c-.116 0-.173.052-.173.157v3.01c0 .315-.058.594-.174.835-.11.242-.262.431-.457.568a2.067 2.067 0 01-.638.315 2.6 2.6 0 01-.74.102c-.468 0-.922-.11-1.364-.33l.26-.615c.321.178.683.268 1.088.268.388 0 .696-.095.922-.284.225-.184.338-.46.338-.827v-.268l.016-.252h-.016c-.246.404-.643.606-1.189.606-.547 0-.98-.191-1.3-.575-.321-.383-.481-.872-.481-1.465 0-.583.155-1.061.465-1.434.315-.373.743-.56 1.284-.56zm.181 3.372c.326 0 .583-.11.773-.33.194-.226.291-.573.291-1.04 0-.893-.376-1.34-1.127-1.34-.341 0-.609.118-.803.355-.189.23-.284.551-.284.96 0 .421.102.76.307 1.017.21.252.491.378.843.378zm3.898.71h-.764v-3.16c0-.116-.058-.173-.173-.173h-.323v-.654h.725c.341 0 .512.155.512.465v.252l-.016.276h.016c.1-.31.262-.56.488-.749.226-.194.484-.291.772-.291l.205.015v.757a1.045 1.045 0 00-.906.229 1.388 1.388 0 00-.441.685 2.446 2.446 0 00-.095.717v1.63zm1.659-1.12c-.011-.293.073-.535.252-.724.178-.195.41-.339.693-.434.174-.068.355-.112.544-.133a5.76 5.76 0 01.914-.071h.173v-.04c0-.346-.068-.59-.205-.732-.136-.148-.362-.221-.677-.221-.147 0-.294.023-.442.07-.141.043-.212.122-.212.237v.229h-.717v-.394a.56.56 0 01.149-.386c.1-.11.234-.19.402-.237.289-.084.565-.126.828-.126.583 0 1 .134 1.252.402.258.263.386.649.386 1.158v1.694c0 .116.058.174.174.174h.323v.654h-.717c-.331 0-.497-.153-.497-.457l.016-.237h-.016a2.259 2.259 0 01-.173.276c-.257.341-.622.512-1.095.512a1.49 1.49 0 01-.953-.323c-.268-.215-.402-.512-.402-.89zm1.52.6c.305 0 .557-.132.757-.394a1.41 1.41 0 00.307-.875v-.134h-.197c-.189 0-.36.008-.512.024a2.66 2.66 0 00-.504.086.847.847 0 00-.442.229.725.725 0 00-.165.425.595.595 0 00.197.45c.142.136.328.2.559.189zm3.908.52h-.764v-3.16c0-.116-.058-.173-.174-.173h-.323v-.654h.733c.336 0 .504.147.504.441v.15l-.015.228h.015c.1-.22.279-.428.536-.622.247-.195.567-.292.961-.292.468 0 .812.126 1.033.378.225.247.338.63.338 1.15v1.726c0 .116.058.174.174.174h.323v.654h-.757c-.178 0-.307-.04-.386-.119-.079-.078-.118-.207-.118-.386V27.7c0-.341-.055-.593-.165-.756-.105-.163-.3-.244-.583-.244-.3 0-.565.091-.796.275a1.293 1.293 0 00-.465.701 1.64 1.64 0 00-.071.536v1.868zm4.199-1.458v-1.915h-.52v-.614h.536v-1.095h.749v1.095h.953v.614h-.953v1.828c0 .19.029.35.086.48a.606.606 0 00.229.277c.094.052.181.089.26.11a1.1 1.1 0 00.268.031l.181-.015v.677c-.095.01-.184.016-.268.016a1.88 1.88 0 01-.748-.142c-.515-.22-.773-.67-.773-1.347zm2.337.922l-.055-.071.394-.512c.031.042.102.11.213.205.288.257.619.386.992.386a.845.845 0 00.497-.134.444.444 0 00.197-.378c0-.221-.258-.426-.772-.615a6.18 6.18 0 01-.489-.205 3.594 3.594 0 01-.433-.252 1.154 1.154 0 01-.363-.37 1 1 0 01-.118-.481c0-.352.137-.625.41-.82.273-.199.63-.299 1.071-.299.315 0 .612.063.891.19.278.12.417.315.417.582v.379h-.685v-.197c0-.106-.063-.187-.189-.245a.875.875 0 00-.41-.094c-.494 0-.741.157-.741.473 0 .225.255.436.765.63.199.068.362.131.488.189.131.058.276.14.433.244a.98.98 0 01.363.37.94.94 0 01.126.489c0 .352-.139.636-.418.851-.273.21-.622.315-1.048.315-.367 0-.682-.068-.945-.205-.263-.136-.46-.278-.591-.425z" fill="#A0A0A0"/></svg>