<svg width="413" height="34" fill="none" xmlns="http://www.w3.org/2000/svg"><path fill-rule="evenodd" clip-rule="evenodd" d="M4.407 5.569c1.958-2.065 4.63-3.768 6.705-4.432 8.273-2.667 17.416 1.36 21.009 9.198 1.687 3.702 1.741 9.797.054 13.39-3.483 7.728-12.083 11.81-19.92 9.525-1.742-.49-3.103-1.089-3.103-1.307 0-.544 4.627-3.265 6.15-3.646.654-.164 2.395.054 3.865.49 1.47.435 2.885.707 3.157.544.925-.599.38-1.198-1.688-2.014-3.592-1.47-3.21-2.014 1.252-2.014 4.463 0 5.77-.326 5.77-1.36 0-.654-.599-.817-5.879-1.633-1.306-.218-2.285-.6-2.177-.926.11-.326 2.069-1.143 4.355-1.85 3.7-1.198 5.932-2.558 5.225-3.211-.11-.164-2.45.054-5.116.49-2.668.38-5.171.598-5.552.435-.381-.109.38-1.36 2.068-3.211 2.613-2.83 3.211-4.464 1.905-4.899-.326-.109-2.993 2.286-5.987 5.28-5.824 5.987-5.987 6.422-1.96 7.456 1.035.272 1.96.762 2.123 1.143.163.49-1.034.653-4.245.653H7.955L5.94 25.902c-2.286 2.45-2.34 2.45-4.409-1.687-1.687-3.32-2.014-8.219-.816-12.247.589-2.061 1.794-4.4 3.69-6.4zm.678 10.265l.683-2.103.683 2.103h2.211l-1.788 1.3.683 2.102-1.789-1.3-1.788 1.3.683-2.102-1.788-1.3h2.21zm5.23-7.477l-.682 2.103h-2.21l1.787 1.3-.683 2.102 1.789-1.3 1.788 1.3-.683-2.103 1.789-1.3h-2.211l-.683-2.102zm3.865-3.272l.683-2.103.683 2.103h2.211l-1.788 1.3.683 2.102-1.789-1.3-1.788 1.3.683-2.102-1.788-1.3h2.21z" fill="#1AACE4"/><path d="M53.126 17.656h-1.964l-3.033-8.215c-.066-.209-.214-.313-.441-.313h-.257v-1.58h1.182c.351 0 .608.056.769.17.17.114.313.332.427.655l1.936 5.638c.143.418.257.83.342 1.24l.043.241h.028c.124-.588.252-1.082.385-1.48l1.936-5.639c.114-.323.252-.54.413-.655.161-.114.417-.17.769-.17h1.196v1.58h-.27c-.229 0-.376.104-.442.313l-3.019 8.215zm3.33-3.63c0-1.13.342-2.041 1.025-2.734.684-.712 1.571-1.068 2.663-1.068 1.006 0 1.794.328 2.363.982.57.636.854 1.458.854 2.464l-.042.669h-5.012c.066.607.299 1.087.698 1.438.408.342.901.512 1.48.512.323 0 .655-.061.997-.185.342-.123.603-.26.783-.413l.256-.213.755 1.253a2.758 2.758 0 01-.513.384c-.683.446-1.485.684-2.406.712-1.158 0-2.102-.365-2.833-1.096-.712-.74-1.068-1.642-1.068-2.705zm1.908-.94h3.147c-.01-.427-.148-.778-.413-1.054a1.25 1.25 0 00-.954-.413c-.456 0-.84.133-1.154.4-.313.255-.522.611-.626 1.067zm8.281 4.57h-1.794v-5.41c0-.209-.104-.313-.313-.313h-.57v-1.538h1.652c.645 0 .968.294.968.883v.427l-.028.455h.028a2.73 2.73 0 01.883-1.338 2.152 2.152 0 011.424-.527l.327.029v1.78a4.077 4.077 0 00-.441-.029c-.446 0-.854.133-1.225.399-.36.265-.612.64-.754 1.124-.105.39-.157.784-.157 1.182v2.876zm3.12-.996l-.128-.128.854-1.182.285.299c.123.104.375.26.754.47.38.199.755.299 1.125.299.304 0 .541-.062.712-.185a.6.6 0 00.27-.527c0-.295-.45-.613-1.352-.954a7.5 7.5 0 01-.854-.356 6.556 6.556 0 01-.783-.47 2.085 2.085 0 01-.641-.684 1.804 1.804 0 01-.2-.897c0-.692.266-1.22.798-1.58.55-.36 1.224-.54 2.022-.54.275 0 .545.023.811.07.275.048.546.128.812.242.275.105.498.261.669.47.17.209.256.451.256.726v.755h-1.594v-.356c0-.152-.09-.275-.27-.37a1.358 1.358 0 00-.642-.143c-.503-.038-.844.09-1.025.385-.17.294-.057.57.342.826.19.114.536.265 1.04.455.502.19.854.332 1.053.427.408.18.736.437.982.77.257.322.385.697.385 1.124 0 .664-.266 1.205-.798 1.623-.522.399-1.186.598-1.993.598-.721 0-1.367-.152-1.936-.456-.437-.237-.755-.474-.954-.711zm7.059.028v-7.29c0-.209-.105-.313-.314-.313h-.57V7.547h1.724c.645 0 .968.323.968.969v7.304c0 .208.104.313.313.313h.555v1.523h-1.708c-.342 0-.589-.076-.74-.228-.153-.151-.228-.398-.228-.74zM84 17.828c-1.12 0-2.065-.357-2.834-1.069-.759-.73-1.139-1.642-1.139-2.733 0-1.101.38-2.008 1.14-2.72.759-.721 1.703-1.082 2.833-1.082 1.13 0 2.074.36 2.833 1.082.769.712 1.153 1.619 1.153 2.72 0 1.091-.384 2.002-1.153 2.733-.76.712-1.704 1.068-2.833 1.068zm-2.15-3.802c0 .655.209 1.2.626 1.637.418.418.926.626 1.524.626a2.09 2.09 0 001.537-.626c.418-.437.627-.982.627-1.637s-.214-1.196-.64-1.623A2.021 2.021 0 0084 11.761a2.05 2.05 0 00-1.524.64c-.417.437-.626.978-.626 1.624zm14.176 3.63H92.24v-1.58h1.01V9.128h-1.01v-1.58h3.787v1.58h-1.01v6.948h1.01v1.58zm3.258 0H97.49v-5.41c0-.209-.105-.313-.313-.313h-.57v-1.538h1.666c.636 0 .954.27.954.812v.213l-.014.313h.028c.2-.427.513-.783.94-1.068a2.43 2.43 0 011.409-.44c1.101 0 1.809.497 2.122 1.494h.028c.209-.437.541-.792.997-1.068a2.743 2.743 0 011.481-.427c1.585 0 2.377.92 2.377 2.762v2.834c0 .208.105.313.314.313h.555v1.523h-1.709c-.341 0-.588-.076-.74-.228-.152-.151-.228-.398-.228-.74v-3.36c0-.503-.071-.869-.213-1.096-.143-.238-.404-.356-.783-.356a1.5 1.5 0 00-1.097.47 2.433 2.433 0 00-.64 1.195 3.478 3.478 0 00-.114.926v3.19h-1.809v-4.329c0-.494-.071-.86-.213-1.096-.133-.238-.389-.356-.769-.356a1.52 1.52 0 00-1.111.47c-.303.303-.517.707-.64 1.21a3.983 3.983 0 00-.114.911v3.19zm13.09-8.443h-1.567V7.547h1.567v1.666zm-1.652 7.475v-4.442c0-.209-.104-.313-.313-.313h-.57v-1.538h1.723c.332 0 .574.08.726.242.152.152.228.394.228.726v4.457c0 .208.104.313.313.313h.57v1.523h-1.723c-.332 0-.574-.076-.726-.228-.152-.151-.228-.398-.228-.74zm4.084-.228c-.579-.702-.869-1.575-.869-2.62 0-1.044.285-1.907.855-2.59.569-.684 1.357-1.026 2.363-1.026.57 0 1.039.104 1.41.313.379.2.631.399.754.598l.071.114h.029v-.185c0-.19.066-.346.199-.47.143-.133.342-.199.598-.199h1.68v1.538h-.555c-.209 0-.313.095-.313.284v4.998c0 .598-.109 1.125-.328 1.58a2.657 2.657 0 01-.883 1.068 3.84 3.84 0 01-1.224.584 4.77 4.77 0 01-1.395.2c-.93 0-1.789-.21-2.577-.627l.555-1.424c.588.323 1.258.484 2.008.484.626 0 1.124-.147 1.494-.441.371-.295.556-.74.556-1.339v-.341l.014-.385h-.028c-.447.627-1.121.94-2.022.94-1.006 0-1.804-.351-2.392-1.054zm2.776-.47c.522 0 .935-.17 1.239-.512.304-.351.455-.892.455-1.623 0-1.396-.602-2.093-1.808-2.093-.541 0-.958.18-1.253.54-.294.362-.441.855-.441 1.482 0 .664.161 1.2.484 1.608.323.4.764.598 1.324.598zm7.337 1.666h-1.794v-5.41c0-.209-.104-.313-.313-.313h-.57v-1.538h1.652c.645 0 .968.294.968.883v.427l-.028.455h.028a2.73 2.73 0 01.883-1.338 2.15 2.15 0 011.424-.527l.327.029v1.78a4.078 4.078 0 00-.441-.029c-.446 0-.855.133-1.225.399-.36.265-.612.64-.754 1.124-.105.39-.157.784-.157 1.182v2.876zm2.674-2.093c0-.94.57-1.632 1.709-2.078a3.31 3.31 0 01.968-.257 12.338 12.338 0 011.637-.128h.228v-.057c0-.503-.109-.864-.327-1.082-.209-.228-.546-.342-1.011-.342a1.65 1.65 0 00-.684.129c-.189.075-.284.194-.284.356v.384h-1.68v-.769c0-.304.095-.565.284-.783a1.46 1.46 0 01.769-.47 5.814 5.814 0 011.609-.242c2.088 0 3.132.963 3.132 2.89v2.706c0 .208.105.313.314.313h.569v1.523h-1.623c-.304 0-.536-.07-.698-.213-.151-.143-.227-.337-.227-.584l.014-.313h-.029a5.3 5.3 0 01-.299.455c-.484.55-1.115.826-1.893.826-.693 0-1.277-.204-1.752-.612-.484-.408-.726-.959-.726-1.652zm1.823-.085c0 .266.095.489.285.669.199.18.469.27.811.27.465 0 .854-.199 1.168-.597.322-.409.484-.845.484-1.31v-.171h-.314c-1.623 0-2.434.38-2.434 1.139zm8.394 2.178h-1.794v-5.41c0-.209-.104-.313-.313-.313h-.57v-1.538h1.666c.636 0 .954.27.954.812v.213l-.028.313h.028a2.75 2.75 0 01.982-1.082c.437-.284.964-.427 1.581-.427 1.689 0 2.534.92 2.534 2.762v2.834c0 .208.105.313.313.313h.57v1.523h-1.723c-.342 0-.588-.076-.74-.228-.152-.151-.228-.398-.228-.74v-3.332c0-.503-.085-.873-.256-1.11-.171-.247-.465-.37-.883-.37-.475 0-.888.133-1.239.398a2.061 2.061 0 00-.712 1.082 2.971 2.971 0 00-.142.969v3.331zm7.127-2.662v-3.161h-.94v-1.438h.983v-1.98h1.765v1.98h1.652v1.438h-1.652v2.933c0 .522.147.883.442 1.082.303.19.636.285.996.285l.328-.029v1.58a3.069 3.069 0 01-.555.043c-.532 0-1.03-.09-1.495-.27-1.016-.39-1.524-1.21-1.524-2.463zm7.462 2.833c-1.67 0-2.505-.92-2.505-2.762v-2.82c0-.208-.105-.312-.314-.312h-.569v-1.538h1.723c.36 0 .607.085.74.256.142.162.214.451.214.869v3.175c0 .503.085.878.256 1.125.171.237.46.355.868.355.627 0 1.12-.237 1.481-.711.37-.466.555-1.045.555-1.737v-3.332h1.809v5.425c0 .208.104.313.313.313h.569v1.523c-.531.446-.797.817-.797 1.11a.39.39 0 00.157.314.825.825 0 00.356.17l.185.03-.428 1.338c-.113 0-.317-.048-.612-.143a2.02 2.02 0 01-.811-.427c-.219-.2-.328-.465-.328-.797 0-.589.313-1.11.94-1.566v-.029h-.384c-.598 0-.897-.27-.897-.811v-.2l.014-.313h-.043a6.39 6.39 0 01-.342.527c-.503.626-1.219.95-2.15.968zm13.979-.17h-1.865v-8.53h-1.552c-.209 0-.313.105-.313.314v.612h-1.637V8.46c0-.333.066-.565.199-.698.133-.142.37-.214.712-.214h7.048c.341 0 .579.072.711.214.133.133.2.365.2.698v1.594h-1.638v-.612c0-.209-.104-.313-.313-.313h-1.552v8.528zm2.85-3.631c0-1.13.341-2.041 1.025-2.734.683-.712 1.571-1.068 2.662-1.068 1.006 0 1.794.328 2.364.982.569.636.854 1.458.854 2.464l-.043.669h-5.011c.066.607.299 1.087.697 1.438.408.342.902.512 1.481.512.323 0 .655-.061.997-.185.341-.123.602-.26.783-.413l.256-.213.755 1.253a2.793 2.793 0 01-.513.384c-.683.446-1.485.684-2.406.712-1.158 0-2.103-.365-2.834-1.096-.711-.74-1.067-1.642-1.067-2.705zm1.908-.94h3.146c-.009-.427-.147-.778-.413-1.054a1.25 1.25 0 00-.954-.413c-.455 0-.84.133-1.153.4-.313.255-.522.611-.626 1.067zm8.195-3.873h-1.566V7.547h1.566v1.666zm-1.651 7.475v-4.442c0-.209-.105-.313-.313-.313h-.57v-1.538h1.723c.332 0 .574.08.726.242.152.152.228.394.228.726v4.457c0 .208.104.313.313.313h.57v1.523h-1.723c-.332 0-.575-.076-.726-.228-.152-.151-.228-.398-.228-.74zm3.244-.028l-.129-.128.855-1.182.284.299c.124.104.375.26.755.47.38.199.755.299 1.125.299.304 0 .541-.062.712-.185a.601.601 0 00.27-.527c0-.295-.451-.613-1.352-.954a7.514 7.514 0 01-.855-.356 6.676 6.676 0 01-.783-.47 2.077 2.077 0 01-.64-.684 1.803 1.803 0 01-.2-.897c0-.692.266-1.22.798-1.58.55-.36 1.224-.54 2.021-.54.276 0 .546.023.812.07.275.048.546.128.811.242.276.105.499.261.67.47.171.209.256.451.256.726v.755h-1.595v-.356c0-.152-.09-.275-.27-.37a1.36 1.36 0 00-.641-.143c-.503-.038-.845.09-1.025.385-.171.294-.057.57.342.826.19.114.536.265 1.039.455.503.19.854.332 1.054.427.408.18.735.437.982.77.256.322.384.697.384 1.124 0 .664-.265 1.205-.797 1.623-.522.399-1.186.598-1.993.598-.722 0-1.367-.152-1.936-.456-.437-.237-.755-.474-.954-.711zm8.81-7.447h-1.567V7.547h1.567v1.666zm-1.652 7.475v-4.442c0-.209-.104-.313-.313-.313h-.57v-1.538h1.723c.332 0 .574.08.726.242.152.152.228.394.228.726v4.457c0 .208.104.313.313.313h.57v1.523h-1.723c-.332 0-.574-.076-.726-.228-.152-.151-.228-.398-.228-.74zm5.735.968h-1.794v-5.41c0-.209-.104-.313-.313-.313h-.569v-1.538h1.665c.636 0 .954.27.954.812v.213l-.028.313h.028c.219-.436.546-.797.983-1.082.436-.284.963-.427 1.58-.427 1.69 0 2.535.92 2.535 2.762v2.834c0 .208.104.313.313.313h.569v1.523h-1.722c-.342 0-.589-.076-.741-.228-.152-.151-.228-.398-.228-.74v-3.332c0-.503-.085-.873-.256-1.11-.171-.247-.465-.37-.883-.37-.474 0-.887.133-1.238.398a2.056 2.056 0 00-.712 1.082 2.97 2.97 0 00-.143.969v3.331zm6.373-3.63c0-1.13.342-2.041 1.025-2.734.683-.712 1.571-1.068 2.663-1.068 1.006 0 1.793.328 2.363.982.569.636.854 1.458.854 2.464l-.042.669h-5.012c.066.607.299 1.087.697 1.438.409.342.902.512 1.481.512.323 0 .655-.061.997-.185.342-.123.603-.26.783-.413l.256-.213.755 1.253a2.759 2.759 0 01-.513.384c-.683.446-1.485.684-2.406.712-1.158 0-2.102-.365-2.833-1.096-.712-.74-1.068-1.642-1.068-2.705zm1.908-.94h3.146c-.009-.427-.147-.778-.413-1.054a1.25 1.25 0 00-.953-.413c-.456 0-.841.133-1.154.4-.313.255-.522.611-.626 1.067zm2.52-3.873h-1.566V7.562h1.566v1.651zm3.269 7.447l-.128-.128.855-1.182.284.299c.124.104.375.26.755.47.38.199.755.299 1.125.299.303 0 .541-.062.712-.185a.601.601 0 00.27-.527c0-.295-.451-.613-1.352-.954a7.514 7.514 0 01-.855-.356 6.595 6.595 0 01-.783-.47 2.077 2.077 0 01-.64-.684 1.803 1.803 0 01-.2-.897c0-.692.266-1.22.797-1.58.551-.36 1.225-.54 2.022-.54.276 0 .546.023.812.07.275.048.546.128.811.242.276.105.499.261.67.47.17.209.256.451.256.726v.755h-1.595v-.356c0-.152-.09-.275-.27-.37a1.36 1.36 0 00-.641-.143c-.503-.038-.845.09-1.025.385-.171.294-.057.57.342.826.189.114.536.265 1.039.455.503.19.854.332 1.054.427.408.18.735.437.982.77.256.322.384.697.384 1.124 0 .664-.265 1.205-.797 1.623-.522.399-1.186.598-1.993.598-.722 0-1.367-.152-1.937-.456-.436-.237-.754-.474-.954-.711zm12.707.996h-1.866V9.128h-.925v-1.58h4.627c.949 0 1.723.303 2.321.91.598.608.897 1.4.897 2.378 0 .978-.299 1.78-.897 2.406-.598.617-1.372.926-2.321.926h-1.836v3.488zm0-8.528v3.445h1.495c.512 0 .916-.152 1.21-.455.294-.313.441-.74.441-1.282 0-.522-.142-.935-.427-1.238-.285-.314-.683-.47-1.196-.47h-1.523zm5.281 6.435c0-.94.569-1.632 1.708-2.078a3.32 3.32 0 01.969-.257 12.326 12.326 0 011.637-.128h.228v-.057c0-.503-.109-.864-.328-1.082-.208-.228-.545-.342-1.011-.342-.265 0-.493.043-.683.129-.19.075-.285.194-.285.356v.384h-1.68v-.769c0-.304.095-.565.285-.783.19-.228.446-.384.769-.47a5.809 5.809 0 011.609-.242c2.088 0 3.132.963 3.132 2.89v2.706c0 .208.104.313.313.313h.57v1.523h-1.623c-.304 0-.537-.07-.698-.213-.152-.143-.228-.337-.228-.584l.014-.313h-.028c-.133.218-.233.37-.299.455-.484.55-1.115.826-1.894.826-.693 0-1.276-.204-1.751-.612-.484-.408-.726-.959-.726-1.652zm1.822-.085c0 .266.095.489.285.669.199.18.47.27.812.27.465 0 .854-.199 1.167-.597.323-.409.484-.845.484-1.31v-.171h-.313c-1.623 0-2.435.38-2.435 1.139zm6.743.982c-.579-.702-.868-1.575-.868-2.62 0-1.044.284-1.907.854-2.59.569-.684 1.357-1.026 2.363-1.026.57 0 1.04.104 1.41.313.379.2.631.399.754.598l.072.114h.028v-.185c0-.19.067-.346.199-.47.143-.133.342-.199.598-.199h1.68v1.538h-.555c-.209 0-.313.095-.313.284v4.998c0 .598-.109 1.125-.328 1.58a2.663 2.663 0 01-.882 1.068c-.37.266-.779.46-1.225.584a4.76 4.76 0 01-1.395.2c-.93 0-1.789-.21-2.577-.627l.555-1.424c.589.323 1.258.484 2.008.484.626 0 1.125-.147 1.495-.441.37-.295.555-.74.555-1.339v-.341l.014-.385h-.028c-.446.627-1.12.94-2.022.94-1.006 0-1.803-.351-2.392-1.054zm2.776-.47c.522 0 .935-.17 1.239-.512.304-.351.456-.892.456-1.623 0-1.396-.603-2.093-1.809-2.093-.541 0-.958.18-1.252.54-.295.362-.442.855-.442 1.482 0 .664.162 1.2.484 1.608.323.4.764.598 1.324.598zm4.831-.427c0-.94.57-1.632 1.709-2.078a3.31 3.31 0 01.968-.257 12.338 12.338 0 011.637-.128h.228v-.057c0-.503-.109-.864-.327-1.082-.209-.228-.546-.342-1.011-.342a1.65 1.65 0 00-.684.129c-.189.075-.284.194-.284.356v.384h-1.68v-.769c0-.304.095-.565.284-.783.19-.228.446-.384.769-.47a5.814 5.814 0 011.609-.242c2.088 0 3.132.963 3.132 2.89v2.706c0 .208.105.313.314.313h.569v1.523h-1.623c-.304 0-.536-.07-.698-.213-.151-.143-.227-.337-.227-.584l.014-.313h-.029a5.3 5.3 0 01-.299.455c-.484.55-1.115.826-1.893.826-.693 0-1.277-.204-1.752-.612-.484-.408-.726-.959-.726-1.652zm1.823-.085c0 .266.095.489.285.669.199.18.469.27.811.27.465 0 .854-.199 1.168-.597.322-.409.484-.845.484-1.31v-.171h-.314c-1.623 0-2.434.38-2.434 1.139zm6.557 1.21v-7.29c0-.209-.104-.313-.313-.313h-.569V7.547h1.722c.646 0 .969.323.969.969v7.304c0 .208.104.313.313.313h.555v1.523h-1.709c-.341 0-.588-.076-.74-.228-.152-.151-.228-.398-.228-.74zm5.582.968H254.3V9.398c0-.209-.104-.313-.313-.313h-.57V7.547h1.723c.646 0 .968.323.968.969v2.107l-.028.612h.028c.076-.104.181-.218.314-.342.465-.446 1.086-.669 1.865-.669.968 0 1.746.351 2.335 1.054.588.702.883 1.618.883 2.748 0 1.148-.314 2.069-.94 2.762-.608.693-1.405 1.04-2.392 1.04-.418 0-.812-.082-1.182-.243-.361-.161-.617-.337-.769-.527l-.213-.256h-.029c.019.17.029.332.029.484v.37zm.042-3.588c0 .608.157 1.135.47 1.58.323.437.769.656 1.339.656.522 0 .954-.204 1.295-.613.352-.417.527-.963.527-1.637 0-.683-.166-1.234-.498-1.652a1.593 1.593 0 00-1.31-.626c-.532 0-.968.2-1.31.598-.342.399-.513.963-.513 1.694zm10.097 3.76c-1.12 0-2.064-.357-2.833-1.069-.759-.73-1.139-1.642-1.139-2.733 0-1.101.38-2.008 1.139-2.72.759-.721 1.704-1.082 2.833-1.082 1.13 0 2.074.36 2.834 1.082.769.712 1.153 1.619 1.153 2.72 0 1.091-.384 2.002-1.153 2.733-.76.712-1.704 1.068-2.834 1.068zm-2.149-3.802c0 .655.208 1.2.626 1.637.418.418.925.626 1.523.626a2.09 2.09 0 001.538-.626c.418-.437.627-.982.627-1.637s-.214-1.196-.641-1.623c-.408-.428-.916-.641-1.524-.641a2.05 2.05 0 00-1.523.64c-.418.437-.626.978-.626 1.624zm6.82 2.634l-.128-.128.854-1.182.285.299c.123.104.375.26.755.47.379.199.754.299 1.124.299.304 0 .541-.062.712-.185a.6.6 0 00.271-.527c0-.295-.451-.613-1.353-.954a7.493 7.493 0 01-.854-.356 6.516 6.516 0 01-.783-.47 2.09 2.09 0 01-.641-.684 1.803 1.803 0 01-.199-.897c0-.692.266-1.22.797-1.58.551-.36 1.225-.54 2.022-.54.275 0 .546.023.811.07.276.048.546.128.812.242.275.105.498.261.669.47.171.209.256.451.256.726v.755h-1.594v-.356c0-.152-.09-.275-.271-.37a1.356 1.356 0 00-.64-.143c-.503-.038-.845.09-1.026.385-.17.294-.056.57.342.826.19.114.536.265 1.04.455.503.19.854.332 1.053.427.408.18.736.437.983.77.256.322.384.697.384 1.124 0 .664-.266 1.205-.797 1.623-.522.399-1.187.598-1.994.598-.721 0-1.366-.152-1.936-.456-.437-.237-.755-.474-.954-.711zm10.713.996h-1.125v-1.58h.228c.228 0 .375-.105.441-.313l3.005-8.216h1.95l2.99 8.216c.066.208.214.313.441.313h.228v1.58h-1.11c-.352 0-.613-.057-.783-.17-.162-.114-.299-.333-.413-.655l-.627-1.766h-3.417l-.626 1.766c-.114.322-.252.54-.413.654-.162.114-.418.171-.769.171zm3.104-6.663l-.869 2.534h2.563l-.868-2.534-.399-1.51h-.029a17.044 17.044 0 01-.398 1.51zm5.436 5.667l-.128-.128.854-1.182.285.299c.123.104.375.26.755.47.379.199.754.299 1.124.299.304 0 .542-.062.712-.185a.6.6 0 00.271-.527c0-.295-.451-.613-1.353-.954a7.57 7.57 0 01-.854-.356 6.516 6.516 0 01-.783-.47 2.09 2.09 0 01-.641-.684 1.803 1.803 0 01-.199-.897c0-.692.266-1.22.797-1.58.551-.36 1.225-.54 2.022-.54.275 0 .546.023.812.07.275.048.545.128.811.242.275.105.498.261.669.47.171.209.257.451.257.726v.755h-1.595v-.356c0-.152-.09-.275-.271-.37a1.354 1.354 0 00-.64-.143c-.503-.038-.845.09-1.025.385-.171.294-.057.57.341.826.19.114.537.265 1.04.455s.854.332 1.053.427c.408.18.736.437.983.77.256.322.384.697.384 1.124 0 .664-.266 1.205-.797 1.623-.522.399-1.187.598-1.994.598-.721 0-1.366-.152-1.936-.456-.436-.237-.754-.474-.954-.711zm10.348 1.167c-1.12 0-2.065-.356-2.833-1.068-.76-.73-1.139-1.642-1.139-2.733 0-1.101.379-2.008 1.139-2.72.759-.721 1.703-1.082 2.833-1.082 1.129 0 2.074.36 2.833 1.082.769.712 1.153 1.619 1.153 2.72 0 1.091-.384 2.002-1.153 2.733-.759.712-1.704 1.068-2.833 1.068zm-2.15-3.801c0 .655.209 1.2.626 1.637.418.418.926.626 1.524.626a2.09 2.09 0 001.538-.626c.417-.437.626-.982.626-1.637s-.214-1.196-.641-1.623a2.02 2.02 0 00-1.523-.641c-.598 0-1.106.213-1.524.64-.417.437-.626.978-.626 1.624zm6.792 0c0-1.073.361-1.97 1.082-2.691.731-.74 1.694-1.11 2.89-1.11.39 0 .76.047 1.111.142a2.5 2.5 0 011.039.526c.323.257.484.58.484.968v.855h-1.594v-.399c0-.17-.105-.308-.313-.413a1.606 1.606 0 00-.727-.156c-.617 0-1.134.213-1.551.64-.399.427-.598.968-.598 1.623 0 .703.218 1.253.654 1.652.447.39.983.584 1.609.584.342 0 .693-.076 1.054-.228.361-.152.641-.318.84-.498l.256-.257.755 1.253a3.446 3.446 0 01-.513.456 3.118 3.118 0 01-.612.399 4.158 4.158 0 01-1.936.455c-1.177 0-2.126-.36-2.848-1.082-.721-.721-1.082-1.628-1.082-2.72zm9.84-4.813h-1.567V7.547h1.567v1.666zm-1.652 7.475v-4.442c0-.209-.104-.313-.313-.313h-.57v-1.538h1.723c.332 0 .574.08.726.242.152.152.228.394.228.726v4.457c0 .208.104.313.313.313h.57v1.523h-1.723c-.332 0-.574-.076-.726-.228-.152-.151-.228-.398-.228-.74zm3.23-1.125c0-.94.569-1.632 1.708-2.078.304-.133.627-.219.968-.257a12.352 12.352 0 011.638-.128h.227v-.057c0-.503-.109-.864-.327-1.082-.209-.228-.546-.342-1.011-.342-.266 0-.493.043-.683.129-.19.075-.285.194-.285.356v.384h-1.68v-.769c0-.304.095-.565.285-.783a1.45 1.45 0 01.768-.47 5.814 5.814 0 011.609-.242c2.089 0 3.133.963 3.133 2.89v2.706c0 .208.104.313.313.313h.569v1.523h-1.623c-.303 0-.536-.07-.697-.213-.152-.143-.228-.337-.228-.584l.014-.313h-.028c-.133.218-.233.37-.299.455-.484.55-1.116.826-1.894.826-.693 0-1.277-.204-1.751-.612-.484-.408-.726-.959-.726-1.652zm1.822-.085c0 .266.095.489.285.669.199.18.47.27.811.27.465 0 .855-.199 1.168-.597.323-.409.484-.845.484-1.31v-.171h-.313c-1.623 0-2.435.38-2.435 1.139zm5.874-1.452c0-1.073.361-1.97 1.082-2.691.731-.74 1.695-1.11 2.89-1.11.39 0 .76.047 1.111.142a2.5 2.5 0 011.039.526c.323.257.484.58.484.968v.855h-1.594v-.399c0-.17-.105-.308-.313-.413a1.606 1.606 0 00-.727-.156c-.616 0-1.134.213-1.551.64-.399.427-.598.968-.598 1.623 0 .703.218 1.253.655 1.652.446.39.982.584 1.608.584.342 0 .693-.076 1.054-.228.361-.152.641-.318.84-.498l.256-.257.755 1.253a3.446 3.446 0 01-.513.456 3.118 3.118 0 01-.612.399 4.158 4.158 0 01-1.936.455c-1.177 0-2.126-.36-2.848-1.082-.721-.721-1.082-1.628-1.082-2.72zm9.84-4.813h-1.566V7.547h1.566v1.666zm-1.652 7.475v-4.442c0-.209-.104-.313-.313-.313h-.57v-1.538h1.723c.332 0 .574.08.726.242.152.152.228.394.228.726v4.457c0 .208.104.313.313.313h.57v1.523h-1.723c-.332 0-.574-.076-.726-.228-.152-.151-.228-.398-.228-.74zm5.906-7.475h-1.58V7.547h1.58v1.666zm-3.417 11.348v-1.524c.114.02.219.029.314.029.968 0 1.452-.446 1.452-1.339v-5.481c0-.209-.105-.313-.313-.313h-.57v-1.538h1.723c.342 0 .588.08.74.242.152.152.228.394.228.726v6.507c0 .92-.261 1.59-.783 2.007-.589.503-1.338.745-2.25.727l-.541-.043zm4.822-4.998c0-.94.57-1.632 1.709-2.078a3.31 3.31 0 01.968-.257 12.34 12.34 0 011.638-.128h.227v-.057c0-.503-.109-.864-.327-1.082-.209-.228-.546-.342-1.011-.342a1.65 1.65 0 00-.683.129c-.19.075-.285.194-.285.356v.384h-1.68v-.769c0-.304.095-.565.284-.783a1.46 1.46 0 01.769-.47 5.814 5.814 0 011.609-.242c2.088 0 3.133.963 3.133 2.89v2.706c0 .208.104.313.313.313h.569v1.523h-1.623c-.304 0-.536-.07-.698-.213-.151-.143-.227-.337-.227-.584l.014-.313h-.029c-.132.218-.232.37-.299.455-.484.55-1.115.826-1.893.826-.693 0-1.277-.204-1.751-.612-.485-.408-.727-.959-.727-1.652zm1.823-.085c0 .266.095.489.285.669.199.18.469.27.811.27.465 0 .854-.199 1.168-.597.322-.409.484-.845.484-1.31v-.171h-.313c-1.624 0-2.435.38-2.435 1.139zm14.141-1.096h-4.285v-1.58h4.285v1.58zm9.694 3.274h-1.964l-3.033-8.215c-.067-.209-.214-.313-.442-.313h-.256v-1.58h1.182c.351 0 .607.056.769.17.171.114.313.332.427.655l1.936 5.638c.143.418.257.83.342 1.24l.043.241h.028c.124-.588.252-1.082.385-1.48l1.936-5.639c.114-.323.251-.54.413-.655.161-.114.417-.17.769-.17h1.196v1.58h-.271c-.228 0-.375.104-.441.313l-3.019 8.215zm7.954 0h-3.788v-1.58h1.011V9.128h-1.011v-1.58h3.788v1.58h-1.011v6.948h1.011v1.58zm5.863 0h-1.866V9.128h-1.551c-.209 0-.314.104-.314.313v.612h-1.637V8.46c0-.333.066-.565.199-.698.133-.142.37-.214.712-.214h7.048c.342 0 .579.072.712.214.133.133.199.365.199.698v1.594h-1.637v-.612c0-.209-.105-.313-.313-.313h-1.552v8.528zm6.739 0h-1.866V9.128h-.925v-1.58h4.627c.95 0 1.723.303 2.321.91.598.608.897 1.4.897 2.378 0 .978-.299 1.78-.897 2.406-.598.617-1.371.926-2.321.926h-1.836v3.488zm0-8.528v3.445h1.495c.512 0 .916-.152 1.21-.455.294-.313.441-.74.441-1.282 0-.522-.142-.935-.427-1.238-.285-.314-.683-.47-1.196-.47h-1.523zm5.564 8.528h-1.125v-1.58h.228c.228 0 .375-.105.442-.313l3.004-8.216h1.95l2.99 8.216c.067.208.214.313.442.313h.227v1.58h-1.11c-.351 0-.612-.057-.783-.17-.162-.114-.299-.333-.413-.655l-.627-1.766h-3.417l-.626 1.766c-.114.322-.252.54-.413.654-.161.114-.418.171-.769.171zm3.104-6.663l-.868 2.534h2.562l-.868-2.534-.399-1.51h-.028a17.335 17.335 0 01-.399 1.51zm7.715 6.663h-1.752v-1.808h1.752v1.808zm1.888-.968v-7.29c0-.209-.104-.313-.313-.313h-.57V7.547H405c.646 0 .968.323.968.969v7.304c0 .208.105.313.314.313h.555v1.523h-1.709c-.341 0-.588-.076-.74-.228-.152-.151-.228-.398-.228-.74zm3.958-1.694v-3.161h-.939v-1.438h.982v-1.98h1.766v1.98h1.651v1.438h-1.651v2.933c0 .522.147.883.441 1.082.304.19.636.285.997.285l.327-.029v1.58a3.069 3.069 0 01-.555.043c-.532 0-1.03-.09-1.495-.27-1.016-.39-1.524-1.21-1.524-2.463z" fill="#000"/><path d="M52.444 30.078l-.677-1.742h-2.23l-.67 1.742h-.717l2.198-5.65h.639l2.19 5.65h-.733zm-1.52-4.074a25.79 25.79 0 01-.19-.567 4.625 4.625 0 00-.078-.276c-.027.105-.056.213-.087.323a3.216 3.216 0 01-.087.292c-.026.089-.05.165-.07.228l-.639 1.702h1.78l-.63-1.702zm4.661 4.152c-.373 0-.706-.076-1-.228a1.629 1.629 0 01-.686-.71c-.163-.32-.244-.73-.244-1.228 0-.52.087-.943.26-1.269.173-.326.407-.564.701-.717a2.21 2.21 0 011.017-.228c.215 0 .423.023.622.07.2.043.363.095.489.158l-.213.575a4.084 4.084 0 00-.441-.134 1.95 1.95 0 00-.473-.063c-.284 0-.517.06-.701.182-.184.12-.32.299-.41.535-.09.237-.134.53-.134.883 0 .336.045.622.134.859.09.236.223.415.402.535.178.121.402.182.67.182.23 0 .433-.024.606-.071.179-.048.342-.105.489-.174v.615a1.86 1.86 0 01-.473.165 2.573 2.573 0 01-.615.063zm3.825 0c-.372 0-.706-.076-1-.228a1.629 1.629 0 01-.686-.71c-.162-.32-.244-.73-.244-1.228 0-.52.087-.943.26-1.269.173-.326.407-.564.701-.717a2.21 2.21 0 011.017-.228c.215 0 .423.023.622.07.2.043.363.095.489.158l-.213.575a4.09 4.09 0 00-.441-.134 1.951 1.951 0 00-.473-.063c-.284 0-.517.06-.701.182-.184.12-.32.299-.41.535-.09.237-.134.53-.134.883 0 .336.045.622.134.859.09.236.223.415.402.535.178.121.402.182.67.182.23 0 .433-.024.606-.071.179-.048.342-.105.489-.174v.615a1.86 1.86 0 01-.473.165 2.573 2.573 0 01-.614.063zm5.803-2.198c0 .352-.047.665-.142.938-.089.268-.22.496-.394.685-.168.19-.375.334-.622.434a2.21 2.21 0 01-.812.141 2.06 2.06 0 01-.772-.141 1.745 1.745 0 01-.614-.434 2.071 2.071 0 01-.41-.685 2.862 2.862 0 01-.142-.938c0-.467.079-.861.237-1.182.157-.325.383-.572.677-.74.294-.174.644-.26 1.048-.26.383 0 .72.086 1.009.26.294.168.522.415.685.74.168.32.252.715.252 1.182zm-3.19 0c0 .331.041.62.125.867.09.242.226.428.41.56.184.13.418.196.701.196.284 0 .518-.065.701-.197.184-.131.318-.317.402-.56.09-.246.134-.535.134-.866 0-.336-.044-.622-.134-.859a1.114 1.114 0 00-.41-.543c-.178-.132-.412-.197-.7-.197-.431 0-.744.141-.938.425-.195.284-.292.675-.292 1.174zm8.497 3.585h-.678v-1.465h-3.49v-4.224h.693v3.64h2.182v-3.64h.694v3.649h.599v2.04zm1.503-3.112c0 .047-.002.116-.008.205 0 .084-.002.176-.008.276l-.015.275c-.006.084-.01.153-.016.205l2.261-3.538h.851v4.224h-.646v-2.821l.016-.402a6.67 6.67 0 01.016-.307l-2.246 3.53h-.859v-4.224h.654v2.577zm6.048-2.648c.515 0 .896.113 1.142.34.247.225.37.585.37 1.079v2.876h-.504l-.133-.6h-.032a2.36 2.36 0 01-.378.387c-.126.1-.273.173-.441.22a2.154 2.154 0 01-.6.071c-.251 0-.48-.044-.685-.133-.2-.09-.357-.226-.472-.41-.116-.19-.174-.426-.174-.71 0-.42.166-.743.497-.968.33-.232.84-.358 1.528-.379l.717-.023v-.252c0-.352-.076-.597-.228-.733-.153-.137-.368-.205-.646-.205-.221 0-.431.034-.63.102a4.12 4.12 0 00-.56.221l-.213-.52c.184-.1.402-.184.654-.252.252-.074.515-.11.788-.11zm.205 2.254c-.525.021-.89.105-1.095.252-.2.147-.3.355-.3.622 0 .237.071.41.213.52a.91.91 0 00.56.166c.357 0 .653-.097.89-.292.236-.2.354-.504.354-.913v-.379l-.622.024zm6.82 3.506h-.678v-1.465h-3.49v-4.224h.693v3.64h2.182v-3.64h.694v3.649h.599v2.04zm1.503-3.112c0 .047-.002.116-.008.205 0 .084-.002.176-.007.276l-.016.275c-.006.084-.01.153-.016.205l2.261-3.538h.851v4.224h-.646v-2.821l.016-.402a6.67 6.67 0 01.016-.307l-2.246 3.53h-.859v-4.224h.654v2.577zm4.709 1.647h-.804l1.205-1.773a1.841 1.841 0 01-.472-.197 1.09 1.09 0 01-.37-.386 1.254 1.254 0 01-.142-.623c0-.404.136-.711.41-.922.272-.215.635-.323 1.087-.323h1.89v4.224h-.693v-1.679h-1.024l-1.087 1.679zm.086-2.97c0 .24.09.422.268.543.184.115.439.173.764.173h.993V26.43h-1.126c-.32 0-.552.063-.694.189a.634.634 0 00-.205.488zm9.819-1.254v4.224h-.694v-3.633h-2.182v3.633h-.693v-4.224h3.569zm3.396-.078c.52 0 .937.18 1.253.543.32.363.48.909.48 1.64 0 .477-.073.882-.22 1.213a1.614 1.614 0 01-.607.74 1.673 1.673 0 01-.914.244 1.76 1.76 0 01-.575-.086 1.607 1.607 0 01-.434-.22 1.849 1.849 0 01-.299-.308h-.047a8.856 8.856 0 01.047.693v1.734h-.693v-6.115h.567l.095.576h.031c.084-.121.184-.232.299-.331.121-.1.263-.179.426-.237.168-.057.365-.086.591-.086zm-.126.583c-.284 0-.512.055-.686.165a.902.902 0 00-.378.48 2.521 2.521 0 00-.126.82v.134c0 .347.037.641.11.883.074.241.197.425.371.551.178.126.42.19.725.19a.93.93 0 00.63-.213c.168-.142.291-.334.37-.576a2.61 2.61 0 00.126-.843c0-.483-.094-.87-.283-1.158-.184-.289-.47-.433-.859-.433zm4.603-.576c.515 0 .896.113 1.143.34.246.225.37.585.37 1.079v2.876h-.504l-.134-.6h-.032a2.423 2.423 0 01-.378.387c-.126.1-.273.173-.441.22a2.152 2.152 0 01-.599.071c-.252 0-.481-.044-.686-.133a1.054 1.054 0 01-.472-.41c-.116-.19-.174-.426-.174-.71 0-.42.166-.743.497-.968.331-.232.84-.358 1.528-.379l.717-.023v-.252c0-.352-.076-.597-.228-.733-.153-.137-.368-.205-.646-.205-.221 0-.431.034-.631.102a4.13 4.13 0 00-.559.221l-.213-.52c.184-.1.402-.184.654-.252.252-.074.515-.11.788-.11zm.205 2.254c-.525.021-.89.105-1.095.252-.2.147-.3.355-.3.622 0 .237.071.41.213.52a.91.91 0 00.559.166c.358 0 .654-.097.891-.292.236-.2.354-.504.354-.913v-.379l-.622.024zm6.048-1.119c0 .263-.079.468-.237.615-.157.147-.36.247-.607.3v.03c.263.037.492.132.686.284.194.147.291.379.291.694 0 .178-.034.344-.102.496a.992.992 0 01-.299.394c-.137.11-.313.197-.528.26a3.056 3.056 0 01-.78.087h-1.82v-4.224h1.812c.299 0 .567.035.803.103.242.063.431.173.568.33.142.153.213.363.213.631zm-.584 1.923c0-.242-.091-.415-.275-.52-.184-.106-.455-.158-.812-.158h-1.032v1.355h1.048c.347 0 .612-.05.796-.15.184-.104.275-.28.275-.527zm-.118-1.836c0-.2-.073-.344-.22-.434-.142-.094-.376-.141-.702-.141h-1.079v1.158h.953c.342 0 .602-.047.78-.142a.467.467 0 00.268-.441zm5.556.953c0 .352-.047.665-.141.938a1.89 1.89 0 01-.394.685c-.168.19-.376.334-.623.434a2.206 2.206 0 01-.811.141c-.279 0-.536-.047-.773-.141a1.743 1.743 0 01-.614-.434 2.08 2.08 0 01-.41-.685 2.875 2.875 0 01-.142-.938c0-.467.079-.861.237-1.182.157-.325.383-.572.677-.74.294-.174.644-.26 1.048-.26.384 0 .72.086 1.009.26.294.168.522.415.685.74.168.32.252.715.252 1.182zm-3.191 0c0 .331.042.62.126.867.09.242.226.428.41.56.184.13.418.196.701.196.284 0 .518-.065.702-.197.183-.131.317-.317.401-.56a2.53 2.53 0 00.134-.866c0-.336-.044-.622-.134-.859a1.11 1.11 0 00-.409-.543c-.179-.132-.413-.197-.702-.197-.43 0-.743.141-.937.425-.194.284-.292.675-.292 1.174zm7.726-1.04c0 .263-.079.468-.237.615-.157.147-.36.247-.606.3v.03c.262.037.491.132.685.284.194.147.292.379.292.694 0 .178-.035.344-.103.496a.992.992 0 01-.299.394c-.137.11-.313.197-.528.26a3.056 3.056 0 01-.78.087h-1.82v-4.224h1.812c.299 0 .567.035.804.103.241.063.43.173.567.33.142.153.213.363.213.631zm-.583 1.923c0-.242-.092-.415-.276-.52-.184-.106-.455-.158-.812-.158h-1.032v1.355h1.048c.347 0 .612-.05.796-.15.184-.104.276-.28.276-.527zm-.119-1.836c0-.2-.073-.344-.22-.434-.142-.094-.376-.141-.702-.141h-1.079v1.158h.953c.342 0 .602-.047.78-.142a.467.467 0 00.268-.441zm5.556.953c0 .352-.047.665-.141.938a1.89 1.89 0 01-.394.685c-.168.19-.376.334-.623.434a2.206 2.206 0 01-.811.141c-.279 0-.536-.047-.772-.141a1.738 1.738 0 01-.615-.434 2.08 2.08 0 01-.41-.685 2.875 2.875 0 01-.142-.938c0-.467.079-.861.237-1.182.157-.325.383-.572.677-.74.295-.174.644-.26 1.048-.26.384 0 .72.086 1.009.26.294.168.522.415.685.74.168.32.252.715.252 1.182zm-3.191 0c0 .331.042.62.126.867.09.242.226.428.41.56.184.13.418.196.701.196.284 0 .518-.065.702-.197.184-.131.317-.317.402-.56.089-.246.133-.535.133-.866a2.45 2.45 0 00-.133-.859 1.118 1.118 0 00-.41-.543c-.179-.132-.413-.197-.701-.197-.431 0-.744.141-.938.425-.194.284-.292.675-.292 1.174zm7.749-3.853a1.458 1.458 0 01-.197.662.966.966 0 01-.472.402c-.211.09-.484.134-.82.134-.341 0-.617-.045-.827-.134a.897.897 0 01-.449-.394 1.705 1.705 0 01-.174-.67h.646c.027.284.1.476.221.575.126.095.326.142.599.142.242 0 .431-.05.567-.15.142-.105.226-.294.252-.567h.654zm-2.765 4.326c0 .047-.003.116-.008.205 0 .084-.003.176-.008.276l-.016.275c-.005.084-.01.153-.016.205l2.262-3.538h.851v4.224h-.646v-2.821l.015-.402c.006-.137.011-.239.016-.307l-2.245 3.53h-.859v-4.224h.654v2.577zm10.173-2.577v4.224h-.694v-3.633h-2.182v3.633h-.694v-4.224h3.57zm5.058 2.104c0 .352-.047.665-.142.938-.089.268-.22.496-.394.685a1.64 1.64 0 01-.622.434 2.212 2.212 0 01-.812.141c-.278 0-.535-.047-.772-.141a1.743 1.743 0 01-.614-.434 2.064 2.064 0 01-.41-.685 2.848 2.848 0 01-.142-.938c0-.467.079-.861.237-1.182.157-.325.383-.572.677-.74.294-.174.644-.26 1.048-.26.384 0 .72.086 1.009.26.294.168.522.415.685.74.168.32.252.715.252 1.182zm-3.191 0c0 .331.042.62.126.867.09.242.226.428.41.56.184.13.418.196.701.196.284 0 .518-.065.701-.197.184-.131.318-.317.402-.56a2.53 2.53 0 00.134-.866c0-.336-.044-.622-.134-.859a1.116 1.116 0 00-.409-.543c-.179-.132-.413-.197-.702-.197-.43 0-.743.141-.937.425-.195.284-.292.675-.292 1.174zm8.86-2.104v4.224h-.622v-2.695c0-.11.002-.226.007-.347l.032-.354h-.024l-1.379 3.396h-.583l-1.339-3.396h-.024c.011.115.016.234.016.354.005.121.008.245.008.37v2.672h-.622v-4.224h.921l1.332 3.396 1.355-3.396h.922zm5.059 2.104c0 .352-.047.665-.142.938-.089.268-.22.496-.394.685a1.64 1.64 0 01-.622.434 2.212 2.212 0 01-.812.141c-.278 0-.535-.047-.772-.141a1.743 1.743 0 01-.614-.434 2.064 2.064 0 01-.41-.685 2.848 2.848 0 01-.142-.938c0-.467.079-.861.236-1.182.158-.325.384-.572.678-.74.294-.174.644-.26 1.048-.26.383 0 .72.086 1.009.26.294.168.522.415.685.74.168.32.252.715.252 1.182zm-3.191 0c0 .331.042.62.126.867.089.242.226.428.41.56.184.13.417.196.701.196s.518-.065.701-.197c.184-.131.318-.317.402-.56a2.53 2.53 0 00.134-.866c0-.336-.044-.622-.134-.859a1.112 1.112 0 00-.41-.543c-.178-.132-.412-.197-.701-.197-.43 0-.743.141-.937.425-.195.284-.292.675-.292 1.174zm10.05-2.104v3.649h.614v2.032h-.693v-1.457h-5.642v-4.224h.694v3.64h1.82v-3.64h.693v3.64h1.828v-3.64h.686zm2.113 2.577c0 .047-.002.116-.008.205 0 .084-.002.176-.008.276l-.015.275a9.6 9.6 0 01-.016.205l2.261-3.538h.851v4.224h-.646v-2.821l.016-.402a6.67 6.67 0 01.016-.307l-2.246 3.53h-.859v-4.224h.654v2.577zm6.383-.89c0-.615.061-1.138.182-1.568.126-.436.317-.783.575-1.04a1.985 1.985 0 011.008-.528c.342-.074.675-.14 1.001-.197.326-.058.63-.11.914-.158l.118.607a14.56 14.56 0 00-.457.079c-.168.026-.339.055-.512.086-.173.027-.341.055-.504.087a8.891 8.891 0 00-.418.079c-.173.037-.328.1-.465.189-.136.084-.255.2-.354.346a1.918 1.918 0 00-.229.544 3.41 3.41 0 00-.102.764h.047c.074-.1.173-.202.299-.307a1.679 1.679 0 011.088-.378c.367 0 .672.081.914.244.247.158.43.378.551.662.126.284.189.615.189.993 0 .467-.081.859-.244 1.174a1.644 1.644 0 01-.677.709 2.134 2.134 0 01-1.009.228 1.84 1.84 0 01-.788-.165 1.694 1.694 0 01-.607-.504 2.387 2.387 0 01-.386-.82 4.29 4.29 0 01-.134-1.126zm1.97 2.04c.231 0 .431-.047.599-.142a.936.936 0 00.402-.464c.094-.216.142-.502.142-.86 0-.43-.082-.769-.245-1.016-.157-.252-.42-.378-.788-.378-.231 0-.441.053-.63.158a1.963 1.963 0 00-.741.678c0 .257.019.506.056.748.036.242.099.46.189.654.094.189.223.341.386.457.168.11.378.165.63.165zm3.661-1.15c0 .047-.003.116-.008.205 0 .084-.002.176-.008.276l-.015.275a9.6 9.6 0 01-.016.205l2.261-3.538h.851v4.224h-.646v-2.821a44.538 44.538 0 01.031-.71l-2.245 3.53h-.859v-4.223h.654v2.577zm5.559-2.655c.321 0 .599.044.836.134.236.084.42.21.551.378a.925.925 0 01.197.599c0 .257-.071.462-.213.614a1.255 1.255 0 01-.583.323v.032c.168.047.323.113.465.197a.973.973 0 01.339.33.95.95 0 01.134.529c0 .23-.066.44-.197.63-.126.189-.323.339-.591.449-.263.11-.601.165-1.016.165-.2 0-.392-.01-.576-.031a3.107 3.107 0 01-.488-.095 2.097 2.097 0 01-.378-.15v-.622c.178.084.388.16.63.229.247.068.515.102.804.102.21 0 .399-.023.567-.07a.906.906 0 00.41-.221.595.595 0 00.149-.426.565.565 0 00-.134-.394.81.81 0 00-.401-.236 2.369 2.369 0 00-.67-.079h-.567v-.567h.457c.362 0 .651-.048.866-.142a.516.516 0 00.331-.504.49.49 0 00-.252-.45c-.163-.1-.399-.15-.709-.15a2.42 2.42 0 00-.615.072 3.762 3.762 0 00-.575.197l-.244-.552c.226-.1.462-.173.709-.22.247-.048.502-.071.764-.071zm3.485.078v1.758h2.293v-1.758h.693v4.224h-.693v-1.883h-2.293v1.883h-.694v-4.224h.694zm5.994-.078c.362 0 .672.078.929.236.263.158.463.38.599.67.142.283.213.617.213 1v.418h-2.892c.011.478.132.843.363 1.095.236.247.564.37.985.37.267 0 .504-.023.709-.07.21-.053.425-.127.646-.221v.607a3.115 3.115 0 01-.638.204c-.211.048-.46.071-.749.071-.399 0-.754-.081-1.064-.244a1.743 1.743 0 01-.717-.725c-.168-.325-.252-.722-.252-1.19 0-.462.076-.858.229-1.19.157-.33.375-.585.654-.763.283-.18.612-.268.985-.268zm-.008.567c-.331 0-.594.108-.788.323-.189.21-.302.504-.339.882h2.151a1.66 1.66 0 00-.11-.63.895.895 0 00-.339-.418c-.147-.105-.339-.157-.575-.157zm4.557 3.813a2.14 2.14 0 01-1-.228 1.629 1.629 0 01-.686-.71c-.163-.32-.244-.73-.244-1.228 0-.52.087-.943.26-1.269.173-.326.407-.564.701-.717.3-.152.638-.228 1.017-.228.215 0 .422.023.622.07.2.043.363.095.489.158l-.213.575a4.086 4.086 0 00-.441-.134 1.953 1.953 0 00-.473-.063c-.284 0-.518.06-.701.182-.184.12-.321.299-.41.535-.089.237-.134.53-.134.883 0 .336.045.622.134.859.089.236.223.415.402.535.178.121.402.182.669.182.232 0 .434-.024.607-.071.179-.048.342-.105.489-.174v.615a1.86 1.86 0 01-.473.165 2.574 2.574 0 01-.615.063zm4.314-1.985h-2.301v-.678h2.301v.678zm5.781-2.317v4.224h-.623v-2.695c0-.11.003-.226.008-.347l.032-.354h-.024l-1.379 3.396h-.583l-1.339-3.396h-.024c.01.115.016.234.016.354.005.121.008.245.008.37v2.672h-.623v-4.224h.922l1.331 3.396 1.356-3.396h.922zm2.041 2.577c0 .047-.003.116-.008.205 0 .084-.003.176-.008.276a19.487 19.487 0 01-.031.48l2.261-3.538h.851v4.224h-.646v-2.821a44.538 44.538 0 01.031-.71l-2.245 3.53h-.859v-4.223h.654v2.577zm7.025-2.577v.584h-1.883v3.64h-.694v-4.224h2.577zm2.881-.078c.52 0 .937.18 1.252.543.321.363.481.909.481 1.64 0 .477-.074.882-.221 1.213a1.613 1.613 0 01-.606.74 1.675 1.675 0 01-.914.244c-.216 0-.407-.028-.575-.086a1.592 1.592 0 01-.434-.22 1.849 1.849 0 01-.299-.308h-.048c.011.09.021.202.032.339.011.136.016.254.016.354v1.734h-.694v-6.115h.568l.094.576h.032c.084-.121.184-.232.299-.331.121-.1.263-.179.426-.237.168-.057.365-.086.591-.086zm-.127.583c-.283 0-.512.055-.685.165a.902.902 0 00-.378.48 2.521 2.521 0 00-.126.82v.134c0 .347.037.641.11.883.074.241.197.425.37.551.179.126.421.19.725.19.258 0 .468-.072.631-.213.168-.142.291-.334.37-.576a2.61 2.61 0 00.126-.843c0-.483-.095-.87-.284-1.158-.184-.289-.47-.433-.859-.433zm4.604-.576c.515 0 .895.113 1.142.34.247.225.371.585.371 1.079v2.876h-.505l-.134-.6h-.031a2.423 2.423 0 01-.378.387 1.25 1.25 0 01-.442.22 2.14 2.14 0 01-.598.071c-.253 0-.481-.044-.686-.133a1.06 1.06 0 01-.473-.41c-.115-.19-.173-.426-.173-.71 0-.42.165-.743.496-.968.331-.232.841-.358 1.529-.379l.717-.023v-.252c0-.352-.076-.597-.229-.733-.152-.137-.367-.205-.646-.205-.22 0-.43.034-.63.102a4.08 4.08 0 00-.559.221l-.213-.52c.184-.1.402-.184.654-.252.252-.074.515-.11.788-.11zm.205 2.254c-.526.021-.891.105-1.096.252a.729.729 0 00-.299.622c0 .237.071.41.213.52.147.11.333.166.559.166.357 0 .654-.097.89-.292.237-.2.355-.504.355-.913v-.379l-.622.024zm3.345-2.183v1.758h2.292v-1.758h.694v4.224h-.694v-1.883h-2.292v1.883h-.694v-4.224h.694zm7.278.584h-1.379v3.64h-.686v-3.64h-1.363v-.584h3.428v.584zm2.471-.654c.514 0 .895.113 1.142.338.247.226.37.586.37 1.08v2.876h-.504l-.134-.6h-.031a2.385 2.385 0 01-.379.387c-.126.1-.273.173-.441.22a2.147 2.147 0 01-.599.071c-.252 0-.48-.044-.685-.133a1.06 1.06 0 01-.473-.41c-.115-.19-.173-.426-.173-.71 0-.42.165-.743.496-.968.331-.232.841-.358 1.529-.379l.717-.023v-.252c0-.352-.076-.597-.229-.733-.152-.137-.367-.205-.646-.205-.221 0-.431.034-.63.102-.2.063-.386.137-.56.221l-.212-.52c.183-.1.401-.184.654-.252.252-.074.514-.11.788-.11zm.204 2.253c-.525.021-.89.105-1.095.252a.729.729 0 00-.299.622c0 .237.071.41.212.52a.91.91 0 00.56.166c.357 0 .654-.097.89-.292.237-.2.355-.504.355-.913v-.379l-.623.024zm7.183-2.183v4.224h-.623v-2.695c0-.11.003-.226.008-.347l.031-.354h-.023l-1.379 3.396h-.583l-1.339-3.396h-.024c.01.115.016.234.016.354.005.121.008.245.008.37v2.672h-.623v-4.224h.922l1.331 3.396 1.356-3.396h.922zm3.558 4.555h-.677l2.001-6.193h.677l-2.001 6.193zm4.761-.331h-.433V29.4h.11c.137 0 .223-.058.26-.173l1.741-4.712h.828l1.741 4.712c.037.115.123.173.26.173h.118v.678h-.441c-.194 0-.336-.03-.426-.087-.084-.063-.157-.186-.22-.37l-.418-1.143h-2.048l-.418 1.143c-.068.184-.147.307-.236.37-.084.058-.224.087-.418.087zm1.867-3.956l-.606 1.694h1.662l-.606-1.694-.221-.78h-.016c-.068.32-.139.58-.213.78zm3.152 3.42l-.055-.071.394-.512c.032.042.103.11.213.205.289.257.62.386.993.386.205 0 .37-.045.496-.134a.444.444 0 00.197-.378c0-.221-.257-.426-.772-.615a6.52 6.52 0 01-.489-.205 3.675 3.675 0 01-.433-.252 1.16 1.16 0 01-.362-.37 1 1 0 01-.119-.48c0-.353.137-.626.41-.82.273-.2.631-.3 1.072-.3.315 0 .612.063.89.19.278.12.418.314.418.582v.379h-.686v-.197c0-.105-.063-.187-.189-.245a.871.871 0 00-.41-.094c-.493 0-.74.157-.74.473 0 .225.255.436.764.63.2.068.362.131.489.189.131.058.275.14.433.244.163.1.284.224.362.37a.94.94 0 01.126.49c0 .351-.139.635-.417.85-.273.21-.623.315-1.048.315-.368 0-.683-.068-.946-.205-.262-.136-.459-.278-.591-.425zm3.618 0l-.055-.071.394-.512c.031.042.102.11.212.205.289.257.62.386.993.386.205 0 .37-.045.496-.134a.442.442 0 00.197-.378c0-.221-.257-.426-.772-.615a6.306 6.306 0 01-.488-.205 3.601 3.601 0 01-.434-.252 1.16 1.16 0 01-.362-.37 1 1 0 01-.118-.48c0-.353.136-.626.41-.82.273-.2.63-.3 1.071-.3.315 0 .612.063.89.19.279.12.418.314.418.582v.379h-.685v-.197c0-.105-.064-.187-.19-.245a.867.867 0 00-.409-.094c-.494 0-.741.157-.741.473 0 .225.255.436.764.63.2.068.363.131.489.189.131.058.276.14.433.244.163.1.284.224.363.37a.94.94 0 01.126.49c0 .351-.14.635-.418.85-.273.21-.622.315-1.048.315-.368 0-.683-.068-.945-.205-.263-.136-.46-.278-.591-.425zm4.255-2.955c.415-.394.922-.59 1.521-.59.599 0 1.108.196 1.528.59.415.394.623.89.623 1.49 0 .593-.21 1.092-.63 1.496-.415.4-.922.6-1.521.6-.599 0-1.106-.2-1.521-.6-.415-.399-.622-.898-.622-1.497 0-.599.207-1.095.622-1.489zm1.521 2.923c.389 0 .712-.134.969-.402.268-.273.402-.617.402-1.032 0-.41-.134-.748-.402-1.016a1.286 1.286 0 00-.969-.402 1.32 1.32 0 00-.969.402 1.408 1.408 0 00-.394 1.016c0 .405.131.746.394 1.025.268.273.591.41.969.41zm2.759-1.426c0-.593.2-1.09.599-1.489.399-.4.914-.599 1.544-.599.195 0 .392.024.591.071.205.047.397.142.575.284a.642.642 0 01.268.52v.41h-.693v-.221c0-.131-.082-.231-.244-.3a1.315 1.315 0 00-1.474.292c-.257.257-.386.599-.386 1.024 0 .436.137.783.41 1.04.278.253.609.379.993.379.215 0 .428-.045.638-.134a1.78 1.78 0 00.457-.276l.142-.142.331.544a1.329 1.329 0 01-.268.236c-.373.284-.825.433-1.356.45-.619 0-1.131-.198-1.536-.592-.394-.394-.591-.893-.591-1.497zm5.367-2.773h-.685v-.796h.685v.796zm-.701 4.262v-2.655c0-.115-.058-.173-.173-.173h-.323v-.654h.748c.179 0 .308.04.386.118.079.079.119.207.119.386v2.655c0 .116.057.174.173.174h.323v.654h-.749c-.178 0-.307-.04-.386-.119-.078-.078-.118-.207-.118-.386zm1.792-.614c-.011-.294.073-.536.252-.725a1.61 1.61 0 01.693-.433c.174-.069.355-.113.544-.134a5.76 5.76 0 01.914-.071h.173v-.04c0-.346-.068-.59-.205-.732-.136-.148-.362-.221-.677-.221-.147 0-.294.024-.441.07-.142.043-.213.122-.213.237v.229h-.717v-.394c0-.147.05-.276.15-.386a.824.824 0 01.401-.237c.289-.084.565-.126.828-.126.583 0 1 .134 1.252.402.258.263.387.649.387 1.158v1.694c0 .116.057.174.173.174h.323v.654h-.717c-.331 0-.496-.153-.496-.457l.015-.237h-.015a2.344 2.344 0 01-.174.276c-.257.341-.622.512-1.095.512-.362 0-.68-.108-.953-.323-.268-.215-.402-.512-.402-.89zm1.52.599c.305 0 .557-.132.757-.394a1.41 1.41 0 00.307-.875v-.134h-.197c-.189 0-.36.008-.512.024a2.65 2.65 0 00-.504.086.844.844 0 00-.441.229.727.727 0 00-.166.425.595.595 0 00.197.45c.142.136.328.2.559.189zm3.215-.938v-1.915h-.52v-.614h.535v-1.095h.749v1.095h.953v.614h-.953v1.828c0 .19.029.35.087.481a.604.604 0 00.228.276c.095.052.181.089.26.11a1.1 1.1 0 00.268.032l.181-.016v.677a2.56 2.56 0 01-.268.016c-.278 0-.528-.047-.748-.142-.515-.22-.772-.67-.772-1.347zm3.518-3.31h-.685v-.795h.685v.796zm-.701 4.263v-2.655c0-.115-.058-.173-.173-.173h-.323v-.654h.748c.179 0 .307.04.386.118.079.079.118.207.118.386v2.655c0 .116.058.174.174.174h.323v.654h-.749c-.178 0-.307-.04-.386-.119-.079-.078-.118-.207-.118-.386zm2.406-2.986c.415-.394.922-.59 1.521-.59.599 0 1.108.196 1.528.59.415.394.623.89.623 1.49 0 .593-.21 1.092-.63 1.496-.415.4-.922.6-1.521.6-.599 0-1.106-.2-1.521-.6-.415-.399-.622-.898-.622-1.497 0-.599.207-1.095.622-1.489zm1.521 2.923c.389 0 .712-.134.969-.402.268-.273.402-.617.402-1.032 0-.41-.134-.748-.402-1.016a1.286 1.286 0 00-.969-.402 1.32 1.32 0 00-.969.402 1.408 1.408 0 00-.394 1.016c0 .405.131.746.394 1.025.268.273.591.41.969.41zm3.909.568h-.764v-3.16c0-.115-.058-.173-.173-.173h-.323v-.654h.732c.337 0 .505.147.505.441v.15l-.016.228h.016c.1-.22.278-.428.535-.622.247-.195.568-.292.962-.292.467 0 .811.126 1.032.379.226.246.339.63.339 1.15v1.725c0 .116.057.174.173.174h.323v.654h-.756c-.179 0-.308-.04-.386-.119-.079-.078-.119-.207-.119-.386v-1.875c0-.341-.055-.593-.165-.756-.105-.163-.299-.244-.583-.244-.299 0-.565.091-.796.275a1.293 1.293 0 00-.465.701 1.64 1.64 0 00-.071.536v1.868zm6.599-3.49c.415-.395.922-.592 1.521-.592.599 0 1.108.197 1.529.591.415.394.622.89.622 1.49 0 .593-.21 1.092-.63 1.496-.415.4-.922.6-1.521.6-.599 0-1.106-.2-1.521-.6-.415-.399-.622-.898-.622-1.497 0-.599.207-1.095.622-1.489zm1.521 2.922c.389 0 .712-.134.969-.402.268-.273.402-.617.402-1.032 0-.41-.134-.748-.402-1.016a1.286 1.286 0 00-.969-.402 1.32 1.32 0 00-.969.402 1.408 1.408 0 00-.394 1.016c0 .405.131.746.394 1.025.268.273.591.41.969.41zm3.91.568h-.765v-3.373h-.496v-.614h.496v-.134c0-.494.126-.856.378-1.088.284-.262.66-.393 1.127-.393l.292.023v.654a1.338 1.338 0 00-.402 0 .96.96 0 00-.221.071.603.603 0 00-.205.134.73.73 0 00-.149.244 1.116 1.116 0 00-.055.37v.119h.945v.614h-.945v3.373zm4.134-.505v-4.207c0-.116-.058-.173-.173-.173h-.339v-.678h.796c.178 0 .307.04.386.118.079.079.118.208.118.386v4.208c0 .115.058.173.173.173h1.537c.115 0 .173-.058.173-.173v-.355h.717v.701c0 .179-.039.308-.118.386-.079.08-.208.119-.386.119h-2.38c-.178 0-.307-.04-.386-.119-.079-.078-.118-.207-.118-.386zm3.728-1.489c0-.625.189-1.13.567-1.513.379-.383.857-.575 1.434-.575.541 0 .962.176 1.261.528.305.352.457.799.457 1.34l-.024.315h-2.907c.021.404.163.73.426.977.262.236.577.354.945.354.189 0 .381-.036.575-.11.195-.073.344-.152.449-.236l.142-.119.331.544-.189.166a3.19 3.19 0 01-.528.26 2.265 2.265 0 01-.819.157c-.625 0-1.135-.197-1.529-.59-.394-.405-.591-.904-.591-1.498zm.82-.465h2.111c-.01-.31-.105-.556-.283-.74a.863.863 0 00-.654-.276c-.305 0-.562.09-.773.268-.21.178-.344.428-.401.748zm5.324-1.623c.341 0 .617.063.827.19.216.125.352.249.41.37l.039.063h.016v-.126c0-.268.147-.402.441-.402h.741v.654h-.315c-.116 0-.174.052-.174.157v3.01c0 .315-.057.594-.173.835a1.37 1.37 0 01-.457.568 2.067 2.067 0 01-.638.315 2.601 2.601 0 01-.741.102c-.467 0-.922-.11-1.363-.33l.26-.615c.321.178.683.268 1.088.268.388 0 .696-.095.921-.284.226-.184.339-.46.339-.827v-.268l.016-.252h-.016c-.247.404-.643.606-1.19.606-.546 0-.979-.191-1.3-.575-.32-.383-.48-.872-.48-1.465 0-.583.155-1.061.465-1.434.315-.373.743-.56 1.284-.56zm.181 3.373c.326 0 .583-.11.772-.331.195-.226.292-.573.292-1.04 0-.893-.376-1.34-1.127-1.34-.341 0-.609.118-.804.355-.189.23-.283.551-.283.96 0 .421.102.76.307 1.017.21.253.491.379.843.379zm2.795-.41c-.01-.294.074-.536.252-.725.179-.194.41-.339.694-.433.173-.069.354-.113.543-.134.3-.048.604-.071.914-.071h.174v-.04c0-.346-.069-.59-.205-.732-.137-.148-.363-.221-.678-.221-.147 0-.294.024-.441.07-.142.043-.213.122-.213.237v.229h-.717v-.394c0-.147.05-.276.15-.386.1-.11.234-.19.402-.237a2.96 2.96 0 01.827-.126c.583 0 1.001.134 1.253.402.257.263.386.649.386 1.158v1.694c0 .116.058.174.173.174h.323v.654h-.717c-.331 0-.496-.153-.496-.457l.016-.237h-.016a2.344 2.344 0 01-.174.276c-.257.341-.622.512-1.095.512-.362 0-.68-.108-.953-.323-.268-.215-.402-.512-.402-.89zm1.521.599c.304 0 .557-.132.756-.394a1.41 1.41 0 00.307-.875v-.134h-.197c-.189 0-.359.008-.512.024a2.65 2.65 0 00-.504.086.844.844 0 00-.441.229.727.727 0 00-.166.425.599.599 0 00.197.45c.142.136.329.2.56.189zm3.167.015v-4.23c0-.116-.058-.174-.174-.174h-.323v-.654h.757c.178 0 .307.04.386.118.079.079.118.208.118.386v4.231c0 .116.058.174.173.174h.323v.654h-.756c-.179 0-.307-.04-.386-.119-.079-.078-.118-.207-.118-.386zm4.177.505h-.434V29.4h.111c.136 0 .223-.058.26-.173l1.741-4.712h.827l1.742 4.712c.036.115.123.173.26.173h.118v.678h-.442c-.194 0-.336-.03-.425-.087-.084-.063-.158-.186-.221-.37l-.417-1.143h-2.049l-.417 1.143c-.069.184-.147.307-.237.37-.084.058-.223.087-.417.087zm1.867-3.956l-.607 1.694h1.663l-.607-1.694-.22-.78h-.016a5.92 5.92 0 01-.213.78zm4.294-.811h-.685v-.796h.685v.796zm-.701 4.262v-2.655c0-.115-.058-.173-.173-.173h-.323v-.654h.748c.179 0 .308.04.386.118.079.079.119.207.119.386v2.655c0 .116.057.174.173.174h.323v.654h-.748c-.179 0-.308-.04-.387-.119-.078-.078-.118-.207-.118-.386zm1.792-1.489c0-.635.168-1.14.504-1.513.336-.383.77-.575 1.3-.575.315 0 .573.06.772.181.205.121.347.245.426.37l.031.064h.016a2.938 2.938 0 01-.016-.268v-1c0-.116-.057-.174-.173-.174h-.323v-.654h.756c.179 0 .308.04.386.118.079.079.119.208.119.386v4.231c0 .116.057.174.173.174h.323v.654h-.733c-.325 0-.488-.142-.488-.426l.008-.205h-.016c-.063.105-.124.19-.181.252-.279.316-.654.473-1.127.473-.536 0-.964-.192-1.284-.575-.316-.383-.473-.888-.473-1.513zm1.907 1.426c.341 0 .617-.123.827-.37.215-.247.323-.601.323-1.064 0-.383-.1-.714-.299-.992-.195-.284-.473-.426-.836-.426-.331 0-.604.131-.819.394-.215.257-.323.602-.323 1.032 0 .426.102.77.307 1.032a1 1 0 00.82.394zm6.138.568h-.733v-4.736c0-.115-.058-.173-.173-.173h-.324v-.654h.757c.178 0 .307.04.386.118.079.079.118.208.118.386v1.3l-.016.331h.016c.095-.126.155-.202.181-.228.284-.284.652-.426 1.103-.426.531 0 .954.192 1.269.575.32.384.481.888.481 1.513 0 .62-.171 1.124-.513 1.513-.336.383-.769.575-1.3.575-.31 0-.57-.066-.78-.197-.21-.136-.352-.27-.425-.402l-.047-.07h-.016c.01.115.016.215.016.299v.276zm.015-1.978c0 .389.098.722.292 1a.97.97 0 00.835.418c.326 0 .599-.126.82-.378.22-.263.33-.612.33-1.048 0-.425-.105-.77-.315-1.032a1 1 0 00-.819-.394c-.342 0-.617.123-.827.37-.211.247-.316.602-.316 1.064zm4.031.544v-1.726c0-.115-.057-.173-.173-.173h-.323v-.654h.749c.341 0 .512.163.512.488v1.891c0 .337.055.586.165.749.11.163.302.244.575.244.394 0 .709-.147.946-.441.236-.294.354-.649.354-1.064v-1.867h.765v3.16c0 .115.057.173.173.173h.323v.654h-.733c-.336 0-.504-.147-.504-.442v-.15l.008-.228h-.016c-.105.231-.286.441-.544.63-.262.19-.569.284-.921.284-.904 0-1.356-.51-1.356-1.528zm4.547.898l-.055-.071.394-.512c.032.042.103.11.213.205.289.257.62.386.993.386.205 0 .37-.045.496-.134a.444.444 0 00.197-.378c0-.221-.257-.426-.772-.615a6.52 6.52 0 01-.489-.205 3.675 3.675 0 01-.433-.252 1.15 1.15 0 01-.362-.37 1 1 0 01-.119-.48c0-.353.137-.626.41-.82.273-.2.63-.3 1.072-.3.315 0 .612.063.89.19.278.12.418.314.418.582v.379h-.686v-.197c0-.105-.063-.187-.189-.245a.871.871 0 00-.41-.094c-.493 0-.74.157-.74.473 0 .225.254.436.764.63.2.068.362.131.488.189.132.058.276.14.434.244.163.1.283.224.362.37a.94.94 0 01.126.49c0 .351-.139.635-.417.85-.273.21-.623.315-1.048.315-.368 0-.683-.068-.946-.205-.262-.136-.459-.278-.591-.425zm4.76-4.231h-.685v-.796h.685v.796zm-.701 4.262v-2.655c0-.115-.058-.173-.173-.173h-.323v-.654h.748c.179 0 .307.04.386.118.079.079.118.207.118.386v2.655c0 .116.058.174.174.174h.323v.654h-.749c-.178 0-.307-.04-.386-.119-.079-.078-.118-.207-.118-.386zm2.934.505h-.764v-3.16c0-.115-.058-.173-.174-.173h-.323v-.654h.733c.336 0 .504.147.504.441v.15l-.015.228h.015c.1-.22.279-.428.536-.622.247-.195.567-.292.961-.292.468 0 .812.126 1.033.379.225.246.338.63.338 1.15v1.725c0 .116.058.174.174.174h.323v.654h-.757c-.178 0-.307-.04-.386-.119-.078-.078-.118-.207-.118-.386v-1.875c0-.341-.055-.593-.165-.756-.105-.163-.3-.244-.583-.244-.3 0-.565.091-.796.275a1.293 1.293 0 00-.465.701 1.64 1.64 0 00-.071.536v1.868zm3.821-1.994c0-.625.189-1.13.568-1.513.378-.383.856-.575 1.434-.575.541 0 .961.176 1.26.528.305.352.457.799.457 1.34l-.023.315h-2.908c.021.404.163.73.426.977.262.236.577.354.945.354.189 0 .381-.036.575-.11.195-.073.344-.152.449-.236l.142-.119.331.544-.189.166a3.19 3.19 0 01-.528.26 2.265 2.265 0 01-.819.157c-.625 0-1.135-.197-1.529-.59-.394-.405-.591-.904-.591-1.498zm.82-.465h2.111c-.01-.31-.105-.556-.283-.74a.863.863 0 00-.654-.276c-.305 0-.562.09-.773.268-.21.178-.344.428-.401.748zm3.551 1.923l-.055-.071.394-.512c.032.042.102.11.213.205.289.257.62.386.993.386.204 0 .37-.045.496-.134a.444.444 0 00.197-.378c0-.221-.257-.426-.772-.615a6.347 6.347 0 01-.489-.205 3.596 3.596 0 01-.433-.252 1.153 1.153 0 01-.363-.37 1.01 1.01 0 01-.118-.48c0-.353.137-.626.41-.82.273-.2.63-.3 1.072-.3.315 0 .611.063.89.19.278.12.417.314.417.582v.379h-.685v-.197c0-.105-.063-.187-.189-.245a.874.874 0 00-.41-.094c-.494 0-.74.157-.74.473 0 .225.254.436.764.63.199.068.362.131.488.189.132.058.276.14.434.244.162.1.283.224.362.37a.94.94 0 01.126.49c0 .351-.139.635-.417.85-.274.21-.623.315-1.048.315-.368 0-.683-.068-.946-.205-.262-.136-.459-.278-.591-.425zm3.618 0l-.056-.071.394-.512c.032.042.103.11.213.205.289.257.62.386.993.386.205 0 .37-.045.496-.134a.442.442 0 00.197-.378c0-.221-.257-.426-.772-.615a6.306 6.306 0 01-.488-.205 3.601 3.601 0 01-.434-.252 1.16 1.16 0 01-.362-.37 1 1 0 01-.118-.48c0-.353.136-.626.409-.82.273-.2.631-.3 1.072-.3.315 0 .612.063.89.19.279.12.418.314.418.582v.379h-.686v-.197c0-.105-.063-.187-.189-.245a.871.871 0 00-.41-.094c-.493 0-.74.157-.74.473 0 .225.255.436.764.63.2.068.363.131.489.189.131.058.275.14.433.244.163.1.284.224.362.37a.94.94 0 01.126.49c0 .351-.139.635-.417.85-.273.21-.623.315-1.048.315-.368 0-.683-.068-.946-.205-.262-.136-.459-.278-.59-.425zm6.938.536h-.764v-3.16c0-.115-.058-.173-.173-.173h-.323v-.654h.732c.337 0 .505.147.505.441v.15l-.008.228h.016c.105-.247.281-.46.527-.638.263-.184.541-.276.836-.276.667 0 1.066.302 1.197.906h.016c.121-.257.307-.47.559-.638a1.48 1.48 0 01.859-.268c.877 0 1.316.51 1.316 1.529v1.725c0 .116.058.174.173.174h.323v.654h-.756c-.179 0-.307-.04-.386-.119-.079-.078-.118-.207-.118-.386V27.69c0-.336-.053-.585-.158-.748-.1-.168-.281-.252-.543-.252a.983.983 0 00-.694.291 1.534 1.534 0 00-.425.733 2.583 2.583 0 00-.063.544v1.82h-.765V27.69c0-.336-.049-.585-.149-.748-.1-.168-.279-.252-.536-.252-.273 0-.512.1-.717.299a1.63 1.63 0 00-.426.756 2.103 2.103 0 00-.055.513v1.82zm7.395-4.767h-.685v-.796h.685v.796zm-.701 4.262v-2.655c0-.115-.058-.173-.174-.173h-.323v-.654h.749c.179 0 .307.04.386.118.079.079.118.207.118.386v2.655c0 .116.058.174.174.174h.323v.654h-.749c-.179 0-.307-.04-.386-.119-.079-.078-.118-.207-.118-.386zm3.541-3.577c.341 0 .617.063.827.19.215.125.352.249.41.37l.039.063h.016v-.126c0-.268.147-.402.441-.402h.741v.654h-.316c-.115 0-.173.052-.173.157v3.01c0 .315-.058.594-.173.835a1.38 1.38 0 01-.457.568 2.078 2.078 0 01-.638.315 2.606 2.606 0 01-.741.102c-.468 0-.922-.11-1.363-.33l.26-.615a2.2 2.2 0 001.087.268c.389 0 .696-.095.922-.284.226-.184.339-.46.339-.827v-.268l.016-.252h-.016c-.247.404-.644.606-1.19.606-.546 0-.98-.191-1.3-.575-.32-.383-.481-.872-.481-1.465 0-.583.155-1.061.465-1.434.315-.373.744-.56 1.285-.56zm.181 3.373c.325 0 .583-.11.772-.331.194-.226.291-.573.291-1.04 0-.893-.375-1.34-1.126-1.34-.342 0-.61.118-.804.355-.189.23-.284.551-.284.96 0 .421.103.76.308 1.017.21.253.491.379.843.379zm3.937.709h-.764v-3.16c0-.115-.058-.173-.173-.173h-.323v-.654h.724c.342 0 .513.155.513.465v.252l-.016.276h.016c.099-.31.262-.56.488-.749a1.15 1.15 0 01.772-.291l.205.015v.757a1.045 1.045 0 00-.906.229 1.388 1.388 0 00-.441.685 2.445 2.445 0 00-.095.717v1.63zm1.698-1.12c-.011-.293.073-.535.252-.724.179-.194.41-.339.693-.433.174-.069.355-.113.544-.134a5.76 5.76 0 01.914-.071h.173v-.04c0-.346-.068-.59-.204-.732-.137-.148-.363-.221-.678-.221-.147 0-.294.024-.441.07-.142.043-.213.122-.213.237v.229h-.717v-.394c0-.147.05-.276.15-.386a.823.823 0 01.402-.237c.288-.084.564-.126.827-.126.583 0 1 .134 1.253.402.257.263.386.649.386 1.158v1.694c0 .116.057.174.173.174h.323v.654h-.717c-.331 0-.496-.153-.496-.457l.015-.237h-.015a2.344 2.344 0 01-.174.276c-.257.341-.622.512-1.095.512-.362 0-.68-.108-.953-.323-.268-.215-.402-.512-.402-.89zm1.521.6c.304 0 .556-.132.756-.394a1.41 1.41 0 00.307-.875v-.134h-.197c-.189 0-.36.008-.512.024a2.65 2.65 0 00-.504.086.844.844 0 00-.441.229.727.727 0 00-.166.425.599.599 0 00.197.45c.142.136.328.2.56.189zm3.947.52h-.765v-3.16c0-.115-.057-.173-.173-.173h-.323v-.654h.733c.336 0 .504.147.504.441v.15l-.016.228h.016c.1-.22.278-.428.536-.622.247-.195.567-.292.961-.292.467 0 .812.126 1.032.379.226.246.339.63.339 1.15v1.725c0 .116.058.174.173.174h.323v.654h-.756c-.179 0-.307-.04-.386-.119-.079-.078-.118-.207-.118-.386v-1.875c0-.341-.055-.593-.166-.756-.105-.163-.299-.244-.583-.244-.299 0-.565.091-.796.275a1.286 1.286 0 00-.464.701 1.61 1.61 0 00-.071.536v1.868zm4.238-1.458v-1.915h-.52v-.614h.536v-1.095h.749v1.095h.953v.614h-.953v1.828c0 .19.029.35.086.481a.606.606 0 00.229.276c.094.052.181.089.26.11a1.1 1.1 0 00.268.032l.181-.016v.677c-.095.01-.184.016-.268.016-.278 0-.528-.047-.748-.142-.515-.22-.773-.67-.773-1.347zm2.376.922l-.055-.071.394-.512c.032.042.103.11.213.205.289.257.62.386.993.386.205 0 .37-.045.496-.134a.444.444 0 00.197-.378c0-.221-.257-.426-.772-.615a6.52 6.52 0 01-.489-.205 3.675 3.675 0 01-.433-.252 1.15 1.15 0 01-.362-.37 1 1 0 01-.119-.48c0-.353.137-.626.41-.82.273-.2.63-.3 1.072-.3.315 0 .612.063.89.19.278.12.418.314.418.582v.379h-.686v-.197c0-.105-.063-.187-.189-.245a.871.871 0 00-.41-.094c-.493 0-.74.157-.74.473 0 .225.254.436.764.63.2.068.362.131.488.189.132.058.276.14.434.244.163.1.283.224.362.37a.94.94 0 01.126.49c0 .351-.139.635-.417.85-.273.21-.623.315-1.048.315-.368 0-.683-.068-.946-.205-.262-.136-.459-.278-.591-.425z" fill="#A0A0A0"/></svg>