<svg width="188" height="25" fill="none" xmlns="http://www.w3.org/2000/svg"><path d="M4 24.08L7.08 21 4 17.92.92 21 4 24.08zM4.533 21v-3.036H3.467V21h1.066zm4.751-7.787h74.431v-1.067H9.285v1.067zm80.25-5.818V0h-1.067v7.395h1.066zm-5.819 5.818a5.818 5.818 0 005.818-5.818h-1.066a4.751 4.751 0 01-4.751 4.75v1.068zm-79.182 4.75a4.751 4.751 0 014.751-4.75v-1.067a5.818 5.818 0 00-5.817 5.818h1.066zM184 24.08L180.921 21 184 17.92l3.079 3.08L184 24.08zm-.533-3.08v-3.036h1.066V21h-1.066zm-4.751-7.787h-74.432v-1.067h74.432v1.067zm-80.25-5.818V0h1.067v7.395h-1.066zm5.818 5.818a5.817 5.817 0 01-5.817-5.818h1.066a4.75 4.75 0 004.751 4.75v1.068zm79.183 4.75a4.751 4.751 0 00-4.751-4.75v-1.067a5.817 5.817 0 015.817 5.818h-1.066z" fill="#1859FF"/></svg>