<svg width="52" height="423" fill="none" xmlns="http://www.w3.org/2000/svg"><path d="M.226 201L6 195.227 11.774 201 6 206.774.226 201zM6 200h5.94v2H6v-2zm14.85-8.908V10.908h2v180.184h-2zM31.756 0H46v2H31.758V0zM20.85 10.908C20.85 4.884 25.733 0 31.758 0v2a8.908 8.908 0 00-8.909 8.908h-2zM11.941 200a8.908 8.908 0 008.908-8.908h2c0 6.024-4.884 10.908-10.908 10.908v-2zm39.832 217L46 411.227 40.227 417 46 422.774 51.773 417zM46 416h-5.94v2H46v-2zm-14.85-8.908V226.908h-2v180.184h2zM20.244 216H6v2h14.242v-2zm10.908 10.908c0-6.024-4.884-10.908-10.909-10.908v2a8.908 8.908 0 018.909 8.908h2zM40.059 416a8.908 8.908 0 01-8.908-8.908h-2c0 6.024 4.884 10.908 10.908 10.908v-2z" fill="#1859FF"/></svg>