<svg width="40" height="40" fill="none" xmlns="http://www.w3.org/2000/svg"><path d="M8.435 35.075l.735-1.011-.735 1.011zm-1.843-1.844l1.01-.734-1.01.734zm26.816 0l-1.01-.734 1.01.734zm-1.843 1.844l-.735-1.011.735 1.011zm0-30.15l-.735 1.011.735-1.011zm1.843 1.843l-1.01.735 1.01-.735zM8.435 4.925l.735 1.011-.735-1.011zM6.592 6.768l1.01.735-1.01-.735zm6.741 18.649a1.25 1.25 0 000 2.5v-2.5zm13.334 2.5a1.25 1.25 0 000-2.5v2.5zM13.333 18.75a1.25 1.25 0 000 2.5v-2.5zm13.334 2.5a1.25 1.25 0 000-2.5v2.5zm-13.334-9.167a1.25 1.25 0 000 2.5v-2.5zm5 2.5a1.25 1.25 0 000-2.5v2.5zm15.417 3.75v3.334h2.5v-3.334h-2.5zm-27.5 3.334v-3.334h-2.5v3.334h2.5zM20 35.417c-3.153 0-5.417-.002-7.17-.192-1.73-.188-2.813-.546-3.66-1.161L7.7 36.086c1.344.977 2.918 1.414 4.86 1.624 1.92.208 4.343.207 7.44.207v-2.5zM3.75 21.667c0 3.096-.002 5.52.206 7.439.21 1.942.648 3.516 1.624 4.86l2.023-1.47c-.615-.846-.974-1.93-1.161-3.66-.19-1.753-.192-4.017-.192-7.17h-2.5zm5.42 12.397a7.082 7.082 0 01-1.567-1.567l-2.023 1.47a9.583 9.583 0 002.12 2.12l1.47-2.023zm24.58-12.397c0 3.152-.002 5.416-.192 7.17-.187 1.73-.546 2.813-1.16 3.66l2.022 1.47c.976-1.345 1.413-2.919 1.624-4.861.208-1.92.206-4.343.206-7.44h-2.5zM20 37.917c3.097 0 5.52.001 7.44-.207 1.942-.21 3.516-.647 4.86-1.624l-1.47-2.022c-.846.615-1.93.974-3.66 1.16-1.753.19-4.017.193-7.17.193v2.5zm12.397-5.42a7.081 7.081 0 01-1.567 1.567l1.47 2.022a9.582 9.582 0 002.12-2.12l-2.023-1.47zM20 4.583c3.153 0 5.417.002 7.17.192 1.73.187 2.813.546 3.66 1.161l1.47-2.022c-1.344-.977-2.918-1.414-4.86-1.625-1.92-.207-4.343-.206-7.44-.206v2.5zm16.25 13.75c0-3.097.002-5.52-.206-7.439-.21-1.943-.648-3.516-1.624-4.86l-2.023 1.47c.615.846.974 1.93 1.161 3.66.19 1.753.192 4.017.192 7.17h2.5zM30.83 5.936a7.08 7.08 0 011.567 1.567l2.023-1.47a9.583 9.583 0 00-2.12-2.12l-1.47 2.023zM20 2.083c-3.097 0-5.52-.001-7.44.206-1.942.21-3.516.648-4.86 1.625l1.47 2.022c.847-.615 1.93-.974 3.66-1.161 1.753-.19 4.017-.192 7.17-.192v-2.5zM6.25 18.333c0-3.152.002-5.416.192-7.17.187-1.73.546-2.813 1.16-3.66L5.58 6.033c-.976 1.345-1.413 2.918-1.624 4.861-.208 1.92-.206 4.342-.206 7.44h2.5zM7.7 3.913a9.583 9.583 0 00-2.12 2.12l2.023 1.47A7.083 7.083 0 019.17 5.936L7.7 3.914zm5.633 24.004h13.334v-2.5H13.333v2.5zm0-6.667h13.334v-2.5H13.333v2.5zm0-6.667h5v-2.5h-5v2.5z" fill="#000"/></svg>