<svg width="40" height="40" fill="none" xmlns="http://www.w3.org/2000/svg"><rect width="40" height="40" rx="11.897" fill="#F6F6F6"/><path d="M26.132 25.248a.625.625 0 00-.884.884l.884-.884zm2.45 4.217a.625.625 0 10.884-.883l-.884.883zM16.667 18.541a.625.625 0 000 1.25v-1.25zm5 1.25a.625.625 0 100-1.25v1.25zm-3.125 1.875a.625.625 0 001.25 0h-1.25zm1.25-5a.625.625 0 10-1.25 0h1.25zm5.456 9.466l3.334 3.333.884-.883-3.334-3.334-.884.884zm-8.581-6.34h5v-1.25h-5v1.25zm3.125 1.874v-5h-1.25v5h1.25zm-.625 4.375a6.875 6.875 0 01-6.875-6.875h-1.25a8.125 8.125 0 008.125 8.125v-1.25zm6.875-6.875a6.875 6.875 0 01-6.875 6.875v1.25a8.125 8.125 0 008.125-8.125h-1.25zm-6.875-6.875a6.875 6.875 0 016.875 6.875h1.25a8.125 8.125 0 00-8.125-8.125v1.25zm0-1.25a8.125 8.125 0 00-8.125 8.125h1.25a6.875 6.875 0 016.875-6.875v-1.25z" fill="#000"/></svg>