<svg width="40" height="40" fill="none" xmlns="http://www.w3.org/2000/svg"><rect width="40" height="40" rx="12" fill="#F6F6F6"/><path d="M12.174 14.707c-.507 1.073-.507 2.605-.507 5.293 0 3.125 0 4.687.796 5.782.257.354.568.665.921.922 1.096.796 2.658.796 5.783.796h1.666c3.125 0 4.688 0 5.783-.796.354-.257.665-.568.922-.922.795-1.095.795-2.657.795-5.782 0-2.707 0-4.242-.517-5.316m-15.642.023c.082-.174.177-.336.289-.49a4.19 4.19 0 01.921-.921c1.096-.796 2.658-.796 5.783-.796h1.666c3.125 0 4.688 0 5.783.796.354.257.665.568.922.922.106.146.198.3.278.466m-15.642.023L12.5 15l1.607 1.607c2.778 2.778 4.167 4.167 5.893 4.167s3.115-1.389 5.893-4.167L27.5 15l.316-.316" stroke="#3F52FF" stroke-width="1.25"/></svg>