<svg width="40" height="40" fill="none" xmlns="http://www.w3.org/2000/svg"><rect width="40" height="40" rx="12" fill="#F6F6F6"/><path d="M22.317 26.417l-.492-.385.492.385zm-4.634 0l-.492.386.492-.386zM20 28.338v-.625.625zm6.042-10.33c0 1.021-.533 2.39-1.372 3.872-.825 1.459-1.892 2.936-2.845 4.152l.984.77c.972-1.238 2.08-2.771 2.949-4.306.854-1.511 1.534-3.121 1.534-4.489h-1.25zm-7.868 8.024c-.953-1.216-2.019-2.693-2.844-4.152-.839-1.483-1.372-2.85-1.372-3.873h-1.25c0 1.368.68 2.978 1.534 4.489.869 1.535 1.977 3.068 2.949 4.307l.983-.771zm-4.216-8.025c0-3.66 2.748-6.549 6.042-6.549v-1.25c-4.07 0-7.292 3.536-7.292 7.8h1.25zM20 11.458c3.294 0 6.042 2.889 6.042 6.55h1.25c0-4.264-3.223-7.8-7.292-7.8v1.25zm1.825 14.574c-.515.657-.855 1.087-1.16 1.363-.276.252-.462.318-.665.318v1.25c.608 0 1.079-.254 1.506-.643.401-.364.815-.894 1.303-1.517l-.984-.771zm-4.634.77c.488.624.902 1.154 1.303 1.518.427.389.898.643 1.506.643v-1.25c-.204 0-.389-.066-.666-.318-.304-.276-.644-.706-1.16-1.363l-.983.77zm-.316-8.468A3.125 3.125 0 0020 21.459v-1.25a1.875 1.875 0 01-1.875-1.875h-1.25zM20 21.459c1.726 0 3.125-1.4 3.125-3.125h-1.25c0 1.035-.84 1.875-1.875 1.875v1.25zm3.125-3.125c0-1.726-1.4-3.125-3.125-3.125v1.25c1.035 0 1.875.839 1.875 1.875h1.25zM20 15.209a3.125 3.125 0 00-3.125 3.125h1.25c0-1.036.84-1.875 1.875-1.875v-1.25z" fill="#3F52FF"/></svg>