<svg width="40" height="40" fill="none" xmlns="http://www.w3.org/2000/svg"><path d="M28.333 12.917a3.75 3.75 0 01-3.75 3.75v2.5a6.25 6.25 0 006.25-6.25h-2.5zm-3.75 3.75a3.75 3.75 0 01-3.75-3.75h-2.5a6.25 6.25 0 006.25 6.25v-2.5zm-3.75-3.75a3.75 3.75 0 013.75-3.75v-2.5a6.25 6.25 0 00-6.25 6.25h2.5zm3.75-3.75a3.75 3.75 0 013.75 3.75h2.5a6.25 6.25 0 00-6.25-6.25v2.5zm-5 15h10v-2.5h-10v2.5zm10 7.5h-10v2.5h10v-2.5zm-10 0a3.75 3.75 0 01-3.75-3.75h-2.5a6.25 6.25 0 006.25 6.25v-2.5zm13.75-3.75a3.75 3.75 0 01-3.75 3.75v2.5a6.25 6.25 0 006.25-6.25h-2.5zm-3.75-3.75a3.75 3.75 0 013.75 3.75h2.5a6.25 6.25 0 00-6.25-6.25v2.5zm-10-2.5a6.25 6.25 0 00-6.25 6.25h2.5a3.75 3.75 0 013.75-3.75v-2.5zm-2.079-4.353c-.263-.422-.757-.647-1.254-.647a3.75 3.75 0 110-7.5c.497 0 .99-.226 1.254-.648l.035-.056c.437-.69.216-1.669-.597-1.758a6.25 6.25 0 100 12.424c.813-.09 1.034-1.068.597-1.759a6.526 6.526 0 01-.035-.056zM12.43 30.528a1.054 1.054 0 00-.89-.528h-.29a3.75 3.75 0 010-7.5h.29c.367 0 .701-.212.89-.528.462-.77-.039-1.972-.937-1.972h-.243a6.25 6.25 0 100 12.5h.243c.898 0 1.4-1.201.938-1.972z" fill="#000"/></svg>