<svg width="40" height="40" fill="none" xmlns="http://www.w3.org/2000/svg"><rect width="40" height="40" rx="12" fill="#F6F6F6"/><path d="M13.967 13.052a1.667 1.667 0 012.37-.112c.026.023.055.053.114.112l1.215 1.215a2.3 2.3 0 01.482 2.544 2.3 2.3 0 00.482 2.544l1.997 1.997c.669.669 1.678.86 2.545.482a2.299 2.299 0 012.544.482l1.215 1.215.112.115a1.667 1.667 0 010 2.255c-.024.026-.053.055-.112.114l-.739.739a2.488 2.488 0 01-2.299.67A14.928 14.928 0 0112.56 16.088a2.488 2.488 0 01.67-2.299l.738-.738z" stroke="#3F52FF" stroke-width="1.25"/></svg>