<svg width="27" height="26" fill="none" xmlns="http://www.w3.org/2000/svg"><path d="M13.599 0a12.998 12.998 0 00-9.193 22.192A13 13 0 1013.6 0zm-.106 19.173a1.075 1.075 0 01-1.177-1.605c.143-.255.385-.44.668-.514a1.082 1.082 0 011.296.812c.07.275.025.566-.123.808a1.081 1.081 0 01-.664.499zm1.198-5.973c-.526.162-.516.218-.516.812a.874.874 0 01-.928.836.857.857 0 01-.927-.896s.024-1.254.024-1.64c0-.268.352-.352.816-.419 1.854-.351 2.273-2.357.91-2.881-.784-.302-1.532-.207-2.66.875a1.156 1.156 0 01-1.49.168c-.4-.323-.193-1.026.07-1.356 1.806-2.266 4.761-1.795 5.65-1.163a3.021 3.021 0 011.346 2.27 3.201 3.201 0 01-2.295 3.398V13.2z" fill="#3F52FF"/></svg>