<svg width="40" height="40" fill="none" xmlns="http://www.w3.org/2000/svg"><path d="M8.435 35.075l.735-1.011-.735 1.011zm-1.843-1.843l1.01-.735-1.01.735zm26.816 0l-1.01-.735 1.01.735zm-1.843 1.843l-.735-1.011.735 1.011zm0-26.817L30.83 9.27l.735-1.012zm1.843 1.844l1.012-.735-1.012.735zM8.435 8.258L9.17 9.27l-.735-1.012zm-1.843 1.844L5.58 9.367l1.012.735zm16.741 11.981a1.25 1.25 0 000 2.5v-2.5zm6.667 2.5a1.25 1.25 0 100-2.5v2.5zm-6.667 2.5a1.25 1.25 0 000 2.5v-2.5zm6.667 2.5a1.25 1.25 0 100-2.5v2.5zM5.14 15l-1.247-.1 1.246.1zm21.527-8.194l-.1 1.246.1-1.246zM34.86 15l1.246-.1-1.246.1zM20 35.417c-3.153 0-5.417-.002-7.17-.192-1.73-.187-2.813-.546-3.66-1.161L7.7 36.087c1.344.976 2.918 1.413 4.86 1.623 1.92.209 4.343.207 7.44.207v-2.5zM3.75 21.667c0 3.097-.002 5.52.206 7.439.21 1.942.648 3.517 1.624 4.86l2.023-1.47c-.615-.846-.974-1.93-1.161-3.66-.19-1.753-.192-4.017-.192-7.17h-2.5zm5.42 12.397a7.084 7.084 0 01-1.567-1.567l-2.023 1.47a9.585 9.585 0 002.12 2.12l1.47-2.023zm24.58-12.397c0 3.152-.002 5.416-.192 7.17-.187 1.73-.546 2.813-1.16 3.66l2.022 1.47c.976-1.344 1.413-2.918 1.624-4.861.208-1.92.206-4.342.206-7.44h-2.5zM20 37.917c3.097 0 5.52.002 7.44-.206 1.942-.21 3.516-.648 4.86-1.624l-1.47-2.023c-.846.615-1.93.974-3.66 1.161-1.753.19-4.017.192-7.17.192v2.5zm12.397-5.42a7.083 7.083 0 01-1.567 1.567l1.47 2.023a9.582 9.582 0 002.12-2.12l-2.023-1.47zM30.83 9.27c.602.436 1.13.965 1.567 1.567l2.023-1.47a9.583 9.583 0 00-2.12-2.12L30.83 9.27zM20 5.417c-3.097 0-5.52-.002-7.44.206-1.942.21-3.516.648-4.86 1.624L9.17 9.27c.847-.616 1.93-.974 3.66-1.162 1.753-.19 4.017-.191 7.17-.191v-2.5zM7.7 7.247a9.583 9.583 0 00-2.12 2.12l2.023 1.47A7.084 7.084 0 019.17 9.27L7.7 7.247zm15.633 17.336H30v-2.5h-6.667v2.5zm0 5H30v-2.5h-6.667v2.5zm-6.25-3.75a2.917 2.917 0 01-2.916 2.917v2.5a5.417 5.417 0 005.416-5.417h-2.5zm-2.916 2.917a2.917 2.917 0 01-2.917-2.917h-2.5a5.417 5.417 0 005.417 5.417v-2.5zm-2.917-2.917a2.917 2.917 0 012.917-2.916v-2.5a5.417 5.417 0 00-5.417 5.416h2.5zm2.917-2.916a2.917 2.917 0 012.916 2.916h2.5a5.417 5.417 0 00-5.416-5.416v2.5zm-7.917-1.25c0-2.794 0-4.894.135-6.567l-2.492-.2c-.144 1.796-.143 4.012-.143 6.767h2.5zm.135-6.567c.168-2.087.533-3.32 1.218-4.263L5.58 9.367c-1.085 1.494-1.506 3.275-1.687 5.533l2.492.2zM20 7.917c2.793 0 4.894 0 6.567.135l.2-2.492c-1.796-.144-4.012-.143-6.767-.143v2.5zm6.567.135c2.087.167 3.32.533 4.263 1.218l1.47-2.023c-1.494-1.085-3.275-1.506-5.533-1.687l-.2 2.492zm8.294 5.698H5.139v2.5h29.722v-2.5zm1.389 7.917c0-2.755 0-4.971-.143-6.767l-2.492.2c.134 1.673.135 3.773.135 6.567h2.5zm-.143-6.767c-.181-2.258-.602-4.039-1.687-5.533l-2.023 1.47c.685.942 1.05 2.176 1.218 4.263l2.492-.2z" fill="#000"/></svg>