<svg width="11" height="12" fill="none" xmlns="http://www.w3.org/2000/svg"><path d="M.836 6.36l-.001-.353c0-1.472.086-2.814.216-3.688l.114-.544c.063-.288.146-.616.233-.784A1.815 1.815 0 013 0h.058c.433.014 1.343.394 1.343.408 1.464.614 4.288 2.468 5.593 3.79l.379.396c.1.108.21.235.28.334.231.306.347.685.347 1.064 0 .423-.13.817-.375 1.138l-.39.42-.087.09c-1.184 1.283-4.274 3.382-5.89 4.024l-.245.094c-.294.105-.705.23-.955.242a2 2 0 01-.91-.22 1.885 1.885 0 01-.808-.904c-.101-.262-.26-1.05-.26-1.064C.932 9.018.848 7.765.835 6.361z" fill="#fff"/></svg>