<svg width="20" height="20" fill="none" xmlns="http://www.w3.org/2000/svg"><path d="M1.785 3.85l2.396-2.393a1.548 1.548 0 012.196 0l2.581 2.576a1.553 1.553 0 010 2.2L6.942 8.25a9.121 9.121 0 001.944 2.864 9.139 9.139 0 002.862 1.948l2.016-2.018a1.548 1.548 0 012.196 0l2.583 2.576a1.553 1.553 0 010 2.2l-2.394 2.394a2.694 2.694 0 01-2.326.749c-2.98-.49-5.936-2.076-8.323-4.461-2.385-2.39-3.97-5.346-4.464-8.326a2.682 2.682 0 01.75-2.327zm.846 2.059c.439 2.652 1.865 5.298 4.014 7.446 2.149 2.149 4.793 3.575 7.446 4.014.333.056.675-.056.918-.297l2.35-2.351-2.492-2.495-2.696 2.7-.02.02-.486-.18a10.828 10.828 0 01-6.428-6.43l-.18-.486 2.718-2.715L5.282 2.64 2.93 4.991a1.053 1.053 0 00-.299.918z" fill="#fff" stroke="#0E1861"/></svg>