<svg width="356" height="313" fill="none" xmlns="http://www.w3.org/2000/svg"><path d="M2 1c7.957 14.687 27.611 43.242 41.776 47.733 50.958 16.156 57.449-15.228 65.878-16.89 33.513-6.61 65.648 40.022 91.356 33.046 49.242-13.362 66.337-7.343 72.535 0 6.197 7.344 9.181 9.547 10.1 23.132.918 13.586-19.052 24.601-37.645 36.351-14.944 9.444-50.728 41.858-90.209 35.249-6.209-1.039-66.717-4.221-95.092 18.517-1.607 8.323-1.538 13.713 0 20.538 7.115 31.577 77.875 25.336 83.736 27.139 59.68 18.359 73.332-44.163 110.517-14.422 62.11 49.677 50.955 8.06 87.834 11.855 31.218 8.812-6.739 41.953-11.127 41.075-134.051-26.804-33.365 35.193-65.654 47.677" stroke="#D4AB1F" stroke-opacity=".88" stroke-dasharray="7 7"/><circle cx="3.5" cy="4.5" r="3.5" fill="#D4AB1F"/><circle cx="260.5" cy="57.5" r="3.5" fill="#D4AB1F"/><circle cx="61.5" cy="178.5" r="3.5" fill="#D4AB1F"/><circle cx="276.5" cy="227.5" r="3.5" fill="#D4AB1F"/></svg>