<svg width="38" height="14" fill="none" xmlns="http://www.w3.org/2000/svg"><path d="M10.953 1.984H1.95L2.598.2h9.003l-.648 1.785zm-.325.893H1.621L.973 4.66h9.003l.652-1.784zm-.972 2.669H.649L0 7.33h8.995l.66-1.785z" fill="#009FDF"/><path d="M32.405 11.797h1.621a1.414 1.414 0 001.24-.482 1.55 1.55 0 00.317-1.018 1.413 1.413 0 00-.556-1.217 1.62 1.62 0 00-1.017-.26h-1.605v2.977zm-2.129 1.798V2.877h6.969l-.613 1.797h-4.227v2.373h1.722c1.39 0 2.112.333 2.61.759a3.155 3.155 0 011.059 2.54 3.08 3.08 0 01-1.26 2.652c-.67.463-1.37.593-2.798.593l-3.462.004zm-6.169 0V4.67H21.01V2.877h8.598l-.613 1.797h-2.74V13.6l-2.148-.004zm-8.581-6.426h1.216a2.58 2.58 0 00.741-.057 1.171 1.171 0 00.811-1.217 1.084 1.084 0 00-.81-1.188 2.948 2.948 0 00-.811-.073h-1.147v2.535zm0 1.854v2.811h1.483c.409.047.82-.067 1.147-.316a1.398 1.398 0 00.446-1.104 1.526 1.526 0 00-.284-.916c-.316-.406-.705-.483-1.37-.483l-1.422.008zm3.429-1.132v.037a3.74 3.74 0 011.001.576 2.527 2.527 0 01.908 2.097c0 1.464-.778 2.523-2.055 2.84a5.456 5.456 0 01-1.557.15h-3.854V2.877h3.429a6.31 6.31 0 011.621.15c1.24.333 2.055 1.189 2.055 2.54a2.373 2.373 0 01-.685 1.744c-.24.245-.527.439-.843.572l-.02.008z" fill="#0A2973"/></svg>