<svg width="15" height="16" fill="none" xmlns="http://www.w3.org/2000/svg"><path d="M9.258 15.65H3.085C1.66 15.65.5 14.616.5 13.348V5.556c0-1.269 1.16-2.3 2.585-2.3h6.173c1.426 0 2.585 1.031 2.585 2.3v7.793c0 1.268-1.16 2.3-2.585 2.3zM3.085 4.404c-.712 0-1.292.516-1.292 1.15v7.794c0 .634.58 1.15 1.292 1.15h6.173c.713 0 1.293-.516 1.293-1.15V5.556c0-.635-.58-1.15-1.293-1.15H3.085zm11.344 7.506V3.226c0-1.268-1.16-2.3-2.586-2.3H4.67c-.357 0-.646.257-.646.575 0 .318.289.575.646.575h7.174c.713 0 1.293.516 1.293 1.15v8.685c0 .318.29.575.646.575.357 0 .647-.258.647-.575z" fill="#fff"/></svg>