<svg width="235" height="37" fill="none" xmlns="http://www.w3.org/2000/svg"><path d="M105.098 10.92l4.903-3.664H93.582v21.951h16.419V25.54h-11.73v-5.603h10.026v-3.664H98.272V10.92h6.826zm-23.92 4.885H75.49V10.92h9.1l4.905-3.664H70.8v21.951h9.772c5.475 0 8.637-2.516 8.637-6.899 0-4.203-2.843-6.503-8.031-6.503zm-.783 9.735H75.49v-6.07h4.905c2.986 0 4.37 1.007 4.37 3.055s-1.49 3.016-4.37 3.016zm42.899-18.284h-8.92v21.951h4.69V22.99h4.267c5.684 0 9.239-3.016 9.239-7.867s-3.555-7.867-9.276-7.867zm-.106 12.07h-4.158V10.92h4.158c3.022 0 4.656 1.51 4.656 4.203 0 2.693-1.634 4.203-4.656 4.203zm-60.423 5.141a8.372 8.372 0 01-4.05 1.044c-4.23 0-7.286-3.056-7.286-7.259 0-4.202 3.055-7.258 7.285-7.258 1.528-.034 3.022.469 4.264 1.366l3.378-2.513-.213-.216c-1.954-1.763-4.586-2.66-7.572-2.66-3.232 0-6.184 1.114-8.314 3.125a10.883 10.883 0 00-3.272 8.013c-.036 3.053 1.139 5.999 3.272 8.153 2.237 2.122 5.222 3.308 8.28 3.235 3.376 0 6.325-1.186 8.315-3.341l-3.019-2.264-1.068.575zM188.976 7.292v21.949h4.69V20.26h9.988v8.98h4.693V7.293h-4.693v9.018h-9.988V7.292h-4.69zm-8.068 21.949h4.94l-9.17-21.949h-4.763l-9.346 21.949h4.727l1.883-4.419h9.952l1.777 4.419zm-10.307-8.083l3.624-8.802 3.412 8.802h-7.036zm48.267-.788h2.912l7.18 8.837h6.041l-9.596-11.354 8.387-10.597h-5.365l-6.966 9.413h-2.593V7.256h-4.693v21.951h4.693V20.37zm-71.795-4.529v-4.884h12.261V7.292H142.38v21.949h9.775c5.472 0 8.637-2.514 8.637-6.896 0-4.203-2.842-6.504-8.034-6.504h-5.685zm0 9.736v-6.072h4.906c2.982 0 4.37 1.008 4.37 3.056s-1.458 3.052-4.37 3.052h-4.906v-.036zM32.308 7.113a19.49 19.49 0 012.167 3.628L18.056 22.99l-6.896-4.383v-5.244l6.86 4.346L32.308 7.113z" fill="#21A038"/><path d="M4.157 18.25c0-.252 0-.465.037-.718l-4.157-.216c0 .29-.037.612-.037.898a18.3 18.3 0 005.295 12.898l2.95-2.983a13.88 13.88 0 01-4.088-9.878z" fill="url(#paint0_linear_3662_5115)"/><path d="M18.02 4.24c.249 0 .462 0 .711.036l.213-4.202c-.286 0-.605-.037-.888-.037-4.976 0-9.49 2.048-12.761 5.353l2.949 2.983a13.657 13.657 0 019.775-4.133z" fill="url(#paint1_linear_3662_5115)"/><path d="M18.019 32.264c-.25 0-.463 0-.712-.037l-.213 4.203c.286 0 .605.037.888.037 4.976 0 9.493-2.049 12.761-5.354l-2.949-2.982c-2.49 2.587-5.937 4.133-9.775 4.133z" fill="url(#paint2_linear_3662_5115)"/><path d="M25.838 6.683l3.518-2.623C26.264 1.546 22.32 0 18.019 0v4.203c2.916.036 5.616.934 7.819 2.48z" fill="url(#paint3_linear_3662_5115)"/><path d="M36.075 18.249c0-1.114-.107-2.191-.287-3.268l-3.874 2.909v.359a13.99 13.99 0 01-4.583 10.384l2.806 3.125a18.28 18.28 0 005.938-13.509z" fill="#21A038"/><path d="M18.02 32.264c-4.088 0-7.749-1.796-10.272-4.635l-3.092 2.84c3.305 3.7 8.068 5.998 13.364 5.998v-4.203z" fill="url(#paint4_linear_3662_5115)"/><path d="M8.743 7.866L5.934 4.74A18.216 18.216 0 000 18.25h4.157c0-4.097 1.777-7.83 4.586-10.384z" fill="url(#paint5_linear_3662_5115)"/><defs><linearGradient id="paint0_linear_3662_5115" x1="4.852" y1="30.601" x2=".582" y2="18.203" gradientUnits="userSpaceOnUse"><stop offset=".144" stop-color="#F2E913"/><stop offset=".304" stop-color="#E7E518"/><stop offset=".582" stop-color="#CADB26"/><stop offset=".891" stop-color="#A3CD39"/></linearGradient><linearGradient id="paint1_linear_3662_5115" x1="6.481" y1="4.916" x2="17.268" y2=".786" gradientUnits="userSpaceOnUse"><stop offset=".059" stop-color="#0FA8E0"/><stop offset=".538" stop-color="#0099F9"/><stop offset=".923" stop-color="#0291EB"/></linearGradient><linearGradient id="paint2_linear_3662_5115" x1="16.851" y1="32.892" x2="29.705" y2="29.974" gradientUnits="userSpaceOnUse"><stop offset=".123" stop-color="#A3CD39"/><stop offset=".285" stop-color="#86C339"/><stop offset=".869" stop-color="#21A038"/></linearGradient><linearGradient id="paint3_linear_3662_5115" x1="17.165" y1="2.678" x2="27.855" y2="5.991" gradientUnits="userSpaceOnUse"><stop offset=".057" stop-color="#0291EB"/><stop offset=".79" stop-color="#0C8ACB"/></linearGradient><linearGradient id="paint4_linear_3662_5115" x1="5.713" y1="31.133" x2="17.198" y2="35.444" gradientUnits="userSpaceOnUse"><stop offset=".132" stop-color="#F2E913"/><stop offset=".298" stop-color="#EBE716"/><stop offset=".531" stop-color="#D9E01F"/><stop offset=".802" stop-color="#BBD62D"/><stop offset=".983" stop-color="#A3CD39"/></linearGradient><linearGradient id="paint5_linear_3662_5115" x1="3.186" y1="18.757" x2="7.802" y2="6.697" gradientUnits="userSpaceOnUse"><stop offset=".07" stop-color="#A3CD39"/><stop offset=".26" stop-color="#81C55F"/><stop offset=".922" stop-color="#0FA8E0"/></linearGradient></defs></svg>