<svg width="115" height="41" fill="none" xmlns="http://www.w3.org/2000/svg"><path d="M33.322 5.43H5.932L7.905 0h27.39l-1.973 5.43zm-.987 2.715H4.933l-1.973 5.43h27.39l1.985-5.43zm-2.96 8.12H1.973L0 21.696h27.365l2.01-5.43z" fill="#009FDF"/><path d="M98.582 35.286h4.933a4.3 4.3 0 003.774-1.468 4.718 4.718 0 00.961-3.098 4.287 4.287 0 00-1.689-3.703 4.931 4.931 0 00-3.095-.79h-4.884v9.06zm-6.474 5.467V8.148h21.199l-1.862 5.467H98.582v7.22h5.241c4.23 0 6.425 1.011 7.942 2.307a9.616 9.616 0 013.219 7.726 9.374 9.374 0 01-3.835 8.071c-2.035 1.407-4.169 1.802-8.51 1.802l-10.531.012zm-18.77 0v-27.15h-9.422V8.147h26.157l-1.862 5.467h-8.337v27.15l-6.536-.012zM47.23 21.205h3.7a7.851 7.851 0 002.257-.173 3.564 3.564 0 002.466-3.703 3.297 3.297 0 00-2.466-3.615 8.97 8.97 0 00-2.467-.223h-3.49v7.714zm0 5.64v8.552h4.514a4.845 4.845 0 003.49-.962 4.258 4.258 0 001.356-3.357 4.643 4.643 0 00-.863-2.79c-.962-1.233-2.146-1.468-4.168-1.468l-4.329.025zM57.663 23.4v.111c1.1.424 2.127 1.015 3.047 1.753a7.689 7.689 0 012.762 6.38c0 4.456-2.368 7.677-6.253 8.64a16.599 16.599 0 01-4.735.456H40.756V8.148h10.433a19.293 19.293 0 014.933.456c3.774 1.012 6.252 3.616 6.252 7.726a7.225 7.225 0 01-2.084 5.307 7.903 7.903 0 01-2.565 1.74l-.062.024z" fill="#0A2973"/></svg>