<svg version="1.0" xmlns="http://www.w3.org/2000/svg" width="25.333" height="26.667" viewBox="0 0 19 20"><path d="M5.8 1.8c-.7 1-2 2.1-2.9 2.4-1.2.5-1.8 2.5-2.2 7.5-.3 3.7-.3 7.1 0 7.5.6 1 17.1 1 17.6 0 .2-.4.2-3.8-.1-7.5-.3-5.1-.9-7-2.1-7.5-.9-.3-2.2-1.4-2.9-2.4C12.5.8 10.8 0 9.5 0c-1.3 0-3 .8-3.7 1.8zm6.2.7c1.1 1.3.7 1.5-2.5 1.5S5.9 3.8 7 2.5C7.7 1.7 8.8 1 9.5 1s1.8.7 2.5 1.5zM5.1 7.7c.1 1.7.2 1.7.6 0 .6-2.4 7.3-2.4 7.4 0 .1 1.7.2 1.7.6 0 .2-.9 1.1-1.7 1.9-1.7 1.1 0 1.4 1.5 1.4 6v6H2v-6c0-4.7.3-6 1.5-6 .8 0 1.6.8 1.6 1.7z"/></svg>