<svg viewBox="0 0 23 22" xmlns="http://www.w3.org/2000/svg"><g stroke-width=".7"><path d="M5.843 6.593c0-2.812 2.31-5.093 5.16-5.093 2.848 0 5.158 2.28 5.158 5.093s-2.31 5.094-5.159 5.094c-2.85 0-5.159-2.28-5.159-5.094zm.513 0c.004 2.534 2.08 4.582 4.646 4.587 2.565-.005 4.64-2.053 4.646-4.587-.005-2.533-2.08-4.581-4.646-4.586-2.566.005-4.642 2.053-4.646 4.586z"/><path d="M1 21.5l.034-.268C1.699 15.857 5.89 11.69 11 11.687c5.11.002 9.302 4.17 9.967 9.545l-.24.029v-.24.24l.24-.029.033.268H1zm19.449-.479c-.747-5.037-4.707-8.86-9.45-8.856-4.741-.003-8.702 3.819-9.448 8.856h18.898z"/></g></svg>