<svg viewBox="0 0 25.333 26.667" xmlns="http://www.w3.org/2000/svg" xmlns:xlink="http://www.w3.org/1999/xlink"><style>:root&gt;svg{display:none}:root&gt;svg:target{display:block}</style><svg version="1.0" viewBox="0 0 19 20" id="cart" xmlns="http://www.w3.org/2000/svg"><path d="M5.8 1.8c-.7 1-2 2.1-2.9 2.4-1.2.5-1.8 2.5-2.2 7.5-.3 3.7-.3 7.1 0 7.5.6 1 17.1 1 17.6 0 .2-.4.2-3.8-.1-7.5-.3-5.1-.9-7-2.1-7.5-.9-.3-2.2-1.4-2.9-2.4C12.5.8 10.8 0 9.5 0c-1.3 0-3 .8-3.7 1.8zm6.2.7c1.1 1.3.7 1.5-2.5 1.5S5.9 3.8 7 2.5C7.7 1.7 8.8 1 9.5 1s1.8.7 2.5 1.5zM5.1 7.7c.1 1.7.2 1.7.6 0 .6-2.4 7.3-2.4 7.4 0 .1 1.7.2 1.7.6 0 .2-.9 1.1-1.7 1.9-1.7 1.1 0 1.4 1.5 1.4 6v6H2v-6c0-4.7.3-6 1.5-6 .8 0 1.6.8 1.6 1.7z"/></svg><svg viewBox="0 0 21 21" id="search" xmlns="http://www.w3.org/2000/svg"><path d="M7.5 14.05a6.55 6.55 0 100-13.1 6.55 6.55 0 000 13.1zm7.15-6.55a7.15 7.15 0 11-14.3 0 7.15 7.15 0 0114.3 0z"/><path d="M19.89 20.81L12 12.919l.92-.92 7.89 7.891-.92.92z"/></svg><svg viewBox="0 0 23 22" id="user" xmlns="http://www.w3.org/2000/svg"><g stroke-width=".7"><path d="M5.843 6.593c0-2.812 2.31-5.093 5.16-5.093 2.848 0 5.158 2.28 5.158 5.093s-2.31 5.094-5.159 5.094c-2.85 0-5.159-2.28-5.159-5.094zm.513 0c.004 2.534 2.08 4.582 4.646 4.587 2.565-.005 4.64-2.053 4.646-4.587-.005-2.533-2.08-4.581-4.646-4.586-2.566.005-4.642 2.053-4.646 4.586z"/><path d="M1 21.5l.034-.268C1.699 15.857 5.89 11.69 11 11.687c5.11.002 9.302 4.17 9.967 9.545l-.24.029v-.24.24l.24-.029.033.268H1zm19.449-.479c-.747-5.037-4.707-8.86-9.45-8.856-4.741-.003-8.702 3.819-9.448 8.856h18.898z"/></g></svg></svg>