<svg width="31" height="30" fill="none" xmlns="http://www.w3.org/2000/svg"><path d="M7.658 20.579a1.25 1.25 0 011.767 1.766l-5.158 5.156h3.648a1.25 1.25 0 011.238 1.08l.012.17A1.25 1.25 0 017.915 30H1.25A1.25 1.25 0 010 28.75v-6.665a1.25 1.25 0 112.5 0v3.65l5.158-5.156zM22.087 30a1.25 1.25 0 110-2.5h3.642l-5.15-5.155a1.25 1.25 0 01-.122-1.626l.122-.14a1.25 1.25 0 011.766 0l5.157 5.159v-3.653a1.25 1.25 0 011.08-1.238l.17-.012a1.25 1.25 0 011.25 1.25v6.665a1.25 1.25 0 01-1.25 1.25h-6.665zM7.915 0a1.25 1.25 0 110 2.5H4.27l5.154 5.157a1.25 1.25 0 01.12 1.626l-.122.142a1.25 1.25 0 01-1.766 0L2.499 4.26v3.654a1.25 1.25 0 01-1.08 1.238l-.17.012A1.25 1.25 0 010 7.915V1.25A1.25 1.25 0 011.25 0h6.665zm20.837 0a1.25 1.25 0 011.25 1.25v6.665a1.25 1.25 0 01-2.5 0V4.264l-5.157 5.159a1.25 1.25 0 01-1.626.122l-.14-.122a1.25 1.25 0 010-1.766l5.152-5.158h-3.644a1.25 1.25 0 01-1.238-1.08l-.012-.17A1.25 1.25 0 0122.087 0h6.665z" fill="#424141"/></svg>