<svg width="30" height="31" fill="none" xmlns="http://www.w3.org/2000/svg"><path d="M19.3 11.822c-1.257.654-2.754 1.011-4.3 1.011-2.078 0-4.036-.644-5.447-1.742-1.406-1.093-2.124-2.514-2.124-3.924 0-1.056.4-2.119 1.203-3.052.805-.938 1.979-1.7 3.395-2.156a9.865 9.865 0 014.492-.343c1.513.234 2.878.809 3.928 1.626 1.049.816 1.723 1.823 1.99 2.872.268 1.043.135 2.128-.4 3.134-.54 1.014-1.478 1.92-2.736 2.575zm9.458 17.4c-.206.16-.528.278-.9.278H2.142c-.373 0-.695-.117-.901-.277-.2-.156-.242-.306-.242-.39 0-2.736 1.396-5.429 4.007-7.46 2.617-2.035 6.21-3.206 9.993-3.206 3.783 0 7.375 1.17 9.993 3.206 2.61 2.031 4.007 4.724 4.007 7.46 0 .084-.041.234-.242.39z" stroke="#544A49" stroke-width="2"/></svg>