<svg width="31" height="31" fill="none" xmlns="http://www.w3.org/2000/svg"><path d="M15.5.188C7.044.188.187 7.043.187 15.5S7.045 30.813 15.5 30.813 30.813 23.956 30.813 15.5 23.956.187 15.5.187zm0 24.199a1.367 1.367 0 110-2.734 1.367 1.367 0 010 2.734zm2.15-7.503a1.65 1.65 0 00-1.056 1.532v.775c0 .15-.123.274-.274.274h-1.64a.274.274 0 01-.274-.274v-.735c0-.789.23-1.568.68-2.218a3.82 3.82 0 011.781-1.398c1.162-.447 1.914-1.421 1.914-2.485 0-1.507-1.473-2.734-3.281-2.734s-3.281 1.227-3.281 2.734v.26c0 .15-.123.274-.274.274h-1.64a.274.274 0 01-.274-.274v-.26c0-1.343.588-2.597 1.654-3.53 1.026-.9 2.38-1.391 3.815-1.391 1.436 0 2.79.495 3.814 1.39 1.067.934 1.655 2.188 1.655 3.531 0 1.976-1.303 3.753-3.32 4.53z" fill="#424141"/></svg>