<svg width="21" height="23" fill="none" xmlns="http://www.w3.org/2000/svg"><path d="M4.619 10.303c0-2.93 0-4.397.911-5.307.91-.911 2.376-.911 5.307-.911h3.11c2.93 0 4.397 0 5.307.911.911.91.911 2.376.911 5.307v5.182c0 2.931 0 4.398-.91 5.308-.91.91-2.377.91-5.308.91h-3.11c-2.93 0-4.397 0-5.307-.91-.911-.91-.911-2.377-.911-5.308v-5.182z" stroke="#AAA" stroke-width="1.555"/><path d="M4.619 18.595a3.11 3.11 0 01-3.11-3.11V9.267c0-3.908 0-5.863 1.215-7.077C3.938.976 5.893.976 9.801.976h4.146a3.11 3.11 0 013.109 3.109" stroke="#AAA" stroke-width="1.555"/></svg>