<svg width="43" height="43" fill="none" xmlns="http://www.w3.org/2000/svg"><path fill-rule="evenodd" clip-rule="evenodd" d="M23.65 34.4a4.3 4.3 0 110 8.6 4.3 4.3 0 010-8.6zm-13.457-6.45a5.375 5.375 0 110 10.75 5.375 5.375 0 010-10.75zm24.893 1.075a4.3 4.3 0 110 8.6 4.3 4.3 0 010-8.6zm4.689-8.99a3.225 3.225 0 110 6.45 3.225 3.225 0 010-6.45zM5.375 12.9a5.375 5.375 0 110 10.75 5.375 5.375 0 010-10.75zm32.865-1.705a2.15 2.15 0 110 4.3 2.15 2.15 0 010-4.3zM17.2 0a6.45 6.45 0 110 12.9 6.45 6.45 0 010-12.9zm16.125 6.45a1.075 1.075 0 110 2.15 1.075 1.075 0 010-2.15z" fill="#AAA"/></svg>