<svg width="33" height="33" fill="none" xmlns="http://www.w3.org/2000/svg"><path d="M16.034.772a15.988 15.988 0 00-15.99 15.99 15.995 15.995 0 0015.99 15.99 15.988 15.988 0 0015.99-15.99A15.995 15.995 0 0016.034.772z" fill="url(#paint0_linear_2354_1987)"/><path d="M7.282 16.593c4.662-2.03 7.77-3.37 9.324-4.016 4.442-1.847 5.364-2.168 5.966-2.179.133-.002.428.03.62.186.16.131.205.309.227.433.02.125.048.408.026.63-.24 2.528-1.282 8.664-1.812 11.496-.222 1.198-.665 1.6-1.092 1.64-.93.085-1.634-.614-2.533-1.204-1.407-.922-2.201-1.497-3.568-2.397-1.58-1.04-.555-1.612.345-2.547.235-.244 4.327-3.966 4.405-4.303.01-.042.02-.2-.075-.283-.093-.083-.23-.054-.33-.032-.143.032-2.389 1.518-6.746 4.458-.637.438-1.214.652-1.734.64-.57-.012-1.669-.322-2.486-.587-1-.326-1.796-.498-1.726-1.051.035-.288.432-.582 1.189-.884z" fill="#fff"/><defs><linearGradient id="paint0_linear_2354_1987" x1="1599.07" y1=".772" x2="1599.07" y2="3198.83" gradientUnits="userSpaceOnUse"><stop stop-color="#2AABEE"/><stop offset="1" stop-color="#229ED9"/></linearGradient></defs></svg>