<svg width="176" height="176" fill="none" xmlns="http://www.w3.org/2000/svg"><path d="M128.267 108.12c-8.927-10.291-18.344-20.04-28.37-29.262-.555-.513-1.63-.54-2.009.246a54.421 54.421 0 00-2.482 6.232c-7.037-9.859 7.994-21.85 18.354-17.96 1.188.449 1.944-1 1.504-1.94-1.918-4.069.588-8.512-1.199-12.427-.107-.231-.382-.346-.615-.353-.205-.008-.407-.024-.603-.03-.39-.018-.532.314-.467.617-15.293-5.947-30.921-11.216-46.896-15.05.264-1.321-1.518-2.671-2.805-1.511-7.897 7.152-12.683 16.94-13.854 27.192a.394.394 0 00-.431.354c-1.138 11.648-.702 23.864 5.405 34.194 3.034 5.136 7.748 8.942 12.432 12.484 5.718 4.329 11.769 8.62 19.002 9.712.226.033.427.02.62-.023.068.172.185.313.323.441-1.312 2.801-1.776 5.784-2.14 8.893-.106.88.925 1.468 1.673 1.278 10.333-2.572 20.558-5.64 30.808-8.549 2.213-.626 6.868-1.106 8.228-3.459 1.503-2.601 2.283-5.776 2.741-8.799l.179-.029c1.071-.172 1.183-1.579.602-2.251zM94.489 88.44c-.142.54-.297 1.066-.421 1.612-1.891-.82-3.691-1.78-5.276-2.975a22.655 22.655 0 012.522-.443c.636-.073.67-.996 0-1.018a9.096 9.096 0 00-3.53.618c-1.26-1.121-2.358-2.427-3.174-4.03 1.87-.582 3.78-.963 5.7-1.378a.607.607 0 00.273-.122c.046 3.068 1.221 5.961 3.906 7.736zm18.578-31.74c-.151 1.743-.58 3.682-.655 4.402-.112 1.049-.055 2.066.069 3.084-4.9-1.14-10.736.552-15.054 3.655a.555.555 0 00-.294-.177c-3.297-.723-6.367.113-8.956 2.27-.64.534.185 1.602.873 1.15 2.077-1.365 4.519-2.088 7.005-2.175-1.033.891-1.949 1.857-2.69 2.897-1.57 2.183-2.59 4.982-2.774 7.732a.67.67 0 00-.498-.184c-2.14.063-4.169.643-6.148 1.397-1.801-5.163 1.826-10.508 5.346-13.86 1.48-1.412 3.181-2.63 5.013-3.695-.268.255-.048.814.408.712 5.524-1.179 11.047-1.303 16.626-1.965.578-.073.585-.843-.008-.907-5.607-.6-11.44.633-16.849 2.046-.02.003-.033.017-.056.03 5.672-3.272 12.637-5.082 18.642-6.412zm-60.3 33.145c-1.246-3.086-2.103-6.332-2.668-9.638.417 1.497.892 2.984 1.481 4.44a37.523 37.523 0 002.468 4.959c-.433.062-.861.135-1.28.239zm2.812 5.574a34.174 34.174 0 01-2.05-3.828c.543-.046 1.087-.13 1.62-.236a40.11 40.11 0 002.918 3.855c-.77.108-1.528.275-2.295.496-.056-.093-.128-.191-.193-.287zm.865 1.299c.876-.15 1.753-.27 2.638-.389a41.264 41.264 0 005.033 4.623l-1.38.161c-1.095.127-.868 1.716.203 1.486.878-.186 1.748-.375 2.623-.553a44.027 44.027 0 005.273 3.256c-1.769.444-3.544.877-5.316 1.329-3.537-2.994-6.656-6.356-9.074-9.913zm9.957 10.642c2.067-.162 4.12-.61 6.08-1.268a45.25 45.25 0 006.521 2.489c-2.791.669-5.572 1.361-8.388 1.9a58.414 58.414 0 01-4.213-3.121zm20.012 10.669c-.127-.078-.259-.166-.433-.211a46.04 46.04 0 01-5.97-2.146c.065.001.125.02.194.013 2.275-.313 4.46-.673 6.682-1.267.883-.232.716-1.622-.216-1.595-2.39.08-4.673.391-7.033.762-.96.151-.963 1.178-.424 1.743a59.253 59.253 0 01-6.675-3.593c3.14-.607 6.26-1.334 9.267-2.416 2.235.503 4.51.849 6.802.993a68.2 68.2 0 01-2.194 7.717zm4.308-11.058c-15.847-.307-30.373-10.084-36.381-24.812-5.87-14.392-1.096-31.382 9.607-42.102 14.77 4.492 29.416 9.2 43.825 14.718-10.298 2.791-21.638 7.761-25.903 17.693-2.651 6.17-.508 11.232 3.461 15.04-.339.3.007.879.447.65.056-.03.118-.048.175-.078 2.507 2.22 5.624 3.97 8.72 5.214.67.267 1.564-.3 1.7-.974.225-1.108.492-2.201.775-3.281a1.34 1.34 0 00.323-1.18 59.958 59.958 0 011.982-5.9 339.21 339.21 0 0125.235 26.159c-12.004 1.832-23.285 5.171-34.665 9.309a57.415 57.415 0 002.352-8.279c.234-1.105-.493-2.153-1.653-2.177zm17.371 14.909c-3.205.908-6.428 1.809-9.636 2.725a98.485 98.485 0 0012.622-8.817c.661-.547-.206-1.686-.906-1.199a185.27 185.27 0 01-14.472 9.218c-.7.402-.604 1.205-.167 1.643a430.592 430.592 0 00-8.683 2.6c.256-2.228.698-4.417 1.053-6.633.063-.018.137-.013.204-.049 10.346-4.895 21.705-7.975 33.044-9.968a719.444 719.444 0 01-12.769 9.525c-.345.26-.389.641-.29.955zm15.005-6.11c-.984 3.319-8.37 4.573-12.412 5.444a121.023 121.023 0 0011.339-9.022c.367-.328.169-.748-.172-.893.927-.161 1.854-.323 2.778-.475-.574 1.619-1.037 3.274-1.533 4.946z" fill="#fff" fill-opacity=".7"/><path d="M89.49 73.767c-1.814.496-3.588 1.108-5.363 1.72-.75.255-.444 1.443.322 1.194 1.796-.587 3.574-1.15 5.33-1.852.636-.253.413-1.256-.289-1.062zm10.946 42.755c-2.428 1.49-4.722 3.098-7.027 4.768-1.929 1.402-4.837 2.714-6.002 4.836-.044.08.006.19.111.185 2.405-.187 4.742-2.319 6.71-3.605 2.453-1.605 4.738-3.3 6.924-5.253.498-.447-.145-1.28-.716-.931z" fill="#fff" fill-opacity=".7"/></svg>