<svg width="178" height="178" fill="none" xmlns="http://www.w3.org/2000/svg"><path d="M88.871 33.31c-1.03-1.09-3.086-.1-2.66 1.427.019.065.03.127.049.191a1.611 1.611 0 00-.176.538c-.97 7.71-2.232 15.246-3.935 22.665a.956.956 0 00-.194.795c-1.52 6.497-3.376 12.915-5.712 19.286-.17-.045-.34-.09-.505-.144-.36-.108-.617.093-.711.354-7.373-1.834-14.817-2.915-22.14-5.144-.921-.277-2.188.64-1.797 1.679 1.62 4.332 3.137 8.705 4.803 13.019-.428.486-.599 1.206-.27 1.887 7.316 15.007 12.17 30.96 18.41 46.398.333.825 1.624.288 1.424-.536-3.559-15.061-9.799-29.431-15.487-43.808 3.673 1.318 7.418 2.47 11.175 3.53 2.864.807 7.47 3.05 10.553 2.259 6.157-1.576 8.184-10.179 9.53-15.617 3.452-13.96 2.556-28.055-.484-41.89 14.94 17.962 24.522 40.323 19.429 64.045-.189.873.19 1.831 1.117 2.091l8.195 2.248c-6.797 4.626-13.595 9.251-20.36 13.91-6.9 4.751-14.322 11.8-22.507 14.019-1.799.487-1.191 3.208.645 2.832 8.704-1.805 16.326-8.899 23.496-13.817 7.811-5.349 15.588-10.751 23.365-16.152 1.097-.764 1.21-2.596-.305-3.026-3.365-.938-6.734-1.888-10.099-2.827 5.08-26.29-6.903-51.355-24.849-70.213zM76.76 84.873c-4.407-1.72-8.785-3.44-13.072-5.458 2.335.568 4.69 1.068 7.046 1.475 2.75.483 4.536 2.033 6.025 3.983zm5.906 8.27c-1.188.865-2.564 1.205-4.18.722-6.771-2-13.466-4.24-20.254-6.18a349.86 349.86 0 00-1.715-5.357c5.385 3.913 11.33 7.01 17.856 8.487.956.216 1.397-1.172.44-1.473-6.587-2.099-12.902-4.628-18.742-8.36-.456-1.37-.912-2.74-1.36-4.106a116.5 116.5 0 004.733 1.427c-.076.26-.01.544.31.721 5.984 3.36 12.315 6.595 18.91 8.65 1.182 1.921 2.374 3.903 4.002 5.469zm1.47-1.452c-.594-1.288-1.266-2.553-1.96-3.808.134-.396-.005-.882-.522-1.087l-.103-.045-.74-1.323c1.874.822 3.894 1.31 5.91 1.239-.695 1.93-1.546 3.697-2.585 5.024zm3.967-9.719c-.227.96-.488 1.934-.781 2.894-2.858-.406-5.486-.865-8.007-2.203-.364-.687-.734-1.359-1.064-2.06a2.734 2.734 0 00-.27-.447c3.258 1.1 6.749 1.923 10.122 1.816zm-8.225-7.063c2.771 1.24 6.265 1.837 9.342 1.412a85.846 85.846 0 01-.764 4.074c-3.386-.541-6.73-.875-10.053-1.625.505-1.275.99-2.568 1.475-3.86zm1.748-4.97c2.71.682 5.523 1.325 8.294 1.212.02 0 .03-.005.05-.006a69.02 69.02 0 01-.391 2.997c-1.467-.04-2.944.01-4.4-.121-1.593-.142-3.151-.43-4.73-.67.397-1.132.797-2.273 1.177-3.413zm2.892-9.637c1.865.581 3.863.965 5.708.593a.701.701 0 00.182-.073c.072 3.085-.005 6.162-.311 9.224-2.63-.695-5.366-.946-8.06-1.385.314-.961.622-1.934.918-2.901 2.21.57 4.377.61 6.624-.06.684-.204.671-1.373-.126-1.321-1.974.146-4.033.057-5.984-.373.391-1.229.72-2.467 1.049-3.705zm.533-1.972c.386-1.524.75-3.06 1.088-4.605 1.175.037 2.338.125 3.496-.082a.92.92 0 00.27-.1c.2 1.873.368 3.752.452 5.631-.024-.01-.044-.029-.072-.03-1.727-.4-3.485-.51-5.234-.814zm3.084-15.84c.677 3.149 1.21 6.348 1.606 9.554l-.047-.02c-1.039-.243-2.076-.248-3.138-.264.64-3.069 1.178-6.163 1.58-9.27z" fill="#fff" fill-opacity=".7"/></svg>