<svg width="100" height="44" fill="none" xmlns="http://www.w3.org/2000/svg"><rect x="-.001" width="99.228" height="44" rx="12" fill="#fff" fill-opacity=".1"/><path d="M87.725 19.212l-3.202 4.977-.32-4.977h-4.601c.43-1.455.763-2.633.763-2.633l.18-.583H77.01l-.166.583-.763 2.633h-3.757c-3.09 0-4.824.888-5.544 2.551-.416-1.525-1.789-2.55-3.91-2.55-1.83 0-3.452.679-4.658 1.76-.623-1.081-1.857-1.76-3.576-1.76-1.969 0-3.674.79-4.921 1.996-.569-1.206-1.858-1.997-3.702-1.997-.637 0-1.233.084-1.802.236l.277-.956c0-.014.014-.028.014-.042l.707-2.454h-3.52l-2.246 7.736a5.913 5.913 0 00-.347 1.511c-.291 2.162.651 3.784 3.272 3.895.235.028.485.042.762.042 1.858 0 3.59-.79 4.866-1.997.54 1.207 1.802 1.997 3.757 1.997 1.732 0 3.368-.68 4.602-1.76.596 1.08 1.816 1.76 3.632 1.76h8.816c2.731 0 4.27-.541 5.074-1.705 0 1.122.638 1.705 2.246 1.705 1.303 0 3.05-.291 5.448-.874l-3.48 4.963h3.521l9.635-14.056h-3.521zm-41.38 4.977c-.333 1.137-1.386 2.052-2.356 2.052s-1.498-.915-1.165-2.052c.333-1.137 1.386-2.052 2.357-2.052.97 0 1.497.915 1.164 2.052zm8.609 0c-.333 1.137-1.386 2.052-2.357 2.052-.97 0-1.497-.915-1.164-2.052.332-1.137 1.386-2.052 2.356-2.052s1.497.915 1.165 2.052zm4.727 0c.333-1.137 1.386-2.052 2.357-2.052.97 0 1.497.915 1.164 2.052-.319 1.123-1.359 2.024-2.315 2.052h-.083c-.943-.028-1.442-.929-1.123-2.052zm11.326 1.691c-.18.416-1.567.347-1.913.36h-3.41a6.482 6.482 0 001.025-2.05c.028-.07.042-.153.056-.223.374.527 1.15.998 2.661 1.303 1.442.278 1.705.195 1.58.61zm3.48-1.122c-.306-1.165-1.595-1.636-3.411-1.858-.763-.097-1.192-.125-1.095-.457.07-.25.457-.306 1.275-.306h3.993l-.763 2.62zm3.506.013c0-.027.347-1.192.763-2.634h2.232l.36 3.73c-3.674.79-3.757.582-3.355-1.096zm-65.868-2.053l4.533-15.651h6.945l-1.4 4.852-.042.083-3.687 12.809h3.438c-1.442 3.59-2.565 6.404-3.369 8.442-6.35-.07-8.123-4.616-6.57-9.995m6.584 10.009L26.93 21.22h-3.55l3.091-7.721c5.296.554 7.791 4.727 6.322 9.773-1.567 5.42-7.93 9.995-14.112 9.995h-.125z" fill="#fff" fill-opacity=".5"/></svg>