<svg width="181" height="44" fill="none" xmlns="http://www.w3.org/2000/svg"><path fill-rule="evenodd" clip-rule="evenodd" d="M29.827 12a1.6 1.6 0 00-1.6 1.6v5.203a6 6 0 10.161 10.298 1.6 1.6 0 003.04-.701V13.6a1.6 1.6 0 00-1.6-1.6zm-1.6 12a3 3 0 10-6 0 3 3 0 006 0z" fill="#fff" fill-opacity=".5"/><circle cx="38.928" cy="24" r="4.5" stroke="#fff" stroke-opacity=".5" stroke-width="3"/><path fill-rule="evenodd" clip-rule="evenodd" d="M53.428 23v5.5a1.5 1.5 0 003 0V23a5 5 0 00-10 0v5.5a1.5 1.5 0 003 0V23a2 2 0 114 0zm13.499.5a3.5 3.5 0 11-7 0 3.5 3.5 0 017 0zm1 3.163a5.5 5.5 0 110-6.326V20a1 1 0 112 0v8a1 1 0 11-2 0v-1.337zm4.801-10.661a.65.65 0 10-1.3 0v11c0 .507.22 1.182.808 1.727.597.553 1.52.923 2.841.923a.65.65 0 000-1.3c-1.077 0-1.655-.297-1.958-.577-.312-.29-.391-.614-.391-.773v-6.85h2.35a.65.65 0 000-1.3h-2.35v-2.85z" fill="#fff" fill-opacity=".5"/><path d="M77.24 24h8.861c0-1.5-.9-4.5-4.5-4.5s-4.5 3.5-4.36 5c.14 1.5 1.16 4 4.36 4 1.5 0 3.1-1.1 3.5-1.5" stroke="#fff" stroke-opacity=".5" stroke-width="1.1" stroke-linecap="round"/><circle cx="91.727" cy="27.5" r="3.5" fill="#fff" fill-opacity=".5"/><path fill-rule="evenodd" clip-rule="evenodd" d="M152.755 29a1.5 1.5 0 01-1.5-1.5V22a2 2 0 10-4 0v5.5a1.5 1.5 0 11-3 0V22a5 5 0 018.5-3.57 5 5 0 018.5 3.57v5.5a1.5 1.5 0 11-3 0V22a2 2 0 10-4 0v5.5a1.5 1.5 0 01-1.5 1.5zm-13.5-6.5a3.5 3.5 0 11-7 0 3.5 3.5 0 017 0zm1 3.163a5.5 5.5 0 110-6.326V19a1 1 0 012 0v8a1 1 0 01-2 0v-1.337zm-31.75-9.655a.65.65 0 10-1.3-.013l-.1 10v.007c0 .607.156 1.325.79 1.868.608.522 1.544.782 2.86.782a.65.65 0 000-1.3c-1.184 0-1.748-.24-2.014-.469-.24-.206-.335-.487-.336-.878l.052-5.205h2.398a.65.65 0 100-1.3h-2.385l.035-3.492z" fill="#fff" fill-opacity=".5"/><path d="M116.863 18c-1.5 0-3 0-3.5 2.002-.242.968 0 5.498 0 7.998" stroke="#fff" stroke-opacity=".5" stroke-width="1.5" stroke-linecap="round"/><path d="M119.269 22.5h8.86c0-1.5-.9-4.5-4.5-4.5s-4.5 3.5-4.36 5c.14 1.5 1.16 4 4.36 4 1.5 0 3.1-1.1 3.5-1.5" stroke="#fff" stroke-opacity=".5" stroke-width="2" stroke-linecap="round"/><path d="M104.254 19.5c-.499-1-1.498-1.5-2.999-1.5v0c-2.462 0-3.373 3.228-1.105 4.187.466.197.999.408 1.606.632.332.122.675.208 1.011.316.951.305 2.32 1.036 1.988 2.365-.5 2-2.5 2-3 2s-2.5 0-3.5-2" stroke="#fff" stroke-opacity=".5" stroke-width="1.1" stroke-linecap="round"/><rect x=".227" width="180" height="44" rx="12" fill="#fff" fill-opacity=".1"/></svg>