<svg width="195" height="291" fill="none" xmlns="http://www.w3.org/2000/svg"><path d="M58.5 206.516c0-12.426 10.074-22.5 22.5-22.5 12.427 0 22.5 10.074 22.5 22.5 0 12.427-10.073 22.5-22.5 22.5-12.426 0-22.5-10.073-22.5-22.5z" fill="#fff" fill-opacity=".05"/><path fill-rule="evenodd" clip-rule="evenodd" d="M15.325 125.473l-4.732-42.584a74.392 74.392 0 010-16.43l.342-3.073c3.622-32.6 29.251-58.396 61.828-62.228a70.496 70.496 0 0116.474 0c32.576 3.832 58.206 29.627 61.828 62.228l.341 3.073c.607 5.46.607 10.97 0 16.43l-4.731 42.584 10.299.823c16.241 1.296 29.502 13.505 32.135 29.583a313.37 313.37 0 010 101.274c-2.633 16.079-15.894 28.287-32.135 29.584l-22.442 1.792a672.796 672.796 0 01-107.063 0l-22.442-1.792c-16.24-1.297-29.502-13.505-32.135-29.584a313.37 313.37 0 010-101.274c2.633-16.078 15.895-28.287 32.135-29.583l10.298-.823zm60.067-101.97a47.988 47.988 0 0111.216 0c22.179 2.61 39.628 20.172 42.094 42.368l.342 3.073a51.905 51.905 0 010 11.46l-4.817 43.357a672.6 672.6 0 00-86.454 0l-4.817-43.357a51.893 51.893 0 010-11.46l.341-3.073c2.466-22.196 19.916-39.758 42.095-42.367zm57.349 123.43a650.021 650.021 0 00-103.481 0l-22.442 1.791a12.92 12.92 0 00-11.721 10.791 290.867 290.867 0 000 94.003 12.92 12.92 0 0011.721 10.79L29.26 266.1a650.257 650.257 0 00103.481 0l22.442-1.792a12.92 12.92 0 0011.722-10.79 290.914 290.914 0 000-94.003 12.92 12.92 0 00-11.722-10.791l-22.442-1.791z" fill="#fff" fill-opacity=".05"/></svg>