<svg width="241" height="226" fill="none" xmlns="http://www.w3.org/2000/svg"><path fill-rule="evenodd" clip-rule="evenodd" d="M-37.945 58.3c-4.202 39.043-4.014 84.073 1.833 122.958 3.235 21.516 20.796 38.01 42.472 39.894l22.653 1.97a819.717 819.717 0 00141.974 0l22.654-1.97c21.676-1.884 39.236-18.378 42.471-39.894 5.848-38.885 6.035-83.913 1.833-122.956a456.896 456.896 0 00-1.833-13.56c-3.235-21.515-20.795-38.01-42.471-39.894l-22.654-1.97a819.695 819.695 0 00-141.974 0L6.359 4.848c-21.675 1.884-39.236 18.379-42.471 39.894A459.064 459.064 0 00-37.945 58.3zm68.907-33.006a797.202 797.202 0 01138.077 0l22.653 1.97a24.572 24.572 0 0122.171 20.824c.175 1.167.346 2.334.511 3.5l-83.415 46.343a63.75 63.75 0 01-61.92 0L-14.373 51.59c.166-1.168.336-2.335.512-3.502a24.571 24.571 0 0122.17-20.825l22.654-1.97zm186.166 50.504a436.517 436.517 0 01-3.266 102.114c-1.688 11.231-10.855 19.841-22.17 20.825l-22.653 1.969a797.083 797.083 0 01-138.077 0l-22.654-1.969a24.572 24.572 0 01-22.17-20.825 436.516 436.516 0 01-3.265-102.113l75.24 41.8a86.249 86.249 0 0083.773 0l75.242-41.8z" fill="#fff" fill-opacity=".05"/></svg>