<svg width="44" height="44" fill="none" xmlns="http://www.w3.org/2000/svg"><rect width="44" height="44" rx="12" fill="#fff" fill-opacity=".1"/><path fill-rule="evenodd" clip-rule="evenodd" d="M34.838 15.665c.185-.581 0-1.009-.885-1.009h-2.927c-.744 0-1.087.37-1.273.777 0 0-1.488 3.402-3.596 5.613-.682.64-.992.843-1.364.843-.186 0-.456-.204-.456-.785v-5.439c0-.698-.215-1.009-.836-1.009h-4.598c-.465 0-.745.324-.745.631 0 .662 1.054.815 1.163 2.676v4.042c0 .887-.17 1.047-.543 1.047-.992 0-3.405-3.418-4.836-7.329-.28-.76-.562-1.067-1.31-1.067H9.706c-.836 0-1.004.37-1.004.777 0 .727.993 4.333 4.62 9.102 2.418 3.258 5.825 5.023 8.925 5.023 1.86 0 2.09-.392 2.09-1.067v-2.462c0-.785.177-.941.766-.941.434 0 1.178.203 2.914 1.774 1.984 1.861 2.311 2.696 3.427 2.696h2.927c.836 0 1.254-.392 1.013-1.166-.264-.771-1.212-1.89-2.469-3.217-.682-.756-1.705-1.57-2.015-1.977-.434-.524-.31-.757 0-1.222 0 0 3.566-4.711 3.938-6.31z" fill="#fff" fill-opacity=".5"/></svg>