<svg viewBox="0 0 52 39" xmlns="http://www.w3.org/2000/svg" xmlns:xlink="http://www.w3.org/1999/xlink"><style>:root&gt;svg{display:none}:root&gt;svg:target{display:block}</style><svg viewBox="0 0 25 16" id="arrow-next" xmlns="http://www.w3.org/2000/svg"><path d="M1 7a1 1 0 000 2V7zm23.707 1.707a1 1 0 000-1.414L18.343.929a1 1 0 10-1.414 1.414L22.586 8l-5.657 5.657a1 1 0 001.414 1.414l6.364-6.364zM1 9h23V7H1v2z"/></svg><svg viewBox="0 0 25 16" id="arrow-prev" xmlns="http://www.w3.org/2000/svg"><path d="M.293 7.293a1 1 0 000 1.414l6.364 6.364a1 1 0 001.414-1.414L2.414 8l5.657-5.657A1 1 0 006.657.93L.293 7.293zM24 9a1 1 0 100-2v2zM1 9h23V7H1v2z"/></svg><svg viewBox="0 0 52 16" id="btn-next" xmlns="http://www.w3.org/2000/svg"><path d="M1.5 7a1 1 0 000 2V7zm50.207 1.707a1 1 0 000-1.414L45.343.929a1 1 0 10-1.414 1.414L49.586 8l-5.657 5.657a1 1 0 001.414 1.414l6.364-6.364zM1.5 9H51V7H1.5v2z"/></svg><svg viewBox="0 0 51 16" id="btn-prev" xmlns="http://www.w3.org/2000/svg"><path d="M.293 7.293a1 1 0 000 1.414l6.364 6.364a1 1 0 001.414-1.414L2.414 8l5.657-5.657A1 1 0 006.657.93L.293 7.293zM1 9h49.5V7H1v2z"/></svg><svg viewBox="0 0 33 39" id="play" xmlns="http://www.w3.org/2000/svg"><path d="M33 19.5L.75 38.12V.88L33 19.5z"/></svg></svg>