<svg width="24" height="25" fill="none" xmlns="http://www.w3.org/2000/svg"><rect y=".391" width="24" height="24" rx="8" fill="#874AB0"/><path d="M20.997 12.015a9.01 9.01 0 00-8.994-8.857A9.01 9.01 0 003 12.157c0 2.341.915 4.59 2.55 6.267-.23.327-.773.81-1.863.49a.49.49 0 00-.526.77c.553.718 1.933 1.374 3.571 1.374a6.182 6.182 0 002.244-.425 8.998 8.998 0 0012.013-8.052 2.62 2.62 0 00.01-.282c.002-.1-.004-.187-.002-.284zm-1.056-.956a16.12 16.12 0 00-1.281-.957c-1.83-1.242-3.57-1.919-5.03-1.829-.76.06-1.339.573-1.6.841-.346-.355-.917-.715-1.811-.715a2.217 2.217 0 00-1.07.259c.674-2.851 2.442-4.127 3.092-4.511a8.03 8.03 0 017.699 6.912zm-8.003 9.005a.461.461 0 00-.082.11 8.029 8.029 0 01-7.795-6.89c1.336 1.011 4.054 2.64 7.685 2.64h.117c.209-.008.41-.082.575-.21.235-.166 1.595-1.153 2.599-2.373-.589 4.221-3.063 6.688-3.099 6.723zm-.364-9.917v.006a.44.44 0 00.04.077v.006a.49.49 0 00.865-.085c.071-.149.171-.282.294-.393.293-.256.673-.39 1.062-.373.49 0 1.322.33 1.322 1.57 0 1.138-1.858 2.909-3.133 3.848-1.275-.94-3.132-2.71-3.132-3.849 0-1.239.83-1.57 1.32-1.57.39-.016.77.118 1.063.374.124.11.226.241.3.389zm-1.098-5.859c-1.1 1.07-2.389 2.97-2.558 6.086v.575c0 1.414 1.536 2.982 2.64 3.924-3.521-.388-5.965-2.382-6.572-2.926a8.028 8.028 0 016.49-7.659zm-5.227 15.56c.4-.157.75-.42 1.014-.761a9.01 9.01 0 001.337.92 4.984 4.984 0 01-2.35-.158zm7.977.235a13.747 13.747 0 002.918-8.548v-.589a2.954 2.954 0 00-.275-1.255c1.876.752 3.543 2.176 4.142 2.725a8.03 8.03 0 01-6.785 7.667z" fill="#fff"/></svg>