<svg width="146" height="34" fill="none" xmlns="http://www.w3.org/2000/svg"><path fill-rule="evenodd" clip-rule="evenodd" d="M22.997 1H9.003C2.412 1 0 3.411 0 10.003v13.994C0 30.589 2.412 33 9.003 33h13.99C29.585 33 32 30.589 32 23.997V10.003C32 3.411 29.589 1 22.997 1z" fill="#291F2F"/><path d="M13.961 19.558h1.284l-.644-1.496-.64 1.496zm-.316.755l-.38.871h-.867l1.843-4.181h.749l1.836 4.181h-.89l-.376-.87h-1.915zm13.946.868h.838v-4.178h-.838v4.178zm-3.333-1.795H25.8v-.762h-1.543v-.856h2.24v-.763H23.42v4.179h3.16v-.762h-2.322v-1.036zm-3.329.494l-.95-2.877h-.692l-.95 2.877-.924-2.875h-.904l1.459 4.181h.702l.951-2.747.951 2.747h.71l1.454-4.181h-.88l-.927 2.875zm-9.81-.483c0 .68-.338 1.044-.95 1.044-.618 0-.957-.374-.957-1.073v-2.363h-.85v2.392c0 1.177.655 1.852 1.795 1.852 1.15 0 1.81-.688 1.81-1.886v-2.36h-.848v2.394zm-4.781-2.394h.848v4.183h-.848v-1.698H4.42v1.698h-.85v-4.183h.85v1.688h1.917v-1.688zM16 11.676a5.333 5.333 0 01-5.326-5.327h.753A4.58 4.58 0 0016 10.923a4.579 4.579 0 004.574-4.574h.752A5.333 5.333 0 0116 11.676z" fill="#fff"/><path d="M52.027 12.756h-1.03V10.5h-5.895v2.256H44.07V9.539h.662c.578-.984 1.078-2.178 1.5-3.58.422-1.402.67-2.744.745-4.025h3.96v7.605h1.09v3.217zm-2.162-3.217V2.906h-1.94c-.073.973-.312 2.108-.714 3.405-.398 1.296-.846 2.373-1.342 3.228h3.996zm9.041-2.268c0 1.051-.265 1.872-.797 2.461-.53.59-1.265.885-2.203.885-.582 0-1.097-.135-1.547-.404a2.688 2.688 0 01-1.037-1.172c-.242-.508-.363-1.098-.363-1.77 0-1.046.262-1.86.785-2.443.524-.586 1.258-.879 2.203-.879.906 0 1.625.3 2.156.897.536.593.803 1.402.803 2.425zm-4.857 0c0 .81.158 1.424.474 1.846.32.418.791.627 1.412.627.614 0 1.08-.209 1.4-.627.321-.422.481-1.037.481-1.846 0-.808-.162-1.416-.486-1.822-.32-.41-.79-.615-1.412-.615-1.246 0-1.87.812-1.87 2.437zm9.111 3.346c-.926 0-1.646-.283-2.162-.85-.516-.57-.773-1.386-.773-2.449 0-1.078.26-1.908.779-2.49.523-.586 1.268-.879 2.232-.879.313 0 .621.033.926.1.309.062.563.144.762.246l-.322.879c-.543-.203-1.006-.305-1.39-.305-.648 0-1.126.205-1.435.615-.308.407-.462 1.014-.462 1.823 0 .777.154 1.373.462 1.787.309.41.766.615 1.371.615a3.98 3.98 0 001.67-.375v.938c-.445.23-.998.345-1.658.345zm7.63-5.66h-2.105V10.5h-1.042V4.957h-2.075v-.89h5.221v.89zm.269-.89h1.13l1.39 3.662c.292.796.472 1.38.538 1.751h.047c.035-.144.115-.414.24-.808.125-.399.23-.717.317-.955l1.306-3.65h1.137l-2.771 7.324c-.27.71-.59 1.22-.961 1.529-.371.309-.83.463-1.377.463-.293 0-.584-.033-.873-.1v-.838c.195.047.43.07.703.07.336 0 .62-.093.855-.28.235-.184.426-.47.575-.856l.333-.856-2.59-6.457zm8.18 6.433h-1.055V4.066h5.437V10.5h-1.055V4.969h-3.328V10.5zm7.488-6.434v2.678h3.492V4.066h1.054V10.5H90.22V7.635h-3.492V10.5h-1.055V4.066h1.055zm12.187 3.205c0 1.051-.266 1.872-.797 2.461-.531.59-1.265.885-2.203.885-.582 0-1.098-.135-1.547-.404A2.688 2.688 0 0193.33 9.04c-.242-.508-.363-1.098-.363-1.77 0-1.046.261-1.86.785-2.443.523-.586 1.258-.879 2.203-.879.906 0 1.625.3 2.156.897.535.593.803 1.402.803 2.425zm-4.857 0c0 .81.158 1.424.474 1.846.32.418.791.627 1.412.627.614 0 1.08-.209 1.4-.627.321-.422.481-1.037.481-1.846 0-.808-.162-1.416-.486-1.822-.32-.41-.791-.615-1.412-.615-1.246 0-1.87.812-1.87 2.437zm15.257-1.582c0 .415-.117.73-.351.95-.234.215-.568.361-1.002.44v.052c.543.074.937.236 1.184.486.25.246.375.578.375.996 0 .61-.225 1.076-.674 1.4-.446.325-1.088.487-1.928.487h-2.895V4.066h2.883c1.606 0 2.408.541 2.408 1.623zm-.849 2.866c0-.36-.141-.612-.422-.756-.281-.145-.693-.217-1.236-.217h-1.729V9.65h1.752c1.09 0 1.635-.365 1.635-1.095zm-.182-2.772c0-.3-.117-.515-.351-.644-.231-.13-.58-.194-1.049-.194h-1.805V6.71h1.611c.575 0 .983-.07 1.225-.21.246-.145.369-.384.369-.716zM53.98 30.5h2.897L51.99 18.513h-2.879L44.227 30.5h2.879l.767-1.884h5.34l.767 1.884zm-5.217-4.065l1.78-4.38 1.78 4.38h-3.56zm15.023-5.165c-1.257 0-2.303.54-3.019 1.466v-1.257H58.22v12.022h2.547v-4.275c.716.943 1.762 1.483 3.019 1.483 2.408 0 4.152-1.954 4.152-4.728 0-2.757-1.744-4.711-4.152-4.711zm-.733 7.293c-1.239 0-2.146-.907-2.286-2.233v-.698c.14-1.309 1.047-2.216 2.286-2.216 1.413 0 2.408 1.064 2.408 2.565 0 1.518-.995 2.582-2.408 2.582zm12.251-7.293c-1.256 0-2.303.54-3.018 1.466v-1.257h-2.548v12.022h2.548v-4.275c.715.943 1.762 1.483 3.018 1.483 2.408 0 4.153-1.954 4.153-4.728 0-2.757-1.745-4.711-4.153-4.711zm-.733 7.293c-1.238 0-2.146-.907-2.285-2.233v-.698c.14-1.309 1.047-2.216 2.285-2.216 1.414 0 2.408 1.064 2.408 2.565 0 1.518-.994 2.582-2.408 2.582zm17.125-2.791h2.792v1.832a4.07 4.07 0 01-2.338.767c-2.042 0-3.77-1.78-3.77-3.873 0-2.076 1.728-3.856 3.77-3.856 1.099 0 2.268.523 2.983 1.343L97 20.31c-1.204-1.256-3.053-2.006-4.85-2.006-3.473 0-6.421 2.826-6.421 6.194 0 3.367 2.948 6.211 6.42 6.211 1.798 0 3.647-.75 4.851-2.006v-4.938h-5.304v2.007zm11.431-4.502c-1.256 0-2.495.349-3.768.995l.854 1.692c.716-.367 1.501-.646 2.339-.646 1.483 0 2.076.838 2.076 1.797v.175a6.509 6.509 0 00-2.303-.454c-2.094 0-3.752 1.222-3.752 3.001 0 1.728 1.483 2.88 3.403 2.88.977 0 2.006-.384 2.652-1.117v.907h2.46v-5.392c0-2.355-1.605-3.838-3.961-3.838zm-.575 7.677c-.873 0-1.518-.453-1.518-1.186 0-.733.732-1.274 1.657-1.274a5.71 5.71 0 011.937.331v.838c-.175.838-1.099 1.291-2.076 1.291zm6.683 1.553h2.548V18.304h-2.548V30.5zm4.771 0h2.548V18.304h-2.548V30.5zm9.028-2.041c-1.064 0-1.849-.663-2.146-1.64h6.508c0-3.403-1.657-5.55-4.484-5.55-2.634 0-4.641 1.973-4.641 4.695 0 2.774 2.094 4.745 4.781 4.745 1.326 0 2.879-.558 3.681-1.395l-1.622-1.658c-.489.471-1.361.803-2.077.803zm-.017-4.938c1.029 0 1.692.575 1.937 1.465h-4.031a2.18 2.18 0 012.094-1.465zm8.65-.367V21.48h-2.547v9.02h2.547v-4.31c0-1.692 1.204-2.774 3.089-2.774V21.27c-1.379 0-2.495.715-3.089 1.884zm6.617 10.487c1.413 0 2.565-.925 3.245-2.687l3.699-9.475h-2.599l-2.251 6.334-2.373-6.334h-2.635l3.752 9.108-.314.663c-.192.332-.576.489-1.065.489-.296 0-.75-.157-1.186-.402l-.541 1.745c.61.332 1.518.559 2.268.559z" fill="#291F2F"/></svg>