<svg width="24" height="28" fill="none" xmlns="http://www.w3.org/2000/svg"><path d="M19.83 14.89c-.033-3.537 2.97-5.258 3.108-5.338-1.701-2.418-4.338-2.748-5.264-2.774-2.214-.227-4.362 1.292-5.49 1.292-1.15 0-2.887-1.27-4.76-1.233-2.408.036-4.662 1.396-5.898 3.508-2.55 4.305-.648 10.633 1.795 14.113 1.223 1.705 2.651 3.608 4.521 3.54 1.83-.073 2.513-1.136 4.72-1.136 2.187 0 2.83 1.137 4.736 1.094 1.963-.03 3.2-1.712 4.379-3.432 1.413-1.954 1.98-3.878 2.003-3.977-.047-.015-3.813-1.416-3.85-5.656zM16.227 4.488c.984-1.2 1.657-2.831 1.47-4.488-1.423.062-3.204.96-4.23 2.134-.907 1.034-1.718 2.729-1.508 4.322 1.6.117 3.242-.787 4.268-1.968z" fill="#291F2F"/></svg>