<svg width="141" height="42" fill="none" xmlns="http://www.w3.org/2000/svg"><path d="M22.992 21.629c-.038-4.023 3.378-5.98 3.534-6.071-1.934-2.75-4.932-3.125-5.986-3.155-2.518-.259-4.96 1.469-6.243 1.469-1.308 0-3.284-1.444-5.412-1.402-2.74.041-5.303 1.588-6.708 3.99-2.9 4.895-.738 12.09 2.042 16.049 1.39 1.938 3.014 4.102 5.14 4.026 2.08-.083 2.858-1.293 5.368-1.293 2.488 0 3.217 1.293 5.386 1.244 2.232-.034 3.638-1.947 4.98-3.902 1.606-2.222 2.251-4.41 2.277-4.522-.053-.018-4.336-1.612-4.378-6.433zM18.895 9.8c1.12-1.365 1.885-3.221 1.672-5.104-1.62.07-3.644 1.092-4.81 2.426-1.032 1.176-1.954 3.103-1.716 4.915 1.82.132 3.687-.895 4.854-2.238zm34.204 26.457H50.19l-1.592-4.88h-5.535l-1.517 4.88h-2.83l5.483-16.61h3.388l5.51 16.61zm-4.98-6.926l-1.44-4.337c-.153-.443-.438-1.487-.86-3.13h-.05c-.168.707-.438 1.75-.81 3.13l-1.414 4.337h4.574zm19.083.789c0 2.038-.564 3.648-1.693 4.83-1.012 1.052-2.267 1.577-3.767 1.577-1.618 0-2.78-.566-3.488-1.7h-.051v6.31h-2.73V28.222c0-1.28-.034-2.595-.1-3.942h2.4l.152 1.898h.051c.91-1.43 2.292-2.144 4.145-2.144 1.45 0 2.66.558 3.627 1.675.97 1.118 1.454 2.588 1.454 4.412zm-2.78.098c0-1.166-.27-2.127-.81-2.883-.59-.789-1.382-1.183-2.375-1.183-.674 0-1.285.22-1.832.652a3.018 3.018 0 00-1.074 1.714c-.085.33-.127.6-.127.811v1.997c0 .872.274 1.607.822 2.207.548.6 1.26.9 2.135.9 1.028 0 1.828-.387 2.4-1.158.574-.773.86-1.791.86-3.057zm16.907-.098c0 2.038-.565 3.648-1.695 4.83-1.01 1.052-2.266 1.577-3.765 1.577-1.618 0-2.78-.566-3.487-1.7h-.051v6.31H69.6V28.222c0-1.28-.034-2.595-.1-3.942h2.4l.152 1.898h.051c.91-1.43 2.29-2.144 4.145-2.144 1.448 0 2.658.558 3.628 1.675.967 1.118 1.452 2.588 1.452 4.412zm-2.78.098c0-1.166-.27-2.127-.81-2.883-.591-.789-1.38-1.183-2.376-1.183-.674 0-1.285.22-1.833.652a3.015 3.015 0 00-1.072 1.714c-.084.33-.127.6-.127.811v1.997c0 .872.274 1.607.82 2.207.547.6 1.259.9 2.137.9 1.028 0 1.828-.387 2.4-1.158.574-.773.86-1.791.86-3.057zm18.578 1.381c0 1.413-.503 2.562-1.513 3.45-1.11.97-2.655 1.454-4.64 1.454-1.834 0-3.303-.345-4.416-1.035l.632-2.218a7.627 7.627 0 003.946 1.06c1.028 0 1.828-.226 2.403-.678.572-.452.857-1.058.857-1.815 0-.674-.235-1.242-.708-1.702-.47-.46-1.254-.889-2.35-1.285-2.983-1.084-4.473-2.673-4.473-4.762 0-1.366.523-2.486 1.569-3.357 1.041-.872 2.432-1.308 4.17-1.308 1.55 0 2.838.264 3.866.79l-.682 2.168c-.96-.509-2.046-.764-3.26-.764-.96 0-1.71.231-2.249.69-.454.411-.682.912-.682 1.505 0 .656.26 1.2.782 1.626.455.394 1.28.821 2.479 1.282 1.465.575 2.542 1.248 3.234 2.02.69.768 1.035 1.73 1.035 2.879zm9.023-5.322h-3.008v5.815c0 1.479.53 2.218 1.593 2.218.487 0 .892-.042 1.212-.124l.075 2.02c-.537.197-1.245.295-2.122.295-1.078 0-1.92-.32-2.528-.96-.606-.642-.91-1.718-.91-3.23v-6.037h-1.793v-1.997h1.793v-2.193l2.68-.789v2.982h3.008v2zm13.573 3.893c0 1.84-.54 3.352-1.618 4.534-1.131 1.217-2.631 1.824-4.501 1.824-1.803 0-3.238-.583-4.308-1.749-1.07-1.166-1.605-2.637-1.605-4.41 0-1.857.55-3.377 1.655-4.559 1.102-1.183 2.59-1.775 4.46-1.775 1.802 0 3.253.583 4.347 1.75 1.047 1.132 1.57 2.594 1.57 4.385zm-2.832.086c0-1.105-.242-2.052-.732-2.842-.572-.956-1.39-1.433-2.45-1.433-1.097 0-1.931.478-2.503 1.433-.49.791-.732 1.753-.732 2.892 0 1.104.242 2.052.732 2.84.59.956 1.415 1.433 2.478 1.433 1.042 0 1.86-.486 2.451-1.458.503-.805.756-1.762.756-2.865zm11.704-3.636a4.852 4.852 0 00-.86-.074c-.96 0-1.703.353-2.225 1.061-.454.624-.682 1.413-.682 2.365v6.285H122.1l.025-8.206c0-1.38-.034-2.637-.102-3.77h2.377l.1 2.291h.076c.288-.787.742-1.421 1.364-1.897a3.357 3.357 0 011.973-.641c.252 0 .48.017.682.048v2.538zm12.206 3.081c0 .477-.032.88-.1 1.207h-8.187c.032 1.184.427 2.088 1.188 2.712.69.558 1.582.838 2.678.838 1.212 0 2.318-.188 3.313-.567l.427 1.848c-1.162.494-2.535.74-4.118.74-1.905 0-3.4-.547-4.488-1.64-1.086-1.091-1.63-2.558-1.63-4.397 0-1.806.506-3.31 1.519-4.51 1.059-1.28 2.492-1.92 4.294-1.92 1.771 0 3.111.64 4.021 1.92.721 1.017 1.083 2.275 1.083 3.77zm-2.602-.69c.018-.789-.16-1.47-.53-2.046-.473-.74-1.198-1.11-2.175-1.11-.892 0-1.618.362-2.173 1.086-.454.575-.724 1.265-.807 2.069h5.685v.001zm-95.18-14.968c-.86 0-1.59-.19-2.19-.57a3.664 3.664 0 01-1.374-1.584c-.313-.675-.468-1.457-.468-2.345 0-.888.155-1.67.468-2.346a3.664 3.664 0 011.373-1.584c.6-.38 1.33-.57 2.19-.57 1 0 1.822.254 2.466.762.648.508 1.094 1.192 1.338 2.052l-1.086.288c-.175-.644-.49-1.152-.941-1.524-.453-.372-1.044-.558-1.776-.558-.645 0-1.18.146-1.608.438-.428.292-.75.7-.967 1.224-.216.52-.326 1.126-.33 1.818-.003.688.103 1.293.319 1.817.215.52.54.928.971 1.224.432.292.97.438 1.614.438.733 0 1.325-.185 1.776-.557.453-.377.767-.884.943-1.524l1.085.287c-.244.857-.69 1.54-1.338 2.053-.644.508-1.465.761-2.465.761zm5.113-.18l.006-6.48h1.08v3.12l2.718-3.12h1.386l-2.862 3.24 3.198 3.24h-1.494l-2.946-3.12v3.12h-1.086zm7.965.18c-.483 0-.89-.087-1.218-.263a1.88 1.88 0 01-.737-.708 1.927 1.927 0 01-.247-.96c0-.34.064-.635.192-.883.132-.252.316-.46.552-.623.236-.168.518-.3.846-.396a9.67 9.67 0 011.032-.216 35.38 35.38 0 011.164-.174c.393-.052.759-.102 1.099-.15l-.385.222c.012-.576-.104-1.002-.348-1.278-.24-.276-.655-.414-1.247-.414-.392 0-.736.09-1.032.27-.293.176-.498.464-.618.864l-1.014-.306c.155-.568.457-1.014.905-1.338.449-.324 1.039-.486 1.77-.486.589 0 1.093.106 1.513.318.424.208.727.524.912.948.092.2.15.418.174.654.024.232.036.476.036.732v4.008h-.948v-1.555l.221.145c-.244.523-.586.92-1.026 1.188-.435.268-.968.402-1.596.402zm.163-.893c.384 0 .715-.069.995-.205.284-.14.512-.322.684-.546.172-.227.285-.475.337-.743.06-.2.091-.423.095-.667.008-.248.012-.438.012-.57l.372.162c-.348.049-.69.095-1.026.139-.335.043-.654.091-.953.143-.3.049-.57.107-.81.175a2.639 2.639 0 00-.498.216 1.131 1.131 0 00-.373.341.89.89 0 00-.137.51c0 .176.044.345.132.505.091.16.231.29.42.39.192.1.442.15.75.15zm8.646.713V11.53c-.217.107-.479.2-.787.276-.303.076-.63.114-.977.114-.66 0-1.193-.149-1.597-.444-.404-.296-.668-.723-.791-1.279a4.311 4.311 0 01-.078-.521 12.547 12.547 0 01-.03-.816V7.384h1.08V8.86c0 .116.004.26.011.432.008.168.029.332.06.492.08.396.247.693.498.893.256.2.616.3 1.08.3.313 0 .6-.04.865-.12.264-.08.486-.185.666-.317V7.383h1.073v6.48h-1.073zm4.598.18c-.484 0-.89-.087-1.218-.263a1.88 1.88 0 01-.738-.708 1.927 1.927 0 01-.246-.96c0-.34.064-.635.192-.883.132-.252.316-.46.552-.623.236-.168.518-.3.846-.396a9.67 9.67 0 011.032-.216 35.38 35.38 0 011.164-.174c.392-.052.758-.102 1.098-.15l-.384.222c.012-.576-.104-1.002-.348-1.278-.24-.276-.656-.414-1.248-.414-.392 0-.736.09-1.032.27-.292.176-.498.464-.618.864l-1.014-.306c.156-.568.458-1.014.906-1.338.448-.324 1.038-.486 1.77-.486.588 0 1.092.106 1.512.318.424.208.728.524.912.948.092.2.15.418.174.654.024.232.036.476.036.732v4.008h-.948v-1.555l.222.145c-.244.523-.586.92-1.026 1.188-.436.268-.968.402-1.596.402zm.162-.893c.384 0 .716-.069.996-.205.284-.14.512-.322.684-.546a1.78 1.78 0 00.336-.743c.06-.2.092-.423.096-.667.008-.248.012-.438.012-.57l.372.162c-.348.049-.69.095-1.026.139-.336.043-.654.091-.954.143-.3.049-.57.107-.81.175a2.639 2.639 0 00-.498.216 1.131 1.131 0 00-.372.341.89.89 0 00-.138.51c0 .176.044.345.132.505.092.16.232.29.42.39.192.1.442.15.75.15zm7.536-6.522c-.3 0-.574-.074-.822-.222a1.706 1.706 0 01-.594-.588 1.585 1.585 0 01-.222-.828h.864c0 .212.076.394.228.546a.745.745 0 00.546.228.732.732 0 00.546-.228.745.745 0 00.228-.546h.864c0 .304-.074.58-.222.828-.144.244-.342.44-.594.588a1.574 1.574 0 01-.822.222zm2.514.756v6.48h-1.032V9.088l-3.396 4.776h-.882v-6.48h1.032v4.71l3.402-4.71h.876zm3.396 6.48V8.355h-2.256v-.972h5.58v.972H84.18v5.508h-1.068zm7.268.18c-.636 0-1.192-.14-1.668-.42a2.942 2.942 0 01-1.104-1.183c-.264-.508-.396-1.1-.396-1.776 0-.707.13-1.32.39-1.835.26-.52.622-.92 1.086-1.2.468-.284 1.016-.426 1.644-.426.652 0 1.206.15 1.662.45.46.3.804.728 1.032 1.284.232.556.332 1.217.3 1.986h-1.08v-.384c-.012-.796-.174-1.39-.486-1.782-.312-.396-.776-.594-1.392-.594-.66 0-1.162.212-1.506.636-.344.424-.516 1.032-.516 1.823 0 .764.172 1.357.516 1.777.344.42.834.63 1.47.63.428 0 .8-.098 1.116-.294a2 2 0 00.744-.847l1.026.354a2.906 2.906 0 01-1.14 1.332 3.16 3.16 0 01-1.698.469zm-2.394-3.12v-.858h4.788v.857h-4.788zm9.072 2.94v-6.48h2.76c.164 0 .34.01.528.03.192.016.366.046.522.09.348.092.634.282.858.57.228.284.342.644.342 1.08 0 .244-.038.456-.114.636-.072.18-.176.336-.312.468a1.295 1.295 0 01-.414.276c.14.023.282.077.426.161.228.124.406.298.534.522.132.224.198.51.198.858 0 .44-.106.805-.318 1.093a1.62 1.62 0 01-.876.588 2.767 2.767 0 01-.516.09c-.188.011-.37.018-.546.018h-3.072zm1.08-.87h1.932a3.139 3.139 0 00.618-.084.716.716 0 00.45-.337c.096-.164.144-.341.144-.534 0-.255-.072-.463-.216-.623a.924.924 0 00-.558-.3 1.174 1.174 0 00-.276-.043 6.26 6.26 0 00-.258-.005h-1.836v1.925zm0-2.809h1.608c.112 0 .23-.005.354-.018.124-.015.232-.041.324-.078a.72.72 0 00.402-.335c.088-.16.132-.334.132-.522 0-.208-.048-.39-.144-.546a.716.716 0 00-.426-.33 1.318 1.318 0 00-.432-.078 7.872 7.872 0 00-.3-.012h-1.518v1.92z" fill="#291F2F"/></svg>