<svg width="56" height="56" fill="none" xmlns="http://www.w3.org/2000/svg"><path d="M27.998 55.206c15.238.214 27.767-11.961 27.99-27.199C55.765 12.77 43.236.594 27.998.81 12.752.594.224 12.769 0 28.007.223 43.245 12.752 55.42 27.998 55.206z" fill="#fff"/><path d="M40.044 48.271c-9.504 5.334-19.818 6.283-26.408 3.09a28.72 28.72 0 0028.362.205 27.041 27.041 0 0014-23.96c-.447 7.131-6.45 15.331-15.954 20.665zM31.545 2.8c1.927 3.24-2.727 9.365-10.407 13.665-7.679 4.31-15.46 5.166-17.387 1.918a3.293 3.293 0 01-.214-.494 6.55 6.55 0 011.536-5.52 27.587 27.587 0 018.917-7.921 28.521 28.521 0 0110.313-3.416c.41-.056.81-.102 1.201-.13a7.037 7.037 0 015.687 1.461c.14.14.252.289.354.438z" fill="#291F2F"/><path d="M43.45 6.31c3.37 5.659-3.425 15.59-15.162 22.172C16.55 35.062 4.3 35.817.94 30.157a6.714 6.714 0 01-.92-3.127 26.371 26.371 0 002.094 11.346c.233.55.493 1.09.763 1.63l.038.064a10.661 10.661 0 004.384 4.012c6.59 3.426 17.722 2.253 28.138-3.593 10.398-5.836 17.016-14.614 17.267-21.865a10.292 10.292 0 00-1.378-5.678 23.223 23.223 0 00-1.191-1.61 27.735 27.735 0 00-8.955-7.335 6.994 6.994 0 012.272 2.309z" fill="#291F2F"/></svg>