<svg width="44" height="44" fill="none" xmlns="http://www.w3.org/2000/svg"><path d="M21.941 43.496c11.7.17 21.32-9.45 21.492-21.49C43.26 9.965 33.64.345 21.94.514 10.234.345.614 9.965.442 22.005c.172 12.04 9.792 21.66 21.5 21.491z" fill="#FFC800"/><path d="M31.191 38.017c-7.297 4.214-15.216 4.964-20.276 2.442a21.512 21.512 0 0021.777.162c6.697-3.796 10.828-11.07 10.75-18.932-.344 5.634-4.954 12.114-12.25 16.328zM24.666 2.089c1.479 2.56-2.095 7.399-7.991 10.797C10.779 16.29 4.804 16.968 3.324 14.4a2.644 2.644 0 01-.164-.39 5.28 5.28 0 011.179-4.36 21.354 21.354 0 016.847-6.259 21.477 21.477 0 017.919-2.7c.314-.044.622-.08.922-.102a5.292 5.292 0 014.367 1.154 2.4 2.4 0 01.272.346z" fill="#000"/><path d="M33.806 4.862c2.587 4.471-2.63 12.319-11.643 17.519-9.012 5.2-18.418 5.795-20.998 1.324a5.419 5.419 0 01-.708-2.472A21.37 21.37 0 002.065 30.2c.179.434.38.86.586 1.287l.029.052a8.279 8.279 0 003.366 3.17c5.06 2.706 13.608 1.78 21.606-2.84 7.984-4.611 13.065-11.547 13.258-17.276a8.32 8.32 0 00-1.058-4.486 18.32 18.32 0 00-.914-1.273 21.438 21.438 0 00-6.876-5.795 5.454 5.454 0 011.744 1.824z" fill="#000"/></svg>