<svg width="170" height="49" fill="none" xmlns="http://www.w3.org/2000/svg"><path d="M52.822 28.19c-1.06-4.331-4.813-10.581-16.356-10.581-2.406 0-8.77.67-9.914.67.099-.38 1.25-3.656 1.445-4.136-.763-.382-2.791-.763-5.678-.866-6.734-.19-14.91 2.696-20.009 6.448C1.73 21.456.674 24.15 0 25.785c5.292-2.792 13.083-5.675 19.066-6.254 4.038-.382 5.579.381 6.06.675.48.19-3.463 1.525-3.368 3.077 0 1.926 8.08-.19 13.374 0 9.151.29 13.178 3.462 14.624 7.985 1.826 5.583-1.446 10.967-5.484 12.988 5-1.25 10.388-8.465 8.56-16.065" fill="#A9A4AC"/><path d="M22.322 13.277c2.887.099 4.908.48 5.678.865-.194.48-1.346 3.752-1.445 4.137 1.144 0 7.505-.67 9.915-.67 11.543 0 15.295 6.25 16.355 10.581.265 1.168.393 2.361.381 3.558.672-3.172.672-7.02.29-9.152-.675-4.332-4.522-10.391-15.108-10.585-2.402 0-8.752.674-9.812.674.096-.38 1.251-3.657 1.346-4.137-.67-.381-2.402-1.06-5.289-1.144-6.83-.095-15.009 2.696-20.107 6.448a95.659 95.659 0 01-2.212 5.869c5.098-3.752 13.274-6.639 20.008-6.448" fill="#736979"/><path d="M53.305 15.778c-.961-3.462-4.713-9.041-12.988-9.236-2.407 0-8.466.48-9.812.58.095-.29 1.056-3.177 1.25-3.657-.579-.763-2.31-1.445-5.197-1.525-6.83-.191-14.91 2.886-20.008 6.734-.58 1.731-2.021 5.388-2.021 5.197 5.098-3.752 13.278-6.543 20.107-6.448 2.887.096 4.618.763 5.29 1.144-.096.48-1.251 3.752-1.347 4.138 1.06 0 7.41-.675 9.812-.675 10.586.194 14.433 6.254 15.108 10.586a20.55 20.55 0 01.191 4.423 29.561 29.561 0 00-.381-11.257" fill="#fff"/><path d="M53.095 14.242c-.763-3.177-4.427-8.95-12.702-8.95-2.788 0-7.985.381-9.533.58-.195.67-.382 1.143-.382 1.25 1.346-.1 7.406-.58 9.812-.58 8.275.195 12.027 5.774 12.988 9.236.195.866.29 1.636.48 2.502a26.936 26.936 0 00-.663-4.039zM31.741 3.465c.19-.48.286-.96.38-1.144-.674-.576-2.5-1.525-5.197-1.636C20.19.59 12.11 3.667 7.011 7.42c-.134.427-.295.845-.48 1.251 5.098-3.752 13.274-6.925 20.008-6.734 2.791.095 4.523.763 5.198 1.525M46.377 35.5c.961-.575 1.907-2.02 1.526-2.211a21.758 21.758 0 00-2.982-1.06c.29-.961-.961-1.526-3.463-2.403-.19-.965-1.731-2.02-2.982-1.06-1.731-.96-6.448-2.501-8.85-2.787-.195.38-.58 1.056-1.347 1.144-3.657.58-7.314-1.526-12.893-1.347-4.331.195-9.045 4.714-8.274 10.197.58.195 1.25.763.96 1.446-.29.682-.762 1.346-1.44 2.982-.577 1.635-1.442 5.193.38 7.695h4.908c.096-.381.096-1.731-.484-1.827a1.334 1.334 0 01-.866-1.445c.195-.763.866-1.346 2.311-2.017-.29-1.06-.96-2.216-1.06-2.597.58-.1 3.657 5.674 4.042 6.349a4.383 4.383 0 001.732 1.525h5.388c0-.575-.096-1.826-.675-2.02-.763-.191-1.636-.096-1.827-.962-.19-.865.381-1.906.576-3.271 1.144-.382 2.887-.287 3.562-.382-.58 1.827-.382 4.328-.29 5.194.095.286.865 1.056 1.906 1.441h5.389c0-.48-.195-1.906-.763-1.906-1.35-.1-2.116-.675-2.116-1.251.095-.675.865-1.445 2.017-2.502.484-.38 1.83-2.211 2.406-1.925-.671.48-1.056 1.445-1.441 2.116.575 1.731 3.172 4.523 4.808 5.484h5.388c-.095-.576-.48-1.907-1.441-2.021-1.346-.286-2.021-.48-2.502-1.144-.38-.675-.674-2.887-1.144-4.138-.865-1.83-.96-2.597-.095-3.077.247.584.57 1.133.961 1.632 1.445-.19 4.523-1.144 4.908-2.017.96.095 1.906.095 2.402-.1.1 0 .866-.96.675-1.143-.095-.1-.29-.1-.576-.1.435-.11.854-.271 1.251-.48" fill="#291F2F"/><path d="M43.875 33.098c-.29 0-1.251.671-1.526.671-.29-.29-1.144-1.525 1.526-1.25.381 0 .095-.382-.195-.576a19.24 19.24 0 00-2.982-1.06c-.29-1.144-1.636-1.636-2.02-.286a27.774 27.774 0 00-7.406-2.601c-.29.194-.382 1.144-2.021 1.445-2.021.382-6.064-.865-10.678-1.445-4.614-.58-8.27 1.735-8.751 5.964 1.056-.19 3.268-.286 4.713 1.636 4.424 5.583 3.558 7.604 4.328 8.008.866-1.926 2.212-6.254.866-8.855.48-.19 1.25.48 2.02 1.144a4.958 4.958 0 003.559 1.446c.484-1.83 2.6-3.657 3.176-3.562a17.431 17.431 0 00-2.31 5.293c-.866 2.692-.577 5.77 0 5.868a14.681 14.681 0 011.925-4.713c2.116-3.367 6.159-6.258 9.152-5.583a2.99 2.99 0 00-1.731 1.446 3.813 3.813 0 012.211 1.346c1.06-.965 3.078-.763 4.428-1.346a.842.842 0 01.762-.965c.866-.095 2.021.29 2.792-.095.29-.191.96-.961.96-1.442-.285-.194-1.525-.48-2.787-.48" fill="#fff"/><path d="M75.582 8.155h-7.72v2.05h6.145c0 2.268-.225 3.851-.9 3.851H67.89v2.07h7.719v4.318H62.186V4.07h13.396v4.085zm10.435.233a19.044 19.044 0 01-1.8 7.486h3.851V8.388h-2.05zm4.498 14.521v-2.492h-8.402v2.492H77.12v-7.035c.386-.04.769-.116 1.142-.225 1.134-.46 2.042-1.8 2.492-3.86.598-2.53.9-5.12.9-7.719h12.028v12.055h2.042v6.811l-5.209-.027zm18.883-2.492v-8.403s-3.599 4.768-4.31 6.127c-.458.9-1.367 2.276-2.95 2.276h-4.085V4.07h5.218v9.761s4.768-7.035 5.902-8.618a3.064 3.064 0 012.267-1.143h3.401v16.347h-5.443zm13.848-10.67h5.218V4.079h5.676v16.338h-5.901V14.29h-4.993v6.127h-5.677V4.079h5.677v5.668zm19.746 3.86h3.401l-1.584-5.902-1.817 5.902zm11.578 6.81h-6.135l-1.134-3.392h-4.993l-.899 3.41h-6.352l5.902-16.347h7.485l6.126 16.329z" fill="#291F2F"/><path d="M162.965 7.48a2.195 2.195 0 00-1.592.45 1.249 1.249 0 00-.675 1.133 1.376 1.376 0 00.675 1.368 4.294 4.294 0 001.592.45h1.593V7.48h-1.593zm1.359 12.937v-6.36c-.675 0-1.584.233-1.8.899-.216.666-1.367 3.176-1.592 4.084-.45 1.143-.684 1.368-1.359 1.368h-5.496l1.592-3.599a9.341 9.341 0 012.267-3.4 6.012 6.012 0 011.593-.9 5.398 5.398 0 01-2.699-.9 3.68 3.68 0 01-1.593-3.176 3.835 3.835 0 011.368-2.95 7.132 7.132 0 014.498-1.368h8.852v16.347l-5.631-.045zm-18.608 24.057v-9.528s-3.859 5.668-4.768 7.036c-1.134 1.799-1.799 2.492-3.41 2.492h-4.309V26.768h5.902v7.27l-.225 2.699s5.443-7.036 6.351-8.62a2.701 2.701 0 012.699-1.367h3.599l-.18 17.724h-5.659zm16.565-14.071a4.209 4.209 0 00-1.583.45 1.625 1.625 0 00-.684 1.367 1.876 1.876 0 00.459 1.358 3.33 3.33 0 002.042.46h1.584v-3.599l-1.818-.036zm1.593 14.07v-6.81a2.478 2.478 0 00-2.043.9c-.224.684-1.358 3.41-1.799 4.543-.441 1.134-.684 1.359-1.358 1.359h-5.902l1.799-3.86a7.323 7.323 0 012.267-3.598 6.417 6.417 0 011.8-1.143 6.863 6.863 0 01-2.951-.9 3.184 3.184 0 01-1.593-3.41 4.167 4.167 0 011.359-3.4 7.924 7.924 0 014.768-1.368H170v17.706l-6.126-.018zm-95.561-9.302h1.592a1.997 1.997 0 002.042-2.042c0-.9-.225-2.276-2.042-2.276h-1.592v4.318zm1.142-8.402c1.8 0 4.76 0 6.352 1.592a5.587 5.587 0 012.042 4.768 6.206 6.206 0 01-6.352 6.352h-3.184v4.993h-6.127V26.769h7.27zm18.838 4.309c-2.7 0-2.951 2.96-2.951 4.543 0 1.583.225 4.318 2.95 4.318 2.493 0 2.952-2.5 2.952-4.093-.234-3.176-1.593-4.768-2.951-4.768zm6.81-1.8a9.762 9.762 0 012.492 6.352c0 4.318-2.492 9.077-9.536 9.077a9.896 9.896 0 01-6.352-2.042 9.744 9.744 0 01-2.699-7.035c-.224-5.443 3.41-9.078 9.312-9.078 2.699 0 5.218.684 7.035 2.7l-.252.026zm18.842 2.717a13.948 13.948 0 00-3.598-.459c-2.951 0-4.769 1.8-4.769 4.085s1.134 4.084 4.544 4.084c1.799 0 3.4-.224 3.859-.224l.675 4.768a40.53 40.53 0 01-5.902.45c-5.668 0-9.986-3.401-9.986-9.078.225-5.668 3.599-9.078 10.211-9.078a18.798 18.798 0 015.902.684l-.936 4.768zm16.558 0a14.392 14.392 0 00-3.859-.459c-2.951 0-4.768 1.8-4.768 4.085s1.142 4.084 4.768 4.084c1.592 0 3.185-.224 3.859-.224l.459 4.768c-1.878.29-3.776.44-5.677.45-5.901 0-9.986-3.401-9.986-9.078s3.599-9.078 9.986-9.078a20.445 20.445 0 016.127.684l-.909 4.768z" fill="#291F2F"/></svg>