<svg width="26" height="28" fill="none" xmlns="http://www.w3.org/2000/svg"><path d="M.633.432C.305.767.116 1.288.116 1.963v24.075c0 .675.19 1.196.517 1.53l.081.074 13.837-13.485v-.318L.714.353l-.08.08z" fill="#A9A4AC"/><path d="M19.15 18.654l-4.607-4.497v-.318l4.613-4.498.103.059 5.463 3.03c1.559.86 1.559 2.275 0 3.14l-5.463 3.026-.109.058z" fill="#F8F7F9"/><path d="M19.26 18.596l-4.715-4.598L.627 27.568c.518.531 1.363.595 2.323.064l16.31-9.036z" fill="#736979"/><path d="M19.26 9.4L2.95.363C1.99-.162 1.145-.1.627.433l13.918 13.565L19.26 9.4z" fill="#EBE8EE"/></svg>