<svg width="141" height="40" fill="none" xmlns="http://www.w3.org/2000/svg"><path d="M68.793 24.393c-2.916 0-5.298 2.164-5.298 5.149 0 2.96 2.382 5.147 5.298 5.147 2.922 0 5.303-2.187 5.303-5.147 0-2.985-2.381-5.149-5.303-5.149zm0 8.268c-1.6 0-2.976-1.287-2.976-3.12 0-1.856 1.376-3.12 2.976-3.12s2.982 1.264 2.982 3.12c0 1.833-1.382 3.12-2.982 3.12zm-11.559-8.268c-2.922 0-5.297 2.164-5.297 5.149 0 2.96 2.375 5.147 5.297 5.147 2.92 0 5.298-2.187 5.298-5.147 0-2.985-2.377-5.149-5.298-5.149zm0 8.268c-1.601 0-2.982-1.287-2.982-3.12 0-1.856 1.38-3.12 2.982-3.12 1.6 0 2.976 1.264 2.976 3.12 0 1.833-1.376 3.12-2.976 3.12zm-13.754-6.69v2.188h5.358c-.157 1.222-.576 2.121-1.218 2.747-.782.757-2 1.596-4.14 1.596-3.297 0-5.88-2.594-5.88-5.81 0-3.214 2.583-5.809 5.88-5.809 1.783 0 3.08.68 4.038 1.56l1.58-1.542c-1.338-1.246-3.12-2.204-5.618-2.204-4.522 0-8.322 3.587-8.322 7.996 0 4.409 3.8 7.996 8.322 7.996 2.444 0 4.28-.781 5.723-2.245 1.478-1.442 1.94-3.47 1.94-5.107 0-.508-.044-.975-.122-1.366H43.48zm56.243 1.696c-.436-1.151-1.782-3.274-4.522-3.274-2.715 0-4.976 2.087-4.976 5.149 0 2.883 2.237 5.147 5.237 5.147a5.265 5.265 0 004.4-2.282l-1.8-1.17c-.6.857-1.418 1.424-2.6 1.424-1.175 0-2.017-.525-2.557-1.56l7.061-2.848-.243-.586zm-7.2 1.714a2.857 2.857 0 012.757-3.001c.922 0 1.704.45 1.965 1.092l-4.722 1.91zm-5.74 4.994h2.322V19.246h-2.322v15.13zm-3.802-8.835h-.077c-.521-.602-1.516-1.147-2.776-1.147-2.644 0-5.062 2.264-5.062 5.165 0 2.886 2.418 5.13 5.062 5.13 1.26 0 2.255-.549 2.776-1.169h.078v.738c0 1.969-1.079 3.026-2.818 3.026-1.419 0-2.298-.998-2.662-1.838l-2.018.822c.582 1.364 2.122 3.043 4.68 3.043 2.721 0 5.018-1.56 5.018-5.36v-9.244h-2.2v.834zm-2.654 7.121c-1.6 0-2.94-1.305-2.94-3.103 0-1.814 1.34-3.137 2.94-3.137 1.576 0 2.819 1.323 2.819 3.137 0 1.798-1.243 3.103-2.82 3.103zm30.264-13.415h-5.552v15.13h2.315v-5.733h3.237c2.571 0 5.093-1.814 5.093-4.699 0-2.884-2.528-4.698-5.093-4.698zm.06 7.293h-3.297V21.35h3.297c1.729 0 2.716 1.4 2.716 2.593 0 1.171-.987 2.595-2.716 2.595zm14.312-2.174c-1.673 0-3.412.72-4.128 2.316l2.055.84c.442-.84 1.255-1.113 2.115-1.113 1.201 0 2.419.704 2.437 1.946v.159c-.419-.236-1.316-.586-2.419-.586-2.212 0-4.467 1.188-4.467 3.404 0 2.028 1.812 3.333 3.85 3.333 1.558 0 2.417-.685 2.957-1.482h.079v1.17h2.236v-5.804c0-2.683-2.054-4.183-4.715-4.183zm-.28 8.29c-.757 0-1.812-.366-1.812-1.281 0-1.171 1.316-1.62 2.455-1.62 1.019 0 1.497.219 2.116.508-.181 1.4-1.418 2.393-2.759 2.393zm13.142-7.96l-2.661 6.56h-.08l-2.751-6.56h-2.496l4.133 9.166-2.358 5.1h2.419l6.37-14.265h-2.576zm-20.869 9.68h2.321V19.246h-2.321v15.13z" fill="#291F2F"/><path d="M.976 5.08C.611 5.452.4 6.03.4 6.782v26.766c0 .75.211 1.33.576 1.702l.09.082L16.45 20.339v-.354L1.066 4.992l-.09.088z" fill="#A9A4AC"/><path d="M21.571 25.34l-5.122-5.001v-.354l5.129-5 .114.065 6.074 3.37c1.733.955 1.733 2.529 0 3.49l-6.074 3.364-.12.065z" fill="#F8F7F9"/><path d="M21.692 25.274l-5.243-5.112L.975 35.25c.576.59 1.515.661 2.582.071l18.135-10.047z" fill="#736979"/><path d="M21.692 15.05L3.557 5.003C2.49 4.419 1.551 4.49.975 5.08L16.45 20.162l5.243-5.112z" fill="#EBE8EE"/><path d="M37.193 15.13v-2.455c.316 0 .572-.08.768-.24.2-.16.355-.376.468-.648.111-.276.195-.586.252-.93.06-.343.108-.7.144-1.068.051-.52.093-1.024.125-1.512.036-.488.069-.994.096-1.518.029-.524.06-1.096.096-1.716l5.43.006v7.626h.63v2.454h-1.067v-1.44H38.26v1.44h-1.069zm1.872-2.455h4.44V6.063l-3.373-.006c-.023.464-.047.91-.072 1.338a47.994 47.994 0 01-.198 2.659c-.044.447-.093.835-.15 1.163a3.639 3.639 0 01-.228.84c-.1.232-.24.438-.42.618zm10.214 1.194c-.644 0-1.2-.146-1.668-.438a2.902 2.902 0 01-1.074-1.211c-.252-.517-.378-1.109-.378-1.777 0-.68.128-1.276.384-1.788s.618-.91 1.086-1.194c.468-.288 1.018-.432 1.65-.432.648 0 1.206.146 1.674.438.468.288.826.69 1.074 1.206.252.512.378 1.102.378 1.77 0 .677-.126 1.273-.378 1.789a2.897 2.897 0 01-1.08 1.206c-.468.287-1.024.431-1.668.431zm0-1.014c.672 0 1.172-.223 1.5-.671.328-.448.492-1.028.492-1.74 0-.733-.166-1.315-.498-1.747-.332-.436-.83-.654-1.494-.654-.452 0-.824.102-1.116.306-.292.204-.51.486-.654.846-.144.36-.216.776-.216 1.248 0 .729.168 1.313.504 1.752.336.44.83.66 1.482.66zm7.177 1.014c-.656 0-1.214-.146-1.674-.438a2.85 2.85 0 01-1.044-1.217c-.24-.517-.364-1.104-.372-1.764.008-.677.134-1.27.378-1.783a2.836 2.836 0 011.062-1.206c.46-.288 1.014-.432 1.662-.432.684 0 1.272.168 1.764.504.496.336.828.796.996 1.38l-1.056.318a1.736 1.736 0 00-.666-.876 1.815 1.815 0 00-1.05-.312c-.444 0-.81.104-1.098.312a1.808 1.808 0 00-.642.852c-.14.36-.212.774-.216 1.242.008.72.174 1.303.498 1.746.328.44.814.66 1.458.66.424 0 .776-.096 1.056-.287.28-.197.492-.479.636-.846l1.08.282c-.224.604-.574 1.066-1.05 1.386-.476.32-1.05.48-1.722.48zm5.595-.18V8.181h-2.256V7.21h5.58v.972H63.12v5.509h-1.068zm5.243 2.88l1.254-3.407.018 1.007-2.832-6.96h1.122l2.22 5.598h-.384l2.082-5.598h1.086l-3.528 9.36h-1.038zm5.55-2.88V7.21h5.31v6.48h-1.067V8.224h-3.174v5.466h-1.068zm6.985 0V7.21h1.068v2.73h3.408V7.21h1.068v6.48h-1.068v-2.736h-3.408v2.737H79.83zm9.985.18c-.644 0-1.2-.146-1.668-.438a2.902 2.902 0 01-1.074-1.211c-.252-.517-.378-1.109-.378-1.777 0-.68.128-1.276.384-1.788s.618-.91 1.086-1.194c.468-.288 1.018-.432 1.65-.432.648 0 1.206.146 1.674.438.468.288.826.69 1.074 1.206.252.512.378 1.102.378 1.77 0 .677-.126 1.273-.378 1.789a2.897 2.897 0 01-1.08 1.206c-.468.287-1.024.431-1.668.431zm0-1.014c.672 0 1.172-.223 1.5-.671.328-.448.492-1.028.492-1.74 0-.733-.166-1.315-.498-1.747-.332-.436-.83-.654-1.494-.654-.452 0-.824.102-1.116.306-.292.204-.51.486-.654.846-.144.36-.216.776-.216 1.248 0 .729.168 1.313.504 1.752.336.44.83.66 1.482.66zm6.843.835V7.21h2.76c.164 0 .34.01.528.03.192.015.366.045.522.09.348.091.634.281.858.57.228.283.342.643.342 1.08 0 .243-.038.455-.114.635-.072.18-.176.336-.312.469a1.295 1.295 0 01-.414.276c.14.024.282.078.426.162.228.123.406.297.534.521.132.225.198.51.198.859 0 .44-.106.804-.318 1.091a1.62 1.62 0 01-.876.588 2.767 2.767 0 01-.516.09 8.57 8.57 0 01-.546.019h-3.072zm1.08-.87h1.932a2.884 2.884 0 00.618-.084.716.716 0 00.45-.337c.096-.163.144-.341.144-.533 0-.256-.072-.464-.216-.624a.924.924 0 00-.558-.3 1.172 1.172 0 00-.276-.043 6.261 6.261 0 00-.258-.005h-1.836v1.925zm0-2.809h1.608c.112 0 .23-.005.354-.018a1.37 1.37 0 00.324-.078.72.72 0 00.402-.336c.088-.16.132-.334.132-.522 0-.208-.048-.39-.144-.546a.716.716 0 00-.426-.33 1.318 1.318 0 00-.432-.078 7.872 7.872 0 00-.3-.012h-1.518v1.92z" fill="#291F2F"/></svg>