<svg width="28" height="28" fill="none" xmlns="http://www.w3.org/2000/svg"><path fill-rule="evenodd" clip-rule="evenodd" d="M20.122 0H7.878C2.11 0 0 2.11 0 7.878v12.244C0 25.89 2.11 28 7.878 28h12.24C25.886 28 28 25.89 28 20.122V7.878C28 2.11 25.89 0 20.122 0z" fill="#291F2F"/><path d="M12.216 16.24h1.123l-.564-1.31-.56 1.31zm-.277.66l-.333.763h-.758l1.613-3.659h.655l1.606 3.659h-.778l-.33-.762H11.94zm12.203.76h.733v-3.656h-.733v3.656zm-2.917-1.57h1.35v-.667h-1.35v-.75h1.961v-.667h-2.694v3.656h2.765v-.666h-2.032v-.907zm-2.912.431l-.831-2.517h-.606l-.831 2.517-.81-2.515h-.79l1.276 3.658h.615l.832-2.403.832 2.403h.62l1.273-3.658h-.77l-.81 2.515zM9.729 16.1c0 .596-.296.913-.832.913-.54 0-.837-.326-.837-.938v-2.068h-.743V16.1c0 1.03.572 1.62 1.57 1.62 1.007 0 1.585-.601 1.585-1.65v-2.065h-.743V16.1zm-4.184-2.095h.742v3.66h-.742v-1.486H3.868v1.487h-.743v-3.661h.743v1.477h1.677v-1.477zM14 9.342a4.666 4.666 0 01-4.66-4.661h.658A4.007 4.007 0 0014 8.683a4.007 4.007 0 004.003-4.002h.658c0 2.57-2.09 4.66-4.66 4.66z" fill="#fff"/></svg>