<svg width="250" height="208" fill="none" xmlns="http://www.w3.org/2000/svg"><path d="M5 90.102l24.712-14.416a70.032 70.032 0 0170.575 0L125 90.102l24.713 14.416a70.03 70.03 0 0070.574 0L245 90.102" stroke="#C1C1C1" stroke-opacity=".1" stroke-width="9.796" stroke-linecap="round" stroke-linejoin="round"/><path d="M5 62.551l24.712-14.416a70.032 70.032 0 0170.575 0L125 62.551l24.713 14.416a70.031 70.031 0 0070.574 0L245 62.55" stroke="#C1C1C1" stroke-opacity=".1" stroke-width="9.796" stroke-linecap="round" stroke-linejoin="round"/><path d="M5 35l24.712-14.416a70.032 70.032 0 0170.575 0L125 35l24.713 14.416a70.03 70.03 0 0070.574 0L245 35M5 117.653l24.712-14.416a70.034 70.034 0 0170.575 0L125 117.653l24.713 14.416a70.03 70.03 0 0070.574 0L245 117.653" stroke="#C1C1C1" stroke-opacity=".1" stroke-width="9.796" stroke-linecap="round" stroke-linejoin="round"/><path d="M5 145.204l24.712-14.416a70.036 70.036 0 0170.575 0L125 145.204l24.713 14.416a70.03 70.03 0 0070.574 0L245 145.204" stroke="#C1C1C1" stroke-opacity=".1" stroke-width="9.796" stroke-linecap="round" stroke-linejoin="round"/><path d="M5 172.755l24.712-14.416a70.036 70.036 0 0170.575 0L125 172.755l24.713 14.416a70.03 70.03 0 0070.574 0L245 172.755" stroke="#C1C1C1" stroke-opacity=".1" stroke-width="9.796" stroke-linecap="round" stroke-linejoin="round"/></svg>