<svg width="44" height="44" fill="none" xmlns="http://www.w3.org/2000/svg"><g clip-path="url(#clip0_61_3488)"><mask id="mask0_61_3488" style="mask-type:luminance" maskUnits="userSpaceOnUse" x="0" y="0" width="44" height="44"><path d="M43.44.914h-43v43h43v-43z" fill="#fff"/></mask><g mask="url(#mask0_61_3488)"><path d="M43.44.914h-43v43h43v-43z" fill="#FF0032"/><path d="M29.086 4.221V6.2h4.328v7.942h2.418V6.2h4.319V4.22H29.086zm-15.557 0l-3.167 6.561-3.157-6.561H3.748v9.921h2.428V7.044l3.087 5.999h2.207l3.088-5.999v7.098h2.418V4.221H13.53zM37.732 37.3c-.062.396-.22.721-.475.967-.238.23-.563.396-.968.493-.396.088-.985.14-1.6.14-.642 0-1.205-.078-1.69-.246a2.073 2.073 0 01-1.09-.826c-.264-.387-.396-.95-.396-1.68v-1.012c0-.72.132-1.284.396-1.68A2.108 2.108 0 0133 32.63c.476-.167 1.047-.247 1.69-.247.615 0 1.204.053 1.6.141.405.097.73.255.968.493.255.246.413.571.475.967h2.418c-.07-.818-.343-1.513-.826-2.076-.44-.51-1.056-.879-1.821-1.108-.739-.22-1.715-.334-2.815-.334-1.16 0-2.163.167-2.99.493a3.838 3.838 0 00-1.935 1.653c-.43.73-.65 1.715-.668 2.911v.115l.132.009-.132.008v.115c.017 1.196.237 2.18.668 2.91.449.766 1.1 1.32 1.935 1.654.827.326 1.83.493 2.99.493 1.1 0 2.076-.114 2.815-.334.765-.229 1.372-.598 1.82-1.108.484-.555.766-1.258.827-2.076h-2.418v-.01z" fill="#fff"/></g></g><defs><clipPath id="clip0_61_3488"><path fill="#fff" transform="translate(.442 .914)" d="M0 0h43v43H0z"/></clipPath></defs></svg>