<svg width="42" height="43" fill="none" xmlns="http://www.w3.org/2000/svg"><g clip-path="url(#clip0_113_10886)"><mask id="mask0_113_10886" style="mask-type:luminance" maskUnits="userSpaceOnUse" x="0" y="0" width="43" height="43"><path d="M42.002.392h-42v42h42v-42z" fill="#fff"/></mask><g mask="url(#mask0_113_10886)"><path d="M42.002.392h-42v42h42v-42z" fill="#291F2F"/><path d="M27.982 3.622v1.933h4.227v7.757h2.362V5.555h4.218V3.622H27.982zm-15.197 0L9.693 10.03 6.609 3.622H3.232v9.69h2.371V6.379l3.016 5.86h2.156l3.015-5.86v6.933h2.363v-9.69h-3.368zm23.641 32.309c-.06.387-.215.705-.464.945-.232.224-.55.387-.945.481-.386.086-.962.138-1.563.138-.627 0-1.177-.078-1.65-.24a2.025 2.025 0 01-1.065-.808c-.258-.378-.386-.928-.386-1.641v-.988c0-.704.128-1.254.386-1.64.258-.379.61-.654 1.066-.808.463-.164 1.022-.24 1.649-.24.601 0 1.177.05 1.563.137.395.094.713.249.945.48.25.241.404.559.464.946h2.363c-.07-.8-.335-1.478-.808-2.028-.43-.498-1.03-.859-1.778-1.082-.722-.215-1.675-.327-2.75-.327-1.133 0-2.112.164-2.92.481a3.75 3.75 0 00-1.89 1.616c-.42.712-.636 1.675-.653 2.843v.112l.13.008-.13.009v.112c.017 1.168.232 2.13.653 2.843a3.75 3.75 0 001.89 1.615c.808.318 1.787.481 2.92.481 1.075 0 2.028-.111 2.75-.326.747-.224 1.34-.584 1.778-1.083.473-.54.747-1.228.808-2.027h-2.363v-.009z" fill="#fff"/></g></g><defs><clipPath id="clip0_113_10886"><path fill="#fff" transform="translate(0 .391)" d="M0 0h42v42H0z"/></clipPath></defs></svg>