<svg width="144" height="48" fill="none" xmlns="http://www.w3.org/2000/svg"><path d="M24.711 12.598c.116-.185-.023-.44-.254-.44h-4.788a.288.288 0 00-.254.44l2.382 4.14a.303.303 0 00.509 0l2.405-4.14zm-5.065 23.22c-.116.185.023.44.255.44h4.787c.231 0 .37-.232.254-.44l-2.405-4.14a.303.303 0 00-.509 0l-2.405 4.14h.023zm8.627-18.456c.23 0 .37-.231.254-.44l-2.405-4.14a.303.303 0 00-.51 0l-2.404 4.14c-.116.186.023.44.254.44h4.811zm-2.66 5.435a.303.303 0 00.509 0l2.405-4.14c.115-.185-.023-.44-.255-.44h-4.787a.288.288 0 00-.255.44l2.406 4.14h-.023zm6.267.833c.232 0 .37-.232.255-.44l-2.405-4.14a.303.303 0 00-.51 0l-2.404 4.14c-.116.185.023.44.254.44h4.811zm-2.636 5.435a.303.303 0 00.509 0l2.405-4.14c.116-.185-.023-.44-.254-.44h-4.788a.288.288 0 00-.254.44l2.405 4.14h-.023zm-6.014.416c-.115.185.024.44.255.44h4.788c.23 0 .37-.232.254-.44l-2.405-4.14a.303.303 0 00-.51 0l-2.405 4.14h.023zm2.383 5.852a.303.303 0 00.509 0l2.405-4.14c.115-.185-.023-.44-.255-.44h-4.787a.288.288 0 00-.255.44l2.406 4.14h-.023z" fill="#736979"/><path d="M15.205 12.343c.116-.185-.023-.44-.254-.44h-4.788a.288.288 0 00-.254.44l2.382 4.14a.303.303 0 00.509 0l2.405-4.14zM9.793 35.795c-.116.185.023.44.254.44h4.788c.231 0 .37-.231.254-.44l-2.405-4.14a.303.303 0 00-.509 0l-2.405 4.14h.023zm8.905-18.456c.23 0 .37-.231.254-.44l-2.405-4.14a.303.303 0 00-.51 0l-2.405 4.14c-.115.186.024.44.255.44h4.811zm-2.66 5.412a.303.303 0 00.509 0l2.405-4.14c.116-.185-.023-.44-.254-.44H13.91a.288.288 0 00-.254.44l2.405 4.14h-.023zm6.267.856c.232 0 .37-.232.255-.44l-2.406-4.14a.303.303 0 00-.508 0l-2.406 4.14c-.115.185.023.44.255.44h4.81zm-2.636 5.412a.303.303 0 00.509 0l2.405-4.14c.116-.185-.023-.44-.254-.44H17.54a.288.288 0 00-.254.44l2.405 4.14h-.023zm-6.013.416c-.116.185.023.44.254.44h4.788c.231 0 .37-.232.254-.44l-2.405-4.14a.303.303 0 00-.509 0l-2.405 4.14h.023zm2.382 5.851a.303.303 0 00.509 0l2.405-4.14c.116-.185-.023-.439-.254-.439H13.91a.288.288 0 00-.254.44l2.405 4.14h-.023z" fill="#291F2F"/><path d="M6 12.181c.116-.185-.023-.44-.254-.44H.958a.288.288 0 00-.254.44l2.382 4.14a.303.303 0 00.509 0L6 12.181zM.241 35.633c-.115.185.023.44.255.44h4.787a.29.29 0 00.255-.44l-2.406-4.14a.303.303 0 00-.509 0l-2.405 4.14h.023zm9.391-18.456c.23 0 .37-.231.254-.44l-2.405-4.14a.303.303 0 00-.51 0l-2.405 4.14c-.115.186.024.44.255.44h4.811zM6.486 22.59a.303.303 0 00.509 0L9.4 18.45c.116-.186-.023-.44-.254-.44H4.358a.288.288 0 00-.254.44l2.405 4.14h-.023zm6.268.855c.23 0 .37-.231.254-.44l-2.405-4.14a.303.303 0 00-.51 0l-2.404 4.14c-.116.186.023.44.254.44h4.811zm-2.637 5.412a.303.303 0 00.509 0l2.405-4.14c.116-.185-.023-.44-.254-.44H7.989a.288.288 0 00-.254.44l2.405 4.14h-.023zm-6.013.416c-.116.185.023.44.254.44h4.788c.23 0 .37-.232.254-.44l-2.405-4.14a.303.303 0 00-.51 0l-2.405 4.14h.024zm2.382 5.851a.303.303 0 00.509 0l2.405-4.14c.116-.184-.023-.439-.254-.439H4.358a.288.288 0 00-.254.44l2.405 4.14h-.023z" fill="#EBE8EE"/><path d="M44.707 20.962c-.592 0-1.108-.086-1.548-.258a3.316 3.316 0 01-1.086-.684 3.135 3.135 0 01-.648-.912l.948-.588c.096.252.244.486.444.702.204.216.464.39.78.522.32.132.704.198 1.152.198.456 0 .838-.07 1.146-.21.308-.144.538-.338.69-.582.156-.248.234-.532.234-.852 0-.364-.09-.644-.27-.84-.18-.2-.422-.34-.726-.42a4.206 4.206 0 00-.996-.144 69.732 69.732 0 00-.864-.03h-.114v-1.02h.594c.128-.004.23-.008.306-.012.536-.028.962-.164 1.278-.408.316-.248.474-.588.474-1.02 0-.448-.162-.798-.486-1.05-.32-.252-.738-.378-1.254-.378-.488 0-.904.114-1.248.342-.34.228-.612.522-.816.882l-.822-.702c.28-.444.668-.81 1.164-1.098.5-.292 1.084-.438 1.752-.438.368 0 .722.05 1.062.15.344.096.648.244.912.444.268.196.48.446.636.75.156.3.234.656.234 1.068 0 .444-.094.838-.282 1.182-.188.344-.434.61-.738.798.42.14.748.372.984.696.236.324.354.744.354 1.26 0 .54-.138 1.008-.414 1.404-.272.396-.652.704-1.14.924-.488.216-1.052.324-1.692.324zm6.351 0c-.484 0-.89-.088-1.218-.264a1.88 1.88 0 01-.738-.708 1.927 1.927 0 01-.246-.96c0-.34.064-.634.192-.882.132-.252.316-.46.552-.624.236-.168.518-.3.846-.396a9.676 9.676 0 011.032-.216 35.38 35.38 0 011.164-.174c.392-.052.758-.102 1.098-.15l-.384.222c.012-.576-.104-1.002-.348-1.278-.24-.276-.656-.414-1.248-.414-.392 0-.736.09-1.032.27-.292.176-.498.464-.618.864l-1.014-.306c.156-.568.458-1.014.906-1.338.448-.324 1.038-.486 1.77-.486.588 0 1.092.106 1.512.318.424.208.728.524.912.948.092.2.15.418.174.654.024.232.036.476.036.732v4.008h-.948v-1.554l.222.144c-.244.524-.586.92-1.026 1.188-.436.268-.968.402-1.596.402zm.162-.894c.384 0 .716-.068.996-.204.284-.14.512-.322.684-.546.172-.228.284-.476.336-.744.06-.2.092-.422.096-.666.008-.248.012-.438.012-.57l.372.162c-.348.048-.69.094-1.026.138-.336.044-.654.092-.954.144-.3.048-.57.106-.81.174a2.639 2.639 0 00-.498.216 1.131 1.131 0 00-.372.342.89.89 0 00-.138.51c0 .176.044.344.132.504.092.16.232.29.42.39.192.1.442.15.75.15zm4.746.714v-6.48h4.5v1.014h-3.432v5.466h-1.068zm8.613.18c-.608 0-1.12-.15-1.536-.45a2.846 2.846 0 01-.948-1.23 4.587 4.587 0 01-.318-1.746c0-.652.106-1.236.318-1.752.216-.516.532-.922.948-1.218.42-.296.934-.444 1.542-.444.6 0 1.116.15 1.548.45.436.296.77.702 1.002 1.218.232.516.348 1.098.348 1.746 0 .648-.116 1.23-.348 1.746a2.927 2.927 0 01-1.002 1.23c-.432.3-.95.45-1.554.45zm-2.982 2.7v-9.36h.954v4.77h.12v4.59h-1.074zm2.85-3.678c.428 0 .782-.108 1.062-.324.28-.216.49-.508.63-.876.14-.372.21-.788.21-1.248 0-.456-.07-.868-.21-1.236a1.879 1.879 0 00-.636-.876c-.284-.216-.646-.324-1.086-.324-.42 0-.768.104-1.044.312-.276.204-.482.49-.618.858a3.607 3.607 0 00-.204 1.266c0 .472.066.894.198 1.266.136.368.344.658.624.87.28.208.638.312 1.074.312zm5.017 3.678l1.254-3.408.018 1.008-2.832-6.96h1.122l2.22 5.598h-.384l2.082-5.598h1.086l-3.528 9.36h-1.038zm7.879-2.7c-.64 0-1.206-.138-1.698-.414a3.094 3.094 0 01-1.164-1.152l.852-.552c.236.356.518.63.846.822.328.188.702.282 1.122.282.44 0 .79-.1 1.05-.3a.99.99 0 00.39-.822c0-.256-.064-.452-.192-.588-.128-.136-.312-.23-.552-.282a4.104 4.104 0 00-.858-.078h-.672v-.882h.666c.42 0 .762-.068 1.026-.204.264-.136.396-.368.396-.696 0-.336-.124-.58-.372-.732a1.592 1.592 0 00-.876-.234c-.36 0-.704.076-1.032.228a2.95 2.95 0 00-.846.564l-.648-.726a3.515 3.515 0 011.158-.792c.44-.188.918-.282 1.434-.282.416 0 .796.074 1.14.222.348.144.624.358.828.642.208.28.312.622.312 1.026 0 .344-.08.65-.24.918-.16.268-.396.502-.708.702l-.042-.378c.264.064.482.182.654.354.176.168.306.368.39.6.084.232.126.474.126.726 0 .424-.112.788-.336 1.092-.22.3-.518.532-.894.696-.376.16-.796.24-1.26.24zm9.11-6.66v6.48h-1.031v-4.776l-3.396 4.776h-.882v-6.48h1.032v4.71l3.402-4.71h.876zm3.397 6.48v-5.508h-2.256v-.972h5.58v.972h-2.256v5.508H89.85zm4.46 0l-.006-6.48h1.074v2.346h1.398c.188 0 .38.004.576.012.196.008.366.026.51.054.336.064.63.176.882.336.252.16.448.378.588.654.14.272.21.61.21 1.014 0 .56-.146 1.004-.438 1.332-.288.324-.666.54-1.134.648-.16.036-.344.06-.552.072-.204.008-.398.012-.582.012H94.31zm1.068-.882h1.476c.12 0 .254-.004.402-.012.148-.008.28-.028.396-.06.204-.06.386-.178.546-.354.164-.176.246-.428.246-.756 0-.332-.08-.588-.24-.768a1.104 1.104 0 00-.618-.354 2.122 2.122 0 00-.366-.054 5.877 5.877 0 00-.366-.012h-1.476v2.37zm7.879.882v-6.48h2.76c.164 0 .34.01.528.03.192.016.366.046.522.09.348.092.634.282.858.57.228.284.342.644.342 1.08 0 .244-.038.456-.114.636-.072.18-.176.336-.312.468a1.295 1.295 0 01-.414.276c.14.024.282.078.426.162.228.124.406.298.534.522.132.224.198.51.198.858 0 .44-.106.804-.318 1.092a1.62 1.62 0 01-.876.588 2.767 2.767 0 01-.516.09c-.188.012-.37.018-.546.018h-3.072zm1.08-.87h1.932c.084 0 .184-.008.3-.024.12-.016.226-.036.318-.06a.716.716 0 00.45-.336c.096-.164.144-.342.144-.534 0-.256-.072-.464-.216-.624a.924.924 0 00-.558-.3 1.174 1.174 0 00-.276-.042 6.261 6.261 0 00-.258-.006h-1.836v1.926zm0-2.808h1.608c.112 0 .23-.006.354-.018.124-.016.232-.042.324-.078a.72.72 0 00.402-.336c.088-.16.132-.334.132-.522 0-.208-.048-.39-.144-.546a.716.716 0 00-.426-.33 1.318 1.318 0 00-.432-.078 7.872 7.872 0 00-.3-.012h-1.518v1.92zM50.123 39.983h.46v-11.99h-1.437v5.612l.153 3.429-7.796-9.022h-.498v11.952h1.417v-5.746l-.115-3.276 7.816 9.041zm11.071-2.969l1.398 2.95h1.475v-.191l-5.516-11.819H57.9l-5.575 11.819v.191h1.494l1.399-2.95h5.976zm-2.988-6.819l2.51 5.593h-5.02l2.51-5.593zm6.608 6.513c.077 2.452 2.586 3.524 4.808 3.467 2.165-.057 4.636-.977 4.636-3.544 0-2.643-2.222-3.084-4.597-3.352-1.456-.191-3.18-.249-3.18-2.03 0-1.57 1.647-2.126 2.95-2.165 1.36 0 2.969.48 3.103 1.992h1.34c-.076-2.317-2.413-3.333-4.481-3.275-2.108 0-4.349 1.11-4.349 3.467 0 2.394 2.184 2.95 4.349 3.18 1.628.23 3.428.249 3.428 2.183-.057 1.743-1.82 2.241-3.237 2.299-1.475 0-3.314-.613-3.41-2.222h-1.379.02zm20.994 3.256V28.012h-1.436v5.037H78.05v-5.037h-1.417v11.952h1.418v-5.612h6.32v5.612h1.437zm5.23-3.658h-2.95c-.077 5.267 9.673 5.133 9.673.096 0-2.989-2.318-3.295-4.693-3.563-1.073-.115-1.973-.307-1.896-1.207.095-1.418 3.314-1.552 3.314.038h2.911c.077-5.153-9.233-5.153-9.118 0 .039 2.605 1.743 3.486 4.348 3.678 1.188.077 2.184.21 2.184 1.034 0 1.399-3.735 1.437-3.735-.076h-.038zm10.707-5.574v9.232h3.027v-9.232h2.93v-2.74h-8.888v2.74h2.931zm19.385 3.256c0-8.275-12.278-8.275-12.278 0 0 8.294 12.278 8.294 12.278 0zm-9.118 0c0-4.31 5.996-4.31 5.996 0a3.009 3.009 0 01-5.996 0zm19.193 1.724c3.027-2.05 2.165-7.7-2.528-7.72h-5.248v11.953h3.064v-3.524h1.59l2.05 3.524h3.409v-.44l-2.337-3.793zm-2.528-2.03h-2.184v-2.95c.709 0 1.475-.02 2.184 0 1.743.019 1.667 2.95 0 2.95zm14.175-5.69h-7.471v11.953h7.624v-2.72h-4.578v-2.107h4.061v-2.72h-4.061v-1.686h4.425v-2.739.02z" fill="#291F2F"/></svg>