<svg width="28" height="22" fill="none" xmlns="http://www.w3.org/2000/svg"><path d="M21.448 1.023c.101-.162-.02-.385-.223-.385h-4.189a.252.252 0 00-.222.385l2.084 3.622a.265.265 0 00.445 0l2.105-3.622zm-4.433 20.318c-.101.162.02.384.223.384h4.189a.252.252 0 00.222-.384l-2.105-3.622a.265.265 0 00-.445 0l-2.104 3.622h.02zm7.549-16.149a.252.252 0 00.223-.385l-2.105-3.622a.265.265 0 00-.445 0l-2.105 3.622c-.101.162.02.385.223.385h4.209zm-2.326 4.756a.265.265 0 00.445 0l2.105-3.623c.101-.162-.02-.384-.223-.384h-4.189a.252.252 0 00-.222.384l2.104 3.623h-.02zm5.482.728a.252.252 0 00.223-.384l-2.105-3.623a.265.265 0 00-.445 0l-2.105 3.623c-.1.162.02.384.223.384h4.209zm-2.306 4.756a.265.265 0 00.445 0l2.105-3.623c.1-.162-.02-.384-.223-.384h-4.19a.252.252 0 00-.222.384l2.105 3.623h-.02zm-5.26.364c-.102.162.02.385.222.385h4.19a.252.252 0 00.222-.385l-2.105-3.622a.265.265 0 00-.445 0l-2.105 3.622h.02zm2.084 5.12a.265.265 0 00.445 0l2.105-3.622c.101-.162-.02-.385-.223-.385h-4.189a.252.252 0 00-.222.385l2.104 3.622h-.02z" fill="#736979"/><path d="M13.13.8c.1-.162-.02-.384-.223-.384H8.718A.252.252 0 008.495.8l2.085 3.623a.265.265 0 00.445 0L13.13.8zM8.396 21.321c-.101.162.02.384.222.384h4.19a.252.252 0 00.222-.384l-2.105-3.622a.265.265 0 00-.445 0L8.376 21.32h.02zm7.789-16.149a.252.252 0 00.223-.385l-2.105-3.622a.265.265 0 00-.445 0l-2.105 3.622c-.101.162.02.385.223.385h4.209zM13.86 9.907a.265.265 0 00.444 0l2.105-3.622c.101-.162-.02-.385-.223-.385h-4.189a.252.252 0 00-.222.385l2.104 3.622h-.02zm5.483.749a.252.252 0 00.223-.385L17.46 6.65a.265.265 0 00-.445 0l-2.105 3.622c-.1.162.02.385.223.385h4.21zm-2.308 4.735a.265.265 0 00.445 0l2.105-3.622c.1-.162-.02-.385-.223-.385h-4.189a.252.252 0 00-.223.385l2.105 3.622h-.02zm-5.26.365c-.101.162.02.384.222.384h4.19a.252.252 0 00.222-.384l-2.105-3.623a.265.265 0 00-.445 0l-2.105 3.623h.02zm2.085 5.12a.265.265 0 00.444 0l2.105-3.623c.101-.162-.02-.384-.223-.384h-4.189a.252.252 0 00-.222.384l2.104 3.623h-.02z" fill="#291F2F"/><path d="M5.075.659c.101-.162-.02-.385-.223-.385H.663A.252.252 0 00.441.66l2.084 3.62a.265.265 0 00.445 0L5.075.66zM.036 21.18c-.1.161.02.384.223.384h4.19a.252.252 0 00.222-.385l-2.105-3.622a.265.265 0 00-.445 0L.016 21.179h.02zM8.252 5.03a.252.252 0 00.222-.385L6.37 1.023a.265.265 0 00-.445 0L3.82 4.645c-.102.162.02.385.222.385h4.21zm-2.75 4.735a.265.265 0 00.445 0l2.105-3.622c.1-.162-.02-.384-.223-.384h-4.19a.252.252 0 00-.222.384l2.105 3.622h-.02zm5.482.75a.252.252 0 00.223-.385L9.101 6.508a.265.265 0 00-.445 0L6.552 10.13c-.101.162.02.385.223.385h4.209zM8.677 15.25a.265.265 0 00.446 0l2.104-3.623c.101-.162-.02-.384-.222-.384h-4.19a.252.252 0 00-.222.384l2.105 3.623h-.02zm-5.26.364c-.101.162.02.384.223.384h4.189a.252.252 0 00.223-.384l-2.105-3.623a.265.265 0 00-.445 0l-2.105 3.623h.02zm2.085 5.12a.265.265 0 00.445 0l2.105-3.622c.1-.162-.02-.385-.223-.385h-4.19a.252.252 0 00-.222.385l2.105 3.622h-.02z" fill="#EBE8EE"/></svg>