<svg width="118" height="26" fill="none" xmlns="http://www.w3.org/2000/svg"><path d="M20.389 4.09c.094-.152-.019-.36-.208-.36h-3.905a.235.235 0 00-.208.36l1.944 3.377c.094.15.32.15.415 0l1.962-3.378zm-4.132 18.943c-.095.15.018.358.207.358h3.906a.235.235 0 00.207-.358l-1.962-3.378a.247.247 0 00-.415 0l-1.962 3.378h.019zm7.037-15.057a.235.235 0 00.208-.358L21.54 4.24a.247.247 0 00-.415 0l-1.963 3.378c-.094.15.02.358.208.358h3.925zm-2.169 4.434c.094.15.32.15.415 0l1.962-3.377c.095-.151-.019-.359-.207-.359h-3.906a.235.235 0 00-.208.359l1.963 3.377h-.02zm5.113.68a.235.235 0 00.207-.36l-1.962-3.377a.247.247 0 00-.415 0l-1.962 3.378c-.095.15.019.358.207.358h3.925zm-2.151 4.433c.094.151.32.151.415 0l1.962-3.377c.094-.151-.019-.359-.207-.359H22.35a.235.235 0 00-.208.359l1.962 3.377h-.018zm-4.906.34c-.094.15.02.358.208.358h3.906a.235.235 0 00.207-.358l-1.962-3.377a.247.247 0 00-.415 0l-1.962 3.377h.018zm1.944 4.774c.094.15.32.15.415 0l1.962-3.378c.095-.15-.019-.358-.207-.358h-3.906a.235.235 0 00-.208.358l1.963 3.378h-.02z" fill="#736979"/><path d="M12.634 3.882c.094-.151-.019-.359-.208-.359H8.521a.235.235 0 00-.208.359l1.944 3.377c.094.151.32.151.415 0l1.962-3.377zM8.219 23.014c-.094.15.019.358.208.358h3.905a.235.235 0 00.208-.358l-1.962-3.378a.247.247 0 00-.416 0L8.2 23.014h.019zm7.264-15.057a.235.235 0 00.208-.358L13.729 4.22a.247.247 0 00-.415 0L11.35 7.6c-.094.15.02.358.208.358h3.925zm-2.17 4.415a.247.247 0 00.415 0l1.963-3.377c.094-.151-.02-.359-.208-.359h-3.906a.235.235 0 00-.207.359l1.962 3.377h-.019zm5.114.698a.235.235 0 00.207-.358l-1.962-3.377a.247.247 0 00-.415 0l-1.962 3.377c-.095.15.018.358.207.358h3.925zm-2.151 4.415c.094.151.32.151.415 0l1.962-3.377c.094-.15-.019-.359-.207-.359H14.54a.235.235 0 00-.208.359l1.962 3.377h-.018zm-4.906.34c-.095.151.019.358.207.358h3.906a.235.235 0 00.208-.358l-1.963-3.377a.247.247 0 00-.415 0l-1.962 3.377h.019zm1.943 4.774c.095.15.321.15.415 0l1.963-3.378c.094-.15-.02-.358-.208-.358h-3.906a.235.235 0 00-.207.358l1.962 3.378h-.019z" fill="#291F2F"/><path d="M5.125 3.75c.094-.151-.02-.359-.208-.359H1.011a.235.235 0 00-.207.359l1.943 3.377c.095.15.321.15.415 0L5.125 3.75zM.426 22.882c-.094.15.02.358.208.358H4.54a.235.235 0 00.207-.358l-1.962-3.378a.247.247 0 00-.415 0L.408 22.882h.018zM8.087 7.825a.235.235 0 00.207-.358L6.332 4.089a.247.247 0 00-.415 0L3.955 7.467c-.095.15.019.358.207.358h3.925zM5.52 12.24a.248.248 0 00.416 0l1.962-3.377c.094-.151-.019-.359-.207-.359H3.785a.235.235 0 00-.208.359L5.54 12.24h-.02zm5.114.698a.235.235 0 00.208-.358L8.88 9.203a.247.247 0 00-.416 0L6.502 12.58c-.094.15.019.358.208.358h3.925zm-2.151 4.415c.095.151.32.151.415 0l1.963-3.377c.094-.151-.02-.359-.208-.359H6.747a.235.235 0 00-.207.359l1.962 3.377h-.019zm-4.906.34c-.094.15.02.358.208.358H7.69a.235.235 0 00.207-.358l-1.962-3.377a.247.247 0 00-.415 0l-1.962 3.377h.018zm1.943 4.774c.095.15.322.15.416 0l1.962-3.378c.094-.15-.019-.358-.207-.358H3.785a.235.235 0 00-.208.358l1.963 3.378h-.02z" fill="#EBE8EE"/><path d="M37.771 10.011c-.394 0-.738-.057-1.032-.172a2.211 2.211 0 01-.724-.456 2.091 2.091 0 01-.432-.608l.632-.392c.064.168.163.324.296.468.136.144.31.26.52.348.214.088.47.132.768.132.304 0 .559-.047.764-.14.206-.096.359-.225.46-.388.104-.165.156-.355.156-.568 0-.243-.06-.43-.18-.56a.961.961 0 00-.484-.28 2.804 2.804 0 00-.664-.096 46.52 46.52 0 00-.576-.02H37.2V6.6h.396a9.95 9.95 0 00.204-.008c.358-.019.642-.11.852-.272a.817.817 0 00.316-.68c0-.299-.108-.532-.324-.7-.213-.168-.492-.252-.836-.252-.325 0-.602.076-.832.228a1.718 1.718 0 00-.544.588l-.548-.468c.187-.296.446-.54.776-.732.334-.195.723-.292 1.168-.292.246 0 .482.033.708.1.23.064.432.163.608.296.179.13.32.297.424.5.104.2.156.437.156.712 0 .296-.062.559-.188.788-.125.23-.29.407-.492.532.28.093.499.248.656.464.158.216.236.496.236.84 0 .36-.092.672-.276.936-.181.264-.434.47-.76.616a2.764 2.764 0 01-1.128.216zm4.234 0c-.322 0-.593-.059-.812-.176a1.254 1.254 0 01-.492-.472 1.285 1.285 0 01-.164-.64c0-.227.043-.423.128-.588a1.15 1.15 0 01.368-.416c.158-.112.346-.2.564-.264a6.45 6.45 0 01.688-.144c.256-.043.515-.081.776-.116.262-.035.506-.068.732-.1l-.256.148c.008-.384-.069-.668-.232-.852-.16-.184-.437-.276-.832-.276a1.3 1.3 0 00-.688.18c-.194.117-.332.31-.412.576l-.676-.204a1.58 1.58 0 01.604-.892c.299-.216.692-.324 1.18-.324.392 0 .728.07 1.008.212.283.139.486.35.608.632.062.133.1.279.116.436.016.155.024.317.024.488v2.672h-.632V8.855l.148.096c-.162.35-.39.613-.684.792-.29.179-.645.268-1.064.268zm.108-.596c.256 0 .478-.045.664-.136a1.26 1.26 0 00.456-.364c.115-.152.19-.317.224-.496.04-.133.062-.281.064-.444.006-.165.008-.292.008-.38l.248.108c-.232.032-.46.063-.684.092-.224.03-.436.061-.636.096-.2.032-.38.07-.54.116a1.761 1.761 0 00-.332.144.755.755 0 00-.248.228.594.594 0 00-.092.34c0 .117.03.23.088.336a.68.68 0 00.28.26c.128.067.295.1.5.1zm3.164.476v-4.32h3v.676H45.99v3.644h-.712zm5.742.12c-.405 0-.747-.1-1.024-.3a1.897 1.897 0 01-.632-.82 3.058 3.058 0 01-.212-1.164c0-.435.07-.824.212-1.168.144-.344.355-.615.632-.812.28-.197.623-.296 1.028-.296.4 0 .744.1 1.032.3a1.9 1.9 0 01.668.812c.155.344.232.732.232 1.164 0 .432-.077.82-.232 1.164a1.951 1.951 0 01-.668.82c-.288.2-.633.3-1.036.3zm-1.988 1.8v-6.24h.636v3.18h.08v3.06h-.716zm1.9-2.452c.285 0 .521-.072.708-.216a1.3 1.3 0 00.42-.584c.093-.248.14-.525.14-.832 0-.304-.047-.579-.14-.824a1.253 1.253 0 00-.424-.584c-.19-.144-.43-.216-.724-.216-.28 0-.512.07-.696.208a1.211 1.211 0 00-.412.572c-.09.243-.136.524-.136.844 0 .315.044.596.132.844.09.245.23.439.416.58.187.139.425.208.716.208zm3.345 2.452l.836-2.272.012.672-1.888-4.64h.748l1.48 3.732h-.256l1.388-3.732h.724l-2.352 6.24h-.692zm5.252-1.8c-.426 0-.804-.092-1.132-.276a2.063 2.063 0 01-.776-.768l.568-.368c.158.237.346.42.564.548.22.125.468.188.748.188.294 0 .527-.067.7-.2a.66.66 0 00.26-.548c0-.17-.042-.301-.128-.392a.691.691 0 00-.368-.188 2.736 2.736 0 00-.572-.052h-.448v-.588h.444c.28 0 .508-.045.684-.136.176-.09.264-.245.264-.464 0-.224-.082-.387-.248-.488a1.061 1.061 0 00-.584-.156c-.24 0-.469.05-.688.152a1.966 1.966 0 00-.564.376l-.432-.484c.224-.23.482-.405.772-.528.294-.125.612-.188.956-.188.278 0 .531.05.76.148.232.096.416.239.552.428.14.187.208.415.208.684 0 .23-.053.433-.16.612a1.44 1.44 0 01-.472.468l-.028-.252a.902.902 0 01.436.236c.118.112.204.245.26.4.056.155.084.316.084.484 0 .283-.074.525-.224.728a1.42 1.42 0 01-.596.464c-.25.107-.53.16-.84.16zm6.074-4.44v4.32h-.688V6.707L62.65 9.891h-.588v-4.32h.688v3.14l2.268-3.14h.584zm2.265 4.32V6.22h-1.504v-.648h3.72v.648h-1.504v3.672h-.712zm2.973 0l-.004-4.32h.716v1.564h.932c.125 0 .253.003.384.008.13.005.244.017.34.036.224.043.42.117.588.224.168.107.298.252.392.436.093.181.14.407.14.676 0 .373-.097.67-.292.888-.192.216-.444.36-.756.432a2.29 2.29 0 01-.368.048 9.907 9.907 0 01-.388.008H70.84zm.712-.588h.984a5 5 0 00.268-.008c.099-.005.186-.019.264-.04a.79.79 0 00.364-.236c.11-.117.164-.285.164-.504 0-.221-.053-.392-.16-.512a.736.736 0 00-.412-.236 1.416 1.416 0 00-.244-.036 3.92 3.92 0 00-.244-.008h-.984v1.58zm5.252.588v-4.32h1.84c.11 0 .227.007.352.02.129.01.245.03.349.06.231.061.422.188.572.38.151.19.227.43.227.72 0 .163-.025.304-.076.424a.89.89 0 01-.483.496.85.85 0 01.284.108.91.91 0 01.356.348c.088.15.132.34.132.572 0 .293-.071.536-.213.728a1.08 1.08 0 01-.584.392 1.72 1.72 0 01-.344.06 5.716 5.716 0 01-.363.012h-2.048zm.72-.58h1.288a1.775 1.775 0 00.412-.056.477.477 0 00.3-.224.692.692 0 00.097-.356c0-.17-.048-.31-.144-.416a.616.616 0 00-.373-.2.783.783 0 00-.183-.028 4.185 4.185 0 00-.172-.004h-1.224v1.284zm0-1.872h1.073c.074 0 .153-.004.236-.012a.915.915 0 00.216-.052.48.48 0 00.267-.224.71.71 0 00.088-.348.68.68 0 00-.096-.364.477.477 0 00-.284-.22.879.879 0 00-.287-.052 5.25 5.25 0 00-.2-.008h-1.013v1.28z" fill="#291F2F"/><path d="M42.635 25.703h.37V16.06h-1.156v4.512l.123 2.758-6.268-7.255h-.4v9.611h1.139v-4.62l-.092-2.634 6.284 7.27zm8.902-2.388l1.125 2.372h1.186v-.154l-4.436-9.503h-.524l-4.482 9.503v.154h1.202l1.124-2.372h4.805zm-2.402-5.483l2.017 4.497h-4.035l2.018-4.497zm5.314 5.237c.061 1.971 2.079 2.834 3.866 2.788 1.74-.047 3.727-.786 3.727-2.85 0-2.126-1.787-2.48-3.697-2.695-1.17-.154-2.556-.2-2.556-1.633 0-1.263 1.324-1.71 2.371-1.74 1.094 0 2.388.384 2.496 1.601h1.078c-.062-1.863-1.94-2.68-3.604-2.633-1.695 0-3.497.893-3.497 2.787 0 1.926 1.756 2.372 3.497 2.557 1.309.185 2.757.2 2.757 1.756-.047 1.402-1.464 1.802-2.603 1.848-1.186 0-2.665-.492-2.742-1.786h-1.109.016zm16.88 2.618v-9.611h-1.155v4.05h-5.082v-4.05h-1.14v9.611h1.14v-4.513h5.082v4.513h1.156zm4.206-2.942h-2.373c-.061 4.236 7.779 4.128 7.779.077 0-2.403-1.864-2.649-3.774-2.865-.862-.092-1.586-.246-1.525-.97.077-1.14 2.665-1.248 2.665.03h2.341c.062-4.142-7.424-4.142-7.331 0 .03 2.096 1.401 2.804 3.496 2.958.955.062 1.756.17 1.756.832 0 1.124-3.004 1.155-3.004-.062h-.03zm8.61-4.482v7.424h2.433v-7.424h2.357V16.06h-7.147v2.203h2.356zm15.587 2.618c0-6.653-9.873-6.653-9.873 0 0 6.67 9.873 6.67 9.873 0zm-7.332 0c0-3.465 4.821-3.465 4.821 0a2.419 2.419 0 01-4.82 0zm15.433 1.387c2.434-1.648 1.741-6.192-2.033-6.207h-4.22v9.61h2.464v-2.833h1.279l1.648 2.834h2.742v-.355l-1.88-3.05zm-2.033-1.633h-1.756v-2.372c.57 0 1.186-.015 1.756 0 1.402.015 1.34 2.372 0 2.372zm11.398-4.575h-6.007v9.612h6.13v-2.188h-3.681V21.79h3.265v-2.187h-3.265v-1.355h3.558v-2.203.015z" fill="#434242"/></svg>