<svg width="32" height="32" fill="none" xmlns="http://www.w3.org/2000/svg"><path d="M5.334 5.973a.64.64 0 01.64-.64h.853a.64.64 0 01.64.64v.854a.64.64 0 01-.64.64h-.853a.64.64 0 01-.64-.64v-.854zM3.2 3.84a.64.64 0 01.64-.64h5.12a.64.64 0 01.64.64v5.12a.64.64 0 01-.64.64H3.84a.64.64 0 01-.64-.64V3.84zm1.707.427a.64.64 0 00-.64.64v2.986c0 .354.286.64.64.64h2.987a.64.64 0 00.64-.64V4.907a.64.64 0 00-.64-.64H4.907zm19.626 1.706a.64.64 0 01.64-.64h.854a.64.64 0 01.64.64v.854a.64.64 0 01-.64.64h-.854a.64.64 0 01-.64-.64v-.854zM22.4 3.84a.64.64 0 01.64-.64h5.12a.64.64 0 01.64.64v5.12a.64.64 0 01-.64.64h-5.12a.64.64 0 01-.64-.64V3.84zm1.707.427a.64.64 0 00-.64.64v2.986c0 .354.286.64.64.64h2.986a.64.64 0 00.64-.64V4.907a.64.64 0 00-.64-.64h-2.986zM5.334 25.173a.64.64 0 01.64-.64h.853a.64.64 0 01.64.64v.854a.64.64 0 01-.64.64h-.853a.64.64 0 01-.64-.64v-.854zM3.2 23.04a.64.64 0 01.64-.64h5.12a.64.64 0 01.64.64v5.12a.64.64 0 01-.64.64H3.84a.64.64 0 01-.64-.64v-5.12zm1.707.427a.64.64 0 00-.64.64v2.986c0 .354.286.64.64.64h2.987a.64.64 0 00.64-.64v-2.986a.64.64 0 00-.64-.64H4.907zM3.2 12.373a.64.64 0 01.64-.64h.854a.64.64 0 01.64.64v.854c0 .353.286.64.64.64h.853a.64.64 0 01.64.64v.853c0 .354.286.64.64.64h2.987a.64.64 0 00.64-.64v-.853a.64.64 0 00-.64-.64H8.107a.64.64 0 01-.64-.64v-.854a.64.64 0 01.64-.64h2.987a.64.64 0 01.64.64v.854c0 .353.286.64.64.64h2.986a.64.64 0 01.64.64v2.986a.64.64 0 01-.64.64h-.853a.64.64 0 00-.64.64v.854c0 .353.286.64.64.64h2.986a.64.64 0 01.64.64v2.986a.64.64 0 01-.64.64h-.853a.64.64 0 00-.64.64v.854c0 .353.287.64.64.64h.853a.64.64 0 01.64.64v.853a.64.64 0 01-.64.64h-.853a.64.64 0 01-.64-.64v-.854a.64.64 0 00-.64-.64h-.853a.64.64 0 00-.64.64v.854a.64.64 0 01-.64.64h-.853a.64.64 0 01-.64-.64v-5.12a.64.64 0 01.64-.64h.853a.64.64 0 01.64.64v.853c0 .354.286.64.64.64h.853a.64.64 0 00.64-.64v-.853a.64.64 0 00-.64-.64h-.853a.64.64 0 01-.64-.64v-.854a.64.64 0 00-.64-.64H10.24a.64.64 0 01-.64-.64v-.853a.64.64 0 00-.64-.64H5.974a.64.64 0 00-.64.64v.854a.64.64 0 01-.64.64H3.84a.64.64 0 01-.64-.64v-.854a.64.64 0 01.64-.64h.854a.64.64 0 00.64-.64v-2.986a.64.64 0 00-.64-.64H3.84a.64.64 0 01-.64-.64v-.854zm10.667 4.267a.64.64 0 00-.64-.64h-.854a.64.64 0 00-.64.64v.853c0 .354.287.64.64.64h.854a.64.64 0 00.64-.64v-.853zm4.267-2.133a.64.64 0 01.64-.64h.853a.64.64 0 00.64-.64v-.854a.64.64 0 00-.64-.64H16.64a.64.64 0 01-.64-.64v-.853a.64.64 0 00-.64-.64h-.853a.64.64 0 00-.64.64v.853a.64.64 0 01-.64.64h-.854a.64.64 0 01-.64-.64v-.853a.64.64 0 01.64-.64h.854a.64.64 0 00.64-.64v-.853a.64.64 0 00-.64-.64h-.854a.64.64 0 01-.64-.64V3.84a.64.64 0 01.64-.64h.854a.64.64 0 01.64.64v2.987c0 .353.286.64.64.64h.853a.64.64 0 00.64-.64v-.854a.64.64 0 01.64-.64h.854a.64.64 0 00.64-.64V3.84a.64.64 0 01.64-.64h.853a.64.64 0 01.64.64v2.987a.64.64 0 01-.64.64h-.854a.64.64 0 00-.64.64v.853c0 .353.287.64.64.64h.854a.64.64 0 01.64.64v.853c0 .354.286.64.64.64h.853a.64.64 0 01.64.64v2.987c0 .353.287.64.64.64h.854a.64.64 0 01.64.64v.853c0 .354.286.64.64.64h.853a.64.64 0 01.64.64v2.987c0 .353.286.64.64.64h.853a.64.64 0 01.64.64v2.986a.64.64 0 01-.64.64h-.853a.64.64 0 01-.64-.64v-.853a.64.64 0 00-.64-.64h-.854a.64.64 0 00-.64.64v2.987a.64.64 0 01-.64.64h-2.986a.64.64 0 01-.64-.64v-.854a.64.64 0 01.64-.64h.853a.64.64 0 00.64-.64v-.853a.64.64 0 00-.64-.64h-.853a.64.64 0 01-.64-.64v-.853a.64.64 0 01.64-.64h.853a.64.64 0 01.64.64v.853c0 .354.287.64.64.64h.854a.64.64 0 00.64-.64v-2.986a.64.64 0 00-.64-.64h-.854a.64.64 0 01-.64-.64V16.64a.64.64 0 00-.64-.64h-.853a.64.64 0 00-.64.64v2.986a.64.64 0 01-.64.64h-.854a.64.64 0 01-.64-.64v-5.12zm6.4-2.134a.64.64 0 01.64-.64h.853a.64.64 0 01.64.64v.854c0 .353.286.64.64.64h.853a.64.64 0 01.64.64v.853a.64.64 0 01-.64.64h-2.986a.64.64 0 01-.64-.64v-2.987z" fill="#fff"/></svg>