<svg width="101" height="37" fill="none" xmlns="http://www.w3.org/2000/svg"><g clip-path="url(#clip0_343_18631)" fill="#023B6F"><path d="M2.293 1.265c2.598 0 5.195-.043 7.792-.043-.043 3.636 0 7.273 0 10.909h.78v4.978H7.66c-.043-.606-.043-1.256-.087-1.862H3.505v1.862H.345c-.043-1.688 0-3.333 0-5.022h.91c.562-1.558 1.038-3.16 1.038-4.805V1.265zm2.857 3.16c.087 2.598-.043 5.238-.779 7.706h2.51V4.382c-.605.043-1.168.043-1.73.043zm6.666-3.203c2.727-.043 5.455 0 8.182 0v3.16c-1.645.044-3.29 0-4.935 0v2.165c1.515 0 3.03 0 4.588.043v2.987h-4.545v2.51h4.935c0 1.083.043 2.122 0 3.204-2.727 0-5.454.043-8.181 0 .043-4.675.043-9.35-.044-14.069zm10.911 0h8.052c-.044 4.675 0 9.35 0 14.025h-3.247c0-3.636.043-7.272 0-10.908H25.93c0 1.991.044 3.982 0 5.93-.086 1.602-.476 3.333-1.645 4.502-.909.91-2.294.563-3.376.303-.043-1.082 0-2.164-.087-3.246 1.386.52 1.948-1.17 1.905-2.208-.043-2.77 0-5.584 0-8.398zm12.336.043c1.688-.52 3.766-.173 4.978 1.17 1.212 1.384 1.645 3.332 1.732 5.15.086 1.992-.13 4.07-1.212 5.8-1.688 2.728-6.234 2.685-7.922 0-1.299-2.163-1.342-4.804-1.039-7.228.303-2.078 1.342-4.286 3.463-4.892zm.736 3.247c-.995.52-1.082 1.775-1.125 2.77 0 1.256-.173 2.598.346 3.766.476 1.212 2.424 1.429 3.16.347.52-.866.433-1.948.476-2.9-.043-1.343.13-2.814-.779-3.897-.693-.216-1.472-.476-2.078-.086zM54.63 1.266c1.558-.043 3.16 0 4.717 0l3.507 14.025h-3.16c-.217-1.039-.52-2.078-.78-3.117h-3.852l-.78 3.117h-3.116a1654.72 1654.72 0 013.463-14.025zm2.38 3.16c-.433 1.472-.78 2.987-1.169 4.502h2.294C57.79 7.413 57.4 5.94 57.01 4.426zm7.878-2.382a2.972 2.972 0 012.164-.779c1.905.043 3.767-.13 5.671-.043v14.112H69.52v-4.589c-.78 0-1.515-.086-2.294.087-.303.346-.347.822-.433 1.298-.13 1.083-.303 2.121-.433 3.204h-3.247c.26-1.688.433-3.377.78-5.022.216-.952.995-1.645 1.904-1.904-2.467-.996-2.813-4.719-.909-6.364zm2.38 2.857c-.648.65-.475 1.732.087 2.338.52.606 1.429.303 2.165.39V4.381c-.78.043-1.732-.13-2.251.52zm8.874-3.765c2.338-.044 4.676 0 7.013-.044 4.459 0 8.874 1.775 12.12 4.805 3.031 2.77 4.979 6.667 5.455 10.736v4.112A17.837 17.837 0 0194.756 32c-3.246 2.857-7.532 4.459-11.86 4.328h-7.013V10.442c2.51 0 4.978-.043 7.489 0 3.506.087 6.796 2.728 7.618 6.147.866 3.117-.39 6.71-3.03 8.615-1.428 1.082-3.203 1.601-5.021 1.688v-4.675c1.039-.13 2.164-.433 2.813-1.342 1.342-1.472.953-3.983-.692-5.065-1.299-.952-2.987-.563-4.502-.606V31.48c1.861 0 3.766.174 5.54-.346 3.94-.952 7.317-3.896 8.832-7.662 1.341-3.203 1.255-6.926-.174-10.086-1.341-2.943-3.809-5.324-6.753-6.536-.476-.217-.736-.26-1.342-.477-1.168-.39-2.38-.519-3.592-.519h-7.056c.13-1.558.13-3.117.13-4.718zm-33.763.129h6.147c1.731.216 2.727 2.078 2.554 3.68 0 1.168-.606 2.164-1.386 2.986 2.122 1.385 2.381 4.849.563 6.623-.606.563-1.428.78-2.207.78-1.905-.044-3.766.043-5.671-.044V1.265zm3.247 2.64V6.59c.52 0 1.082.13 1.515-.173.606-.476.692-1.428.173-1.991-.39-.52-1.126-.433-1.688-.52zm-.044 5.411v2.728c.606-.044 1.299.086 1.775-.39.563-.476.606-1.342.173-1.905-.433-.649-1.298-.346-1.948-.433zM18.266 18.45c1.861-.129 3.852.477 5.065 1.949 1.601 1.991 1.948 4.632 1.99 7.1-.043 2.51-.389 5.28-2.12 7.228-2.468 2.64-7.446 2.381-9.394-.779-1.515-2.51-1.601-5.627-1.385-8.484.216-1.992.78-4.113 2.25-5.541.91-.953 2.252-1.385 3.594-1.472zm-.303 4.2c-1.126.346-1.559 1.645-1.645 2.684-.13 1.515-.13 3.03 0 4.545.13.952.563 2.078 1.558 2.38.866.26 2.035.174 2.64-.605.78-1.126.65-2.598.693-3.896-.043-1.429.13-2.944-.562-4.242-.476-.953-1.689-1.126-2.684-.866zm12.511-4.156c1.688-.52 3.55-.217 5.151.433v4.458c-1.039-.52-2.337-.909-3.42-.303-1.818 1.299-2.164 3.896-1.601 5.887.303.996.952 2.035 1.948 2.468 1.038.39 2.078-.087 3.03-.433v4.588c-1.862.736-4.07 1.083-5.887.13-1.732-.909-2.77-2.727-3.334-4.502-.735-2.77-.735-5.757.217-8.484.692-1.861 1.991-3.636 3.896-4.242zm10.173.13c1.732-.693 3.723-.39 5.411.26.087 1.558 0 3.16.044 4.718-.39-.693-1.342-.78-2.078-.866-1.342-.086-2.381 1.082-2.814 2.251-.52 1.515-.52 3.203.13 4.675.433.91 1.169 1.732 2.164 1.905.91.13 1.775-.217 2.511-.65.043 1.559.043 3.074.043 4.632-1.904.78-4.242 1.082-6.103 0-1.516-.909-2.511-2.51-3.03-4.155-.91-2.944-.866-6.19.26-9.047.692-1.559 1.817-3.117 3.462-3.723zM.346 18.451c2.424-.043 4.891.043 7.315.087 2.165.086 3.81 2.12 3.94 4.198.13 2.295.303 5.022-1.559 6.667-1.558 1.515-3.852.952-5.757 1.082v5.757H.345V18.451zm3.939 3.982v4.026c.736 0 1.515.087 2.25-.043 1.473-.563 1.56-2.9.26-3.723-.779-.433-1.688-.216-2.51-.26zm43.676-3.939h3.94c0 3.29-.044 6.623 0 9.913 1.125-3.29 2.12-6.58 3.203-9.87 1.601-.043 3.203-.043 4.805-.043.043 5.887 0 11.818.043 17.705-1.342.043-2.64.043-3.983.043V24.771c-1.341 3.81-2.51 7.705-3.809 11.558-1.428 0-2.813 0-4.242-.087.087-5.93.043-11.817.043-17.748zm14.459 1.774c.693-1.038 1.905-1.818 3.203-1.774 2.381.043 4.719 0 7.1 0v17.748c-1.299.043-2.64.043-3.94 0v-5.844c-1.082.13-2.77-.52-3.203.866-.346 1.644-.433 3.333-.65 5.02h-4.112c.347-1.99.563-3.981.91-5.93.216-1.255 1.168-2.467 2.51-2.597-2.77-1.298-3.506-5.108-1.818-7.489zm3.983 2.338c-1.299.822-1.256 3.073.13 3.766.735.216 1.514.087 2.25.13v-4.026c-.779 0-1.601-.173-2.38.13z"/></g><defs><clipPath id="clip0_343_18631"><path fill="#fff" transform="translate(0 .783)" d="M0 0h100.731v36H0z"/></clipPath></defs></svg>