<svg width="141" height="48" fill="none" xmlns="http://www.w3.org/2000/svg"><path fill-rule="evenodd" clip-rule="evenodd" d="M15.96 40c-7.241 0-10.862 0-13.111-2.25-2.25-2.249-2.25-5.87-2.25-13.11v-1.28c0-7.24 0-10.861 2.25-13.11C5.099 8 8.719 8 15.959 8h1.28c7.241 0 10.862 0 13.111 2.25 2.25 2.249 2.25 5.87 2.25 13.11v1.28c0 7.24 0 10.861-2.25 13.11C28.1 40 24.48 40 17.24 40h-1.28z" fill="#291F2F"/><path d="M19.103 27.72a1.931 1.931 0 01-1.466-1.87V15.427a1.55 1.55 0 011.928-1.497l6.202 1.55a1.93 1.93 0 011.467 1.87v10.422a1.55 1.55 0 01-1.93 1.497l-6.2-1.55zm-11.671 4.8a1.931 1.931 0 01-1.467-1.872v-10.42a1.55 1.55 0 011.929-1.498l6.201 1.55a1.93 1.93 0 011.467 1.87v10.422a1.55 1.55 0 01-1.929 1.497l-6.201-1.55z" fill="#fff"/><path d="M13.268 30.12a1.931 1.931 0 01-1.467-1.871V17.828a1.55 1.55 0 011.928-1.497l6.202 1.55a1.93 1.93 0 011.467 1.87v10.421a1.55 1.55 0 01-1.93 1.497l-6.2-1.549z" fill="#fff"/><path d="M17.326 31.137a.63.63 0 01-.474-.59l-.27-7.958c-.078-1.053-.86-1.891-1.677-2.138a.11.11 0 00-.122.044.093.093 0 00.022.126c.201.156.757.666.757 1.545l-.002 8.523 1.766.448zm5.838-2.402a.627.627 0 01-.474-.587l-.27-7.958c-.078-1.053-.86-1.89-1.677-2.137a.11.11 0 00-.122.044.093.093 0 00.021.125c.202.156.758.666.758 1.545l-.002 8.527 1.766.441zm22.633-13.914c-.86 0-1.59-.19-2.19-.57a3.664 3.664 0 01-1.374-1.584c-.312-.676-.468-1.458-.468-2.346 0-.888.156-1.67.468-2.346a3.664 3.664 0 011.374-1.584c.6-.38 1.33-.57 2.19-.57 1 0 1.822.254 2.466.762.648.508 1.094 1.192 1.338 2.052l-1.086.288c-.176-.644-.49-1.152-.942-1.524-.452-.372-1.044-.558-1.776-.558-.644 0-1.18.146-1.608.438-.428.292-.75.7-.966 1.224-.216.52-.326 1.126-.33 1.818-.004.688.102 1.294.318 1.818.216.52.54.928.972 1.224.432.292.97.438 1.614.438.732 0 1.324-.186 1.776-.558.452-.376.766-.884.942-1.524l1.086.288c-.244.856-.69 1.54-1.338 2.052-.644.508-1.466.762-2.466.762zm5.114-.18l.006-6.48h1.08v3.12l2.718-3.12H56.1l-2.862 3.24 3.198 3.24h-1.494l-2.946-3.12v3.12H50.91zm7.965.18c-.484 0-.89-.088-1.218-.264a1.88 1.88 0 01-.738-.708 1.927 1.927 0 01-.246-.96c0-.34.064-.634.192-.882.132-.252.316-.46.552-.624.236-.168.518-.3.846-.396a9.676 9.676 0 011.032-.216 35.38 35.38 0 011.164-.174c.392-.052.758-.102 1.098-.15l-.384.222c.012-.576-.104-1.002-.348-1.278-.24-.276-.656-.414-1.248-.414-.392 0-.736.09-1.032.27-.292.176-.498.464-.618.864l-1.014-.306c.156-.568.458-1.014.906-1.338.448-.324 1.038-.486 1.77-.486.588 0 1.092.106 1.512.318.424.208.728.524.912.948.092.2.15.418.174.654.024.232.036.476.036.732v4.008h-.948v-1.554l.222.144c-.244.524-.586.92-1.026 1.188-.436.268-.968.402-1.596.402zm.162-.894c.384 0 .716-.068.996-.204.284-.14.512-.322.684-.546.172-.228.284-.476.336-.744.06-.2.092-.422.096-.666.008-.248.012-.438.012-.57l.372.162c-.348.048-.69.094-1.026.138-.336.044-.654.092-.954.144-.3.048-.57.106-.81.174a2.639 2.639 0 00-.498.216 1.131 1.131 0 00-.372.342.89.89 0 00-.138.51c0 .176.044.344.132.504.092.16.232.29.42.39.192.1.442.15.75.15zm8.646.714v-2.334c-.216.108-.478.2-.786.276-.304.076-.63.114-.978.114-.66 0-1.192-.148-1.596-.444-.404-.296-.668-.722-.792-1.278a4.311 4.311 0 01-.078-.522 12.545 12.545 0 01-.03-.816V8.161h1.08v1.476c0 .116.004.26.012.432.008.168.028.332.06.492.08.396.246.694.498.894.256.2.616.3 1.08.3.312 0 .6-.04.864-.12.264-.08.486-.186.666-.318V8.161h1.074v6.48h-1.074zm4.598.18c-.484 0-.89-.088-1.218-.264a1.88 1.88 0 01-.738-.708 1.927 1.927 0 01-.246-.96c0-.34.064-.634.192-.882.132-.252.316-.46.552-.624.236-.168.518-.3.846-.396a9.676 9.676 0 011.032-.216 35.38 35.38 0 011.164-.174c.392-.052.758-.102 1.098-.15l-.384.222c.012-.576-.104-1.002-.348-1.278-.24-.276-.656-.414-1.248-.414-.392 0-.736.09-1.032.27-.292.176-.498.464-.618.864l-1.014-.306c.156-.568.458-1.014.906-1.338.448-.324 1.038-.486 1.77-.486.588 0 1.092.106 1.512.318.424.208.728.524.912.948.092.2.15.418.174.654.024.232.036.476.036.732v4.008h-.948v-1.554l.222.144c-.244.524-.586.92-1.026 1.188-.436.268-.968.402-1.596.402zm.162-.894c.384 0 .716-.068.996-.204.284-.14.512-.322.684-.546.172-.228.284-.476.336-.744.06-.2.092-.422.096-.666.008-.248.012-.438.012-.57l.372.162c-.348.048-.69.094-1.026.138-.336.044-.654.092-.954.144-.3.048-.57.106-.81.174a2.639 2.639 0 00-.498.216 1.131 1.131 0 00-.372.342.89.89 0 00-.138.51c0 .176.044.344.132.504.092.16.232.29.42.39.192.1.442.15.75.15zm7.536-6.522c-.3 0-.574-.074-.822-.222a1.706 1.706 0 01-.594-.588 1.585 1.585 0 01-.222-.828h.864c0 .212.076.394.228.546a.745.745 0 00.546.228.732.732 0 00.546-.228.745.745 0 00.228-.546h.864c0 .304-.074.58-.222.828-.144.244-.342.44-.594.588a1.574 1.574 0 01-.822.222zm2.514.756v6.48h-1.032V9.865l-3.396 4.776h-.882v-6.48h1.032v4.71l3.402-4.71h.876zm3.397 6.48V9.133h-2.257v-.972h5.58v.972H86.96v5.508h-1.07zm7.267.18c-.636 0-1.192-.14-1.668-.42a2.942 2.942 0 01-1.104-1.182c-.264-.508-.396-1.1-.396-1.776 0-.708.13-1.32.39-1.836.26-.52.622-.92 1.086-1.2.468-.284 1.016-.426 1.644-.426.652 0 1.206.15 1.662.45.46.3.804.728 1.032 1.284.232.556.332 1.218.3 1.986h-1.08v-.384c-.012-.796-.174-1.39-.486-1.782-.312-.396-.776-.594-1.392-.594-.66 0-1.162.212-1.506.636-.344.424-.516 1.032-.516 1.824 0 .764.172 1.356.516 1.776.344.42.834.63 1.47.63.428 0 .8-.098 1.116-.294a2 2 0 00.744-.846l1.026.354a2.906 2.906 0 01-1.14 1.332 3.16 3.16 0 01-1.698.468zm-2.394-3.12v-.858h4.788v.858h-4.788zm9.072 2.94v-6.48h2.76c.164 0 .34.01.528.03.192.016.366.046.522.09.348.092.634.282.858.57.228.284.342.644.342 1.08 0 .244-.038.456-.114.636-.072.18-.176.336-.312.468a1.295 1.295 0 01-.414.276c.14.024.282.078.426.162.228.124.406.298.534.522.132.224.198.51.198.858 0 .44-.106.804-.318 1.092a1.62 1.62 0 01-.876.588 2.767 2.767 0 01-.516.09c-.188.012-.37.018-.546.018h-3.072zm1.08-.87h1.932c.084 0 .184-.008.3-.024.12-.016.226-.036.318-.06a.716.716 0 00.45-.336c.096-.164.144-.342.144-.534 0-.256-.072-.464-.216-.624a.924.924 0 00-.558-.3 1.174 1.174 0 00-.276-.042 6.261 6.261 0 00-.258-.006h-1.836v1.926zm0-2.808h1.608c.112 0 .23-.006.354-.018.124-.016.232-.042.324-.078a.72.72 0 00.402-.336c.088-.16.132-.334.132-.522 0-.208-.048-.39-.144-.546a.716.716 0 00-.426-.33 1.318 1.318 0 00-.432-.078 7.872 7.872 0 00-.3-.012h-1.518v1.92zM43.13 38.358v-17.75h7.335c.173 0 .395.008.666.024.271.008.522.033.752.074 1.027.156 1.873.497 2.54 1.023a4.683 4.683 0 011.49 1.997c.33.797.494 1.685.494 2.663 0 1.446-.366 2.691-1.097 3.735-.732 1.035-1.854 1.676-3.366 1.923l-1.27.11h-4.573v6.201h-2.97zm10.195 0l-3.5-7.223 3.02-.666 3.845 7.89h-3.365zm-7.224-8.974h4.24c.165 0 .35-.008.556-.024.205-.017.394-.05.567-.099.493-.123.879-.341 1.158-.653a2.63 2.63 0 00.604-1.06c.124-.395.185-.781.185-1.16 0-.377-.061-.763-.185-1.158a2.63 2.63 0 00-.604-1.072c-.279-.313-.665-.53-1.158-.654a2.412 2.412 0 00-.567-.086 7.035 7.035 0 00-.555-.025h-4.24v5.991zM64.4 38.74c-.987 0-1.8-.164-2.441-.492-.641-.33-1.15-.748-1.529-1.258a5.472 5.472 0 01-.838-1.627 8.714 8.714 0 01-.358-1.627 13.92 13.92 0 01-.073-1.258v-7.433h3.007v6.41c0 .411.03.876.087 1.393a5.19 5.19 0 00.394 1.48c.214.468.526.854.937 1.158.42.304.982.456 1.689.456.378 0 .752-.061 1.122-.185.37-.123.702-.332.998-.628.304-.304.546-.72.727-1.245.181-.526.272-1.192.272-1.997l1.762.752c0 1.134-.222 2.161-.665 3.081a5.242 5.242 0 01-1.936 2.207c-.854.542-1.906.813-3.155.813zm4.351-.382v-4.13h-.358v-9.183h2.984v13.313H68.75zm12.66.37c-1.3 0-2.47-.226-3.514-.678a6.636 6.636 0 01-2.564-1.935c-.666-.847-1.089-1.85-1.27-3.008l3.082-.468c.263 1.052.801 1.865 1.615 2.44.822.576 1.767.863 2.835.863a5.33 5.33 0 001.788-.296c.558-.197 1.01-.484 1.356-.862.353-.378.53-.843.53-1.393a1.81 1.81 0 00-.124-.678 1.612 1.612 0 00-.37-.567 2.287 2.287 0 00-.616-.444 4.19 4.19 0 00-.863-.358l-4.585-1.356a12.92 12.92 0 01-1.282-.456 5.526 5.526 0 01-1.295-.801 4.123 4.123 0 01-.998-1.307c-.255-.534-.382-1.191-.382-1.972 0-1.142.287-2.1.863-2.872.583-.78 1.364-1.364 2.342-1.75.986-.387 2.079-.576 3.279-.568 1.216.008 2.3.218 3.254.629.953.403 1.75.99 2.391 1.763.641.772 1.093 1.705 1.356 2.798l-3.192.555c-.132-.625-.387-1.155-.765-1.59a3.566 3.566 0 00-1.368-1.011 4.604 4.604 0 00-3.365-.099c-.501.18-.908.444-1.22.789a1.77 1.77 0 00-.457 1.208c0 .436.132.793.395 1.073.263.27.587.489.974.653.394.156.793.287 1.196.394l3.18.888c.435.115.924.271 1.467.468a6.666 6.666 0 011.565.826c.502.354.913.818 1.233 1.393.329.575.493 1.307.493 2.194 0 .92-.193 1.73-.58 2.429a5.084 5.084 0 01-1.54 1.726c-.65.46-1.393.805-2.231 1.035-.83.23-1.701.345-2.614.345zm17.435-.37c-.879.165-1.742.235-2.588.21-.839-.017-1.59-.168-2.256-.456a3.127 3.127 0 01-1.516-1.393 3.97 3.97 0 01-.481-1.763 75.17 75.17 0 01-.025-2.034V21.347h2.959V32.75c0 .534.004 1.002.012 1.405.016.403.103.731.259.986.296.493.768.768 1.417.826.65.058 1.39.025 2.22-.099v2.49zm-9.282-10.983v-2.33h9.282v2.33h-9.282zm17.351 11.353c-1.331 0-2.494-.3-3.489-.9a6.185 6.185 0 01-2.317-2.477c-.542-1.06-.814-2.277-.814-3.65 0-1.396.28-2.62.839-3.673a6.176 6.176 0 012.329-2.465c.995-.592 2.145-.888 3.452-.888 1.34 0 2.506.3 3.501.9a6.16 6.16 0 012.317 2.49c.551 1.052.826 2.264.826 3.637 0 1.38-.279 2.6-.838 3.66a6.186 6.186 0 01-2.317 2.479c-.995.591-2.158.887-3.489.887zm0-2.786c1.183 0 2.063-.394 2.638-1.183.575-.789.863-1.808.863-3.057 0-1.29-.292-2.318-.875-3.082-.584-.773-1.459-1.159-2.626-1.159-.797 0-1.455.181-1.972.543-.51.353-.888.85-1.134 1.491-.247.633-.37 1.369-.37 2.207 0 1.29.291 2.321.875 3.094.592.764 1.459 1.146 2.601 1.146zm9.36 2.416V25.045h2.626v3.242l-.321-.419a4.78 4.78 0 01.654-1.208c.279-.37.612-.674.998-.912a4.14 4.14 0 011.085-.518c.403-.131.814-.21 1.233-.234a5.006 5.006 0 011.22.05v2.773c-.394-.115-.85-.152-1.368-.111-.51.04-.97.185-1.381.431a3.104 3.104 0 00-1.011.85 3.62 3.62 0 00-.567 1.184 5.2 5.2 0 00-.185 1.418v6.767h-2.983zm15.659.37c-1.348 0-2.531-.291-3.55-.875a6.23 6.23 0 01-2.391-2.428c-.567-1.036-.851-2.227-.851-3.575 0-1.455.279-2.716.838-3.785.559-1.076 1.336-1.91 2.33-2.502.994-.592 2.145-.888 3.452-.888 1.38 0 2.551.325 3.513.974.97.641 1.689 1.55 2.157 2.724.469 1.176.645 2.56.53 4.155h-2.946v-1.085c-.008-1.446-.263-2.503-.764-3.168-.502-.666-1.291-.999-2.367-.999-1.216 0-2.12.378-2.712 1.134-.592.748-.888 1.845-.888 3.292 0 1.348.296 2.391.888 3.13.592.74 1.455 1.11 2.589 1.11.731 0 1.36-.16 1.886-.48.534-.33.945-.802 1.232-1.418l2.934.888c-.509 1.2-1.298 2.132-2.367 2.798a6.473 6.473 0 01-3.513.998zm-4.585-6.2v-2.244h9.159v2.244h-9.159z" fill="#291F2F"/></svg>