<svg width="28" height="28" fill="none" xmlns="http://www.w3.org/2000/svg"><path fill-rule="evenodd" clip-rule="evenodd" d="M13.44 28c-6.336 0-9.504 0-11.472-1.968S0 20.896 0 14.56v-1.12C0 7.104 0 3.936 1.968 1.968S7.104 0 13.44 0h1.12c6.336 0 9.504 0 11.472 1.968S28 7.104 28 13.44v1.12c0 6.336 0 9.504-1.968 11.472S20.896 28 14.56 28h-1.12z" fill="#291F2F"/><path d="M16.192 17.256a1.69 1.69 0 01-1.284-1.638V6.5c0-.88.83-1.524 1.688-1.31l5.426 1.356a1.69 1.69 0 011.283 1.637V17.3c0 .88-.83 1.524-1.687 1.31l-5.426-1.355zM5.977 21.454a1.69 1.69 0 01-1.284-1.637V10.7c0-.88.831-1.524 1.688-1.31l5.426 1.356a1.69 1.69 0 011.284 1.637V21.5c0 .88-.831 1.524-1.688 1.31l-5.426-1.356z" fill="#fff"/><path d="M11.084 19.355a1.69 1.69 0 01-1.283-1.637V8.599c0-.879.83-1.523 1.687-1.31l5.427 1.356a1.69 1.69 0 011.283 1.637v9.119c0 .879-.83 1.524-1.688 1.31l-5.426-1.356z" fill="#fff"/><path d="M14.633 20.244a.551.551 0 01-.415-.515l-.236-6.964c-.068-.922-.752-1.655-1.467-1.87a.096.096 0 00-.107.038.082.082 0 00.019.11c.177.137.662.583.662 1.352l-.001 7.458 1.545.391zm5.112-2.101a.548.548 0 01-.415-.513l-.236-6.963c-.069-.922-.753-1.655-1.468-1.87a.096.096 0 00-.107.038.082.082 0 00.02.11c.176.136.662.582.662 1.352l-.002 7.46 1.546.386z" fill="#291F2F"/></svg>