<svg width="70" height="53" fill="none" xmlns="http://www.w3.org/2000/svg"><path d="M7.88 44.635c-.19-.698-.57-2.052-2.565-2.052-1.159 0-2.91.83-2.91 4.093 0 2.072.875 3.992 2.91 3.992 1.34 0 2.28-.808 2.565-2.226h2.408c-.477 2.518-2.119 4.269-5.017 4.269C2.2 52.71 0 50.62 0 46.643c0-4.046 2.326-6.098 5.301-6.098 3.46 0 4.855 2.387 4.987 4.09H7.88zm5.356 2.456l2.83-3.25h2.758l-3.01 3.31 3.09 5.258h-2.693l-2.042-3.68-.933.974v2.706H10.99v-8.568h2.246v3.25z" fill="#736979"/><path d="M27.124 48.108c0 3.089-2.071 4.526-4.365 4.526-2.29 0-4.379-1.416-4.379-4.506 0-3.092 2.089-4.51 4.379-4.51 2.294 0 4.365 1.401 4.365 4.49zm-6.434 0c0 1.098.333 2.626 2.069 2.626s2.055-1.511 2.055-2.606c0-1.1-.319-2.612-2.055-2.612-1.736 0-2.069 1.494-2.069 2.592zm14.876-4.268v8.57H33.32v-6.767h-2.404v2.643c0 3.277-.987 4.31-2.566 4.31-.392 0-1.034-.063-1.366-.187v-1.675c.046.033.332.064.664.064.675 0 1.025-.333 1.025-2.942V43.84h6.893zm3.391 3.251l2.83-3.25h2.757l-3.012 3.31 3.093 5.258h-2.693l-2.038-3.68-.937.974v2.706H36.71v-8.568h2.247v3.25z" fill="#736979"/><path d="M52.845 48.108c0 3.089-2.068 4.526-4.361 4.526-2.294 0-4.379-1.416-4.379-4.506 0-3.092 2.085-4.51 4.379-4.51 2.293 0 4.361 1.401 4.361 4.49zm-6.43 0c0 1.098.333 2.626 2.069 2.626 1.728 0 2.058-1.511 2.058-2.606 0-1.1-.33-2.612-2.058-2.612-1.736 0-2.069 1.494-2.069 2.592zm7.159-4.268h3.868c1.914 0 3.313.783 3.313 2.214 0 .987-.7 1.621-1.595 1.846.877.21 1.85.769 1.85 2.17 0 1.587-1.201 2.34-3.142 2.34h-4.294v-8.57zm2.242 3.47h1.464c.746 0 1.274-.299 1.274-.97 0-.7-.508-.954-1.257-.954h-1.48v1.923zm0 3.555h1.652c.83 0 1.344-.255 1.344-1.101 0-.749-.541-1.095-1.37-1.095h-1.626v2.197zM70 48.108c0 3.089-2.066 4.526-4.362 4.526-2.291 0-4.383-1.416-4.383-4.506 0-3.092 2.092-4.51 4.383-4.51 2.296 0 4.361 1.401 4.361 4.49zm-6.434 0c0 1.098.338 2.626 2.072 2.626 1.735 0 2.051-1.511 2.051-2.606 0-1.1-.316-2.612-2.051-2.612-1.734 0-2.072 1.494-2.072 2.592zm-47.234-9.5c1.914 0 6.628-.335 10.15-2.907v1.95h7.108l.007-8.579L36.566 26l6.46 11.652h8.529l-9.787-16.649L51.3 10.511h-8.73l-8.972 10.295V1.029h-7.114v3.128C24.316 1.831 20.804.072 15.328.072 3.475.072 1.25 7.283 1.25 11.32c0 5.547 2.982 8.63 8.176 9.889l7.364 1.813c3.884.96 6.661 1.665 6.661 4.54 0 3.834-4.039 4.74-7.672 4.74-6.659 0-7.767-3.881-7.767-5.949H.695c0 4.54 2.32 12.255 15.637 12.255zm4.845-21.838l-8.925-2.173c-1.517-.352-3.889-.96-3.889-3.831 0-3.28 3.483-4.392 6.408-4.392 6.658 0 7.266 3.888 7.464 5.55h4.248v6.827c-1.559-.91-3.398-1.501-5.306-1.981z" fill="#736979"/></svg>