<svg width="289" height="56" fill="none" xmlns="http://www.w3.org/2000/svg"><path d="M28.17 3.55c-3.097 0-6.944 1.913-8.377 3.26l.563 1.28s-4.366.059-6.616 1.507c-2.25 1.449-3.276 2.434-4.384 4.773-1.11.053-5.27 1.819-7.68 3.594 0 0-2.026 7.667 1.81 10.976l-2.421 3.324c.61 2.094 3.248 4.22 5.869 4.474 1.18 1.43-1.108 4.269-1.108 4.269.968 3.073 7.487 6.451 11.38 6.451l-.536 1.81s4.337 3.158 11.335 2.863c5.916.192 10.727-1.221 11.948-2.863l-.618-1.81c5.403-.805 9.484-2.566 11.755-6.306 0 0-1.69-3.555-1.1-4.447 2.62-.253 5.071-2.835 5.723-3.962l-2.378-3.742c1.896-2.13 2.958-7.749 1.564-11.037-2.41-1.775-6.53-3.219-7.64-3.272-.44-2.597-3.266-4.628-3.266-4.628-2.677-2.328-7.545-1.974-7.545-1.974l.395-1.28c-1.24-1.384-5.16-3.26-8.673-3.26z" fill="#fff"/><path d="M20.95 10.82c-3.099-.789-5.434.291-7.455 1.777-2.025 1.49-2.824 3.42-2.646 4.11-1.656-.678-5.292 1.425-7.023 2.433 0 0-1.339 6.551 2.085 9.086-.178 1.78-1.434 3.916-2.085 4.316 1.129 1.78 3.52 2.267 4.533 1.814 1.693 2.344.875 5.52-.066 6.533 2.632 2.376 8.91 3.372 10.748 3.52 0 0-1.619-3.793-2.341-6.919-1.998-8.639-.923-19.418-.923-19.418s-4.665 5.43-2.064 18.524c.439 2.21 1.06 4.548 1.06 4.548-.434-.215-1.49-.085-3.431-1.067.832-.896.474-6.209-1.977-8.815 0 0-1.165.538-2.021.181.575-.353 1.295-2.611 1.295-4.339-2.771-1.656-2.477-4.65-2.34-6.224 1.36-.883 3.798-2.384 6.866-1.073-.08-.744.13-2.722.971-4.107 0 0 1.025-1.783 3.34-2.342 2.314-.56 3.474-2.538 3.474-2.538zm14.878 0c3.098-.789 5.434.291 7.455 1.777 2.025 1.49 2.824 3.42 2.646 4.11 1.656-.678 5.292 1.425 7.022 2.433 0 0 1.34 6.551-2.084 9.086.178 1.78 1.433 3.916 2.084 4.316-1.128 1.78-3.52 2.267-4.532 1.815-1.693 2.343-.875 5.52.065 6.532-2.63 2.376-8.909 3.372-10.747 3.52 0 0 1.618-3.793 2.341-6.919 1.997-8.639.922-19.418.922-19.418s4.666 5.43 2.065 18.524c-.439 2.21-1.06 4.548-1.06 4.548.433-.215 1.49-.085 3.43-1.067-.831-.896-.473-6.209 1.977-8.815 0 0 1.166.538 2.022.181-.576-.353-1.295-2.611-1.295-4.339 2.771-1.656 2.477-4.65 2.34-6.224-1.36-.883-3.798-2.384-6.866-1.073.08-.744-.13-2.721-.971-4.107 0 0-1.025-1.783-3.34-2.342-2.315-.56-3.474-2.537-3.474-2.537z" fill="#333"/><path fill-rule="evenodd" clip-rule="evenodd" d="M28.642 15.868c-2.231-.008-5.177.585-5.177.585l-.885-8.81 5.955-1.8 5.663 1.8-.485 8.81s-2.877-.577-5.071-.585zm0-2.512c-1.237-.033-2.83.19-2.83.19l-.363-4.174 3.086-.837 3.064.837v4.175s-1.695-.158-2.957-.191zm-.284 35.994c5.155-.06 8.455-1.596 8.455-1.596l-2.016-6.331s-4.325 1.253-6.408 1.255c-2.084-.002-6.34-1.255-6.34-1.255l-2.084 6.33s3.238 1.536 8.393 1.597zm.03-2.113c2.936-.012 4.75-.614 5.733-1.013l-.538-2.17c-1.215.399-3.323.84-5.194.855-1.872-.016-3.992-.344-5.207-.743l-.47 2.058c.985.399 2.741 1.001 5.677 1.013zm10.436-28.008h-20.87c.162.225.82 1.32 1.055 1.952.236.634.41 1.273.417 1.667.007.312.045 1.28.094 2.547v.012c.1 2.511.244 6.202.285 8.383.018.962.231 2.237 1.003 3.28.786 1.061 2.113 1.832 4.246 1.832h1.5c.148 0 .25.038.331.093a.9.9 0 01.246.281c.08.132.164.317.243.492.07.16.15.338.244.5.032.043.161.215.282.292.129.082.29.13.489.13a.92.92 0 00.495-.13c.122-.075.244-.25.279-.292a5.37 5.37 0 00.265-.515c.077-.176.153-.348.232-.48a.872.872 0 01.238-.279.541.541 0 01.325-.092h1.5c2.134 0 3.46-.77 4.246-1.833.772-1.042.986-2.318 1.004-3.28.04-2.18.185-5.87.284-8.381v-.012c.05-1.266.088-2.236.094-2.548.008-.394.182-1.033.418-1.667.235-.632.893-1.727 1.055-1.952zm-16.898 2.955a8.216 8.216 0 00-.08-.384H34.99a3.257 3.257 0 00-.082.386 7.611 7.611 0 00-.055.796c-.102 2.568-.308 7.917-.308 10.578 0 1.097-.354 1.807-.822 2.24-.473.437-1.099.623-1.693.604-.08-.003-.238-.006-.407-.008-.226-.004-.472-.008-.57-.013-.598-.027-1.179 0-1.684.139a2.32 2.32 0 00-.976.514c-.637-.63-1.665-.907-2.716-.859-.099.005-.369.009-.62.012l-.457.008c-1.118.036-2.25-.89-2.25-2.638 0-2.906-.188-7.784-.285-10.288 0 0-.07-.713-.14-1.087z" fill="#333"/><path d="M21.817 21.8c.028.119.055.25.08.384.069.374.139 1.087.139 1.087.097 2.504.285 7.382.285 10.289 0 1.747 1.132 2.673 2.25 2.637l.457-.008c.25-.003.52-.007.619-.012 1.052-.048 2.08.23 2.717.859a2.33 2.33 0 01.975-.514c.506-.139 1.087-.166 1.685-.139.098.005.343.009.57.013.169.003.328.005.407.008.594.019 1.22-.167 1.693-.605.468-.432.822-1.142.822-2.24 0-2.66.206-8.009.308-10.577 0 0 .008-.49.055-.796a3.2 3.2 0 01.082-.385H21.817z" fill="#FFDD2D"/><path d="M83.217 38.278V23.394h8.785v-5.416H68.035v5.416h8.785v14.884h6.397zm17.528-8.487V17.978h-6.183v20.3h5.459l10.661-11.813v11.813h6.184v-20.3h-5.459l-10.662 11.813zm36.924.938v7.549h6.183v-20.3h-6.183v7.42h-9.937v-7.42h-6.183v20.3h6.183v-7.549h9.937zm23.404 7.549c1.407 0 2.687-.128 3.881-.47 3.198-.895 5.288-3.497 5.288-7.036 0-3.37-1.791-5.715-4.648-6.78-1.365-.512-2.986-.555-4.521-.555h-6.354v-5.459h-6.184v20.3h12.538zm-1.066-10.065c.853 0 1.663 0 2.388.256 1.024.341 1.621 1.194 1.621 2.217 0 1.067-.597 1.962-1.578 2.389-.683.298-1.365.298-2.431.298h-5.288v-5.16h5.288zm21.322 2.388l7.378 7.677h8.23L186.66 27.7l9.893-9.723h-7.761l-7.463 7.634h-1.706v-7.634h-6.184v20.3h6.184V30.6h1.706zm28.332-13.177c-8.316 0-13.305 4.69-13.305 10.746s4.989 10.747 13.305 10.747c8.273 0 13.263-4.69 13.263-10.747 0-6.055-4.99-10.746-13.263-10.746zm0 16.546c-4.137 0-6.781-2.473-6.781-5.8 0-3.326 2.644-5.757 6.781-5.757 4.094 0 6.781 2.431 6.781 5.757 0 3.327-2.687 5.8-6.781 5.8zm33.856-17.143h-6.183v2.047c-7.762.17-12.41 3.454-12.41 9.254 0 5.8 4.648 8.828 12.41 8.998v2.047h6.183v-2.047c7.804-.17 12.453-3.198 12.453-8.998 0-5.8-4.649-9.084-12.453-9.254v-2.047zm-6.183 15.95c-4.265-.171-6.141-1.92-6.141-4.65 0-2.729 1.876-4.69 6.141-4.86v9.51zm6.183-9.51c4.308.17 6.141 2.131 6.141 4.86 0 2.73-1.833 4.479-6.141 4.65v-9.51zm33.026-6.44h-6.184v2.047c-7.761.17-12.41 3.454-12.41 9.254 0 5.8 4.649 8.828 12.41 8.998v2.047h6.184v-2.047c7.803-.17 12.452-3.198 12.452-8.998 0-5.8-4.649-9.084-12.452-9.254v-2.047zm-6.184 15.95c-4.265-.171-6.141-1.92-6.141-4.65 0-2.729 1.876-4.69 6.141-4.86v9.51zm6.184-9.51c4.307.17 6.141 2.131 6.141 4.86 0 2.73-1.834 4.479-6.141 4.65v-9.51z" fill="#333"/></svg>