<svg width="24" height="17" fill="none" xmlns="http://www.w3.org/2000/svg"><path d="M0 1.455A.836.836 0 01.836.6h3.837c.456 0 .827.365.836.82C5.605 6.433 7.4 8.86 9 9.822V1.437C9 .976 9.374.6 9.836.6h3.603c.461 0 .836.375.836.837V5.84c.576-.258 1.174-.694 1.737-1.287a8.259 8.259 0 001.92-3.355c.1-.36.43-.609.804-.609h3.591a.837.837 0 01.82 1.004 11.466 11.466 0 01-4.142 6.712 11.844 11.844 0 014.966 6.832.836.836 0 01-.808 1.054h-3.959a.836.836 0 01-.796-.58c-.666-2.076-2.171-3.683-4.133-4.226v3.97a.837.837 0 01-.836.836h-.446c-4.019 0-7.26-1.383-9.506-3.987C1.258 9.621.092 5.93 0 1.455z" fill="#874AB0"/></svg>