<svg width="134" height="36" fill="none" xmlns="http://www.w3.org/2000/svg"><path fill-rule="evenodd" clip-rule="evenodd" d="M52.318 13.595C52.318 6.093 58.4.01 65.902.01h3.671c7.502 0 13.584 6.082 13.584 13.584v8.81c0 7.502-6.082 13.584-13.584 13.584h-3.671c-7.502 0-13.584-6.082-13.584-13.584v-8.81zm16.156-6.609l-6.242 20.192c-2.202-1.101-2.465-12.85-1.1-16.337 1.651-4.222 5.507-4.528 7.342-3.855zm4.77 1.469l-6.242 20.192c1.836.673 5.692.367 7.343-3.855 1.365-3.488 1.102-15.236-1.101-16.337z" fill="#291F2F"/><path d="M7.164.745H.867a.734.734 0 00-.725.855l.214 1.284a.734.734 0 00.033.125l5.301 14.9 5.525 16.84c.099.302.38.506.698.506h5.732a.734.734 0 00.696-.5l5.89-17.49 5.707 17.302c.099.301.38.504.697.504h6.273c.32 0 .604-.207.7-.513L47.975 1.701a.734.734 0 00-.7-.956H41.12a.734.734 0 00-.706.532L33.408 25.71 26.04 1.268a.734.734 0 00-.703-.523h-6.13a.734.734 0 00-.694.976l2.33 6.681c.054.153.055.32.004.474L15.236 25.71 7.867 1.268a.734.734 0 00-.703-.523zm85.723 0h-6.298a.734.734 0 00-.724.855l.214 1.284a.734.734 0 00.033.125l5.301 14.9 5.525 16.84c.099.302.38.506.697.506h5.733a.735.735 0 00.696-.5l5.889-17.49 5.707 17.302c.1.301.381.504.698.504h6.273c.32 0 .604-.207.7-.513l10.367-32.857a.734.734 0 00-.7-.956h-6.155a.734.734 0 00-.706.532l-7.006 24.433-7.369-24.442a.734.734 0 00-.703-.523h-6.13a.734.734 0 00-.693.976l2.33 6.681c.054.153.055.32.003.474l-5.611 16.834L93.59 1.268a.734.734 0 00-.703-.523z" fill="#291F2F"/></svg>