<svg width="115" height="32" fill="none" xmlns="http://www.w3.org/2000/svg"><path fill-rule="evenodd" clip-rule="evenodd" d="M45.477 13.618C45.477 6.373 51.352.5 58.596.5c7.245 0 13.118 5.873 13.118 13.118v4.764c0 7.245-5.873 13.118-13.118 13.118-7.244 0-13.117-5.873-13.117-13.118v-4.764zM59.22 6.51l-5.31 17.398c-1.874-.949-2.098-11.071-.937-14.076C54.38 6.194 57.66 5.93 59.22 6.51zm4.06 1.266l-5.31 17.398c1.562.58 4.842.316 6.247-3.322 1.161-3.005.937-13.127-.937-14.076z" fill="#00AEED"/><path d="M6.915 1.133H1.944a.825.825 0 00-.814.96l.142.866c.008.048.02.095.036.14l4.505 12.822 4.656 14.375c.11.34.427.572.785.572h4.582a.825.825 0 00.784-.566l4.965-14.934 4.812 14.772c.11.34.428.57.785.57h5.04c.361 0 .68-.236.788-.58l8.7-27.926a.825.825 0 00-.789-1.071h-4.813a.825.825 0 00-.794.6l-5.92 20.91-6.228-20.92a.825.825 0 00-.79-.59h-4.787a.825.825 0 00-.78 1.094l1.875 5.444a.82.82 0 01.003.527l-4.754 14.445-6.227-20.92a.825.825 0 00-.79-.59zm72.928 0h-4.971a.825.825 0 00-.815.96l.143.866c.008.048.02.095.036.14l4.504 12.822 4.657 14.375c.11.34.427.572.785.572h4.582a.825.825 0 00.784-.566l4.965-14.934 4.812 14.772c.11.34.427.57.785.57h5.04c.361 0 .68-.236.788-.58l8.699-27.926a.825.825 0 00-.788-1.071h-4.813a.825.825 0 00-.794.6l-5.921 20.91-6.227-20.92a.825.825 0 00-.79-.59h-4.787a.825.825 0 00-.78 1.094l1.875 5.444c.058.17.06.356.003.527l-4.754 14.445-6.227-20.92a.825.825 0 00-.791-.59z" fill="#00AEED"/></svg>