<svg width="56" height="56" fill="none" xmlns="http://www.w3.org/2000/svg"><path d="M4.755 28c0-12.887 10.444-23.333 23.333-23.333 12.885 0 23.334 10.446 23.334 23.333 0 12.887-10.449 23.334-23.334 23.334-12.89 0-23.333-10.447-23.333-23.334z" fill="#291F2F"/><path d="M31.075 17.887H28.92c-3.953 0-6.032 2.003-6.032 4.954 0 3.337 1.438 4.9 4.39 6.905l2.438 1.642-7.007 10.47h-5.236l6.288-9.366c-3.617-2.592-5.647-5.11-5.647-9.368 0-5.34 3.722-8.984 10.78-8.984H35.9v27.692h-4.825V17.887z" fill="#fff"/></svg>