<svg width="81" height="81" fill="none" xmlns="http://www.w3.org/2000/svg"><path d="M7.297 40.5c0-18.41 14.92-33.333 33.333-33.333 18.407 0 33.333 14.923 33.333 33.333 0 18.41-14.926 33.334-33.333 33.334-18.413 0-33.333-14.924-33.333-33.334z" fill="#FC3F1D"/><path d="M44.898 26.053h-3.08c-5.646 0-8.616 2.86-8.616 7.077 0 4.767 2.053 7 6.27 9.863l3.483 2.347-10.01 14.957h-7.48l8.983-13.38c-5.166-3.703-8.067-7.3-8.067-13.384 0-7.626 5.317-12.833 15.4-12.833h10.01v39.56h-6.893V26.054z" fill="#fff"/></svg>