<svg width="24" height="25" fill="none" xmlns="http://www.w3.org/2000/svg"><path d="M23.76 7.59s-.233-1.654-.955-2.38c-.914-.957-1.936-.962-2.405-1.018-3.356-.244-8.395-.244-8.395-.244h-.01s-5.039 0-8.395.244c-.469.056-1.49.061-2.405 1.017-.722.727-.951 2.382-.951 2.382S0 9.536 0 11.477v1.818c0 1.941.24 3.886.24 3.886s.233 1.655.95 2.381c.915.957 2.115.924 2.65 1.027 1.92.183 8.16.24 8.16.24s5.044-.01 8.4-.25c.469-.056 1.49-.06 2.405-1.017.722-.726.956-2.38.956-2.38S24 15.24 24 13.294v-1.818c0-1.941-.24-3.886-.24-3.886zM9.52 15.504V8.758l6.483 3.384-6.483 3.361z" fill="#874AB0"/></svg>