<svg viewBox="0 0 37 33" xmlns="http://www.w3.org/2000/svg" xmlns:xlink="http://www.w3.org/1999/xlink"><style>:root&gt;svg{display:none}:root&gt;svg:target{display:block}</style><svg viewBox="0 0 32 32" id="all" xmlns="http://www.w3.org/2000/svg"><path d="M30.246 21.284a1.718 1.718 0 01-1.235-.534 1.853 1.853 0 01-.511-1.285c0-.481.185-.943.513-1.283a1.72 1.72 0 011.236-.533c.463 0 .908.19 1.236.53.329.34.514.802.515 1.284 0 .483-.185.946-.514 1.288a1.722 1.722 0 01-1.24.534zm0-3.134c-.336 0-.659.139-.897.386a1.343 1.343 0 00-.371.93c0 .35.133.685.371.932s.56.386.897.386c.337 0 .659-.139.897-.386s.371-.582.371-.931a1.342 1.342 0 00-.37-.934 1.245 1.245 0 00-.898-.387v.004zm-14.14 6.79a3.735 3.735 0 011.976-2.335c.928-.369 2.247-.39 2.508-1.382a3.153 3.153 0 00-.134-1.346c-.308-1.826 1.082-3.783 2.852-4.066a1.53 1.53 0 011.28.267c.396.353.463.96.463 1.501a2.99 2.99 0 00.257 1.584c.268.435 1.141.628 1.473.254a12.748 12.748 0 00-.482-8.238l-.126.074-1.506.989c-.324.213-.734.43-1.07.242a1.334 1.334 0 01-.419-.521c-.646-1.051-1.758-1.693-2.959-1.707-.75 0-1.647.205-2.133-.386a2.29 2.29 0 01-.336-1.304c-.114-1.46-1.584-3.643-2.343-4.874-2.44 0-4.823.782-6.82 2.24a12.265 12.265 0 00-4.336 5.908l.07-.054a7.246 7.246 0 014.959.152 3 3 0 001.082.275c.238-.01.47-.074.68-.189.925-.484 1.406-1.64 2.37-2.051 1.205-.587 2.785.587 2.699 1.97-.115 1.583-1.976 2.892-1.427 4.377.206.566.72.936 1.08 1.415.359.48.52 1.256.062 1.641-.56.452-1.466-.143-2.066.25-.364.243-.454.743-.684 1.125-.6.992-2.33.783-2.694-.329-.174-.537-.09-1.23-.502-1.587-.58-.53-1.453.061-1.999.627l-2.635 2.733-.063.04a12.083 12.083 0 004.334 4.449 11.513 11.513 0 005.89 1.624h.273l-.028-.193a11.63 11.63 0 01.454-3.176z"/><path d="M15.407 28.718a11.954 11.954 0 01-6.083-1.69 12.54 12.54 0 01-4.48-4.595l-.19-.337.34-.233L7.6 19.159c.936-.972 1.908-1.23 2.536-.648.32.337.508.784.53 1.255.02.174.054.346.102.513.178.374.526.63.925.678a1.16 1.16 0 001.05-.436 3.06 3.06 0 00.174-.357c.12-.352.34-.66.629-.882.391-.21.842-.27 1.272-.168.253.072.522.05.762-.062a.357.357 0 00.123-.25 1.215 1.215 0 00-.257-.82 5.523 5.523 0 00-.395-.41 3.245 3.245 0 01-.763-1.092c-.395-1.03.154-1.932.668-2.802.381-.525.64-1.134.758-1.78a1.734 1.734 0 00-.7-1.359 1.6 1.6 0 00-1.469-.225c-.42.24-.79.564-1.086.956a4.53 4.53 0 01-1.248 1.103 1.91 1.91 0 01-.846.234 2.877 2.877 0 01-1.09-.246l-.13-.053a6.835 6.835 0 00-4.642-.168l-1.075.865.45-1.305a12.706 12.706 0 014.485-6.097 11.969 11.969 0 017.043-2.321h.217l.396.627c.853 1.358 2.022 3.221 2.129 4.62v.107a1.78 1.78 0 00.237.964c.265.32.79.291 1.36.258h.473c1.344.004 2.593.72 3.31 1.9l.044.078a.91.91 0 00.23.303c.173.099.549-.147.671-.23l1.647-1.074.396-.226.173.41a13.176 13.176 0 01.482 8.509l-.027.095-.063.073a1.111 1.111 0 01-.965.32 1.51 1.51 0 01-1.13-.632 3.056 3.056 0 01-.32-1.67v-.135c0-.623-.102-.989-.327-1.19a1.225 1.225 0 00-.964-.172 3.07 3.07 0 00-2.003 1.346 3.07 3.07 0 00-.526 2.24c0 .098.04.197.063.3.122.397.143.821.064 1.23-.253.96-1.186 1.21-1.995 1.428a6.896 6.896 0 00-.755.23 3.303 3.303 0 00-1.754 2.088c-.28.977-.426 1.991-.43 3.011l.086.615h-.54l-.179.013zm-9.714-6.416c2.074 3.428 5.678 5.534 9.576 5.596.01-1.05.168-2.091.466-3.094a4.103 4.103 0 012.216-2.58c.275-.103.554-.189.838-.259.79-.217 1.308-.381 1.43-.849a1.853 1.853 0 00-.071-.82c-.024-.111-.051-.222-.071-.333a3.917 3.917 0 01.66-2.872c.59-.89 1.5-1.496 2.524-1.682.559-.132 1.145 0 1.6.361.537.48.6 1.264.6 1.814v.135c-.045.421.022.847.194 1.231.14.155.333.248.537.258a.559.559 0 00.261-.028 12.332 12.332 0 00-.328-7.385l-1.228.82c-.265.176-.89.587-1.47.255a1.5 1.5 0 01-.514-.628l-.04-.07a3.11 3.11 0 00-2.634-1.506h-.435c-.66.037-1.481.082-1.999-.545a2.43 2.43 0 01-.422-1.424v-.102C17.291 7.4 16.142 5.57 15.38 4.357l-.158-.255a11.196 11.196 0 00-6.13 1.994 11.83 11.83 0 00-4.142 5.1 7.705 7.705 0 014.484.352l.138.053a2.3 2.3 0 00.79.202 1.15 1.15 0 00.51-.144 3.905 3.905 0 001.023-.927 4.243 4.243 0 011.347-1.149 2.359 2.359 0 012.246.303 2.558 2.558 0 011.033 2.093 4.969 4.969 0 01-.845 2.117c-.454.767-.845 1.428-.604 2.084.142.311.342.59.588.82.152.158.296.324.43.497.293.39.436.88.4 1.375-.025.322-.178.62-.423.82-.398.258-.88.34-1.335.226a1.24 1.24 0 00-.763.045 1.237 1.237 0 00-.336.55 3.6 3.6 0 01-.201.443 1.972 1.972 0 01-1.13.774 1.91 1.91 0 01-1.343-.162 2.02 2.02 0 01-.928-1.023 3.878 3.878 0 01-.155-.656 1.313 1.313 0 00-.252-.76c-.368-.331-1.087.226-1.458.612l-2.473 2.56zm23.245-.025l.542.25c.1-.248.202-.51.308-.783l-.553-.21c-.093.25-.191.497-.297.743zM30.222 16v.504h.592v-.525c0-.385 0-.775-.039-1.157l-.592.046c.027.385.039.758.039 1.132zM3.121 6.347c-.326.448-.63.913-.909 1.395l.506.32c.27-.463.562-.91.877-1.342l-.474-.373zm-.292 18.897c.313.458.65.899 1.007 1.32l.447-.41c-.344-.406-.667-.83-.968-1.272l-.486.361zm2.137 2.523c.398.38.814.739 1.248 1.075l.356-.493a15.116 15.116 0 01-1.185-1.034l-.42.452zM7.992 1.973c-.474.275-.934.574-1.378.899l.34.504a14.78 14.78 0 011.342-.865l-.304-.538zM5.72 4.357l-.395-.464c-.414.367-.81.756-1.185 1.165l.431.41c.364-.39.748-.762 1.15-1.111zM.869 18.98l-.58.118c.103.554.235 1.102.394 1.641l.565-.18c-.153-.52-.28-1.047-.379-1.58zm.375 3.33c.218.517.462 1.02.731 1.51l.518-.3a15.693 15.693 0 01-.691-1.452l-.558.242zM.592 16v-.242H0v.255c0 .476.02.956.06 1.427l.588-.053A18.165 18.165 0 01.592 16zm29.077-6.06a16.268 16.268 0 00-.691-1.522l-.534.292c.248.475.47.964.668 1.464l.557-.233zm.324 3.34l.585-.107c-.095-.553-.218-1.1-.368-1.64l-.58.168c.147.519.269 1.046.363 1.579zm-1.857-6.306c-.305-.463-.634-.91-.984-1.337l-.45.41c.338.41.656.837.952 1.28l.482-.353zM.968 12.546l-.573-.135c-.12.541-.215 1.09-.28 1.64l.588.074c.062-.53.15-1.058.265-1.58v.001zM1.975 9.49l-.537-.263c-.23.51-.433 1.03-.609 1.563l.561.2c.17-.51.365-1.011.585-1.5zm5.59 20.287c.466.286.946.546 1.438.78l.245-.558a14.599 14.599 0 01-1.382-.751l-.3.53zm15.19-.415l.297.534c.469-.279.924-.583 1.363-.911l-.348-.5c-.422.316-.86.609-1.312.877zm3.284-24.944a15.78 15.78 0 00-1.229-1.095l-.363.488c.412.33.808.682 1.185 1.055l.407-.448zM10.978.673c-.518.158-1.029.344-1.529.558l.23.566c.479-.208.968-.39 1.465-.546l-.166-.578zm8.929 29.99l.182.586c.516-.17 1.022-.369 1.517-.595l-.237-.562a14.38 14.38 0 01-1.462.57zm7.466-5.588l.478.36c.32-.453.617-.924.89-1.41l-.514-.308a15.49 15.49 0 01-.854 1.358zm-2.089 2.412l.395.46c.402-.374.786-.77 1.15-1.186l-.44-.41a15.39 15.39 0 01-1.105 1.136zM20.543.91c-.51-.186-1.03-.345-1.556-.475l-.139.599c.507.125 1.007.279 1.498.46l.197-.584zm2.927 1.453a15.29 15.29 0 00-1.426-.82l-.256.553c.47.233.93.492 1.375.776l.308-.51zM10.513 31.18c.518.18 1.046.33 1.58.451l.126-.599a14.4 14.4 0 01-1.501-.43l-.205.578zm6.344.131l.055.611a14.943 14.943 0 001.604-.25l-.118-.603a14.31 14.31 0 01-1.541.242zM14.163.053c-.54.045-1.076.119-1.608.222l.11.603c.516-.1 1.035-.17 1.557-.214l-.06-.61zm3.22.078a15.054 15.054 0 00-1.6-.131v.615c.52.013 1.04.054 1.556.123l.044-.607zm-3.706 31.77a15.12 15.12 0 001.62.099v-.616a14.22 14.22 0 01-1.557-.094l-.063.611z"/><path d="M15.34 28.718l-.083-.595v-.04a11.89 11.89 0 01.475-3.283 4.104 4.104 0 012.216-2.58c.274-.103.554-.19.837-.259.79-.217 1.308-.381 1.43-.85a1.86 1.86 0 00-.07-.82c-.024-.11-.052-.221-.072-.332a3.916 3.916 0 01.66-2.872 3.86 3.86 0 012.524-1.682c.559-.132 1.145 0 1.6.361.538.48.6 1.264.6 1.814v.135c-.045.42.022.847.194 1.23.14.156.333.248.538.259a.42.42 0 00.312-.062l1.126-1.255-.459 1.64v.001c-.714 2.606-2.215 4.906-4.281 6.56a11.905 11.905 0 01-7.199 2.63h-.348zm8.364-12.53c-.108 0-.215.009-.32.025a3.071 3.071 0 00-2.003 1.346 3.07 3.07 0 00-.526 2.24c0 .098.04.197.063.3.122.398.143.821.063 1.23-.253.96-1.185 1.21-1.995 1.428a6.943 6.943 0 00-.754.23 3.305 3.305 0 00-1.754 2.088 10.38 10.38 0 00-.42 2.798 11.135 11.135 0 006.213-2.333 11.813 11.813 0 003.921-5.52h-.07a1.51 1.51 0 01-1.13-.631 3.06 3.06 0 01-.32-1.67v-.136c0-.623-.103-.988-.329-1.19a.964.964 0 00-.64-.205zM5.057 22.806l-.214-.373a13.06 13.06 0 01-1.63-5.255 13.174 13.174 0 01.666-5.478l.04-.114.217-.173.067-.02a7.656 7.656 0 015.207.155l.139.053a2.3 2.3 0 00.79.202c.178-.008.352-.057.51-.144a3.905 3.905 0 001.022-.927 4.243 4.243 0 011.348-1.149 2.358 2.358 0 012.246.303 2.558 2.558 0 011.033 2.093 4.967 4.967 0 01-.846 2.117c-.454.767-.845 1.428-.604 2.084.142.311.342.59.588.82.152.158.296.324.431.497.301.387.452.878.423 1.375-.025.322-.178.62-.423.82a1.69 1.69 0 01-1.335.226 1.24 1.24 0 00-.763.045 1.237 1.237 0 00-.336.55 3.6 3.6 0 01-.201.443 1.972 1.972 0 01-1.13.774 1.91 1.91 0 01-1.343-.162 2.02 2.02 0 01-.928-1.023 3.87 3.87 0 01-.154-.656 1.313 1.313 0 00-.253-.759c-.368-.332-1.087.226-1.458.611L5.4 22.568l-.343.238zM4.57 12.139a12.312 12.312 0 00.71 9.437l2.32-2.405c.936-.972 1.908-1.23 2.536-.648.316.334.505.776.53 1.243.02.174.054.345.102.513.178.374.525.63.925.678a1.16 1.16 0 001.05-.436 3.06 3.06 0 00.174-.357c.12-.353.34-.66.629-.882.391-.21.842-.27 1.271-.168.254.072.523.05.763-.062a.357.357 0 00.122-.25 1.215 1.215 0 00-.256-.82 5.562 5.562 0 00-.395-.41 3.244 3.244 0 01-.763-1.092c-.395-1.03.154-1.932.668-2.802.381-.525.64-1.135.758-1.78a1.734 1.734 0 00-.7-1.359 1.6 1.6 0 00-1.469-.225c-.42.24-.79.564-1.086.956a4.54 4.54 0 01-1.248 1.103 1.92 1.92 0 01-.846.234 2.875 2.875 0 01-1.09-.246l-.13-.053a6.832 6.832 0 00-4.575-.173v.004zm19.327.83a.954.954 0 01-.474-.123 1.493 1.493 0 01-.51-.604l-.04-.07v.001a3.11 3.11 0 00-2.634-1.506h-.435c-.66.037-1.481.082-1.999-.546a2.43 2.43 0 01-.423-1.423v-.103c-.09-1.194-1.24-3.023-2.003-4.238l-.695-1.075h.723c2.402 0 4.751.732 6.755 2.107a12.617 12.617 0 014.516 5.627l.139.336-.435.255-1.494.98a1.93 1.93 0 01-.991.382zm-3.658-3.122c1.334.016 2.57.73 3.286 1.9l.044.077c.055.117.133.22.23.304.173.098.548-.148.67-.23l1.34-.882a11.794 11.794 0 00-3.918-4.824 11.18 11.18 0 00-5.741-2.064c.837 1.333 1.888 3.077 1.975 4.402v.107c-.014.338.069.673.237.964.265.32.79.29 1.36.258h.473l.044-.012z"/></svg><svg viewBox="0 0 32 32" id="city" xmlns="http://www.w3.org/2000/svg"><path d="M9.936 2.865H7.373c-.176-.818-.843-1.45-1.65-1.45H1.685C.737 1.416 0 2.234 0 3.238c0 1.003.772 1.82 1.685 1.82h2.282c.176.818.843 1.45 1.65 1.45h4.319c.948 0 1.685-.818 1.685-1.821.035-.966-.737-1.821-1.685-1.821zm.667 1.858c0 .409-.281.706-.667.706H5.617c-.35 0-.667-.334-.667-.706 0-.409-.28-.706-.667-.706H1.65c-.351 0-.667-.334-.667-.706a.92.92 0 01.175-.52.554.554 0 01.457-.223h4.002c.351 0 .667.334.667.706 0 .186.07.371.176.52.105.149.28.223.457.223H9.83a.692.692 0 01.772.706zm14.902 11.223c.842 0 1.58-.632 1.72-1.524h3.02c.983 0 1.755-.817 1.755-1.858v-.037c0-1.04-.772-1.858-1.756-1.858h-5.793c-.842 0-1.58.632-1.72 1.524h-.808v-3.16c0-.296-.245-.556-.526-.556h-1.615c-.281 0-.492-.223-.492-.52V4.834c0-.298-.246-.558-.526-.558h-1.335c-.316 0-.561-.26-.561-.594V.56c0-.297-.211-.557-.457-.557-.316-.038-.562.222-.562.557v3.121c0 .335-.246.595-.562.595h-1.334c-.28 0-.526.26-.526.557v3.122c0 .297-.21.52-.492.52H11.32c-.28 0-.527.26-.527.558v12.263c-.842-1.19-2.071-2.044-3.51-2.304-.211-.037-.352-.223-.352-.446V15.5c0-.297-.21-.557-.456-.557-.316-.037-.562.223-.562.557v3.047c0 .223-.14.41-.351.446C2.964 19.44.997 21.818.997 24.68v6.764c0 .297.246.557.527.557.28 0 .527-.26.527-.557v-5.798c0-.26.176-.445.422-.445h1.369c.246 0 .421.185.421.445v5.76c0 .298.246.558.527.558.28 0 .526-.26.526-.557v-5.76c0-.26.176-.447.422-.447h1.37c.245 0 .42.186.42.446v5.76c0 .298.246.558.527.558.28 0 .526-.26.526-.557v-5.76c0-.26.176-.447.422-.447h1.37c.245 0 .42.186.42.446v5.76c0 .298.246.558.527.558h10.076c.281 0 .527-.26.527-.557v-10.11c0-.111.035-.185.14-.223l7.655-4.088c.14-.074.35.038.35.223v14.234c0 .297.247.557.527.557.281 0 .527-.26.527-.557V15.76c0-.186-.105-.372-.246-.446-.14-.111-.351.075-.491.149l-8.076 4.31c-.175.075-.35-.036-.35-.222v-3.568h3.546v-.037zM2.332 24.085c-.175 0-.316-.186-.28-.372.35-1.97 1.895-3.456 3.791-3.716.106 0 .246-.037.351-.037.035 0 .106.037.176.037.07 0 .105 0 .176-.037.105 0 .245 0 .35.037 1.897.223 3.442 1.746 3.793 3.716a.28.28 0 01-.281.334H2.333v.038zm11.973 5.537c0 .297-.246.52-.527.52a.523.523 0 01-.526-.52v-2.118c0-.298.245-.52.526-.52.28 0 .526.223.526.52v2.118zm0-5.314c0 .297-.246.52-.527.52a.523.523 0 01-.526-.52v-2.119c0-.297.245-.52.526-.52s.527.223.527.52v2.119zm0-5.277c0 .297-.246.52-.527.52a.523.523 0 01-.526-.52v-2.119c0-.297.245-.52.526-.52s.527.223.527.52v2.119zm0-5.277c0 .297-.246.52-.527.52a.523.523 0 01-.526-.52v-2.119c0-.297.245-.52.526-.52s.527.223.527.52v2.119zm2.492 15.868c0 .297-.246.52-.526.52a.523.523 0 01-.527-.52v-2.118c0-.298.246-.52.526-.52.282 0 .527.222.527.52v2.118zm0-5.314c0 .297-.246.52-.526.52a.523.523 0 01-.527-.52v-2.119c0-.297.246-.52.527-.52.28 0 .526.223.526.52v2.119zm0-5.277c0 .297-.246.52-.526.52a.523.523 0 01-.527-.52v-2.119c0-.297.246-.52.527-.52.28 0 .526.223.526.52v2.119zm0-5.277c0 .297-.246.52-.526.52a.523.523 0 01-.527-.52v-2.119c0-.297.246-.52.527-.52.28 0 .526.223.526.52v2.119zm1.51-2.119c0-.297.246-.52.527-.52.28 0 .526.223.526.52v.558c-.491 0-.737.074-1.053.26v-.818zm.983 17.987c0 .297-.246.52-.526.52a.523.523 0 01-.527-.52v-2.118c0-.298.246-.52.527-.52.28 0 .526.223.526.52v2.118zm0-5.314c0 .297-.246.52-.526.52a.523.523 0 01-.527-.52v-2.119c0-.297.246-.52.527-.52.28 0 .526.223.526.52v2.119zm0-5.277c0 .297-.246.52-.526.52a.523.523 0 01-.527-.52v-2.119c0-.297.246-.52.527-.52.28 0 .526.223.526.52v2.119zm-.175-4.2c-.387 0-.702-.371-.702-.817 0-.409.315-.743.702-.743h3.897c.386 0 .702-.335.702-.744 0-.408.316-.743.702-.743h5.793c.386 0 .702.335.702.743v.038c0 .408-.316.743-.702.743h-3.335c-.386 0-.702.334-.702.743s-.316.743-.703.743h-6.354v.037z"/></svg><svg viewBox="0 0 37 32" id="commecial" xmlns="http://www.w3.org/2000/svg"><path d="M4.25 32a.612.612 0 01-.616-.607v-4.505c0-.335.277-.607.615-.607.338 0 .615.273.615.607v4.505A.61.61 0 014.25 32zM29.467 6.41H8.687c-1.697 0-3.079 1.363-3.079 3.04v11.326c.432.553.848 1.098 1.231 1.645V9.45c0-1.007.829-1.825 1.848-1.825h20.78c1.017 0 1.846.818 1.846 1.825v17.955H8.926a3.146 3.146 0 01-.312 1.216h23.314c.34 0 .615-.273.615-.607V9.45c.001-1.677-1.38-3.041-3.076-3.041z"/><path d="M24.219 7.626H13.934a.612.612 0 01-.615-.608c0-.333.277-.607.615-.607h10.285c.34 0 .615.274.615.607a.612.612 0 01-.615.608zM8.781 14.808c-1.183 0-2.195-.407-3.01-1.204 0 0 .237-.407-.003-.86-.156-.295.629-.238.87-.002.592.581 1.272.851 2.14.851.772 0 1.394-.212 1.941-.666V7.049c0-.336.277-.608.615-.608.338 0 .615.274.615.608v6.145c0 .162-.068.32-.186.434-.825.793-1.8 1.18-2.982 1.18z"/><path d="M13.928 14.81a4.403 4.403 0 01-3.016-1.178.604.604 0 01-.194-.442V7.05c0-.336.277-.608.615-.608.338 0 .615.273.615.607v5.865c.57.45 1.302.768 2.024.68.72-.008 1.405-.248 1.914-.665V7.043c0-.335.277-.607.615-.607.338 0 .615.273.615.607v6.156a.61.61 0 01-.18.43c-.747.736-1.823 1.167-2.95 1.18l-.058.001z"/><path d="M19.077 14.813c-1.144 0-2.206-.421-3-1.185a.601.601 0 01-.188-.435v-6.15c0-.336.277-.608.615-.608.338 0 .615.274.615.607v5.879a3.08 3.08 0 001.946.676 3.098 3.098 0 001.966-.687V7.182c0-.335.276-.607.615-.607.338 0 .614.273.614.607v5.999a.606.606 0 01-.184.432c-.79.768-1.855 1.193-2.999 1.2z"/><path d="M24.224 14.81c-1.193-.006-2.202-.409-3.01-1.197a.604.604 0 01-.183-.432V7.012c0-.335.276-.607.614-.607.339 0 .615.273.615.607v5.903c.545.462 1.172.677 1.95.68.774 0 1.403-.217 1.964-.682V7.017c0-.336.277-.607.615-.607.338 0 .615.273.615.607v6.167c0 .165-.07.323-.19.437-.828.79-1.836 1.189-2.99 1.189z"/><path d="M29.378 14.807c-1.168-.007-2.232-.427-3.018-1.19a.606.606 0 01-.184-.432V7.017c0-.336.276-.607.615-.607.338 0 .614.273.614.607v5.898a3.1 3.1 0 001.956.675c.75 0 1.423-.232 1.97-.678v-3.64c0-.335.277-.607.616-.607.338 0 .614.274.614.608v3.91a.601.601 0 01-.187.436 4.303 4.303 0 01-2.996 1.188zM24.247 2.944a5.28 5.28 0 00-.008-.766c-.008-.077-.128-.199-.202-.203-.33-.023-.664-.01-1.003-.01V3.17c.335 0 .656.004.976-.002.136-.004.23-.09.237-.224zm-3.644-.984c-.384 0-.611.22-.614.604a81.564 81.564 0 000 1.517c.003.369.236.592.608.592.377 0 .609-.217.616-.586.007-.255.002-.512.002-.768v-.375c0-.125.002-.25 0-.375-.006-.384-.232-.61-.612-.609z"/><path d="M27.927 0H10.226a.612.612 0 00-.615.607v6.41c0 .335.277.607.615.607h1.207a.61.61 0 00.614-.607s9.056-.336 9.056 0c0 .335.277.607.615.607h6.207c.34 0 .615-.273.615-.607V.609A.611.611 0 0027.927 0zm-5.482 1.382c.046-.003.1-.013.154-.013h1.291a.953.953 0 01.96.954v.469c-.002.55-.427.967-.99.967h-.834v1.485h-.583c.002-1.276.002-2.56.002-3.862zm-7.166 3.654c-.804.49-1.787.09-1.953-.817-.007-.042-.006-.085-.009-.138h.569c.13.528.472.722.984.539.103-.037.232-.144.252-.24.034-.164.078-.37-.136-.482-.278-.147-.559-.288-.834-.441a5.719 5.719 0 01-.477-.304c-.536-.38-.49-1.219.117-1.572.847-.494 1.894.01 1.932.973h-.573c-.008-.046-.014-.093-.025-.139a.549.549 0 00-.55-.452 1.26 1.26 0 00-.301.021c-.157.03-.318.075-.361.257-.065.276-.017.404.216.536.252.142.518.26.772.4.165.091.323.196.475.306.524.373.48 1.2-.098 1.553zm3.483.215h-.586V3.773h-1.223V5.25h-.592V1.378h.578v1.778h1.231V1.378h.59c.002 1.295.002 2.58.002 3.873zm1.843.01c-.644.003-1.21-.576-1.213-1.244V2.613c.003-.665.572-1.245 1.215-1.242.638.003 1.199.577 1.203 1.233.002.237 0 .475 0 .712 0 .23.002.461 0 .692-.003.67-.562 1.25-1.205 1.253zM35.957 32H2.194a.612.612 0 01-.615-.607c0-.334.277-.607.615-.607h33.763a.61.61 0 01.614.607.611.611 0 01-.614.607zM4.661 30.273l-1.228-.05c-.753-.088-1.387-.29-1.935-.623-1.13-.688-1.694-1.926-1.436-3.156a6.92 6.92 0 01.583-1.637c.728-1.476 1.687-2.728 2.774-4.097a1.056 1.056 0 011.663.001c1.089 1.374 2.05 2.631 2.772 4.096a6.92 6.92 0 01.583 1.637c.258 1.23-.305 2.468-1.435 3.156-.545.331-1.182.536-1.94.624l-.322.042a.539.539 0 01-.079.007z"/><path d="M6.14 13.906v7.56c.806 1.067 1.525 2.117 2.102 3.288.304.611.52 1.222.645 1.812.097.462.056.914-.046 1.355h23.147V13.45l-25.848.456zm8.508 10.476h-4.193a.612.612 0 01-.615-.608v-2.576h4.809v3.184zm0-4.402H9.84v-2.549c0-.335.277-.607.615-.607h4.193v3.156zm6.038 3.793a.612.612 0 01-.614.607h-4.194v-3.185h4.809v2.578zm0-3.793h-4.808v-3.156h4.193c.34 0 .615.273.615.607v2.55zm9.262 7.403a.52.52 0 01-.522.516h-4.77a.52.52 0 01-.523-.516v-7.045a.52.52 0 01.523-.516h4.77a.52.52 0 01.523.516v7.045z"/><path d="M32.653 27.395H8.925a3.137 3.137 0 01-.305 1.216h24.033a.61.61 0 00.614-.607.612.612 0 00-.614-.609zm-7.545-3.678c0 .42-.64.42-.64 0 0-.421.64-.421.64 0z"/></svg><svg viewBox="0 0 32 32" id="designers" xmlns="http://www.w3.org/2000/svg"><path d="M19.194 31.968c.642-2.356 1.24-4.553 1.852-6.751-2.047-.854-4.078-1.66-6.066-2.545a43.274 43.274 0 01-3.883-1.992c-.404-.238-.733-.76-.957-1.218-.373-.822-.642-1.707-.926-2.466-.568.11-1.106.174-1.613.316-.18.048-.434.237-.464.395-.179.965-.433 1.96-.403 2.925a7.098 7.098 0 001.136 3.636c.687-1.027 1.33-1.976 1.987-2.925.06.032.134.08.194.111-.553 1.186-1.12 2.356-1.718 3.636 2.838 2.625 6.14 4.506 9.456 6.83H2.432c.493-.87.896-1.644 1.374-2.371.299-.459.284-.775-.045-1.233-2.689-3.921-2.27-8.901 1.061-12.079 1.001-.948 2.196-1.66 3.347-2.53-.553-2.04-.553-4.205-.314-6.403C8.303 3.162 12.829-.03 15.728 0c2.614.032 5.228 0 7.843.08 1.762.047 2.435.742 2.465 2.355 0 .19.03.411-.06.538-.552.742-.15 1.422.045 2.15.284 1.059.538 2.134.807 3.209.045.206.06.411.104.632-.956.649-2.435.696-2.435 2.372-2.973.775-6.125.268-8.963 1.644-.194.095-.344.269-.657.538.284 0 .418.047.493 0 .94-.601 1.987-.601 3.032-.585 1.897.016 3.78.016 5.677 0 .344 0 .583.016.732.459.344.964 1.136 1.138 1.853.38.388-.412.627-.981.97-1.519.449.475.942.949 1.375 1.47.657.791.538 1.455-.329 2.008-.94.601-.94.601-.627 1.755.165.633.478 1.297-.478 1.692.762.38.688.79.27 1.328-.15.19-.165.585-.12.87.298 1.644-.314 2.45-1.913 2.45-.851 0-1.688-.032-2.54.016-1.374.079-1.926.822-1.732 2.26.134 1.013.284 1.961.776 2.91.374.711.27 1.723.329 2.608.015.127-.269.38-.418.38-.957-.016-1.928-.032-3.034-.032z"/></svg><svg viewBox="0 0 32 32" id="filter" xmlns="http://www.w3.org/2000/svg"><path d="M8 30.666C8 31.4 7.4 32 6.667 32H1.334C.6 32 0 31.4 0 30.666v-5.333C0 24.6.6 24 1.334 24h5.333C7.4 24 8 24.6 8 25.333v5.333zm10.666 0c0 .733-.6 1.334-1.333 1.334H12c-.733 0-1.334-.6-1.334-1.334v-5.333c0-.733.6-1.333 1.334-1.333h5.333c.733 0 1.333.6 1.333 1.333v5.333zm10.667 0c0 .733-.6 1.334-1.333 1.334h-5.334c-.733 0-1.334-.6-1.334-1.334v-5.333c0-.733.601-1.333 1.334-1.333H28c.732 0 1.333.6 1.333 1.333v5.333zM8 20c0 .733-.6 1.333-1.333 1.333H1.334C.6 21.333 0 20.733 0 20v-5.333c0-.734.6-1.333 1.334-1.333h5.333c.733 0 1.333.6 1.333 1.333V20zm10.666 0c0 .733-.6 1.333-1.333 1.333H12c-.733 0-1.334-.6-1.334-1.333v-5.333c0-.734.6-1.333 1.334-1.333h5.333c.733 0 1.333.6 1.333 1.333V20z"/><path d="M24.454 21.137h0l-2.041-4.927s0 0 0 0a.839.839 0 01.45-1.089s0 0 0 0 0 0 0 0l4.928-2.042h0a.836.836 0 011.088.451h0l2.041 4.928s0 0 0 0a.837.837 0 01-.45 1.088h0l-4.926 2.041h-.001a.838.838 0 01-1.089-.45z" stroke="#AFB6C4"/><path d="M8 9.334c0 .733-.6 1.333-1.333 1.333H1.334C.6 10.667 0 10.067 0 9.334V4c0-.733.6-1.333 1.334-1.333h5.333C7.4 2.667 8 3.267 8 4v5.334zm9.341 1.328a1.337 1.337 0 01-1.742.721l-4.927-2.041A1.337 1.337 0 019.951 7.6l2.04-4.927a1.338 1.338 0 011.742-.722l4.928 2.042a1.338 1.338 0 01.721 1.742l-2.04 4.927z"/><path d="M31.258 4.514h0a.837.837 0 010 1.179h0l-3.771 3.772h0a.837.837 0 01-1.178 0h0l-3.772-3.772s0 0 0 0a.838.838 0 010-1.179s0 0 0 0L26.308.742h0a.838.838 0 011.179 0s0 0 0 0l3.77 3.772z" stroke="#AFB6C4"/></svg><svg viewBox="0 0 32 32" id="historical" xmlns="http://www.w3.org/2000/svg"><path d="M15.706 4.358l.511.074-.374 2.529 2.593.372.374-2.528.51.073-.373 2.529 2.593.373.374-2.529.51.073-.374 2.53 2.824.405.735-4.96-12.366-1.778-.735 4.96 2.824.406.374-2.529zm7.414-1.93l.206-1.387L16.086 0l-.206 1.386 7.24 1.042zM14.059 15.48l.51.073-.374 2.529 2.593.373.375-2.529.51.074-.374 2.528 2.593.373.375-2.529.51.074-.374 2.529 2.824.406.748-5.058-12.366-1.778-.749 5.058 2.824.406.375-2.53zm-.823 5.56l.51.074-.374 2.529 2.593.373.374-2.529.511.073-.374 2.53 2.593.372.374-2.529.51.074-.373 2.529 2.823.406.75-5.058-12.367-1.778-.75 5.058 2.825.406.374-2.53zm1.647-11.121l.51.073-.375 2.529 2.594.373.374-2.529.511.073-.374 2.53 2.593.372.374-2.529.51.074-.374 2.529 2.824.406.75-5.058-12.367-1.778-.75 5.057 2.824.406.376-2.528zM12.38 26.66l.51.074-.322 2.175h2.649l.267-1.803.51.074-.255 1.729h2.648l.2-1.356.511.073-.19 1.283h2.907l.513-3.464-12.366-1.779-.776 5.243h2.86l.334-2.249zM2 29.418h28V32H2v-2.582z"/></svg><svg viewBox="0 0 32 32" id="investment" xmlns="http://www.w3.org/2000/svg"><path d="M25.497 23.654v5.83h3.744v-1.049L32 30.24 29.241 32v-.88c-9.458 0-18.916 0-28.374-.043l.04-28.141H0L1.655 0 3.35 2.936h-.907v2.977h1.38V7.55h-1.38l-.04 2.81h1.42v1.594h-1.42v2.852h1.42V16.4h-1.42v2.81h1.42v1.635h-1.42v2.81h1.42v1.636h-1.42v4.194h3.39v-9.353h4.335v9.353h.788V5.37h4.335v24.115h.789V13.212h4.335v16.272h.788v-5.83h4.334zm-19.429-.377h3.744v-2.81H6.068v2.81zm5.124-6.879h3.744V5.662h-3.744v10.736zm8.906-2.852h-3.783v6.585h3.783v-6.585zm1.34 11.827h3.783V23.99h-3.783v1.384z"/><path fill-rule="evenodd" clip-rule="evenodd" d="M11.743 6.04c0 .223-.315.223-.315 0 0-.224.315-.224.315 0zm.592 0c0 .223-.316.223-.316 0 0-.224.316-.224.316 0zm.591 0c0 .223-.316.223-.316 0 0-.224.316-.224.316 0zm.591 0c0 .223-.315.223-.315 0 0-.224.315-.224.315 0zm.63 0c0 .223-.315.223-.315 0 0-.224.315-.224.315 0zm.593 0c0 .223-.316.223-.316 0 0-.224.315-.224.315 0zm-2.997.586c0 .224-.315.224-.315 0s.315-.224.315 0zm0 .545a.158.158 0 01-.315 0c0-.223.315-.223.315 0zm0 .588c0 .223-.315.223-.315 0 0-.224.315-.224.315 0zm0 .545c0 .224-.315.224-.315 0s.315-.224.315 0zm0 .587a.158.158 0 01-.315 0c0-.223.315-.223.315 0zm0 .545a.158.158 0 01-.315 0c0-.223.315-.223.315 0zm0 .587a.158.158 0 01-.315 0c0-.223.315-.223.315 0zm0 .545a.158.158 0 01-.315 0c0-.223.315-.223.315 0zm0 .588c0 .223-.315.223-.315 0 0-.224.315-.224.315 0zm0 .545c0 .224-.315.224-.315 0s.315-.224.315 0zm0 .587a.158.158 0 01-.315 0c0-.223.315-.223.315 0zm0 .546c0 .223-.315.223-.315 0 0-.224.315-.224.315 0zm0 .586a.158.158 0 01-.315 0c0-.223.315-.223.315 0zm0 .546c0 .223-.315.223-.315 0 0-.224.315-.224.315 0zm0 .587c0 .224-.315.224-.315 0s.315-.224.315 0zm0 .545c0 .224-.315.224-.315 0s.315-.224.315 0zm0 .587a.158.158 0 01-.315 0c0-.223.315-.223.315 0zm.592-9.059c0 .224-.316.224-.316 0s.316-.224.316 0zm0 .545c0 .224-.316.224-.316 0 0-.223.316-.223.316 0zm0 .588c0 .223-.316.223-.316 0 0-.224.316-.224.316 0zm0 .545c0 .224-.316.224-.316 0s.316-.224.316 0zm0 .587c0 .224-.316.224-.316 0 0-.223.316-.223.316 0zm0 .545c0 .224-.316.224-.316 0 0-.223.316-.223.316 0zm0 .587c0 .224-.316.224-.316 0 0-.223.316-.223.316 0zm0 .545c0 .224-.316.224-.316 0 0-.223.316-.223.316 0zm0 .588c0 .223-.316.223-.316 0 0-.224.316-.224.316 0zm0 .545c0 .224-.316.224-.316 0s.316-.224.316 0zm0 .587c0 .224-.316.224-.316 0 0-.223.316-.223.316 0zm0 .546c0 .223-.316.223-.316 0 0-.224.316-.224.316 0zm0 .586c0 .224-.316.224-.316 0 0-.223.316-.223.316 0zm0 .546c0 .223-.316.223-.316 0 0-.224.316-.224.316 0zm0 .587c0 .224-.316.224-.316 0s.316-.224.316 0zm0 .545c0 .224-.316.224-.316 0s.316-.224.316 0zm0 .587c0 .224-.316.224-.316 0 0-.223.316-.223.316 0zm.591-9.059c0 .224-.316.224-.316 0s.316-.224.316 0zm0 .545c0 .224-.316.224-.316 0 0-.223.316-.223.316 0zm0 .588c0 .223-.316.223-.316 0 0-.224.316-.224.316 0zm0 .545c0 .224-.316.224-.316 0s.316-.224.316 0zm0 .587c0 .224-.316.224-.316 0 0-.223.316-.223.316 0zm0 .545c0 .224-.316.224-.316 0 0-.223.316-.223.316 0zm0 .587c0 .224-.316.224-.316 0 0-.223.316-.223.316 0zm0 .545c0 .224-.316.224-.316 0 0-.223.316-.223.316 0zm0 .588c0 .223-.316.223-.316 0 0-.224.316-.224.316 0zm0 .545c0 .224-.316.224-.316 0s.316-.224.316 0zm0 .587c0 .224-.316.224-.316 0 0-.223.316-.223.316 0zm0 .546c0 .223-.316.223-.316 0 0-.224.316-.224.316 0zm0 .586c0 .224-.316.224-.316 0 0-.223.316-.223.316 0zm0 .546c0 .223-.316.223-.316 0 0-.224.316-.224.316 0zm0 .587c0 .224-.316.224-.316 0s.316-.224.316 0zm0 .545c0 .224-.316.224-.316 0s.316-.224.316 0zm0 .587c0 .224-.316.224-.316 0 0-.223.316-.223.316 0zm.591-9.059c0 .224-.315.224-.315 0s.315-.224.315 0zm0 .545a.158.158 0 01-.315 0c0-.223.315-.223.315 0zm0 .588c0 .223-.315.223-.315 0 0-.224.315-.224.315 0zm0 .545c0 .224-.315.224-.315 0s.315-.224.315 0zm0 .587a.158.158 0 01-.315 0c0-.223.315-.223.315 0zm0 .545a.158.158 0 01-.315 0c0-.223.315-.223.315 0zm0 .587a.158.158 0 01-.315 0c0-.223.315-.223.315 0zm0 .545a.158.158 0 01-.315 0c0-.223.315-.223.315 0zm0 .588c0 .223-.315.223-.315 0 0-.224.315-.224.315 0zm0 .545c0 .224-.315.224-.315 0s.315-.224.315 0zm0 .587a.158.158 0 01-.315 0c0-.223.315-.223.315 0zm0 .546c0 .223-.315.223-.315 0 0-.224.315-.224.315 0zm0 .586a.158.158 0 01-.315 0c0-.223.315-.223.315 0zm0 .546c0 .223-.315.223-.315 0 0-.224.315-.224.315 0zm0 .587c0 .224-.315.224-.315 0s.315-.224.315 0zm0 .545c0 .224-.315.224-.315 0s.315-.224.315 0zm0 .587a.158.158 0 01-.315 0c0-.223.315-.223.315 0zm.63-9.059c0 .224-.315.224-.315 0s.315-.224.315 0zm0 .545a.158.158 0 01-.315 0c0-.223.315-.223.315 0zm0 .588c0 .223-.315.223-.315 0 0-.224.315-.224.315 0zm0 .545c0 .224-.315.224-.315 0s.315-.224.315 0zm0 .587a.158.158 0 01-.315 0c0-.223.315-.223.315 0zm0 .545a.158.158 0 01-.315 0c0-.223.315-.223.315 0zm0 .587a.158.158 0 01-.315 0c0-.223.315-.223.315 0zm0 .545a.158.158 0 01-.315 0c0-.223.315-.223.315 0zm0 .588c0 .223-.315.223-.315 0 0-.224.315-.224.315 0zm0 .545c0 .224-.315.224-.315 0s.315-.224.315 0zm0 .587a.158.158 0 01-.315 0c0-.223.315-.223.315 0zm0 .546c0 .223-.315.223-.315 0 0-.224.315-.224.315 0zm0 .586a.158.158 0 01-.315 0c0-.223.315-.223.315 0zm0 .546c0 .223-.315.223-.315 0 0-.224.315-.224.315 0zm0 .587c0 .224-.315.224-.315 0s.315-.224.315 0zm0 .545c0 .224-.315.224-.315 0s.315-.224.315 0zm0 .587a.158.158 0 01-.315 0c0-.223.315-.223.315 0zm.593-9.059c0 .224-.316.224-.316 0s.315-.224.315 0zm0 .545c0 .224-.316.224-.316 0 0-.223.315-.223.315 0zm0 .588c0 .223-.316.223-.316 0 0-.224.315-.224.315 0zm0 .545c0 .224-.316.224-.316 0s.315-.224.315 0zm0 .587c0 .224-.316.224-.316 0 0-.223.315-.223.315 0zm0 .545c0 .224-.316.224-.316 0 0-.223.315-.223.315 0zm0 .587c0 .224-.316.224-.316 0 0-.223.315-.223.315 0zm0 .545c0 .224-.316.224-.316 0 0-.223.315-.223.315 0zm0 .588c0 .223-.316.223-.316 0 0-.224.315-.224.315 0zm0 .545c0 .224-.316.224-.316 0s.315-.224.315 0zm0 .587c0 .224-.316.224-.316 0 0-.223.315-.223.315 0zm0 .546c0 .223-.316.223-.316 0 0-.224.315-.224.315 0zm0 .586c0 .224-.316.224-.316 0 0-.223.315-.223.315 0zm0 .546c0 .223-.316.223-.316 0 0-.224.315-.224.315 0zm0 .587c0 .224-.316.224-.316 0s.315-.224.315 0zm0 .545c0 .224-.316.224-.316 0s.315-.224.315 0zm0 .587c0 .224-.316.224-.316 0 0-.223.315-.223.315 0zm-2.997.503a.158.158 0 01-.315 0c0-.223.315-.223.315 0zm.592 0c0 .224-.316.224-.316 0 0-.223.316-.223.316 0zm.591 0c0 .224-.316.224-.316 0 0-.223.316-.223.316 0zm.591 0a.158.158 0 01-.315 0c0-.223.315-.223.315 0zm.63 0a.158.158 0 01-.315 0c0-.223.315-.223.315 0zm.593 0c0 .224-.316.224-.316 0 0-.223.315-.223.315 0zm2.127-2.348c0 .223-.315.223-.315 0 0-.224.315-.224.315 0zm.591 0c0 .223-.315.223-.315 0 0-.224.315-.224.315 0zm.591 0c0 .223-.315.223-.315 0 0-.224.315-.224.315 0zm.631 0c0 .223-.316.223-.316 0 0-.224.316-.224.316 0zm.591 0c0 .223-.315.223-.315 0 0-.224.315-.224.315 0zm.591 0c0 .223-.315.223-.315 0 0-.224.315-.224.315 0zm-2.995.587a.158.158 0 01-.315 0c0-.223.315-.223.315 0zm0 .545a.158.158 0 01-.315 0c0-.223.315-.223.315 0zm0 .588c0 .223-.315.223-.315 0 0-.224.315-.224.315 0zm0 .545c0 .224-.315.224-.315 0s.315-.224.315 0zm0 .587c0 .224-.315.224-.315 0s.315-.224.315 0zm0 .545c0 .224-.315.224-.315 0s.315-.224.315 0zm0 .587a.158.158 0 01-.315 0c0-.223.315-.223.315 0zm0 .546c0 .223-.315.223-.315 0 0-.224.315-.224.315 0zm0 .586a.158.158 0 01-.315 0c0-.223.315-.223.315 0zm0 .546c0 .224-.315.224-.315 0s.315-.224.315 0zm.591-5.075a.158.158 0 01-.315 0c0-.223.315-.223.315 0zm0 .545a.158.158 0 01-.315 0c0-.223.315-.223.315 0zm0 .588c0 .223-.315.223-.315 0 0-.224.315-.224.315 0zm0 .545c0 .224-.315.224-.315 0s.315-.224.315 0zm0 .587c0 .224-.315.224-.315 0s.315-.224.315 0zm0 .545c0 .224-.315.224-.315 0s.315-.224.315 0zm0 .587a.158.158 0 01-.315 0c0-.223.315-.223.315 0zm0 .546c0 .223-.315.223-.315 0 0-.224.315-.224.315 0zm0 .586a.158.158 0 01-.315 0c0-.223.315-.223.315 0zm0 .546c0 .224-.315.224-.315 0s.315-.224.315 0zm.591-5.075a.158.158 0 01-.315 0c0-.223.315-.223.315 0zm0 .545a.158.158 0 01-.315 0c0-.223.315-.223.315 0zm0 .588c0 .223-.315.223-.315 0 0-.224.315-.224.315 0zm0 .545c0 .224-.315.224-.315 0s.315-.224.315 0zm0 .587c0 .224-.315.224-.315 0s.315-.224.315 0zm0 .545c0 .224-.315.224-.315 0s.315-.224.315 0zm0 .587a.158.158 0 01-.315 0c0-.223.315-.223.315 0zm0 .546c0 .223-.315.223-.315 0 0-.224.315-.224.315 0zm0 .586a.158.158 0 01-.315 0c0-.223.315-.223.315 0zm0 .546c0 .224-.315.224-.315 0s.315-.224.315 0zm.631-5.075c0 .224-.316.224-.316 0 0-.223.316-.223.316 0zm0 .545c0 .224-.316.224-.316 0 0-.223.316-.223.316 0zm0 .588c0 .223-.316.223-.316 0 0-.224.316-.224.316 0zm0 .545c0 .224-.316.224-.316 0s.316-.224.316 0zm0 .587c0 .224-.316.224-.316 0s.316-.224.316 0zm0 .545c0 .224-.316.224-.316 0s.316-.224.316 0zm0 .587c0 .224-.316.224-.316 0 0-.223.316-.223.316 0zm0 .546c0 .223-.316.223-.316 0 0-.224.316-.224.316 0zm0 .586c0 .224-.316.224-.316 0 0-.223.316-.223.316 0zm0 .546c0 .224-.316.224-.316 0s.316-.224.316 0zm.591-5.075a.158.158 0 01-.315 0c0-.223.315-.223.315 0zm0 .545a.158.158 0 01-.315 0c0-.223.315-.223.315 0zm0 .588c0 .223-.315.223-.315 0 0-.224.315-.224.315 0zm0 .545c0 .224-.315.224-.315 0s.315-.224.315 0zm0 .587c0 .224-.315.224-.315 0s.315-.224.315 0zm0 .545c0 .224-.315.224-.315 0s.315-.224.315 0zm0 .587a.158.158 0 01-.315 0c0-.223.315-.223.315 0zm0 .546c0 .223-.315.223-.315 0 0-.224.315-.224.315 0zm0 .586a.158.158 0 01-.315 0c0-.223.315-.223.315 0zm0 .546c0 .224-.315.224-.315 0s.315-.224.315 0zm.591-5.075a.158.158 0 01-.315 0c0-.223.315-.223.315 0zm0 .545a.158.158 0 01-.315 0c0-.223.315-.223.315 0zm0 .588c0 .223-.315.223-.315 0 0-.224.315-.224.315 0zm0 .545c0 .224-.315.224-.315 0s.315-.224.315 0zm0 .587c0 .224-.315.224-.315 0s.315-.224.315 0zm0 .545c0 .224-.315.224-.315 0s.315-.224.315 0zm0 .587a.158.158 0 01-.315 0c0-.223.315-.223.315 0zm0 .546c0 .223-.315.223-.315 0 0-.224.315-.224.315 0zm0 .586a.158.158 0 01-.315 0c0-.223.315-.223.315 0zm0 .546c0 .224-.315.224-.315 0s.315-.224.315 0z"/><path fill-rule="evenodd" clip-rule="evenodd" d="M16.867 19.92a.158.158 0 01-.315 0c0-.223.315-.223.315 0zm.591 0a.158.158 0 01-.315 0c0-.223.315-.223.315 0zm.591 0a.158.158 0 01-.315 0c0-.223.315-.223.315 0zm.631 0a.158.158 0 01-.316 0c0-.223.316-.223.316 0zm.591 0a.158.158 0 01-.315 0c0-.223.315-.223.315 0zm.591 0a.158.158 0 01-.315 0c0-.223.315-.223.315 0zm-13.281.798c0 .224-.315.224-.315 0s.315-.224.315 0zm0 .587c0 .224-.315.224-.315 0s.315-.224.315 0zm0 .545a.158.158 0 01-.315 0c0-.223.315-.223.315 0zm0 .588c0 .223-.315.223-.315 0 0-.224.315-.224.315 0zm0 .545c0 .223-.315.223-.315 0 0-.224.315-.224.315 0zm.591-2.265c0 .224-.315.224-.315 0s.315-.224.315 0zm0 .587c0 .224-.315.224-.315 0s.315-.224.315 0zm0 .545a.158.158 0 01-.315 0c0-.223.315-.223.315 0zm0 .588c0 .223-.315.223-.315 0 0-.224.315-.224.315 0zm0 .545c0 .223-.315.223-.315 0 0-.224.315-.224.315 0zm.592-2.265c0 .224-.316.224-.316 0s.316-.224.316 0zm0 .587c0 .224-.316.224-.316 0s.316-.224.316 0zm0 .545c0 .224-.316.224-.316 0 0-.223.316-.223.316 0zm0 .588c0 .223-.316.223-.316 0 0-.224.316-.224.316 0zm0 .545c0 .223-.316.223-.316 0 0-.224.316-.224.316 0zm.63-2.265c0 .224-.315.224-.315 0s.315-.224.315 0zm0 .587c0 .224-.315.224-.315 0s.315-.224.315 0zm0 .545a.158.158 0 01-.315 0c0-.223.315-.223.315 0zm0 .588c0 .223-.315.223-.315 0 0-.224.315-.224.315 0zm0 .545c0 .223-.315.223-.315 0 0-.224.315-.224.315 0zm.591-2.265c0 .224-.315.224-.315 0s.315-.224.315 0zm0 .587c0 .224-.315.224-.315 0s.315-.224.315 0zm0 .545a.158.158 0 01-.315 0c0-.223.315-.223.315 0zm0 .588c0 .223-.315.223-.315 0 0-.224.315-.224.315 0zm0 .545c0 .223-.315.223-.315 0 0-.224.315-.224.315 0zm.591-2.265c0 .224-.315.224-.315 0s.315-.224.315 0zm0 .587c0 .224-.315.224-.315 0s.315-.224.315 0zm0 .545a.158.158 0 01-.315 0c0-.223.315-.223.315 0zm0 .588c0 .223-.315.223-.315 0 0-.224.315-.224.315 0zm0 .545c0 .223-.315.223-.315 0 0-.224.315-.224.315 0zm12.374 1.426c0 .224-.315.224-.315 0s.315-.224.315 0zm.631 0c0 .224-.315.224-.315 0s.315-.224.315 0zm.591 0c0 .224-.315.224-.315 0s.315-.224.315 0zm.592 0c0 .224-.316.224-.316 0s.316-.224.316 0zm.591 0c0 .224-.315.224-.315 0s.315-.224.315 0zm.591 0c0 .224-.315.224-.315 0s.315-.224.315 0zm-2.996.587c0 .223-.315.223-.315 0 0-.224.315-.224.315 0zm.631 0c0 .223-.315.223-.315 0 0-.224.315-.224.315 0zm.591 0c0 .223-.315.223-.315 0 0-.224.315-.224.315 0zm.592 0c0 .223-.316.223-.316 0 0-.224.316-.224.316 0zm.591 0c0 .223-.315.223-.315 0 0-.224.315-.224.315 0zm.591 0c0 .223-.315.223-.315 0 0-.224.315-.224.315 0z"/></svg><svg viewBox="0 0 32 32" id="life" xmlns="http://www.w3.org/2000/svg"><path d="M20.902 5.689h1.958v2.133h-1.958V5.69zm0 2.844h1.958v2.133h-1.958V8.534zm-5.054 8.45L0 25.033l.275.649 1.874-.951.01-.009 7.77-3.937a.28.28 0 01.075-.05l.248-.113 4.962-2.526.914-.46-.28-.653zm-5.593 4.422l-.327.156-7.312 3.712V32H15.02V18.973l-4.7 2.389a.294.294 0 01-.065.043zm-.457 9.173H7.839v-2.133h1.959v2.133zm0-2.844H7.839V25.6h1.959v2.134zm.652-2.134h1.959v2.134H10.45V25.6zm0 2.845h1.959v2.133H10.45v-2.133zm5.229-.001h7.181V32h-7.18v-3.556zM23.513 0v14.15l4.217 2.15.066.028h.013c.155.09.222.292.156.47l-.548 1.308a.316.316 0 01-.183.17.333.333 0 01-.26 0l-.85-.44V32H32V0h-8.487zm4.57 13.511h-1.959v-2.133h1.959v2.133zm0-2.844h-1.959V8.534h1.959v2.133zm0-2.844h-1.959V5.689h1.959v2.134zm0-2.845h-1.959V2.845h1.959v2.133zm2.611 8.533h-1.958v-2.133h1.958v2.133zm0-2.844h-1.958V8.534h1.958v2.133zm0-2.844h-1.958V5.689h1.958v2.134zm0-2.845h-1.958V2.845h1.958v2.133zM18.29 8.533h1.959v2.133H18.29V8.534zm0-2.844h1.959v2.133H18.29V5.69z"/><path d="M18.146 11.464c.047 0 .094.011.137.032l4.577 2.324v-2.442h-4.902c-.18 0-.325-.159-.326-.355V5.334c0-.196.146-.355.326-.356h4.897v-.71h-5.876v7.75l1.025-.519a.31.31 0 01.142-.035z"/><path d="M9.993 17.145l8.02-4.069a.312.312 0 01.272 0l8.673 4.41.274-.65-9.084-4.617-1.357.687h-.013L9.06 16.83l.275.652.658-.338z"/><path d="M21.443 15.47l-3.298-1.681-7.682 3.9v1.237l5.406-2.737a.298.298 0 01.249-.012.337.337 0 01.183.183l.563 1.294c.037.086.04.184.01.273a.353.353 0 01-.168.202l-1.026.52v9.084h7.501c.087 0 .17.038.231.104a.372.372 0 01.096.252v3.91h1.958V17.507l-4.023-2.037z"/></svg><svg viewBox="0 0 32 32" id="mountains" xmlns="http://www.w3.org/2000/svg"><path d="M31.385 32H32L22.279 4.53l-1.964 7.512L15.964 0l-5.53 15.143-.998-4.607-.312.704C9.049 11.408 2.214 26.805 0 32h8.872l1.784-4.844-2.978.57 1.76-6.555-2.24 1.997 2.113-4.131.033-6.286.765 3.533 3.164 15.715h6.299l-1.314-1.851 2.257-6.553-2.929-.142 2.253-3.918-3.55.214 1.281-7.312-1.344.332.29-5.975-.834.42.238-5.399.041-.113 4.154 11.496.01.026.27.747v-.001L26.935 32h1.461l.386-3.561-.992 1.14.488-2.93-2.433-1.13-.33-5.294-1.153 2.753-.15-6.505-2.016-1.958 1.056-3.277-1.056-.676.157-4.083 9.032 25.52z"/></svg><svg viewBox="0 0 32 32" id="prestige" xmlns="http://www.w3.org/2000/svg"><path d="M7.268 5.485h4.044L8.933 2.46 7.268 5.485zm5.117-.277l2.89-3.133h-5.36l2.47 3.133zm-.288 1.29H7.643l7.08 7.024-2.626-7.024zm1.411-1.013h4.99l-2.495-2.707-2.495 2.707zm6.114-.277l2.47-3.133h-5.36l2.89 3.133zM3.635 20.906l2.779 2.93a4.011 4.011 0 011.012 3.604l-.102.48h4.62l.001-6.634c0-1.079-.516-2.11-1.382-2.754l-5.166-3.86a.69.69 0 00-.729-.056.67.67 0 00-.34.435.692.692 0 00.097.546l4.302 6.038-.82.587-4.312-6.043a1.696 1.696 0 01-.248-1.36c.02-.087.056-.163.086-.244l-1.265-6.63a1.073 1.073 0 00-.46-.697 1.069 1.069 0 00-.82-.167 1.073 1.073 0 00-.699.46 1.115 1.115 0 00-.172.82l1.675 8.77a7.545 7.545 0 001.943 3.775zm24.736 0a7.534 7.534 0 001.939-3.785l.941-4.96.39-2.039.08-.43.006-.026.253-1.315a1.07 1.07 0 00-.172-.82 1.095 1.095 0 00-1.979.405l-1.265 6.629c.035.08.066.157.086.243.117.466.026.957-.243 1.356L24.1 22.222l-.825-.587 4.312-6.043a.68.68 0 00-.977-.916l-5.167 3.862a3.454 3.454 0 00-1.381 2.753v6.634h1.508v1.012h-2.986v2.85h9.49v-2.85h-4.697v-1.012h1.31l-.1-.48a4.026 4.026 0 011.011-3.604l2.773-2.935zm-7.383 9.96h-1.129v-1.012h1.129v1.012zm3.375-24.368h-4.458l-.253.667-.947-.354.117-.314H13.18l2.823 7.567.066-.178h-.005l.187-.49.167-.451h.005v-.005l.957.34-.091.242 7.074-7.024zm-6.178 1.73l.961.32-.374.986-.947-.36.36-.946zm-1.24 3.31l.354-.946.961.313-.37.988-.946-.355zM3.94 31.781h9.483v-2.849H3.94v2.85zm7.079-1.928h1.129v1.012h-1.129v-1.012zM23.073 2.46l-2.378 3.026h4.043L23.073 2.46zM26.965 0h1.063v1.012h-1.063V0zM3.94 3.138v-.709h.708V1.417h-.709V.71H2.927v.708H2.22V2.43h.708v.709H3.94z"/></svg><svg viewBox="0 0 32 32" id="residence" xmlns="http://www.w3.org/2000/svg"><path d="M28 3.92v26.44a.5.5 0 01-.505.5h-.84c.036-.16.051-.33.051-.5V3.92c0-1.455-1.192-2.64-2.663-2.64H5.653c-.172 0-.344.015-.506.05V.5c0-.275.228-.5.506-.5h18.39C26.221 0 28 1.76 28 3.92z"/><path d="M17.741 12.976h-2.386v1.838a7.894 7.894 0 012.133.43c.142-.713.228-1.477.253-2.268zm-.488 3.242a6.867 6.867 0 00-1.897-.406v3.35c.972-.448 1.596-1.92 1.897-2.944zm-2.908 2.946v-3.352a6.898 6.898 0 00-1.903.405c.303 1.026.926 2.505 1.903 2.947zm3.142-9.456a7.91 7.91 0 01-2.131.429v1.838h2.385a14.005 14.005 0 00-.254-2.267zm-7.23 7.826a6.706 6.706 0 002.329 1.366c-.486-.675-.82-1.454-1.069-2.255-.447.247-.872.54-1.26.889zm8.177-1.886c.612.31 1.183.703 1.703 1.172a6.702 6.702 0 001.564-3.845h-2.949a14.87 14.87 0 01-.318 2.673zM15.355 5.79v3.35a6.893 6.893 0 001.895-.405c-.3-1.02-.925-2.498-1.895-2.945zm1.752 13.11a6.75 6.75 0 002.334-1.366 6.869 6.869 0 00-1.263-.889c-.25.807-.581 1.577-1.07 2.256zm1.645-6.925h2.95a6.705 6.705 0 00-1.566-3.837 7.883 7.883 0 01-1.703 1.167c.181.837.29 1.738.319 2.67zm.688-4.552a6.75 6.75 0 00-2.335-1.373c.491.682.825 1.463 1.07 2.259a6.89 6.89 0 001.266-.886zm-7.49 4.552h2.394v-1.839a7.963 7.963 0 01-2.136-.437 13.895 13.895 0 00-.258 2.276zm-.689 3.681a14.784 14.784 0 01-.322-2.68H7.99a6.71 6.71 0 001.572 3.843 7.837 7.837 0 011.699-1.163z"/><path d="M24.043 2.28H5.653C4.743 2.28 4 3.015 4 3.92v26.44c0 .905.743 1.64 1.653 1.64h18.39c.91 0 1.652-.735 1.652-1.64V3.92c0-.905-.742-1.64-1.652-1.64zm-9.198 2.39l.002-.001h.003c4.375 0 7.886 3.52 7.886 7.81 0 4.278-3.495 7.802-7.886 7.802h-.005c-4.309-.003-7.89-3.463-7.89-7.802 0-4.347 3.591-7.807 7.89-7.81zm6.368 21.345v1H8.482v-1h12.731zm-10.355-1.597v-1h7.98v1h-7.98zm12.03 5.193H6.807v-1h16.081v1z"/><path d="M11.262 9.297a7.857 7.857 0 01-1.699-1.159 6.714 6.714 0 00-1.572 3.838h2.948c.03-.935.14-1.84.323-2.68zm1.326-3.247c-.894.308-1.66.77-2.33 1.373.388.347.813.64 1.261.886.246-.792.582-1.58 1.069-2.258zm1.757 3.09V5.787c-.977.444-1.6 1.931-1.9 2.949a6.904 6.904 0 001.9.404zm-2.138 6.113a7.945 7.945 0 012.138-.438v-1.84H11.95c.026.794.113 1.562.257 2.278z"/></svg><svg viewBox="0 0 32 33" id="seaside" xmlns="http://www.w3.org/2000/svg"><path d="M7.004 31.633c4.07-2.158 5.973 1.055 9.002.227 3.029-.828 4.557-1.693 7.53-.714" stroke="#AFB6C4"/><path d="M27.358 9.144c-1.07-.793-2.472-1.126-3.715-.941a5.43 5.43 0 00-2.017.72c-.038-.012-.077-.018-.115-.024.71-.5 1.402-.917 2.094-1.209a5.483 5.483 0 012.645-.464c.884.071 1.806.351 2.753.75.954.393 1.909.917 2.997 1.394-.48-1.102-1.223-2.049-2.158-2.817-.935-.756-2.12-1.334-3.439-1.43a5.182 5.182 0 00-3.656 1.156 5.67 5.67 0 00-.832.852c.05-.197.102-.393.128-.596.172-1.268-.148-2.698-.923-3.794-.768-1.101-1.863-1.84-2.977-2.257a7.247 7.247 0 00-3.477-.429c.96.703 1.889 1.269 2.715 1.9.826.614 1.537 1.275 2.055 2.013.526.739.852 1.572.993 2.555.09.584.109 1.209.096 1.864a.474.474 0 00-.122-.077c-.006 0-.006 0-.012-.006a5.717 5.717 0 00-.814-1.966 5.199 5.199 0 00-3.15-2.21c-1.287-.309-2.587-.113-3.695.328a7.347 7.347 0 00-2.875 2.037c1.171-.125 2.24-.333 3.266-.429 1.018-.089 1.978-.083 2.843.12.864.202 1.652.601 2.394 1.238.36.31.705.661 1.038 1.043-.02.018-.039.041-.064.065a2.25 2.25 0 00-1.191.078c-.57.196-1.025.583-1.358 1.024a3.42 3.42 0 00-.634 1.483c.423-.334.788-.667 1.166-.953.371-.286.762-.477 1.127-.65.429-.202 1.76-.25 1.965-.124-.006.024-1.293 1.388-1.492 1.65-.928 1.232-1.722 2.578-2.42 3.96a41.447 41.447 0 00-1.845 4.288c-.16.44-.307 1.007-.454 1.62-.128-.34-.27-.69-.417-1.042l.007-.006s-.007 0-.007-.006c-.62-1.453-1.44-3.008-2.484-4.3h-.007c-.698-.864-1.498-1.608-2.401-2.12h.013c1.69-.745 6.685.387 6.794.393a.117.117 0 00.121-.078.14.14 0 00-.025-.149c-.103-.101-2.472-2.537-4.995-2.537h-.064c-.211.006-.423.018-.628.036 0 0 .948-.995 4.028-1.554.051-.012.077-.072.077-.126a.13.13 0 00-.09-.119c-.05-.017-1.331-.476-2.791-.476-.846 0-1.582.155-2.178.464-1.658.864-2.17 1.87-2.298 2.216-.487-.232-1.287-.477-2.478-.435-2.248.078-4.259 2.365-4.342 2.46-.032.042-.045.101-.02.149a.143.143 0 00.129.077c.096-.006 4.008-1.131 5.5-.649 0 0-.896.703-1.338 1.293-1.556 2.06-1.268 5.46-1.249 5.61a.132.132 0 00.096.113.12.12 0 00.141-.048c.07-.089 2.478-4.645 4.899-6.318 0 0 4.79 2.525 4.975 16.026h2.607c-.5-11.155 3.24-16.926 3.887-18.254.096-.197.717-1.28 1.242-1.995 0 0 .557.256 1.05 1.042 0 0 .378.691.435 1.072.07.405.045.846-.025 1.322-.064.465-.186.953-.276 1.495.423-.34.75-.768.98-1.274.224-.507.346-1.102.244-1.704a2.398 2.398 0 00-.897-1.518c-.032-.024-.064-.042-.096-.066.007-.041 0-.089 0-.13.474 0 .928.029 1.357.1a5.535 5.535 0 012.504 1.007c.724.524 1.364 1.25 1.973 2.096.614.84 1.172 1.787 1.863 2.77.147-1.203-.013-2.394-.416-3.544-.441-1.156-1.158-2.281-2.24-3.055z"/></svg></svg>