<svg width="188" height="260" fill="none" xmlns="http://www.w3.org/2000/svg"><path d="M111.388 45.678c.251.122 1.758.852 4.522.244l3.015-.73s3.895 2.434 3.769 5.112c-.125 2.678-1.256 11.809.126 15.34 1.382 3.53 4.271 3.408 4.271 3.408s-.376 2.678 0 6.209l.629 6.087s-2.639 3.287-7.915 3.287c-9.046-.122-10.679-11.079-10.679-11.079s-.251 5.113 1.885 8.279c1.759 2.556 4.522 3.895 4.522 3.895s-7.914 3.044-12.563 8.278c-4.648 5.235-7.663 11.931-7.663 11.931s-17.463 2.556-25.126-1.339c-7.79-3.896-8.669-9.252-8.669-9.252s8.92-1.583 17.212-14c8.417-12.418 4.648-15.826 13.065-17.774 8.04-1.826 13.191 4.748 13.443 5.113-.252-.487-4.021-7.426-9.297-7.67-5.402-.243-9.8.73-9.8.73l-.125-10.956s8.669-5.113 15.704-5.478c6.784-.365 16.081 5.478 16.709 5.843l-7.035-5.478zm-29.021-6.33c.251.121 5.276 1.217 9.925.365 4.522-.852 13.945-6.087 17.337-6.087 3.266-.122 8.92 1.704 9.296 1.704-.125-.121-1.13-.73-2.512-1.339-1.885-.852-4.523-1.826-7.287-1.704-3.015.243-7.789 2.313-11.935 4.139-2.764 1.217-5.276 2.191-6.532 2.191-10.553 0-10.177-4.626-10.177-4.626l14.448.73s-11.558-2.312-13.191-3.408c-3.644-2.191-1.885-4.017-1.885-4.017s6.533 4.87 15.076 2.921c8.543-1.948 16.206-12.417 18.97-13.878 2.764-1.34 8.041-1.704 8.041-1.704s-6.282-.852-8.795.487c-2.512 1.339-13.693 14.608-22.362 14.121C79.73 28.635 76.211 20.6 76.211 20.6s17.714 1.948 26.257-3.165c8.417-4.992 17.337-13.392 24.749-13.879 7.412-.486 11.809 5.113 11.809 5.113s-4.774.366-6.532 4.261c-1.759 3.896.753 8.035-2.011 10.105-2.763 2.07-4.522-.974-8.542 1.46-4.021 2.314-4.272 7.427-4.272 7.427s2.764-4.261 5.528-5.6c2.261-1.096 5.025-.61 7.035-1.583.503-.244.88-.487 1.131-.852 1.884-2.192 1.633-3.774 1.633-3.774s3.141 1.704 2.89 4.626c-.126.852-.377 1.583-.754 2.191-.88 1.218-2.01 1.583-2.01 1.583s3.643-.365 3.769-3.896c.125-3.652-3.644-5.843-3.644-5.843s-.628-4.748.88-6.33c1.507-1.583 6.533-2.679 6.533-2.679s5.276 3.652 5.025 4.261c-.251.609-.377 1.583.251 2.8.503 1.217 8.292 3.53 8.04 4.748-.125.608-1.758 1.704-1.758 1.704s-.88-.243-1.508.365c-.628.61 0 1.461 0 1.461s0-.852.503-.974c.502-.121.628-.121.628.366s1.507.608 1.507 1.339c0 .73-1.633 2.191-1.633 2.191s2.638-.122 3.015.609c.251.608-1.005.974-1.005 2.07 0 1.217 2.513 1.46 2.01 2.921-.502 1.46-6.03 2.922-10.05 2.8-3.769-.122-7.287-2.191-7.538-2.313.126.243 1.759 2.07 3.141 2.556 1.507.487 8.417.487 8.417.487s-9.799 3.653-16.206 13.026c-6.408 9.496-6.031 16.8-6.031 16.8s-3.015-.365-3.14-4.139c-.126-3.774.628-11.078 0-13.391-.629-2.313-3.895-6.087-3.895-6.087s4.523-.852 7.412-3.896c2.89-3.043 4.02-7.67 4.02-7.67l2.764.853s2.136.974 2.764.243c.628-.73-.628-2.434-.628-2.434s.251 1.826-.377 1.826c-.628.122-5.528-1.34-6.156-3.652-.502-2.313.754-3.044 1.508-2.922.754 0 1.382.974 1.382.974s.251-1.218-1.131-1.704a1.648 1.648 0 00-1.508 0c-.753.365-1.256 1.217-1.507 2.678a2.989 2.989 0 001.633 3.287s-1.131 5.478-4.648 7.913c-2.513 1.704-4.9 2.191-6.407 3.043 0 0-.754-1.339-2.639-2.678-1.884-1.34-7.914-2.07-12.814-.974-5.276 1.217-11.558 3.896-15.578 4.14-3.518.243-6.03-2.923-6.156-3.044zM60.256 99.974s-6.659 6.817-9.297 12.66c-2.638 5.844-2.261 13.392-2.261 13.392l-3.267 8.887S29.98 151.591 27.09 157.434c-2.512 5.235-14.447 18.87-23.241 25.565-7.413 5.6-25.63 33.844-27.514 35.792-1.884 1.948-8.668 5.478-9.296 8.643-.628 3.165 6.784 11.565 9.17 14.974 2.388 3.287 5.654 13.27 10.051 15.948 4.397 2.678 11.056 1.217 11.81-.609.628-1.826-2.262-3.774-4.523-6.574-2.136-2.8-2.01-6.939-2.01-6.939s1.13-.487 1.633-1.826c.502-1.339-.754-7.548-.754-7.548s4.272 6.696 6.282 9.252c1.884 2.679 4.02 9.496 6.91 12.905 2.889 3.408 12.437 2.434 13.442.487 1.005-1.948-1.885-4.87-4.02-6.696-2.262-1.826-2.136-7.426-2.136-7.426s1.382-1.096 1.382-2.557c0-1.46-1.382-2.191-1.382-2.191s1.005-1.339 1.005-2.191c0-.974-1.005-2.07-1.005-2.07s.88-.365.88-2.069c0-1.583-1.006-2.557-.754-3.044.25-.487-.126-2.191 0-4.261.125-2.069 1.256-4.747 1.256-4.747s13.82-12.296 25.377-22.4c11.558-10.105 36.684-27.757 36.684-27.757s.754 4.018 4.272 4.018c3.518-.122 12.438-8.4 12.438-8.4s.879.243 2.01-.487c1.13-.731 1.382-2.07 1.382-2.07l2.26-.487c.755-.487 1.508-1.704 1.508-1.704s1.634 0 2.513-.609c.754-.609 1.131-1.826 1.131-1.826s2.638-1.826 4.397-3.287c1.759-1.461 5.653-3.652 5.653-3.652s38.066-12.783 44.097-14.365c6.03-1.583 29.649-5.479 29.649-21.67 0-17.287-33.795-14.487-33.795-14.487l-32.162 2.313s5.654-10.348 16.332-17.53c10.679-7.183 12.689-10.104 12.815-13.757 0 0-1.508-14.852 5.276-23.495 6.659-8.644 19.096-14.365 19.096-14.365s2.89-1.218 2.513-2.8c-.377-1.583-2.01-1.705-2.262-2.679-.251-.852 1.257-2.921.754-3.287-.502-.486-1.382-.486-1.382-.486s.628-1.218.251-1.705c-.376-.487-2.135-.73-1.884-1.339.126-.487 3.015-1.704 2.387-2.922-.628-1.217-7.412-3.408-8.166-4.87-.754-1.46.126-2.312-.251-3.165-.377-.73-7.287-6.33-7.287-6.33s-.126-3.409-4.271-4.504c-4.146-1.096-17.212 4.26-17.212 4.26s-5.151-3.773-12.563-2.8c-7.412 1.096-19.347 12.905-30.654 15.462-11.307 2.556-21.106 1.826-21.106 1.826s-.377 2.556.88 4.26c1.256 1.705 3.14 2.922 3.14 2.922s-1.256 1.826-.628 3.652c.628 1.705 2.262 3.287 2.262 3.287s-1.508 1.096-.629 2.922c.88 1.826 2.01 8.035 9.925 8.4 2.387.122 4.523-.243 6.533-.852 4.648-1.34 8.543-3.652 13.317-3.53 6.91.121 9.171 2.312 9.171 2.312s-1.382 1.948-5.402 1.827c-3.895-.122-6.91-2.07-14.07-.244l-2.639.73c-6.156 1.948-11.81 4.505-11.81 4.505s-8.291 0-14.321 1.582c-6.03 1.583-8.794 3.166-10.93 3.287-2.01.122-14.573-.121-17.588.609-3.016.73-23.996 5.965-27.89 5.722-3.895-.244-17.212-1.583-21.232-.974-4.146.608-8.794 2.678-9.925 2.678-1.13 0-1.759-.122-1.759.365-.125.487 1.633 2.07 3.518 1.948 1.884-.122 2.89-.365 2.89-.365s1.884.243 2.763 0c.88-.244 2.136-.852 2.136-.852s1.508.974 2.513.852 2.89.365 2.89.365-7.287.487-7.539 2.678c-.251 2.192 3.141.853 5.151.974 1.885.122 6.533 1.34 8.92.852 2.261-.487 6.658-2.19 8.166-2.07 1.382.123 23.744 2.192 30.151 2.192 6.407.122 20.855-3.043 20.855-3.043s5.402.243 9.925.365c4.523.243 10.93-.609 10.93-.609S75.834 84.635 66.537 89.87c-7.035 3.896-8.291 4.14-8.543 4.018 0 .487.252 2.434.88 4.017.377.852.88 1.583 1.382 2.07zm-82.79 139.391c-2.011-2.8-6.91-9.496-6.157-12.053.754-2.678 5.78-5.356 5.78-5.356s1.632 1.704 3.266 2.556c1.633.853 2.89.853 2.89 1.34 0 .487-.127 4.139-.127 4.139s-1.381 1.217-1.381 2.8c0 1.582 1.005 2.191 1.005 2.191s-1.006.974-.754 2.435c.251 1.461 1.13 1.948 1.13 1.948s-.753 1.095-.628 2.434c.126 1.339 1.634 1.948 1.634 1.948l5.276-.243s-.502 3.53 1.005 6.452c1.759 3.409 5.653 6.33 5.025 7.061-1.13 1.217-8.04.73-9.925-2.192-1.884-2.678-6.03-12.66-8.04-15.46zm1.255-18.748l1.382-2.922s1.885 2.8 4.774 3.287c2.89.487 7.287-.974 7.287-.974s-3.769 7.061-3.266 8.644c.502 1.704-4.146 1.704-4.146.243 0-1.461 1.005-4.383 0-4.626-1.005-.365-3.016-.609-4.146-1.704a55.317 55.317 0 00-1.885-1.948zm7.287-1.826c-4.774-.609-4.02-4.139-4.02-4.139s19.221-25.931 21.483-28c2.261-2.07 12.563-10.348 12.563-10.348l.125 7.669s11.307-22.4 14.574-27.513c3.266-4.991 15.703-19.113 15.703-19.113l26.885 4.748s-4.02 9.131-5.15 11.565c-1.131 2.435-4.272 4.018-7.413 6.818-3.14 2.8-5.025 7.182-5.025 7.182s-30.277 24.226-35.05 28.122c-4.775 3.896-25.127 21.67-25.127 21.67s-4.774 1.947-9.548 1.339zm-2.764 14.243c0-.609.377-1.095 1.005-1.095l4.523-.244h.126c.628 0 1.005.487 1.13.974 0 .609-.377 1.096-1.005 1.096l-4.523.243h-.125c-.628.122-1.13-.365-1.13-.974zm.126 4.261c0-.609.377-1.096 1.005-1.096l4.523-.243h.125c.628 0 1.13.487 1.13.974 0 .609-.376 1.095-1.004 1.095l-4.523.244h-.126c-.628 0-1.13-.487-1.13-.974zm.377 4.261c0-.609.377-1.096 1.005-1.096l4.522-.243h.126c.628 0 1.13.487 1.13.974 0 .608-.376 1.095-1.004 1.095l-4.523.244h-.126c-.628 0-1.13-.487-1.13-.974zm3.015-179.078c-1.005-.487 6.281-2.191 6.281-2.191s16.835 2.434 20.352 2.07c3.644-.366 27.137-6.453 30.277-6.453 3.141 0 13.317 1.34 17.086.487 3.644-.852 8.04-3.774 13.066-4.626 4.9-.852 9.8-.852 9.8-.852v10.835s-4.524 2.921-11.056 2.434c-6.533-.487-19.347-.852-19.347-.852l6.532 1.583s-14.322 2.435-20.352 1.948c-6.03-.487-22.865-1.948-26.508-1.948-4.523 0-8.92 3.043-10.679 2.922-1.758-.122-6.03-1.096-6.784-.974-.753.243-2.387.608-2.387 0 0-.609 10.428-1.218 10.428-1.218s-5.402-2.678-7.161-2.922c-1.634-.243-4.649-.973-4.649-.973s-4.02 1.217-4.9.73zM-.675 239.243c-2.01-2.8-6.91-9.496-6.156-12.052.754-2.679 5.779-5.357 5.779-5.357s1.633 1.705 3.266 2.557c1.634.852 2.89.852 2.89 1.339s-.126 4.139-.126 4.139-1.382 1.217-1.382 2.678c0 1.461 1.005 2.192 1.005 2.192s-1.005.973-.753 2.434c.25 1.461 1.13 1.948 1.13 1.948s-.754 1.096-.628 2.435 1.633 1.948 1.633 1.948l5.277-.244s-.503 3.531 1.005 6.452c1.759 3.409 5.653 6.331 5.025 7.061-1.13 1.218-8.04.731-9.925-2.191-1.884-2.678-6.03-12.661-8.04-15.339zm1.382-18.87l1.382-2.921s1.884 2.8 4.774 3.287c2.89.486 4.271-.244 4.271-.244s-.754 6.209-.251 7.913c.502 1.704-4.146 1.704-4.146.244 0-1.461 1.005-4.383 0-4.627-1.005-.365-3.015-.608-4.146-1.704-1.256-1.217-1.884-1.948-1.884-1.948zm6.407-1.826c-3.392-.974-4.648-3.895-4.648-3.895s28.015-23.739 35.553-29.826c7.538-6.087 19.975-14.244 19.975-14.244s.503 1.826 3.267 2.07c2.764.243 12.563-8.035 12.563-8.035s2.764-.365 3.392-1.096c.628-.73.88-2.069.88-2.069s.627.243 1.633-.244c1.005-.487 2.01-.487 2.135-.487 0 0-1.884 2.679-3.643 4.018-1.885 1.461-1.759 3.53-1.759 3.53S44.93 191.278 42.04 193.956c-2.89 2.678-27.764 23.861-27.764 23.861s-3.769 1.704-7.161.73zm-2.01 14.365c0-.608.377-1.095 1.005-1.095l4.523-.244h.125c.628 0 1.13.487 1.13.974 0 .609-.376 1.096-1.004 1.096l-4.523.243h-.125c-.629 0-1.131-.487-1.131-.974zm.125 4.14c0-.609.377-1.096 1.006-1.096l4.522-.244h.126c.628 0 1.13.487 1.13.974 0 .609-.376 1.096-1.005 1.096l-4.522.243H6.36c-.628 0-1.13-.365-1.13-.973zm.377 4.26c0-.608.377-1.095 1.005-1.095l4.523-.244h.126c.628 0 1.13.487 1.13.974 0 .609-.377 1.096-1.005 1.096l-4.522.243h-.126c-.628 0-1.13-.365-1.13-.974zM47.316 135.4l3.015-7.061c.88 4.017 7.287 8.887 7.287 8.887L47.316 135.4zm4.523-13.27c0-12.296 10.301-19.843 10.301-19.843s4.272 5.478 11.433 7.304c7.286 1.704 20.478.122 20.478.122l-4.523 10.226-10.553 3.408 9.297 4.383.376 10.104-3.266.487s-3.14-2.921-5.905-2.191c-2.764.73-4.397 3.165-4.397 3.165S51.84 138.2 51.84 122.13zm9.673 48.33c-1.759-.121-2.513-2.069-1.256-5.234.88-2.192 5.528-5.722 8.543-8.766 1.13-1.217 2.135-2.191 2.387-3.165 1.13-3.165 5.527-12.904 8.166-13.756 2.638-.852 4.9 1.095 4.9 1.095s-.503 2.192-.378 4.018c.126 1.826.88 2.8.503 3.043a733.79 733.79 0 01-3.518 2.192s-1.884-.487-3.14.486c-1.257.853-1.257 2.07-1.257 2.07s-1.382-.243-2.512.852c-1.131 1.096-1.005 2.07-1.005 2.07s-1.382 0-2.387.974l-.252.243c-.754.852-.502 2.191-.502 2.191l3.266 4.018c.126 0-9.799 7.913-11.558 7.669zm9.925-11.808c-.126-.244-.251-.487-.251-.731 0-.365.125-.608.377-.852.502-.365 1.13-.365 1.633.122l2.764 3.409c.125.243.25.487.25.73 0 .365-.125.609-.376.852-.502.365-1.13.365-1.633-.122l-2.764-3.408zm3.518-2.8c-.126-.244-.252-.487-.252-.731 0-.365.126-.608.377-.852.503-.365 1.13-.365 1.633.122l2.764 3.409c.126.243.252.487.252.73 0 .365-.126.609-.377.852-.503.365-1.131.365-1.633-.122l-2.764-3.408zm3.392-2.435c-.126-.244-.252-.487-.252-.73 0-.366.126-.609.377-.853.503-.365 1.131-.243 1.634.122l2.763 3.409c.126.243.252.487.252.73 0 .365-.126.609-.377.852-.503.366-1.13.244-1.633-.121l-2.764-3.409zm1.633 19.113c-1.759-.122-2.513-2.07-1.257-5.235 1.257-3.165 9.8-8.765 10.93-11.93.252-.609.629-1.583 1.005-2.557a95.47 95.47 0 015.026-2.435c2.261-.973 4.648-1.217 6.909-2.069.252 1.096.503 1.217.126 1.339-.377.244-3.518 2.191-3.518 2.191s-1.884-.487-3.14.487c-1.257.852-1.257 2.07-1.257 2.07s-1.382-.244-2.512.852c-1.131 1.096-1.005 2.07-1.005 2.07s-1.382 0-2.387.974c-1.005.852-.629 2.434-.629 2.434l3.267 4.018c0 .121-9.925 7.913-11.558 7.791zm5.528-18.626c-1.131 1.339-3.895-2.313-2.513-3.165 1.256-.852 4.271-1.705 3.894-2.679-.376-.973-1.256-2.678-1.004-4.26.25-1.583.502-2.557.502-2.557l3.266-.609s-1.256 3.166 0 5.722c1.257 2.557 2.639 3.287 2.639 3.287s-5.654 2.922-6.784 4.261zm6.156-27.27l-6.03-2.556 6.532-1.826 5.78-13.026s35.804-4.992 50.88-4.505c15.075.487 15.201 12.053 15.201 12.053 0 8.643-12.814 16.678-30.654 21.426-17.84 4.747-39.322 10.469-39.322 10.469s-2.388-1.582-2.89-3.774c-.502-2.069 0-4.382 0-4.382s5.15-1.826 8.794-4.383c3.643-2.435 12.689-10.835 19.975-13.026 7.413-2.191 19.976-1.826 19.976-1.826s-14.573-2.313-21.483-.609c-6.91 1.705-18.72 12.783-20.73 13.757-2.512 1.217-5.653 3.043-5.653 3.043l-.377-10.835zm-1.76 34.087c-.125-.243-.25-.487-.25-.73 0-.365.125-.609.376-.852.503-.366 1.131-.244 1.633.121l2.764 3.409c.126.244.252.487.252.731 0 .365-.126.608-.377.852-.503.365-1.13.243-1.633-.122l-2.764-3.409zm3.393-2.8c-.126-.243-.251-.487-.251-.73 0-.365.125-.609.376-.852.503-.366 1.131-.244 1.633.121l2.764 3.409c.126.244.252.487.252.731 0 .365-.126.608-.377.852-.503.365-1.13.243-1.633-.122l-2.764-3.409zm3.392-2.556c-.126-.244-.251-.487-.251-.731 0-.365.125-.608.376-.852.503-.365 1.131-.243 1.634.122l2.763 3.409c.126.243.252.487.252.73 0 .365-.126.609-.377.852-.503.365-1.13.244-1.633-.122l-2.764-3.408zm20.729-51.496l-19.347 2.192s5.402-10.835 11.055-14.366c5.654-3.53 8.417-5.113 8.417-5.113s2.639 1.096 6.533-.73c3.895-1.826 5.151-3.409 5.151-3.409s-.251-20.695 2.764-26.417c4.271-8.035 8.04-10.348 8.04-10.348s2.764.73 2.764 3.652-1.884 10.348-.377 14.365c1.382 3.896 5.277 7.792 5.277 7.792s-.628 4.26-5.025 7.547c-6.91 5.235-11.056 7.792-15.704 12.174-4.649 4.261-9.548 12.661-9.548 12.661zm-13.443 51.983c-1.13 1.339-3.894-2.313-2.512-3.165 1.256-.853 4.271-1.705 3.894-2.679-.125-.487-.502-1.217-.753-2.069 1.005-.365 1.633-.609 2.638-.852.125.365 3.517 4.017 3.517 4.017s-5.653 3.409-6.784 4.748zm8.669-5.479l-3.518-4.139 22.363-5.965s35.804-8.035 35.427-23.739c0-9.496-11.683-12.661-11.683-12.661s29.146-3.895 29.146 12.539c0 14.244-16.709 15.461-31.408 20.331-13.442 4.626-40.327 13.634-40.327 13.634zM142.167 7.209l-1.005-1.583s6.156-4.626 11.432-4.26c5.277.364 6.156 2.556 5.277 3.53-.628.73-1.759-.974-4.648-.853-2.639 0-4.397 1.34-4.523 1.461.251-.121 2.513-.974 4.02-.73 1.633.243 1.885.974 1.382 1.217-.502.365-1.005.122-1.508.487-.376.365.126 1.096-.628 1.096-.753 0-.377-1.096-3.392-1.096-3.015 0-4.02 1.096-4.02 1.096s3.518-.73 4.272-.487c.753.365 1.633.487 1.633 1.704 0 1.218-.503 1.34-.754 2.8-.251 1.461.126 5.235.126 5.235s-2.262-.852-2.01-2.8c.125-1.46.376-1.704-.377-2.556-.377-.488-2.136-1.948-3.518-3.044-1.005-.609-1.759-1.217-1.759-1.217zm-.754 36.886s1.634-1.704 4.649-3.895c2.01-1.461 6.658-3.287 9.422-4.505 1.382-.608 2.261-1.46 2.261-1.46s1.508 1.095 3.769 1.582c2.262.487 8.166-.608 8.166-.608s-9.548 5.356-15.201 12.173c-5.779 6.94-5.402 19.966-6.03 20.087-.628.122-4.021-4.26-4.272-5.843-.502-2.557.126-8.278.377-11.809.377-3.53-3.141-5.721-3.141-5.721zm9.297-27.756c-.879-1.704.251-6.33 3.266-7.791 3.016-1.461 5.654-1.461 5.654-1.461s6.281 4.26 6.156 4.991c-.126.73-.377 2.8.377 3.409.753.609 8.166 2.922 7.914 3.896-.251.973-1.758 1.947-1.758 1.947s-1.257 0-1.508.244c-.251.365 0 1.704 0 1.704s.251-.974.502-1.095c.252-.122 2.136 1.704 2.136 1.704l-1.256 2.556c.126 0 2.136-.73 2.136-.243s-.629 1.096-.754 1.582c-.126.487-.126 1.705.377 2.192.502.487 1.507 0 1.759 1.217.376 2.192-10.302 3.774-13.317 3.165-2.89-.608-5.026-2.8-5.654-3.165-.502-.365-1.256-.608-1.256-1.46 0-.853 1.131-1.096.879-2.07-.125-.974-2.01-.974-2.01-.974s1.382-1.34 1.005-1.948c-.377-.609-1.382-.609-1.758-1.096-.377-.487 2.512-1.948 2.261-2.921.126-.853-4.397-2.679-5.151-4.383z" fill="#897421"/><path d="M-18.013 214.516s-.753 3.652 4.02 4.139c4.774.609 9.423-1.339 9.423-1.339s20.226-17.774 25.126-21.669c4.774-3.896 35.051-28.122 35.051-28.122s1.885-4.383 5.025-7.183c3.141-2.8 6.407-4.382 7.412-6.817 1.131-2.435 5.151-11.565 5.151-11.565l-26.885-4.748s-12.437 14.122-15.704 19.113c-3.266 4.991-14.573 27.513-14.573 27.513l-.125-7.67s-10.302 8.279-12.563 10.348c-2.136 2.07-21.358 28-21.358 28zM-7.081 60.28s-7.161 1.704-6.282 2.191c1.005.487 5.151-.852 5.151-.852s3.015.73 4.648.974c1.634.244 7.161 2.922 7.161 2.922s-10.427.73-10.427 1.217c0 .609 1.633.244 2.387 0 .754-.243 5.025.853 6.784.974 1.759.122 6.156-2.922 10.679-2.922 3.643 0 20.352 1.461 26.508 1.948 6.03.487 20.352-1.948 20.352-1.948l-6.533-1.582s12.815.365 19.348.852c6.532.487 11.055-2.435 11.055-2.435V50.906s-4.9 0-9.925.852c-5.025.853-9.422 3.774-13.066 4.627-3.643.852-13.944-.487-17.085-.487S17.04 61.983 13.397 62.35c-3.644.365-20.478-2.07-20.478-2.07zm.249 166.896c-.754 2.678 4.145 9.374 6.155 12.052 2.01 2.8 6.156 12.661 8.04 15.461 1.885 2.8 8.795 3.409 9.926 2.191.628-.73-3.267-3.652-5.026-7.06-1.507-2.922-1.005-6.453-1.005-6.453l-5.276.244s-1.508-.609-1.633-1.948c-.126-1.339.628-2.435.628-2.435s-.88-.487-1.13-1.948c-.252-1.46.753-2.434.753-2.434s-1.005-.609-1.005-2.192c0-1.582 1.382-2.678 1.382-2.678s.125-3.652.125-4.139c0-.487-1.13-.365-2.89-1.339-1.758-.974-3.265-2.557-3.265-2.557s-5.026 2.557-5.78 5.235z" fill="#FCD672"/><path d="M2.086 217.442l-1.381 2.922 1.884 1.826c1.13 1.096 3.14 1.339 4.146 1.705 1.005.365 0 3.165 0 4.626 0 1.461 4.648 1.461 4.146-.244-.503-1.704.25-7.913.25-7.913s-1.381.731-4.27.244c-2.89-.366-4.775-3.166-4.775-3.166z" fill="#FEE461"/><path d="M2.464 214.645s1.256 2.922 4.648 3.896c3.392.974 6.91-1.096 6.91-1.096s24.875-21.182 27.764-23.861c2.89-2.678 34.423-25.687 34.423-25.687s0-2.069 1.759-3.53c1.885-1.461 3.643-4.017 3.643-4.017-.125 0-1.13 0-2.135.487s-1.634.243-1.634.243-.376 1.339-.879 2.07c-.628.73-3.392 1.095-3.392 1.095s-9.8 8.279-12.563 8.035c-2.764-.243-3.267-2.07-3.267-2.07s-12.563 8.279-19.975 14.244c-7.412 5.965-35.302 30.191-35.302 30.191zm3.645 17.04c-.628 0-1.13.609-1.005 1.096 0 .608.502.973 1.13.973h.126l4.523-.243c.628 0 1.13-.609 1.005-1.096 0-.608-.503-.974-1.13-.974h-.126l-4.523.244zm.127 4.138c-.628 0-1.13.608-1.005 1.095 0 .609.502.974 1.13.974h.126l4.523-.243c.628 0 1.13-.609 1.005-1.096 0-.609-.503-.974-1.13-.974h-.127l-4.522.244z" fill="#FCD672"/><path d="M6.61 240.206c-.627 0-1.13.609-1.004 1.096 0 .609.502.974 1.13.974h.126l4.523-.244c.628 0 1.13-.608 1.005-1.095 0-.609-.503-.974-1.13-.974h-.127l-4.522.243z" fill="#FBCF0B"/><path d="M50.33 128.328l-3.014 7.061 10.301 1.826s-6.407-4.869-7.286-8.887z" fill="#8D7632"/><path d="M62.139 102.275s-10.302 7.548-10.302 19.844c0 16.069 23.367 17.165 23.367 17.165s1.634-2.435 4.398-3.165c2.763-.731 5.904 2.191 5.904 2.191l3.267-.487-.377-10.104-9.297-4.383 10.553-3.408 4.523-10.227s-13.191 1.583-20.478-.121c-7.287-1.826-11.558-7.305-11.558-7.305zm-1.757 62.944c-1.256 3.165-.502 5.113 1.257 5.234 1.758.122 11.683-7.669 11.683-7.669l-3.266-4.018s-.377-1.339.502-2.191h-1.507c-3.141 2.922-7.79 6.452-8.669 8.644z" fill="#FCD672"/><path d="M118.425 51.146c-.628-.365-9.925-6.087-16.709-5.843-6.91.365-15.703 5.478-15.703 5.478l.125 10.956s4.272-.974 9.8-.73c5.276.243 9.17 7.182 9.296 7.67-.251-.366-5.402-7.062-13.442-5.114-8.292 1.948-4.649 5.478-12.94 17.896-8.292 12.539-17.212 14-17.212 14s.88 5.356 8.669 9.252c7.789 3.896 25.126 1.339 25.126 1.339s3.015-6.695 7.663-11.93c4.649-5.235 12.563-8.279 12.563-8.279s-2.889-1.339-4.522-3.895c-2.136-3.044-1.885-8.278-1.885-8.278s1.759 10.956 10.679 11.078c5.276.122 7.915-3.287 7.915-3.287s-.126-2.435-.628-6.087c-.377-3.652 0-6.209 0-6.209s-2.764.122-4.272-3.408c-1.382-3.53-.251-12.661-.126-15.34.126-2.678-3.769-5.112-3.769-5.112l-3.015.73c-2.764.609-4.271-.122-4.522-.244l6.909 5.357zM68.8 156.454h1.507c0-.122.126-.122.251-.244 1.005-.852 2.387-.974 2.387-.974s-.125-.974 1.006-2.069c1.13-1.096 2.512-.853 2.512-.853s0-1.217 1.256-2.069c1.257-.852 3.141-.487 3.141-.487s3.141-2.07 3.518-2.191c.377-.244-.377-1.218-.503-3.044-.125-1.826.377-4.017.377-4.017s-2.261-1.948-4.9-1.096c-2.638.852-6.91 10.591-8.165 13.757-.252 1.095-1.131 2.191-2.387 3.287zm2.386 1.575c0 .244.125.487.251.731l2.764 3.409c.377.487 1.13.487 1.633.121.251-.243.377-.487.377-.852 0-.243-.126-.487-.251-.73l-2.764-3.409c-.377-.487-1.13-.487-1.633-.122-.126.122-.377.487-.377.852zm3.516-2.795c0 .243.126.487.252.73l2.763 3.409c.377.487 1.131.487 1.634.121.25-.243.377-.486.377-.852 0-.243-.126-.487-.252-.73l-2.764-3.409c-.377-.487-1.13-.487-1.633-.122-.251.244-.377.487-.377.853zm3.394-2.555c0 .243.126.487.251.73l2.764 3.409c.377.487 1.13.487 1.633.122.252-.244.377-.487.377-.852 0-.244-.125-.487-.251-.731l-2.764-3.409c-.377-.486-1.13-.486-1.633-.121a1.293 1.293 0 00-.377.852zm.626 14.605c-1.256 3.165-.503 5.113 1.256 5.234 1.759.122 11.684-7.669 11.684-7.669l-3.267-4.018s-.376-1.582.629-2.434c1.005-.853 2.386-.974 2.386-.974s-.125-.974 1.006-2.07c1.13-1.095 2.512-.852 2.512-.852s0-1.217 1.257-2.07c1.256-.852 3.14-.487 3.14-.487s3.141-2.069 3.518-2.191c.377-.122.126-.365-.126-1.339-2.261.852-4.648 1.217-6.91 2.07-1.758.73-3.391 1.582-5.025 2.434-.502.974-.753 1.948-1.005 2.557-1.256 3.043-9.799 8.643-11.055 11.809zM76.085 20.71s3.517 7.913 14.573 8.644c8.668.487 19.85-12.904 22.362-14.122 2.513-1.217 8.794-.487 8.794-.487s-5.151.366-8.04 1.705c-2.764 1.339-10.427 11.93-18.97 13.878-8.543 1.948-15.076-2.922-15.076-2.922s-1.633 1.826 1.884 4.018c1.885.973 13.317 3.286 13.317 3.286l2.387 1.583c4.146-1.704 8.92-3.896 11.935-4.14 2.764-.12 5.402.731 7.287 1.705l1.256-2.07s.251-4.99 4.272-7.425c4.02-2.313 5.779.608 8.542-1.461 2.764-2.07.377-6.087 2.011-10.105 1.758-3.895 6.532-4.26 6.532-4.26s-4.397-5.6-11.809-5.113c-7.412.487-16.332 8.886-24.875 14-8.543 5.234-26.382 3.287-26.382 3.287z" fill="#FCD672"/><path d="M80.608 33.857s-.377 4.627 10.176 4.627c1.256 0 3.643-.974 6.532-2.192l-2.261-1.582-14.448-.853zm2.386 116.752c-1.256.852 1.382 4.504 2.513 3.165 1.13-1.339 6.784-4.382 6.784-4.382s-1.382-.731-2.638-3.287c-1.257-2.557 0-5.722 0-5.722l-3.267.609s-.25.973-.502 2.556c-.251 1.583.628 3.287 1.005 4.261.377 1.096-2.638 1.948-3.895 2.8zm2.514-26.541l6.03 2.557.377 10.713s3.14-1.826 5.653-3.044c2.01-.974 13.82-12.052 20.729-13.756 6.91-1.704 21.483.609 21.483.609s-12.688-.366-19.975 1.826c-7.412 2.191-16.332 10.591-19.975 13.026-3.644 2.434-8.794 4.382-8.794 4.382s-.503 2.313 0 4.383c.502 2.069 2.889 3.774 2.889 3.774s21.483-5.722 39.322-10.47c17.84-4.748 30.654-12.782 30.654-21.426 0 0-.125-11.565-15.201-12.052-15.076-.487-50.88 4.504-50.88 4.504l-5.78 13.026-6.532 1.948z" fill="#FCD672"/><path d="M118.927 35.319c-.377-.122-5.904-1.827-9.296-1.705-3.392.122-12.815 5.235-17.337 6.087-4.774.852-9.674-.365-9.925-.365.125.243 2.638 3.287 6.407 3.165 3.895-.122 10.176-2.922 15.578-4.139 4.9-1.096 10.93-.365 12.815.974 1.884 1.339 2.638 2.678 2.638 2.678 1.507-.852 3.894-1.339 6.407-3.043 3.392-2.313 4.648-7.913 4.648-7.913s-2.01-.852-1.633-3.287c.251-1.461.754-2.313 1.508-2.679l-.252-.486c-2.01.973-4.774.486-7.035 1.582-2.889 1.34-5.528 5.6-5.528 5.6l-1.256 2.07c1.131.73 2.136 1.339 2.261 1.46zM89.655 159.981c0 .243.126.487.252.73l2.764 3.409c.376.487 1.13.487 1.633.122.251-.244.377-.487.377-.853 0-.243-.126-.487-.252-.73l-2.764-3.409c-.376-.487-1.13-.487-1.633-.122-.25.244-.377.487-.377.853zm3.39-2.803c0 .243.126.487.251.73l2.764 3.409c.377.487 1.13.487 1.633.122.252-.244.377-.487.377-.852 0-.244-.125-.487-.25-.731l-2.765-3.409c-.377-.486-1.13-.486-1.633-.121a1.292 1.292 0 00-.377.852zm3.393-2.433c0 .244.125.487.25.731l2.765 3.408c.377.487 1.13.487 1.633.122.251-.243.377-.487.377-.852 0-.243-.126-.487-.251-.73l-2.764-3.409c-.377-.487-1.13-.487-1.633-.122-.252.122-.377.487-.377.852zm1.633-48.693l19.347-2.191s4.9-8.4 9.548-12.66c4.774-4.383 8.92-6.94 15.704-12.175 4.272-3.287 5.025-7.547 5.025-7.547s-3.894-3.896-5.276-7.792c-1.382-3.895.377-11.443.377-14.365 0-2.922-2.764-3.652-2.764-3.652s-3.895 2.191-8.041 10.348c-3.015 5.721-2.763 26.417-2.763 26.417s-1.131 1.583-5.151 3.409c-3.895 1.826-6.533.73-6.533.73s-2.764 1.583-8.417 5.113c-5.654 3.53-11.056 14.365-11.056 14.365zm3.265 46.623c-1.256.852 1.382 4.504 2.513 3.165 1.13-1.339 6.784-4.869 6.784-4.869s-3.392-3.531-3.518-4.018c-1.005.244-1.633.609-2.638.852.251.731.502 1.461.754 2.07.377 1.096-2.513 1.948-3.895 2.8zm7.789-6.454l3.518 4.139s26.885-9.008 40.453-13.513c14.699-4.991 31.408-6.087 31.408-20.33-.126-16.557-29.272-12.661-29.272-12.661s11.809 3.165 11.684 12.661c.376 15.704-35.428 23.739-35.428 23.739l-22.363 5.965z" fill="#FCD672"/><path d="M120.557 43.358s3.266 3.774 3.895 6.087c.628 2.191-.126 9.617 0 13.391.125 3.774 3.14 4.14 3.14 4.14s-.502-7.305 6.031-16.8c6.407-9.496 16.206-13.026 16.206-13.026s-6.91 0-8.417-.487c-1.382-.487-3.015-2.435-3.141-2.557l-.754-1.096c-.628.73-2.764-.243-2.764-.243l-2.638-.974s-1.131 4.626-4.02 7.67c-2.89 3.043-7.538 3.895-7.538 3.895z" fill="#FCD672"/><path d="M131.866 25.705c-.88 0-2.136.609-1.508 2.922.503 2.313 5.528 3.652 6.156 3.652.628-.122.377-1.826.377-1.826s1.382 1.704.628 2.435l.754.973c.251.122 3.769 2.192 7.538 2.314 3.894.121 9.548-1.34 10.05-2.8.503-1.461-2.01-1.705-2.01-2.922 0-1.218 1.257-1.461 1.005-2.07-.251-.608-3.015-.608-3.015-.608s1.633-1.461 1.633-2.192c0-.73-1.507-.852-1.507-1.339s-.252-.487-.628-.365c-.503.122-.503.974-.503.974s-.628-.974 0-1.461c.628-.609 1.508-.365 1.508-.365s1.633-1.096 1.758-1.705c.252-1.095-7.537-3.53-8.04-4.747-.502-1.218-.502-2.07-.251-2.8.251-.61-5.025-4.261-5.025-4.261s-5.026 1.095-6.533 2.678c-1.508 1.582-.88 6.33-.88 6.33s3.769 2.192 3.644 5.844c-.126 3.652-3.769 3.895-3.769 3.895s1.13-.365 2.01-1.582h-2.01c-.126 0-.628-.974-1.382-.974zm10.93-8.4c-1.005 1.46-1.382 3.53-1.382 3.53s.377-3.53 1.256-4.626c.879-1.217 2.513-2.313 2.89-1.582.251.73-1.634 1.217-2.764 2.678zm.251 3.53l2.513-3.895.376.73 1.131.974h.503s.251.487-.88 1.34c-1.005.851-3.643.851-3.643.851z" fill="#FCD672"/><path d="M130.234 24.607l.252.486a1.646 1.646 0 011.507 0c1.382.488 1.131 1.705 1.131 1.705h2.01c.377-.609.628-1.217.754-2.191.377-2.922-2.89-4.627-2.89-4.627s.251 1.583-1.633 3.774c-.251.366-.628.61-1.131.852zm10.927-18.99l1.005 1.583s.754.609 1.633 1.34l.88-.975s1.005-1.095 4.02-1.095v-.974c.251-.122 1.884-1.461 4.523-1.461 2.889 0 4.02 1.582 4.648.852.879-.974 0-3.165-5.277-3.53-5.276-.366-11.432 4.26-11.432 4.26z" fill="#FCD672"/><path d="M141.414 20.831s.377-2.069 1.382-3.53c1.005-1.46 3.015-1.948 2.638-2.678-.251-.73-2.01.365-2.889 1.582-.754 1.096-1.131 4.627-1.131 4.627z" fill="#897421"/><path d="M146.061 40.19c-3.015 2.192-4.648 3.896-4.648 3.896s3.518 2.192 3.266 5.722c-.251 3.53-.879 9.252-.376 11.809.251 1.582 3.643 5.965 4.271 5.843.628-.121.251-13.147 6.03-20.087 5.654-6.817 15.202-12.173 15.202-12.173s-5.905 1.095-8.166.608c-2.262-.487-3.769-1.582-3.769-1.582s-.754.852-2.262 1.46c-2.889 1.218-7.537 3.044-9.548 4.505z" fill="#FCD672"/><path d="M145.309 18.033c-.126.122-.252.608.251 1.095.502.61 1.256-.121 1.256-.121s.503.121-.754.73c-1.256.609-2.135.609-2.135.609l1.382-2.313zm.251-1.218l-2.513 3.896s2.638 0 3.644-.852c1.13-.852.879-1.34.879-1.34h-.503l-1.13-.973-.377-.73z" fill="#897421"/><path d="M145.308 18.036L143.8 20.35s.88 0 2.136-.608c1.256-.61.754-.731.754-.731s-.754.73-1.257.122c-.376-.487-.125-.974-.125-1.096z" fill="#FBCF0B"/><path d="M144.806 7.566l-.88.974c1.382 1.096 3.015 2.557 3.518 3.044.628.852.502 1.095.377 2.556-.252 1.826 2.01 2.8 2.01 2.8s-.377-3.774-.126-5.235c.251-1.46.754-1.46.754-2.8 0-1.339-.754-1.46-1.633-1.704-.754-.365-4.02.365-4.02.365zm3.894-2.069v.974c3.015 0 2.638.973 3.392 1.095.754 0 .126-.73.628-1.095.377-.366 1.005-.122 1.508-.487.502-.366.125-.974-1.382-1.218-1.508-.243-3.769.609-4.146.73.126 0 0 0 0 0zm23.492 20.933l1.257-2.556s-1.885-1.826-2.136-1.704c-.251.122-.502 1.095-.502 1.095s-.252-1.339 0-1.704c.251-.365 1.507-.243 1.507-.243s1.508-.974 1.759-1.948c.251-.974-7.161-3.287-7.915-3.896-.754-.608-.502-2.8-.377-3.409.126-.73-6.156-4.99-6.156-4.99s-2.638 0-5.653 1.46c-3.015 1.461-4.02 6.209-3.266 7.791.879 1.705 5.276 3.652 5.527 4.505.126.974-2.638 2.313-2.261 2.921.377.487 1.382.487 1.759 1.096.377.609-1.005 1.948-1.005 1.948s1.884 0 2.01.974c.126.974-.88 1.217-.88 2.07 0 .852.629 1.095 1.257 1.46.502.366 2.638 2.435 5.653 3.165 2.89.61 13.694-.852 13.317-3.165-.251-1.339-1.256-.73-1.759-1.217-.502-.487-.628-1.704-.377-2.191.126-.487.88-1.096.754-1.583-.377-.609-2.387 0-2.513.122zm-10.176-6.573h-1.633s.377-3.53 1.257-4.626c.879-1.218 2.512-2.313 2.889-1.583.251.487-.503.852-1.382 1.461l1.382.852.377.73 1.131.975h.502s.251.608-.879 1.582c-1.131.852-3.644.609-3.644.609z" fill="#FCD672"/><path d="M160.383 19.86h1.633l2.387-3.896-1.382-.852c-.502.365-.879.73-1.256 1.218-1.005 1.582-1.382 3.53-1.382 3.53z" fill="#998543"/><path d="M160.383 19.859s.377-2.07 1.382-3.53c.377-.488.879-.853 1.256-1.218.88-.609 1.633-.974 1.382-1.46-.251-.731-2.01.364-2.889 1.582-.754 1.217-1.131 4.626-1.131 4.626zm3.895-2.678c-.125.122-.251.609.252 1.096.502.609 1.256-.122 1.256-.122s.502.122-.754.73c-1.256.61-2.136.61-2.136.61l1.382-2.314zm.126-1.217l-2.387 3.896s2.513.121 3.643-.73c1.131-.853.88-1.583.88-1.583h-.503l-1.131-.974-.502-.61z" fill="#897421"/><path d="M164.277 17.184l-1.508 2.313s.879 0 2.136-.61c1.256-.608.754-.73.754-.73s-.754.853-1.257.122c-.502-.487-.251-.974-.125-1.095z" fill="#FEE461"/><path d="M132.871 27.528s-.879-.487-1.508 0c-.628.487-.251 1.826.629 2.313.879.487 2.638 1.217 2.638 1.217s-3.141-1.826-2.638-2.8c.502-.852.879-.73.879-.73z" fill="#8D7632"/><path d="M73.825 141.229s-5.15 11.931-6.03 12.905c-.88.974-7.79 6.574-8.543 7.547-.754.974-3.14 5.114-3.14 5.114s-26.383 21.547-29.273 23.739c-2.764 2.191-31.91 27.026-31.91 27.026s-4.271 1.095-5.528 1.095c-1.256 0-4.02-.121-4.02-.121s21.232-22.4 28.518-27.879c7.161-5.478 9.8-4.747 11.935-6.939 2.262-2.191 11.81-20.087 17.463-27.513 5.653-7.426 12.186-17.53 12.186-17.53l18.342 2.556zm7.911 19.119s-1.884 2.434-3.015 3.53c-1.13 1.096-1.633 1.096-1.884 2.07a9.46 9.46 0 00-.503 1.947s-30.403 22.522-31.784 23.496c-1.257.974-28.519 25.2-30.403 26.052-1.885.852-3.392 1.461-5.654 1.461-2.26 0-3.266-1.217-3.266-1.217s33.418-24.835 36.936-29.583c3.517-4.748 17.085-16.191 17.085-16.191s1.508.852 2.387.609c.88-.244 4.02-1.827 6.282-3.531 2.261-1.704 5.779-4.504 5.779-4.504s2.764-.487 3.14-.974c.378-.487 1.131-2.435 1.131-2.435l3.77-.73zm9.802-14.124s0 .365.754 1.096c.754.73 1.507 1.339 1.507 1.339s35.177-9.374 36.685-9.739c1.507-.365 33.292-7.548 33.417-22.035 0-13.756-19.347-13.878-37.563-10.956l-28.518 3.287-2.262 5.234s37.313-8.887 48.368-7.182c11.181 1.704 11.307 4.382 11.307 4.382l-4.649-1.095s5.528 2.8 5.026 6.817c-.503 4.017-7.161 4.139-7.161 4.139l5.653 1.218s-10.427 9.617-28.016 12.904c-17.462 3.409-34.548 10.591-34.548 10.591z" fill="#F6DFA4"/><path d="M155.234 103.855s16.08-2.313 24.875 3.774c8.794 6.087 2.512 16.557.628 18.261-2.01 1.704-6.156 4.382-10.805 5.843-4.648 1.461-17.965 5.357-21.482 6.574-3.518 1.218-35.805 12.052-35.805 12.052l-1.508-1.704 43.217-14s18.217-5.113 20.478-12.417c2.261-7.305-2.261-9.739-2.261-9.739l4.522.487c0-.122-5.15-8.644-21.859-9.131zm-45.856 45.78l1.382 1.461s-3.895 2.313-4.9 3.043c-1.005.852-1.507 1.948-2.512 1.948-1.006 0-2.262-1.948-2.262-1.948l8.292-4.504zm-9.548 8.762c.878 0 1.255-.974.878-1.583.503.122.88.609.88 1.096 0 .731-.503 1.217-1.256 1.217-.629 0-1.257-.486-1.257-1.217.126.365.377.487.754.487zm-3.518 2.435c.88 0 1.257-.974.88-1.583.502.122.88.609.88 1.096 0 .73-.503 1.217-1.257 1.217-.628 0-1.256-.487-1.256-1.217.125.365.502.487.753.487zm-3.39 2.8c.88 0 1.256-.974.88-1.582.502.122.879.608.879 1.095 0 .731-.503 1.218-1.257 1.218-.628 0-1.256-.487-1.256-1.218.126.366.377.487.754.487zm-2.391-.12s-7.914 7.669-10.05 7.548c-2.136-.122-2.136-2.679-2.136-2.679s-1.005 3.774 1.633 4.139c2.639.366 11.684-7.669 11.684-7.669l-1.13-1.339zm-.126-16.191s0 .122.502.609c.503.487 1.508 1.583 1.508 1.583s-4.02 2.313-4.9 2.8c-.753.487-1.884 1.704-2.26 1.704-.503 0-1.132-.122-1.634-.731-.503-.608-.88-1.46-.88-1.46l7.664-4.505zm-9.043 9.132c.88 0 1.257-.974.88-1.583.502.122.88.609.88 1.096 0 .73-.503 1.217-1.257 1.217-.628 0-1.257-.487-1.257-1.217.126.243.503.487.754.487zm-3.393 2.307c.88 0 1.256-.974.88-1.582.502.121.879.608.879 1.095 0 .731-.503 1.218-1.257 1.218-.628 0-1.256-.487-1.256-1.218.126.366.377.487.754.487zm-3.389 2.801c.879 0 1.255-.974.879-1.582.502.121.879.608.879 1.095 0 .731-.503 1.218-1.256 1.218-.629 0-1.257-.487-1.257-1.218.126.365.377.487.754.487zm-2.638.001s-7.915 7.67-10.05 7.548c-2.137-.121-1.885-3.165-1.885-3.165s-1.257 4.139 1.382 4.504c2.638.366 11.683-7.669 11.683-7.669l-1.13-1.218zm69.474-114.92s.879 0 1.382 1.704c.503 2.07-1.382 10.104-.754 12.904.628 2.8 1.131 4.505 2.764 6.574a106.077 106.077 0 003.015 3.652s-1.005 6.453-9.422 10.713c-2.387 1.218-10.051 7.061-13.819 11.566-3.769 4.504-7.161 9.982-7.161 9.982l-4.272.487s6.659-11.93 10.302-14.73c3.769-2.679 17.463-13.879 17.463-13.879s-7.538-6.817-6.91-13.878c.628-7.06.377-5.843.377-5.843l7.035-9.252z" fill="#F6DFA4"/><path d="M119.053 45.3s2.764 1.096 3.644 4.017c.879 2.922-1.257 10.105-.126 14.487 1.131 4.383 2.764 4.748 2.764 4.748l1.885.609s-.377 2.313 0 5.843a361 361 0 01.628 6.452s-14.071-3.165-14.448-14.608c-.377-11.444 6.407-12.783 5.905-16.435-.503-3.652-2.764-4.748-2.764-4.748l2.512-.365zm-29.025 57.705s5.025-7.305 8.794-11.566c3.769-4.139 13.191-8.278 13.191-8.278l3.643 2.557s-7.412 2.8-12.312 8.278c-4.774 5.478-7.914 11.809-7.914 11.809s-13.82 2.313-22.99-.487h-.126c5.15.243 17.714-2.313 17.714-2.313z" fill="#F6DFA4"/><path d="M117.923 50.785s-7.664-4.87-14.825-5.478c-7.16-.61-16.96 5.478-16.96 5.478v4.017s8.417-5.6 15.83-6.696c7.412-1.095 15.955 2.679 15.955 2.679zm-34.303.121v3.896s-6.281-.609-11.558.365c-5.402.974-9.297 2.678-12.186 2.557-2.89-.122-14.573-1.218-17.086-.61-2.512.488-27.89 6.453-31.156 6.21C8.367 63.08-6.08 60.645-6.96 60.767c-.88.122-5.779 2.07-6.532 1.704-.754-.365 4.522-1.947 6.784-2.19 2.387-.244 16.709 2.19 18.844 1.947 2.136-.244 28.77-6.452 30.528-6.696 2.639-.365 16.332 1.096 17.086.974.88-.121 10.05-4.26 13.945-4.87 3.895-.73 9.925-.73 9.925-.73zm86.058-15.709s-8.669 5.357-11.684 8.522c-3.015 3.165-5.151 4.991-6.407 8.765-1.256 3.774-1.885 6.33-2.136 8.522-.251 2.191-.879 6.33-.879 6.33s-1.131-10.347 1.884-17.408c3.015-7.061 12.689-13.879 12.689-13.879s5.025-.486 6.533-.852zm6.158-3.77c0 .244-1.131 1.218-2.89 1.827-2.01.608-4.522.974-5.276 1.095-.377 0 4.523-1.826 4.397-2.556-.126-.609-1.131-1.34-1.382-2.192-.377-.973.251-2.07.126-2.434-.252-.487-2.639-3.166-2.639-3.166s-1.005-2.07.252-2.8c1.256-.852 3.14-1.217 3.14-1.339 0-.608-5.653-3.043-5.653-3.043s-.879-.365-1.131-.974c-.251-.609-.502-1.583-.502-1.583s.126.244.126-.365-1.131 0-1.131 0-3.769-3.652-5.025-4.382a32.026 32.026 0 01-2.639-1.583s1.005-.609 2.136-.73c1.005-.122 1.759-.244 1.759-.244s2.889 1.948 3.643 2.557c.754.608 2.513 2.19 2.513 2.19s-.503 2.192.125 3.288c.503.974 4.146 1.704 6.408 3.043 2.261 1.34 1.758.852 1.633 1.705-.126.73-1.633 1.582-1.633 1.582s-1.131 0-1.508.244c-.377.365 0 1.704 0 1.704s.251-1.217.503-1.096c.251.122 2.135 1.705 2.135 1.705l-1.256 2.556s1.884-.73 2.136-.243c.251.487-.88 1.095-.88 1.826 0 .73 0 1.826.628 2.07.88.243 1.759.243 1.885 1.338zM157.87 5.004c-.88.487-1.382-1.948-4.9-2.313-3.517-.365-10.302 1.948-10.302 1.948s5.026-3.774 10.428-3.287c5.402.487 5.528 3.043 4.774 3.652z" fill="#F6DFA4"/><path d="M141.163 5.618s2.136-.973 3.769-.973c1.634 0 2.764.486 2.764.486s-3.14.366-4.02.853a6.193 6.193 0 00-1.507 1.217l-1.006-1.583zm10.175 1.337s.377.608 1.13.487c.754 0 0-.609.252-.974.251-.487 1.633-.122 1.759-.73 0-.61-1.508-1.218-3.016-1.096-1.13.121-2.638.73-2.638.73s3.643-.487 3.769 0c.126.487-.502.365-.754.609-.251.365.252.487.252.73-.252.365-.503.487-.754.244z" fill="#F6DFA4"/><path d="M150.335 8.658s.125-1.582-2.136-1.704c-2.261-.122-5.025 1.096-5.025 1.096s5.402-1.096 7.161.608zm-1.258.608s-.754.852-1.759.73c-1.005 0-2.01-.243-2.01-.243l1.382 1.095c0 .122 1.885 0 2.387-1.582z" fill="#FFC844"/><path d="M127.595 66.847s1.131-13.878 9.548-21.182c8.417-7.304 12.563-8.643 12.563-8.643h-6.03s-6.533 4.626-10.051 9.13c-6.909 9.009-6.156 21.304-6.156 21.304" fill="#F4DB6C"/><path d="M147.066 36.294s4.774-.365 7.035-1.46c2.261-1.096 1.759-1.705 1.633-1.948-.125-.244-.125-.73-1.13-1.096-1.005-.487-1.005-.73-.88-1.217.126-.487.126-.73.503-1.096.251-.365.754-.852.628-1.096-.251-.243-.879-.487-1.633-.487h-1.257s1.885-1.46 1.634-2.191c-.252-.609-1.382-.852-1.508-1.096-.126-.243-.251-.608-.377-.608-.125 0-.628-.244-.754.365-.125.608-.125.974-.125.974s-.377-.73-.126-1.583c.126-.852 1.633-.608 1.633-.608s2.136-1.461 2.136-1.948c0-.487-1.508-1.34-2.261-1.705-.754-.365-5.026-2.434-5.277-3.287-.251-.974-.251-2.313-.502-2.921-.126-.61-4.397-3.774-4.397-3.774l-2.136.365 5.779 4.017.126.852s.125 1.461.251 1.948c.251.487 2.01 2.192 3.141 2.922 1.13.73 2.763 1.46 2.638 1.826-.126.365-3.267 1.34-3.392 2.191-.252.853 2.135 4.505 2.135 4.505s-.879 1.339-.376 3.165c.502 1.948 1.633 1.704 1.382 2.435-.252.73-3.016 2.556-4.523 2.556zM118.924 6.468c6.282-3.408 9.171-3.287 13.066-2.434 3.894.852 8.668 4.139 8.668 4.139l-2.387.487s-4.146-3.409-11.683-3.287c-5.403.122-15.076 6.087-20.101 9.374 3.266-2.313 8.166-5.844 12.437-8.279z" fill="#F6DFA4"/><path d="M76.084 20.713s5.025.244 10.678.244c5.528 0 12.94-2.191 12.94-2.191s-4.648 3.895-11.81 3.895c-7.034 0-11.808-1.948-11.808-1.948z" fill="#F4DB6C"/><path d="M79.101 22.656s6.408 4.261 15.202 2.678c8.794-1.582 16.709-10.59 16.709-10.59s-8.166 10.956-16.71 12.295c-8.668 1.46-15.2-4.383-15.2-4.383zm52.764-3.407c.252-.73-.754-7.548-6.03-9.74-5.277-2.19-14.071 4.383-14.071 4.383s8.669-4.382 13.443-2.07c4.774 2.314 6.658 7.427 6.658 7.427z" fill="#F6DFA4"/><path d="M79.855 27.404S86.01 32.64 93.8 32.031c7.789-.73 16.583-8.157 16.583-8.157s-7.538 9.252-16.458 9.374c-9.045 0-14.07-5.844-14.07-5.844z" fill="#F6DFA4"/><path d="M135.635 9.266c-.251.122-2.638 1.095-5.025.122-2.513-.974-4.272-2.557-4.272-2.557s2.387 3.409 4.648 3.896c2.262.73 4.649-1.461 4.649-1.461z" fill="#F4DB6C"/><path d="M131.615 20.834s-1.256 2.191-3.517 2.313c-2.136.122-2.011-7.426-8.92-7.426-3.392 0-8.166 5.843-8.166 5.843s4.397-4.991 8.291-4.626c3.895.244 5.528 6.818 8.543 6.94 3.267 0 3.769-3.044 3.769-3.044zM80.608 33.857s1.758 3.044 7.412 3.53c5.528.488 13.568-2.8 13.568-2.8s-8.543 5.236-14.699 4.14c-6.03-1.096-6.281-4.87-6.281-4.87z" fill="#F6DFA4"/><path d="M122.944 23.874s-3.266 1.34-4.397 0c-1.13-1.339-.377-4.626-3.015-3.53-2.638 1.095-11.055 12.782-11.055 12.782s8.794-10.713 10.678-10.834c1.885-.122 1.005 1.826 2.262 3.165 1.256 1.339 5.527-1.583 5.527-1.583z" fill="#F6DFA4"/><path d="M132.618 22.05s2.01.974 2.136 2.678c.126 1.704-1.005 3.652-1.005 3.652s.628-2.678 0-3.652c-.628-.974-1.759-1.46-1.759-1.46l.628-1.218z" fill="#897421"/><path d="M108.749 34.467s-13.191 6.817-18.216 6.695c-5.026-.121-8.166-1.947-8.166-1.947s1.256 2.19 4.522 3.043c3.267.73 7.79-1.096 7.79-1.096l14.07-6.695zm20.354-9.253c-.126.122-.88 3.774-3.895 4.017-2.89.244-5.025-.608-5.905 2.191-.879 2.8 1.257 5.6 1.257 5.6s-1.759-5.234.628-5.843c2.512-.609 4.02.365 5.653-.243 1.759-.853 2.262-5.722 2.262-5.722z" fill="#F6DFA4"/><path d="M128.224 28.868s1.256 3.774-1.005 5.235c-2.262 1.46-2.513.122-4.272.73-1.759.61-1.507 5.6-1.507 5.6s.628-4.504 2.387-4.626c1.759-.122 3.894.365 5.276-1.704 1.256-2.07-.879-5.235-.879-5.235z" fill="#F6DFA4"/><path d="M119.05 37.023s-3.644.852-6.282 0c-2.638-.853-4.02-3.166-4.02-3.166s1.885 3.53 4.523 4.261c2.638.73 5.779-1.095 5.779-1.095z" fill="#F4DB6C"/><path d="M10.759 233.264c.502-.73 0-1.461-.754-1.582.377-.244 1.005-.244 1.382 0 .502.365.628 1.217.251 1.704-.377.487-1.13.609-1.759.243.377 0 .754-.121.88-.365zm0 4.023c.502-.731 0-1.461-.754-1.583.377-.243 1.005-.243 1.382 0 .502.365.628 1.217.251 1.704-.377.487-1.13.609-1.759.244.377 0 .629-.122.88-.365z" fill="#F6DFA4"/><path d="M11.132 241.664c.502-.731 0-1.461-.754-1.583.377-.243 1.005-.243 1.382 0 .503.365.628 1.217.251 1.704-.377.487-1.13.609-1.758.244.376 0 .628-.122.879-.365zm.128 1.705s-.628 4.261 1.382 6.939 5.276 5.722 4.774 6.574c-.503.731-3.015.974-4.146.609-1.13-.244-4.397-5.113-5.025-8.644-.628-3.652-.377-5.234-.377-5.234l3.392-.244z" fill="#F4DB6C"/><path d="M7.742 220.851v8.765s2.01.365 2.638-.122c.503-.609.628.243.503-.609-.126-.852-.126-4.017 0-5.6.126-1.461.377-2.8.377-2.8l-3.518.366zm86.433-111.149l-2.136 4.87s-6.533.121-11.432.852c-4.774.73-11.307 2.069-11.307 2.069s6.658-5.6 24.875-7.791z" fill="#F6DFA4"/><path d="M131.991 31.67s-1.884 5.723-4.02 7.67c-2.01 1.948-7.412 3.896-7.412 3.896l2.387 2.8s5.905-2.313 8.04-5.6c2.262-3.165 2.262-6.817 2.262-6.817l2.387-.609-3.644-1.34zm-27.014 36.76s-3.769-6.939-8.166-7.304c-5.026-.365-10.68.609-10.68.609v-4.626s13.946-4.14 18.846 11.321zM83.62 57.596v4.139s-2.89 1.948-7.915 2.435c-5.15.487-22.488-.853-22.488-.853L59.75 64.9s-14.322 2.313-19.347 2.07c-4.9-.366-25.88-1.948-26.131-1.948-.377 0-2.513 0-3.392.121-.88.244-6.91 2.679-8.04 2.679-1.257 0-6.408-.974-6.408-.974s4.649.365 6.659 0c1.884-.487 6.156-2.8 9.422-2.678 3.266.121 25.88 1.582 29.146.608 3.141-.974 7.664-1.339 7.664-1.339s-2.01-1.096-1.885-1.826c.126-.73 29.9-2.435 36.182-4.017z" fill="#FFC844"/><path d="M96.941 63.44s-6.658 7.547-10.05 13.877C83.499 83.647 73.95 92.9 73.95 92.9s7.287-6.574 10.302-1.461c3.015 5.113-7.287 13.27-15.579 9.739-8.291-3.53-7.16-5.6-7.16-5.6s7.16-1.826 13.19-8.765c6.031-6.94 10.177-20.087 12.69-21.304 2.512-1.461 4.648-2.8 9.547-2.07zm-29.65 43.461s-6.784 1.461-7.79 13.879c-.879 12.417 15.58 18.504 15.58 18.504s-24.373-1.217-23.368-17.165c.88-13.513 10.553-19.844 10.553-19.844l5.025 4.626zm-20.852 30.311l5.528.974s-10.804 9.739-18.72 18.991c-8.04 9.252-12.185 17.165-12.185 17.165s4.774-12.782 16.708-27.026c6.785-8.156 8.669-10.104 8.669-10.104zm-30.405 38.959v6.087s-6.91 3.895-14.447 11.565c-7.538 7.548-19.096 23.13-19.096 23.13l-.503-2.313s12.94-20.452 20.478-27.026c7.538-6.574 13.568-11.443 13.568-11.443zm122.994-54.9s-13.819-2.191-19.598-.852c-5.779 1.339-19.599 12.417-19.599 12.417l-7.914 4.626-.126-4.626s14.699-13.513 26.383-15.217c11.683-1.704 20.854 3.652 20.854 3.652zm-50.252 13.264l.125 3.287-3.392.487-1.884-1.339 5.15-2.435z" fill="#FFC844"/><path d="M138.271 124.554s-12.689 3.043-22.237 7.06c-9.548 4.018-21.232 9.983-21.232 9.983s16.081-11.565 24.875-14.365c8.794-2.8 18.594-2.678 18.594-2.678z" fill="#8D7632"/><path d="M155.235 103.856s12.186 3.896 11.683 13.27c-.502 9.374-13.945 16.069-20.98 18.626-7.161 2.556-22.111 6.574-24.749 7.304-2.638.731-11.935 3.165-11.935 3.165l1.005 1.096 36.684-10.956s22.991-3.896 22.991-19.235c-.126-10.348-14.699-13.27-14.699-13.27zM127.72 81.463s-2.639 4.017-9.548 3.043c-7.538-1.095-9.046-10.591-9.046-10.591s1.508 4.626 7.413 6.087c3.894.974 5.653-.609 5.653-.609s.754.609 2.764 1.218c2.01.608 2.764.852 2.764.852zm-29.65 24.71s3.768-8.4 8.165-12.174c4.397-3.774 11.307-7.426 11.307-7.426s0 .122.88.244c.879.122 2.01 0 2.01 0s-8.795 5.356-12.061 8.643c-3.141 3.287-6.156 10.104-6.156 10.104l-4.146.609zm43.718-59.529l-1.633-.974s-5.277 3.774-8.543 11.2c-3.141 7.548-2.387 25.565-2.387 25.565s2.01-19.843 4.523-24.956c3.392-6.574 8.04-10.835 8.04-10.835zm1.258-1.342l-1.759-1.217s4.021-3.53 6.533-4.748c2.513-1.217 8.543-3.896 8.794-4.017.252-.122 1.382-.974 1.382-.974s1.885 1.582 5.277 1.826c1.005.122-1.382.243-3.267.122-1.256 0-2.261-.366-2.261-.366s-7.161 3.53-9.171 5.113c-2.136 1.583-5.528 4.261-5.528 4.261zm22.739-21.672s-1.131.73-4.146.61c-3.015-.123-5.276-1.218-5.276-1.218l1.131-.974s.502-.365.125-1.217c-.377-.853-7.035-5.6-7.035-5.6s-.126 1.46.754 2.069c.879.609 4.648 3.165 4.648 3.165s.377.487.251.852c-.125.366-2.136 2.07-2.261 2.313-.126.244-.377.244.125.487.629.244 1.508.487 1.508.853 0 .365-1.005 1.947-1.005 1.947s2.136.366 2.01.974c-.126.609-1.382 1.826-1.131 2.435.252.487 4.272 3.165 4.272 3.165s-3.518-2.8-3.392-3.408c.125-.61 1.633-1.218 1.633-2.07 0-.852-1.884-1.34-1.884-1.34l.628-1.095c.125-.365 4.899.73 9.045-1.948z" fill="#FFC844"/><path d="M149.704 14.743l.126 2.07s-1.382-.487-1.633-1.34c-.377-.73-.377-1.704-.377-1.704l1.884.974z" fill="#8D7632"/><path d="M159.882 15.355c.502.973-.251 3.895-.251 3.895s-3.769-3.652-5.402-4.626c-1.634-.974-3.392-1.826-3.392-1.826s.251-.852.502-1.34c.251-.486.628-1.095.628-1.095s7.538 4.018 7.915 4.992zm4.143-.734l.502 1.34-2.512 3.895-1.508-.365s.754-2.679 1.508-3.409c.879-.73 2.01-1.46 2.01-1.46z" fill="#FFC844"/><path d="M153.726 3.177s-2.639.974-4.523.974c-1.885 0-3.769.121-3.769.121s2.513.366 3.769.366c1.256 0 4.523-1.461 4.523-1.461zm-3.142 3.408s-1.633-.73-3.895-.486c-2.261.121-4.271 1.095-4.271 1.095l.628.487s2.387-1.217 7.538-1.096zm-1.759 2.437s-.628-.73-2.01-.852c-1.382 0-2.764.243-2.764.243s.88-.73 2.764-.73c1.885 0 2.01 1.339 2.01 1.339z" fill="#8D7632"/><path d="M145.309 24.24s-1.382 1.461-3.392 1.583c-2.011.122-4.146-.609-4.146-.609s.879-1.704-.503-4.139c-1.382-2.435-3.141-3.043-3.141-3.043s.252-3.774 1.005-4.627c.88-.852 4.649-3.53 4.649-3.53s-4.523.974-5.779 2.556c-1.256 1.583-.754 6.088-.754 6.088s2.261 1.582 3.015 3.165c.754 1.582 1.005 4.139-.628 5.478-1.633 1.339-2.638 1.096-2.638 1.096s1.884.486 3.015-.122c1.131-.609 1.131-1.218 1.131-1.218s1.884.61 4.774-.121c2.889-.487 3.392-2.557 3.392-2.557zm-8.67-15.584c-.126.122-1.382 1.583-4.774 1.218-3.392-.366-5.905-4.14-8.543-3.41-2.638.731-3.392 1.705-3.392 1.705s1.884-1.704 4.774-2.191c2.889-.487 5.025 3.287 7.412 3.287a26.928 26.928 0 004.523-.609zm-4.774 10.591s.754 2.678-2.638 3.652c-3.392.974-2.261-2.922-4.774-4.991-2.513-2.07-4.648-2.192-4.648-2.192s3.266-.365 5.15 1.096c1.885 1.34 2.262 4.504 3.769 4.626 1.508.122 3.141-.73 3.141-2.191z" fill="#FFC844"/><path d="M129.855 21.078s-1.759-7.06-5.779-8.4c-4.02-1.339-12.312 1.34-12.312 1.34s6.784-3.775 12.94-2.314c6.156 1.461 5.151 9.374 5.151 9.374zm-5.404 1.949s-1.759 1.461-4.648 1.461c-2.89 0-1.382-2.678-2.764-4.14-1.382-1.46-6.156 3.166-6.156 3.166s3.392-4.748 5.528-4.626c2.136.122 1.759 3.652 3.392 4.14 1.759.243 4.648 0 4.648 0z" fill="#FFC844"/><path d="M121.816 21.315s-.502-3.287-2.764-3.652c-2.261-.365-5.15 1.46-5.15 1.46s3.14-2.312 5.653-1.947c2.513.365 2.261 4.139 2.261 4.139zm3.012-7.423s-3.015.73-4.899.244c-1.759-.487-4.398-.853-6.533-.244-2.136.609-4.649 3.896-4.649 3.896s3.267-3.287 5.026-3.409c1.758-.243 6.281.244 6.281.244s3.015.121 4.774-.73z" fill="#8D7632"/><path d="M129.103 24.973s0 2.313-2.89 3.165c-2.889.852-3.392-.365-5.276.73-2.011 1.218-2.262 2.557-2.262 2.557s.628-2.192 2.513-3.409c1.884-1.217 3.392 0 4.899-.609 1.634-.486 2.387-1.095 3.016-2.434zm-.756 4.257s.628 3.043-1.633 3.408c-2.387.365-2.89-.974-5.026 0-2.135.974-1.005 4.383-1.005 4.383s-.502-3.287 1.257-3.896c1.633-.609 3.266 1.096 5.15.365 1.885-.73 1.257-4.26 1.257-4.26zm-7.665-3.892s-1.508 1.948-3.644 1.461c-2.135-.487-.502-3.165-1.758-3.287-1.257-.121-7.664 6.818-7.664 6.818s6.533-6.087 7.287-5.722c.753.244-.126 3.165 1.884 3.53 2.136.366 3.895-2.8 3.895-2.8zm-11.807 8.519s1.005 1.705 4.648 2.435c3.644.73 6.031 0 6.031 0s-3.895.122-6.156-.608c-2.262-.73-4.523-1.827-4.523-1.827z" fill="#FFC844"/><path d="M118.925 27.648s-1.131 3.044-3.895 2.922c-2.764-.122-1.382-2.8-2.889-2.556-1.508.121-6.407 5.113-6.407 5.113s4.774-4.14 6.03-4.14c1.256 0 .754 2.679 3.141 2.557 2.387-.122 4.02-3.896 4.02-3.896z" fill="#FFC844"/><path d="M128.474 35.807s-.629 1.46-1.885 1.704c-2.261.365-2.638-.487-3.643.73-1.005 1.218-1.508 2.679-1.508 2.679s1.005-2.557 2.513-2.679c1.507-.121 2.136.487 3.141-.121 1.005-.487 1.382-2.313 1.382-2.313z" fill="#8D7632"/><path d="M113.272 10.974s-12.06 12.417-21.734 12.539c-9.673.121-15.452-2.8-15.452-2.8s6.03 4.26 15.704 3.652c9.799-.487 21.482-13.391 21.482-13.391z" fill="#FFC844"/><path d="M103.599 23.022s-5.905 5.722-13.443 4.87c-7.538-.852-12.94-6.33-12.94-6.33s4.02 7.06 12.94 7.06c8.292 0 13.443-5.6 13.443-5.6z" fill="#FFC844"/><path d="M115.787 16.21s-1.131.366-2.01 1.097c-1.005.73-9.674 11.93-16.206 13.147-6.533 1.218-9.046.73-9.046.73s3.015 1.462 9.297-.364c6.281-1.826 14.071-10.957 14.071-10.957s2.387-3.287 3.894-3.652z" fill="#FFC844"/><path d="M110.257 23.874s-6.03 9.13-13.443 10.835c-7.537 1.704-13.316 0-13.316 0s4.9 2.556 13.693.608c8.794-1.947 13.066-11.443 13.066-11.443zm-1.381 10.352l-8.166 5.113c.126 0 5.653-1.705 8.166-5.113zM84.249 140.623l-.377 2.8s-2.01-1.339-4.271-.487c-2.136.974-8.418 10.348-8.418 10.348s4.774-12.174 8.166-13.756c3.267-1.705 4.9 1.095 4.9 1.095zm-80.905 78.28l-1.257 2.922-1.381-1.461 1.381-2.922 1.257 1.461zm-4.399 2.924l1.76 1.583s-5.403 3.287-6.031 5.356c-.628 2.07 2.89 8.035 2.89 8.035s-5.528-6.087-4.398-9.617c1.13-3.531 5.78-5.357 5.78-5.357zM145.306 15.352l.503 1.461-2.513 3.896-1.508-.365s.754-2.678 1.508-3.409c.879-.73 2.01-1.582 2.01-1.582z" fill="#FFC844"/></svg>