<svg xmlns="http://www.w3.org/2000/svg" id="svg4081" version="1.1" width="772.516" height="772.516"><defs id="defs4083"><filter id="filter4037" height="1.242" width="1.08" y="-.121" x="-.04" color-interpolation-filters="sRGB"><feGaussianBlur id="feGaussianBlur4039" stdDeviation="11.869"/></filter></defs><g id="layer1" transform="translate(-68.028 -23.25)"><path id="path4043" d="M454.278 160.512c-99.484 0-179.81 80.41-179.81 179.59 0 31.186 7.969 60.528 21.938 86.094l157.88 264.31 157.88-264.31c13.969-25.566 21.938-54.908 21.938-86.094 0-99.184-80.328-179.59-179.81-179.59zm-2 104.37c.667-.017 1.329 0 2 0 42.975 0 77.812 34.838 77.812 77.813s-34.838 77.812-77.812 77.812c-42.975 0-77.812-34.838-77.812-77.812 0-42.303 33.766-76.747 75.812-77.813z" fill="#e52626" stroke="none" stroke-width="10.397"/><circle id="path4153" cx="454.286" cy="409.509" r="368.758" opacity="1" fill="none" fill-opacity="1" fill-rule="evenodd" stroke="#e52626" stroke-width="35" stroke-linecap="butt" stroke-linejoin="round" stroke-miterlimit="4" stroke-dasharray="none" stroke-opacity="1"/></g></svg>