<svg width="512" height="512" fill="none" xmlns="http://www.w3.org/2000/svg"><g clip-path="url(#clip0_438_1895)" fill="#fff"><path d="M87.955 268.261c0 44.241 16.603 85.926 46.851 117.955-8.683 3.578-14.814 12.128-14.814 22.088 0 10.285 6.537 19.072 15.674 22.426v9.992h15.723v-9.758c9.495-3.157 16.364-12.119 16.364-22.66 0-9.959-6.131-18.51-14.814-22.088 30.248-32.029 46.851-73.714 46.851-117.955V112.113H87.955v156.148zm55.916 148.199c-4.498 0-8.157-3.659-8.157-8.156 0-4.498 3.659-8.157 8.157-8.157s8.157 3.659 8.157 8.157c0 4.497-3.659 8.156-8.157 8.156zm-40.193-288.624h80.387v80.184h-80.387v-80.184zm0 95.907h80.387v44.518c0 39.025-14.215 75.866-40.193 104.609-25.979-28.743-40.194-65.584-40.194-104.609v-44.518zm47.711 224.316h-15.723v48.218h-24.109V512h63.941v-15.723h-24.109v-48.218z"/><path d="M128.332 240.511h-16.771v15.723h16.771v-15.723zm14.675 16.771h-14.675v15.723h14.675v-15.723zm24.107 39.832h-14.675v15.723h14.675v-15.723zm8.386-63.94h-15.723v15.723H175.5v-15.723zm-23.059 95.387H135.67v15.723h16.771v-15.723zm-16.773-39.832h-15.723v15.723h15.723v-15.723zm39.829-113.204v-38.783h-23.061v15.723h7.338v23.06h15.723zm.003 8.383h-15.723v15.723H175.5v-15.723zm136.711-71.795v156.148c0 44.241 16.603 85.926 46.851 117.955-8.683 3.578-14.814 12.128-14.814 22.088 0 10.308 6.565 19.11 15.734 22.447v9.971h15.723v-9.778c9.463-3.176 16.303-12.122 16.303-22.64 0-9.959-6.13-18.51-14.814-22.088 30.248-32.029 46.851-73.714 46.851-117.955V112.113H312.211zm55.917 304.347c-4.498 0-8.157-3.659-8.157-8.156 0-4.498 3.659-8.157 8.157-8.157s8.156 3.659 8.156 8.157c0 4.497-3.659 8.156-8.156 8.156zm40.192-148.199c0 39.025-14.214 75.866-40.192 104.61-25.979-28.744-40.193-65.584-40.193-104.61v-44.518h80.386v44.518h-.001zm0-60.241h-80.386v-80.184h80.386v80.184zm-32.615 240.039h-15.723v48.218h-23.06V512h63.94v-15.723h-25.157v-48.218z"/><path d="M351.601 240.511h-14.675v15.723h14.675v-15.723zm16.77 16.771H351.6v15.723h16.771v-15.723zm23.062 39.832h-14.675v15.723h14.675v-15.723zm9.432-63.94h-16.771v15.723h16.771v-15.723zm-24.11 95.387h-16.771v15.723h16.771v-15.723zm-16.77-39.832h-15.723v15.723h15.723v-15.723zm24.105-113.204h15.723v-38.783h-23.061v15.723h7.338v23.06zm16.775 8.383h-16.771v15.723h16.771v-15.723zM254.811 99.991l40.778-42.3 3.267-3.267c12.433-12.433 12.433-32.664 0-45.097C287.145-2.387 268.516-3.066 256 7.285c-12.516-10.351-31.145-9.672-42.856 2.04-12.389 12.39-12.434 32.521-.132 44.964l41.799 45.702zm-30.549-79.548a16.114 16.114 0 0111.431-4.727c4.139 0 8.28 1.575 11.431 4.726l8.877 8.879 8.875-8.878c6.305-6.303 16.56-6.302 22.862 0 6.303 6.303 6.303 16.559 0 22.862l-3.318 3.319-29.308 30.4-30.609-33.466-.242-.253c-6.302-6.303-6.302-16.559.001-22.862zM336.923 32.97h-16.771v15.722h16.771V32.97zm-24.107 39.828h-16.771V88.52h16.771V72.798zm-49.267 47.169h-15.723v15.723h15.723v-15.723zm0 56.603h-15.723v15.723h15.723V176.57zm32.496-39.831h-15.723v15.723h15.723v-15.723zm-63.941 0h-15.723v15.723h15.723v-15.723zm127.881-72.327h-15.723v15.723h15.723V64.412zM192.273 32.97h-16.771v15.722h16.771V32.97zm24.107 39.828h-16.771V88.52h16.771V72.798zm-49.266-8.386h-14.675v15.723h14.675V64.412z"/></g><defs><clipPath id="clip0_438_1895"><path fill="#fff" d="M0 0h512v512H0z"/></clipPath></defs></svg>