<svg width="662" height="662" fill="none" xmlns="http://www.w3.org/2000/svg"><g clip-path="url(#clip0_438_1889)" fill="#fff"><path d="M117.333 250.516l100.834-110.901a63.348 63.348 0 0016.5-42.698v-1.448c0-35-28.469-63.469-63.469-63.469-16.948 0-32.885 6.604-44.875 18.594l-8.99 8.99-8.989-8.99C96.354 38.604 80.417 32 63.469 32 28.469 32 0 60.469 0 95.469v1.448a63.35 63.35 0 0016.5 42.698l100.833 110.901zm-96-155.047c0-23.235 18.901-42.136 42.136-42.136 11.25 0 21.833 4.386 29.791 12.344l24.073 24.073 24.084-24.073c7.948-7.958 18.531-12.344 29.781-12.344 23.234 0 42.135 18.901 42.135 42.136v1.448a42.07 42.07 0 01-10.953 28.343l-85.047 93.558-85.047-93.558a42.073 42.073 0 01-10.953-28.343v-1.448zm576.532 341.864c-16.948 0-32.886 6.604-44.875 18.594l-8.99 8.99-8.979-8.98c-3.682-3.692-7.906-6.687-12.354-9.354V384H544c11.766 0 21.333-9.568 21.333-21.333V320c0-11.766-9.567-21.333-21.333-21.333h-54.807c7.906-12.151 12.14-26.188 12.14-40.704V256c0-16.063-5.312-31.969-14.932-44.792-14.026-18.708-36.365-29.875-59.734-29.875-23.37 0-45.709 11.167-59.735 29.875-8.416 11.224-15.828 23.255-22.218 35.735-4.521-1.021-9.214-1.61-14.047-1.61-4.834 0-9.526.589-14.058 1.599-6.39-12.469-13.791-24.51-22.208-35.734-14.026-18.698-36.365-29.865-59.734-29.865-23.37 0-45.709 11.167-59.735 29.865C165.313 224.031 160 239.937 160 256v1.963c0 14.516 4.234 28.553 12.141 40.704h-54.808C105.568 298.667 96 308.234 96 320v42.667C96 374.432 105.568 384 117.333 384h21.334v277.333h384v-28.937L544 655.859l100.833-110.901a63.388 63.388 0 0016.5-42.708v-1.448c0-35-28.468-63.469-63.468-63.469zM544 362.667H420.969c-6.151-15.235-14.365-29.579-24.37-42.667H544v42.667zm-293.203-64l-25.016-34.818a10.625 10.625 0 01-1.781-5.886V256c0-2.292.755-4.568 2.135-6.401 4.011-5.354 13.042-5.354 17.073.021a180.904 180.904 0 0117.261 27.916l8.12 16.5a68.677 68.677 0 00-.964 4.62h-16.828v.011zM313.953 320c-14.818 34.219-23.521 71.135-25.515 108.365l-21.771-14.521-18.87 12.588 1.474-13.281c3.87-34.87 19.307-67.734 43.401-93.141h21.281V320zm16.714 15.594c3.573 8.875 6.771 17.89 9.463 27.073h-18.927c2.693-9.183 5.891-18.198 9.464-27.073zm-21.334 132.333v-23.042c0-20.448 2.302-40.875 6.573-60.885h29.532c4.27 20.01 6.572 40.448 6.572 60.885v23.042l21.334-14.219V640H288.01V453.708l21.323 14.219zm63.552-39.562c-1.984-37.23-10.697-74.146-25.515-108.365h21.281c24.094 25.417 39.531 58.271 43.401 93.141l1.474 13.281-18.859-12.578-21.782 14.521zm19.86-134.318l8.099-16.448a182.087 182.087 0 0117.291-27.979c4.021-5.354 13.053-5.365 17.063-.011a10.724 10.724 0 012.135 6.401v1.964c0 2.099-.619 4.151-1.578 5.599l-25.219 35.094h-16.828a66.564 66.564 0 00-.963-4.62zM384 224c10.016-13.354 25.964-21.333 42.667-21.333 16.703 0 32.651 7.979 42.666 21.343C476.214 233.161 480 244.531 480 256v1.963a53.217 53.217 0 01-8.958 29.579l-7.417 11.125h-26.833l16.489-22.954a31.783 31.783 0 005.386-17.75V256a32.131 32.131 0 00-6.412-19.208C446.25 228.781 436.682 224 426.667 224c-10.016 0-19.584 4.792-25.599 12.812a202.99 202.99 0 00-19.339 31.318l-.823 1.672c-4.552-5.781-10.088-10.729-16.338-14.656 5.64-10.86 12.093-21.344 19.432-31.146zm-12.182 74.667h-82.302c4.765-18.36 21.333-32 41.151-32 19.817 0 36.385 13.64 41.151 32zm-181.526-11.125a53.218 53.218 0 01-8.959-29.579V256c0-11.469 3.787-22.839 10.667-32 10.016-13.354 25.964-21.333 42.667-21.333 16.703 0 32.651 7.979 42.666 21.333 7.339 9.802 13.792 20.286 19.448 31.135a64.269 64.269 0 00-16.343 14.657l-.855-1.73a203.402 203.402 0 00-19.317-31.25C254.25 228.792 244.682 224 234.667 224c-10.016 0-19.584 4.781-25.589 12.792A32.137 32.137 0 00202.667 256v1.963c0 6.344 1.854 12.48 5.588 18.037l16.287 22.667h-26.834l-7.416-11.125zM117.333 320h147.401c-10.005 13.088-18.218 27.432-24.369 42.667H117.333V320zM160 384h73.24c-2.349 8.781-4.151 17.708-5.167 26.797l-6.537 58.781 45.131-30.088V640H160V384zm234.667 256V439.49l45.13 30.078-6.537-58.782c-1.015-9.078-2.817-18.02-5.166-26.796h73.239v256H394.667v.01zM640 502.25a42.078 42.078 0 01-10.953 28.344L544 624.151l-21.333-23.469V473.75L544 495.083l24.083-24.073c7.948-7.958 18.532-12.343 29.782-12.343 23.234 0 42.135 18.901 42.135 42.135v1.448zM437.333 132.417l62.698-62.709c7.724-7.713 11.968-17.953 11.968-28.875C511.999 18.323 493.687 0 471.156 0c-10.901 0-21.151 4.245-28.875 11.958l-4.948 4.959-4.959-4.959C424.661 4.245 414.411 0 403.51 0c-22.531 0-40.844 18.323-40.844 40.833 0 10.912 4.245 21.162 11.969 28.875l62.698 62.709zM403.51 21.333a19.386 19.386 0 0113.791 5.709l20.032 20.041 20.031-20.041c3.693-3.683 8.588-5.709 13.792-5.709 10.765 0 19.51 8.745 19.51 19.5 0 5.13-2.078 10.151-5.708 13.792l-47.625 47.625-47.625-47.625a19.64 19.64 0 01-5.709-13.792c0-10.755 8.745-19.5 19.511-19.5z"/><path d="M94.708 544c-8.895 0-17.255 3.458-23.541 9.75L64 560.917l-7.167-7.167c-6.286-6.292-14.645-9.75-23.541-9.75C14.932 544 0 558.932 0 577.292c0 8.765 3.552 17.343 9.75 23.541L64 655.083l54.25-54.25c6.198-6.198 9.75-14.776 9.75-23.541C128 558.932 113.068 544 94.708 544zm8.459 41.75L64 624.917 24.833 585.75a12.084 12.084 0 01-3.5-8.458c0-6.594 5.365-11.959 11.959-11.959 3.198 0 6.198 1.24 8.458 3.5L64 591.083l22.25-22.25c2.26-2.26 5.26-3.5 8.458-3.5 6.594 0 11.959 5.365 11.959 11.959 0 3.146-1.282 6.229-3.5 8.458zm494.167-261.333l54.25-54.25c6.198-6.198 9.75-14.776 9.75-23.542 0-18.359-14.932-33.292-33.292-33.292-8.896 0-17.255 3.459-23.541 9.75l-7.167 7.167-7.167-7.167c-6.286-6.291-14.646-9.75-23.541-9.75-18.36 0-33.292 14.933-33.292 33.292 0 8.766 3.552 17.344 9.75 23.542l54.25 54.25zm-30.708-89.75c3.198 0 6.198 1.239 8.458 3.5l22.25 22.25 22.25-22.25c2.26-2.261 5.26-3.5 8.458-3.5 6.594 0 11.959 5.364 11.959 11.958 0 3.146-1.282 6.229-3.5 8.458l-39.167 39.167-39.167-39.167a12.087 12.087 0 01-3.5-8.458c0-6.594 5.365-11.958 11.959-11.958z"/></g><defs><clipPath id="clip0_438_1889"><path fill="#fff" d="M0 0h661.333v661.333H0z"/></clipPath></defs></svg>