<svg width="51" height="50" fill="none" xmlns="http://www.w3.org/2000/svg"><path d="M49.972 9.04H32.634c.726-.314 1.29-.628 1.694-1.021.887-.944 1.37-2.123 1.37-3.38 0-1.259-.564-2.438-1.451-3.303A5.161 5.161 0 0030.779 0c-1.29 0-2.5.55-3.387 1.415-.726.786-1.21 2.201-1.613 3.616-.403-1.493-.887-2.83-1.532-3.537C23.36.55 22.15.079 20.86.079s-2.5.471-3.468 1.336c-.968.865-1.451 2.044-1.451 3.302s.483 2.437 1.37 3.38c.404.394.968.708 1.694 1.023H1.585c-.483 0-.806.314-.806.786v7.861c0 .472.323.787.807.787h3.226v30.66c0 .471.322.786.806.786h40.323c.483 0 .806-.315.806-.786v-30.66h3.226c.484 0 .806-.315.806-.787V9.906c0-.472-.322-.865-.806-.865zm-22.58 1.573v6.29h-3.226v-6.29h3.226zm.242 25.786c-.807.63-1.452 1.18-1.855 1.494-.403-.314-1.13-.865-1.855-1.494-3.387-2.908-5.403-5.66-5.403-7.39 0-1.886 1.532-3.459 3.387-3.459.403 0 .806.079 1.21.236.887.315 1.612 1.1 1.935 1.966.08.314.403.55.726.55.322 0 .645-.236.726-.55a3.164 3.164 0 011.935-1.966 2.631 2.631 0 011.13-.236c1.854 0 3.386 1.573 3.386 3.46.08 1.808-1.855 4.48-5.322 7.39zm-.242-11.87c-.08.078-.162.078-.242.157a1.109 1.109 0 00-.323.236l-.161.157c-.08.079-.242.157-.323.314l-.16.158c-.162.157-.243.314-.404.472a.96.96 0 00-.403-.394l-.162-.157a1.11 1.11 0 00-.322-.236c-.08-.078-.162-.078-.162-.157-.08-.079-.242-.157-.322-.236-.08 0-.161-.078-.161-.078h-.081V18.71h3.226v5.818zM28.52 2.595c.564-.629 1.37-.943 2.258-.943h.08c.807 0 1.613.314 2.258.865.646.55.968 1.336.968 2.2 0 .866-.322 1.652-.887 2.202-.887.865-4.032 1.572-6.451 1.966.241-2.28.887-5.425 1.774-6.29zM17.47 4.718c0-.865.404-1.651.969-2.201.645-.55 1.37-.865 2.258-.865h.08c.888 0 1.694.393 2.258.943.887.865 1.533 4.01 1.775 6.368-2.42-.393-5.565-1.1-6.452-1.965a3.376 3.376 0 01-.887-2.28zM2.39 10.614h20.162v6.29H2.392v-6.29zm4.033 7.862h16.129v5.582c-.242 0-.403-.08-.645-.08-2.742 0-5 2.28-5 5.032 0 2.83 2.984 6.054 5.645 8.334V48.35H6.424V18.476zM24.166 48.35v-9.67c.161.08.242.236.403.315.08 0 .08.079.161.079.081.078.162.078.242.157l.081.078c.08.08.08.08.161.08l.081.078c.08 0 .08.078.08.078.323.236.646.236.968 0l.081-.078h.08c.081 0 .081-.079.162-.079l.08-.078c.081-.08.162-.08.242-.158l.081-.078c.161-.079.242-.236.403-.315v9.67h-3.306v-.079zm20.968 0h-16.13V37.344c2.662-2.28 5.646-5.504 5.646-8.334 0-2.751-2.258-5.031-5-5.031-.242 0-.403 0-.645.079v-5.582h16.129V48.35zm4.032-31.447H29.005v-6.289h20.16v6.29z" fill="#fff"/></svg>