<svg width="50" height="50" fill="none" xmlns="http://www.w3.org/2000/svg"><g clip-path="url(#clip0_460_2109)" fill="#fff"><path d="M1.681 50.276h5.045c.927 0 1.681-.773 1.681-1.724v-1.724h19.006c4.224 0 8.352-1.214 11.933-3.509 5.4-3.461 9.133-9.134 10.24-15.566l.365-2.119a3.292 3.292 0 00-.69-2.648 3.126 3.126 0 00-2.424-1.159c-1.207 0-2.29.688-2.83 1.793l-1.145 2.349c-.089-2.298-1.926-4.142-4.187-4.142h-5.498a5.22 5.22 0 001.294-3.448c0-2.132-1.264-3.965-3.064-4.756l1.887-1.45a.874.874 0 00.294-.963l-.84-2.586a.843.843 0 00-.799-.59h-5.045a.84.84 0 00-.797.59l-.84 2.586a.872.872 0 00.293.962l1.887 1.451c-1.8.79-3.065 2.624-3.065 4.756 0 1.326.493 2.532 1.295 3.448h-2.976V2.863A.851.851 0 0021.86 2h-3.577a5.187 5.187 0 00-3.147 1.076l-.427.33c-1.313 1.009-2.098 2.616-2.098 4.3v10.47c0 2.049 1.111 3.891 2.898 4.809.443.226.919.38 1.405.47a4.337 4.337 0 00-.94 2.683v2.228a22.863 22.863 0 00-7.566 3.071v-1.85c0-.951-.754-1.725-1.682-1.725H1.682c-.928 0-1.682.774-1.682 1.725v18.965c0 .95.754 1.724 1.682 1.724H1.68zm25.83-40.517h3.832l.458 1.407-2.374 1.825-2.374-1.825.457-1.407zm-1.448 8.62c0-1.901 1.509-3.448 3.363-3.448 1.855 0 3.363 1.547 3.363 3.449 0 1.901-1.508 3.448-3.363 3.448-1.854 0-3.363-1.547-3.363-3.448zm-11.77-.203V7.705c0-1.143.533-2.235 1.425-2.921l.427-.33a3.53 3.53 0 012.137-.73h2.737v18.104h-3.165c-.55 0-1.101-.134-1.593-.386-1.214-.622-1.968-1.874-1.968-3.266zm3.363 7.962c0-1.426 1.131-2.586 2.522-2.586h18.497c1.39 0 2.522 1.16 2.522 2.586v6.034c0 1.426-1.132 2.587-2.522 2.587H36.13a4.336 4.336 0 00.862-2.587c0-2.376-1.886-4.31-4.204-4.31H20.685c-1.02 0-2.03.083-3.03.215v-1.939zm3.029 3.448h12.104c1.39 0 2.523 1.16 2.523 2.587 0 1.425-1.132 2.586-2.523 2.586H19.337v1.724h19.338c2.318 0 4.203-1.934 4.203-4.31V29.79l2.633-5.398a1.47 1.47 0 011.325-.84c.439 0 .854.197 1.136.543.282.345.4.797.325 1.24l-.365 2.12c-1.025 5.95-4.478 11.2-9.477 14.402a20.431 20.431 0 01-11.042 3.247H8.407V33.499c3.631-2.554 7.864-3.912 12.278-3.912zm-19.004 0h5.044l.001 18.966H1.681V29.586z"/><path d="M2.363 31.034h1.682v2.587H2.363v-2.587zM35.994 3.448h1.682v1.724h-1.682V3.448zm1.682 1.724h1.681v1.725h-1.681V5.172zm1.681-1.724h1.682v1.724h-1.682V3.448zm-1.681-1.724h1.681v1.724h-1.681V1.724zM42.72 8.62h1.682v1.725h-1.681V8.62zM28.428 0h1.681v1.724h-1.681V0z"/></g><defs><clipPath id="clip0_460_2109"><path fill="#fff" d="M0 0h50v50H0z"/></clipPath></defs></svg>