<svg width="512" height="512" fill="none" xmlns="http://www.w3.org/2000/svg"><path d="M255.999 238.512h-13.888a47.483 47.483 0 005.553-22.24c0-19.349-11.636-36.022-28.272-43.418 11.254-10.206 13.272-20.101 13.272-25.852 0-12.617-8.785-22.5-20-22.5-5.306 0-9.473 1.809-12.499 3.871-3.025-2.062-7.192-3.871-12.501-3.871-11.215 0-20 9.883-20 22.5 0 5.751 2.019 15.645 13.272 25.852-16.636 7.397-28.272 24.069-28.272 43.419 0 7.83 1.955 15.456 5.551 22.24H94.469c-9.643 0-17.488 7.842-17.488 17.48v19.843a7.5 7.5 0 0014.999-.001v-19.843a2.487 2.487 0 012.489-2.48h161.53a7.5 7.5 0 007.5-7.5 7.5 7.5 0 00-7.5-7.5zm-68.335-99.01c2.703 0 4.599 1.478 5.713 2.718a9.14 9.14 0 006.787 3.028 9.13 9.13 0 006.785-3.027c1.116-1.241 3.013-2.72 5.715-2.72 3.13 0 5 3.813 5 7.5 0 6.983-6.357 14.735-17.5 21.394-11.142-6.659-17.5-14.411-17.5-21.394 0-3.686 1.87-7.499 5-7.499zm36.17 99.01h-47.348a32.516 32.516 0 01-8.822-22.24c0-17.92 14.579-32.5 32.5-32.5s32.5 14.579 32.5 32.5a32.492 32.492 0 01-8.83 22.24zM199.91 59.04a7.5 7.5 0 00-7.5 7.5v13.898a7.5 7.5 0 0015 0V66.54a7.5 7.5 0 00-7.5-7.5zm-24.579 24.287l-4.753-13.059a7.5 7.5 0 10-14.095 5.13l4.753 13.06a7.502 7.502 0 009.613 4.482 7.5 7.5 0 004.482-9.613zm-29.157 13.69l-8.933-10.646a7.5 7.5 0 00-10.565-.925 7.499 7.499 0 00-.925 10.566l8.933 10.646a7.481 7.481 0 005.749 2.679 7.499 7.499 0 005.741-12.32zm-22.716 22.834l-12.035-6.949a7.498 7.498 0 00-10.245 2.745 7.5 7.5 0 002.745 10.246l12.035 6.949a7.5 7.5 0 0010.245-2.745 7.501 7.501 0 00-2.745-10.246zm175.693-4.898a7.503 7.503 0 00-10.246-2.745l-12.034 6.949a7.501 7.501 0 007.502 12.991l12.034-6.949a7.501 7.501 0 002.744-10.246zM273.345 84.38a7.498 7.498 0 00-10.565.925l-8.933 10.646a7.498 7.498 0 00.925 10.566 7.467 7.467 0 004.816 1.754 7.485 7.485 0 005.749-2.679l8.933-10.646a7.498 7.498 0 00-.925-10.566zm-34.709-19.901a7.498 7.498 0 00-9.612 4.483l-4.753 13.06a7.5 7.5 0 1014.095 5.13l4.753-13.06a7.501 7.501 0 00-4.483-9.613z" fill="#fff"/><path d="M507.195 344.33l-108.674-41.854c-11.813-4.403-22.388-12.504-30.579-23.429-2.428-3.239-5.313-6.091-8.522-8.533 8.915-1.128 17.576-4.121 25.492-8.921 14.89-9.028 25.37-23.33 29.511-40.272L442.1 108.08c8.533-34.913-12.858-70.279-47.686-78.836l-26.076-6.408a11.409 11.409 0 00-8.692 1.332 11.417 11.417 0 00-5.207 7.103l-50.651 207.24h-15.12a7.5 7.5 0 00-7.5 7.5 7.5 7.5 0 007.5 7.5h12.446a11.568 11.568 0 004.384 7.208l-23.71-.214c-11.138-.116-22.279 2.213-32.267 6.686l-11.897 5.315c-13.946 6.251-26.53 10.676-31.314 11.009a7.579 7.579 0 00-.335.031l-35.143 4.038c-39.836-4.47-52.079 10.236-55.832 19.449-3.59 8.812-1.833 18.894 4.087 23.452 6.907 5.315 17.759 5.876 27.332 6.372 2.082.107 4.049.209 5.713.356l64.559 5.694a40.323 40.323 0 01-3.705.234l-74.974 2.655-46.03-3.86v-34.101a7.5 7.5 0 00-7.5-7.5 7.5 7.5 0 00-7.5 7.5v32.843l-14.886-1.248c-26.973-5.091-44.07-3.714-53.789 4.329C2.794 348.319 0 354.728 0 362.805v7.289c0 .306.019.612.056.916 1.346 10.94 15.124 17.159 46.071 20.795.74.087 1.273.146 1.548.188l.131.019 82.34 11.355c.247.034.496.056.746.065l219.135 8.132 65.236 33.302a7.501 7.501 0 0010.09-3.27 7.499 7.499 0 00-3.27-10.09l-66.732-34.066a7.628 7.628 0 00-3.468-.817l-220.06-8.166-81.925-11.298a89.946 89.946 0 00-2.021-.252c-25.159-2.956-31.46-6.952-32.877-8.23v-5.872c0-4.535 1.533-6.385 2.869-7.491 3.315-2.743 13.158-6.531 41.808-1.076.257.049.517.084.776.106l76.75 6.436c.298.025.596.032.893.021l75.373-2.669c18.61-.418 25.492-8.958 25.729-16.151.23-7.026-5.529-12.643-13.688-13.356l-72.062-6.355c-1.936-.17-4.033-.279-6.255-.394-6.06-.313-15.111-.782-18.607-3.033-.495-1.072-.999-4.321 1.116-7.744 2.299-3.719 10.821-11.994 40.249-8.519a7.522 7.522 0 001.736.003l35.85-4.119c9.319-.729 26.669-7.989 36.214-12.267l11.896-5.314c7.872-3.525 16.658-5.382 25.448-5.382l.559.002 49.018.442c10.145 0 19.592 4.522 25.271 12.098 9.919 13.228 22.831 23.079 37.267 28.458L497 356.478v113.273l-46.419-23.696a7.502 7.502 0 00-10.09 3.27 7.499 7.499 0 003.27 10.09l57.329 29.265a7.494 7.494 0 007.326-.284A7.499 7.499 0 00512 482V351.329a7.499 7.499 0 00-4.805-6.999zm-167.849-89.767l-22.679-5.572 51.509-210.749 22.658 5.568c26.806 6.586 43.267 33.82 36.695 60.709L399.853 217.76c-3.189 13.046-11.257 24.058-22.717 31.007-11.413 6.921-24.833 8.979-37.79 5.796z" fill="#fff"/></svg>