<svg xmlns="http://www.w3.org/2000/svg" width="256" height="256"><g stroke-width="0" stroke-miterlimit="10"><path d="M127.857 254.307c-69.725 0-126.45-56.726-126.45-126.45 0-69.725 56.725-126.45 126.45-126.45 69.724 0 126.45 56.725 126.45 126.45 0 69.724-56.726 126.45-126.45 126.45zm0-233.23c-58.878 0-106.78 47.902-106.78 106.78s47.902 106.78 106.78 106.78 106.78-47.902 106.78-106.78-47.902-106.78-106.78-106.78z"/><path d="M120.115 177.748a9.824 9.824 0 01-7.466-3.434l-49.082-57.25c-3.535-4.126-3.058-10.336 1.065-13.87 4.12-3.536 10.332-3.06 13.867 1.064l41.383 48.27L177.02 81.63a9.838 9.838 0 0113.831-1.486c4.23 3.411 4.895 9.602 1.487 13.83l-64.566 80.11a9.849 9.849 0 01-7.508 3.665h-.149z"/></g></svg>