<svg width="18" height="17" xmlns="http://www.w3.org/2000/svg"><path d="M14.58 2.158C13.013.719 11.116 0 8.763 0 6.342 0 4.25.785 2.55 2.42.85 4.053 0 6.08 0 8.5c0 2.354.785 4.315 2.42 6.015C4.053 16.215 6.211 17 9.022 17c1.635 0 3.27-.327 4.904-1.046.523-.196.784-.85.588-1.373-.196-.523-.85-.785-1.373-.589-1.373.589-2.746.916-4.054.916-2.092 0-3.726-.654-4.903-1.962-1.177-1.307-1.766-2.811-1.766-4.511 0-1.897.654-3.466 1.831-4.708C5.492 2.485 6.996 1.83 8.827 1.83c1.634 0 3.073.523 4.25 1.569 1.177 1.046 1.7 2.354 1.7 3.923 0 1.046-.262 1.962-.785 2.68-.523.72-1.046 1.047-1.634 1.047-.327 0-.458-.13-.458-.523 0-.262 0-.589.065-.915l.654-5.297h-2.223l-.13.523c-.59-.457-1.178-.719-1.831-.719-1.047 0-1.962.458-2.747 1.308-.784.85-1.111 1.961-1.111 3.27 0 1.307.327 2.353 1.046 3.203.654.785 1.504 1.177 2.42 1.177.85 0 1.569-.327 2.157-1.046.458.654 1.112 1.046 2.027 1.046 1.308 0 2.42-.588 3.4-1.7s1.438-2.485 1.438-4.12c-.196-1.96-.98-3.726-2.484-5.1zm-5.165 7.977c-.392.523-.85.784-1.438.784-.392 0-.654-.196-.915-.588-.262-.393-.327-.85-.327-1.439 0-.719.13-1.307.457-1.7.327-.457.72-.654 1.177-.654.393 0 .785.131 1.112.524.327.326.457.784.457 1.307.066.654-.13 1.243-.523 1.766z"/></svg>