<svg width="12" height="20" xmlns="http://www.w3.org/2000/svg"><path d="M11.61 12.308c.46-.469.525-1.137.131-1.806-.329-.535-.92-.803-1.578-.67a2.222 2.222 0 00-.789.402c-2.038 1.405-4.799 1.338-6.837-.067l-.394-.2c-.723-.335-1.447-.201-1.841.468-.46.669-.394 1.404.197 2.006.132.134.263.201.329.335l.066.067c.92.736 2.038 1.204 3.484 1.405l-.855.87-2.235 2.273c-.197.201-.46.535-.46 1.004 0 .602.329 1.204.92 1.471.198.134.395.134.592.134.329 0 .723-.134.986-.468l2.564-2.609.066-.067s.065 0 .065.067c.526.602 1.118 1.137 1.644 1.74l.789.802c.329.334.592.468.986.468.592.067 1.25-.334 1.512-.936a1.355 1.355 0 00-.329-1.606c-.657-.669-1.314-1.404-2.038-2.073L7.468 14.18c.591-.067 1.249-.201 1.84-.469.987-.334 1.71-.802 2.302-1.404z"/><path d="M5.956 10.435a5.122 5.122 0 005.128-5.15 5.309 5.309 0 00-1.512-3.747C8.585.535 7.336 0 6.022 0 3.194 0 .958 2.341.893 5.15c0 1.405.526 2.676 1.512 3.68.92 1.07 2.17 1.605 3.55 1.605zm-1.447-6.69c.395-.4.92-.601 1.447-.601 1.183 0 2.038.936 2.038 2.073 0 1.204-.92 2.074-2.038 2.074-1.184 0-2.038-.936-2.038-2.074 0-.535.197-1.07.591-1.471z"/><path d="M11.61 12.308c.46-.469.525-1.137.131-1.806-.329-.535-.92-.803-1.578-.67a2.222 2.222 0 00-.789.402c-2.038 1.405-4.799 1.338-6.837-.067l-.394-.2c-.723-.335-1.447-.201-1.841.468-.46.669-.394 1.404.197 2.006.132.134.263.201.329.335l.066.067c.92.736 2.038 1.204 3.484 1.405l-.855.87-2.235 2.273c-.197.201-.46.535-.46 1.004 0 .602.329 1.204.92 1.471.198.134.395.134.592.134.329 0 .723-.134.986-.468l2.564-2.609.066-.067s.065 0 .065.067c.526.602 1.118 1.137 1.644 1.74l.789.802c.329.334.592.468.986.468.592.067 1.25-.334 1.512-.936a1.355 1.355 0 00-.329-1.606c-.657-.669-1.314-1.404-2.038-2.073L7.468 14.18c.591-.067 1.249-.201 1.84-.469.987-.334 1.71-.802 2.302-1.404z"/></svg>