<svg width="48" height="48" fill="none" xmlns="http://www.w3.org/2000/svg"><path d="M13.334 45.536h21.334c4.159 0 6.228-2.11 6.228-6.288V21.007c0-2.592-.281-3.717-1.889-5.364l-11.09-11.27c-1.525-1.568-2.771-1.909-5.041-1.909h-9.543c-4.138 0-6.228 2.13-6.228 6.309v30.475c0 4.198 2.09 6.288 6.229 6.288zm.16-3.234c-2.07 0-3.155-1.106-3.155-3.114V8.833c0-1.989 1.086-3.135 3.175-3.135h8.92v11.673c0 2.531 1.285 3.776 3.776 3.776h11.452v18.04c0 2.009-1.066 3.115-3.154 3.115H13.494zm13.078-24.189c-.783 0-1.106-.32-1.106-1.124V6.32l11.572 11.793H26.572z" fill="#999"/></svg>