<svg width="41" height="35" fill="none" xmlns="http://www.w3.org/2000/svg"><path id="logo-path" d="M29.075 1.46L26.89 4.293l-.622.806h12.785l-.248.323H26.018l-.15.195-8.586 11.127-.284.368.346.31.217.19c.38.333.93.8 1.613 1.37a634.793 634.793 0 005.36 4.405l.316-.388-.316.388c3.777 3.078 9.1 7.357 12.58 10.153h-.536a2472.58 2472.58 0 01-12.249-9.903 633.476 633.476 0 01-5.363-4.408 101.52 101.52 0 01-1.767-1.503l-.4-.356-.328.424-9.154 11.863-.295.383.372.308a12.504 12.504 0 007.97 2.869h4.828l-.249.323h-4.58a12.827 12.827 0 01-8.142-2.915l-.398-.328-.315.409-2.187 2.834h-.408L6.3 30.446l.288-.373-.355-.31C-3.453 21.31 2.46 5.1 15.558 5.1h10.301l.15-.195 2.658-3.444h.408zm-4.087 4.768l.622-.806H15.557c-12.77 0-18.546 15.764-9.175 24.043l.4.354.327-.423L24.988 6.228z"/></svg>