<svg viewBox="0 0 44 35" xmlns="http://www.w3.org/2000/svg" xmlns:xlink="http://www.w3.org/1999/xlink"><style>:root&gt;svg{display:none}:root&gt;svg:target{display:block}</style><svg viewBox="0 0 44 8" id="arrow-left"><path d="M.646 3.646a.5.5 0 000 .708l3.182 3.182a.5.5 0 10.708-.708L1.707 4l2.829-2.828a.5.5 0 10-.708-.708L.646 3.646zM44 3.5H1v1h43v-1z"/></svg><svg viewBox="0 0 44 8" id="arrow-right"><path d="M43.354 4.354a.5.5 0 000-.708L40.172.464a.5.5 0 10-.707.708L42.293 4l-2.828 2.828a.5.5 0 10.707.708l3.182-3.182zM0 4.5h43v-1H0v1z"/></svg><svg viewBox="0 0 41 35" id="logo"><g clip-path="url(#cclip0_93_152)"><path class="clogo-path" fill-rule="evenodd" clip-rule="evenodd" d="M28.42.96L25.614 4.6H15.557C1.994 4.6-4.126 21.385 5.904 30.141l-3.009 3.9h1.672l2.337-3.029a13.327 13.327 0 008.46 3.029h4.825l1.018-1.323h-5.844c-2.797 0-5.502-.977-7.65-2.754L16.867 18.1l.151.133c.387.339.944.81 1.628 1.381a631.873 631.873 0 005.368 4.412c4.111 3.35 9.026 7.314 12.388 10.015h2.134A2836.641 2836.641 0 0124.85 23a635.036 635.036 0 01-5.356-4.402 101.415 101.415 0 01-1.816-1.549l8.586-11.127H39.05L40.068 4.6H27.285L30.093.96H28.42zm-3.828 4.962L6.714 29.091c-9.03-7.978-3.46-23.169 8.843-23.169h9.035z"/></g><defs><clipPath id="cclip0_93_152"><path transform="translate(0 .028)" d="M0 0h41v34.943H0z"/></clipPath></defs></svg></svg>