<svg width="182" height="72" fill="none" xmlns="http://www.w3.org/2000/svg"><path d="M0 5a5 5 0 015-5h53a5 5 0 015 5v23a5 5 0 01-5 5H5a5 5 0 01-5-5V5z" fill="#F9BF13"/><path d="M12.043 13.406h3.287l8.385 20.866 8.367-20.866h3.305L24.98 39h-2.566L12.043 13.406zm-1.072 0h2.9l.475 15.61V39H10.97V13.406zm22.57 0h2.9V39h-3.375v-9.984l.475-15.61zm19.582 22.342v-9.791c0-.75-.152-1.4-.457-1.951a2.991 2.991 0 00-1.336-1.3c-.598-.306-1.336-.458-2.215-.458-.82 0-1.54.14-2.162.422-.61.281-1.09.65-1.441 1.107-.34.457-.51.95-.51 1.477H41.75c0-.68.176-1.354.527-2.022.352-.668.856-1.271 1.512-1.81.668-.55 1.465-.985 2.39-1.3.938-.329 1.981-.493 3.13-.493 1.382 0 2.601.234 3.656.703 1.066.469 1.898 1.178 2.496 2.127.61.938.914 2.115.914 3.533v8.86c0 .632.053 1.306.158 2.021.117.715.287 1.33.51 1.846V39H53.65c-.164-.375-.293-.873-.386-1.494a12.046 12.046 0 01-.141-1.758zm.563-8.28l.035 2.286h-3.287c-.926 0-1.752.076-2.479.228-.727.141-1.336.358-1.828.65a3.092 3.092 0 00-1.125 1.108c-.258.434-.387.944-.387 1.53 0 .597.135 1.142.404 1.634.27.492.674.885 1.213 1.178.551.281 1.225.422 2.022.422.996 0 1.875-.211 2.637-.633.761-.422 1.365-.937 1.81-1.547.457-.61.703-1.201.739-1.775l1.388 1.564c-.082.492-.305 1.037-.668 1.635-.363.598-.85 1.172-1.459 1.723a7.871 7.871 0 01-2.144 1.353c-.82.352-1.747.528-2.778.528-1.289 0-2.42-.252-3.392-.756-.961-.504-1.711-1.178-2.25-2.022-.528-.855-.791-1.81-.791-2.865 0-1.02.199-1.916.597-2.69a5.192 5.192 0 011.723-1.95c.75-.528 1.652-.926 2.707-1.196 1.055-.27 2.233-.404 3.533-.404h3.78zm11.056-4.5V39H61.49V19.98h3.164l.088 2.989zm5.942-3.093l-.018 3.023a4.693 4.693 0 00-.773-.105 8.2 8.2 0 00-.809-.035c-.75 0-1.412.117-1.986.351a4.115 4.115 0 00-1.46.985 4.732 4.732 0 00-.949 1.511 7.262 7.262 0 00-.439 1.899l-.914.527c0-1.148.111-2.226.334-3.234.234-1.008.592-1.899 1.072-2.672.48-.785 1.09-1.395 1.828-1.828.75-.445 1.64-.668 2.672-.668.235 0 .504.03.809.088.305.047.515.1.633.158zM76.959 12v27h-3.27V12h3.27zm11.62 7.98l-8.298 8.877-4.64 4.817-.264-3.463 3.322-3.973 5.907-6.258h3.972zM85.606 39l-6.785-9.07 1.688-2.9L89.44 39h-3.833zm13.87.352c-1.325 0-2.526-.223-3.604-.668a8.169 8.169 0 01-2.76-1.916c-.761-.82-1.347-1.793-1.757-2.918-.41-1.125-.616-2.356-.616-3.692v-.738c0-1.547.229-2.924.686-4.13.457-1.22 1.078-2.25 1.863-3.095a7.982 7.982 0 012.672-1.916 7.675 7.675 0 013.094-.65c1.359 0 2.531.234 3.515.703a6.413 6.413 0 012.444 1.969c.632.832 1.101 1.816 1.406 2.953.305 1.125.457 2.355.457 3.691v1.46H92.674V27.75h10.951v-.246a8.134 8.134 0 00-.527-2.461 4.422 4.422 0 00-1.407-1.969c-.644-.515-1.523-.773-2.636-.773-.739 0-1.418.158-2.04.474a4.346 4.346 0 00-1.599 1.372c-.445.609-.791 1.353-1.037 2.232-.246.879-.37 1.892-.37 3.04v.74c0 .902.124 1.751.37 2.548a6.524 6.524 0 001.107 2.074 5.309 5.309 0 001.776 1.407c.703.34 1.5.51 2.39.51 1.149 0 2.121-.235 2.918-.704a7.229 7.229 0 002.092-1.88l1.969 1.564a9.091 9.091 0 01-1.565 1.775c-.632.563-1.412 1.02-2.337 1.371-.915.352-1.999.528-3.252.528zm19.16-19.371v2.496h-10.283V19.98h10.283zm-6.803-4.624h3.252V34.29c0 .645.1 1.13.299 1.459.199.328.457.545.773.65.317.106.656.159 1.02.159.269 0 .551-.024.843-.07.305-.06.534-.106.686-.141l.018 2.654a7.616 7.616 0 01-1.02.228c-.41.082-.908.124-1.494.124a5.066 5.066 0 01-2.197-.475c-.668-.317-1.202-.844-1.6-1.582-.387-.75-.58-1.758-.58-3.023V15.357zm20.549 13.606h-6.838v-2.76h6.838c1.324 0 2.396-.21 3.217-.633.82-.422 1.418-1.008 1.793-1.758.386-.75.58-1.605.58-2.566 0-.879-.194-1.705-.58-2.478-.375-.774-.973-1.395-1.793-1.864-.821-.48-1.893-.72-3.217-.72h-6.047V39h-3.393V13.406h9.44c1.933 0 3.568.334 4.904 1.002 1.336.668 2.35 1.594 3.041 2.778.692 1.171 1.037 2.513 1.037 4.025 0 1.64-.345 3.041-1.037 4.201-.691 1.16-1.705 2.045-3.041 2.654-1.336.598-2.971.897-4.904.897zm16.031-5.994V39h-3.252V19.98h3.164l.088 2.989zm5.941-3.094l-.017 3.023a4.694 4.694 0 00-.774-.105 8.177 8.177 0 00-.808-.035c-.75 0-1.412.117-1.986.351a4.105 4.105 0 00-1.459.985 4.737 4.737 0 00-.95 1.511 7.278 7.278 0 00-.439 1.899l-.914.527c0-1.148.111-2.226.334-3.234.234-1.008.592-1.899 1.072-2.672.481-.785 1.09-1.395 1.828-1.828.75-.445 1.641-.668 2.672-.668.234 0 .504.03.809.088.304.047.515.1.632.158zm1.793 9.826v-.404c0-1.371.2-2.643.598-3.815.399-1.183.973-2.209 1.723-3.076a7.688 7.688 0 012.724-2.039c1.067-.492 2.262-.738 3.586-.738 1.336 0 2.537.246 3.604.738a7.648 7.648 0 012.742 2.04c.762.866 1.342 1.892 1.74 3.075.399 1.172.598 2.444.598 3.815v.404c0 1.371-.199 2.643-.598 3.815a9.114 9.114 0 01-1.74 3.076 7.969 7.969 0 01-2.725 2.039c-1.054.48-2.25.72-3.586.72-1.335 0-2.537-.24-3.603-.72a8.15 8.15 0 01-2.742-2.04c-.75-.878-1.324-1.904-1.723-3.075-.398-1.172-.598-2.444-.598-3.815zm3.252-.404v.404c0 .95.112 1.846.334 2.69a7.1 7.1 0 001.002 2.215 5.078 5.078 0 001.705 1.529c.68.363 1.471.545 2.373.545.891 0 1.67-.182 2.338-.545a4.904 4.904 0 001.688-1.53 7.095 7.095 0 001.002-2.214c.234-.844.351-1.74.351-2.69v-.404c0-.938-.117-1.822-.351-2.654a6.843 6.843 0 00-1.02-2.233 4.846 4.846 0 00-1.687-1.547c-.668-.375-1.453-.562-2.356-.562-.89 0-1.675.187-2.355.562a5.058 5.058 0 00-1.688 1.547 7.072 7.072 0 00-1.002 2.233 10.259 10.259 0 00-.334 2.654zm-116.061 26.9v.809c0 .96-.12 1.822-.36 2.584s-.586 1.409-1.038 1.942c-.45.533-.993.94-1.625 1.222-.627.281-1.33.422-2.11.422a5.07 5.07 0 01-2.083-.422 4.683 4.683 0 01-1.635-1.222c-.457-.533-.811-1.18-1.063-1.942-.252-.762-.378-1.623-.378-2.584v-.809c0-.96.123-1.82.369-2.575.252-.762.607-1.41 1.063-1.942.457-.54 1-.95 1.627-1.23a5.072 5.072 0 012.083-.423c.779 0 1.482.141 2.109.422a4.457 4.457 0 011.626 1.23c.457.534.805 1.181 1.046 1.943.246.756.369 1.614.369 2.575zm-1.679.809v-.826c0-.762-.079-1.436-.237-2.022-.152-.586-.378-1.078-.677-1.476a2.918 2.918 0 00-1.098-.906c-.428-.205-.915-.307-1.46-.307a3.27 3.27 0 00-1.432.307 3.033 3.033 0 00-1.09.906c-.299.398-.53.89-.694 1.476-.164.586-.246 1.26-.246 2.022v.826c0 .767.082 1.447.246 2.039.164.586.398 1.081.703 1.485.31.399.677.7 1.099.905a3.27 3.27 0 001.432.308c.55 0 1.04-.102 1.468-.308a2.866 2.866 0 001.08-.905c.3-.404.525-.9.678-1.485.152-.592.228-1.272.228-2.04zm10.424.606v1.319h-5.027v-1.319h5.027zm-4.685-4.122V63h-1.626v-9.51h1.626zm6.003 0V63h-1.634v-9.51H53.4zm8.974 0v1.345h-4.597V53.49h4.597zm1.433 0V63h-1.626v-9.51h1.626zm-6.425 0h1.635l-.246 4.588a16.979 16.979 0 01-.203 1.881 6.421 6.421 0 01-.369 1.389 2.896 2.896 0 01-.58.949c-.228.24-.504.419-.826.536a3.415 3.415 0 01-1.116.167h-.51v-1.433l.352-.026a1.5 1.5 0 00.641-.176c.182-.1.334-.246.457-.44a2.64 2.64 0 00.299-.764c.082-.31.143-.68.185-1.107.046-.428.082-.926.105-1.494l.176-4.07zm14.651 7.884v-4.896c0-.375-.076-.7-.228-.975a1.496 1.496 0 00-.668-.65c-.3-.153-.668-.229-1.108-.229-.41 0-.77.07-1.08.211-.306.14-.546.325-.722.554a1.21 1.21 0 00-.254.738h-1.626c0-.34.088-.677.263-1.01.176-.335.428-.636.756-.906a3.78 3.78 0 011.195-.65c.47-.164.99-.246 1.565-.246.691 0 1.3.117 1.828.351.533.234.95.589 1.248 1.064.305.468.457 1.057.457 1.766v4.43c0 .316.026.653.08 1.01.058.358.143.666.254.923V63h-1.696a3.035 3.035 0 01-.194-.747 6.02 6.02 0 01-.07-.879zm.281-4.14l.018 1.143h-1.644a6.07 6.07 0 00-1.239.114 2.84 2.84 0 00-.914.325 1.546 1.546 0 00-.562.554 1.468 1.468 0 00-.194.765c0 .299.068.571.202.817.135.246.337.443.607.589.275.14.612.211 1.01.211.499 0 .938-.105 1.319-.317.38-.21.683-.468.905-.773.229-.305.352-.6.37-.888l.694.783c-.041.246-.153.518-.334.817a3.937 3.937 0 01-1.802 1.538 3.49 3.49 0 01-1.389.264c-.644 0-1.21-.126-1.696-.378a2.9 2.9 0 01-1.125-1.01 2.675 2.675 0 01-.395-1.433c0-.51.1-.958.298-1.345.2-.393.487-.718.862-.976a4.092 4.092 0 011.353-.597 7.143 7.143 0 011.767-.203h1.89zm5.66 3.19l4.386-6.934h1.635V63h-1.635v-6.935L77.976 63h-1.618v-9.51h1.618v6.935zm3.499-10.38h1.318c0 .458-.106.865-.316 1.223a2.174 2.174 0 01-.906.826c-.392.199-.858.299-1.397.299-.815 0-1.46-.217-1.934-.65-.469-.44-.703-1.006-.703-1.697h1.319c0 .346.1.65.298.914.2.264.54.395 1.02.395.469 0 .803-.131 1.002-.395.199-.264.299-.568.299-.914zm11.584 7.568v1.319H88.03v-1.319h5.028zm-4.685-4.122V63h-1.626v-9.51h1.626zm6.003 0V63h-1.635v-9.51h1.635zm6.003 3.402v1.335h-4.29v-1.335h4.29zm3.357-3.402V63h-1.626v-9.51h1.626zm6.241 0l-4.509 5.45h-2.277l-.246-1.424h1.864l3.19-4.026h1.978zM108.228 63l-3.499-4.307 1.046-1.177L110.293 63h-2.065zm6.152-.984l2.645-8.526h1.741l-3.815 10.978a6.119 6.119 0 01-.351.756 3.656 3.656 0 01-.545.782 2.604 2.604 0 01-.809.597c-.31.159-.683.238-1.116.238-.129 0-.293-.018-.492-.053-.2-.035-.34-.064-.422-.088l-.009-1.318c.047.006.12.012.22.017.105.012.178.018.219.018.37 0 .683-.05.941-.15.258-.093.475-.254.65-.483.182-.223.337-.53.466-.923l.677-1.845zm-1.942-8.526l2.469 7.383.422 1.714-1.169.598-3.498-9.695h1.776zm9.421 1.828v11.338h-1.634V53.49h1.494l.14 1.828zm6.408 2.848v.185c0 .691-.082 1.333-.246 1.924a4.761 4.761 0 01-.721 1.53c-.311.433-.695.77-1.152 1.01-.457.24-.981.36-1.573.36-.603 0-1.137-.099-1.599-.298a3.17 3.17 0 01-1.178-.87 4.464 4.464 0 01-.774-1.371 7.946 7.946 0 01-.386-1.802v-.984c.07-.703.202-1.333.395-1.89a4.71 4.71 0 01.765-1.424 3.14 3.14 0 011.169-.905c.457-.211.984-.316 1.582-.316.597 0 1.128.117 1.591.351.463.229.852.557 1.169.984.316.428.553.94.712 1.538a7.4 7.4 0 01.246 1.978zm-1.635.185v-.185c0-.475-.05-.92-.15-1.336a3.36 3.36 0 00-.465-1.107 2.22 2.22 0 00-.791-.756c-.323-.188-.706-.282-1.152-.282-.41 0-.767.07-1.072.212a2.31 2.31 0 00-.765.57 3.033 3.033 0 00-.518.81 4.593 4.593 0 00-.29.931v2.276c.117.41.281.797.492 1.16.211.358.492.648.844.87.351.217.794.326 1.327.326.439 0 .817-.091 1.134-.273.322-.187.586-.442.791-.764a3.47 3.47 0 00.465-1.108c.1-.422.15-.87.15-1.344zm7.514 3.489c.387 0 .745-.08 1.073-.238a2.2 2.2 0 00.808-.65c.211-.281.331-.6.361-.958h1.547a2.903 2.903 0 01-.572 1.573c-.345.48-.8.87-1.362 1.17a3.956 3.956 0 01-1.855.439c-.714 0-1.338-.126-1.872-.378a3.716 3.716 0 01-1.318-1.037 4.63 4.63 0 01-.782-1.512 6.376 6.376 0 01-.255-1.82v-.369c0-.638.085-1.242.255-1.81a4.617 4.617 0 01.782-1.52c.352-.44.791-.786 1.318-1.038.534-.252 1.158-.377 1.872-.377.745 0 1.395.152 1.952.457.556.298.993.709 1.309 1.23.322.516.498 1.101.528 1.758h-1.547a2.355 2.355 0 00-.334-1.064 2.089 2.089 0 00-.774-.756c-.322-.193-.7-.29-1.134-.29-.498 0-.917.1-1.256.3a2.201 2.201 0 00-.8.79 3.68 3.68 0 00-.422 1.099 6.044 6.044 0 00-.123 1.221v.37c0 .416.041.826.123 1.23.082.405.22.77.413 1.099.199.328.466.592.8.79.34.194.762.29 1.265.29z" fill="#fff"/></svg>