<svg width="88" height="88" fill="none" xmlns="http://www.w3.org/2000/svg"><circle cx="44" cy="44" r="44" fill="#015BBB"/><path d="M66.57 53.205l-7.08-18.511a.787.787 0 00-.74-.505h-2.587v-5.136a.77.77 0 00-.228-.62l-6.292-6.208a.792.792 0 00-.559-.225H34.63c-.834 0-1.635.327-2.224.909a3.082 3.082 0 00-.922 2.195v9.085h-2.619a.787.787 0 00-.74.504l-7.078 18.512c-.024.09-.04.18-.047.272v9.644c0 1.028.414 2.015 1.152 2.743A3.961 3.961 0 0024.932 67h37.752a3.962 3.962 0 002.781-1.136 3.854 3.854 0 001.152-2.743v-9.644a1.517 1.517 0 00-.047-.272zM33.025 25.103c0-.412.166-.806.46-1.098.296-.29.696-.454 1.113-.454h14.157l5.828 5.75v18.62c0 .412-.166.806-.46 1.097a1.588 1.588 0 01-1.113.455H34.63c-.418 0-.818-.164-1.113-.455a1.541 1.541 0 01-.46-1.097l-.032-22.818zm-3.618 10.606h2.045v12.197c0 .822.332 1.612.921 2.194.59.582 1.39.909 2.225.909h18.388c.834 0 1.635-.327 2.224-.91.59-.581.922-1.37.922-2.193V35.74h2.045l6.48 16.96h-15.06a.781.781 0 00-.787.776 4.923 4.923 0 01-2.5 4.274 5.063 5.063 0 01-5.003 0 4.923 4.923 0 01-2.5-4.274.77.77 0 00-.231-.548.793.793 0 00-.556-.228H22.926l6.481-16.991zM65.043 63.12c0 .618-.248 1.21-.69 1.646a2.377 2.377 0 01-1.67.682h-37.75a2.376 2.376 0 01-1.669-.682 2.313 2.313 0 01-.69-1.646v-8.867H37.28a6.488 6.488 0 003.47 4.966 6.657 6.657 0 006.116 0 6.488 6.488 0 003.47-4.967h14.707l.001 8.868z" fill="#fff"/><path d="M37.375 32.311h6.433a.781.781 0 00.787-.776.781.781 0 00-.787-.776h-6.433a.781.781 0 00-.787.776c0 .429.352.776.787.776zm0 3.545H50.58a.78.78 0 00.786-.776.781.781 0 00-.786-.776H37.375a.781.781 0 00-.787.776c0 .429.352.776.787.776zm0 3.546H50.58a.781.781 0 00.786-.776.781.781 0 00-.786-.776H37.375a.781.781 0 00-.787.776c0 .429.352.776.787.776zm0 3.546H50.58a.781.781 0 00.786-.776.781.781 0 00-.786-.776H37.375a.781.781 0 00-.787.776c0 .429.352.776.787.776zm0 3.546H50.58a.781.781 0 00.786-.776.781.781 0 00-.786-.776H37.375a.781.781 0 00-.787.776c0 .428.352.776.787.776z" fill="#fff"/></svg>