<svg width="88" height="88" fill="none" xmlns="http://www.w3.org/2000/svg"><circle cx="44" cy="44" r="44" fill="#015BBB"/><path d="M50.51 35.382a6.52 6.52 0 00-6.513-6.514 6.52 6.52 0 00-6.513 6.514 6.52 6.52 0 006.513 6.513 6.52 6.52 0 006.514-6.513zm-11.25 0a4.738 4.738 0 114.737 4.737 4.738 4.738 0 01-4.737-4.737z" fill="#fff"/><path d="M60.822 54.94c-2.644-.996-6.207-1.746-10.164-2.14l3.069-3.968c.187-.246.395-.483.602-.74l.187-.217c5.082-6.109 4.885-15.474-.444-21.326l-.01-.01C51.388 23.61 47.816 22 43.997 22c-3.82 0-7.392 1.608-10.066 4.54l-.01.01c-5.338 5.851-5.536 15.217-.444 21.325l.188.217c.217.257.414.494.602.74l3.069 3.967c-3.957.395-7.53 1.135-10.165 2.142C22.898 56.559 22 58.444 22 59.747c0 2.16 2.359 4.006 6.82 5.358C32.874 66.33 38.272 67 43.996 67s11.122-.68 15.187-1.905c4.461-1.342 6.82-3.197 6.82-5.358-.01-1.293-.908-3.178-5.182-4.796zm-25.145-7.193a28.33 28.33 0 00-.65-.8l-.178-.217c-2.181-2.615-3.336-6.01-3.267-9.562.07-3.562 1.372-6.908 3.661-9.424l.01-.01c2.32-2.556 5.428-3.957 8.743-3.957 3.316 0 6.425 1.411 8.754 3.967l.01.01c2.29 2.516 3.592 5.862 3.66 9.424.07 3.553-1.095 6.948-3.266 9.562l-.177.217a28.09 28.09 0 00-.651.8l-8.33 10.756-8.319-10.766zM58.67 63.398c-3.907 1.184-9.118 1.826-14.674 1.826-5.556 0-10.766-.652-14.674-1.826-4.095-1.234-5.556-2.694-5.556-3.651 0-1.017 1.51-2.191 4.026-3.138 2.744-1.037 6.573-1.787 10.826-2.132l4.667 6.04a.883.883 0 001.402 0l4.667-6.04c4.254.346 8.083 1.096 10.826 2.132 2.526.957 4.026 2.131 4.026 3.138.01 1.46-2.852 2.842-5.536 3.651z" fill="#fff"/></svg>