<svg width="67" height="60" fill="none" xmlns="http://www.w3.org/2000/svg"><path d="M66.55 9.796a1.22 1.22 0 00-.96-1.195 64.61 64.61 0 00-1.489-.306v23.33a18.54 18.54 0 012.45 3.32V9.796zM1.787 52.646c.057-.005 5.528-.605 12.11-.605 8.623 0 15.208 1.014 19.044 2.931a1.235 1.235 0 001.097 0 15.48 15.48 0 011.381-.597 18.275 18.275 0 01-1.633-2.98c-.1.007-.196.034-.297.034a3.705 3.705 0 01-1.643-.388c-8.865-4.434-25.134-4.51-25.295-4.51a3.678 3.678 0 01-3.674-3.674V8.295c-.862.17-1.4.287-1.489.306-.563.125-.96.622-.96 1.196v41.632c0 .348.148.68.407.913.262.233.607.346.953.304z" fill="#FED501"/><path d="M32.325 42.857h-.061v-2.449h.367c.172-.842.417-1.653.699-2.448h-1.066v-2.45h2.128c3.08-5.823 9.193-9.795 16.24-9.795 4.14 0 7.95 1.386 11.02 3.698V1.225C61.652.549 61.104 0 60.428 0 59.76 0 44.76.064 34.714 4.24v28.82h-2.449V4.24C22.219.063 7.219 0 6.55 0c-.676 0-1.225.549-1.225 1.225v41.632c0 .676.549 1.225 1.225 1.225.166 0 16.932.058 26.358 4.753a18.351 18.351 0 01-.644-4.753c0-.414.034-.819.061-1.225z" fill="#FED501"/><path d="M50.632 60c8.792 0 15.918-7.127 15.918-15.918 0-8.792-7.127-15.918-15.918-15.918-8.792 0-15.918 7.126-15.918 15.918C34.714 52.873 41.84 60 50.632 60zm-2.62-19.592l2.62-7.873 2.615 7.873h8.405l-6.783 5.091 2.566 7.999-6.803-4.92-6.816 4.917 2.574-7.998-6.778-5.09h8.4z" fill="#FED501"/></svg>