<svg width="52" height="60" fill="none" xmlns="http://www.w3.org/2000/svg"><path d="M47.143 16.256v30.887h4.286V12.857h-7.685l3.399 3.399zm-8.571-8.572V0H12.857v4.286h22.316l3.398 3.398zm3.029 3.03h9.827L40.714 0v9.827l.887.887z" fill="#FED501"/><path d="M28.744 10.714l3.399 3.399V6.429H6.428v4.285h22.316zM45 19.286h-7.684l3.398 3.398v30.887H45V19.286zM34.286 6.429v9.827l.887.887H45L34.286 6.429z" fill="#FED501"/><path d="M38.571 25.714H25.714V12.857H0V60h38.571V25.714z" fill="#FED501"/><path d="M27.857 12.857v10.714h10.715L27.857 12.857z" fill="#FED501"/></svg>