<svg width="88" height="89" fill="none" xmlns="http://www.w3.org/2000/svg"><circle cx="44" cy="44.5" r="44" fill="#015BBB"/><path d="M64.491 29.91h-11.31v-3.6a3.847 3.847 0 00-1.104-2.691 3.742 3.742 0 00-2.655-1.119H38.577a3.742 3.742 0 00-2.655 1.119 3.847 3.847 0 00-1.103 2.691v3.6h-11.31a4.478 4.478 0 00-3.189 1.34A4.602 4.602 0 0019 34.48v27.554a4.603 4.603 0 001.323 3.226 4.477 4.477 0 003.186 1.336h40.983c1.194 0 2.339-.48 3.184-1.336A4.603 4.603 0 0069 62.034V34.481a4.602 4.602 0 00-1.32-3.232 4.478 4.478 0 00-3.188-1.338h-.001zm-27.949-3.6c0-.547.215-1.071.596-1.458a2.02 2.02 0 011.439-.604h10.845c.54 0 1.057.217 1.439.604.381.387.595.911.595 1.458v3.6H36.542v-3.6zm-13.034 5.35h40.983a2.751 2.751 0 011.858.697 2.82 2.82 0 01.926 1.775L57.63 44.767h-9.655v-2.622a.88.88 0 00-.253-.618.856.856 0 00-.61-.256h-6.223a.868.868 0 00-.862.874v2.622H30.37L20.724 34.13c.083-.687.413-1.32.926-1.775a2.751 2.751 0 011.858-.698zm22.74 11.36v6.562H41.75V43.02h4.5zM64.49 64.866H23.508c-.74 0-1.45-.3-1.972-.83a2.844 2.844 0 01-.812-2.002V36.692l8.62 9.543c.165.18.396.28.638.28h10.044v3.94c0 .232.09.454.252.618a.856.856 0 00.61.256h6.224a.857.857 0 00.61-.256.88.88 0 00.252-.618v-3.94h10.034c.242 0 .473-.1.638-.28l8.63-9.543v25.342c.001.75-.291 1.47-.813 2.002-.523.53-1.232.83-1.972.83h-.001z" fill="#fff"/></svg>