<svg width="88" height="89" fill="none" xmlns="http://www.w3.org/2000/svg"><circle cx="44" cy="44.5" r="44" fill="#015BBB"/><path d="M44.11 47.841a.549.549 0 000 1.098 1.647 1.647 0 011.646 1.646.549.549 0 101.097 0 2.745 2.745 0 00-2.744-2.744zm0-20.853a2.745 2.745 0 002.744-2.744.549.549 0 00-1.098 0 1.647 1.647 0 01-1.646 1.646.549.549 0 000 1.098zm13.17 0a.549.549 0 000-1.098 1.647 1.647 0 01-1.646-1.646.549.549 0 00-1.098 0 2.745 2.745 0 002.744 2.744z" fill="#fff"/><path d="M57.28 21.5H44.11a2.716 2.716 0 00-1.921.802 2.794 2.794 0 00-3.869 0l-9.33 9.329h.001a2.744 2.744 0 000 3.871 2.714 2.714 0 00-.796 1.913v13.17a2.745 2.745 0 002.744 2.744h13.673l-.247.247a2.78 2.78 0 00-.798 1.92v8.26a2.744 2.744 0 002.744 2.744h6.585a.55.55 0 00.549-.549v-1.822c.003-.43.175-.842.477-1.147l7.508-7.51a2.772 2.772 0 00.795-1.92V41.804a2.708 2.708 0 00-2.195-2.634V24.244a2.744 2.744 0 00-2.75-2.744zM29.775 32.402l9.33-9.33a1.671 1.671 0 012.316 0l.172.174c-.143.314-.22.653-.228.998v1.197a1.645 1.645 0 01-2.277-.033.549.549 0 10-.776.776 2.68 2.68 0 003.053.549V40.1l-2.263-2.283a.55.55 0 10-.782.774l2.708 2.724-1.163 1.166a.55.55 0 00.774.777l.727-.727v3.787l-7.883-7.889c.132-.322.2-.667.2-1.015a.549.549 0 00-1.098 0c0 .035-.016.069-.019.104l-2.79-2.796a1.647 1.647 0 010-2.322zm-.482 18.184V37.415c.018-.42.204-.815.515-1.098l2.278 2.278a1.646 1.646 0 01-1.147.466.549.549 0 000 1.098 2.747 2.747 0 001.92-.793l8.482 8.476h-1.622a.549.549 0 000 1.097h1.646v1.647a2.7 2.7 0 00.607 1.646H30.939a1.647 1.647 0 01-1.647-1.646zm14.816 1.646a1.647 1.647 0 01-1.646-1.646V24.244c0-.302.097-.597.275-.842.285-.49.805-.794 1.371-.804H57.28a1.647 1.647 0 011.646 1.646v26.342a1.647 1.647 0 01-1.646 1.646h-3.806l1.249-1.251a.549.549 0 00.91-.395c-.002-.292.08-.578.237-.824a.503.503 0 00.05-.252 2.745 2.745 0 00-4.427-3.051l-5.784 5.773h-1.6zm7.722 1.646l.548-.548h3.43l-2.266 2.266A1.265 1.265 0 0152 55.73a1.193 1.193 0 01-.165-1.852h-.005zm9.29-12.072v11.743c-.002.43-.172.841-.474 1.147l-7.507 7.507a2.779 2.779 0 00-.799 1.921v1.279h-6.037a1.647 1.647 0 01-1.646-1.647v-8.253c.003-.431.174-.844.478-1.15l7.134-7.134a1.647 1.647 0 012.316 2.343l-2.83 2.83-.693.69a2.28 2.28 0 00-.69 1.833c.06.69.424 1.318.994 1.71a2.394 2.394 0 002.947-.258l2.722-2.722c.09-.098.172-.203.244-.316a2.745 2.745 0 002.744-2.743V40.268a1.648 1.648 0 011.097 1.537z" fill="#fff"/><path d="M52.89 33.574a1.646 1.646 0 011.646 1.646v6.585a.549.549 0 001.098 0v-3.841h1.646a.548.548 0 100-1.098h-1.646V35.22a2.744 2.744 0 10-5.488 0v4.39a1.646 1.646 0 11-3.293 0v-6.585a.549.549 0 00-1.097 0v3.841h-1.647a.548.548 0 100 1.098h1.647v1.646a2.744 2.744 0 105.487 0v-4.39a1.646 1.646 0 011.647-1.646zm-20.78 1.92c.214.213.56.213.774 0a2.743 2.743 0 000-3.88.55.55 0 00-.774.777 1.646 1.646 0 010 2.326.55.55 0 000 .777zm-1.171 12.347a.549.549 0 000 1.098 1.647 1.647 0 011.646 1.646.549.549 0 101.098 0 2.745 2.745 0 00-2.744-2.744zM26 57.17a.549.549 0 00.549.55h4.39a.548.548 0 100-1.098h-4.39a.549.549 0 00-.549.549zm14.269 4.391a.549.549 0 00-.55-.549h-8.78a.549.549 0 000 1.098h8.78a.549.549 0 00.55-.549zm-9.33 3.841a.549.549 0 000 1.098h4.39a.549.549 0 000-1.098h-4.39z" fill="#fff"/></svg>