<svg width="88" height="88" fill="none" xmlns="http://www.w3.org/2000/svg"><circle cx="44" cy="44" r="44" fill="#015BBB"/><path d="M37.153 59.871H19.796a.808.808 0 01-.796-.82V26.797c0-.434.362-.796.796-.796H68.18c.458 0 .82.362.82.796v32.256c0 .458-.362.82-.82.82H50.846a7.698 7.698 0 01-1.205 2.121v7.763a.808.808 0 01-.82.795.71.71 0 01-.386-.096l-4.315-2.122-4.629 2.146a.79.79 0 01-1.133-.723v-7.763a6.63 6.63 0 01-1.205-2.121zm10.873 3.617A7.199 7.199 0 0144 64.693c-1.495 0-2.893-.434-4.026-1.205v5.014l3.761-1.784a.817.817 0 01.748 0l3.544 1.736v-4.967zm3.182-5.232h16.177V27.615h-46.77v30.641h16.176c-.048-.265-.048-.53-.048-.82 0-.554.048-1.085.169-1.615H27.87a.808.808 0 01-.82-.796 3.29 3.29 0 00-.94-2.29l-.024-.024a3.257 3.257 0 00-2.242-.916.808.808 0 01-.82-.796V34.871c0-.459.362-.82.82-.82a3.19 3.19 0 002.266-.94 3.19 3.19 0 00.94-2.266c0-.458.362-.82.82-.82h32.256c.434 0 .795.362.795.82 0 .892.362 1.687.94 2.266.579.578 1.398.94 2.29.94.434 0 .796.361.796.82v16.128a.803.803 0 01-.795.796 3.24 3.24 0 00-2.29.94 3.244 3.244 0 00-.94 2.29.803.803 0 01-.796.796h-9.065c.12.53.193 1.06.193 1.615 0 .29-.024.554-.048.82h.001zM44 50.18c2.001 0 3.81.82 5.111 2.145h.024a6.667 6.667 0 011.35 1.905h8.896a4.846 4.846 0 013.954-3.978V35.618c-1.013-.169-1.904-.675-2.604-1.35v-.024a4.694 4.694 0 01-1.35-2.604H28.62c-.168 1.013-.675 1.929-1.35 2.628-.699.675-1.615 1.181-2.628 1.35v14.634c.989.168 1.88.627 2.58 1.301l.048.049c.675.699 1.182 1.615 1.35 2.628h8.872c.362-.724.82-1.35 1.375-1.905C40.192 50.999 42 50.179 44 50.179zm3.978 3.278A5.553 5.553 0 0044 51.795a5.57 5.57 0 00-4.002 1.663 5.632 5.632 0 00-1.64 3.978 5.65 5.65 0 001.64 4.002A5.647 5.647 0 0044 63.078a5.633 5.633 0 003.978-1.64 5.568 5.568 0 001.663-4.002 5.553 5.553 0 00-1.663-3.978zm-16.08-5.69a.808.808 0 010-1.615h24.18c.458 0 .82.362.82.82a.808.808 0 01-.82.796h-24.18zm0-4.025a.808.808 0 010-1.616h24.18c.458 0 .82.362.82.796 0 .458-.362.82-.82.82h-24.18zm4.026-8.077a.808.808 0 010-1.615h16.129a.808.808 0 110 1.615H35.924z" fill="#fff"/></svg>