<svg width="114" height="120" fill="none" xmlns="http://www.w3.org/2000/svg"><path d="M113.5 54.194c0 48.387-57.142 54.838-57.142 65.806C56.358 109.032.5 103.226.5 54.194.5 22.837 25.796 0 57 0s56.5 22.838 56.5 54.194z" fill="#015BBB"/><path d="M46.836 31.738c2.486-1.31 5.767-.806 7.755 1.209.199.2.498.302.696.302.299 0 .497-.1.696-.302a.982.982 0 000-1.41c-2.585-2.62-6.86-3.325-10.141-1.511-.497.302-.696.906-.398 1.41.299.402.895.604 1.392.302z" fill="#fff"/><path d="M83.124 76.663h-6.76V38.486c0-1.713-1.293-3.022-2.983-3.022h-9.644c-.398-3.123-1.69-5.943-3.877-8.159-5.369-5.439-14.118-5.439-19.486 0-2.188 2.216-3.58 5.037-3.878 8.16h-3.48c-1.69 0-2.982 1.309-2.982 3.02v44.321c0 2.72 2.188 4.936 4.872 4.936h44.44c2.685 0 4.872-2.216 4.872-4.936V77.67c-.1-.605-.497-1.008-1.094-1.008zM41.765 28.816a11.654 11.654 0 0116.604 0c4.573 4.634 4.573 12.19 0 16.924a11.654 11.654 0 01-16.604 0 12.046 12.046 0 01-3.48-8.462c0-3.223 1.194-6.245 3.48-8.461zm17.996 18.232c.398-.403.696-.806.994-1.21l6.86 6.951a1.596 1.596 0 010 2.216 1.546 1.546 0 01-2.187 0l-6.86-6.95c.397-.302.795-.604 1.193-1.007zM32.022 82.806v-44.32c0-.604.398-1.007.994-1.007h3.281c.1 3.626 1.491 6.95 3.977 9.569 4.474 4.533 11.334 5.338 16.603 2.216l7.16 7.252a3.567 3.567 0 005.07 0c1.392-1.41 1.392-3.727 0-5.137l-7.06-7.151c1.194-2.015 1.79-4.332 1.89-6.649h9.544c.597 0 .994.403.994 1.008v44.22c0 1.107.398 2.114.994 2.92H34.906c-1.591 0-2.883-1.309-2.883-2.92h-.001zm50.108 0c0 1.612-1.293 2.922-2.883 2.922-1.591 0-2.884-1.31-2.884-2.922v-4.13h5.767v4.13z" fill="#fff"/><path d="M38.286 58.834h19.885c.596 0 .994-.403.994-1.007 0-.605-.398-1.008-.994-1.008H38.286c-.596 0-.994.403-.994 1.008 0 .604.398 1.007.994 1.007zm0 7.05h23.862c.596 0 .994-.403.994-1.007 0-.604-.398-1.007-.994-1.007H38.286c-.596 0-.994.403-.994 1.007 0 .604.398 1.007.994 1.007zm29.826 5.038H38.285c-.597 0-.994.403-.994 1.007 0 .604.397 1.007.994 1.007h29.827c.596 0 .994-.403.994-1.007 0-.503-.497-1.007-.994-1.007zm0 7.05H38.285c-.597 0-.994.403-.994 1.007 0 .605.397 1.008.994 1.008h29.827c.596 0 .994-.403.994-1.008 0-.503-.497-1.007-.994-1.007zM42.064 38.184h1.988c.597 0 .995-.403.995-1.007 0-.604-.398-1.007-.995-1.007h-1.988c-.596 0-.994.403-.994 1.007 0 .604.497 1.007.994 1.007zm8.947-2.014h-1.988c-.597 0-.994.403-.994 1.007 0 .604.397 1.007.994 1.007h1.988c.596 0 .994-.403.994-1.007 0-.504-.398-1.007-.994-1.007zm3.977 1.007c0 .604.398 1.007.994 1.007h1.989c.596 0 .994-.403.994-1.007 0-.605-.398-1.008-.994-1.008h-1.989c-.497 0-.994.504-.994 1.008z" fill="#fff"/></svg>