<svg width="114" height="120" fill="none" xmlns="http://www.w3.org/2000/svg"><path d="M113.5 54.194c0 48.387-57.142 54.838-57.142 65.806C56.358 109.032.5 103.226.5 54.194.5 22.837 25.796 0 57 0s56.5 22.838 56.5 54.194z" fill="#015BBB"/><path d="M57.156 63.572a.785.785 0 00-.782.787c0 .434.35.786.782.786.623 0 1.22.249 1.661.692.44.442.688 1.043.688 1.669 0 .434.351.786.783.786a.785.785 0 00.783-.786 3.946 3.946 0 00-1.146-2.782 3.907 3.907 0 00-2.769-1.153zm0-29.897a3.907 3.907 0 002.769-1.152 3.946 3.946 0 001.146-2.782.785.785 0 00-.783-.787.785.785 0 00-.783.787c0 .626-.247 1.226-.688 1.669a2.344 2.344 0 01-1.66.691.785.785 0 00-.783.787c0 .434.35.787.782.787zm18.792 0a.785.785 0 00.783-.787.785.785 0 00-.783-.787c-.623 0-1.22-.249-1.661-.691a2.367 2.367 0 01-.688-1.67.785.785 0 00-.783-.786.785.785 0 00-.783.787c0 1.043.413 2.043 1.147 2.782a3.907 3.907 0 002.768 1.152z" fill="#fff"/><path d="M75.948 25.807H57.157a3.866 3.866 0 00-2.741 1.149 3.977 3.977 0 00-5.52 0L35.586 40.33a3.945 3.945 0 000 5.55 3.9 3.9 0 00-1.136 2.742v18.883c0 1.043.413 2.043 1.147 2.782a3.907 3.907 0 002.768 1.152h19.508l-.352.354a3.994 3.994 0 00-1.139 2.753v11.841a3.94 3.94 0 001.147 2.782 3.905 3.905 0 002.768 1.153h9.395a.782.782 0 00.784-.788v-2.612a2.367 2.367 0 01.68-1.644l10.712-10.767a3.987 3.987 0 001.135-2.754v-16.84a3.893 3.893 0 00-.895-2.45 3.862 3.862 0 00-2.237-1.327v-21.4a3.943 3.943 0 00-1.15-2.785 3.904 3.904 0 00-2.772-1.15h-.001zm-39.243 15.63l13.31-13.376a2.378 2.378 0 013.305 0l.246.248a3.66 3.66 0 00-.325 1.432v1.715a2.34 2.34 0 01-3.249-.047.78.78 0 00-1.108 0 .79.79 0 000 1.113 3.804 3.804 0 004.357.787v19.166l-3.23-3.273a.782.782 0 00-1.109-.007.792.792 0 00-.006 1.116l3.864 3.906-1.66 1.672a.789.789 0 000 1.113.78.78 0 001.104 0l1.037-1.042v5.428l-11.247-11.31c.19-.461.286-.955.286-1.455a.785.785 0 00-.783-.786.785.785 0 00-.783.786c0 .051-.024.099-.027.15l-3.982-4.009a2.367 2.367 0 010-3.328zm-.69 26.07V48.623a2.264 2.264 0 01.737-1.574l3.25 3.265a2.343 2.343 0 01-1.637.669.785.785 0 00-.783.786c0 .435.35.788.783.788a3.909 3.909 0 002.74-1.137l12.101 12.151h-2.314a.785.785 0 00-.783.787c0 .434.351.787.783.787h2.35v2.36a3.87 3.87 0 00.864 2.36H38.364c-.622 0-1.22-.248-1.66-.69a2.367 2.367 0 01-.688-1.67zm21.141 2.36c-.623 0-1.22-.25-1.66-.692a2.366 2.366 0 01-.689-1.669V29.741c.001-.433.139-.856.392-1.207a2.307 2.307 0 011.957-1.153h18.792c.622 0 1.22.248 1.66.691.441.443.688 1.043.688 1.67v37.764a2.37 2.37 0 01-.687 1.67 2.344 2.344 0 01-1.661.69h-5.43l1.78-1.793a.78.78 0 001.3-.567 2.166 2.166 0 01.337-1.18.723.723 0 00.071-.362 3.952 3.952 0 00-.19-3.46 3.901 3.901 0 00-6.125-.914l-8.252 8.277h-2.283zm11.017 2.36l.782-.787h4.894l-3.234 3.25a1.798 1.798 0 01-2.2.192 1.744 1.744 0 01-.751-1.29c-.04-.51.15-1.01.516-1.365h-.008zm13.255-17.309v16.837a2.366 2.366 0 01-.677 1.644l-10.71 10.763a3.995 3.995 0 00-1.14 2.754v1.833h-8.613c-.623 0-1.22-.249-1.661-.691a2.366 2.366 0 01-.688-1.67V74.557c.004-.618.248-1.21.681-1.648L68.8 62.68a2.342 2.342 0 012.273-.598c.81.222 1.44.863 1.653 1.68a2.369 2.369 0 01-.622 2.277l-4.036 4.056-.99.991a3.277 3.277 0 00-.983 2.628 3.313 3.313 0 001.417 2.45 3.402 3.402 0 004.205-.37l3.884-3.902c.129-.14.245-.291.348-.452a3.907 3.907 0 002.768-1.152 3.945 3.945 0 001.147-2.782V52.714a2.366 2.366 0 011.566 2.203v.001z" fill="#fff"/><path d="M69.683 43.117c.624 0 1.221.248 1.661.69a2.37 2.37 0 01.688 1.67v9.441c0 .434.351.787.784.787a.785.785 0 00.782-.787V49.41h2.35a.784.784 0 00.782-.786.784.784 0 00-.783-.787h-2.349v-2.36a3.938 3.938 0 00-1.957-3.407 3.9 3.9 0 00-3.915 0 3.938 3.938 0 00-1.957 3.407v6.294c0 .843-.448 1.622-1.175 2.044a2.34 2.34 0 01-2.348 0 2.362 2.362 0 01-1.175-2.044v-9.442a.785.785 0 00-.783-.786.785.785 0 00-.783.786v5.508h-2.349a.784.784 0 00-.783.787c0 .434.35.786.783.786h2.349v2.36a3.94 3.94 0 001.957 3.408 3.9 3.9 0 003.915 0 3.938 3.938 0 001.958-3.407v-6.294c0-.627.247-1.227.688-1.67a2.345 2.345 0 011.66-.69zM40.036 45.87a.78.78 0 001.105 0 3.945 3.945 0 000-5.563.78.78 0 00-1.08.029.79.79 0 00-.025 1.084 2.365 2.365 0 010 3.336.79.79 0 000 1.113zm-1.671 17.702a.785.785 0 00-.783.787c0 .434.35.786.783.786.623 0 1.22.249 1.661.692.44.442.688 1.043.688 1.669 0 .434.35.786.783.786a.785.785 0 00.783-.786 3.945 3.945 0 00-1.147-2.782 3.907 3.907 0 00-2.768-1.153zm-7.047 13.375a.784.784 0 00.783.787h6.264a.784.784 0 00.783-.787.784.784 0 00-.783-.786H32.1a.785.785 0 00-.783.786zm20.358 6.295a.79.79 0 00-.783-.787H38.365a.785.785 0 00-.782.787c0 .434.35.786.782.786h12.528a.781.781 0 00.783-.786zm-13.311 5.507a.785.785 0 00-.783.786c0 .435.35.787.783.787h6.264a.785.785 0 00.783-.787.785.785 0 00-.783-.786h-6.264z" fill="#fff"/></svg>