<svg width="114" height="120" fill="none" xmlns="http://www.w3.org/2000/svg"><path d="M113.5 54.194c0 48.387-57.142 54.838-57.142 65.806C56.358 109.032.5 103.226.5 54.194.5 22.837 25.796 0 57 0s56.5 22.838 56.5 54.194z" fill="#015BBB"/><path d="M42.59 78.726c.644 0 1.073-.434 1.073-1.086v-2.172c0-.652-.43-1.086-1.072-1.086-.643 0-1.072.434-1.072 1.086v2.172c0 .652.429 1.086 1.072 1.086zm-1.072 5.323c0 .651.43 1.086 1.072 1.086.643 0 1.072-.435 1.072-1.086v-2.173c0-.651-.429-1.086-1.072-1.086s-1.072.435-1.072 1.086v2.173z" fill="#fff"/><path d="M90.618 35.608c-.858-.87-10.72-12.382-11.685-12.382H46.128c-1.715 0-3.109 1.412-3.109 3.15V39.3c-.428-.216-.964-.325-1.286-.434h-.536c-1.715.108-3.109 1.304-3.538 2.933H24.474c-1.18 0-2.144.977-2.144 2.172v5.756c0 1.195.965 2.172 2.144 2.172h6.968c.214 4.345-1.18 1.738 4.288 10.319 3.43 5.321 3.43 5.321 3.43 5.973v1.413h-.75c-1.179 0-2.144.978-2.144 2.172v14.88c0 .651.429 1.086 1.072 1.086s1.072-.435 1.072-1.086v-14.88h18.867v14.88c0 .651.43 1.086 1.072 1.086.643 0 1.072-.435 1.072-1.086v-3.693h28.41c1.714 0 3.108-1.412 3.108-3.15V36.37c0-.326-.107-.652-.321-.76v-.001zm-3.216-.326h-7.397v-8.255l7.397 8.255zM37.446 49.62h-6.647v-5.648h6.647v5.648zm-12.972-5.648h4.18v5.648h-4.18v-5.648zm12.972 16.944c-4.932-7.604-3.86-5.214-3.967-9.124h3.967v2.28c0 .652.429 1.087 1.072 1.087s1.072-.435 1.072-1.087V42.776c0-.978.75-1.738 1.715-1.738h.107c.322.109 1.5.326 1.5 1.738v3.91c0 .652.43 1.086 1.073 1.086s1.072-.434 1.072-1.086v-6.082c0-.978.75-1.738 1.715-1.738h.107c2.144.326 1.394 2.498 1.5 2.824v2.824c0 .652.43 1.086 1.073 1.086s1.072-.434 1.072-1.086V41.69c0-.977.75-1.737 1.715-1.737h.107c.322.108 1.5.326 1.5 1.737 0 2.715-.106 2.824.108 3.258.214.435.536.652.965.652 2.036 0 .214-2.715 1.715-4.019.321-.326.75-.434 1.179-.434.75 0 1.608.651 1.608 1.737-.215 15.64 1.608 7.495-4.825 23.353-.536 1.194-.322 2.063-.322 3.475H41.198c0-3.15.536-2.172-3.752-8.797zm51.35 18.899a.967.967 0 01-.964.977H59.315v-9.015c0-2.498-2.787-2.063-2.894-2.172.107-4.236-.858.543 4.717-13.794.643-1.52.321-2.498.428-4.02h11.9c.107 0 .322 0 .43-.108l8.468-3.91c.43-.217.643-.543.643-.977 0-.435-.214-.76-.643-.978-.858-.434 3.109 1.412-8.469-3.91-.107-.109-.322-.109-.429-.109H61.567c-.643-2.606-3.645-3.91-5.896-2.172-1.072-1.738-3.538-2.607-5.575-1.086-.965-1.63-3.109-2.39-4.931-1.412V26.375c0-.543.429-.977.965-.977h31.73v10.97c0 .65.43 1.085 1.072 1.085h9.863v42.36zm-9.326-33.02l-4.825 2.28v-4.452l4.825 2.172zM72.5 49.62H61.674v-5.648h10.827v5.648z" fill="#fff"/><path d="M55.026 30.502h-2.144c-.643 0-1.072.435-1.072 1.087 0 .651.429 1.086 1.072 1.086h2.144c.643 0 1.072-.435 1.072-1.086 0-.652-.429-1.087-1.072-1.087zm7.504 0h-2.143c-.643 0-1.072.435-1.072 1.087 0 .651.429 1.086 1.072 1.086h2.144c.643 0 1.072-.435 1.072-1.086 0-.652-.429-1.087-1.072-1.087zm7.505 0H67.89c-.643 0-1.072.435-1.072 1.087 0 .651.429 1.086 1.072 1.086h2.144c.643 0 1.072-.435 1.072-1.086 0-.652-.43-1.087-1.072-1.087zm1.178 28.457c0 .651.43 1.086 1.072 1.086H83.22c.643 0 1.072-.434 1.072-1.086 0-.652-.429-1.086-1.072-1.086H72.285a1.08 1.08 0 00-1.072 1.086zm12.008 6.843H67.998c-.643 0-1.072.435-1.072 1.086 0 .652.429 1.087 1.072 1.087H83.22c.643 0 1.072-.435 1.072-1.087a1.08 1.08 0 00-1.071-1.086zm0 6.842H64.782c-.643 0-1.072.435-1.072 1.086 0 .652.43 1.086 1.072 1.086h18.44c.642 0 1.071-.434 1.071-1.086a1.08 1.08 0 00-1.071-1.086z" fill="#fff"/></svg>