<svg width="35" height="35" fill="none" xmlns="http://www.w3.org/2000/svg"><path d="M17.5 35C27.165 35 35 27.165 35 17.5S27.165 0 17.5 0 0 7.835 0 17.5 7.835 35 17.5 35z" fill="#2DA5D8"/><path d="M6.517 18.356c2.046-1.127 4.33-2.067 6.463-3.013 3.671-1.548 7.357-3.07 11.079-4.486.724-.241 2.026-.477 2.153.596-.07 1.52-.357 3.03-.554 4.54-.5 3.322-1.079 6.632-1.643 9.942-.194 1.103-1.576 1.674-2.46.968-2.124-1.435-4.264-2.855-6.361-4.324-.687-.698-.05-1.7.563-2.198 1.75-1.725 3.605-3.19 5.263-5.003.448-1.08-.874-.17-1.31.11-2.395 1.65-4.732 3.401-7.257 4.852-1.29.71-2.793.103-4.082-.293-1.157-.479-2.85-.961-1.854-1.69v-.001z" fill="#fff"/></svg>