<svg width="88" height="89" fill="none" xmlns="http://www.w3.org/2000/svg"><circle cx="44" cy="44.5" r="44" fill="#015BBB"/><path d="M44.5 22.5a22.498 22.498 0 00-22.067 26.892 22.497 22.497 0 0030.68 16.394A22.5 22.5 0 0067 44.995 22.52 22.52 0 0044.5 22.5zm0 43.267a20.773 20.773 0 1120.772-20.772A20.795 20.795 0 0144.5 65.767z" fill="#fff"/><path d="M44.5 27.215A17.806 17.806 0 0028.056 38.23a17.808 17.808 0 0013.016 24.268 17.81 17.81 0 0021.26-17.505A17.824 17.824 0 0044.5 27.214zm0 33.889a16.084 16.084 0 1116.078-16.109A16.099 16.099 0 0144.5 61.08v.025z" fill="#fff"/><path d="M51.927 40.022l-6.564 3.917V31.604a.864.864 0 10-1.727 0v13.859c.002.31.168.597.437.752a.863.863 0 00.869-.01l7.869-4.7a.864.864 0 00-.884-1.483zm6.228 4.11h-1.95a.868.868 0 000 1.732h1.95a.869.869 0 000-1.732zm-25.36 0h-1.961a.868.868 0 000 1.732h1.956a.868.868 0 000-1.732h.005zM44.5 55.4a.864.864 0 00-.864.863v1.94a.864.864 0 101.728 0v-1.94a.864.864 0 00-.864-.864z" fill="#fff"/></svg>