<svg width="35" height="35" fill="none" xmlns="http://www.w3.org/2000/svg"><path d="M17.5 0C27.165 0 35 7.835 35 17.5S27.165 35 17.5 35 0 27.165 0 17.5 7.835 0 17.5 0z" fill="#7F4DA0"/><path d="M22.162 15.282c-.085-.691-.297-1.234-.675-1.715-.49-.62-1.116-.99-2.043-1.21-.605-.147-.849-.13-1.067.07-.204.187-.244.562-.088.804.11.177.235.24.586.309.468.086.791.197 1.085.365.624.36.914.924.945 1.837.015.428.052.56.201.712a.644.644 0 00.98-.109c.078-.125.09-.18.097-.47a4.626 4.626 0 00-.02-.593z" fill="#fff"/><path d="M24.605 16.062c-.123-2.119-.951-3.823-2.434-5.022a6.862 6.862 0 00-2.953-1.363c-.405-.08-1.152-.146-1.28-.108a.787.787 0 00-.368.283c-.08.129-.099.415-.03.581.11.277.317.375.895.426.891.078 1.81.39 2.505.854a5.252 5.252 0 011.83 2.098c.353.729.57 1.779.564 2.72-.002.34.05.532.187.672a.628.628 0 00.773.12c.294-.155.363-.427.311-1.261zm2.704 8.158a2.339 2.339 0 00-.207-.415c-.436-.657-2.774-2.487-3.941-3.085-.667-.343-1.16-.457-1.527-.35-.393.111-.6.294-1.26 1.114-.266.329-.54.637-.612.685-.18.125-.532.225-.78.225-.577-.004-1.624-.377-2.428-.868-.625-.38-1.427-1.062-2.042-1.737-.725-.792-1.219-1.49-1.61-2.28-.503-1.013-.631-1.632-.42-2.085.051-.114.12-.235.152-.273.03-.035.355-.301.714-.592.705-.56.819-.688.95-1.072.166-.488.121-.986-.134-1.488-.197-.38-.712-1.21-1.085-1.746-.494-.706-1.723-2.214-1.969-2.418-.442-.36-1.008-.422-1.633-.18-.66.256-1.896 1.252-2.425 1.947-.477.63-.66 1.076-.687 1.664-.024.484.017.685.273 1.304 2 4.857 4.983 8.734 9.083 11.813 2.142 1.608 4.363 2.833 6.666 3.67 1.344.488 1.927.512 2.615.11.29-.172 1.008-.91 1.409-1.445.663-.893.908-1.304.977-1.633.049-.225.01-.616-.08-.865z" fill="#fff"/><path d="M27.092 16.548a9.646 9.646 0 00-.666-3.277c-.416-1.078-.836-1.781-1.63-2.733-.75-.892-1.334-1.401-2.258-1.968-1.29-.79-2.86-1.313-4.62-1.533-.6-.076-.735-.071-.919.052-.357.232-.352.813.006 1.042.118.073.223.1.703.162.737.1 1.21.193 1.773.346 2.204.603 3.9 1.835 5.032 3.663.949 1.524 1.343 3.048 1.287 4.994-.02.658-.006.774.095.932.193.295.7.353.961.109.162-.15.193-.261.225-.824.015-.294.018-.728.011-.965z" fill="#fff"/></svg>