<svg width="35" height="35" fill="none" xmlns="http://www.w3.org/2000/svg"><path d="M17.5 35C27.165 35 35 27.165 35 17.5S27.165 0 17.5 0 0 7.835 0 17.5 7.835 35 17.5 35z" fill="#25D366"/><path fill-rule="evenodd" clip-rule="evenodd" d="M18.077 27.236h-.005c-1.741 0-3.452-.437-4.972-1.266l-5.517 1.447 1.477-5.393a10.388 10.388 0 01-1.39-5.202c.003-5.737 4.67-10.405 10.407-10.405a10.339 10.339 0 017.36 3.052 10.343 10.343 0 013.046 7.361c-.003 5.737-4.669 10.404-10.406 10.406zm-4.722-3.15l.316.187a8.637 8.637 0 004.402 1.206h.004c4.767 0 8.647-3.88 8.649-8.65a8.597 8.597 0 00-2.531-6.118 8.59 8.59 0 00-6.115-2.537c-4.77 0-8.65 3.88-8.653 8.649 0 1.634.457 3.226 1.323 4.603l.206.327-.874 3.192 3.273-.86zm9.608-5.015c.181.087.304.146.356.234.065.108.065.629-.151 1.236-.217.608-1.256 1.162-1.755 1.236-.448.067-1.015.095-1.638-.103-.378-.12-.862-.28-1.482-.547-2.438-1.053-4.085-3.415-4.397-3.862l-.045-.064-.002-.003c-.138-.184-1.06-1.414-1.06-2.687 0-1.198.588-1.825.86-2.114l.05-.055a.955.955 0 01.693-.325c.174 0 .347.001.499.009h.058c.152 0 .34-.002.527.446l.287.697c.224.545.471 1.147.514 1.234.066.13.109.282.022.455l-.036.074c-.066.133-.113.23-.224.36-.043.05-.088.105-.133.16-.09.109-.179.218-.257.296-.13.13-.266.27-.114.53.152.26.674 1.112 1.447 1.801a6.687 6.687 0 001.919 1.213c.071.031.13.057.172.078.26.13.411.108.563-.065.152-.174.65-.76.823-1.02.173-.26.347-.217.585-.13s1.517.716 1.777.846l.142.07z" fill="#FDFDFD"/></svg>