<svg width="122" height="68" fill="none" xmlns="http://www.w3.org/2000/svg"><g clip-path="url(#clip0_2_4213)" fill="#fff"><path d="M36.226 9.51c-.97.08-2.332 2.48-3.154 5.632-.877 3.362-.793 6.303.18 6.556.972.254 2.458-2.27 3.334-5.632.877-3.362.793-6.303-.18-6.557-.06-.029-.116 0-.18 0zm1.6.36v.029c.879.42.913 3.265.067 6.511-.846 3.246-2.272 5.695-3.244 5.633v.029l9.26 2.433.09.029v-.03c.973.081 2.395-2.397 3.244-5.654.85-3.257.82-6.083-.067-6.489v-.029l-.09-.029-9.26-2.433zm25.707 2.028c-.587.07-1.206.857-1.487 1.937-.322 1.235-.06 2.378.585 2.546.645.167 1.413-.703 1.735-1.938.322-1.234.06-2.377-.586-2.545a.364.364 0 00-.247 0zm1.87.45c.566.26.776 1.337.473 2.501-.304 1.164-1.001 1.965-1.623 1.915l2.569.676c.04.029.091.054.135.066.646.165 1.436-.703 1.758-1.938.322-1.234.037-2.377-.609-2.545-.043-.03-.09 0-.135 0l-2.568-.675zm4.618 1.194v.03c.493.333.669 1.36.383 2.455-.285 1.095-.938 1.887-1.532 1.938v.029l3.087.811h.023c.033.029.076.035.113.043.646.166 1.413-.68 1.735-1.915.322-1.234.081-2.377-.564-2.546-.036-.028-.075-.029-.112-.029h-.024l-3.109-.81v-.006zm-20.525.45c.198 1.213.038 3.162-.518 5.296-.556 2.133-1.376 3.927-2.14 4.888l10.611 2.75-15.478 23.588h3.74L59.23 29.9v20.818h3.74v-20.48l13.316 20.277h3.74L65.042 27.646c.566-.853 1.145-2.192 1.555-3.762.731-2.807.676-5.264-.136-5.475-.023 0-.067.029-.09.029l.023-.03-16.898-4.415zm19.624 5.115l-.023.093c.582.596.564 2.81-.09 5.317-.654 2.507-1.725 4.45-2.524 4.686l-.023.094 4.371 1.149h.045c.002 0-.001-.03 0-.03.813.125 2.031-1.955 2.749-4.708s.679-5.14-.09-5.43c-.015-.029-.03-.029-.045-.029L69.119 19.1l.001.007zm7.322 3.785c-.533-.138-1.343 1.241-1.825 3.087-.48 1.846-.443 3.466.09 3.605.535.14 1.367-1.264 1.848-3.11.481-1.845.421-3.443-.113-3.582zM30.5 24.925l.81 2.492h2.621l-2.12 1.541.81 2.493-2.12-1.54-2.121 1.54.81-2.493-2.12-1.54h2.62l.81-2.493z"/><path d="M44.766 27.876l.479 1.473h1.549l-1.253.91.478 1.474-1.253-.91-1.253.91.479-1.473-1.253-.91h1.549l.478-1.474zM81.825 6.887l.552 1.7h1.787l-1.445 1.05.552 1.7-1.446-1.05-1.446 1.05.553-1.7-1.446-1.05h1.787l.552-1.7zm-.984 25.253l.332 1.02h1.072l-.868.63.332 1.02-.868-.63-.867.63.331-1.02-.867-.63h1.072l.331-1.02zM55.425.656l.662 2.04h2.145l-1.735 1.26.663 2.04-1.735-1.261-1.735 1.26.663-2.04-1.735-1.26h2.144l.663-2.04zM28.204 7.543l.295.906h.953l-.771.56.294.907-.77-.56-.772.56.295-.906-.771-.56h.953l.294-.907z"/></g><path d="M16.565 64.113l-.468-1.405h-3.111l-.469 1.405h-1.661l2.732-7.806h1.907l2.743 7.806h-1.673zm-3.089-2.843h2.141l-1.07-3.19-1.07 3.19zm13.454 2.999c-1.174 0-2.144-.39-2.91-1.17-.766-.781-1.148-1.744-1.148-2.889 0-1.152.382-2.115 1.148-2.888.766-.78 1.736-1.17 2.91-1.17.707 0 1.357.167 1.952.501.602.327 1.07.773 1.405 1.338l-1.327.77a2.023 2.023 0 00-.825-.814 2.413 2.413 0 00-1.205-.301c-.758 0-1.371.237-1.84.713-.46.476-.69 1.093-.69 1.851 0 .751.23 1.364.69 1.84.469.476 1.082.714 1.84.714.446 0 .848-.097 1.205-.29.364-.2.639-.472.825-.814l1.327.77a3.684 3.684 0 01-1.394 1.348 4.004 4.004 0 01-1.963.491zm13.948-7.962v1.472H38.77v6.334h-1.538v-6.334h-2.097v-1.472h5.743zm8.285 0c.751 0 1.383.253 1.896.759.513.505.77 1.126.77 1.862 0 .736-.257 1.357-.77 1.862-.513.505-1.145.758-1.896.758h-1.371v2.565h-1.54v-7.806h2.911zm0 3.803c.327 0 .599-.112.814-.335.216-.23.324-.513.324-.847 0-.342-.108-.624-.324-.847a1.085 1.085 0 00-.814-.335h-1.371v2.364h1.371zm14.696 2.988c-.788.78-1.747 1.171-2.877 1.171-1.13 0-2.088-.39-2.877-1.17-.78-.789-1.17-1.751-1.17-2.889 0-1.137.39-2.096 1.17-2.877.789-.788 1.747-1.182 2.877-1.182 1.13 0 2.09.394 2.877 1.182.788.78 1.182 1.74 1.182 2.877 0 1.138-.394 2.1-1.182 2.888zm-4.672-1.048c.483.476 1.082.714 1.795.714.714 0 1.312-.238 1.796-.714.483-.483.724-1.096.724-1.84 0-.743-.241-1.356-.724-1.84-.484-.483-1.082-.724-1.796-.724-.713 0-1.312.241-1.795.724-.483.484-.725 1.097-.725 1.84 0 .744.242 1.357.725 1.84zm17.551 2.063h-1.773l-2.788-3.657v3.657H70.64v-7.806h1.538v3.446l2.676-3.446h1.773L73.738 60.1l3 4.014zm4.762 0v-1.427c.46.066.806-.026 1.037-.28.23-.252.345-.746.345-1.482v-4.617h5.308v7.806h-1.528v-6.334H84.41v3.1c0 .677-.082 1.245-.245 1.706-.164.461-.39.803-.68 1.026a2.28 2.28 0 01-.915.446c-.32.075-.676.093-1.07.056zm16.968-7.806h1.539l-2.341 5.654c-.625 1.516-1.65 2.234-3.078 2.152v-1.438c.416.037.75-.02 1.004-.168.26-.156.475-.405.646-.747l-2.553-5.453h1.539l1.706 3.77 1.538-3.77zm9.875 2.955c.759 0 1.379.227 1.863.68.483.447.724 1.026.724 1.74 0 .721-.241 1.308-.724 1.762-.484.446-1.104.669-1.863.669h-2.988v-7.806h4.906v1.472h-3.367v1.483h1.449zm0 3.413c.305 0 .558-.086.759-.257.2-.178.301-.424.301-.736s-.101-.554-.301-.725c-.201-.17-.454-.256-.759-.256h-1.449v1.974h1.449zM122 52.483c0 1.454-27.31-.666-61-.666s-61 2.12-61 .666c0-1.455 27.31-2.633 61-2.633s61 1.178 61 2.633z" fill="#fff"/><defs><clipPath id="clip0_2_4213"><path fill="#fff" transform="translate(25.253)" d="M0 0h61.984v61.984H0z"/></clipPath></defs></svg>