<svg width="27" height="27" fill="none" xmlns="http://www.w3.org/2000/svg"><path d="M24.552 18.682V5.212c0-1.34-1.093-2.333-2.421-2.221h-.067c-2.344.2-5.904 1.395-7.89 2.645l-.19.123c-.324.2-.86.2-1.183 0l-.28-.168C10.536 4.352 6.988 3.17 4.644 2.98c-1.328-.112-2.41.893-2.41 2.22v13.482c0 1.071.87 2.076 1.941 2.21l.324.044c2.422.324 6.16 1.551 8.303 2.723l.044.022c.302.168.782.168 1.072 0 2.143-1.183 5.892-2.421 8.325-2.745l.368-.045c1.072-.133 1.942-1.138 1.942-2.21zM13.392 6.127v16.74M8.649 9.475H6.138m3.348 3.348H6.138" stroke="#F9BF13" stroke-width="1.5" stroke-linecap="round" stroke-linejoin="round"/></svg>