<svg width="70" height="70" fill="none" xmlns="http://www.w3.org/2000/svg"><g clip-path="url(#clip0_481_29765)"><path d="M55.777 6.566a1.094 1.094 0 00-.85.41l-8.75 10.938a1.092 1.092 0 00.854 1.773h3.282v17.628a13.098 13.098 0 00-7.99 4.247h-6.23a1.1 1.1 0 00-.217.026A1.093 1.093 0 0035 42.656v15.312a1.094 1.094 0 001.094 1.094h6.233c2.405 2.677 5.882 4.375 9.754 4.375 7.236 0 13.125-5.889 13.125-13.125a13.09 13.09 0 00-3.956-9.378V19.687h3.281a1.094 1.094 0 00.855-1.773l-8.75-10.937a1.094 1.094 0 00-.859-.41zm.004 2.842l6.473 8.092h-2.098a1.094 1.094 0 00-1.093 1.093v20.624a13.018 13.018 0 00-6.563-2.008V18.593a1.094 1.094 0 00-1.094-1.093H49.31l6.472-8.092zm-35 14.654a1.094 1.094 0 00-1.093 1.094v32.812a1.094 1.094 0 001.093 1.094h8.75a1.094 1.094 0 001.094-1.094V25.156a1.094 1.094 0 00-1.094-1.094h-8.75zm1.094 2.188h6.563v30.625h-6.563V26.25zM5.469 32.812a1.094 1.094 0 00-1.094 1.094v24.062a1.094 1.094 0 001.094 1.094h8.75a1.094 1.094 0 001.094-1.094V33.906a1.094 1.094 0 00-1.094-1.094h-8.75zM6.562 35h6.563v21.875H6.562V35zm45.52 4.375a10.921 10.921 0 0110.937 10.937A10.92 10.92 0 0152.08 61.25a10.92 10.92 0 01-10.937-10.938A10.921 10.921 0 0152.08 39.375zm-.62 2.187v2.025a5.255 5.255 0 00-1.491.398 3.828 3.828 0 00-1.141.756 3.246 3.246 0 00-.718 1.085c-.162.418-.24.88-.24 1.384 0 .547.093 1.027.279 1.444.194.418.468.788.824 1.107.364.32.802.598 1.312.837.518.234 1.1.438 1.747.616.486.16.9.328 1.24.5.347.171.622.357.832.56.219.202.378.42.475.653.097.233.145.488.145.765 0 .331-.058.635-.18.905-.12.264-.299.49-.534.68a2.48 2.48 0 01-.85.431 4.022 4.022 0 01-2.063.03 2.195 2.195 0 01-.838-.423 2.17 2.17 0 01-.607-.82c-.153-.344-.23-.777-.23-1.299h-2.136c0 .694.11 1.289.329 1.786.218.491.511.9.875 1.226.373.326.796.572 1.274.744a6.3 6.3 0 001.478.341v1.77h1.688v-1.77a6.417 6.417 0 001.636-.367c.485-.184.9-.432 1.239-.74a3.21 3.21 0 00.79-1.084c.186-.424.278-.9.278-1.427 0-.54-.087-1.016-.265-1.427a3.132 3.132 0 00-.79-1.09 5.048 5.048 0 00-1.286-.82c-.51-.24-1.097-.45-1.76-.641a10.227 10.227 0 01-1.312-.509 3.946 3.946 0 01-.846-.564 1.795 1.795 0 01-.474-.64 2.297 2.297 0 01-.133-.804c0-.319.044-.611.133-.875a1.8 1.8 0 01.423-.671c.194-.19.434-.34.717-.444a2.903 2.903 0 011.004-.154c.372 0 .705.068.996.209.291.141.536.338.73.59.195.251.34.549.436.893.105.343.158.725.158 1.136h2.124c0-1.246-.313-2.23-.936-2.948-.615-.725-1.486-1.167-2.619-1.32v-2.034h-1.713zM37.187 43.75h3.542a13.012 13.012 0 00.004 13.125h-3.546V43.75z" fill="url(#paint0_linear_481_29765)"/></g><defs><linearGradient id="paint0_linear_481_29765" x1="4.375" y1="35.002" x2="65.622" y2="35.002" gradientUnits="userSpaceOnUse"><stop stop-color="#FF6B00"/><stop offset="1" stop-color="#FFC727"/></linearGradient><clipPath id="clip0_481_29765"><path fill="#fff" d="M0 0h70v70H0z"/></clipPath></defs></svg>