<svg width="27" height="27" fill="none" xmlns="http://www.w3.org/2000/svg"><path d="M14.54 3.285l6.594 2.947c1.9.844 1.9 2.24 0 3.083l-6.594 2.947c-.749.338-1.978.338-2.727 0L5.219 9.316c-1.9-.844-1.9-2.239 0-3.083l6.594-2.947c.749-.338 1.978-.338 2.727 0z" stroke="#F9BF13" stroke-width="1.5" stroke-linecap="round" stroke-linejoin="round"/><path d="M3.353 12.375c0 .945.704 2.036 1.564 2.419l7.589 3.397c.581.259 1.24.259 1.81 0l7.59-3.397c.86-.383 1.564-1.474 1.564-2.419" stroke="#F9BF13" stroke-width="1.5" stroke-linecap="round" stroke-linejoin="round"/><path d="M3.353 18c0 1.046.614 1.991 1.564 2.419l7.589 3.397c.581.259 1.24.259 1.81 0l7.59-3.397A2.652 2.652 0 0023.47 18" stroke="#F9BF13" stroke-width="1.5" stroke-linecap="round" stroke-linejoin="round"/></svg>