<svg width="70" height="70" fill="none" xmlns="http://www.w3.org/2000/svg"><g clip-path="url(#clip0_481_29759)"><path d="M29.515 2.918v.004c-5.115.001-9.277 4.096-9.438 9.173-1.35-.72-2.847-1.14-4.4-1.145h-.005c-5.218 0-9.47 4.255-9.468 9.472 0 2.367.906 4.507 2.35 6.17a9.466 9.466 0 00-3.068 6.955c.001 5.216 4.253 9.467 9.468 9.468 3.336 0 6.264-1.752 7.951-4.37h.526a3.253 3.253 0 013.178 3.28v19.688a3.25 3.25 0 01-3.28 3.281 1.092 1.092 0 00-1.026 1.516 1.096 1.096 0 001.025.672 5.481 5.481 0 005.469-5.469V41.925c0-2.816-2.153-5.127-4.896-5.417a9.343 9.343 0 00.453-2.303 5.45 5.45 0 005.13-2.209c.263.022.515.082.783.082 1.02 0 1.983-.209 2.905-.509v3.794a5.481 5.481 0 005.469 5.469c1.547 0 2.946-.65 3.943-1.688.254.653.559 1.28.944 1.854-2.381.6-4.152 2.746-4.152 5.303v15.312a5.481 5.481 0 005.468 5.469 1.094 1.094 0 100-2.188 3.25 3.25 0 01-3.281-3.281V46.3a3.255 3.255 0 012.982-3.268c.027-.007.055-.016.081-.025-.192.032-.017 0 .086 0h.692c1.637 1.35 3.705 2.195 5.986 2.196 5.217.001 9.47-4.25 9.472-9.468 0-2.793-1.239-5.284-3.17-7.02 3.926-1.155 6.824-4.752 6.823-9.045-.001-5.215-4.253-9.467-9.468-9.468-.806.002-1.595.144-2.371.347-.86-4.341-4.697-7.63-9.284-7.631v.004c-2.739 0-5.19 1.191-6.922 3.06a9.46 9.46 0 00-6.955-3.064zm0 2.187a7.273 7.273 0 015.648 2.7c-.764 1.365-1.239 2.915-1.24 4.585.002.528.062 1.047.15 1.564-.398-.177-.822-.294-1.247-.415a2.457 2.457 0 00-.41-.491 3.95 3.95 0 00-1-.637 9.225 9.225 0 00-1.363-.5 7.918 7.918 0 01-1.017-.393 3.123 3.123 0 01-.658-.435 1.39 1.39 0 01-.367-.5 1.763 1.763 0 01-.103-.62c0-.247.034-.473.103-.68a1.4 1.4 0 01.329-.52c.15-.148.336-.261.555-.342.22-.081.48-.124.782-.124.289 0 .547.053.773.162.226.11.414.263.564.457.15.196.262.426.338.693.081.266.124.56.124.88h1.645c0-.967-.244-1.729-.727-2.286-.476-.561-1.15-.9-2.03-1.021V6.054h-1.328v1.12a4.139 4.139 0 00-1.158.307 2.96 2.96 0 00-.884.585 2.528 2.528 0 00-.555.846 2.923 2.923 0 00-.189 1.068c0 .424.074.8.218 1.124.15.324.365.607.641.855.282.247.622.467 1.017.653.402.181.853.34 1.354.479.103.033.167.068.261.102a9.406 9.406 0 00-6.404 3.017 7.23 7.23 0 01-.838-2.009 1.095 1.095 0 00-.094-.316 7.26 7.26 0 01-.17-1.5 7.265 7.265 0 017.28-7.28zm13.877 0c3.848.001 6.945 2.967 7.224 6.742a1.1 1.1 0 00.052.509c0 .01.004.02.004.03 0 1.92-.79 3.718-2.12 5.071a9.445 9.445 0 00-1.78-1.145c.038-.07.086-.135.119-.21.144-.328.218-.697.218-1.106 0-.419-.072-.787-.21-1.106a2.408 2.408 0 00-.61-.842 3.92 3.92 0 00-.996-.637 9.287 9.287 0 00-1.367-.5 7.828 7.828 0 01-1.013-.393 3.157 3.157 0 01-.662-.435 1.39 1.39 0 01-.368-.5 1.763 1.763 0 01-.102-.62c0-.247.033-.473.102-.68a1.422 1.422 0 01.885-.862c.22-.081.48-.124.782-.124.288 0 .547.053.773.162.226.11.413.263.564.457.15.196.262.426.337.693.082.266.124.56.124.88h1.645c0-.967-.239-1.729-.722-2.286-.477-.561-1.155-.9-2.034-1.021V6.054h-1.324v1.12a4.14 4.14 0 00-1.158.307 2.96 2.96 0 00-.884.585 2.531 2.531 0 00-.556.846 2.925 2.925 0 00-.188 1.068c0 .424.07.8.214 1.124.15.324.365.607.64.855a4.33 4.33 0 001.018.653c.401.181.852.34 1.354.479.377.123.698.25.962.384.27.134.486.279.649.436.17.157.292.327.367.508.076.181.111.376.111.59v.004c0 .257-.047.487-.14.697-.007.013-.02.021-.026.034-.843-.246-1.716-.42-2.636-.419-.394 0-.78.05-1.167.099a2.476 2.476 0 01-.14-.8h-1.658c0 .436.068.81.179 1.146-.768.238-1.5.577-2.188 1.004-.077-.098-.158-.192-.239-.287-.083-.095-.145-.206-.23-.299a7.278 7.278 0 01-1.086-3.802A7.24 7.24 0 0137.21 8.57c.144-.126.251-.288.312-.47a7.246 7.246 0 015.87-2.995zm11.655 7.285a7.265 7.265 0 017.28 7.28 7.265 7.265 0 01-7.28 7.285 1.12 1.12 0 00-.128.004c-.923-.373-1.923-.578-2.961-.64.082-.5.154-1 .154-1.522 0-.28-.058-.543-.081-.816.075.089.144.184.23.26.289.253.617.448.987.582.37.133.754.221 1.15.265v.918h1.307v-.918a5.02 5.02 0 001.273-.287c.376-.142.694-.334.957-.572.264-.238.467-.518.611-.842.144-.329.218-.697.218-1.106 0-.42-.067-.788-.205-1.107a2.425 2.425 0 00-.611-.846 3.955 3.955 0 00-1-.636 9.225 9.225 0 00-1.363-.5 7.94 7.94 0 01-1.017-.393 3.121 3.121 0 01-.658-.436 1.376 1.376 0 01-.367-.496 1.787 1.787 0 01-.103-.623c0-.248.034-.474.103-.68.075-.205.185-.377.329-.521.15-.148.336-.26.555-.342.22-.08.481-.124.782-.124.289 0 .543.057.77.167.225.11.413.262.563.457.15.195.267.426.342.692.082.267.12.557.12.876h1.649c0-.966-.243-1.729-.727-2.286-.476-.56-1.155-.9-2.033-1.02v-1.124h-1.325v1.119a4.14 4.14 0 00-1.157.307c-.346.153-.64.348-.885.586-.154.153-.25.353-.359.542a9.436 9.436 0 00.671-3.119c.716-.23 1.454-.383 2.209-.384zm-39.38.748c1.769 0 3.463.666 4.786 1.833a9.42 9.42 0 001.555 3.101c-.747 1.354-1.21 2.887-1.21 4.538 0 .871.159 1.697.381 2.5-1.376 1.62-3.368 2.593-5.507 2.593-1.84 0-3.498-.699-4.777-1.816a1.037 1.037 0 00-.043-.039l-.038-.034a1.367 1.367 0 00-.017-.009c-1.47-1.33-2.405-3.235-2.405-5.383a7.265 7.265 0 017.276-7.284zm-.474.948v1.12a4.136 4.136 0 00-1.157.307 3 3 0 00-.885.586 2.512 2.512 0 00-.555.841 2.946 2.946 0 00-.188 1.073c0 .423.073.8.218 1.123.15.324.36.607.636.855.282.247.622.463 1.017.65.402.18.853.34 1.354.478.377.123.698.255.962.388.27.134.486.279.65.436.168.157.291.323.367.504.075.181.11.38.11.594 0 .257-.046.49-.14.7a1.472 1.472 0 01-.415.53 1.923 1.923 0 01-.658.334 3.105 3.105 0 01-1.598.021 1.69 1.69 0 01-.649-.324 1.68 1.68 0 01-.47-.637c-.12-.267-.18-.604-.18-1.008h-1.657c0 .538.087.998.256 1.384.17.381.393.7.675.953.289.252.617.443.987.577.37.133.754.22 1.15.264v.919h1.307v-.919a5.03 5.03 0 001.273-.286c.376-.143.694-.334.957-.572.264-.239.467-.518.611-.842a2.73 2.73 0 00.218-1.107c0-.418-.067-.787-.205-1.106a2.409 2.409 0 00-.611-.842 3.956 3.956 0 00-1-.636 9.248 9.248 0 00-1.363-.5 7.926 7.926 0 01-1.017-.393 3.129 3.129 0 01-.658-.436 1.39 1.39 0 01-.367-.5 1.787 1.787 0 01-.103-.624c0-.247.034-.47.103-.675.075-.205.185-.377.329-.521.15-.148.336-.265.555-.346.22-.081.481-.12.782-.12.289 0 .543.053.77.163.225.109.413.262.563.457.15.195.267.425.342.692.082.267.12.56.12.88h1.649c0-.966-.243-1.729-.726-2.286-.477-.56-1.156-.9-2.034-1.02v-1.129h-1.325zm15.074 1.243c2.017 0 3.836.808 5.152 2.124l.06.068c.019.02.029.045.047.064.302.32.564.67.803 1.038.054.167.146.317.27.44.587 1.052.948 2.251.948 3.547a7.263 7.263 0 01-7.28 7.28 7.263 7.263 0 01-6.157-11.147c.089-.096.16-.207.21-.329a7.248 7.248 0 015.947-3.085zm-.479.945v1.12a4.137 4.137 0 00-1.158.307 2.96 2.96 0 00-.884.585 2.513 2.513 0 00-.556.842 2.948 2.948 0 00-.188 1.072c0 .424.07.8.214 1.124.15.324.365.607.64.854.283.248.623.464 1.018.65.401.18.852.34 1.354.478.377.124.698.255.961.389.27.133.487.278.65.436.17.157.292.322.367.504.076.18.111.38.111.594 0 .257-.047.49-.14.7a1.472 1.472 0 01-.415.53 1.924 1.924 0 01-.658.334 3.105 3.105 0 01-1.602.02 1.692 1.692 0 01-.65-.324 1.68 1.68 0 01-.47-.637c-.119-.266-.175-.603-.175-1.008H26.55c0 .538.082.999.252 1.384.169.382.397.701.679.953.288.253.617.444.987.577.37.133.754.221 1.15.265v.919h1.307v-.92a4.94 4.94 0 001.268-.285 3.02 3.02 0 00.962-.573c.263-.238.466-.518.61-.841a2.72 2.72 0 00.219-1.107c0-.419-.072-.788-.21-1.107a2.408 2.408 0 00-.61-.841 3.92 3.92 0 00-.996-.637 9.31 9.31 0 00-1.367-.5 7.843 7.843 0 01-1.013-.393 3.164 3.164 0 01-.662-.436 1.391 1.391 0 01-.368-.5 1.787 1.787 0 01-.102-.623c0-.248.033-.47.102-.675a1.445 1.445 0 01.884-.868c.22-.08.482-.12.783-.12.288 0 .547.054.773.163.226.11.413.263.564.457.15.196.262.426.337.692.082.267.124.561.124.88h1.645c0-.966-.239-1.728-.722-2.285-.477-.561-1.155-.901-2.034-1.021v-1.128h-1.324zm22.127.226c-.064.244-.132.486-.132.765 0 .424.073.796.218 1.12.15.323.36.61.636.858a4.34 4.34 0 001.017.65c.401.18.853.34 1.354.478a7 7 0 01.962.385c.27.133.486.278.65.435.169.157.291.327.367.509.075.18.11.38.11.594 0 .256-.046.49-.14.7a1.46 1.46 0 01-.415.526 1.927 1.927 0 01-.658.337 3.101 3.101 0 01-1.598.022 1.7 1.7 0 01-.649-.33 1.682 1.682 0 01-.47-.636c-.12-.267-.18-.6-.18-1.004h-1.37a9.404 9.404 0 00-1.5-2.858 9.456 9.456 0 001.798-2.55zm-9.275 1.013a7.257 7.257 0 015.144 2.115l.042.05a7.254 7.254 0 012.098 5.12 7.265 7.265 0 01-7.284 7.28 7.26 7.26 0 01-5.7-2.769c1.504-1.497 2.464-3.503 2.696-5.725.148.293.344.554.598.782.282.247.622.463 1.017.65.402.18.853.34 1.355.478.376.123.693.255.956.388.27.134.487.279.65.436.17.157.292.323.367.504.076.181.116.38.116.594 0 .257-.047.49-.141.7a1.472 1.472 0 01-.415.53 1.924 1.924 0 01-.658.334 3.136 3.136 0 01-1.602.021 1.691 1.691 0 01-.65-.324 1.68 1.68 0 01-.47-.637c-.118-.267-.179-.604-.179-1.008h-1.653c0 .538.083.998.252 1.384.17.381.397.7.68.953.288.252.616.443.986.577.37.133.754.22 1.15.264v.919h1.307v-.919a5 5 0 001.269-.286c.376-.143.698-.334.961-.572.264-.239.467-.518.611-.842a2.73 2.73 0 00.214-1.107c0-.418-.067-.787-.205-1.106a2.408 2.408 0 00-.611-.842 3.953 3.953 0 00-1-.636 9.248 9.248 0 00-1.363-.5 7.934 7.934 0 01-1.017-.393 3.13 3.13 0 01-.658-.436 1.391 1.391 0 01-.367-.5 1.787 1.787 0 01-.103-.624c0-.247.034-.47.103-.675a1.413 1.413 0 01.884-.867c.22-.081.48-.12.782-.12.289 0 .547.053.773.163.226.109.414.262.564.457.15.195.262.425.338.692a3 3 0 01.124.88h1.645c0-.966-.244-1.729-.727-2.286-.477-.56-1.15-.9-2.03-1.02v-1.13h-1.328v1.12a4.137 4.137 0 00-1.158.307 2.98 2.98 0 00-.884.585 2.51 2.51 0 00-.521.79 9.361 9.361 0 00-.778-2.644 7.26 7.26 0 013.82-1.106zM22.11 27.33c.045.077.082.159.129.235-.055-.067-.119-.127-.175-.192l.046-.043zm-11.911.782a9.434 9.434 0 002.204 1.157 2.51 2.51 0 00-.525.795 2.948 2.948 0 00-.188 1.073c0 .423.07.8.214 1.123.15.324.364.607.64.855.283.247.622.463 1.017.65.402.18.853.34 1.355.478.376.123.697.255.961.388.27.134.486.279.65.436.169.157.291.323.367.504.075.181.11.38.11.594 0 .257-.046.49-.14.7a1.472 1.472 0 01-.415.53 1.924 1.924 0 01-.658.334 3.105 3.105 0 01-1.602.021 1.692 1.692 0 01-.65-.324 1.68 1.68 0 01-.47-.637c-.118-.267-.174-.604-.174-1.008h-1.658c0 .538.083.998.252 1.384.17.381.397.7.68.953.288.252.616.443.986.577.37.133.755.22 1.15.264v.919h1.307v-.919a4.99 4.99 0 001.269-.286c.376-.143.698-.334.961-.572.264-.238.467-.518.611-.842.145-.329.218-.697.218-1.107 0-.419-.071-.787-.21-1.106a2.408 2.408 0 00-.61-.842c-.27-.242-.6-.455-.996-.636a9.31 9.31 0 00-1.367-.5 7.843 7.843 0 01-1.012-.393 3.164 3.164 0 01-.663-.436 1.391 1.391 0 01-.367-.5 1.787 1.787 0 01-.103-.624c0-.247.034-.47.103-.675.075-.205.189-.377.333-.521.084-.083.202-.13.308-.192.518.088 1.043.162 1.585.162.172 0 .341-.02.513-.03.087.073.194.123.265.214.15.195.262.425.337.692.082.267.124.56.124.88h1.645c0-.844-.192-1.523-.56-2.055a9.433 9.433 0 002.294-.927c1.223 1.333 1.943 3.055 1.944 4.883a7.265 7.265 0 01-7.28 7.28 7.265 7.265 0 01-7.28-7.28c.003-2.109.956-4.063 2.525-5.434zm41.174.333h.017a7.266 7.266 0 017.284 7.284 7.265 7.265 0 01-7.284 7.28 7.265 7.265 0 01-7.28-7.275 7.257 7.257 0 01.213-1.64 9.371 9.371 0 003.973-1.753c-.105.302-.17.625-.17.983 0 .424.073.8.217 1.124.15.324.365.607.641.854.282.248.622.464 1.017.65.402.18.853.34 1.355.478.376.124.693.256.956.389.27.133.487.278.65.436.17.157.292.322.367.504.076.18.116.38.116.594 0 .257-.047.49-.141.7a1.472 1.472 0 01-.415.53 1.924 1.924 0 01-.658.333 3.136 3.136 0 01-1.602.022 1.691 1.691 0 01-.65-.325 1.68 1.68 0 01-.47-.636c-.118-.267-.179-.604-.179-1.009h-1.653c0 .538.083.999.252 1.384.17.382.397.701.68.953.288.253.616.444.986.577.37.133.754.221 1.15.265v.918h1.307v-.918c.47-.048.892-.144 1.269-.286.376-.143.698-.335.961-.573.264-.238.467-.518.611-.842.144-.328.214-.697.214-1.106 0-.419-.067-.788-.205-1.107a2.408 2.408 0 00-.611-.841 3.953 3.953 0 00-1-.637 9.248 9.248 0 00-1.363-.5 7.934 7.934 0 01-1.017-.393 3.13 3.13 0 01-.658-.436 1.391 1.391 0 01-.367-.5 1.787 1.787 0 01-.103-.623c0-.248.034-.47.103-.675a1.413 1.413 0 01.884-.868c.22-.08.48-.12.782-.12.289 0 .547.054.773.163.226.11.414.262.564.457.15.196.262.426.338.692a3 3 0 01.124.88h1.645c0-.966-.244-1.728-.727-2.285-.477-.561-1.15-.901-2.03-1.021v-1.128h-1.328v1.12a4.112 4.112 0 00-1 .264c.586-.71 1.1-1.478 1.462-2.337zm-28.498.004a9.47 9.47 0 004.076 2.99c-.756.54-1.715.785-2.7.53a9.41 9.41 0 00-1.376-3.52zm12.484 2.376a9.461 9.461 0 006.691 3.4 9.468 9.468 0 00-.128 1.509c0 .093.023.18.026.273a1.11 1.11 0 00-.047.115c-.005.022-.327.719-.364.787a3.26 3.26 0 01-2.896 1.734 3.25 3.25 0 01-3.282-3.281v-4.537z" fill="url(#paint0_linear_481_29759)"/></g><defs><linearGradient id="paint0_linear_481_29759" x1="5.486" y1="35" x2="64.515" y2="35" gradientUnits="userSpaceOnUse"><stop stop-color="#FF6B00"/><stop offset="1" stop-color="#FFC727"/></linearGradient><clipPath id="clip0_481_29759"><path fill="#fff" d="M0 0h70v70H0z"/></clipPath></defs></svg>