<svg width="70" height="70" fill="none" xmlns="http://www.w3.org/2000/svg"><g clip-path="url(#clip0_481_29762)"><path d="M41.14 6.598c-.285.004-.556.12-.757.32l-9.814 9.81c-2.36-3.492-6.36-5.79-10.881-5.79-7.236 0-13.125 5.89-13.125 13.126 0 3.873 1.696 7.349 4.375 9.754v23.058a4.39 4.39 0 004.374 4.375h41.563a4.39 4.39 0 004.375-4.375V28.439a4.39 4.39 0 00-4.375-4.375l-6.396-12.066a1.094 1.094 0 00-1.478-.452l-1.598.846L41.93 6.92a1.094 1.094 0 00-.79-.32v-.001zm.017 2.64l4.225 4.226-13.095 6.946a12.963 12.963 0 00-.62-1.683l9.49-9.489zm-21.47 3.888a10.921 10.921 0 0110.938 10.938A10.92 10.92 0 0119.687 35 10.92 10.92 0 018.75 24.064a10.921 10.921 0 0110.938-10.938zm29.374.863l5.34 10.075H32.812c0-.478-.03-.95-.08-1.415l16.329-8.66zm-29.993 1.324v2.026a5.28 5.28 0 00-1.491.397 3.85 3.85 0 00-1.14.756 3.247 3.247 0 00-.719 1.085 3.785 3.785 0 00-.243 1.38c0 .547.096 1.031.282 1.449.194.417.469.787.824 1.106.364.32.802.598 1.312.838.518.233 1.1.437 1.747.615.486.16.895.328 1.235.5.348.173.627.357.838.56.218.203.377.42.474.653.097.234.145.489.145.765 0 .332-.058.636-.18.906-.12.264-.299.489-.533.68-.227.183-.51.326-.85.43a4.014 4.014 0 01-1.141.15c-.308 0-.616-.04-.923-.12a2.18 2.18 0 01-.838-.424 2.175 2.175 0 01-.606-.82c-.154-.344-.231-.777-.231-1.299h-2.136c0 .694.11 1.288.329 1.786.218.491.507.9.871 1.226.372.325.8.571 1.278.744a6.29 6.29 0 001.478.341v1.769h1.688v-1.769a6.434 6.434 0 001.636-.367c.485-.184.9-.432 1.24-.74a3.21 3.21 0 00.79-1.084c.186-.424.277-.9.277-1.428 0-.54-.091-1.015-.269-1.426a3.118 3.118 0 00-.786-1.09 5.045 5.045 0 00-1.286-.82c-.51-.24-1.097-.455-1.76-.646a10.331 10.331 0 01-1.312-.504 3.96 3.96 0 01-.85-.564 1.783 1.783 0 01-.47-.64 2.294 2.294 0 01-.137-.804c0-.319.048-.611.137-.875a1.8 1.8 0 01.423-.671c.194-.19.434-.34.718-.445.283-.105.615-.153 1.004-.153.372 0 .704.068.995.21.291.142.536.338.73.59.195.252.34.549.437.893.105.344.157.725.157 1.136h2.124c0-1.246-.313-2.23-.936-2.948-.614-.724-1.486-1.167-2.619-1.32v-2.034h-1.713zm13.544 10.938h24.263a2.16 2.16 0 012.188 2.188v8.75H47.03a5.481 5.481 0 00-5.468 5.468 5.481 5.481 0 005.468 5.469h12.032v8.75a2.16 2.16 0 01-2.188 2.188H15.312a2.16 2.16 0 01-2.187-2.188V35.411a13.03 13.03 0 006.563 1.777c6.488 0 11.876-4.742 12.924-10.937zm.2 2.188v2.187H35v-2.188h-2.188zm4.376 0v2.187h2.187v-2.188h-2.188zm4.374 0v2.187h2.188v-2.188h-2.188zm4.376 0v2.187h2.187v-2.188h-2.188zm4.374 0v2.187H52.5v-2.188h-2.188zm4.376 0v2.187h2.187v-2.188h-2.188zm0 4.374v2.188h2.187v-2.188h-2.188zm-39.376 4.375v2.188H17.5v-2.188h-2.188zm31.72 2.188h12.031v6.563H47.03a3.25 3.25 0 01-3.281-3.282 3.25 3.25 0 013.281-3.281zm-31.72 2.188v2.187H17.5v-2.188h-2.188zm30.626 0v2.187h2.187v-2.188h-2.188zm-30.626 4.374v2.188H17.5v-2.188h-2.188zm0 4.375v2.188H17.5v-2.188h-2.188zm39.376 0v2.188h2.187v-2.188h-2.188zm-39.376 4.375v2.188H17.5v-2.188h-2.188zm4.376 0v2.188h2.187v-2.188h-2.188zm4.375 0v2.188h2.187v-2.188h-2.188zm4.375 0v2.188h2.187v-2.188h-2.188zm4.375 0v2.188H35v-2.188h-2.188zm4.374 0v2.188h2.188v-2.188h-2.188zm4.376 0v2.188h2.187v-2.188h-2.188zm4.374 0v2.188h2.188v-2.188h-2.188zm4.376 0v2.188H52.5v-2.188h-2.188zm4.374 0v2.188h2.188v-2.188h-2.188z" fill="url(#paint0_linear_481_29762)"/></g><defs><linearGradient id="paint0_linear_481_29762" x1="6.563" y1="33.924" x2="61.25" y2="33.924" gradientUnits="userSpaceOnUse"><stop stop-color="#FF6B00"/><stop offset="1" stop-color="#FFC727"/></linearGradient><clipPath id="clip0_481_29762"><path fill="#fff" d="M0 0h70v70H0z"/></clipPath></defs></svg>