<svg width="391" height="274" fill="none" xmlns="http://www.w3.org/2000/svg"><path d="M18 272h-8a8 8 0 01-8-8V10a8 8 0 018-8h8" stroke="#fff" stroke-width="3"/><path opacity=".8" stroke="#fff" stroke-width="2" d="M10 40v198"/><circle cx="35" cy="2" r="2" fill="#fff"/><circle cx="43" cy="2" r="2" fill="#fff"/><circle cx="51" cy="2" r="2" fill="#fff"/><circle cx="35" cy="272" r="2" fill="#fff"/><circle cx="43" cy="272" r="2" fill="#fff"/><circle cx="51" cy="272" r="2" fill="#fff"/><path d="M373 2h8a8 8 0 018 8v254a8 8 0 01-8 8h-8" stroke="#fff" stroke-width="3"/><path opacity=".8" stroke="#fff" stroke-width="2" d="M381 234V36"/><circle cx="339" cy="2" r="2" fill="#fff"/><circle cx="347" cy="2" r="2" fill="#fff"/><circle cx="355" cy="2" r="2" fill="#fff"/><circle cx="339" cy="272" r="2" fill="#fff"/><circle cx="347" cy="272" r="2" fill="#fff"/><circle cx="355" cy="272" r="2" fill="#fff"/><path d="M84.5 1H306" stroke="url(#paint0_linear_241_6)" stroke-width="2"/><path d="M84.5 272H306" stroke="url(#paint1_linear_241_6)" stroke-width="2"/><defs><linearGradient id="paint0_linear_241_6" x1="90.26" y1="1" x2="338.989" y2="1" gradientUnits="userSpaceOnUse"><stop stop-color="#fff"/><stop offset="1" stop-color="#8DA4EA" stop-opacity="0"/></linearGradient><linearGradient id="paint1_linear_241_6" x1="90.26" y1="272" x2="338.989" y2="272" gradientUnits="userSpaceOnUse"><stop stop-color="#fff"/><stop offset="1" stop-color="#8DA4EA" stop-opacity="0"/></linearGradient></defs></svg>