<svg width="388" height="498" fill="none" xmlns="http://www.w3.org/2000/svg"><circle cx="2" cy="35.988" r="2" transform="rotate(90 2 35.988)" fill="#8DA4EA"/><circle cx="2" cy="43.988" r="2" transform="rotate(90 2 43.988)" fill="#8DA4EA"/><circle cx="2" cy="51.988" r="2" transform="rotate(90 2 51.988)" fill="#8DA4EA"/><circle cx="385" cy="35.988" r="2" transform="rotate(90 385 35.988)" fill="#8DA4EA"/><circle cx="385" cy="43.988" r="2" transform="rotate(90 385 43.988)" fill="#8DA4EA"/><circle cx="385" cy="51.988" r="2" transform="rotate(90 385 51.988)" fill="#8DA4EA"/><circle cx="3" cy="446.988" r="2" transform="rotate(90 3 446.988)" fill="#8DA4EA"/><circle cx="3" cy="454.988" r="2" transform="rotate(90 3 454.988)" fill="#8DA4EA"/><circle cx="3" cy="462.988" r="2" transform="rotate(90 3 462.988)" fill="#8DA4EA"/><circle cx="385" cy="446.988" r="2" transform="rotate(90 385 446.988)" fill="#8DA4EA"/><circle cx="385" cy="454.988" r="2" transform="rotate(90 385 454.988)" fill="#8DA4EA"/><circle cx="385" cy="462.988" r="2" transform="rotate(90 385 462.988)" fill="#8DA4EA"/><path d="M2 74v349" stroke="url(#paint0_linear_68_1227)" stroke-width="2"/><path d="M386 74v349" stroke="url(#paint1_linear_68_1227)" stroke-width="2"/><path d="M3 18v-8a8 8 0 018-8h367a8 8 0 018 8v8m0 462v8a8 8 0 01-8 8H11a8 8 0 01-8-8v-8" stroke="#8DA4EA" stroke-width="3"/><path opacity=".8" stroke="#8DA4EA" stroke-width="2" d="M305 10H84m0 478h222"/><defs><linearGradient id="paint0_linear_68_1227" x1="2" y1="83.076" x2="1.999" y2="474.979" gradientUnits="userSpaceOnUse"><stop stop-color="#8DA4EA"/><stop offset="1" stop-color="#8DA4EA" stop-opacity="0"/></linearGradient><linearGradient id="paint1_linear_68_1227" x1="386" y1="83.076" x2="385.999" y2="474.979" gradientUnits="userSpaceOnUse"><stop stop-color="#8DA4EA"/><stop offset="1" stop-color="#8DA4EA" stop-opacity="0"/></linearGradient></defs></svg>