<svg width="204" height="58" fill="none" xmlns="http://www.w3.org/2000/svg"><circle cx="154" cy="2" r="2" fill="#8DA4EA"/><circle cx="162" cy="2" r="2" fill="#8DA4EA"/><circle cx="170" cy="2" r="2" fill="#8DA4EA"/><circle cx="154" cy="56" r="2" fill="#8DA4EA"/><circle cx="162" cy="56" r="2" fill="#8DA4EA"/><circle cx="170" cy="56" r="2" fill="#8DA4EA"/><circle cx="33" cy="2" r="2" fill="#8DA4EA"/><circle cx="41" cy="2" r="2" fill="#8DA4EA"/><circle cx="49" cy="2" r="2" fill="#8DA4EA"/><circle cx="33" cy="56" r="2" fill="#8DA4EA"/><circle cx="41" cy="56" r="2" fill="#8DA4EA"/><circle cx="49" cy="56" r="2" fill="#8DA4EA"/><path d="M17 57H9a8 8 0 01-8-8V10a8 8 0 018-8h8" stroke="#fff" stroke-width="2"/><path d="M63 2h77" stroke="url(#paint0_linear_202_1902)" stroke-width="2"/><path d="M63 57h77" stroke="url(#paint1_linear_202_1902)" stroke-width="2"/><path d="M187 2h8a8 8 0 018 8v39a8 8 0 01-8 8h-8" stroke="#fff" stroke-width="2"/><defs><linearGradient id="paint0_linear_202_1902" x1="65.002" y1="2" x2="132.822" y2="1.997" gradientUnits="userSpaceOnUse"><stop stop-color="#fff"/><stop offset="1" stop-color="#8DA4EA" stop-opacity="0"/></linearGradient><linearGradient id="paint1_linear_202_1902" x1="65.002" y1="57" x2="132.822" y2="56.997" gradientUnits="userSpaceOnUse"><stop stop-color="#fff"/><stop offset="1" stop-color="#8DA4EA" stop-opacity="0"/></linearGradient></defs></svg>