<svg width="284" height="435" fill="none" xmlns="http://www.w3.org/2000/svg"><circle cx="2" cy="40" r="2" transform="rotate(90 2 40)" fill="#8DA4EA"/><circle cx="2" cy="48" r="2" transform="rotate(90 2 48)" fill="#8DA4EA"/><circle cx="2" cy="56" r="2" transform="rotate(90 2 56)" fill="#8DA4EA"/><circle cx="282" cy="40" r="2" transform="rotate(90 282 40)" fill="#8DA4EA"/><circle cx="282" cy="48" r="2" transform="rotate(90 282 48)" fill="#8DA4EA"/><circle cx="282" cy="56" r="2" transform="rotate(90 282 56)" fill="#8DA4EA"/><circle cx="2" cy="378" r="2" transform="rotate(90 2 378)" fill="#8DA4EA"/><circle cx="2" cy="386" r="2" transform="rotate(90 2 386)" fill="#8DA4EA"/><circle cx="2" cy="394" r="2" transform="rotate(90 2 394)" fill="#8DA4EA"/><circle cx="282" cy="378" r="2" transform="rotate(90 282 378)" fill="#8DA4EA"/><circle cx="282" cy="386" r="2" transform="rotate(90 282 386)" fill="#8DA4EA"/><circle cx="282" cy="394" r="2" transform="rotate(90 282 394)" fill="#8DA4EA"/><path d="M1 89v256" stroke="url(#paint0_linear_241_89)" stroke-width="2"/><path d="M281 89v256" stroke="url(#paint1_linear_241_89)" stroke-width="2"/><path d="M2 17.988v-8a8 8 0 018-8h264a8 8 0 018 8v8m0 399v8a8 8 0 01-8 8H10a8 8 0 01-8-8v-8" stroke="#8DA4EA" stroke-width="3"/><path opacity=".8" stroke="#8DA4EA" stroke-width="2" d="M223 9.988H61m0 415h162"/><defs><linearGradient id="paint0_linear_241_89" x1="1" y1="95.657" x2="1" y2="383.128" gradientUnits="userSpaceOnUse"><stop stop-color="#8DA4EA"/><stop offset="1" stop-color="#8DA4EA" stop-opacity="0"/></linearGradient><linearGradient id="paint1_linear_241_89" x1="281" y1="95.657" x2="281" y2="383.128" gradientUnits="userSpaceOnUse"><stop stop-color="#8DA4EA"/><stop offset="1" stop-color="#8DA4EA" stop-opacity="0"/></linearGradient></defs></svg>