<svg width="284" height="435" fill="none" xmlns="http://www.w3.org/2000/svg"><circle cx="2" cy="39.988" r="2" transform="rotate(90 2 39.988)" fill="#fff"/><circle cx="2" cy="47.988" r="2" transform="rotate(90 2 47.988)" fill="#fff"/><circle cx="2" cy="55.988" r="2" transform="rotate(90 2 55.988)" fill="#fff"/><circle cx="282" cy="39.988" r="2" transform="rotate(90 282 39.988)" fill="#fff"/><circle cx="282" cy="47.988" r="2" transform="rotate(90 282 47.988)" fill="#fff"/><circle cx="282" cy="55.988" r="2" transform="rotate(90 282 55.988)" fill="#fff"/><circle cx="2" cy="377.988" r="2" transform="rotate(90 2 377.988)" fill="#fff"/><circle cx="2" cy="385.988" r="2" transform="rotate(90 2 385.988)" fill="#fff"/><circle cx="2" cy="393.988" r="2" transform="rotate(90 2 393.988)" fill="#fff"/><circle cx="282" cy="377.988" r="2" transform="rotate(90 282 377.988)" fill="#fff"/><circle cx="282" cy="385.988" r="2" transform="rotate(90 282 385.988)" fill="#fff"/><circle cx="282" cy="393.988" r="2" transform="rotate(90 282 393.988)" fill="#fff"/><path d="M1 88.988v256" stroke="url(#paint0_linear_213_1907)" stroke-width="2"/><path d="M281 88.988v256" stroke="url(#paint1_linear_213_1907)" stroke-width="2"/><path d="M2 17.977v-8a8 8 0 018-8h264a8 8 0 018 8v8m0 399v8a8 8 0 01-8 8H10a8 8 0 01-8-8v-8" stroke="#fff" stroke-width="3"/><path opacity=".8" stroke="#fff" stroke-width="2" d="M223 9.977H61m0 415h162"/><defs><linearGradient id="paint0_linear_213_1907" x1="1" y1="95.645" x2="1" y2="383.116" gradientUnits="userSpaceOnUse"><stop stop-color="#fff"/><stop offset="1" stop-color="#8DA4EA" stop-opacity="0"/></linearGradient><linearGradient id="paint1_linear_213_1907" x1="281" y1="95.645" x2="281" y2="383.116" gradientUnits="userSpaceOnUse"><stop stop-color="#fff"/><stop offset="1" stop-color="#8DA4EA" stop-opacity="0"/></linearGradient></defs></svg>