<svg width="805" height="424" fill="none" xmlns="http://www.w3.org/2000/svg"><path d="M17.5 422H10a8 8 0 01-8-8V10a8 8 0 018-8h7.5" stroke="#8DA4EA" stroke-width="3"/><path opacity=".8" stroke="#8DA4EA" stroke-width="2" d="M10 61v308"/><circle cx="35" cy="2" r="2" fill="#8DA4EA"/><circle cx="43" cy="2" r="2" fill="#8DA4EA"/><circle cx="51" cy="2" r="2" fill="#8DA4EA"/><circle cx="35" cy="422" r="2" fill="#8DA4EA"/><circle cx="43" cy="422" r="2" fill="#8DA4EA"/><circle cx="51" cy="422" r="2" fill="#8DA4EA"/><path d="M788 2h7.5a8 8 0 018 8v404a8 8 0 01-8 8H788" stroke="#8DA4EA" stroke-width="3"/><path opacity=".8" stroke="#8DA4EA" stroke-width="2" d="M795.5 363V55"/><circle cx="755" cy="2" r="2" fill="#8DA4EA"/><circle cx="763" cy="2" r="2" fill="#8DA4EA"/><circle cx="771" cy="2" r="2" fill="#8DA4EA"/><circle cx="755" cy="422" r="2" fill="#8DA4EA"/><circle cx="763" cy="422" r="2" fill="#8DA4EA"/><circle cx="771" cy="422" r="2" fill="#8DA4EA"/><path d="M84.5 3H719" stroke="url(#paint0_linear_49_341)" stroke-width="2"/><path d="M84.5 422H719" stroke="url(#paint1_linear_49_341)" stroke-width="2"/><defs><linearGradient id="paint0_linear_49_341" x1="101" y1="3" x2="813.5" y2="3.002" gradientUnits="userSpaceOnUse"><stop stop-color="#8DA4EA"/><stop offset="1" stop-color="#8DA4EA" stop-opacity="0"/></linearGradient><linearGradient id="paint1_linear_49_341" x1="101" y1="422" x2="813.5" y2="422.002" gradientUnits="userSpaceOnUse"><stop stop-color="#8DA4EA"/><stop offset="1" stop-color="#8DA4EA" stop-opacity="0"/></linearGradient></defs></svg>