<svg width="23" height="23" fill="none" xmlns="http://www.w3.org/2000/svg"><path d="M9.18 3.222c.793-1.428 2.847-1.428 3.64 0a2.082 2.082 0 002.393.99c1.57-.448 3.023 1.004 2.574 2.575a2.083 2.083 0 00.991 2.393c1.428.793 1.428 2.847 0 3.64a2.082 2.082 0 00-.99 2.393c.448 1.57-1.004 3.023-2.575 2.574a2.082 2.082 0 00-2.393.991c-.793 1.428-2.847 1.428-3.64 0a2.082 2.082 0 00-2.393-.99c-1.57.448-3.023-1.004-2.574-2.575a2.082 2.082 0 00-.991-2.393c-1.428-.793-1.428-2.847 0-3.64a2.082 2.082 0 00.99-2.393c-.448-1.57 1.004-3.023 2.575-2.574a2.082 2.082 0 002.393-.991z" fill="#8DA4EA"/><path d="M14.686 7.841l-4.633 5.791L7.947 11" stroke="#fff" stroke-width="1.579" stroke-linecap="round" stroke-linejoin="round"/></svg>