<svg width="40" height="40" fill="none" xmlns="http://www.w3.org/2000/svg"><circle cx="20" cy="20" r="20" fill="#fff"/><path d="M31.015 15.585c-1.379-.307-2.795.198-3.696 1.22a8.794 8.794 0 00-5.356-3.316 1.83 1.83 0 00.163-.75c0-1-.803-1.81-1.794-1.81-.99 0-1.793.81-1.793 1.81 0 .267.06.52.163.75a8.78 8.78 0 00-4.863 2.723c-.747-1.013-1.762-2.178-3.019-3.137a1.196 1.196 0 00-1.596.132l-1.9 2.023a1.197 1.197 0 00-.199 1.352c.014.028 1.392 2.831 1.392 5.535 0 2.311 1.043 4.105 2.936 5.052a6.863 6.863 0 002.199.652 8.82 8.82 0 002.693 2.12c.168.085.354.13.543.13h6.889c.189 0 .375-.045.543-.13a8.813 8.813 0 002.839-2.294c1.346-.62 2.95-2.035 4.06-3.223 1.247-1.332 2.74-3.264 2.78-4.898.045-1.918-1.181-3.539-2.984-3.94zm-10.683.142c1.925 0 3.652.856 4.825 2.207h-9.649a6.376 6.376 0 014.825-2.207zm-9.425 6.39c0-2.356-.813-4.666-1.296-5.83l.578-.616c.953.891 1.705 1.891 2.218 2.667a8.729 8.729 0 00-.856 3.78c0 .87.128 1.716.367 2.521-.678-.567-1.01-1.398-1.01-2.521zm12.57 5.564h-6.288a6.365 6.365 0 01-3.247-5.563c0-.623.091-1.224.258-1.794h12.265c.167.57.258 1.171.258 1.794a6.366 6.366 0 01-3.247 5.563zm5.997-4.89c-.144.154-.288.302-.432.445a8.748 8.748 0 00-.353-3.817c.274-.707.803-1.994 1.806-1.5.62.305 1.132.788 1.114 1.55-.013.514-.686 1.773-2.135 3.322z" fill="#8DA4EA"/></svg>