<svg width="80" height="80" fill="none" xmlns="http://www.w3.org/2000/svg"><circle cx="40" cy="40" r="40" fill="#fff"/><g clip-path="url(#clip0_211_1903)"><path d="M40.692 34.403c.885.65 1.692 1.27 2.529 1.846 1.226.845 2.59.825 3.686-.017 1.051-.805 1.45-2.125 1.042-3.526a22.204 22.204 0 00-.72-2.22c-.24-.585-.08-.906.412-1.223.621-.4 1.205-.859 1.793-1.313 1.206-.928 1.645-2.194 1.24-3.531-.423-1.409-1.463-2.2-3.031-2.262-.828-.032-1.66.04-2.483-.037a1.096 1.096 0 01-.758-.563c-.32-.77-.51-1.598-.792-2.39C43.132 17.81 42.01 17 40.687 17c-1.324 0-2.445.816-2.924 2.168-.282.79-.472 1.618-.792 2.39a1.085 1.085 0 01-.763.563c-.922.078-1.844-.001-2.765.064-1.388.098-2.358.921-2.752 2.24-.386 1.282.009 2.548 1.106 3.415.685.54 1.423 1 2.07 1.566a1.113 1.113 0 01.306.91c-.174.787-.482 1.543-.714 2.317-.44 1.468-.062 2.789 1.018 3.612 1.126.859 2.484.853 3.764-.045.807-.574 1.592-1.168 2.451-1.797zM34.794 61.67l.252-.04c-.523-3.564-.921-7.167-1.605-10.71a26.62 26.62 0 00-3.47-9.014c-.616-1.004-1.748-1.264-2.624-.688-.875.575-1.106 1.626-.51 2.625 1.893 3.207 2.975 6.714 3.502 10.373.403 2.802.553 5.645.748 8.474.105 1.456.713 2.307 1.858 2.32 1.181 0 1.854-.872 1.843-2.395-.002-.32 0-.633 0-.945h.006zm11.428.034v1.264c.024 1.2.772 2.027 1.832 2.033 1.06.006 1.804-.805 1.854-2.016.055-1.34.072-2.686.184-4.02.41-5.334 1.41-10.503 4.133-15.191.553-.95.3-1.992-.538-2.553-.839-.56-1.958-.33-2.58.597-.374.57-.708 1.167-1 1.785-2.763 5.694-3.644 11.802-3.887 18.101h.002zM18.89 36.605c.014.949.737 1.341 1.447.89.676-.427 1.312-.922 1.95-1.41.486-.374.94-.374 1.422 0 .587.453 1.158.938 1.803 1.29.345.188.931.245 1.228.06.236-.145.322-.772.254-1.143-.129-.692-.41-1.36-.641-2.039-.21-.64-.078-1.145.501-1.54a10.528 10.528 0 001.685-1.293c.27-.282.52-.861.41-1.172-.108-.312-.654-.591-1.044-.657a7.887 7.887 0 00-1.928-.026c-.804.062-1.276-.24-1.475-1.054a10.194 10.194 0 00-.628-1.947c-.148-.313-.568-.709-.837-.69-.332.025-.763.375-.922.707-.286.655-.51 1.337-.67 2.035-.185.671-.563.985-1.263.95a11.852 11.852 0 00-2.212.025c-.35.05-.844.358-.946.662-.101.304.107.855.36 1.125a8.96 8.96 0 001.614 1.233c.717.453.878 1.03.58 1.83-.285.75-.491 1.536-.688 2.164zm35.02-.024c0 .832.535 1.26 1.171 1.048.226-.094.438-.22.629-.375 2.786-1.965 1.826-1.948 4.633.026.024.017.046.053.072.056.448.062 1.047.32 1.305.12.258-.198.282-.864.242-1.312-.046-.484-.286-.95-.437-1.424-.433-1.363-.41-1.436.693-2.263.42-.315.905-.572 1.239-.962.285-.334.619-.893.517-1.221-.1-.328-.694-.619-1.105-.687-.688-.11-1.407-.045-2.113-.026-.604.015-.977-.229-1.148-.842a11.709 11.709 0 00-.68-2.03c-.185-.36-.618-.813-.922-.805-.304.007-.737.474-.907.838-.308.637-.389 1.391-.72 2.012a1.689 1.689 0 01-1.046.786c-.748.124-1.54-.041-2.293.071-.377.056-.875.386-1.004.72-.105.276.162.826.424 1.094.466.452.984.848 1.54 1.177.762.482.904 1.086.582 1.913-.29.724-.48 1.482-.666 2.086h-.006zM38.84 54.959v7.77c0 1.42.737 2.29 1.881 2.265 1.106-.024 1.803-.872 1.805-2.25V47.388c0-1.417-.737-2.288-1.882-2.263-1.106.024-1.8.87-1.804 2.25.001 2.534.005 5.07.005 7.59l-.005-.006zM28.52 20.94c0-.37-.108-.73-.309-1.038a1.851 1.851 0 00-.82-.691 1.814 1.814 0 00-2.004.389c-.26.258-.438.589-.514.95-.075.361-.044.737.09 1.08.133.343.363.639.661.85a1.822 1.822 0 002.342-.2 1.879 1.879 0 00.553-1.34zm23.972.03c.006.368.119.727.324 1.031.206.305.495.54.831.678a1.814 1.814 0 001.997-.42c.256-.262.43-.595.5-.957s.033-.737-.105-1.078a1.87 1.87 0 00-.673-.84 1.82 1.82 0 00-2.338.233 1.879 1.879 0 00-.536 1.347v.005zM40.71 42.316a1.82 1.82 0 001.018-.32c.3-.207.535-.5.673-.841a1.905 1.905 0 00-.398-2.037 1.814 1.814 0 00-2-.415 1.85 1.85 0 00-.829.681 1.899 1.899 0 00.216 2.38 1.815 1.815 0 001.32.553z" fill="#fff"/><path d="M40.692 34.403c-.859.629-1.644 1.223-2.451 1.788-1.28.898-2.638.903-3.764.045-1.073-.824-1.458-2.144-1.018-3.612.233-.775.54-1.53.714-2.318a1.125 1.125 0 00-.306-.9c-.647-.567-1.384-1.026-2.066-1.564-1.093-.867-1.488-2.133-1.106-3.415.394-1.313 1.364-2.142 2.752-2.24.921-.064 1.843.013 2.764-.065a1.108 1.108 0 00.763-.563c.321-.77.511-1.6.793-2.39.475-1.353 1.596-2.169 2.92-2.169 1.323 0 2.446.81 2.928 2.16.282.792.472 1.619.793 2.39a1.118 1.118 0 00.758.562c.822.077 1.659 0 2.482.038 1.569.062 2.609.853 3.032 2.261.404 1.338-.035 2.604-1.24 3.532-.588.452-1.172.911-1.793 1.313-.492.317-.653.637-.413 1.222.277.727.517 1.468.717 2.22.407 1.402.009 2.722-1.042 3.526-1.106.842-2.462.863-3.686.017-.839-.568-1.646-1.189-2.53-1.838zm.146-11.84c-.644.982-1.066 2.152-1.888 2.73-.822.578-2.07.587-3.245.872 2.549 1.283 3.015 3.26 1.874 5.859 2.092-2.05 4.12-2.013 5.977-.132-.058-1.146-.41-2.366-.09-3.364.32-.998 1.314-1.733 2.092-2.678-2.652.452-4.287-.664-4.72-3.288zm-6.05 39.107v.937c.012 1.523-.661 2.398-1.843 2.395-1.144 0-1.758-.855-1.86-2.309-.197-2.83-.344-5.673-.748-8.475-.525-3.658-1.607-7.165-3.502-10.372-.594-1.002-.369-2.063.51-2.626.88-.562 2.004-.319 2.627.685a26.623 26.623 0 013.463 9.015c.675 3.542 1.082 7.137 1.606 10.708l-.252.041zm11.432.033c.244-6.3 1.125-12.407 3.882-18.1.292-.617.626-1.214 1-1.785.619-.926 1.73-1.158 2.58-.596.85.563 1.091 1.604.538 2.553-2.722 4.688-3.723 9.855-4.132 15.19-.104 1.335-.12 2.68-.185 4.02-.05 1.212-.794 2.022-1.854 2.017-1.06-.006-1.808-.833-1.832-2.033-.004-.439.004-.876.004-1.266zM18.89 36.605c.198-.628.404-1.414.69-2.164.299-.797.138-1.373-.579-1.836a8.961 8.961 0 01-1.614-1.232c-.253-.26-.461-.81-.36-1.126.102-.314.595-.61.953-.662a11.853 11.853 0 012.212-.024c.7.034 1.08-.28 1.263-.95.16-.699.384-1.38.67-2.035.159-.329.59-.683.922-.707.27-.02.69.375.837.69.275.626.487 1.28.632 1.95.196.814.667 1.116 1.475 1.054a7.892 7.892 0 011.928.02c.39.066.936.342 1.045.657.109.315-.14.89-.411 1.172-.518.488-1.082.922-1.685 1.294-.579.394-.711.9-.501 1.54.223.68.512 1.348.641 2.046.068.375-.018.997-.254 1.144-.297.187-.883.122-1.228-.06-.645-.343-1.216-.838-1.802-1.29-.483-.375-.937-.375-1.423 0-.638.487-1.274.982-1.95 1.41-.725.45-1.446.058-1.46-.891zm35.028-.025c.184-.603.368-1.36.658-2.083.322-.827.184-1.43-.58-1.913a8.234 8.234 0 01-1.542-1.177c-.261-.268-.529-.818-.424-1.094.13-.333.627-.663 1.005-.72.752-.112 1.544.053 2.293-.071a1.691 1.691 0 001.045-.785c.332-.622.413-1.375.72-2.013.185-.364.59-.83.907-.838.318-.008.752.446.922.804.288.654.516 1.334.68 2.031.172.613.553.857 1.149.842.705-.019 1.424-.084 2.112.026.416.068 1.012.362 1.106.687.094.324-.233.887-.518 1.22-.334.39-.819.648-1.239.963-1.106.827-1.126.9-.693 2.263.151.475.39.938.437 1.424.04.444.022 1.106-.242 1.313-.263.206-.857-.059-1.304-.12-.026 0-.048-.04-.072-.057-2.808-1.975-1.844-1.991-4.634-.026a2.55 2.55 0 01-.629.375c-.623.21-1.161-.218-1.157-1.05zM38.845 54.965V47.38c0-1.379.692-2.224 1.805-2.25 1.148-.025 1.88.845 1.882 2.263v15.355c0 1.377-.691 2.225-1.805 2.25-1.148.025-1.878-.845-1.882-2.265-.003-2.59 0-5.18 0-7.77zM28.52 20.938c0 .373-.11.738-.315 1.047a1.85 1.85 0 01-.835.69 1.814 1.814 0 01-2.015-.43 1.905 1.905 0 01-.367-2.06 1.86 1.86 0 01.7-.83 1.82 1.82 0 012.31.275c.334.35.522.82.521 1.308zm23.972.025a1.9 1.9 0 01.301-1.051c.2-.313.488-.557.826-.702a1.815 1.815 0 012.02.402 1.905 1.905 0 01.395 2.055 1.868 1.868 0 01-.69.84 1.82 1.82 0 01-2.312-.243 1.891 1.891 0 01-.54-1.301zM40.709 42.318a1.82 1.82 0 01-1.034-.307 1.868 1.868 0 01-.69-.842 1.906 1.906 0 01.4-2.056 1.814 1.814 0 012.023-.396c.337.147.624.392.824.705a1.9 1.9 0 01-.247 2.35 1.83 1.83 0 01-1.276.546z" fill="#8DA4EA"/></g><defs><clipPath id="clip0_211_1903"><path fill="#fff" transform="translate(17 17)" d="M0 0h47v48H0z"/></clipPath></defs></svg>