<svg width="65" height="64" fill="none" xmlns="http://www.w3.org/2000/svg"><path d="M51.667 0H13.333C5.97 0 0 5.878 0 13.128v37.744C0 58.122 5.97 64 13.333 64h38.334C59.03 64 65 58.122 65 50.872V13.128C65 5.878 59.03 0 51.667 0z" fill="#F54933"/><path d="M22.587 41.413a2.005 2.005 0 002.835 0l7.09-7.09 7.09 7.09a2.005 2.005 0 002.835-2.835l-7.09-7.09 7.09-7.09a2.005 2.005 0 00-2.835-2.835l-7.09 7.09-7.09-7.09a2.005 2.005 0 00-2.835 2.835l7.09 7.09-7.09 7.09a2.005 2.005 0 000 2.835z" fill="#fff"/></svg>