<svg width="65" height="64" fill="none" xmlns="http://www.w3.org/2000/svg"><path d="M53.393 0H11.607C5.197 0 0 5.117 0 11.429V52.57C0 58.883 5.197 64 11.607 64h41.786C59.803 64 65 58.883 65 52.571V11.43C65 5.117 59.803 0 53.393 0z" fill="#fff"/><path d="M37.023 13.055c-.25.286-.622 1.429-.912 2.53-.83 3.307-1.907 4.859-7.132 10.33-2.114 2.204-2.86 2.612-2.86 1.55 0-.53-1.078-.612-7.256-.612-3.98 0-7.256.122-7.256.286 0 .204.747 5.633 1.659 12.165.912 6.49 1.658 11.88 1.658 11.92 0 .082 2.53.123 5.598.123 4.684 0 5.597-.082 5.597-.613 0-.98 1.244-.694 2.777.613l1.41 1.224h9.412c10.323 0 10.696-.081 11.692-2.408.373-.94.373-1.551 0-2.654-.415-1.306-.374-1.592.373-2.53.953-1.225 1.16-3.43.373-4.654-.415-.654-.373-.94.373-1.715 1.285-1.429 1.451-2.817.539-4.613-.788-1.551-.788-1.592 0-2.857 1.078-1.674-.54-4.001-.54-4.001-.787-.857-.704-1.102-5.928-1.102-6.51 0-6.468.04-5.431-3.92.373-1.387.705-3.47.705-4.571 0-1.797-.208-2.287-1.41-3.511-1.41-1.51-2.736-1.878-3.441-.98z" fill="#424141"/><path d="M21.36 47.429c1.283 0 2.322-1.024 2.322-2.286 0-1.263-1.04-2.286-2.321-2.286-1.282 0-2.322 1.023-2.322 2.286 0 1.262 1.04 2.286 2.322 2.286z" fill="#D8D8DA"/></svg>