<svg viewBox="0 0 31 31" xmlns="http://www.w3.org/2000/svg" xmlns:xlink="http://www.w3.org/1999/xlink"><style>:root&gt;svg{display:none}:root&gt;svg:target{display:block}</style><svg fill="none" viewBox="0 0 31 30" id="full" xmlns="http://www.w3.org/2000/svg"><path d="M7.658 20.579a1.25 1.25 0 011.767 1.766l-5.158 5.156h3.648a1.25 1.25 0 011.238 1.08l.012.17A1.25 1.25 0 017.915 30H1.25A1.25 1.25 0 010 28.75v-6.665a1.25 1.25 0 112.5 0v3.65l5.158-5.156zM22.087 30a1.25 1.25 0 110-2.5h3.642l-5.15-5.155a1.25 1.25 0 01-.122-1.626l.122-.14a1.25 1.25 0 011.766 0l5.157 5.159v-3.653a1.25 1.25 0 011.08-1.238l.17-.012a1.25 1.25 0 011.25 1.25v6.665a1.25 1.25 0 01-1.25 1.25h-6.665zM7.915 0a1.25 1.25 0 110 2.5H4.27l5.154 5.157a1.25 1.25 0 01.12 1.626l-.122.142a1.25 1.25 0 01-1.766 0L2.499 4.26v3.654a1.25 1.25 0 01-1.08 1.238l-.17.012A1.25 1.25 0 010 7.915V1.25A1.25 1.25 0 011.25 0h6.665zm20.837 0a1.25 1.25 0 011.25 1.25v6.665a1.25 1.25 0 01-2.5 0V4.264l-5.157 5.159a1.25 1.25 0 01-1.626.122l-.14-.122a1.25 1.25 0 010-1.766l5.152-5.158h-3.644a1.25 1.25 0 01-1.238-1.08l-.012-.17A1.25 1.25 0 0122.087 0h6.665z" fill="#424141"/></svg><svg fill="none" viewBox="0 0 30 31" id="profile" xmlns="http://www.w3.org/2000/svg"><path d="M19.3 11.822c-1.257.654-2.754 1.011-4.3 1.011-2.078 0-4.036-.644-5.447-1.742-1.406-1.093-2.124-2.514-2.124-3.924 0-1.056.4-2.119 1.203-3.052.805-.938 1.979-1.7 3.395-2.156a9.865 9.865 0 014.492-.343c1.513.234 2.878.809 3.928 1.626 1.049.816 1.723 1.823 1.99 2.872.268 1.043.135 2.128-.4 3.134-.54 1.014-1.478 1.92-2.736 2.575zm9.458 17.4c-.206.16-.528.278-.9.278H2.142c-.373 0-.695-.117-.901-.277-.2-.156-.242-.306-.242-.39 0-2.736 1.396-5.429 4.007-7.46 2.617-2.035 6.21-3.206 9.993-3.206 3.783 0 7.375 1.17 9.993 3.206 2.61 2.031 4.007 4.724 4.007 7.46 0 .084-.041.234-.242.39z" stroke="#544A49" stroke-width="2"/></svg><svg fill="none" viewBox="0 0 31 31" id="quest" xmlns="http://www.w3.org/2000/svg"><path d="M15.5.188C7.044.188.187 7.043.187 15.5S7.045 30.813 15.5 30.813 30.813 23.956 30.813 15.5 23.956.187 15.5.187zm0 24.199a1.367 1.367 0 110-2.734 1.367 1.367 0 010 2.734zm2.15-7.503a1.65 1.65 0 00-1.056 1.532v.775c0 .15-.123.274-.274.274h-1.64a.274.274 0 01-.274-.274v-.735c0-.789.23-1.568.68-2.218a3.82 3.82 0 011.781-1.398c1.162-.447 1.914-1.421 1.914-2.485 0-1.507-1.473-2.734-3.281-2.734s-3.281 1.227-3.281 2.734v.26c0 .15-.123.274-.274.274h-1.64a.274.274 0 01-.274-.274v-.26c0-1.343.588-2.597 1.654-3.53 1.026-.9 2.38-1.391 3.815-1.391 1.436 0 2.79.495 3.814 1.39 1.067.934 1.655 2.188 1.655 3.531 0 1.976-1.303 3.753-3.32 4.53z" fill="#424141"/></svg></svg>