<svg width="137" height="40" fill="none" xmlns="http://www.w3.org/2000/svg"><path d="M39.994 19.683A20.023 20.023 0 0020.007 0 20.02 20.02 0 000 19.997a19.929 19.929 0 005.668 13.926c-.513.728-1.718 1.8-4.142 1.09a1.09 1.09 0 00-1.168 1.713c1.229 1.593 4.296 3.052 7.936 3.052a13.735 13.735 0 004.986-.944 19.998 19.998 0 0026.696-17.896c.019-.208.026-.416.022-.625.004-.22-.009-.416-.004-.63zm-2.348-2.125a35.805 35.805 0 00-2.847-2.128c-4.063-2.757-7.93-4.263-11.174-4.063-1.691.133-2.975 1.273-3.555 1.868-.77-.789-2.038-1.589-4.026-1.589a4.926 4.926 0 00-2.379.576c1.5-6.337 5.428-9.17 6.873-10.025a17.843 17.843 0 0117.108 15.36zm-17.783 20.01a1.024 1.024 0 00-.183.244 17.843 17.843 0 01-17.321-15.31c2.969 2.247 9.007 5.867 17.077 5.867h.259a2.23 2.23 0 001.28-.469c.52-.368 3.542-2.56 5.774-5.272-1.308 9.381-6.806 14.863-6.886 14.94zm-.809-22.037v.013c.023.06.053.117.087.172v.013a1.09 1.09 0 001.799.043c.026-.04.05-.082.072-.126a.646.646 0 00.052-.107c.159-.33.381-.627.654-.872a3.37 3.37 0 012.36-.83c1.09 0 2.937.734 2.937 3.487 0 2.531-4.129 6.465-6.96 8.554-2.834-2.089-6.96-6.023-6.96-8.554 0-2.753 1.843-3.487 2.934-3.487.864-.037 1.71.26 2.36.83.276.242.502.535.665.864zM16.613 2.51c-2.444 2.376-5.308 6.598-5.683 13.525v1.277c0 3.142 3.413 6.627 5.866 8.72C8.97 25.17 3.54 20.74 2.19 19.53A17.84 17.84 0 0116.613 2.511zM4.998 37.091a5.308 5.308 0 002.252-1.695c.927.77 1.922 1.454 2.971 2.045a11.076 11.076 0 01-5.223-.35zm17.727.52a30.547 30.547 0 006.485-18.996v-1.308a6.563 6.563 0 00-.613-2.79c4.17 1.672 7.874 4.837 9.206 6.055a17.844 17.844 0 01-15.078 17.039z" fill="#F8F7F9"/><path d="M53.328 24.5V13.297h4.656c1.1 0 2.078.221 2.938.664a4.878 4.878 0 012.039 1.953c.5.854.75 1.849.75 2.984 0 1.136-.25 2.133-.75 2.993a4.89 4.89 0 01-2.04 1.945c-.858.443-1.838.664-2.937.664h-4.656zm2.227-2h2.43c1.046 0 1.89-.318 2.53-.953.646-.636.97-1.518.97-2.649 0-1.13-.324-2.013-.97-2.648-.64-.635-1.484-.953-2.53-.953h-2.43V22.5zm17.968 1.79a6.147 6.147 0 01-2.289.42c-.817 0-1.583-.14-2.296-.42a5.543 5.543 0 01-1.836-1.173 5.326 5.326 0 01-1.22-1.844 6.335 6.335 0 01-.437-2.375c0-1.14.253-2.153.758-3.039a5.25 5.25 0 012.07-2.046c.88-.48 1.868-.72 2.961-.72 1.094 0 2.079.24 2.954.72a5.236 5.236 0 012.078 2.046c.505.886.757 1.899.757 3.04a6.23 6.23 0 01-.445 2.374 5.237 5.237 0 01-1.21 1.844 5.54 5.54 0 01-1.845 1.172zm-2.289-1.61c1.037 0 1.891-.35 2.563-1.047.672-.698 1.008-1.61 1.008-2.735 0-1.125-.336-2.033-1.008-2.726-.672-.698-1.526-1.047-2.563-1.047-1.041 0-1.9.349-2.578 1.047-.672.693-1.008 1.601-1.008 2.726s.336 2.037 1.008 2.735c.677.698 1.537 1.047 2.578 1.047zm18.305-9.383V24.5h-2.766l-5.28-7.922h-.063V24.5h-2.227V13.297h2.75l5.297 7.922h.063v-7.922h2.226zM103.016 24.5h-2.368l-.992-2.383h-5.195l-.992 2.383h-2.367l4.671-11.203h2.57l4.673 11.203zm-7.758-4.367h3.601l-1.773-4.227h-.07l-1.758 4.227zm11.5 4.367v-9.172h-4.305v-2.031h10.828v2.031h-4.304V24.5h-2.219zm10.687-4.797V22.5h6.922v2h-9.148V13.297h9.148v2h-6.922v2.469h6.219v1.937h-6.219zm14.055 5.008c-.62 0-1.188-.04-1.703-.117a6.76 6.76 0 01-1.485-.383 4.164 4.164 0 01-1.203-.719 3.488 3.488 0 01-.828-1.11 4.468 4.468 0 01-.406-1.562h2.297c.073.375.206.693.398.953.198.26.448.464.75.61.302.146.628.25.977.312.354.063.755.094 1.203.094 1.729 0 2.594-.463 2.594-1.39a1.06 1.06 0 00-.219-.672 1.373 1.373 0 00-.594-.43 6.276 6.276 0 00-.875-.266 8.063 8.063 0 00-1.062-.172 20.824 20.824 0 01-1.164-.164 50.698 50.698 0 01-1.157-.226 4.591 4.591 0 01-1.062-.375 3.956 3.956 0 01-.875-.586 2.317 2.317 0 01-.594-.883 3.341 3.341 0 01-.219-1.25c0-.458.073-.87.219-1.234.146-.365.347-.662.602-.891a3.98 3.98 0 011.859-.945 9.986 9.986 0 011.031-.164c.313-.032.638-.047.977-.047a8.94 8.94 0 011.555.125c.479.078.924.206 1.336.383.411.177.768.403 1.07.68.302.27.549.606.742 1.007.193.396.315.846.367 1.352h-2.32c-.083-.547-.375-.953-.875-1.22-.495-.27-1.12-.405-1.875-.405a5.16 5.16 0 00-.922.078 3.31 3.31 0 00-.781.226c-.235.1-.422.24-.563.422a1.014 1.014 0 00-.203.633c0 .27.089.497.266.68.182.177.424.315.726.414.302.099.649.182 1.039.25.391.062.803.125 1.235.187.432.063.864.136 1.297.219.432.083.843.206 1.234.367.391.162.737.36 1.039.594.302.234.542.55.719.945.182.39.273.847.273 1.367 0 2.209-1.606 3.313-4.82 3.313z" fill="#fff"/></svg>