<svg width="163" height="40" fill="none" xmlns="http://www.w3.org/2000/svg"><path d="M39.994 19.683A20.023 20.023 0 0020.007 0 20.02 20.02 0 000 19.997a19.929 19.929 0 005.668 13.926c-.513.728-1.718 1.8-4.142 1.09a1.09 1.09 0 00-1.168 1.713c1.229 1.593 4.296 3.051 7.936 3.051a13.733 13.733 0 004.986-.943 19.996 19.996 0 0026.696-17.896c.019-.208.026-.417.022-.625.004-.22-.009-.417-.004-.63zm-2.348-2.126a35.78 35.78 0 00-2.847-2.127c-4.063-2.757-7.93-4.264-11.174-4.063-1.691.133-2.975 1.273-3.555 1.868-.77-.79-2.038-1.589-4.026-1.589a4.927 4.927 0 00-2.379.575c1.5-6.336 5.428-9.17 6.873-10.024a17.843 17.843 0 0117.108 15.36zm-17.783 20.01a1.023 1.023 0 00-.183.244 17.842 17.842 0 01-17.321-15.31c2.969 2.247 9.007 5.868 17.077 5.868h.259a2.23 2.23 0 001.28-.469c.52-.368 3.542-2.561 5.774-5.273-1.308 9.382-6.806 14.864-6.886 14.94zm-.809-22.037v.013c.023.06.053.118.087.173v.013a1.09 1.09 0 001.799.043c.026-.04.05-.083.072-.126a.66.66 0 00.052-.107c.159-.33.381-.627.654-.872a3.37 3.37 0 012.36-.83c1.09 0 2.937.734 2.937 3.487 0 2.53-4.129 6.465-6.96 8.553-2.834-2.088-6.96-6.022-6.96-8.553 0-2.753 1.843-3.487 2.934-3.487.864-.037 1.71.26 2.36.83.276.242.502.535.665.863zM16.613 2.51c-2.444 2.377-5.308 6.599-5.683 13.526v1.277c0 3.141 3.413 6.627 5.866 8.72C8.97 25.17 3.54 20.74 2.19 19.53A17.84 17.84 0 0116.613 2.51zM4.998 37.09a5.308 5.308 0 002.252-1.694c.927.77 1.922 1.454 2.971 2.045a11.076 11.076 0 01-5.223-.351zm17.727.52a30.547 30.547 0 006.485-18.995v-1.308a6.562 6.562 0 00-.613-2.79c4.17 1.672 7.874 4.837 9.206 6.055A17.845 17.845 0 0122.725 37.61z" fill="#F8F7F9"/><path d="M58.547 24.71c-.818 0-1.578-.14-2.281-.42a5.303 5.303 0 01-1.805-1.173c-.5-.505-.89-1.12-1.172-1.844a6.503 6.503 0 01-.422-2.375c0-1.145.242-2.158.727-3.039a5.084 5.084 0 012.015-2.046c.865-.48 1.844-.72 2.938-.72 1.427 0 2.633.394 3.617 1.18.984.782 1.622 1.844 1.914 3.188h-2.336c-.25-.734-.648-1.307-1.195-1.719-.542-.411-1.208-.617-2-.617-1.042 0-1.883.346-2.524 1.04-.635.687-.953 1.598-.953 2.733 0 1.136.318 2.05.953 2.743.641.692 1.482 1.039 2.524 1.039.792 0 1.458-.206 2-.617.547-.412.945-.985 1.195-1.72h2.336c-.292 1.345-.93 2.41-1.914 3.196-.984.781-2.19 1.172-3.617 1.172zm9.687-.21c-.864 0-1.49-.19-1.875-.57-.38-.386-.57-1.01-.57-1.875v-8.758h2.078v8.578c0 .245.05.42.149.523.104.1.278.149.523.149h.898V24.5h-1.203zm4.914-9.445c-.24.198-.546.297-.921.297s-.683-.1-.922-.297a.995.995 0 01-.36-.797c0-.333.12-.6.36-.797.24-.203.547-.305.922-.305s.682.102.921.305c.24.198.36.463.36.797 0 .328-.12.594-.36.797zm-1.96 9.445v-8.078h2.093V24.5h-2.094zm8.171.21c-1.244 0-2.255-.384-3.03-1.155-.772-.771-1.157-1.8-1.157-3.086 0-1.292.385-2.323 1.156-3.094.776-.776 1.787-1.164 3.031-1.164 1.026 0 1.917.279 2.672.836.76.552 1.248 1.367 1.461 2.445h-2.164c-.177-.458-.437-.802-.781-1.031a2.068 2.068 0 00-1.188-.344c-.635 0-1.143.211-1.523.633-.38.422-.57.995-.57 1.719 0 .713.19 1.281.57 1.703.38.422.888.633 1.523.633.454 0 .85-.115 1.188-.344.344-.23.604-.573.781-1.031h2.164c-.213 1.078-.7 1.896-1.46 2.453-.756.552-1.647.828-2.673.828zm5.68-.21V13.297h2.094v6.117h1.047l2.523-2.992h2.516l-3.313 3.922 3.438 4.156h-2.578l-2.641-3.219h-.992V24.5h-2.094zm15.039.21c-.818 0-1.578-.14-2.281-.42a5.303 5.303 0 01-1.805-1.173c-.5-.505-.89-1.12-1.172-1.844a6.505 6.505 0 01-.422-2.375c0-1.145.243-2.158.727-3.039a5.085 5.085 0 012.016-2.046c.864-.48 1.843-.72 2.937-.72 1.427 0 2.633.394 3.617 1.18.985.782 1.623 1.844 1.914 3.188h-2.336c-.25-.734-.648-1.307-1.195-1.719-.542-.411-1.208-.617-2-.617-1.041 0-1.883.346-2.523 1.04-.636.687-.953 1.598-.953 2.733 0 1.136.317 2.05.953 2.743.64.692 1.481 1.039 2.523 1.039.792 0 1.458-.206 2-.617.547-.412.945-.985 1.195-1.72h2.336c-.291 1.345-.929 2.41-1.914 3.196-.984.781-2.19 1.172-3.617 1.172zm11.117 0c-1.239 0-2.263-.387-3.07-1.163-.802-.781-1.203-1.807-1.203-3.078 0-1.276.401-2.305 1.203-3.086.807-.781 1.831-1.172 3.07-1.172.818 0 1.55.174 2.196.523a3.755 3.755 0 011.523 1.493c.375.645.563 1.393.563 2.242 0 1.27-.404 2.297-1.211 3.078-.802.776-1.826 1.164-3.071 1.164zm0-1.905c.636 0 1.159-.211 1.571-.633.411-.427.617-.995.617-1.703 0-.714-.206-1.284-.617-1.711-.412-.427-.935-.64-1.571-.64-.63 0-1.151.213-1.562.64-.412.427-.617.997-.617 1.71 0 .704.205 1.269.617 1.696.411.427.932.64 1.562.64zm5.938 1.695v-8.078h2.094v.976h.07c.713-.791 1.588-1.187 2.625-1.187.432 0 .836.073 1.211.219.375.14.706.349.992.625.292.276.518.635.68 1.078.166.437.25.937.25 1.5V24.5h-2.078v-4.516c0-.27-.037-.513-.11-.726a1.436 1.436 0 00-.679-.875 1.635 1.635 0 00-.477-.195 2.122 2.122 0 00-.484-.055c-.563 0-1.037.198-1.422.594-.386.395-.578.966-.578 1.71V24.5h-2.094zm13.594 0c-1.74 0-2.61-.875-2.61-2.625V18.32h-1.851v-1.898h1.851v-2.547h2.078v2.547h3.938v1.898h-3.938v3.414c0 .313.063.532.188.657.13.125.357.187.679.187h3.071V24.5h-3.406zm8.757.21a4.434 4.434 0 01-2.132-.515 3.88 3.88 0 01-1.516-1.5c-.37-.65-.555-1.393-.555-2.226 0-.834.188-1.576.563-2.227a3.87 3.87 0 011.515-1.508 4.37 4.37 0 012.125-.523c.782 0 1.482.17 2.102.508a3.64 3.64 0 011.469 1.46c.364.641.547 1.378.547 2.212l-.032.765h-6.164c.099.568.334 1.021.703 1.36.375.333.834.5 1.375.5a2.13 2.13 0 001.032-.25c.312-.167.557-.399.734-.696h2.172a4.007 4.007 0 01-1.461 1.899c-.688.494-1.513.742-2.477.742zm-2.046-5.124h4.031c-.12-.505-.349-.912-.688-1.219-.333-.307-.765-.46-1.297-.46-.51 0-.95.15-1.32.452-.365.297-.607.706-.726 1.227zm7.804 4.914v-8.078h2.094v.976h.07c.714-.791 1.589-1.187 2.625-1.187.433 0 .836.073 1.211.219.375.14.706.349.992.625.292.276.519.635.68 1.078.167.437.25.937.25 1.5V24.5h-2.078v-4.516c0-.27-.037-.513-.109-.726a1.498 1.498 0 00-.274-.531 1.423 1.423 0 00-.406-.344 1.614 1.614 0 00-.477-.195 2.115 2.115 0 00-.484-.055c-.563 0-1.037.198-1.422.594-.385.395-.578.966-.578 1.71V24.5h-2.094zm13.594 0c-1.74 0-2.609-.875-2.609-2.625V18.32h-1.852v-1.898h1.852v-2.547h2.078v2.547h3.937v1.898h-3.937v3.414c0 .313.062.532.187.657.13.125.357.187.68.187h3.07V24.5h-3.406z" fill="#fff"/></svg>