<svg width="200" height="34" fill="none" xmlns="http://www.w3.org/2000/svg"><path d="M38.66 21.34c-.478-.318-.815-3.227-.612-7.063 5.187-.43 12.614-.244 21.95 2.427L60 17c0 2.632-.598 5.124-1.666 7.348-6.16-2.543-12.72-2.666-16.521-2.737-1.685-.032-2.827-.053-3.153-.27z" fill="#CD0000"/><path d="M55.989 27.969A16.963 16.963 0 0143 34c-9.389 0-17-7.611-17-17 0-6.809 4.003-12.683 9.784-15.397-1.045 3.67-1.66 7.004-1.968 9.949a34.662 34.662 0 00-4.922 1.47c-1.447.542-.894 2.978 1.085 2.531.28-.04.679-.123 1.194-.231.633-.133 1.44-.302 2.415-.472-.228 7.098 1.429 11.193 2.54 11.193.197 0 .533-.013.984-.03 3.189-.124 12.142-.47 18.877 1.956z" fill="#CD0000"/><path d="M41.41.073c-1.652 3.226-2.585 7.144-3.047 10.735 5.061-.556 12.032-.485 20.99 1.53C57.327 5.217 50.773 0 43 0c-.536 0-1.067.025-1.59.073z" fill="#CD0000"/><path d="M73.472 11.868h-5.376V8.7h14.64v3.168H77.36V25.5h-3.888V11.868zm19.258 13.92c-1.744 0-3.32-.376-4.728-1.128-1.392-.752-2.488-1.784-3.288-3.096-.784-1.328-1.176-2.816-1.176-4.464 0-1.648.392-3.128 1.176-4.44a8.452 8.452 0 013.288-3.12c1.408-.752 2.984-1.128 4.728-1.128 1.744 0 3.312.376 4.704 1.128a8.456 8.456 0 013.288 3.12c.8 1.312 1.2 2.792 1.2 4.44 0 1.648-.4 3.136-1.2 4.464-.8 1.312-1.896 2.344-3.288 3.096-1.392.752-2.96 1.128-4.704 1.128zm0-3.312c.992 0 1.888-.224 2.688-.672a4.909 4.909 0 001.872-1.92c.464-.816.696-1.744.696-2.784 0-1.04-.232-1.968-.696-2.784a4.744 4.744 0 00-1.872-1.896c-.8-.464-1.696-.696-2.688-.696-.992 0-1.888.232-2.688.696a4.907 4.907 0 00-1.896 1.896c-.448.816-.672 1.744-.672 2.784 0 1.04.224 1.968.672 2.784a5.08 5.08 0 001.896 1.92c.8.448 1.696.672 2.688.672zm17.634 3.312c-1.328 0-2.616-.176-3.864-.528-1.232-.368-2.224-.84-2.976-1.416l1.32-2.928c.72.528 1.576.952 2.568 1.272.992.32 1.984.48 2.976.48 1.104 0 1.92-.16 2.448-.48.528-.336.792-.776.792-1.32 0-.4-.16-.728-.48-.984-.304-.272-.704-.488-1.2-.648-.48-.16-1.136-.336-1.968-.528-1.28-.304-2.328-.608-3.144-.912a5.199 5.199 0 01-2.112-1.464c-.576-.672-.864-1.568-.864-2.688 0-.976.264-1.856.792-2.64.528-.8 1.32-1.432 2.376-1.896 1.072-.464 2.376-.696 3.912-.696 1.072 0 2.12.128 3.144.384s1.92.624 2.688 1.104l-1.2 2.952c-1.552-.88-3.104-1.32-4.656-1.32-1.088 0-1.896.176-2.424.528-.512.352-.768.816-.768 1.392s.296 1.008.888 1.296c.608.272 1.528.544 2.76.816 1.28.304 2.328.608 3.144.912a5.113 5.113 0 012.088 1.44c.592.656.888 1.544.888 2.664 0 .96-.272 1.84-.816 2.64-.528.784-1.328 1.408-2.4 1.872-1.072.464-2.376.696-3.912.696zm22.792-3.408v3.12h-13.008V8.7h12.696v3.12h-8.832v3.648h7.8v3.024h-7.8v3.888h9.144zM136.25 8.7h3.888v16.8h-3.888V8.7z" fill="#000"/></svg>