<svg viewBox="0 0 31 31" xmlns="http://www.w3.org/2000/svg" xmlns:xlink="http://www.w3.org/1999/xlink"><style>:root&gt;svg{display:none}:root&gt;svg:target{display:block}</style><svg viewBox="0 0 20 20" id="arrow-filters" xmlns="http://www.w3.org/2000/svg"><path fill-rule="evenodd" clip-rule="evenodd" d="M10.59 13.09a.833.833 0 01-1.18 0L4.698 8.374a.833.833 0 111.178-1.178L10 11.322l4.125-4.125a.833.833 0 111.178 1.178L10.59 13.09z"/></svg><svg viewBox="0 0 18 16" id="arrow-left" xmlns="http://www.w3.org/2000/svg"><path d="M8.48 15.73a.77.77 0 01-.53-.21l-7-7a.75.75 0 010-1.06l7-7a.75.75 0 011.06 0 .74.74 0 010 1.06L2.55 8 9 14.45a.74.74 0 010 1.06.71.71 0 01-.52.22z"/><path d="M16.52 8.75h-15a.75.75 0 010-1.5h15a.75.75 0 010 1.5z"/><path d="M8.48 15.73a.77.77 0 01-.53-.21l-7-7a.75.75 0 010-1.06l7-7a.75.75 0 011.06 0 .74.74 0 010 1.06L2.55 8 9 14.45a.74.74 0 010 1.06.71.71 0 01-.52.22z"/><path d="M16.52 8.75h-15a.75.75 0 010-1.5h15a.75.75 0 010 1.5z"/></svg><svg viewBox="0 0 18 16" id="arrow-right" xmlns="http://www.w3.org/2000/svg"><path d="M9.52.27a.77.77 0 01.53.21l7 7a.75.75 0 010 1.06l-7 7a.75.75 0 01-1.06 0 .74.74 0 010-1.06L15.45 8 9 1.55A.74.74 0 019 .49a.71.71 0 01.52-.22z"/><path d="M1.48 7.25h15a.75.75 0 010 1.5h-15a.75.75 0 110-1.5z"/><path d="M9.52.27a.77.77 0 01.53.21l7 7a.75.75 0 010 1.06l-7 7a.75.75 0 01-1.06 0 .74.74 0 010-1.06L15.45 8 9 1.55A.74.74 0 019 .49a.71.71 0 01.52-.22z"/><path d="M1.48 7.25h15a.75.75 0 010 1.5h-15a.75.75 0 110-1.5z"/></svg><svg viewBox="0 0 31 31" id="mail" xmlns="http://www.w3.org/2000/svg"><path fill-rule="evenodd" clip-rule="evenodd" d="M5.167 5.167A2.583 2.583 0 002.583 7.75v2.583h2.584v-.756l8.963 8.963a1.938 1.938 0 002.74 0l8.963-8.963V23.25H5.167v-1.292H2.583v1.292a2.583 2.583 0 002.584 2.583h20.666a2.583 2.583 0 002.584-2.583V7.75a2.583 2.583 0 00-2.584-2.583H5.167zm18.84 2.583H6.993l8.507 8.507 8.507-8.507z"/><path d="M2.583 12.917a1.292 1.292 0 000 2.583h3.875a1.292 1.292 0 000-2.583H2.583zM0 18.083c0-.713.578-1.291 1.292-1.291H7.75a1.292 1.292 0 010 2.583H1.292A1.292 1.292 0 010 18.083z"/></svg></svg>