<svg width="845" height="432" fill="none" xmlns="http://www.w3.org/2000/svg"><path d="M7 7.5c17.333 20 60.145 58.885 91 65 111 22 125.139-20.736 143.5-23 73-9 143 54.5 199 45 107.262-18.196 144.5-10 158 0s20 13 22 31.5-41.5 33.5-82 49.5c-32.552 12.86-110.5 57-196.5 48-13.526-1.416-96.5 0-141 30-3.5 11.333-3.35 31.206 0 40.5 15.5 43 128.234 49.545 141 52 130 25 135-92.5 216-52 135.293 67.647 171.167 10.333 251.5 15.5 68 12 17.559 62.695 8 61.5-292-36.5-148.667 43-219 60" stroke="#D4AB1F" stroke-opacity=".88" stroke-dasharray="7 7"/><circle cx="6" cy="6" r="6" fill="#D4AB1F"/><circle cx="200" cy="254" r="6" fill="#D4AB1F"/><circle cx="838" cy="318" r="6" fill="#D4AB1F"/><circle cx="608" cy="100" r="6" fill="#D4AB1F"/></svg>