<svg width="34" height="58" fill="none" xmlns="http://www.w3.org/2000/svg"><path d="M17 9.545c3.459 0 6.272 2.732 6.272 6.091 0 3.356-2.814 6.088-6.272 6.088-3.457 0-6.271-2.732-6.271-6.088-.001-3.36 2.815-6.09 6.27-6.09zm0 20.797c8.355 0 15.15-6.596 15.15-14.706C32.15 7.522 25.356.924 17 .924c-8.355 0-15.15 6.6-15.15 14.712 0 8.11 6.795 14.706 15.15 14.706zm6.129 11.999a28.834 28.834 0 008.796-3.537 4.316 4.316 0 001.964-2.691 4.204 4.204 0 00-.57-3.251 4.363 4.363 0 00-1.19-1.223 4.5 4.5 0 00-1.581-.687 4.565 4.565 0 00-3.35.555c-6.207 3.789-14.195 3.786-20.396 0a4.515 4.515 0 00-1.618-.601 4.565 4.565 0 00-1.731.046 4.5 4.5 0 00-1.581.687c-.476.328-.88.743-1.19 1.223a4.204 4.204 0 00-.572 3.25 4.315 4.315 0 001.963 2.692 28.866 28.866 0 008.795 3.537L2.4 50.566a4.248 4.248 0 00-1.3 3.048 4.25 4.25 0 001.301 3.047 4.507 4.507 0 003.14 1.262 4.507 4.507 0 003.138-1.263l8.32-8.08 8.326 8.081c.411.4.9.718 1.438.935a4.546 4.546 0 003.395 0 4.445 4.445 0 001.44-.935c.412-.4.74-.875.963-1.397a4.195 4.195 0 000-3.3 4.297 4.297 0 00-.964-1.397l-8.467-8.226z" fill="#fff"/></svg>