<svg width="141" height="47" fill="none" xmlns="http://www.w3.org/2000/svg"><path fill-rule="evenodd" clip-rule="evenodd" d="M141.006 15.182V38.19l-12.685 8.812h-7.806v-3.917l-5.855 3.917h-6.83v-3.917l-4.391 3.917H90.754l-3.904-3.917-.976 3.917-11.198-.03-4.416-3.886-.488 3.916-12.685-.03-.488-3.886-3.415 3.887-19.517.03-3.903-1.959v1.958H19.029L7.319 39.66 0 32.315V.006h15.125l7.319 7.343H55.62V.006h27.324V7.35h6.836v3.91l3.904-3.916h8.295L109.299 0h15.613v7.343h8.295l7.799 7.839zM19.029 10.776h-6.83V3.432H3.415v27.415l5.367 5.874h10.246v-9.3h-6.83v-7.833h6.83v-8.812zm36.593 0h-8.783V27.42h-3.415V10.776H35.13V27.42h-3.415V10.776h-9.27V36.72H49.77l5.855-5.874v-20.07h-.002zm11.71 0h-8.295V36.72h8.295V10.776zm0-7.343h-8.295v3.916h8.295V3.433zm19.029 7.343h-6.83V3.432h-8.783v27.415l5.367 5.874h10.246v-9.3h-6.83v-7.833h6.83v-8.812zm22.444 0H95.143L89.78 16.16v14.686l5.855 5.875h13.174V27.42h-9.764v-7.833h9.758l.001-8.812zm28.786 5.385l-5.855-5.385H121.49V3.432h-9.27v33.289h9.27V19.588h6.83V36.72h9.27V16.16h.001z" fill="#fff"/></svg>