<svg width="17" height="20" fill="none" xmlns="http://www.w3.org/2000/svg"><path d="M14.742 12.5h0c.235 0 .467.043.683.127.215.084.41.207.571.36.162.152.289.33.374.526.086.195.13.402.13.611v.376c0 1.66-.9 2.918-2.362 3.756-1.456.834-3.451 1.244-5.638 1.244-2.186 0-4.182-.41-5.638-1.244C1.4 17.418.5 16.16.5 14.5v-.375s0 0 0 0 0 0 0 0c0-.421.178-.831.504-1.139a1.832 1.832 0 011.254-.486h12.484zM3.687 5C3.688 2.543 5.813.5 8.5.5s4.813 2.043 4.813 4.5S11.187 9.5 8.5 9.5 3.687 7.457 3.687 5z" stroke="#000"/></svg>