<svg width="60" height="60" fill="none" xmlns="http://www.w3.org/2000/svg"><path d="M38.729.33H20.535C3.93.33 0 4.261 0 20.865v18.194c0 16.604 3.931 20.535 20.535 20.535h18.194c16.603 0 20.535-3.931 20.535-20.535V20.865C59.264 4.26 55.29.33 38.728.33zm9.116 42.282H43.54c-1.63 0-2.133-1.296-5.062-4.264-2.551-2.47-3.68-2.803-4.307-2.803-.879 0-1.13.252-1.13 1.464v3.89c0 1.046-.334 1.674-3.095 1.674-4.558 0-9.62-2.761-13.173-7.907-5.354-7.527-6.82-13.174-6.82-14.344 0-.628.251-1.213 1.464-1.213h4.306c1.087 0 1.506.501 1.926 1.672 2.131 6.149 5.687 11.544 7.151 11.544.544 0 .795-.252.795-1.63v-6.36c-.168-2.93-1.716-3.179-1.716-4.223 0-.504.42-1.005 1.087-1.005h6.776c.92 0 1.254.501 1.254 1.588v8.575c0 .919.42 1.255.67 1.255.542 0 1.004-.336 2.007-1.338 3.096-3.472 5.311-8.826 5.311-8.826.294-.627.795-1.212 1.884-1.212h4.307c1.296 0 1.59.666 1.296 1.587-.543 2.512-5.813 9.954-5.813 9.954-.459.753-.627 1.087 0 1.926.46.628 1.966 1.924 2.971 3.094 1.84 2.092 3.26 3.848 3.637 5.063.42 1.21-.21 1.837-1.422 1.837l.002.002z" fill="#fff"/></svg>