<svg width="132" height="53" fill="none" xmlns="http://www.w3.org/2000/svg"><path d="M22.06 42.232c-1.055-.346-1.776-.815-2.657-1.726-1.85-1.915-1.952-2.486-1.952-10.987 0-8.192.131-8.963 1.855-10.887 2.417-2.695 8.006-2.616 10.393.149 1.585 1.836 1.714 2.653 1.714 10.863 0 6.498-.06 7.581-.474 8.718-.637 1.741-2.512 3.426-4.415 3.965-1.795.509-2.678.49-4.463-.095zm3.282-3.94c1.077-.395 1.197-1.26 1.197-8.623 0-4.7-.099-7.251-.297-7.667-.667-1.397-2.954-1.397-3.62 0-.199.416-.298 2.968-.298 7.667 0 8.216.11 8.692 2.02 8.759.315.01.764-.05.998-.136zm11.704 3.802c-.38-.197-.913-.787-1.186-1.31-.46-.884-.501-1.787-.574-12.46l-.078-11.507h5.03V27.35c0 9.015.056 10.578.392 10.843.584.463 1.532.124 2.604-.93l.956-.938V16.817h5.005V42.22H44.19v-2.558l-1.252 1.06c-.688.584-1.633 1.216-2.099 1.405-1.087.441-2.909.425-3.793-.034zM6.515 35.24l-.004-6.98-3.256-9.934L0 8.39l2.645-.072c1.548-.042 2.711.031 2.806.177.089.137.928 3.027 1.865 6.422.938 3.396 1.765 6.174 1.838 6.174.074 0 .765-2.29 1.536-5.092a560.207 560.207 0 011.795-6.414l.393-1.32h2.775c2.262 0 2.75.065 2.636.35-.078.191-1.572 4.714-3.322 10.05l-3.18 9.7V42.22H6.518l-.003-6.98zM75.05 52.187c-12.712-.41-16.154-1.283-18.494-4.693-.946-1.378-2.007-4.462-2.345-6.814-1.187-8.254-.895-25.466.53-31.399 1.293-5.372 4.33-8.004 9.87-8.552C70.056.19 84.244-.103 98.046.037c14.899.152 21.914.46 24.452 1.073 4.965 1.198 7.373 4.728 8.213 12.035.159 1.381.354 6.204.433 10.716.322 18.218-1.098 24.013-6.51 26.572-2.043.967-3.38 1.189-9.155 1.521-6.273.361-31.87.509-40.427.233zm6.254-9.93c.439-.219 1.311-.854 1.939-1.413l1.141-1.015v2.575h4.944V17.29h-4.944v19.154l-1.137 1.097c-1.22 1.177-1.713 1.324-2.357.703-.359-.347-.41-1.665-.41-10.675v-10.28h-4.943v10.88c0 12.002.102 12.952 1.5 13.96.886.637 3.114.705 4.267.13zm23.796-.08c.454-.268 1.083-1.013 1.431-1.695.61-1.196.623-1.361.708-9.5.094-8.924-.055-10.536-1.141-12.344-.604-1.006-2.042-1.851-3.15-1.851-1.066 0-2.594.692-3.759 1.703l-1.274 1.106V8.75H93.23v33.654h4.684v-2.319l1.068.932c.587.512 1.436 1.086 1.886 1.275 1.208.508 3.268.451 4.231-.116zm-6.21-4.097l-.975-.546V22.13l1.154-.592c.937-.48 1.293-.544 1.887-.343 1.283.435 1.421 1.395 1.332 9.238l-.08 6.991-.73.606c-.894.742-1.333.75-2.588.049zm21.922 4.052c2.515-1.1 3.647-2.961 3.845-6.318l.13-2.2h-5.016v1.49c0 1.827-.293 2.624-1.167 3.177-.986.623-2.21.227-2.8-.905-.356-.683-.455-1.516-.455-3.825l-.001-2.951h9.367v-3.688c0-4.641-.376-6.12-1.997-7.86-1.433-1.539-2.968-2.15-5.289-2.11-1.923.034-3.209.497-4.559 1.641-2.206 1.87-2.541 3.537-2.409 12.017.086 5.51.18 6.853.551 7.8a6.57 6.57 0 003.346 3.605c1.769.85 4.67.908 6.454.127zm-5.464-17.191c0-3.124.83-4.19 2.92-3.747 1.049.223 1.504 1.356 1.504 3.747v1.892h-4.424V24.94zm-44.755 3.022V13.522h5.725V8.75H59.925v4.772h5.464v28.882h5.204v-14.44z" fill="#fff"/></svg>