<svg version="1.1" id="Layer_1" xmlns="http://www.w3.org/2000/svg" x="0" y="0" viewBox="0 0 480 480" xml:space="preserve"><path d="M470 444.538h-82.773v-82.773c0-5.523-4.478-10-10-10H330.84c-5.522 0-10 4.477-10 10v82.773h-26.386v-129.16c0-5.523-4.478-10-10-10h-46.387c-5.523 0-10 4.477-10 10v129.16H201.68V272.857c0-5.523-4.477-10-10-10h-42.52c-5.523 0-10 4.477-10 10v171.681h-26.386V195.547c0-5.523-4.477-10-10-10H56.387c-5.523 0-10 4.477-10 10v248.991H20V25.462c0-5.523-4.477-10-10-10s-10 4.477-10 10v429.076c0 5.523 4.477 10 10 10h460c5.522 0 10-4.477 10-10s-4.478-10-10-10zm-377.226 0H66.387V205.547h26.387v238.991zm88.907 0H159.16V282.857h22.521v161.681zm92.773 0h-26.387v-119.16h26.387v119.16zm92.773 0H340.84v-72.773h26.387v72.773z"/><path d="M134.038 130.357c.041.552.125 1.099.256 1.637l7.04 37.552c.901 4.806 5.1 8.159 9.817 8.159.611 0 1.231-.057 1.854-.173 5.428-1.018 9.004-6.243 7.986-11.671l-2.825-15.068 261.531 170.323a9.944 9.944 0 005.447 1.622 9.994 9.994 0 008.39-4.544c3.014-4.628 1.705-10.823-2.923-13.836L170.102 134.699l15.064-2.877c5.425-1.036 8.982-6.273 7.946-11.698s-6.277-8.982-11.698-7.946l-39.29 7.504c-4.55.869-7.777 4.697-8.089 9.112l-.007.1a9.952 9.952 0 00-.02.67c-.001.241.009.48.025.72l.005.073z"/></svg>