<svg width="28" height="28" fill="none" xmlns="http://www.w3.org/2000/svg"><path d="M0 19.256a1.072 1.072 0 001.073 1.072l4.99-.001-5.748 5.747A1.071 1.071 0 101.83 27.59l5.748-5.747-.002 4.99a1.073 1.073 0 102.146 0v-7.576a1.071 1.071 0 00-1.073-1.073H1.073A1.07 1.07 0 000 19.256zm26.832 1.072a1.073 1.073 0 100-2.145h-7.576a1.07 1.07 0 00-1.073 1.073v7.576a1.073 1.073 0 002.145 0l-.001-4.99 5.747 5.747a1.071 1.071 0 001.515-1.515l-5.747-5.747 4.99.001zM7.576 1.073a1.073 1.073 0 112.146 0v7.576a1.072 1.072 0 01-1.073 1.073H1.073a1.073 1.073 0 110-2.146l4.99.002L.314 1.83A1.071 1.071 0 111.83.315l5.748 5.747-.002-4.99zm12.752 0a1.073 1.073 0 10-2.145 0v7.576a1.074 1.074 0 001.073 1.073h7.576a1.072 1.072 0 100-2.146l-4.99.002 5.747-5.748A1.072 1.072 0 0026.074.315l-5.747 5.747.001-4.99z" fill="#424141"/></svg>