<svg width="23" height="25" fill="none" xmlns="http://www.w3.org/2000/svg"><g opacity=".8"><path d="M18.711 11.4H4.09A2.089 2.089 0 002 13.49v7.31a2.09 2.09 0 002.089 2.09H18.71a2.089 2.089 0 002.09-2.09v-7.31a2.089 2.089 0 00-2.089-2.09z" fill="#797979" stroke="#797979" stroke-width="3" stroke-linecap="round" stroke-linejoin="round"/><path d="M6.178 11.4V7.224a5.222 5.222 0 1110.444 0V11.4" stroke="#797979" stroke-width="3" stroke-linecap="round" stroke-linejoin="round"/><path d="M9.644 15.785l.001-.022v-.021c0-.852.732-1.582 1.684-1.582.946 0 1.673.72 1.684 1.563-.04.47-.278.821-.506 1.056-.293.302-.585.747-.585 1.287v.423a.5.5 0 01-.5.5h-.097a.5.5 0 01-.5-.5v-.428c0-.537-.287-.988-.624-1.286-.339-.3-.587-.657-.557-.99z" fill="#1F2021" stroke="#1F2021"/></g></svg>