<svg width="33" height="33" fill="none" xmlns="http://www.w3.org/2000/svg"><path d="M32.497 19.894c-2.137 8.571-10.818 13.788-19.39 11.65C4.536 29.407-.68 20.725 1.458 12.154 3.595 3.583 12.276-1.634 20.846.503c8.572 2.137 13.788 10.82 11.651 19.392z" fill="#F7931A"/><path d="M24.055 13.72c.319-2.129-1.302-3.273-3.519-4.037l.72-2.884-1.757-.438-.7 2.809a72.783 72.783 0 00-1.406-.331l.705-2.827-1.755-.438-.72 2.884a58.066 58.066 0 01-1.12-.264l.002-.009-2.422-.605-.467 1.876s1.303.298 1.276.317c.71.177.84.648.818 1.02l-.82 3.287c.05.012.113.03.183.058l-.185-.046-1.149 4.603c-.087.216-.307.54-.804.417.018.026-1.276-.318-1.276-.318l-.872 2.01 2.285.57c.425.106.842.217 1.252.322l-.727 2.917 1.754.438.72-2.886c.478.13.943.25 1.399.363l-.718 2.873 1.756.437.727-2.912c2.994.567 5.245.338 6.192-2.37.764-2.18-.038-3.438-1.613-4.258 1.148-.264 2.012-1.019 2.242-2.577zm-4.011 5.626c-.543 2.18-4.213 1.001-5.404.706l.964-3.865c1.19.297 5.007.885 4.44 3.159zm.543-5.657c-.495 1.983-3.55.976-4.541.728l.874-3.505c.99.247 4.182.708 3.667 2.777z" fill="#fff"/></svg>