<svg width="18" height="20" fill="none" xmlns="http://www.w3.org/2000/svg"><path d="M14.21 0a3.166 3.166 0 00-2.935 4.334l-6.003 3.33a3.141 3.141 0 00-2.114-.822A3.166 3.166 0 000 10a3.166 3.166 0 003.158 3.158c.816 0 1.56-.31 2.122-.822l6.003 3.33c-.148.365-.23.76-.23 1.176A3.166 3.166 0 0014.21 20a3.166 3.166 0 003.158-3.158 3.166 3.166 0 00-3.158-3.158 3.15 3.15 0 00-2.377 1.086l-5.897-3.273c.242-.446.379-.957.379-1.497 0-.543-.135-1.05-.379-1.497l5.897-3.273a3.147 3.147 0 002.377 1.086 3.166 3.166 0 003.158-3.158A3.166 3.166 0 0014.21 0zm0 1.053c1.17 0 2.106.936 2.106 2.105a2.097 2.097 0 01-2.105 2.105 2.097 2.097 0 01-2.106-2.105c0-1.169.937-2.105 2.106-2.105zM3.159 7.895c1.169 0 2.105.936 2.105 2.105a2.097 2.097 0 01-2.105 2.105A2.097 2.097 0 011.053 10c0-1.169.936-2.105 2.105-2.105zm11.053 6.842c1.169 0 2.105.936 2.105 2.105a2.097 2.097 0 01-2.105 2.106 2.097 2.097 0 01-2.106-2.106c0-1.169.937-2.105 2.106-2.105z" fill="#3A3A3A" opacity=".5"/></svg>