<svg width="32" height="32" fill="none" xmlns="http://www.w3.org/2000/svg"><path d="M31.971 15.995c0 8.792-7.127 15.92-15.92 15.92S.131 24.787.131 15.995C.13 7.202 7.258.075 16.05.075s15.92 7.127 15.92 15.92z" fill="#1BA27A"/><path d="M23.523 8.102H8.448v3.64h5.718v5.349h3.639v-5.35h5.718V8.103z" fill="#fff"/><path d="M16.02 17.66c-4.73 0-8.564-.748-8.564-1.671 0-.924 3.834-1.673 8.564-1.673s8.565.75 8.565 1.673-3.835 1.672-8.565 1.672zm9.617-1.393c0-1.19-4.306-2.156-9.617-2.156-5.31 0-9.617.966-9.617 2.156 0 1.05 3.339 1.923 7.763 2.116v7.68h3.64v-7.677c4.457-.187 7.83-1.064 7.83-2.119z" fill="#fff"/></svg>