<svg width="200" height="101" fill="none" xmlns="http://www.w3.org/2000/svg"><path d="M55.363 11.113v9.213c15.897 3.991 27.642 18.06 27.642 34.803 0 19.846-16.501 35.935-36.857 35.935-20.355 0-36.855-16.089-36.855-35.935 0-16.743 11.745-30.813 27.64-34.803v-9.213C15.908 15.274.08 33.399.08 55.129c0 24.809 20.627 44.918 46.069 44.918 25.444 0 46.07-20.109 46.07-44.918 0-21.73-15.827-39.855-36.856-44.016z" fill="#C6D6E3"/><path d="M56.174 12.089c9.696 2.141 18.5 7.422 24.88 14.946a43.71 43.71 0 017.605 12.905 43.02 43.02 0 012.752 15.188c0 11.787-4.708 22.869-13.257 31.204-8.549 8.334-19.915 12.925-32.004 12.925-12.088 0-23.453-4.59-32.002-12.925C5.598 77.998.89 66.916.89 55.129c0-5.221.925-10.331 2.752-15.188a43.723 43.723 0 017.605-12.905c6.38-7.524 15.184-12.805 24.88-14.946v7.63C19.817 24.094 8.483 38.567 8.483 55.129c0 20.25 16.898 36.724 37.666 36.724 20.77 0 37.667-16.475 37.667-36.724 0-16.562-11.334-31.035-27.641-35.409v-7.631m-.813-.976v9.213c15.897 3.991 27.642 18.06 27.642 34.803 0 19.846-16.501 35.935-36.857 35.935-20.355 0-36.855-16.089-36.855-35.935 0-16.743 11.745-30.813 27.64-34.803v-9.213C15.908 15.274.08 33.399.08 55.129c0 24.809 20.627 44.918 46.069 44.918 25.444 0 46.07-20.109 46.07-44.918 0-21.73-15.827-39.855-36.856-44.016z" fill="#C6D6E3"/><path d="M51.447 28.32H40.876V7.725L51.447.047V28.32z" fill="#C7D9E7"/><path d="M50.483 1.921v25.457h-8.64V8.198l8.64-6.277zm.964-1.874l-10.571 7.68v20.592h10.571V.047z" fill="#C7D9E7"/><path d="M36.6 70.463V36.54h-6.834l-6.634 5.727v4.442h4.799v23.755h-4.762v4.181h18.234v-4.18H36.6z" fill="#06C"/><path d="M41.809 75.038H22.765v-4.97h4.76V47.102h-4.798v-5.014l6.886-5.945h7.39v33.925h4.806v4.97zm-18.235-.789h17.423v-3.39h-4.804V36.933h-6.275l-6.383 5.51v3.87h4.799v24.544h-4.761v3.391zM44.87 36.54v38.104h8.66V60.09l8.227 14.554h8.662l-9.92-19.053 9.92-19.052h-8.662L53.53 51.557V36.54h-8.66z" fill="#06C"/><path d="M71.078 75.038h-9.56l-7.582-13.413v13.413h-9.471V36.143h9.47V49.98l7.583-13.836h9.56L60.953 55.591l10.125 19.447zm-9.083-.789h7.763l-9.714-18.657.094-.179 9.62-18.479H62l-8.875 16.2v-16.2h-7.85V74.25h7.85V58.557l8.87 15.692z" fill="#06C"/><path d="M87.298 81.508c-8.595 0-15.587-6.818-15.587-15.197 0-8.38 6.992-15.198 15.587-15.198 8.596 0 15.587 6.818 15.587 15.198 0 8.379-6.992 15.197-15.587 15.197z" fill="#F90"/><path d="M87.297 51.507c8.373 0 15.184 6.641 15.184 14.804 0 8.162-6.811 14.802-15.183 14.802s-15.183-6.64-15.183-14.802c0-8.163 6.811-14.804 15.183-14.804zm0-.789c-8.831 0-15.991 6.981-15.991 15.593s7.159 15.592 15.992 15.592c8.832 0 15.993-6.98 15.993-15.592s-7.16-15.593-15.993-15.593z" fill="#F90"/><path d="M111.249 38.879h-5.122V51.84h-2.864V36.143h10.85V51.84h-2.864V38.879zm6.42-2.736h8.677v2.736h-5.813v3.656h5.289v2.735h-5.289v3.834h5.917v2.736h-8.781V36.143zm11.958.157a18.65 18.65 0 011.934-.279c.699-.067 1.4-.1 2.102-.101.725 0 1.453.064 2.185.191a5.21 5.21 0 011.977.762c.584.381 1.062.912 1.432 1.592.368.68.553 1.566.553 2.656 0 .987-.16 1.82-.481 2.5a4.728 4.728 0 01-1.275 1.671 4.994 4.994 0 01-1.81.941 7.536 7.536 0 01-2.101.292h-.334a11.54 11.54 0 01-.973-.045 2.886 2.886 0 01-.344-.045v5.404h-2.865V36.3zm4.265 2.265c-.265 0-.529.01-.793.034a5.976 5.976 0 00-.607.079v5.09c.056.015.14.031.251.045.239.032.48.047.722.045h.26c.377 0 .75-.037 1.119-.112.358-.07.696-.21.994-.415.304-.217.546-.506.701-.841.174-.358.26-.829.26-1.413 0-.493-.082-.9-.25-1.222a2.151 2.151 0 00-.659-.773 2.463 2.463 0 00-.93-.404 5.091 5.091 0 00-1.068-.113zm18.587 1.235c0 .388-.044.777-.135 1.166a3.308 3.308 0 01-.45 1.065c-.217.33-.493.619-.815.853-.334.246-.738.43-1.213.549v.135c.418.075.815.201 1.192.381.376.18.703.426.982.74.279.313.499.695.66 1.143.16.448.239.979.239 1.593 0 .807-.16 1.506-.48 2.096a4.138 4.138 0 01-1.287 1.446 5.695 5.695 0 01-1.829.83 8.31 8.31 0 01-2.112.269h-.91a24.85 24.85 0 01-2.489-.135 8.566 8.566 0 01-1.202-.201V36.257c.266-.045.568-.09.911-.135.341-.045.705-.082 1.096-.112a33.512 33.512 0 012.427-.089c.682 0 1.346.056 1.995.168a5.43 5.43 0 011.735.594c.51.284.917.68 1.224 1.188.309.508.461 1.151.461 1.929zm-6.167 2.937c.194 0 .42-.007.679-.022a5.59 5.59 0 00.638-.066c.51-.166.977-.438 1.368-.798.384-.355.576-.822.576-1.398 0-.385-.069-.703-.209-.954a1.635 1.635 0 00-.554-.599 2.282 2.282 0 00-.784-.311 4.642 4.642 0 00-.92-.089c-.362 0-.697.007-1.003.022a6.26 6.26 0 00-.711.065v4.15h.92zm.94 6.749c.349 0 .688-.044 1.015-.133a2.58 2.58 0 00.866-.411c.252-.186.454-.418.608-.699.152-.282.23-.615.23-1 0-.488-.091-.873-.272-1.154a1.892 1.892 0 00-.71-.655 2.833 2.833 0 00-.984-.3 8.96 8.96 0 00-1.087-.066h-1.526v4.285c.069.029.181.052.335.066.152.015.316.025.492.034l.542.022c.189.008.353.011.491.011zm8.782-13.343h2.865v5.629c.151-.029.397-.067.732-.112a7.33 7.33 0 01.981-.067c.698 0 1.362.076 1.997.225.61.138 1.179.41 1.663.796.473.381.85.896 1.129 1.547.279.651.418 1.469.418 2.455 0 1.825-.494 3.188-1.483 4.093-.991.905-2.461 1.357-4.413 1.357-.195 0-.447-.004-.752-.011a17.098 17.098 0 01-.993-.056 31.49 31.49 0 01-1.098-.112 6.974 6.974 0 01-1.046-.202V36.143zm4.097 13.186c.795 0 1.44-.198 1.935-.594.495-.396.742-1.058.742-1.985 0-.493-.069-.897-.209-1.21a1.828 1.828 0 00-.564-.74 2.058 2.058 0 00-.835-.37 4.955 4.955 0 00-1.737-.045 2.692 2.692 0 00-.564.124v4.686c.151.045.338.079.553.101.216.022.443.033.679.033zm7.193-13.186h2.866V51.84h-2.866V36.143zm14.97 6.997l.168-2.041h-.106l-.982 2.108-5.457 8.633h-2.154V36.143h2.865v8.544l-.209 2.108h.125l1.024-2.175 5.457-8.477h2.133V51.84h-2.865v-8.7h.001zm-4.076-10.899c.055.479.219.823.491 1.032.272.209.622.313 1.055.313.934 0 1.449-.44 1.548-1.323l2.321.382c-.154.941-.554 1.629-1.202 2.063-.649.433-1.545.649-2.687.649a8.406 8.406 0 01-1.567-.134 4.024 4.024 0 01-1.246-.438 2.557 2.557 0 01-.877-.818c-.23-.344-.373-.77-.429-1.278l2.593-.448zm-63.324 36.092h-.752v6.705h-2.865V59.341h2.865v6.952l.669-.313 4.036-6.638h3.261l-4.265 6.593-1.13.852 1.173.875 4.87 7.377h-3.532l-4.33-6.706zm17.249 3.23h-4.495l-1.109 3.475h-2.864l5.27-15.809h2.111l5.27 15.809h-3.012l-1.171-3.475zm-3.764-2.467h3.137l-1.088-3.499-.439-2.466h-.106l-.438 2.489-1.066 3.476zm19.007-7.019h-4.267v12.96h-2.864v-12.96h-4.286v-2.736h11.417v2.736zm8.111 9.486h-4.496l-1.107 3.475h-2.865l5.27-15.809h2.112l5.269 15.809h-3.012l-1.171-3.475zm-3.763-2.467h3.136l-1.087-3.499-.439-2.466h-.106l-.44 2.489-1.064 3.476zm18.024-7.024h-3.116a193.253 193.253 0 01-.187 3.88 48.868 48.868 0 01-.283 3.15 18.5 18.5 0 01-.47 2.478c-.196.718-.446 1.338-.753 1.861a3.484 3.484 0 01-.658.853 3.439 3.439 0 01-.763.538 3.143 3.143 0 01-.785.281 3.72 3.72 0 01-.722.079 3.49 3.49 0 01-.804-.079 2.99 2.99 0 01-.637-.236l.313-2.646c.16.06.33.09.501.089.224 0 .443-.059.66-.179.216-.12.401-.321.554-.605.209-.329.39-.812.543-1.446.153-.636.289-1.447.407-2.433.118-.987.213-2.164.282-3.532.069-1.368.118-2.964.147-4.787h8.635v15.697h-2.864V62.072zm5.331 4.956c0-2.615.536-4.631 1.61-6.043 1.073-1.413 2.606-2.119 4.599-2.119 1.046 0 1.958.194 2.739.583.78.387 1.448.957 1.945 1.659.515.717.898 1.577 1.149 2.579.25 1.002.376 2.115.376 3.341 0 2.616-.54 4.631-1.62 6.043-1.08 1.413-2.611 2.12-4.59 2.12-1.06 0-1.98-.195-2.759-.583a5.155 5.155 0 01-1.935-1.659c-.508-.718-.889-1.577-1.139-2.579-.25-1.002-.375-2.116-.375-3.342zm3.011 0c0 .792.061 1.521.188 2.186.125.666.318 1.237.575 1.716.258.478.589.852.994 1.121.404.27.884.403 1.442.403 1.017 0 1.805-.426 2.363-1.278.557-.851.836-2.234.836-4.148 0-.762-.06-1.472-.179-2.13a6.202 6.202 0 00-.553-1.727c-.251-.493-.579-.878-.983-1.154-.405-.277-.898-.416-1.484-.416-1.018 0-1.805.438-2.363 1.312-.557.875-.836 2.247-.836 4.115zm21.012-4.951h-5.645v12.96h-2.865V59.341h8.51v2.736z" fill="#06C"/><path d="M75.799 70.598c0-.305.098-.545.296-.721.198-.175.462-.263.792-.263.345 0 .618.088.823.263.204.175.305.416.305.721a.9.9 0 01-.305.71c-.204.18-.478.271-.823.271-.33 0-.594-.091-.792-.271a.914.914 0 01-.296-.71zm4.624-11.076h1.529v4.216h.076a2.941 2.941 0 011.117-.762 3.95 3.95 0 011.481-.271c1.235 0 2.161.35 2.781 1.05.616.7.926 1.784.926 3.251 0 1.479-.408 2.603-1.222 3.37-.817.768-1.962 1.152-3.44 1.152a8.533 8.533 0 01-1.94-.203c-.58-.136-1.016-.282-1.309-.44V59.522h.001zm3.936 4.368c-.636 0-1.153.158-1.548.475-.395.317-.68.762-.86 1.337v4.269c.242.125.535.217.879.28.344.062.7.093 1.07.093.866 0 1.557-.271 2.073-.813.517-.542.775-1.39.775-2.541 0-.44-.046-.853-.135-1.236a2.806 2.806 0 00-.42-.982 2.072 2.072 0 00-.736-.643c-.3-.158-.665-.239-1.098-.239zm8.97 4.506l.537 1.625h.096l.421-1.643 1.86-5.47h1.528l-2.829 7.604a126.4 126.4 0 01-.639 1.609 8.98 8.98 0 01-.697 1.389 3.657 3.657 0 01-.86.974 1.79 1.79 0 01-1.108.363c-.459 0-.834-.056-1.128-.168l.267-1.169c.165.056.325.085.48.085.355 0 .699-.167 1.03-.5.331-.333.606-.906.823-1.718l-3.841-8.468h1.758l2.301 5.487z" fill="#fff"/></svg>