<svg width="200" height="77" fill="none" xmlns="http://www.w3.org/2000/svg"><g clip-path="url(#clip0_76_2732)"><path fill-rule="evenodd" clip-rule="evenodd" d="M.133 38.5C-1.336 59.9 9.601 77 24.595 77c14.993 0 27.294-17.399 29.993-38.5L59.445 0H30.056C14.936 0 1.708 17.09.133 38.5z" fill="#DC092E"/><path d="M30.373 28.089l.836-4.46h10.6l1.47-11.595h-17.51a.91.91 0 00-.503.289 1.524 1.524 0 00-.333.607l-3.17 23.898a.91.91 0 00-.032.397.764.764 0 00.137.35c.105.298.316.298.52.298 3.156-.597 7.247.15 6.614 6.24-.421 3.604-2.2 5.654-4.934 5.654h-6.509l-1.364 10.55h5.99c7.766.3 14.69-5.205 16.166-17.239.52-4.757 0-8.63-1.785-11.446-1.71-2.169-3.9-3.431-6.193-3.573v.03z" fill="#fff"/><path d="M96.552 23.182a.88.88 0 00-.039-.254.693.693 0 00-.107-.212.462.462 0 00-.157-.135.335.335 0 00-.182-.036h-6.712a.576.576 0 00-.387.176 1.012 1.012 0 00-.253.45L78.43 59.612a.933.933 0 00.023.675c.045.1.107.182.18.239a.376.376 0 00.24.082h6.123a.587.587 0 00.405-.2c.118-.125.204-.299.248-.497l4.99-21.29.233 21.29a.896.896 0 00.026.273.722.722 0 00.104.232.479.479 0 00.163.15.336.336 0 00.192.042h5.764c.186 0 .365-.105.497-.292.132-.186.206-.44.206-.704l-1.273-36.44v.01zM71.683 45.915H65.68a.416.416 0 01-.193-.106.64.64 0 01-.143-.21.96.96 0 01-.05-.569l.92-7.296c.012-.211.075-.41.179-.56a.585.585 0 01.391-.267h6.2v-.318c.003-.389-.011-.778-.042-1.164a8.891 8.891 0 00-.148-1.095 7.584 7.584 0 00-.267-.996 4.158 4.158 0 00-.387-.846 3.251 3.251 0 00-.541-.667 2.002 2.002 0 00-.703-.428 2.38 2.38 0 00-.872-.159c-.258 0-.516.02-.773.06a4.804 4.804 0 00-1.469.468 5.3 5.3 0 00-.66.378h-.078a.313.313 0 01-.2.013.39.39 0 01-.183-.115.618.618 0 01-.127-.219.836.836 0 01-.045-.276l-.45-6.66a1.34 1.34 0 01.08-.58.9.9 0 01.3-.415c.22-.139.454-.278.702-.418.26-.149.52-.278.788-.398.267-.12.597-.268.906-.378.31-.11.612-.19.97-.279.359-.088.72-.151 1.083-.189.358-.05.745-.07 1.153-.07a6.863 6.863 0 011.8.22c1.011.256 1.97.823 2.81 1.662.386.392.737.847 1.048 1.353.303.504.572 1.047.802 1.623a14.6 14.6 0 01.604 1.871c.159.653.293 1.317.4 1.99.109.71.186 1.428.233 2.15a43.5 43.5 0 01.084 2.21c0 .717 0 1.454-.035 2.21v.06c-.038.77-.087 1.516-.148 2.24a58.426 58.426 0 01-.225 2.12v.079a49.125 49.125 0 01-.752 4.33 35.22 35.22 0 01-1.082 3.832 28.904 28.904 0 01-1.35 3.274 20.533 20.533 0 01-1.595 2.728 15.362 15.362 0 01-1.75 2.14 10.768 10.768 0 01-1.976 1.543c-1.332.812-2.767 1.232-4.217 1.234-.359 0-.703 0-1.076-.07-.372-.07-.703-.1-.991-.179l-.879-.269c-.26-.1-.513-.209-.752-.328a7.415 7.415 0 01-.618-.339 3.643 3.643 0 01-.514-.338.84.84 0 01-.227-.446 1.104 1.104 0 01.03-.55l1.856-6.967a.85.85 0 010-.12.879.879 0 01.11-.262.605.605 0 01.172-.182.4.4 0 01.421-.023 5.15 5.15 0 001.16.617c.46.154.933.231 1.406.229.37-.003.74-.06 1.104-.17.308-.09.608-.234.892-.427.535-.375 1.013-.896 1.406-1.533.199-.335.382-.687.548-1.055.167-.38.32-.773.457-1.175.14-.418.267-.836.38-1.254l.084-.308.042.04zm38.991-9.346h5.103a.419.419 0 01.193.107.63.63 0 01.145.21.958.958 0 01.056.569l-.872 6.858a1.109 1.109 0 01-.182.565.597.597 0 01-.394.271h-5.132l-.822 6.53h5.785a.437.437 0 01.194.11.68.68 0 01.145.212.97.97 0 01.055.573l-.907 7.147a1.118 1.118 0 01-.182.565.6.6 0 01-.394.271h-12.231a.419.419 0 01-.193-.107.648.648 0 01-.146-.21.958.958 0 01-.055-.569l4.59-36.34a1.11 1.11 0 01.176-.566.588.588 0 01.394-.27h11.851a.419.419 0 01.193.107.646.646 0 01.145.21.958.958 0 01.055.569l-.906 7.186a1.13 1.13 0 01-.184.563.609.609 0 01-.393.273h-5.405l-.647 5.126-.035.04zm28.637 24.028h-5.223a.38.38 0 01-.197-.084.592.592 0 01-.153-.194.855.855 0 01-.08-.268.944.944 0 01.008-.29l1.012-11.397c.057-.677.134-1.523.218-2.429l.078-.866.105-.995-.119.428-.443 1.602-.106.399c-.175.647-.33 1.204-.457 1.652l-3.233 11.158a.937.937 0 01-.203.428.525.525 0 01-.338.189h-4.267a.35.35 0 01-.173-.06.507.507 0 01-.144-.15.738.738 0 01-.092-.217.904.904 0 01-.027-.25l-.337-11.208v-4.459l-.274 1.643-.288 1.722-.253 1.542-1.863 11.427a1.05 1.05 0 01-.197.495.574.574 0 01-.366.232h-5.075a.495.495 0 01-.193-.145.77.77 0 01-.133-.246.972.972 0 01-.048-.302.983.983 0 01.044-.303l6.565-36.35c.024-.195.093-.374.196-.51a.576.576 0 01.374-.236h6.171a.352.352 0 01.177.062c.055.037.105.09.146.155a.78.78 0 01.091.223.91.91 0 01.022.256l.162 11.656c.042 2.13.07 3.663.098 5.216v3.412c.162-.676.33-1.383.513-2.1.26-.995.534-2.13.83-3.274.295-1.145.576-2.23.871-3.355l3.107-11.655a.956.956 0 01.201-.449.531.531 0 01.347-.198h6.088a.376.376 0 01.197.08.58.58 0 01.154.19.91.91 0 01.077.555l-2.987 36.39a1.13 1.13 0 01-.186.567.603.603 0 01-.397.27v.04zm13.805-24.028h5.096a.419.419 0 01.193.107.63.63 0 01.145.21.861.861 0 01.071.276.99.99 0 01-.015.293l-.865 6.858c-.014.212-.078.41-.183.563a.609.609 0 01-.393.273h-5.132l-.829 6.53h5.792a.424.424 0 01.193.11.662.662 0 01.144.213c.037.085.06.18.069.279a.995.995 0 01-.019.293l-.872 7.147a1.118 1.118 0 01-.182.565.6.6 0 01-.394.271h-12.231a.419.419 0 01-.193-.107.63.63 0 01-.145-.21.958.958 0 01-.056-.569l4.59-36.34c.013-.213.077-.412.182-.565a.6.6 0 01.395-.271h11.809a.419.419 0 01.193.107.646.646 0 01.145.21.916.916 0 01.071.276.99.99 0 01-.016.293l-.907 7.186a1.12 1.12 0 01-.183.563.609.609 0 01-.393.273h-5.398l-.647 5.126-.035.04zm6.783 23.152l4.59-36.34c.011-.213.075-.414.18-.567a.592.592 0 01.396-.27h5.94a.415.415 0 01.193.107.647.647 0 01.144.211c.037.084.06.179.069.277a.983.983 0 01-.019.292l-1.666 13.248h3.339l1.68-13.308c.012-.213.076-.413.181-.565a.602.602 0 01.395-.271h5.94a.425.425 0 01.193.107.647.647 0 01.145.21.916.916 0 01.071.276.99.99 0 01-.016.293l-4.59 36.3a1.113 1.113 0 01-.18.567.592.592 0 01-.396.269h-5.919a.415.415 0 01-.193-.107.645.645 0 01-.144-.21.951.951 0 01-.049-.569l1.708-13.586h-3.36l-1.722 13.636a1.127 1.127 0 01-.182.565.6.6 0 01-.395.271h-5.939a.427.427 0 01-.194-.107.662.662 0 01-.145-.21.916.916 0 01-.071-.276.99.99 0 01.016-.293v.05zm30.429.886h-5.939a.422.422 0 01-.194-.107.648.648 0 01-.145-.21.916.916 0 01-.071-.276.99.99 0 01.016-.293l3.514-27.73h-3.957a.415.415 0 01-.193-.107.647.647 0 01-.144-.21.891.891 0 01-.069-.277.983.983 0 01.019-.292l.97-7.724c.01-.213.072-.413.176-.567a.588.588 0 01.394-.27h14.902a.418.418 0 01.193.107.646.646 0 01.145.21.918.918 0 01.071.277.99.99 0 01-.016.293l-.977 7.723a1.109 1.109 0 01-.182.566.597.597 0 01-.394.27h-4.028l-3.514 27.78a1.128 1.128 0 01-.182.566.601.601 0 01-.395.27z" fill="#060703"/></g><defs><clipPath id="clip0_76_2732"><path fill="#fff" d="M0 0h200v77H0z"/></clipPath></defs></svg>