<svg width="200" height="61" fill="none" xmlns="http://www.w3.org/2000/svg"><path d="M161.107 14.38h12.062l6.4 23.94h.2l6.138-23.94h11.339l-12.4 34.16-.339.96c-.892 2.53-2.169 4.24-3.861 5.13-1.662.89-4.185 1.34-7.569 1.34a73.57 73.57 0 01-5.693-.22v-5.32h3.939c.769 0 1.369-.2 1.754-.59.415-.39.6-.88.6-1.48 0-.18-4.185-11.51-12.57-33.98zm-41.2 31.19V4.33h10.816v12.35c.892-.86 2.138-1.59 3.738-2.19 1.615-.6 3.446-.91 5.462-.91 3.646 0 6.661.72 9.03 2.16 2.37 1.44 3.554 3.63 3.554 6.57v15.36c0 2.85-1.215 5.03-3.631 6.54-2.415 1.52-5.384 2.28-8.953 2.28-1.893 0-3.739-.39-5.508-1.18-1.754-.79-2.985-1.77-3.692-2.95v3.21h-10.816zm10.816-8.4c0 1.21.523 2.15 1.569 2.8 1.061.65 2.323.98 3.784.98 1.477 0 2.724-.32 3.708-.96.985-.62 1.477-1.53 1.477-2.7V23.01c0-1.17-.492-2.08-1.477-2.71-.984-.64-2.231-.95-3.708-.95-1.461 0-2.723.32-3.784.98-1.046.65-1.569 1.58-1.569 2.79v14.05zM97.83 38.24v7.33h11.246v-7.33H97.83zM16.215 50.49v5.69h37.43v-5.69h-37.43z" fill="#A0A0A0"/><path d="M53.707 4.33v41.24h11.246V8.27h.093l12.03 37.3h8.616L97.738 8.21h.092v26.68h11.246V4.33H89.83l-8.446 26.79-8.43-26.79H53.706zM1.861 10.61V4.33h41.923v6.28H28.846v34.96H16.8V10.61H1.86z" fill="#18BC9C"/><path d="M58.262 52.46v1.78c0 1.24 1.015 1.65 2.461 1.65s2.416-.4 2.416-1.65v-1.78c0-1.25-.97-1.68-2.416-1.68s-2.461.44-2.461 1.68zm2.461-.93c.616 0 .954.31.954.83v2c0 .51-.338.79-.954.79-.677 0-1-.28-1-.79v-2.01c0-.52.323-.82 1-.82zm7.585-.66v4.91h1.338v-1.74c0-.5-.015-1.35-.169-1.83l2.108 3.57h1.538v-4.91h-1.338v1.74c0 .56.03 1.28.184 1.83h-.015l-2.092-3.57h-1.554zm11.477 0h-1.446v4.91h4.046v-.75h-2.6v-4.16zm8.969 0h-1.43v4.91h1.43v-4.91zm5.215 0v4.91h1.339v-1.74c0-.5-.016-1.35-.17-1.83l2.093 3.57h1.554v-4.91h-1.339v1.74c0 .56.016 1.28.185 1.83h-.015l-2.093-3.57H93.97zm10.031 0v4.91h4.046v-.75h-2.615v-1.52h2.385v-.75h-2.385v-1.14h2.615v-.75H104zm18.539 1.55v-.15c0-.99-.8-1.49-2.231-1.49-1.308 0-2.231.46-2.231 1.27 0 .53.369.95 1.123 1.27l1.277.54c.539.22.785.42.785.73s-.293.56-.846.56c-.539 0-1.047-.18-1.047-.87v-.19H118v.19c0 1.01.816 1.61 2.416 1.61 1.507 0 2.323-.51 2.323-1.38 0-.73-.493-1.03-1.277-1.38l-1.477-.63c-.293-.13-.477-.27-.477-.56 0-.27.354-.41.769-.41.554 0 .892.23.892.83v.06h1.37zm8.123-.8h1.784v-.75h-5v.75h1.785v4.16h1.431v-4.16zm6.615.84v1.78c0 1.24 1.015 1.65 2.446 1.65 1.462 0 2.431-.4 2.431-1.65v-1.78c0-1.25-.969-1.68-2.431-1.68-1.431 0-2.446.44-2.446 1.68zm2.446-.93c.631 0 .969.31.969.83v2c0 .51-.338.79-.969.79-.677 0-.984-.28-.984-.79v-2.01c0-.52.307-.82.984-.82zm9.031 2.17h1.046c.662 0 .862.34.862.71v.57c0 .31.061.65.338.8h1.446v-.15c-.338 0-.354-.37-.354-.82v-.63c0-.35-.2-.77-1.03-.88.677-.06 1.138-.43 1.138-1.16 0-.71-.738-1.27-1.892-1.27h-2.985v4.91h1.431V53.7zm0-2.11h.938c.631 0 1.047.15 1.047.69 0 .55-.508.72-1.016.72h-.969v-1.41zm8.615-.72v4.91h4.031v-.75h-2.6v-1.52h2.369v-.75H158.8v-1.14h2.6v-.75h-4.031z" fill="#A0A0A0"/></svg>