<svg width="200" height="29" fill="none" xmlns="http://www.w3.org/2000/svg"><g clip-path="url(#clip0_76_2746)"><path d="M64.368 6.116c.38.269.57.618.57 1.053 0 .434-.19.78-.57 1.04-.382.26-.875.388-1.481.388h-5.282v13.13c0 .436-.212.798-.639 1.09-.426.292-.954.439-1.58.439-.63 0-1.145-.147-1.548-.439-.404-.292-.606-.654-.606-1.09V8.597H47.95c-.605 0-1.099-.133-1.48-.4-.382-.267-.572-.618-.572-1.053 0-.416.195-.759.588-1.027.393-.267.88-.4 1.463-.4h14.936c.608 0 1.1.133 1.483.4zM80.513 20.16c-.807 1.061-1.91 1.884-3.314 2.468-1.402.586-2.942.878-4.625.878-1.705 0-3.253-.292-4.642-.878-1.39-.584-2.49-1.407-3.297-2.468a5.777 5.777 0 01-1.211-3.595c0-1.336.403-2.535 1.21-3.596.809-1.06 1.908-1.888 3.298-2.48 1.39-.594 2.937-.89 4.642-.89 1.681 0 3.222.296 4.625.89 1.402.593 2.505 1.42 3.314 2.48a5.793 5.793 0 011.211 3.596 5.784 5.784 0 01-1.21 3.595zM77 14.372c-.461-.643-1.078-1.14-1.85-1.49-.775-.35-1.633-.526-2.574-.526-.942 0-1.8.176-2.573.526-.775.351-1.392.848-1.85 1.49a3.68 3.68 0 00-.69 2.193c0 .818.231 1.545.69 2.18.458.635 1.075 1.128 1.85 1.478.773.352 1.631.526 2.573.526.941 0 1.8-.175 2.574-.526.772-.35 1.39-.843 1.85-1.478.459-.635.69-1.36.69-2.18 0-.819-.233-1.549-.69-2.193zm33.789-3.256c.852 1.011 1.279 2.408 1.279 4.196v6.414c0 .436-.193.798-.574 1.09-.382.292-.863.44-1.446.44-.584 0-1.067-.148-1.447-.44-.381-.292-.572-.654-.572-1.09v-6.414c0-.919-.243-1.64-.725-2.168-.482-.526-1.328-.789-2.539-.789-1.256 0-2.236.28-2.944.84-.706.56-1.059 1.266-1.059 2.117v6.414c0 .436-.192.798-.572 1.09-.381.292-.865.44-1.447.44-.584 0-1.066-.148-1.448-.44-.383-.292-.572-.654-.572-1.09v-6.414c0-.919-.241-1.64-.724-2.168-.482-.526-1.33-.789-2.539-.789-1.257 0-2.236.28-2.944.84-.706.56-1.06 1.266-1.06 2.117v6.414c0 .436-.192.798-.572 1.09-.383.292-.865.44-1.447.44-.584 0-1.066-.148-1.447-.44-.381-.292-.572-.654-.572-1.09V11.378c0-.435.191-.796.572-1.089.38-.293.862-.438 1.447-.438.58 0 1.064.146 1.447.438.38.293.572.654.572 1.09v.4c.606-.602 1.374-1.114 2.304-1.54.93-.427 1.968-.64 3.113-.64 2.823 0 4.63.918 5.414 2.756.515-.7 1.294-1.336 2.338-1.904 1.043-.567 2.224-.853 3.548-.853 2.229.001 3.764.506 4.616 1.518zm22-1.092c.38.285.573.653.573 1.104v10.6c0 .435-.193.797-.573 1.09-.383.291-.864.438-1.447.438-.584 0-1.061-.142-1.429-.427-.371-.284-.569-.643-.59-1.077-.56.484-1.318.897-2.272 1.24a8.837 8.837 0 01-3.009.514c-1.549 0-2.95-.296-4.204-.89-1.257-.593-2.249-1.416-2.979-2.468-.729-1.053-1.091-2.246-1.091-3.583 0-1.336.357-2.535 1.075-3.596.717-1.06 1.7-1.888 2.944-2.48 1.244-.594 2.615-.89 4.12-.89 1.075 0 2.085.146 3.027.437.943.293 1.737.665 2.389 1.116v-.025c0-.435.192-.798.573-1.09.38-.292.863-.439 1.447-.439.584 0 1.063.143 1.446.426zm-4.676 9.536c.919-.793 1.38-1.792 1.38-2.994 0-1.203-.461-2.206-1.38-3.007-.919-.802-2.108-1.203-3.565-1.203-1.435 0-2.613.401-3.533 1.203-.919.801-1.38 1.804-1.38 3.007 0 1.202.455 2.201 1.363 2.994.908.793 2.09 1.19 3.548 1.19 1.459 0 2.646-.397 3.567-1.19zm8.613.864c0-.435.292-.803.875-1.103.313-.15.637-.226.975-.226.47 0 .919.158 1.345.476a7.36 7.36 0 002.102 1.153c.73.25 1.61.376 2.642.376 1.75-.05 2.623-.543 2.623-1.479 0-.483-.297-.85-.89-1.102-.596-.25-1.52-.5-2.775-.752-1.301-.267-2.362-.534-3.18-.802a5.742 5.742 0 01-2.118-1.215c-.594-.543-.892-1.273-.892-2.192 0-.802.306-1.499.924-2.092.618-.594 1.424-1.054 2.422-1.378.999-.326 2.058-.49 3.18-.49 1.143 0 2.287.16 3.431.478 1.144.316 2.041.784 2.692 1.402.291.267.438.567.438.902 0 .385-.214.702-.64.951a2.072 2.072 0 01-1.076.275c-.493 0-.896-.116-1.212-.35-.404-.367-.923-.66-1.563-.877-.638-.217-1.363-.325-2.169-.325-1.707 0-2.557.46-2.557 1.377 0 .368.157.664.471.89.313.226.711.401 1.194.526.481.125 1.161.28 2.036.464 1.211.25 2.22.51 3.026.777a5.19 5.19 0 012.053 1.227c.56.552.841 1.278.841 2.181 0 .818-.324 1.532-.975 2.142-.65.61-1.486 1.074-2.505 1.391a10.544 10.544 0 01-3.147.477c-1.48 0-2.859-.185-4.137-.55-1.279-.369-2.322-.962-3.127-1.78a1.009 1.009 0 01-.307-.752z" fill="#000"/><path d="M154.905 22.841c-.346-.257-.52-.63-.52-1.114v-.425c0-.485.174-.857.52-1.116.349-.259.849-.388 1.5-.388h.436c.651 0 1.149.13 1.497.388.349.26.522.631.522 1.116v.425c0 .484-.174.857-.522 1.114-.348.261-.846.39-1.497.39h-.436c-.652-.002-1.152-.129-1.5-.39zm21.952-12.353c1.254.594 2.248 1.417 2.978 2.47.729 1.051 1.092 2.246 1.092 3.582 0 1.336-.358 2.534-1.075 3.596-.718 1.061-1.699 1.888-2.942 2.48-1.247.594-2.62.89-4.122.89a9.359 9.359 0 01-3.046-.489c-.954-.325-1.743-.722-2.371-1.19v.15c0 .435-.193.8-.572 1.091-.383.291-.865.438-1.447.438-.584 0-1.066-.142-1.447-.427-.382-.283-.572-.65-.572-1.103V6.241c0-.433.19-.797.572-1.089.381-.293.862-.438 1.447-.438.581 0 1.064.146 1.447.438.379.292.572.656.572 1.09v5.236c.538-.5 1.29-.939 2.254-1.315a8.26 8.26 0 013.027-.564c1.546 0 2.949.297 4.205.89zm-1.18 9.06c.922-.803 1.381-1.805 1.381-3.008 0-1.202-.454-2.2-1.363-2.994-.907-.793-2.092-1.19-3.548-1.19-1.457 0-2.646.397-3.565 1.19-.92.793-1.379 1.792-1.379 2.994 0 1.203.459 2.205 1.379 3.007.919.802 2.108 1.202 3.565 1.202 1.435 0 2.612-.4 3.53-1.202zm23.752-9.258c.382.292.572.653.572 1.088v10.648c0 2.173-.784 3.756-2.355 4.75-1.569.992-3.666 1.49-6.29 1.49-.762 0-1.541-.047-2.337-.138-.796-.093-1.441-.213-1.934-.363-1.099-.352-1.649-.836-1.649-1.453 0-.117.035-.25.102-.4a1.57 1.57 0 01.688-.84 2.037 2.037 0 011.059-.289c.225 0 .439.025.641.075.156.051.43.135.824.251.392.116.807.213 1.244.288.437.075.891.113 1.36.113 1.595 0 2.766-.256 3.517-.765.75-.51 1.126-1.382 1.126-2.618v-.25c-1.167 1.085-2.984 1.628-5.449 1.628-1.168 0-2.198-.206-3.096-.614-.897-.409-1.593-.977-2.085-1.704-.495-.726-.741-1.557-.741-2.492v-7.317c0-.435.191-.796.572-1.089.382-.293.863-.438 1.447-.438.583 0 1.066.146 1.447.438.38.292.573.654.573 1.09v6.413c0 1.054.307 1.81.925 2.27.617.46 1.519.687 2.708.687 1.166 0 2.067-.254 2.708-.764.64-.51.959-1.24.959-2.193v-6.414c0-.435.191-.796.573-1.089.381-.293.863-.438 1.447-.438.584 0 1.063.145 1.444.438zM34.734.5c1.68 0 3.057 1.045 3.057 2.319v23.362c0 1.274-1.377 2.318-3.057 2.318h-2.346c-1.68 0-3.058-1.044-3.058-2.318V2.819C29.33 1.545 30.707.5 32.39.5h2.345zM20.047 4c1.693 0 3.078 1.052 3.078 2.338v16.324c0 1.285-1.385 2.338-3.078 2.338h-2.3c-1.694 0-3.079-1.053-3.079-2.338V6.338C14.668 5.052 16.053 4 17.746 4h2.3zM5.484 7.5c1.634 0 2.973 1.016 2.973 2.257v9.487c0 1.24-1.339 2.257-2.973 2.257H2.973C1.339 21.501 0 20.484 0 19.244V9.757C0 8.516 1.339 7.5 2.973 7.5h2.511z" fill="#F74141"/></g><defs><clipPath id="clip0_76_2746"><path fill="#fff" transform="translate(0 .5)" d="M0 0h200v28H0z"/></clipPath></defs></svg>