<svg viewBox="0 0 20 20" xmlns="http://www.w3.org/2000/svg" xmlns:xlink="http://www.w3.org/1999/xlink"><style>:root&gt;svg{display:none}:root&gt;svg:target{display:block}</style><svg viewBox="0 0 12 17" id="mark" xmlns="http://www.w3.org/2000/svg"><path d="M6 .25c-3.317 0-6 2.582-6 5.775C0 10.356 6 16.75 6 16.75s6-6.394 6-10.725C12 2.832 9.317.25 6 .25zm0 7.838c-1.183 0-2.143-.924-2.143-2.063 0-1.139.96-2.063 2.143-2.063 1.183 0 2.143.924 2.143 2.063 0 1.138-.96 2.063-2.143 2.063z"/></svg><svg fill="none" viewBox="0 0 20 20" id="teleg" xmlns="http://www.w3.org/2000/svg"><path d="M10 0C4.475 0 0 4.476 0 10s4.476 10 10 10 10-4.476 10-10S15.524 0 10 0zm4.912 6.851l-1.642 7.734c-.121.548-.447.681-.903.423l-2.5-1.842-1.206 1.161c-.133.133-.246.246-.504.246l.178-2.545 4.633-4.185c.202-.178-.045-.278-.311-.101L6.93 11.347l-2.468-.77c-.536-.17-.548-.537.113-.795l9.641-3.718c.448-.161.84.109.694.786v.001z" fill="#fff"/></svg><svg fill="none" viewBox="0 0 16 15" id="user" xmlns="http://www.w3.org/2000/svg"><path d="M7.968 8.864c-2.51 0-7.5 1.377-7.5 4.09V15h15v-2.046c0-2.713-4.991-4.09-7.5-4.09zm1.65-2.482c1.036-.587 1.759-1.691 1.759-2.973a3.41 3.41 0 00-6.818 0c0 1.282.722 2.386 1.759 2.973.49.273 1.05.436 1.65.436.6 0 1.159-.163 1.65-.436z" fill="#000"/></svg><svg fill="none" viewBox="0 0 20 20" id="whatsapp" xmlns="http://www.w3.org/2000/svg"><g clip-path="url(#dclip0_407_6668)"><path d="M17.001 2.908A9.817 9.817 0 009.992 0C4.534 0 .085 4.448.08 9.908c0 1.748.457 3.45 1.321 4.956L0 20l5.255-1.377a9.916 9.916 0 004.737 1.206h.005c5.46 0 9.908-4.448 9.913-9.913A9.872 9.872 0 0017 2.908h.001zM9.992 18.15A8.216 8.216 0 015.797 17l-.3-.18-3.117.818.833-3.041-.196-.314a8.2 8.2 0 01-1.257-4.38c0-4.533 3.696-8.23 8.239-8.23a8.2 8.2 0 015.825 2.413 8.196 8.196 0 012.41 5.825c-.006 4.55-3.702 8.24-8.24 8.24zm4.52-6.167c-.247-.124-1.463-.723-1.692-.808-.228-.08-.394-.123-.556.124-.166.246-.641.808-.784.969-.143.166-.29.185-.537.062-.247-.125-1.045-.385-1.99-1.23-.738-.657-1.232-1.47-1.38-1.716-.142-.247-.013-.38.11-.504.11-.11.247-.29.37-.432.126-.143.167-.248.248-.413.082-.167.043-.31-.018-.433-.063-.124-.557-1.345-.765-1.838-.2-.486-.404-.419-.557-.425-.142-.009-.309-.009-.475-.009a.911.911 0 00-.661.31c-.228.247-.864.845-.864 2.067 0 1.22.888 2.395 1.013 2.56.122.167 1.742 2.666 4.229 3.74.587.257 1.05.408 1.41.523.595.19 1.13.162 1.558.1.475-.072 1.464-.6 1.673-1.178.205-.58.205-1.075.142-1.18-.061-.104-.227-.165-.475-.29z" fill="#fff"/></g><defs><clipPath id="dclip0_407_6668"><path fill="#fff" d="M0 0h20v20H0z"/></clipPath></defs></svg></svg>