<svg viewBox="0 0 16 17" xmlns="http://www.w3.org/2000/svg" xmlns:xlink="http://www.w3.org/1999/xlink"><style>:root&gt;svg{display:none}:root&gt;svg:target{display:block}</style><svg viewBox="0 0 12 17" id="mark" xmlns="http://www.w3.org/2000/svg"><path d="M6 .25c-3.317 0-6 2.582-6 5.775C0 10.356 6 16.75 6 16.75s6-6.394 6-10.725C12 2.832 9.317.25 6 .25zm0 7.838c-1.183 0-2.143-.924-2.143-2.063 0-1.139.96-2.063 2.143-2.063 1.183 0 2.143.924 2.143 2.063 0 1.138-.96 2.063-2.143 2.063z"/></svg><svg fill="none" viewBox="0 0 16 15" id="user" xmlns="http://www.w3.org/2000/svg"><path d="M7.968 8.864c-2.51 0-7.5 1.377-7.5 4.09V15h15v-2.046c0-2.713-4.991-4.09-7.5-4.09zm1.65-2.482c1.036-.587 1.759-1.691 1.759-2.973a3.41 3.41 0 00-6.818 0c0 1.282.722 2.386 1.759 2.973.49.273 1.05.436 1.65.436.6 0 1.159-.163 1.65-.436z" fill="#000"/></svg></svg>