<svg viewBox="0 0 20 20" xmlns="http://www.w3.org/2000/svg" xmlns:xlink="http://www.w3.org/1999/xlink"><style>:root&gt;svg{display:none}:root&gt;svg:target{display:block}</style><svg viewBox="0 0 12 17" id="mark" xmlns="http://www.w3.org/2000/svg"><path d="M6 .25c-3.317 0-6 2.582-6 5.775C0 10.356 6 16.75 6 16.75s6-6.394 6-10.725C12 2.832 9.317.25 6 .25zm0 7.838c-1.183 0-2.143-.924-2.143-2.063 0-1.139.96-2.063 2.143-2.063 1.183 0 2.143.924 2.143 2.063 0 1.138-.96 2.063-2.143 2.063z"/></svg><svg fill="none" viewBox="0 0 20 20" id="teleg" xmlns="http://www.w3.org/2000/svg"><path d="M10 0C4.475 0 0 4.476 0 10s4.476 10 10 10 10-4.476 10-10S15.524 0 10 0zm4.912 6.851l-1.642 7.734c-.121.548-.447.681-.903.423l-2.5-1.842-1.206 1.161c-.133.133-.246.246-.504.246l.178-2.545 4.633-4.185c.202-.178-.045-.278-.311-.101L6.93 11.347l-2.468-.77c-.536-.17-.548-.537.113-.795l9.641-3.718c.448-.161.84.109.694.786v.001z" fill="#fff"/></svg><svg fill="none" viewBox="0 0 16 15" id="user" xmlns="http://www.w3.org/2000/svg"><path d="M7.968 8.864c-2.51 0-7.5 1.377-7.5 4.09V15h15v-2.046c0-2.713-4.991-4.09-7.5-4.09zm1.65-2.482c1.036-.587 1.759-1.691 1.759-2.973a3.41 3.41 0 00-6.818 0c0 1.282.722 2.386 1.759 2.973.49.273 1.05.436 1.65.436.6 0 1.159-.163 1.65-.436z" fill="#000"/></svg><svg fill="none" viewBox="0 0 20 20" id="whatsapp" xmlns="http://www.w3.org/2000/svg"><path d="M.004 20l1.352-4.968A9.954 9.954 0 010 10C0 4.477 4.477 0 10 0s10 4.477 10 10-4.477 10-10 10a9.953 9.953 0 01-5.03-1.355L.004 20zM6.391 5.308a.961.961 0 00-.371.1 1.293 1.293 0 00-.294.228c-.12.113-.188.211-.261.306A2.729 2.729 0 004.9 7.62c.002.49.13.967.33 1.413.409.902 1.082 1.857 1.971 2.742.214.213.423.427.648.626a9.448 9.448 0 003.84 2.046l.569.087c.185.01.37-.004.556-.013a1.99 1.99 0 00.833-.231c.131-.067.259-.14.383-.22 0 0 .043-.028.125-.09.135-.1.218-.171.33-.288.083-.086.155-.187.21-.302.078-.163.156-.474.188-.733.024-.198.017-.306.014-.373-.004-.107-.093-.218-.19-.265l-.582-.261s-.87-.379-1.401-.621a.498.498 0 00-.177-.041.482.482 0 00-.378.127v-.002c-.005 0-.072.057-.795.933a.35.35 0 01-.368.13 1.418 1.418 0 01-.191-.066c-.124-.052-.167-.072-.252-.109l-.005-.002a6.012 6.012 0 01-1.57-1c-.126-.11-.243-.23-.363-.346a6.297 6.297 0 01-1.02-1.268l-.059-.095a.923.923 0 01-.102-.205c-.038-.147.061-.265.061-.265s.243-.266.356-.41c.094-.12.182-.244.263-.373.118-.19.155-.385.093-.536-.28-.684-.57-1.365-.868-2.041-.059-.134-.234-.23-.393-.249a4.439 4.439 0 00-.162-.016 3.385 3.385 0 00-.403.004v.001z" fill="#fff"/></svg></svg>