<svg viewBox="0 0 1024 1024" xmlns="http://www.w3.org/2000/svg" xmlns:xlink="http://www.w3.org/1999/xlink"><style>:root&gt;svg{display:none}:root&gt;svg:target{display:block}</style><svg viewBox="0 0 251.882 251.882" id="add" xmlns="http://www.w3.org/2000/svg"><path d="M215.037 36.846c-49.129-49.128-129.063-49.128-178.191 0-49.127 49.127-49.127 129.063 0 178.19 24.564 24.564 56.83 36.846 89.096 36.846s64.531-12.282 89.096-36.846c49.126-49.127 49.126-129.063-.001-178.19zM49.574 202.309C7.465 160.2 7.465 91.683 49.574 49.574c21.055-21.054 48.711-31.582 76.367-31.582s55.313 10.527 76.367 31.582c42.109 42.109 42.109 110.626 0 152.735-42.109 42.108-110.625 42.108-152.734 0z"/><path d="M194.823 116.941h-59.882V57.059c0-4.971-4.029-9-9-9s-9 4.029-9 9v59.882H57.059c-4.971 0-9 4.029-9 9s4.029 9 9 9h59.882v59.882c0 4.971 4.029 9 9 9s9-4.029 9-9v-59.882h59.882c4.971 0 9-4.029 9-9s-4.029-9-9-9z"/></svg><svg viewBox="0 0 480 480" id="chart" xmlns="http://www.w3.org/2000/svg"><path d="M470 444.538h-82.773v-82.773c0-5.523-4.478-10-10-10H330.84c-5.522 0-10 4.477-10 10v82.773h-26.386v-129.16c0-5.523-4.478-10-10-10h-46.387c-5.523 0-10 4.477-10 10v129.16H201.68V272.857c0-5.523-4.477-10-10-10h-42.52c-5.523 0-10 4.477-10 10v171.681h-26.386V195.547c0-5.523-4.477-10-10-10H56.387c-5.523 0-10 4.477-10 10v248.991H20V25.462c0-5.523-4.477-10-10-10s-10 4.477-10 10v429.076c0 5.523 4.477 10 10 10h460c5.522 0 10-4.477 10-10s-4.478-10-10-10zm-377.226 0H66.387V205.547h26.387v238.991zm88.907 0H159.16V282.857h22.521v161.681zm92.773 0h-26.387v-119.16h26.387v119.16zm92.773 0H340.84v-72.773h26.387v72.773z"/><path d="M134.038 130.357c.041.552.125 1.099.256 1.637l7.04 37.552c.901 4.806 5.1 8.159 9.817 8.159.611 0 1.231-.057 1.854-.173 5.428-1.018 9.004-6.243 7.986-11.671l-2.825-15.068 261.531 170.323a9.944 9.944 0 005.447 1.622 9.994 9.994 0 008.39-4.544c3.014-4.628 1.705-10.823-2.923-13.836L170.102 134.699l15.064-2.877c5.425-1.036 8.982-6.273 7.946-11.698s-6.277-8.982-11.698-7.946l-39.29 7.504c-4.55.869-7.777 4.697-8.089 9.112l-.007.1a9.952 9.952 0 00-.02.67c-.001.241.009.48.025.72l.005.073z"/></svg><svg viewBox="0 0 331.783 331.783" id="notice" xmlns="http://www.w3.org/2000/svg"><path d="M309.28 215.116h-29.872v-80.847c0-41.648-27.425-77.007-65.162-88.979C213.534 20.198 192.914 0 167.652 0h-.791c-24.983 0-45.436 19.753-46.572 44.46-39.15 11.092-67.915 47.154-67.915 89.809v80.847H22.503v76.667h96.486c3.607 22.64 23.263 40 46.902 40s43.295-17.36 46.902-40h96.486v-76.667h.001zM166.861 15h.791c15.809 0 28.946 11.659 31.264 26.83a93.71 93.71 0 00-12.835-.887H145.7c-3.392 0-6.742.187-10.041.542C138.123 26.484 151.173 15 166.861 15zm-.97 301.782c-15.339 0-28.221-10.685-31.617-25h63.234c-3.396 14.315-16.278 25-31.617 25zm128.389-40H37.503v-46.667h29.872v-95.847c0-43.189 35.137-78.326 78.326-78.326h40.381c43.189 0 78.326 35.137 78.326 78.326v95.847h29.872v46.667z"/></svg><svg class="dicon" viewBox="0 0 1024 1024" id="setting" xmlns="http://www.w3.org/2000/svg"><path d="M600.704 64a32 32 0 0130.464 22.208l35.2 109.376c14.784 7.232 28.928 15.36 42.432 24.512l112.384-24.192a32 32 0 0134.432 15.36L944.32 364.8a32 32 0 01-4.032 37.504l-77.12 85.12a357.12 357.12 0 010 49.024l77.12 85.248a32 32 0 014.032 37.504l-88.704 153.6a32 32 0 01-34.432 15.296L708.8 803.904c-13.44 9.088-27.648 17.28-42.368 24.512l-35.264 109.376A32 32 0 01600.704 960H423.296a32 32 0 01-30.464-22.208L357.696 828.48a351.616 351.616 0 01-42.56-24.64l-112.32 24.256a32 32 0 01-34.432-15.36L79.68 659.2a32 32 0 014.032-37.504l77.12-85.248a357.12 357.12 0 010-48.896l-77.12-85.248A32 32 0 0179.68 364.8l88.704-153.6a32 32 0 0134.432-15.296l112.32 24.256c13.568-9.152 27.776-17.408 42.56-24.64l35.2-109.312A32 32 0 01423.232 64H600.64zm-23.424 64H446.72l-36.352 113.088-24.512 11.968a294.113 294.113 0 00-34.816 20.096l-22.656 15.36-116.224-25.088-65.28 113.152 79.68 88.192-1.92 27.136a293.12 293.12 0 000 40.192l1.92 27.136-79.808 88.192 65.344 113.152 116.224-25.024 22.656 15.296a294.113 294.113 0 0034.816 20.096l24.512 11.968L446.72 896h130.688l36.48-113.152 24.448-11.904a288.282 288.282 0 0034.752-20.096l22.592-15.296 116.288 25.024 65.28-113.152-79.744-88.192 1.92-27.136a293.12 293.12 0 000-40.256l-1.92-27.136 79.808-88.128-65.344-113.152-116.288 24.96-22.592-15.232a287.616 287.616 0 00-34.752-20.096l-24.448-11.904L577.344 128zM512 320a192 192 0 110 384 192 192 0 010-384zm0 64a128 128 0 100 256 128 128 0 000-256z"/></svg><svg viewBox="0 0 482.6 482.6" id="tel" xmlns="http://www.w3.org/2000/svg"><path d="M98.339 320.8c47.6 56.9 104.9 101.7 170.3 133.4 24.9 11.8 58.2 25.8 95.3 28.2 2.3.1 4.5.2 6.8.2 24.9 0 44.9-8.6 61.2-26.3.1-.1.3-.3.4-.5 5.8-7 12.4-13.3 19.3-20 4.7-4.5 9.5-9.2 14.1-14 21.3-22.2 21.3-50.4-.2-71.9l-60.1-60.1c-10.2-10.6-22.4-16.2-35.2-16.2-12.8 0-25.1 5.6-35.6 16.1l-35.8 35.8c-3.3-1.9-6.7-3.6-9.9-5.2-4-2-7.7-3.9-11-6-32.6-20.7-62.2-47.7-90.5-82.4-14.3-18.1-23.9-33.3-30.6-48.8 9.4-8.5 18.2-17.4 26.7-26.1 3-3.1 6.1-6.2 9.2-9.3 10.8-10.8 16.6-23.3 16.6-36s-5.7-25.2-16.6-36l-29.8-29.8c-3.5-3.5-6.8-6.9-10.2-10.4-6.6-6.8-13.5-13.8-20.3-20.1-10.3-10.1-22.4-15.4-35.2-15.4-12.7 0-24.9 5.3-35.6 15.5l-37.4 37.4c-13.6 13.6-21.3 30.1-22.9 49.2-1.9 23.9 2.5 49.3 13.9 80 17.5 47.5 43.9 91.6 83.1 138.7zm-72.6-216.6c1.2-13.3 6.3-24.4 15.9-34l37.2-37.2c5.8-5.6 12.2-8.5 18.4-8.5 6.1 0 12.3 2.9 18 8.7 6.7 6.2 13 12.7 19.8 19.6 3.4 3.5 6.9 7 10.4 10.6l29.8 29.8c6.2 6.2 9.4 12.5 9.4 18.7s-3.2 12.5-9.4 18.7c-3.1 3.1-6.2 6.3-9.3 9.4-9.3 9.4-18 18.3-27.6 26.8l-.5.5c-8.3 8.3-7 16.2-5 22.2.1.3.2.5.3.8 7.7 18.5 18.4 36.1 35.1 57.1 30 37 61.6 65.7 96.4 87.8 4.3 2.8 8.9 5 13.2 7.2 4 2 7.7 3.9 11 6 .4.2.7.4 1.1.6 3.3 1.7 6.5 2.5 9.7 2.5 8 0 13.2-5.1 14.9-6.8l37.4-37.4c5.8-5.8 12.1-8.9 18.3-8.9 7.6 0 13.8 4.7 17.7 8.9l60.3 60.2c12 12 11.9 25-.3 37.7-4.2 4.5-8.6 8.8-13.3 13.3-7 6.8-14.3 13.8-20.9 21.7-11.5 12.4-25.2 18.2-42.9 18.2-1.7 0-3.5-.1-5.2-.2-32.8-2.1-63.3-14.9-86.2-25.8-62.2-30.1-116.8-72.8-162.1-127-37.3-44.9-62.4-86.7-79-131.5-10.3-27.5-14.2-49.6-12.6-69.7z"/></svg><svg viewBox="0 0 489 489" id="user" xmlns="http://www.w3.org/2000/svg"><path d="M417.4 71.6C371.2 25.4 309.8 0 244.5 0S117.8 25.4 71.6 71.6 0 179.2 0 244.5s25.4 126.7 71.6 172.9S179.2 489 244.5 489s126.7-25.4 172.9-71.6S489 309.8 489 244.5s-25.4-126.7-71.6-172.9zM244.5 462C124.6 462 27 364.4 27 244.5S124.6 27 244.5 27 462 124.6 462 244.5 364.4 462 244.5 462z"/><path d="M244.5 203.2c35.1 0 63.6-28.6 63.6-63.6s-28.5-63.7-63.6-63.7-63.6 28.6-63.6 63.6 28.5 63.7 63.6 63.7zm0-100.3c20.2 0 36.6 16.4 36.6 36.6s-16.4 36.6-36.6 36.6-36.6-16.4-36.6-36.6 16.4-36.6 36.6-36.6zm96.4 177.6c-22.3-32.8-54.7-49.5-96.4-49.5s-74.1 16.6-96.4 49.5c-16.6 24.4-27.2 57.7-31.4 98.7-.8 7.4 4.6 14.1 12 14.8 7.4.8 14.1-4.6 14.8-12 8.5-82.3 42.5-124 101-124s92.5 41.7 101 124c.7 6.9 6.6 12.1 13.4 12.1.5 0 .9 0 1.4-.1 7.4-.8 12.8-7.4 12-14.8-4.2-41.1-14.8-74.3-31.4-98.7z"/></svg></svg>