<svg width="32" height="32" xmlns="http://www.w3.org/2000/svg"><path d="M30.246 21.284a1.718 1.718 0 01-1.235-.534 1.853 1.853 0 01-.511-1.285c0-.481.185-.943.513-1.283a1.72 1.72 0 011.236-.533c.463 0 .908.19 1.236.53.329.34.514.802.515 1.284 0 .483-.185.946-.514 1.288a1.722 1.722 0 01-1.24.534zm0-3.134c-.336 0-.659.139-.897.386a1.343 1.343 0 00-.371.93c0 .35.133.685.371.932s.56.386.897.386c.337 0 .659-.139.897-.386s.371-.582.371-.931a1.342 1.342 0 00-.37-.934 1.245 1.245 0 00-.898-.387v.004zm-14.14 6.79a3.735 3.735 0 011.976-2.335c.928-.369 2.247-.39 2.508-1.382a3.153 3.153 0 00-.134-1.346c-.308-1.826 1.082-3.783 2.852-4.066a1.53 1.53 0 011.28.267c.396.353.463.96.463 1.501a2.99 2.99 0 00.257 1.584c.268.435 1.141.628 1.473.254a12.748 12.748 0 00-.482-8.238l-.126.074-1.506.989c-.324.213-.734.43-1.07.242a1.334 1.334 0 01-.419-.521c-.646-1.051-1.758-1.693-2.959-1.707-.75 0-1.647.205-2.133-.386a2.29 2.29 0 01-.336-1.304c-.114-1.46-1.584-3.643-2.343-4.874-2.44 0-4.823.782-6.82 2.24a12.265 12.265 0 00-4.336 5.908l.07-.054a7.246 7.246 0 014.959.152 3 3 0 001.082.275c.238-.01.47-.074.68-.189.925-.484 1.406-1.64 2.37-2.051 1.205-.587 2.785.587 2.699 1.97-.115 1.583-1.976 2.892-1.427 4.377.206.566.72.936 1.08 1.415.359.48.52 1.256.062 1.641-.56.452-1.466-.143-2.066.25-.364.243-.454.743-.684 1.125-.6.992-2.33.783-2.694-.329-.174-.537-.09-1.23-.502-1.587-.58-.53-1.453.061-1.999.627l-2.635 2.733-.063.04a12.083 12.083 0 004.334 4.449 11.513 11.513 0 005.89 1.624h.273l-.028-.193a11.63 11.63 0 01.454-3.176z"/><path d="M15.407 28.718a11.954 11.954 0 01-6.083-1.69 12.54 12.54 0 01-4.48-4.595l-.19-.337.34-.233L7.6 19.159c.936-.972 1.908-1.23 2.536-.648.32.337.508.784.53 1.255.02.174.054.346.102.513.178.374.526.63.925.678a1.16 1.16 0 001.05-.436 3.06 3.06 0 00.174-.357c.12-.352.34-.66.629-.882.391-.21.842-.27 1.272-.168.253.072.522.05.762-.062a.357.357 0 00.123-.25 1.215 1.215 0 00-.257-.82 5.523 5.523 0 00-.395-.41 3.245 3.245 0 01-.763-1.092c-.395-1.03.154-1.932.668-2.802.381-.525.64-1.134.758-1.78a1.734 1.734 0 00-.7-1.359 1.6 1.6 0 00-1.469-.225c-.42.24-.79.564-1.086.956a4.53 4.53 0 01-1.248 1.103 1.91 1.91 0 01-.846.234 2.877 2.877 0 01-1.09-.246l-.13-.053a6.835 6.835 0 00-4.642-.168l-1.075.865.45-1.305a12.706 12.706 0 014.485-6.097 11.969 11.969 0 017.043-2.321h.217l.396.627c.853 1.358 2.022 3.221 2.129 4.62v.107a1.78 1.78 0 00.237.964c.265.32.79.291 1.36.258h.473c1.344.004 2.593.72 3.31 1.9l.044.078a.91.91 0 00.23.303c.173.099.549-.147.671-.23l1.647-1.074.396-.226.173.41a13.176 13.176 0 01.482 8.509l-.027.095-.063.073a1.111 1.111 0 01-.965.32 1.51 1.51 0 01-1.13-.632 3.056 3.056 0 01-.32-1.67v-.135c0-.623-.102-.989-.327-1.19a1.225 1.225 0 00-.964-.172 3.07 3.07 0 00-2.003 1.346 3.07 3.07 0 00-.526 2.24c0 .098.04.197.063.3.122.397.143.821.064 1.23-.253.96-1.186 1.21-1.995 1.428a6.896 6.896 0 00-.755.23 3.303 3.303 0 00-1.754 2.088c-.28.977-.426 1.991-.43 3.011l.086.615h-.54l-.179.013zm-9.714-6.416c2.074 3.428 5.678 5.534 9.576 5.596.01-1.05.168-2.091.466-3.094a4.103 4.103 0 012.216-2.58c.275-.103.554-.189.838-.259.79-.217 1.308-.381 1.43-.849a1.853 1.853 0 00-.071-.82c-.024-.111-.051-.222-.071-.333a3.917 3.917 0 01.66-2.872c.59-.89 1.5-1.496 2.524-1.682.559-.132 1.145 0 1.6.361.537.48.6 1.264.6 1.814v.135c-.045.421.022.847.194 1.231.14.155.333.248.537.258a.559.559 0 00.261-.028 12.332 12.332 0 00-.328-7.385l-1.228.82c-.265.176-.89.587-1.47.255a1.5 1.5 0 01-.514-.628l-.04-.07a3.11 3.11 0 00-2.634-1.506h-.435c-.66.037-1.481.082-1.999-.545a2.43 2.43 0 01-.422-1.424v-.102C17.291 7.4 16.142 5.57 15.38 4.357l-.158-.255a11.196 11.196 0 00-6.13 1.994 11.83 11.83 0 00-4.142 5.1 7.705 7.705 0 014.484.352l.138.053a2.3 2.3 0 00.79.202 1.15 1.15 0 00.51-.144 3.905 3.905 0 001.023-.927 4.243 4.243 0 011.347-1.149 2.359 2.359 0 012.246.303 2.558 2.558 0 011.033 2.093 4.969 4.969 0 01-.845 2.117c-.454.767-.845 1.428-.604 2.084.142.311.342.59.588.82.152.158.296.324.43.497.293.39.436.88.4 1.375-.025.322-.178.62-.423.82-.398.258-.88.34-1.335.226a1.24 1.24 0 00-.763.045 1.237 1.237 0 00-.336.55 3.6 3.6 0 01-.201.443 1.972 1.972 0 01-1.13.774 1.91 1.91 0 01-1.343-.162 2.02 2.02 0 01-.928-1.023 3.878 3.878 0 01-.155-.656 1.313 1.313 0 00-.252-.76c-.368-.331-1.087.226-1.458.612l-2.473 2.56zm23.245-.025l.542.25c.1-.248.202-.51.308-.783l-.553-.21c-.093.25-.191.497-.297.743zM30.222 16v.504h.592v-.525c0-.385 0-.775-.039-1.157l-.592.046c.027.385.039.758.039 1.132zM3.121 6.347c-.326.448-.63.913-.909 1.395l.506.32c.27-.463.562-.91.877-1.342l-.474-.373zm-.292 18.897c.313.458.65.899 1.007 1.32l.447-.41c-.344-.406-.667-.83-.968-1.272l-.486.361zm2.137 2.523c.398.38.814.739 1.248 1.075l.356-.493a15.116 15.116 0 01-1.185-1.034l-.42.452zM7.992 1.973c-.474.275-.934.574-1.378.899l.34.504a14.78 14.78 0 011.342-.865l-.304-.538zM5.72 4.357l-.395-.464c-.414.367-.81.756-1.185 1.165l.431.41c.364-.39.748-.762 1.15-1.111zM.869 18.98l-.58.118c.103.554.235 1.102.394 1.641l.565-.18c-.153-.52-.28-1.047-.379-1.58zm.375 3.33c.218.517.462 1.02.731 1.51l.518-.3a15.693 15.693 0 01-.691-1.452l-.558.242zM.592 16v-.242H0v.255c0 .476.02.956.06 1.427l.588-.053A18.165 18.165 0 01.592 16zm29.077-6.06a16.268 16.268 0 00-.691-1.522l-.534.292c.248.475.47.964.668 1.464l.557-.233zm.324 3.34l.585-.107c-.095-.553-.218-1.1-.368-1.64l-.58.168c.147.519.269 1.046.363 1.579zm-1.857-6.306c-.305-.463-.634-.91-.984-1.337l-.45.41c.338.41.656.837.952 1.28l.482-.353zM.968 12.546l-.573-.135c-.12.541-.215 1.09-.28 1.64l.588.074c.062-.53.15-1.058.265-1.58v.001zM1.975 9.49l-.537-.263c-.23.51-.433 1.03-.609 1.563l.561.2c.17-.51.365-1.011.585-1.5zm5.59 20.287c.466.286.946.546 1.438.78l.245-.558a14.599 14.599 0 01-1.382-.751l-.3.53zm15.19-.415l.297.534c.469-.279.924-.583 1.363-.911l-.348-.5c-.422.316-.86.609-1.312.877zm3.284-24.944a15.78 15.78 0 00-1.229-1.095l-.363.488c.412.33.808.682 1.185 1.055l.407-.448zM10.978.673c-.518.158-1.029.344-1.529.558l.23.566c.479-.208.968-.39 1.465-.546l-.166-.578zm8.929 29.99l.182.586c.516-.17 1.022-.369 1.517-.595l-.237-.562a14.38 14.38 0 01-1.462.57zm7.466-5.588l.478.36c.32-.453.617-.924.89-1.41l-.514-.308a15.49 15.49 0 01-.854 1.358zm-2.089 2.412l.395.46c.402-.374.786-.77 1.15-1.186l-.44-.41a15.39 15.39 0 01-1.105 1.136zM20.543.91c-.51-.186-1.03-.345-1.556-.475l-.139.599c.507.125 1.007.279 1.498.46l.197-.584zm2.927 1.453a15.29 15.29 0 00-1.426-.82l-.256.553c.47.233.93.492 1.375.776l.308-.51zM10.513 31.18c.518.18 1.046.33 1.58.451l.126-.599a14.4 14.4 0 01-1.501-.43l-.205.578zm6.344.131l.055.611a14.943 14.943 0 001.604-.25l-.118-.603a14.31 14.31 0 01-1.541.242zM14.163.053c-.54.045-1.076.119-1.608.222l.11.603c.516-.1 1.035-.17 1.557-.214l-.06-.61zm3.22.078a15.054 15.054 0 00-1.6-.131v.615c.52.013 1.04.054 1.556.123l.044-.607zm-3.706 31.77a15.12 15.12 0 001.62.099v-.616a14.22 14.22 0 01-1.557-.094l-.063.611z"/><path d="M15.34 28.718l-.083-.595v-.04a11.89 11.89 0 01.475-3.283 4.104 4.104 0 012.216-2.58c.274-.103.554-.19.837-.259.79-.217 1.308-.381 1.43-.85a1.86 1.86 0 00-.07-.82c-.024-.11-.052-.221-.072-.332a3.916 3.916 0 01.66-2.872 3.86 3.86 0 012.524-1.682c.559-.132 1.145 0 1.6.361.538.48.6 1.264.6 1.814v.135c-.045.42.022.847.194 1.23.14.156.333.248.538.259a.42.42 0 00.312-.062l1.126-1.255-.459 1.64v.001c-.714 2.606-2.215 4.906-4.281 6.56a11.905 11.905 0 01-7.199 2.63h-.348zm8.364-12.53c-.108 0-.215.009-.32.025a3.071 3.071 0 00-2.003 1.346 3.07 3.07 0 00-.526 2.24c0 .098.04.197.063.3.122.398.143.821.063 1.23-.253.96-1.185 1.21-1.995 1.428a6.943 6.943 0 00-.754.23 3.305 3.305 0 00-1.754 2.088 10.38 10.38 0 00-.42 2.798 11.135 11.135 0 006.213-2.333 11.813 11.813 0 003.921-5.52h-.07a1.51 1.51 0 01-1.13-.631 3.06 3.06 0 01-.32-1.67v-.136c0-.623-.103-.988-.329-1.19a.964.964 0 00-.64-.205zM5.057 22.806l-.214-.373a13.06 13.06 0 01-1.63-5.255 13.174 13.174 0 01.666-5.478l.04-.114.217-.173.067-.02a7.656 7.656 0 015.207.155l.139.053a2.3 2.3 0 00.79.202c.178-.008.352-.057.51-.144a3.905 3.905 0 001.022-.927 4.243 4.243 0 011.348-1.149 2.358 2.358 0 012.246.303 2.558 2.558 0 011.033 2.093 4.967 4.967 0 01-.846 2.117c-.454.767-.845 1.428-.604 2.084.142.311.342.59.588.82.152.158.296.324.431.497.301.387.452.878.423 1.375-.025.322-.178.62-.423.82a1.69 1.69 0 01-1.335.226 1.24 1.24 0 00-.763.045 1.237 1.237 0 00-.336.55 3.6 3.6 0 01-.201.443 1.972 1.972 0 01-1.13.774 1.91 1.91 0 01-1.343-.162 2.02 2.02 0 01-.928-1.023 3.87 3.87 0 01-.154-.656 1.313 1.313 0 00-.253-.759c-.368-.332-1.087.226-1.458.611L5.4 22.568l-.343.238zM4.57 12.139a12.312 12.312 0 00.71 9.437l2.32-2.405c.936-.972 1.908-1.23 2.536-.648.316.334.505.776.53 1.243.02.174.054.345.102.513.178.374.525.63.925.678a1.16 1.16 0 001.05-.436 3.06 3.06 0 00.174-.357c.12-.353.34-.66.629-.882.391-.21.842-.27 1.271-.168.254.072.523.05.763-.062a.357.357 0 00.122-.25 1.215 1.215 0 00-.256-.82 5.562 5.562 0 00-.395-.41 3.244 3.244 0 01-.763-1.092c-.395-1.03.154-1.932.668-2.802.381-.525.64-1.135.758-1.78a1.734 1.734 0 00-.7-1.359 1.6 1.6 0 00-1.469-.225c-.42.24-.79.564-1.086.956a4.54 4.54 0 01-1.248 1.103 1.92 1.92 0 01-.846.234 2.875 2.875 0 01-1.09-.246l-.13-.053a6.832 6.832 0 00-4.575-.173v.004zm19.327.83a.954.954 0 01-.474-.123 1.493 1.493 0 01-.51-.604l-.04-.07v.001a3.11 3.11 0 00-2.634-1.506h-.435c-.66.037-1.481.082-1.999-.546a2.43 2.43 0 01-.423-1.423v-.103c-.09-1.194-1.24-3.023-2.003-4.238l-.695-1.075h.723c2.402 0 4.751.732 6.755 2.107a12.617 12.617 0 014.516 5.627l.139.336-.435.255-1.494.98a1.93 1.93 0 01-.991.382zm-3.658-3.122c1.334.016 2.57.73 3.286 1.9l.044.077c.055.117.133.22.23.304.173.098.548-.148.67-.23l1.34-.882a11.794 11.794 0 00-3.918-4.824 11.18 11.18 0 00-5.741-2.064c.837 1.333 1.888 3.077 1.975 4.402v.107c-.014.338.069.673.237.964.265.32.79.29 1.36.258h.473l.044-.012z"/></svg>