<svg width="32" height="32" xmlns="http://www.w3.org/2000/svg"><path d="M9.936 2.865H7.373c-.176-.818-.843-1.45-1.65-1.45H1.685C.737 1.416 0 2.234 0 3.238c0 1.003.772 1.82 1.685 1.82h2.282c.176.818.843 1.45 1.65 1.45h4.319c.948 0 1.685-.818 1.685-1.821.035-.966-.737-1.821-1.685-1.821zm.667 1.858c0 .409-.281.706-.667.706H5.617c-.35 0-.667-.334-.667-.706 0-.409-.28-.706-.667-.706H1.65c-.351 0-.667-.334-.667-.706a.92.92 0 01.175-.52.554.554 0 01.457-.223h4.002c.351 0 .667.334.667.706 0 .186.07.371.176.52.105.149.28.223.457.223H9.83a.692.692 0 01.772.706zm14.902 11.223c.842 0 1.58-.632 1.72-1.524h3.02c.983 0 1.755-.817 1.755-1.858v-.037c0-1.04-.772-1.858-1.756-1.858h-5.793c-.842 0-1.58.632-1.72 1.524h-.808v-3.16c0-.296-.245-.556-.526-.556h-1.615c-.281 0-.492-.223-.492-.52V4.834c0-.298-.246-.558-.526-.558h-1.335c-.316 0-.561-.26-.561-.594V.56c0-.297-.211-.557-.457-.557-.316-.038-.562.222-.562.557v3.121c0 .335-.246.595-.562.595h-1.334c-.28 0-.526.26-.526.557v3.122c0 .297-.21.52-.492.52H11.32c-.28 0-.527.26-.527.558v12.263c-.842-1.19-2.071-2.044-3.51-2.304-.211-.037-.352-.223-.352-.446V15.5c0-.297-.21-.557-.456-.557-.316-.037-.562.223-.562.557v3.047c0 .223-.14.41-.351.446C2.964 19.44.997 21.818.997 24.68v6.764c0 .297.246.557.527.557.28 0 .527-.26.527-.557v-5.798c0-.26.176-.445.422-.445h1.369c.246 0 .421.185.421.445v5.76c0 .298.246.558.527.558.28 0 .526-.26.526-.557v-5.76c0-.26.176-.447.422-.447h1.37c.245 0 .42.186.42.446v5.76c0 .298.246.558.527.558.28 0 .526-.26.526-.557v-5.76c0-.26.176-.447.422-.447h1.37c.245 0 .42.186.42.446v5.76c0 .298.246.558.527.558h10.076c.281 0 .527-.26.527-.557v-10.11c0-.111.035-.185.14-.223l7.655-4.088c.14-.074.35.038.35.223v14.234c0 .297.247.557.527.557.281 0 .527-.26.527-.557V15.76c0-.186-.105-.372-.246-.446-.14-.111-.351.075-.491.149l-8.076 4.31c-.175.075-.35-.036-.35-.222v-3.568h3.546v-.037zM2.332 24.085c-.175 0-.316-.186-.28-.372.35-1.97 1.895-3.456 3.791-3.716.106 0 .246-.037.351-.037.035 0 .106.037.176.037.07 0 .105 0 .176-.037.105 0 .245 0 .35.037 1.897.223 3.442 1.746 3.793 3.716a.28.28 0 01-.281.334H2.333v.038zm11.973 5.537c0 .297-.246.52-.527.52a.523.523 0 01-.526-.52v-2.118c0-.298.245-.52.526-.52.28 0 .526.223.526.52v2.118zm0-5.314c0 .297-.246.52-.527.52a.523.523 0 01-.526-.52v-2.119c0-.297.245-.52.526-.52s.527.223.527.52v2.119zm0-5.277c0 .297-.246.52-.527.52a.523.523 0 01-.526-.52v-2.119c0-.297.245-.52.526-.52s.527.223.527.52v2.119zm0-5.277c0 .297-.246.52-.527.52a.523.523 0 01-.526-.52v-2.119c0-.297.245-.52.526-.52s.527.223.527.52v2.119zm2.492 15.868c0 .297-.246.52-.526.52a.523.523 0 01-.527-.52v-2.118c0-.298.246-.52.526-.52.282 0 .527.222.527.52v2.118zm0-5.314c0 .297-.246.52-.526.52a.523.523 0 01-.527-.52v-2.119c0-.297.246-.52.527-.52.28 0 .526.223.526.52v2.119zm0-5.277c0 .297-.246.52-.526.52a.523.523 0 01-.527-.52v-2.119c0-.297.246-.52.527-.52.28 0 .526.223.526.52v2.119zm0-5.277c0 .297-.246.52-.526.52a.523.523 0 01-.527-.52v-2.119c0-.297.246-.52.527-.52.28 0 .526.223.526.52v2.119zm1.51-2.119c0-.297.246-.52.527-.52.28 0 .526.223.526.52v.558c-.491 0-.737.074-1.053.26v-.818zm.983 17.987c0 .297-.246.52-.526.52a.523.523 0 01-.527-.52v-2.118c0-.298.246-.52.527-.52.28 0 .526.223.526.52v2.118zm0-5.314c0 .297-.246.52-.526.52a.523.523 0 01-.527-.52v-2.119c0-.297.246-.52.527-.52.28 0 .526.223.526.52v2.119zm0-5.277c0 .297-.246.52-.526.52a.523.523 0 01-.527-.52v-2.119c0-.297.246-.52.527-.52.28 0 .526.223.526.52v2.119zm-.175-4.2c-.387 0-.702-.371-.702-.817 0-.409.315-.743.702-.743h3.897c.386 0 .702-.335.702-.744 0-.408.316-.743.702-.743h5.793c.386 0 .702.335.702.743v.038c0 .408-.316.743-.702.743h-3.335c-.386 0-.702.334-.702.743s-.316.743-.703.743h-6.354v.037z"/></svg>