<svg width="37" height="32" xmlns="http://www.w3.org/2000/svg"><path d="M4.25 32a.612.612 0 01-.616-.607v-4.505c0-.335.277-.607.615-.607.338 0 .615.273.615.607v4.505A.61.61 0 014.25 32zM29.467 6.41H8.687c-1.697 0-3.079 1.363-3.079 3.04v11.326c.432.553.848 1.098 1.231 1.645V9.45c0-1.007.829-1.825 1.848-1.825h20.78c1.017 0 1.846.818 1.846 1.825v17.955H8.926a3.146 3.146 0 01-.312 1.216h23.314c.34 0 .615-.273.615-.607V9.45c.001-1.677-1.38-3.041-3.076-3.041z"/><path d="M24.219 7.626H13.934a.612.612 0 01-.615-.608c0-.333.277-.607.615-.607h10.285c.34 0 .615.274.615.607a.612.612 0 01-.615.608zM8.781 14.808c-1.183 0-2.195-.407-3.01-1.204 0 0 .237-.407-.003-.86-.156-.295.629-.238.87-.002.592.581 1.272.851 2.14.851.772 0 1.394-.212 1.941-.666V7.049c0-.336.277-.608.615-.608.338 0 .615.274.615.608v6.145c0 .162-.068.32-.186.434-.825.793-1.8 1.18-2.982 1.18z"/><path d="M13.928 14.81a4.403 4.403 0 01-3.016-1.178.604.604 0 01-.194-.442V7.05c0-.336.277-.608.615-.608.338 0 .615.273.615.607v5.865c.57.45 1.302.768 2.024.68.72-.008 1.405-.248 1.914-.665V7.043c0-.335.277-.607.615-.607.338 0 .615.273.615.607v6.156a.61.61 0 01-.18.43c-.747.736-1.823 1.167-2.95 1.18l-.058.001z"/><path d="M19.077 14.813c-1.144 0-2.206-.421-3-1.185a.601.601 0 01-.188-.435v-6.15c0-.336.277-.608.615-.608.338 0 .615.274.615.607v5.879a3.08 3.08 0 001.946.676 3.098 3.098 0 001.966-.687V7.182c0-.335.276-.607.615-.607.338 0 .614.273.614.607v5.999a.606.606 0 01-.184.432c-.79.768-1.855 1.193-2.999 1.2z"/><path d="M24.224 14.81c-1.193-.006-2.202-.409-3.01-1.197a.604.604 0 01-.183-.432V7.012c0-.335.276-.607.614-.607.339 0 .615.273.615.607v5.903c.545.462 1.172.677 1.95.68.774 0 1.403-.217 1.964-.682V7.017c0-.336.277-.607.615-.607.338 0 .615.273.615.607v6.167c0 .165-.07.323-.19.437-.828.79-1.836 1.189-2.99 1.189z"/><path d="M29.378 14.807c-1.168-.007-2.232-.427-3.018-1.19a.606.606 0 01-.184-.432V7.017c0-.336.276-.607.615-.607.338 0 .614.273.614.607v5.898a3.1 3.1 0 001.956.675c.75 0 1.423-.232 1.97-.678v-3.64c0-.335.277-.607.616-.607.338 0 .614.274.614.608v3.91a.601.601 0 01-.187.436 4.303 4.303 0 01-2.996 1.188zM24.247 2.944a5.28 5.28 0 00-.008-.766c-.008-.077-.128-.199-.202-.203-.33-.023-.664-.01-1.003-.01V3.17c.335 0 .656.004.976-.002.136-.004.23-.09.237-.224zm-3.644-.984c-.384 0-.611.22-.614.604a81.564 81.564 0 000 1.517c.003.369.236.592.608.592.377 0 .609-.217.616-.586.007-.255.002-.512.002-.768v-.375c0-.125.002-.25 0-.375-.006-.384-.232-.61-.612-.609z"/><path d="M27.927 0H10.226a.612.612 0 00-.615.607v6.41c0 .335.277.607.615.607h1.207a.61.61 0 00.614-.607s9.056-.336 9.056 0c0 .335.277.607.615.607h6.207c.34 0 .615-.273.615-.607V.609A.611.611 0 0027.927 0zm-5.482 1.382c.046-.003.1-.013.154-.013h1.291a.953.953 0 01.96.954v.469c-.002.55-.427.967-.99.967h-.834v1.485h-.583c.002-1.276.002-2.56.002-3.862zm-7.166 3.654c-.804.49-1.787.09-1.953-.817-.007-.042-.006-.085-.009-.138h.569c.13.528.472.722.984.539.103-.037.232-.144.252-.24.034-.164.078-.37-.136-.482-.278-.147-.559-.288-.834-.441a5.719 5.719 0 01-.477-.304c-.536-.38-.49-1.219.117-1.572.847-.494 1.894.01 1.932.973h-.573c-.008-.046-.014-.093-.025-.139a.549.549 0 00-.55-.452 1.26 1.26 0 00-.301.021c-.157.03-.318.075-.361.257-.065.276-.017.404.216.536.252.142.518.26.772.4.165.091.323.196.475.306.524.373.48 1.2-.098 1.553zm3.483.215h-.586V3.773h-1.223V5.25h-.592V1.378h.578v1.778h1.231V1.378h.59c.002 1.295.002 2.58.002 3.873zm1.843.01c-.644.003-1.21-.576-1.213-1.244V2.613c.003-.665.572-1.245 1.215-1.242.638.003 1.199.577 1.203 1.233.002.237 0 .475 0 .712 0 .23.002.461 0 .692-.003.67-.562 1.25-1.205 1.253zM35.957 32H2.194a.612.612 0 01-.615-.607c0-.334.277-.607.615-.607h33.763a.61.61 0 01.614.607.611.611 0 01-.614.607zM4.661 30.273l-1.228-.05c-.753-.088-1.387-.29-1.935-.623-1.13-.688-1.694-1.926-1.436-3.156a6.92 6.92 0 01.583-1.637c.728-1.476 1.687-2.728 2.774-4.097a1.056 1.056 0 011.663.001c1.089 1.374 2.05 2.631 2.772 4.096a6.92 6.92 0 01.583 1.637c.258 1.23-.305 2.468-1.435 3.156-.545.331-1.182.536-1.94.624l-.322.042a.539.539 0 01-.079.007z"/><path d="M6.14 13.906v7.56c.806 1.067 1.525 2.117 2.102 3.288.304.611.52 1.222.645 1.812.097.462.056.914-.046 1.355h23.147V13.45l-25.848.456zm8.508 10.476h-4.193a.612.612 0 01-.615-.608v-2.576h4.809v3.184zm0-4.402H9.84v-2.549c0-.335.277-.607.615-.607h4.193v3.156zm6.038 3.793a.612.612 0 01-.614.607h-4.194v-3.185h4.809v2.578zm0-3.793h-4.808v-3.156h4.193c.34 0 .615.273.615.607v2.55zm9.262 7.403a.52.52 0 01-.522.516h-4.77a.52.52 0 01-.523-.516v-7.045a.52.52 0 01.523-.516h4.77a.52.52 0 01.523.516v7.045z"/><path d="M32.653 27.395H8.925a3.137 3.137 0 01-.305 1.216h24.033a.61.61 0 00.614-.607.612.612 0 00-.614-.609zm-7.545-3.678c0 .42-.64.42-.64 0 0-.421.64-.421.64 0z"/></svg>