<svg width="32" height="32" xmlns="http://www.w3.org/2000/svg"><path d="M19.194 31.968c.642-2.356 1.24-4.553 1.852-6.751-2.047-.854-4.078-1.66-6.066-2.545a43.274 43.274 0 01-3.883-1.992c-.404-.238-.733-.76-.957-1.218-.373-.822-.642-1.707-.926-2.466-.568.11-1.106.174-1.613.316-.18.048-.434.237-.464.395-.179.965-.433 1.96-.403 2.925a7.098 7.098 0 001.136 3.636c.687-1.027 1.33-1.976 1.987-2.925.06.032.134.08.194.111-.553 1.186-1.12 2.356-1.718 3.636 2.838 2.625 6.14 4.506 9.456 6.83H2.432c.493-.87.896-1.644 1.374-2.371.299-.459.284-.775-.045-1.233-2.689-3.921-2.27-8.901 1.061-12.079 1.001-.948 2.196-1.66 3.347-2.53-.553-2.04-.553-4.205-.314-6.403C8.303 3.162 12.829-.03 15.728 0c2.614.032 5.228 0 7.843.08 1.762.047 2.435.742 2.465 2.355 0 .19.03.411-.06.538-.552.742-.15 1.422.045 2.15.284 1.059.538 2.134.807 3.209.045.206.06.411.104.632-.956.649-2.435.696-2.435 2.372-2.973.775-6.125.268-8.963 1.644-.194.095-.344.269-.657.538.284 0 .418.047.493 0 .94-.601 1.987-.601 3.032-.585 1.897.016 3.78.016 5.677 0 .344 0 .583.016.732.459.344.964 1.136 1.138 1.853.38.388-.412.627-.981.97-1.519.449.475.942.949 1.375 1.47.657.791.538 1.455-.329 2.008-.94.601-.94.601-.627 1.755.165.633.478 1.297-.478 1.692.762.38.688.79.27 1.328-.15.19-.165.585-.12.87.298 1.644-.314 2.45-1.913 2.45-.851 0-1.688-.032-2.54.016-1.374.079-1.926.822-1.732 2.26.134 1.013.284 1.961.776 2.91.374.711.27 1.723.329 2.608.015.127-.269.38-.418.38-.957-.016-1.928-.032-3.034-.032z"/></svg>