<svg width="32" height="32" xmlns="http://www.w3.org/2000/svg"><path d="M8 30.666C8 31.4 7.4 32 6.667 32H1.334C.6 32 0 31.4 0 30.666v-5.333C0 24.6.6 24 1.334 24h5.333C7.4 24 8 24.6 8 25.333v5.333zm10.666 0c0 .733-.6 1.334-1.333 1.334H12c-.733 0-1.334-.6-1.334-1.334v-5.333c0-.733.6-1.333 1.334-1.333h5.333c.733 0 1.333.6 1.333 1.333v5.333zm10.667 0c0 .733-.6 1.334-1.333 1.334h-5.334c-.733 0-1.334-.6-1.334-1.334v-5.333c0-.733.601-1.333 1.334-1.333H28c.732 0 1.333.6 1.333 1.333v5.333zM8 20c0 .733-.6 1.333-1.333 1.333H1.334C.6 21.333 0 20.733 0 20v-5.333c0-.734.6-1.333 1.334-1.333h5.333c.733 0 1.333.6 1.333 1.333V20zm10.666 0c0 .733-.6 1.333-1.333 1.333H12c-.733 0-1.334-.6-1.334-1.333v-5.333c0-.734.6-1.333 1.334-1.333h5.333c.733 0 1.333.6 1.333 1.333V20z"/><path d="M24.454 21.137h0l-2.041-4.927s0 0 0 0a.839.839 0 01.45-1.089s0 0 0 0 0 0 0 0l4.928-2.042h0a.836.836 0 011.088.451h0l2.041 4.928s0 0 0 0a.837.837 0 01-.45 1.088h0l-4.926 2.041h-.001a.838.838 0 01-1.089-.45z" stroke="#AFB6C4"/><path d="M8 9.334c0 .733-.6 1.333-1.333 1.333H1.334C.6 10.667 0 10.067 0 9.334V4c0-.733.6-1.333 1.334-1.333h5.333C7.4 2.667 8 3.267 8 4v5.334zm9.341 1.328a1.337 1.337 0 01-1.742.721l-4.927-2.041A1.337 1.337 0 019.951 7.6l2.04-4.927a1.338 1.338 0 011.742-.722l4.928 2.042a1.338 1.338 0 01.721 1.742l-2.04 4.927z"/><path d="M31.258 4.514h0a.837.837 0 010 1.179h0l-3.771 3.772h0a.837.837 0 01-1.178 0h0l-3.772-3.772s0 0 0 0a.838.838 0 010-1.179s0 0 0 0L26.308.742h0a.838.838 0 011.179 0s0 0 0 0l3.77 3.772z" stroke="#AFB6C4"/></svg>