<svg width="20" height="20" xmlns="http://www.w3.org/2000/svg"><path d="M12.43 6.903a2.799 2.799 0 00-2.691 2.08H.718a.714.714 0 100 1.428H9.74c.32 1.19 1.403 2.08 2.69 2.08s2.37-.89 2.69-2.08h4.167a.714.714 0 000-1.429h-4.166c-.32-1.19-1.403-2.079-2.691-2.079z" fill="#9B9997"/><path d="M6.878 14.186c-1.286 0-2.37.89-2.691 2.079H.717a.714.714 0 100 1.429h3.469c.319 1.192 1.404 2.084 2.692 2.084 1.289 0 2.372-.892 2.692-2.084h9.717a.713.713 0 000-1.429H9.568c-.32-1.19-1.403-2.079-2.69-2.079zM4.798 0C3.531 0 2.466.873 2.146 2.043H.717a.715.715 0 100 1.428h1.426c.318 1.173 1.386 2.05 2.655 2.05 1.256 0 2.315-.86 2.645-2.015l11.844-.035a.715.715 0 000-1.428l-11.824.034C7.155.89 6.078 0 4.798 0z"/></svg>