<svg width="32" height="32" xmlns="http://www.w3.org/2000/svg"><path d="M15.706 4.358l.511.074-.374 2.529 2.593.372.374-2.528.51.073-.373 2.529 2.593.373.374-2.529.51.073-.374 2.53 2.824.405.735-4.96-12.366-1.778-.735 4.96 2.824.406.374-2.529zm7.414-1.93l.206-1.387L16.086 0l-.206 1.386 7.24 1.042zM14.059 15.48l.51.073-.374 2.529 2.593.373.375-2.529.51.074-.374 2.528 2.593.373.375-2.529.51.074-.374 2.529 2.824.406.748-5.058-12.366-1.778-.749 5.058 2.824.406.375-2.53zm-.823 5.56l.51.074-.374 2.529 2.593.373.374-2.529.511.073-.374 2.53 2.593.372.374-2.529.51.074-.373 2.529 2.823.406.75-5.058-12.367-1.778-.75 5.058 2.825.406.374-2.53zm1.647-11.121l.51.073-.375 2.529 2.594.373.374-2.529.511.073-.374 2.53 2.593.372.374-2.529.51.074-.374 2.529 2.824.406.75-5.058-12.367-1.778-.75 5.057 2.824.406.376-2.528zM12.38 26.66l.51.074-.322 2.175h2.649l.267-1.803.51.074-.255 1.729h2.648l.2-1.356.511.073-.19 1.283h2.907l.513-3.464-12.366-1.779-.776 5.243h2.86l.334-2.249zM2 29.418h28V32H2v-2.582z"/></svg>