<svg width="32" height="32" xmlns="http://www.w3.org/2000/svg"><path d="M25.497 23.654v5.83h3.744v-1.049L32 30.24 29.241 32v-.88c-9.458 0-18.916 0-28.374-.043l.04-28.141H0L1.655 0 3.35 2.936h-.907v2.977h1.38V7.55h-1.38l-.04 2.81h1.42v1.594h-1.42v2.852h1.42V16.4h-1.42v2.81h1.42v1.635h-1.42v2.81h1.42v1.636h-1.42v4.194h3.39v-9.353h4.335v9.353h.788V5.37h4.335v24.115h.789V13.212h4.335v16.272h.788v-5.83h4.334zm-19.429-.377h3.744v-2.81H6.068v2.81zm5.124-6.879h3.744V5.662h-3.744v10.736zm8.906-2.852h-3.783v6.585h3.783v-6.585zm1.34 11.827h3.783V23.99h-3.783v1.384z"/><path fill-rule="evenodd" clip-rule="evenodd" d="M11.743 6.04c0 .223-.315.223-.315 0 0-.224.315-.224.315 0zm.592 0c0 .223-.316.223-.316 0 0-.224.316-.224.316 0zm.591 0c0 .223-.316.223-.316 0 0-.224.316-.224.316 0zm.591 0c0 .223-.315.223-.315 0 0-.224.315-.224.315 0zm.63 0c0 .223-.315.223-.315 0 0-.224.315-.224.315 0zm.593 0c0 .223-.316.223-.316 0 0-.224.315-.224.315 0zm-2.997.586c0 .224-.315.224-.315 0s.315-.224.315 0zm0 .545a.158.158 0 01-.315 0c0-.223.315-.223.315 0zm0 .588c0 .223-.315.223-.315 0 0-.224.315-.224.315 0zm0 .545c0 .224-.315.224-.315 0s.315-.224.315 0zm0 .587a.158.158 0 01-.315 0c0-.223.315-.223.315 0zm0 .545a.158.158 0 01-.315 0c0-.223.315-.223.315 0zm0 .587a.158.158 0 01-.315 0c0-.223.315-.223.315 0zm0 .545a.158.158 0 01-.315 0c0-.223.315-.223.315 0zm0 .588c0 .223-.315.223-.315 0 0-.224.315-.224.315 0zm0 .545c0 .224-.315.224-.315 0s.315-.224.315 0zm0 .587a.158.158 0 01-.315 0c0-.223.315-.223.315 0zm0 .546c0 .223-.315.223-.315 0 0-.224.315-.224.315 0zm0 .586a.158.158 0 01-.315 0c0-.223.315-.223.315 0zm0 .546c0 .223-.315.223-.315 0 0-.224.315-.224.315 0zm0 .587c0 .224-.315.224-.315 0s.315-.224.315 0zm0 .545c0 .224-.315.224-.315 0s.315-.224.315 0zm0 .587a.158.158 0 01-.315 0c0-.223.315-.223.315 0zm.592-9.059c0 .224-.316.224-.316 0s.316-.224.316 0zm0 .545c0 .224-.316.224-.316 0 0-.223.316-.223.316 0zm0 .588c0 .223-.316.223-.316 0 0-.224.316-.224.316 0zm0 .545c0 .224-.316.224-.316 0s.316-.224.316 0zm0 .587c0 .224-.316.224-.316 0 0-.223.316-.223.316 0zm0 .545c0 .224-.316.224-.316 0 0-.223.316-.223.316 0zm0 .587c0 .224-.316.224-.316 0 0-.223.316-.223.316 0zm0 .545c0 .224-.316.224-.316 0 0-.223.316-.223.316 0zm0 .588c0 .223-.316.223-.316 0 0-.224.316-.224.316 0zm0 .545c0 .224-.316.224-.316 0s.316-.224.316 0zm0 .587c0 .224-.316.224-.316 0 0-.223.316-.223.316 0zm0 .546c0 .223-.316.223-.316 0 0-.224.316-.224.316 0zm0 .586c0 .224-.316.224-.316 0 0-.223.316-.223.316 0zm0 .546c0 .223-.316.223-.316 0 0-.224.316-.224.316 0zm0 .587c0 .224-.316.224-.316 0s.316-.224.316 0zm0 .545c0 .224-.316.224-.316 0s.316-.224.316 0zm0 .587c0 .224-.316.224-.316 0 0-.223.316-.223.316 0zm.591-9.059c0 .224-.316.224-.316 0s.316-.224.316 0zm0 .545c0 .224-.316.224-.316 0 0-.223.316-.223.316 0zm0 .588c0 .223-.316.223-.316 0 0-.224.316-.224.316 0zm0 .545c0 .224-.316.224-.316 0s.316-.224.316 0zm0 .587c0 .224-.316.224-.316 0 0-.223.316-.223.316 0zm0 .545c0 .224-.316.224-.316 0 0-.223.316-.223.316 0zm0 .587c0 .224-.316.224-.316 0 0-.223.316-.223.316 0zm0 .545c0 .224-.316.224-.316 0 0-.223.316-.223.316 0zm0 .588c0 .223-.316.223-.316 0 0-.224.316-.224.316 0zm0 .545c0 .224-.316.224-.316 0s.316-.224.316 0zm0 .587c0 .224-.316.224-.316 0 0-.223.316-.223.316 0zm0 .546c0 .223-.316.223-.316 0 0-.224.316-.224.316 0zm0 .586c0 .224-.316.224-.316 0 0-.223.316-.223.316 0zm0 .546c0 .223-.316.223-.316 0 0-.224.316-.224.316 0zm0 .587c0 .224-.316.224-.316 0s.316-.224.316 0zm0 .545c0 .224-.316.224-.316 0s.316-.224.316 0zm0 .587c0 .224-.316.224-.316 0 0-.223.316-.223.316 0zm.591-9.059c0 .224-.315.224-.315 0s.315-.224.315 0zm0 .545a.158.158 0 01-.315 0c0-.223.315-.223.315 0zm0 .588c0 .223-.315.223-.315 0 0-.224.315-.224.315 0zm0 .545c0 .224-.315.224-.315 0s.315-.224.315 0zm0 .587a.158.158 0 01-.315 0c0-.223.315-.223.315 0zm0 .545a.158.158 0 01-.315 0c0-.223.315-.223.315 0zm0 .587a.158.158 0 01-.315 0c0-.223.315-.223.315 0zm0 .545a.158.158 0 01-.315 0c0-.223.315-.223.315 0zm0 .588c0 .223-.315.223-.315 0 0-.224.315-.224.315 0zm0 .545c0 .224-.315.224-.315 0s.315-.224.315 0zm0 .587a.158.158 0 01-.315 0c0-.223.315-.223.315 0zm0 .546c0 .223-.315.223-.315 0 0-.224.315-.224.315 0zm0 .586a.158.158 0 01-.315 0c0-.223.315-.223.315 0zm0 .546c0 .223-.315.223-.315 0 0-.224.315-.224.315 0zm0 .587c0 .224-.315.224-.315 0s.315-.224.315 0zm0 .545c0 .224-.315.224-.315 0s.315-.224.315 0zm0 .587a.158.158 0 01-.315 0c0-.223.315-.223.315 0zm.63-9.059c0 .224-.315.224-.315 0s.315-.224.315 0zm0 .545a.158.158 0 01-.315 0c0-.223.315-.223.315 0zm0 .588c0 .223-.315.223-.315 0 0-.224.315-.224.315 0zm0 .545c0 .224-.315.224-.315 0s.315-.224.315 0zm0 .587a.158.158 0 01-.315 0c0-.223.315-.223.315 0zm0 .545a.158.158 0 01-.315 0c0-.223.315-.223.315 0zm0 .587a.158.158 0 01-.315 0c0-.223.315-.223.315 0zm0 .545a.158.158 0 01-.315 0c0-.223.315-.223.315 0zm0 .588c0 .223-.315.223-.315 0 0-.224.315-.224.315 0zm0 .545c0 .224-.315.224-.315 0s.315-.224.315 0zm0 .587a.158.158 0 01-.315 0c0-.223.315-.223.315 0zm0 .546c0 .223-.315.223-.315 0 0-.224.315-.224.315 0zm0 .586a.158.158 0 01-.315 0c0-.223.315-.223.315 0zm0 .546c0 .223-.315.223-.315 0 0-.224.315-.224.315 0zm0 .587c0 .224-.315.224-.315 0s.315-.224.315 0zm0 .545c0 .224-.315.224-.315 0s.315-.224.315 0zm0 .587a.158.158 0 01-.315 0c0-.223.315-.223.315 0zm.593-9.059c0 .224-.316.224-.316 0s.315-.224.315 0zm0 .545c0 .224-.316.224-.316 0 0-.223.315-.223.315 0zm0 .588c0 .223-.316.223-.316 0 0-.224.315-.224.315 0zm0 .545c0 .224-.316.224-.316 0s.315-.224.315 0zm0 .587c0 .224-.316.224-.316 0 0-.223.315-.223.315 0zm0 .545c0 .224-.316.224-.316 0 0-.223.315-.223.315 0zm0 .587c0 .224-.316.224-.316 0 0-.223.315-.223.315 0zm0 .545c0 .224-.316.224-.316 0 0-.223.315-.223.315 0zm0 .588c0 .223-.316.223-.316 0 0-.224.315-.224.315 0zm0 .545c0 .224-.316.224-.316 0s.315-.224.315 0zm0 .587c0 .224-.316.224-.316 0 0-.223.315-.223.315 0zm0 .546c0 .223-.316.223-.316 0 0-.224.315-.224.315 0zm0 .586c0 .224-.316.224-.316 0 0-.223.315-.223.315 0zm0 .546c0 .223-.316.223-.316 0 0-.224.315-.224.315 0zm0 .587c0 .224-.316.224-.316 0s.315-.224.315 0zm0 .545c0 .224-.316.224-.316 0s.315-.224.315 0zm0 .587c0 .224-.316.224-.316 0 0-.223.315-.223.315 0zm-2.997.503a.158.158 0 01-.315 0c0-.223.315-.223.315 0zm.592 0c0 .224-.316.224-.316 0 0-.223.316-.223.316 0zm.591 0c0 .224-.316.224-.316 0 0-.223.316-.223.316 0zm.591 0a.158.158 0 01-.315 0c0-.223.315-.223.315 0zm.63 0a.158.158 0 01-.315 0c0-.223.315-.223.315 0zm.593 0c0 .224-.316.224-.316 0 0-.223.315-.223.315 0zm2.127-2.348c0 .223-.315.223-.315 0 0-.224.315-.224.315 0zm.591 0c0 .223-.315.223-.315 0 0-.224.315-.224.315 0zm.591 0c0 .223-.315.223-.315 0 0-.224.315-.224.315 0zm.631 0c0 .223-.316.223-.316 0 0-.224.316-.224.316 0zm.591 0c0 .223-.315.223-.315 0 0-.224.315-.224.315 0zm.591 0c0 .223-.315.223-.315 0 0-.224.315-.224.315 0zm-2.995.587a.158.158 0 01-.315 0c0-.223.315-.223.315 0zm0 .545a.158.158 0 01-.315 0c0-.223.315-.223.315 0zm0 .588c0 .223-.315.223-.315 0 0-.224.315-.224.315 0zm0 .545c0 .224-.315.224-.315 0s.315-.224.315 0zm0 .587c0 .224-.315.224-.315 0s.315-.224.315 0zm0 .545c0 .224-.315.224-.315 0s.315-.224.315 0zm0 .587a.158.158 0 01-.315 0c0-.223.315-.223.315 0zm0 .546c0 .223-.315.223-.315 0 0-.224.315-.224.315 0zm0 .586a.158.158 0 01-.315 0c0-.223.315-.223.315 0zm0 .546c0 .224-.315.224-.315 0s.315-.224.315 0zm.591-5.075a.158.158 0 01-.315 0c0-.223.315-.223.315 0zm0 .545a.158.158 0 01-.315 0c0-.223.315-.223.315 0zm0 .588c0 .223-.315.223-.315 0 0-.224.315-.224.315 0zm0 .545c0 .224-.315.224-.315 0s.315-.224.315 0zm0 .587c0 .224-.315.224-.315 0s.315-.224.315 0zm0 .545c0 .224-.315.224-.315 0s.315-.224.315 0zm0 .587a.158.158 0 01-.315 0c0-.223.315-.223.315 0zm0 .546c0 .223-.315.223-.315 0 0-.224.315-.224.315 0zm0 .586a.158.158 0 01-.315 0c0-.223.315-.223.315 0zm0 .546c0 .224-.315.224-.315 0s.315-.224.315 0zm.591-5.075a.158.158 0 01-.315 0c0-.223.315-.223.315 0zm0 .545a.158.158 0 01-.315 0c0-.223.315-.223.315 0zm0 .588c0 .223-.315.223-.315 0 0-.224.315-.224.315 0zm0 .545c0 .224-.315.224-.315 0s.315-.224.315 0zm0 .587c0 .224-.315.224-.315 0s.315-.224.315 0zm0 .545c0 .224-.315.224-.315 0s.315-.224.315 0zm0 .587a.158.158 0 01-.315 0c0-.223.315-.223.315 0zm0 .546c0 .223-.315.223-.315 0 0-.224.315-.224.315 0zm0 .586a.158.158 0 01-.315 0c0-.223.315-.223.315 0zm0 .546c0 .224-.315.224-.315 0s.315-.224.315 0zm.631-5.075c0 .224-.316.224-.316 0 0-.223.316-.223.316 0zm0 .545c0 .224-.316.224-.316 0 0-.223.316-.223.316 0zm0 .588c0 .223-.316.223-.316 0 0-.224.316-.224.316 0zm0 .545c0 .224-.316.224-.316 0s.316-.224.316 0zm0 .587c0 .224-.316.224-.316 0s.316-.224.316 0zm0 .545c0 .224-.316.224-.316 0s.316-.224.316 0zm0 .587c0 .224-.316.224-.316 0 0-.223.316-.223.316 0zm0 .546c0 .223-.316.223-.316 0 0-.224.316-.224.316 0zm0 .586c0 .224-.316.224-.316 0 0-.223.316-.223.316 0zm0 .546c0 .224-.316.224-.316 0s.316-.224.316 0zm.591-5.075a.158.158 0 01-.315 0c0-.223.315-.223.315 0zm0 .545a.158.158 0 01-.315 0c0-.223.315-.223.315 0zm0 .588c0 .223-.315.223-.315 0 0-.224.315-.224.315 0zm0 .545c0 .224-.315.224-.315 0s.315-.224.315 0zm0 .587c0 .224-.315.224-.315 0s.315-.224.315 0zm0 .545c0 .224-.315.224-.315 0s.315-.224.315 0zm0 .587a.158.158 0 01-.315 0c0-.223.315-.223.315 0zm0 .546c0 .223-.315.223-.315 0 0-.224.315-.224.315 0zm0 .586a.158.158 0 01-.315 0c0-.223.315-.223.315 0zm0 .546c0 .224-.315.224-.315 0s.315-.224.315 0zm.591-5.075a.158.158 0 01-.315 0c0-.223.315-.223.315 0zm0 .545a.158.158 0 01-.315 0c0-.223.315-.223.315 0zm0 .588c0 .223-.315.223-.315 0 0-.224.315-.224.315 0zm0 .545c0 .224-.315.224-.315 0s.315-.224.315 0zm0 .587c0 .224-.315.224-.315 0s.315-.224.315 0zm0 .545c0 .224-.315.224-.315 0s.315-.224.315 0zm0 .587a.158.158 0 01-.315 0c0-.223.315-.223.315 0zm0 .546c0 .223-.315.223-.315 0 0-.224.315-.224.315 0zm0 .586a.158.158 0 01-.315 0c0-.223.315-.223.315 0zm0 .546c0 .224-.315.224-.315 0s.315-.224.315 0z"/><path fill-rule="evenodd" clip-rule="evenodd" d="M16.867 19.92a.158.158 0 01-.315 0c0-.223.315-.223.315 0zm.591 0a.158.158 0 01-.315 0c0-.223.315-.223.315 0zm.591 0a.158.158 0 01-.315 0c0-.223.315-.223.315 0zm.631 0a.158.158 0 01-.316 0c0-.223.316-.223.316 0zm.591 0a.158.158 0 01-.315 0c0-.223.315-.223.315 0zm.591 0a.158.158 0 01-.315 0c0-.223.315-.223.315 0zm-13.281.798c0 .224-.315.224-.315 0s.315-.224.315 0zm0 .587c0 .224-.315.224-.315 0s.315-.224.315 0zm0 .545a.158.158 0 01-.315 0c0-.223.315-.223.315 0zm0 .588c0 .223-.315.223-.315 0 0-.224.315-.224.315 0zm0 .545c0 .223-.315.223-.315 0 0-.224.315-.224.315 0zm.591-2.265c0 .224-.315.224-.315 0s.315-.224.315 0zm0 .587c0 .224-.315.224-.315 0s.315-.224.315 0zm0 .545a.158.158 0 01-.315 0c0-.223.315-.223.315 0zm0 .588c0 .223-.315.223-.315 0 0-.224.315-.224.315 0zm0 .545c0 .223-.315.223-.315 0 0-.224.315-.224.315 0zm.592-2.265c0 .224-.316.224-.316 0s.316-.224.316 0zm0 .587c0 .224-.316.224-.316 0s.316-.224.316 0zm0 .545c0 .224-.316.224-.316 0 0-.223.316-.223.316 0zm0 .588c0 .223-.316.223-.316 0 0-.224.316-.224.316 0zm0 .545c0 .223-.316.223-.316 0 0-.224.316-.224.316 0zm.63-2.265c0 .224-.315.224-.315 0s.315-.224.315 0zm0 .587c0 .224-.315.224-.315 0s.315-.224.315 0zm0 .545a.158.158 0 01-.315 0c0-.223.315-.223.315 0zm0 .588c0 .223-.315.223-.315 0 0-.224.315-.224.315 0zm0 .545c0 .223-.315.223-.315 0 0-.224.315-.224.315 0zm.591-2.265c0 .224-.315.224-.315 0s.315-.224.315 0zm0 .587c0 .224-.315.224-.315 0s.315-.224.315 0zm0 .545a.158.158 0 01-.315 0c0-.223.315-.223.315 0zm0 .588c0 .223-.315.223-.315 0 0-.224.315-.224.315 0zm0 .545c0 .223-.315.223-.315 0 0-.224.315-.224.315 0zm.591-2.265c0 .224-.315.224-.315 0s.315-.224.315 0zm0 .587c0 .224-.315.224-.315 0s.315-.224.315 0zm0 .545a.158.158 0 01-.315 0c0-.223.315-.223.315 0zm0 .588c0 .223-.315.223-.315 0 0-.224.315-.224.315 0zm0 .545c0 .223-.315.223-.315 0 0-.224.315-.224.315 0zm12.374 1.426c0 .224-.315.224-.315 0s.315-.224.315 0zm.631 0c0 .224-.315.224-.315 0s.315-.224.315 0zm.591 0c0 .224-.315.224-.315 0s.315-.224.315 0zm.592 0c0 .224-.316.224-.316 0s.316-.224.316 0zm.591 0c0 .224-.315.224-.315 0s.315-.224.315 0zm.591 0c0 .224-.315.224-.315 0s.315-.224.315 0zm-2.996.587c0 .223-.315.223-.315 0 0-.224.315-.224.315 0zm.631 0c0 .223-.315.223-.315 0 0-.224.315-.224.315 0zm.591 0c0 .223-.315.223-.315 0 0-.224.315-.224.315 0zm.592 0c0 .223-.316.223-.316 0 0-.224.316-.224.316 0zm.591 0c0 .223-.315.223-.315 0 0-.224.315-.224.315 0zm.591 0c0 .223-.315.223-.315 0 0-.224.315-.224.315 0z"/></svg>