<svg width="32" height="32" xmlns="http://www.w3.org/2000/svg"><path d="M20.902 5.689h1.958v2.133h-1.958V5.69zm0 2.844h1.958v2.133h-1.958V8.534zm-5.054 8.45L0 25.033l.275.649 1.874-.951.01-.009 7.77-3.937a.28.28 0 01.075-.05l.248-.113 4.962-2.526.914-.46-.28-.653zm-5.593 4.422l-.327.156-7.312 3.712V32H15.02V18.973l-4.7 2.389a.294.294 0 01-.065.043zm-.457 9.173H7.839v-2.133h1.959v2.133zm0-2.844H7.839V25.6h1.959v2.134zm.652-2.134h1.959v2.134H10.45V25.6zm0 2.845h1.959v2.133H10.45v-2.133zm5.229-.001h7.181V32h-7.18v-3.556zM23.513 0v14.15l4.217 2.15.066.028h.013c.155.09.222.292.156.47l-.548 1.308a.316.316 0 01-.183.17.333.333 0 01-.26 0l-.85-.44V32H32V0h-8.487zm4.57 13.511h-1.959v-2.133h1.959v2.133zm0-2.844h-1.959V8.534h1.959v2.133zm0-2.844h-1.959V5.689h1.959v2.134zm0-2.845h-1.959V2.845h1.959v2.133zm2.611 8.533h-1.958v-2.133h1.958v2.133zm0-2.844h-1.958V8.534h1.958v2.133zm0-2.844h-1.958V5.689h1.958v2.134zm0-2.845h-1.958V2.845h1.958v2.133zM18.29 8.533h1.959v2.133H18.29V8.534zm0-2.844h1.959v2.133H18.29V5.69z"/><path d="M18.146 11.464c.047 0 .094.011.137.032l4.577 2.324v-2.442h-4.902c-.18 0-.325-.159-.326-.355V5.334c0-.196.146-.355.326-.356h4.897v-.71h-5.876v7.75l1.025-.519a.31.31 0 01.142-.035z"/><path d="M9.993 17.145l8.02-4.069a.312.312 0 01.272 0l8.673 4.41.274-.65-9.084-4.617-1.357.687h-.013L9.06 16.83l.275.652.658-.338z"/><path d="M21.443 15.47l-3.298-1.681-7.682 3.9v1.237l5.406-2.737a.298.298 0 01.249-.012.337.337 0 01.183.183l.563 1.294c.037.086.04.184.01.273a.353.353 0 01-.168.202l-1.026.52v9.084h7.501c.087 0 .17.038.231.104a.372.372 0 01.096.252v3.91h1.958V17.507l-4.023-2.037z"/></svg>