<svg width="32" height="32" xmlns="http://www.w3.org/2000/svg"><path d="M7.268 5.485h4.044L8.933 2.46 7.268 5.485zm5.117-.277l2.89-3.133h-5.36l2.47 3.133zm-.288 1.29H7.643l7.08 7.024-2.626-7.024zm1.411-1.013h4.99l-2.495-2.707-2.495 2.707zm6.114-.277l2.47-3.133h-5.36l2.89 3.133zM3.635 20.906l2.779 2.93a4.011 4.011 0 011.012 3.604l-.102.48h4.62l.001-6.634c0-1.079-.516-2.11-1.382-2.754l-5.166-3.86a.69.69 0 00-.729-.056.67.67 0 00-.34.435.692.692 0 00.097.546l4.302 6.038-.82.587-4.312-6.043a1.696 1.696 0 01-.248-1.36c.02-.087.056-.163.086-.244l-1.265-6.63a1.073 1.073 0 00-.46-.697 1.069 1.069 0 00-.82-.167 1.073 1.073 0 00-.699.46 1.115 1.115 0 00-.172.82l1.675 8.77a7.545 7.545 0 001.943 3.775zm24.736 0a7.534 7.534 0 001.939-3.785l.941-4.96.39-2.039.08-.43.006-.026.253-1.315a1.07 1.07 0 00-.172-.82 1.095 1.095 0 00-1.979.405l-1.265 6.629c.035.08.066.157.086.243.117.466.026.957-.243 1.356L24.1 22.222l-.825-.587 4.312-6.043a.68.68 0 00-.977-.916l-5.167 3.862a3.454 3.454 0 00-1.381 2.753v6.634h1.508v1.012h-2.986v2.85h9.49v-2.85h-4.697v-1.012h1.31l-.1-.48a4.026 4.026 0 011.011-3.604l2.773-2.935zm-7.383 9.96h-1.129v-1.012h1.129v1.012zm3.375-24.368h-4.458l-.253.667-.947-.354.117-.314H13.18l2.823 7.567.066-.178h-.005l.187-.49.167-.451h.005v-.005l.957.34-.091.242 7.074-7.024zm-6.178 1.73l.961.32-.374.986-.947-.36.36-.946zm-1.24 3.31l.354-.946.961.313-.37.988-.946-.355zM3.94 31.781h9.483v-2.849H3.94v2.85zm7.079-1.928h1.129v1.012h-1.129v-1.012zM23.073 2.46l-2.378 3.026h4.043L23.073 2.46zM26.965 0h1.063v1.012h-1.063V0zM3.94 3.138v-.709h.708V1.417h-.709V.71H2.927v.708H2.22V2.43h.708v.709H3.94z"/></svg>