<svg width="32" height="32" xmlns="http://www.w3.org/2000/svg"><path d="M28 3.92v26.44a.5.5 0 01-.505.5h-.84c.036-.16.051-.33.051-.5V3.92c0-1.455-1.192-2.64-2.663-2.64H5.653c-.172 0-.344.015-.506.05V.5c0-.275.228-.5.506-.5h18.39C26.221 0 28 1.76 28 3.92z"/><path d="M17.741 12.976h-2.386v1.838a7.894 7.894 0 012.133.43c.142-.713.228-1.477.253-2.268zm-.488 3.242a6.867 6.867 0 00-1.897-.406v3.35c.972-.448 1.596-1.92 1.897-2.944zm-2.908 2.946v-3.352a6.898 6.898 0 00-1.903.405c.303 1.026.926 2.505 1.903 2.947zm3.142-9.456a7.91 7.91 0 01-2.131.429v1.838h2.385a14.005 14.005 0 00-.254-2.267zm-7.23 7.826a6.706 6.706 0 002.329 1.366c-.486-.675-.82-1.454-1.069-2.255-.447.247-.872.54-1.26.889zm8.177-1.886c.612.31 1.183.703 1.703 1.172a6.702 6.702 0 001.564-3.845h-2.949a14.87 14.87 0 01-.318 2.673zM15.355 5.79v3.35a6.893 6.893 0 001.895-.405c-.3-1.02-.925-2.498-1.895-2.945zm1.752 13.11a6.75 6.75 0 002.334-1.366 6.869 6.869 0 00-1.263-.889c-.25.807-.581 1.577-1.07 2.256zm1.645-6.925h2.95a6.705 6.705 0 00-1.566-3.837 7.883 7.883 0 01-1.703 1.167c.181.837.29 1.738.319 2.67zm.688-4.552a6.75 6.75 0 00-2.335-1.373c.491.682.825 1.463 1.07 2.259a6.89 6.89 0 001.266-.886zm-7.49 4.552h2.394v-1.839a7.963 7.963 0 01-2.136-.437 13.895 13.895 0 00-.258 2.276zm-.689 3.681a14.784 14.784 0 01-.322-2.68H7.99a6.71 6.71 0 001.572 3.843 7.837 7.837 0 011.699-1.163z"/><path d="M24.043 2.28H5.653C4.743 2.28 4 3.015 4 3.92v26.44c0 .905.743 1.64 1.653 1.64h18.39c.91 0 1.652-.735 1.652-1.64V3.92c0-.905-.742-1.64-1.652-1.64zm-9.198 2.39l.002-.001h.003c4.375 0 7.886 3.52 7.886 7.81 0 4.278-3.495 7.802-7.886 7.802h-.005c-4.309-.003-7.89-3.463-7.89-7.802 0-4.347 3.591-7.807 7.89-7.81zm6.368 21.345v1H8.482v-1h12.731zm-10.355-1.597v-1h7.98v1h-7.98zm12.03 5.193H6.807v-1h16.081v1z"/><path d="M11.262 9.297a7.857 7.857 0 01-1.699-1.159 6.714 6.714 0 00-1.572 3.838h2.948c.03-.935.14-1.84.323-2.68zm1.326-3.247c-.894.308-1.66.77-2.33 1.373.388.347.813.64 1.261.886.246-.792.582-1.58 1.069-2.258zm1.757 3.09V5.787c-.977.444-1.6 1.931-1.9 2.949a6.904 6.904 0 001.9.404zm-2.138 6.113a7.945 7.945 0 012.138-.438v-1.84H11.95c.026.794.113 1.562.257 2.278z"/></svg>