<svg width="32" height="33" xmlns="http://www.w3.org/2000/svg"><path d="M7.004 31.633c4.07-2.158 5.973 1.055 9.002.227 3.029-.828 4.557-1.693 7.53-.714" stroke="#AFB6C4"/><path d="M27.358 9.144c-1.07-.793-2.472-1.126-3.715-.941a5.43 5.43 0 00-2.017.72c-.038-.012-.077-.018-.115-.024.71-.5 1.402-.917 2.094-1.209a5.483 5.483 0 012.645-.464c.884.071 1.806.351 2.753.75.954.393 1.909.917 2.997 1.394-.48-1.102-1.223-2.049-2.158-2.817-.935-.756-2.12-1.334-3.439-1.43a5.182 5.182 0 00-3.656 1.156 5.67 5.67 0 00-.832.852c.05-.197.102-.393.128-.596.172-1.268-.148-2.698-.923-3.794-.768-1.101-1.863-1.84-2.977-2.257a7.247 7.247 0 00-3.477-.429c.96.703 1.889 1.269 2.715 1.9.826.614 1.537 1.275 2.055 2.013.526.739.852 1.572.993 2.555.09.584.109 1.209.096 1.864a.474.474 0 00-.122-.077c-.006 0-.006 0-.012-.006a5.717 5.717 0 00-.814-1.966 5.199 5.199 0 00-3.15-2.21c-1.287-.309-2.587-.113-3.695.328a7.347 7.347 0 00-2.875 2.037c1.171-.125 2.24-.333 3.266-.429 1.018-.089 1.978-.083 2.843.12.864.202 1.652.601 2.394 1.238.36.31.705.661 1.038 1.043-.02.018-.039.041-.064.065a2.25 2.25 0 00-1.191.078c-.57.196-1.025.583-1.358 1.024a3.42 3.42 0 00-.634 1.483c.423-.334.788-.667 1.166-.953.371-.286.762-.477 1.127-.65.429-.202 1.76-.25 1.965-.124-.006.024-1.293 1.388-1.492 1.65-.928 1.232-1.722 2.578-2.42 3.96a41.447 41.447 0 00-1.845 4.288c-.16.44-.307 1.007-.454 1.62-.128-.34-.27-.69-.417-1.042l.007-.006s-.007 0-.007-.006c-.62-1.453-1.44-3.008-2.484-4.3h-.007c-.698-.864-1.498-1.608-2.401-2.12h.013c1.69-.745 6.685.387 6.794.393a.117.117 0 00.121-.078.14.14 0 00-.025-.149c-.103-.101-2.472-2.537-4.995-2.537h-.064c-.211.006-.423.018-.628.036 0 0 .948-.995 4.028-1.554.051-.012.077-.072.077-.126a.13.13 0 00-.09-.119c-.05-.017-1.331-.476-2.791-.476-.846 0-1.582.155-2.178.464-1.658.864-2.17 1.87-2.298 2.216-.487-.232-1.287-.477-2.478-.435-2.248.078-4.259 2.365-4.342 2.46-.032.042-.045.101-.02.149a.143.143 0 00.129.077c.096-.006 4.008-1.131 5.5-.649 0 0-.896.703-1.338 1.293-1.556 2.06-1.268 5.46-1.249 5.61a.132.132 0 00.096.113.12.12 0 00.141-.048c.07-.089 2.478-4.645 4.899-6.318 0 0 4.79 2.525 4.975 16.026h2.607c-.5-11.155 3.24-16.926 3.887-18.254.096-.197.717-1.28 1.242-1.995 0 0 .557.256 1.05 1.042 0 0 .378.691.435 1.072.07.405.045.846-.025 1.322-.064.465-.186.953-.276 1.495.423-.34.75-.768.98-1.274.224-.507.346-1.102.244-1.704a2.398 2.398 0 00-.897-1.518c-.032-.024-.064-.042-.096-.066.007-.041 0-.089 0-.13.474 0 .928.029 1.357.1a5.535 5.535 0 012.504 1.007c.724.524 1.364 1.25 1.973 2.096.614.84 1.172 1.787 1.863 2.77.147-1.203-.013-2.394-.416-3.544-.441-1.156-1.158-2.281-2.24-3.055z"/></svg>