<svg width="48" height="48" fill="none" xmlns="http://www.w3.org/2000/svg"><path d="M41.66 5.039l-6.303 5.866h-22.72L6.334 5.039s3.14-4.394 8.31-4.97c5.063-.565 6.82 2.54 9.358 2.668C26.532 2.61 28.294-.496 33.35.07c5.175.575 8.31 4.97 8.31 4.97zM24.87 33.2v4.428c.67-.106 1.22-.365 1.64-.788.422-.424.634-.916.634-1.48 0-.504-.18-.944-.534-1.307-.354-.372-.935-.65-1.74-.853zm-3.692-5.67c0 .404.145.773.433 1.117.288.35.723.624 1.305.837v-3.928c-.53.147-.95.406-1.263.772-.317.365-.475.76-.475 1.203zm24.304 15.22S44.112 48 37.813 48H10.197c-6.308 0-7.677-5.25-7.677-5.25-4.125-18.199 8.42-28.068 8.42-28.068h26.123S49.6 24.554 45.482 42.75zm-15.044-7.797c0-1.232-.388-2.232-1.172-3.015-.781-.786-2.244-1.42-4.397-1.917V25.59c.869.314 1.406.922 1.616 1.81l3.403-.371c-.234-1.131-.775-2.038-1.612-2.713-.844-.675-1.981-1.085-3.407-1.233v-1.126h-1.953v1.126c-1.542.128-2.776.616-3.705 1.457-.93.845-1.392 1.885-1.392 3.126 0 1.232.406 2.266 1.231 3.131.82.857 2.11 1.497 3.866 1.922v4.75c-.483-.193-.924-.512-1.318-.95a3.576 3.576 0 01-.806-1.565l-3.51.315c.265 1.491.885 2.644 1.856 3.46.968.821 2.226 1.306 3.778 1.462v2.066h1.953v-2.122c1.75-.21 3.112-.788 4.093-1.725.985-.934 1.476-2.09 1.476-3.456z" fill="#47475F"/></svg>