<svg width="1239" height="1033" fill="none" xmlns="http://www.w3.org/2000/svg"><path d="M60.09 368.813c23.27-30.954 53.491-50.571 85.846-71.313 72.358-46.387 149.101-86.112 228.809-118.291 57.667-23.281 116.85-42.819 176.339-60.836 59.329-17.969 119.268-34.842 180.394-45.627 43.761-7.72 88.013-11.392 132.402-12.082 17.766-.276 44.506-2.905 61.765 5.154 27.647 12.91-.003 57.104-11.322 70.468-23.791 28.086-54.665 50.93-83.227 73.678-37.372 29.766-75.384 58.716-112.968 88.212-53.676 42.125-108.864 84.266-151.582 138.063-13.929 17.542-26.46 36.434-35.91 56.779-4.815 10.367-12.961 27.234-9.632 39.375 5.186 18.914 52.899 14.039 65.314 13.35 41.328-2.296 82.302-11.453 122.516-20.617 69.808-15.908 138.986-34.502 207.77-54.329 50.009-14.416 99.636-30.25 149.976-43.515 24.86-6.55 50.44-13.272 76.21-15.04 21.02-1.441 32.67 4.719 35.49 26.362 4.15 31.796-7.82 61.469-28.98 85.086-27.02 30.163-63.9 49.909-99.11 68.693-70.746 37.738-143.94 70.958-215.967 106.124-60.475 29.526-122.139 58.692-178.789 95.309-29.411 19.01-59.974 41.344-79.002 71.482-10.633 16.842-15.08 35.536-15.8 55.259-.721 19.75 4.858 33.987 10.477 52.048" stroke="#fff" stroke-opacity=".02" stroke-width="119" stroke-linecap="round"/></svg>