<svg width="64" height="64" fill="none" xmlns="http://www.w3.org/2000/svg"><g clip-path="url(#clip0_115_45)"><path d="M20.107 41.943l-3.209 1.19c-2.78 1.029-5.898-.387-6.95-3.159a5.253 5.253 0 01.128-4.066 5.259 5.259 0 012.98-2.77l11.81-4.374c2.447-.905 6.74-1.925 8.01 1.42a2.974 2.974 0 105.561-2.108c-2.157-5.688-8.294-7.608-15.637-4.889l-11.81 4.375a11.162 11.162 0 00-6.33 5.884 11.16 11.16 0 00-.272 8.636 11.331 11.331 0 005.928 6.304 11.335 11.335 0 008.65.324l3.212-1.19a2.973 2.973 0 10-2.07-5.577zm38.926-20.151c-2.317-6.11-8.117-9.02-13.789-6.92l-4 1.483a2.975 2.975 0 002.069 5.577l3.998-1.482c2.939-1.09 5.211.95 6.16 3.451a5.252 5.252 0 01-.125 4.068 5.258 5.258 0 01-2.982 2.77l-12.6 4.665c-5.76 2.134-6.783-.562-7.219-1.712a2.974 2.974 0 00-5.562 2.107c1 2.638 2.673 4.48 4.854 5.472 2.67 1.214 6.102 1.152 9.995-.291l12.599-4.665a11.166 11.166 0 006.33-5.885 11.167 11.167 0 00.272-8.638z" fill="#47475F"/></g><defs><clipPath id="clip0_115_45"><path fill="#fff" transform="rotate(24.451 9.934 45.848)" d="M0 0h48v48H0z"/></clipPath></defs></svg>