<svg width="18" height="18" fill="none" xmlns="http://www.w3.org/2000/svg"><g clip-path="url(#clip0_122_577)"><path d="M16.638 2.189a4.65 4.65 0 00-6.575 0l-9.041 9.04a3.487 3.487 0 000 4.933 3.477 3.477 0 004.14.575.576.576 0 00.38-.164l9.041-9.04a2.324 2.324 0 10-3.287-3.288l-7.397 7.397a.582.582 0 00.821.822l7.398-7.397a1.161 1.161 0 111.643 1.644l-8.63 8.63a2.324 2.324 0 11-3.287-3.287l9.04-9.043a3.487 3.487 0 114.932 4.932l-8.219 8.219a.582.582 0 00.822.822l8.22-8.22a4.65 4.65 0 000-6.575z" fill="#ACACAC"/></g><defs><clipPath id="clip0_122_577"><path fill="#fff" d="M0 0h18v18H0z"/></clipPath></defs></svg>