<svg width="340" height="158" fill="none" xmlns="http://www.w3.org/2000/svg"><path d="M14.105 118.151c43.316-36.154 88.401-71.347 140.794-93.53 11.066-4.685 16.856-6.51 27.816-8.272 3.539-.57 10.393-2.602 10.71.968.135 1.524-2.604 5.695-2.969 6.17-7.532 9.794-17.851 17.856-27.097 25.844-37.457 32.358-76.435 64.635-107.648 103.325-3.537 4.384-5.454 6.815-7.442 11.487-3.08 7.239 14.755-5.636 21.591-9.529 72.871-41.488 145.104-84.79 220.395-121.82 13.955-6.863 19.895-9.542 33.106-14.13 4.086-1.418 12.398-6.5 12.788-2.194.273 3.015-4.953 8.555-6.396 10.21-6.254 7.17-13.533 13.424-20.652 19.7-22.18 19.56-44.253 39.243-66.645 58.558-19.556 16.869-41.369 33.047-58.647 52.374-1.417 1.585-1.958 2.712.698 1.732 11.026-4.07 21.416-9.91 32.434-14.1 40.593-15.44 83.302-24.985 125.396-35.343 1.185-.291 18.982-6.844 12.199.942-8.509 9.77-19.327 17.877-28.797 26.669-10.235 9.505-21.63 19.446-29.294 31.28-2.893 4.467-4.691 9.506-8.441 13.229" stroke="#9B9B9B" stroke-opacity=".08" stroke-width="28" stroke-linecap="round"/></svg>