<svg width="42" height="42" fill="none" xmlns="http://www.w3.org/2000/svg"><path d="M3.478 11.968C4.75 9.318 6.546 7.08 8.81 5.218c3.068-2.536 6.587-4.061 10.533-4.529 4.635-.55 8.99.328 13.018 2.74a23.006 23.006 0 012.83 2.018c.222.18.197.287.008.467a862.077 862.077 0 00-5.471 5.48c-.213.213-.328.197-.558.025-5.315-4.094-13.067-2.986-17.03 2.428a11.957 11.957 0 00-1.657 3.092c-.032.099-.098.19-.147.288-1.058-.804-2.125-1.608-3.175-2.42-1.23-.944-2.46-1.887-3.683-2.839z" fill="#E94335"/><path d="M10.336 24.921c.352.78.648 1.591 1.09 2.322 1.863 3.051 4.52 5.012 8.023 5.709 3.159.632 6.194.205 9.024-1.378.098-.05.197-.099.287-.148.05.05.09.107.14.148 2.116 1.64 4.24 3.281 6.357 4.922-1.017 1.009-2.174 1.82-3.404 2.526-3.569 2.035-7.433 2.855-11.501 2.543-5.07-.393-9.442-2.395-13.051-6.005-1.584-1.583-2.888-3.37-3.831-5.414.877-.672 1.755-1.337 2.633-2.01 1.41-1.074 2.822-2.14 4.233-3.215z" fill="#34A853"/><path d="M35.265 36.496c-2.116-1.64-4.24-3.282-6.357-4.922a1.18 1.18 0 01-.14-.148c.73-.566 1.477-1.115 2.076-1.837a9.54 9.54 0 002.01-4.07c.04-.188.008-.253-.181-.245-.098.008-.189 0-.287 0-3.347 0-6.702-.008-10.049.008-.37 0-.451-.098-.443-.451.017-2.379.017-4.758 0-7.137 0-.303.082-.385.386-.385 6.136.008 12.271.008 18.416 0 .262 0 .369.065.434.344.5 2.256.468 4.52.164 6.8a22.23 22.23 0 01-1.37 5.291 18.82 18.82 0 01-4.446 6.604c-.073.058-.147.099-.213.148z" fill="#4285F3"/><path d="M10.336 24.921c-1.411 1.075-2.822 2.141-4.233 3.216a561.14 561.14 0 00-2.633 2.01c-.681-1.264-1.124-2.6-1.485-3.979-.689-2.666-.796-5.373-.418-8.088.295-2.133.91-4.184 1.903-6.103 1.23.943 2.453 1.894 3.683 2.838 1.058.812 2.116 1.616 3.175 2.42-.18.878-.435 1.739-.517 2.641a12.73 12.73 0 00.476 4.815c.032.066.04.148.049.23z" fill="#FABB06"/></svg>