<svg width="999" height="669" fill="none" xmlns="http://www.w3.org/2000/svg"><path d="M33 178.497c17.682-8.841 34.922-18.533 52.618-27.335 59.726-29.707 124.271-47.921 188.539-64.935 83.452-22.094 168.28-38.006 254.23-46.46 49.19-4.838 98.508-6.817 147.914-7.13 16.375-.105 39.106-2.42 55.536 2.484 16.254 4.852-5.227 22.286-10.373 26.04-48.785 35.58-107.785 57.479-163.796 78.44-49.183 18.406-98.005 37.785-144.025 63.314-17.013 9.439-38.975 23.531-47.431 42.03-11.662 25.511 42.32 1.282 48.404-.54 71.873-21.53 143.226-44.151 215.658-63.855 80.91-22.01 163.011-48.035 246.992-54.995 11.97-.992 36.199-6.017 46.459 4.106 9.618 9.489 14.241 28.283 4.97 39.112-19.231 22.464-49.063 35.865-75.74 46.784-64.623 26.45-133.755 39.706-201.288 56.399-56.9 14.065-114.426 27.471-170.495 44.623-25.877 7.916-54.626 16.93-74.444 36.411-4.253 4.181-11.466 12.468-6.806 19.124 3.471 4.96 12.874 4.367 17.611 4.538 21.815.786 43.766.216 65.583.216 157.968 0 315.92-1.945 473.887-1.945 7.3 0 14.495-.465 4.538 5.187-13.035 7.398-27.81 11.784-42.03 16.098-38.692 11.74-77.985 21.542-117.229 31.225-71.276 17.588-144.41 31.933-213.065 58.561-8.022 3.111-52.684 17.714-35.439 34.466 14.199 13.793 48.714 11.641 66.34 12.642 91.011 5.166 182.878.965 274.003 1.296 7.251.027 26.583-.002 35.655.865 2.887.275 9.57 1.914 7.671 4.105-2.949 3.402-9.474 6.105-13.074 8.428-12.179 7.86-24.375 15.285-37.167 22.149-33.244 17.838-67.469 33.673-101.131 50.673-6.861 3.466-24.379 16.855-31.549 16.855" stroke="#262626" stroke-width="64" stroke-linecap="round"/></svg>