<svg width="60" height="50" fill="none" xmlns="http://www.w3.org/2000/svg"><g clip-path="url(#clip0_115_32)"><path d="M42.772 4.345C39.257 1.448 35 0 30 0s-9.257 1.448-12.772 4.345c-3.515 2.897-5.273 6.396-5.273 10.497 0 2.474 1.504 6.608 4.511 12.401 3.008 5.794 6.015 11.067 9.023 15.819C28.496 47.814 30 50.125 30 49.995a663.5 663.5 0 011.933-2.93c.82-1.236 2.266-3.564 4.336-6.981a242.244 242.244 0 005.449-9.423 109.99 109.99 0 004.335-8.886c1.328-3.06 1.992-5.37 1.992-6.933 0-4.1-1.758-7.6-5.273-10.497zm-8.905 13.622c-1.094.911-2.402 1.367-3.925 1.367-1.524 0-2.832-.456-3.926-1.367-1.093-.911-1.64-2.002-1.64-3.271 0-1.27.546-2.344 1.64-3.223 1.094-.878 2.402-1.318 3.926-1.318 1.523 0 2.831.44 3.925 1.318 1.094.88 1.64 1.953 1.64 3.223 0 1.27-.546 2.36-1.64 3.27z" fill="#47475F"/></g><defs><clipPath id="clip0_115_32"><path fill="#fff" d="M0 0h60v50H0z"/></clipPath></defs></svg>