<svg width="57" height="57" fill="none" xmlns="http://www.w3.org/2000/svg"><path d="M28.895 1.11a14.313 14.313 0 10-.001 28.625 14.313 14.313 0 00.001-28.625zm-1.12 13.3h2.2a3.719 3.719 0 01.007 7.436v1.832a1.203 1.203 0 11-2.404 0v-1.832H25.07a1.202 1.202 0 010-2.404h4.905a1.314 1.314 0 100-2.628h-2.2a3.9 3.9 0 01-.197-7.795V7.168a1.202 1.202 0 112.404 0v1.83h2.739a1.203 1.203 0 010 2.406h-4.947a1.503 1.503 0 100 3.005zM13.454 32.718h-5.84a.93.93 0 00-.93.93V53.58a.93.93 0 00.93.93h5.84a2.026 2.026 0 002.025-2.027v-17.74a2.026 2.026 0 00-2.025-2.026zm36.713 2.341a3.388 3.388 0 00-2.836-1.528h-2.29a4.941 4.941 0 00-4.582 3.066 5.122 5.122 0 01-.912 1.442 7.463 7.463 0 01-5.953 3.383h-6.78a1.202 1.202 0 010-2.404h6.748a4.522 4.522 0 002.427-.78v-.041a4.648 4.648 0 00-4.648-4.666h-4.975a6.89 6.89 0 00-4.896 2.022l-.127.126a6.455 6.455 0 01-3.46 1.793v13.28h18.143a13.743 13.743 0 0012.638-8.324l1.787-4.16a3.387 3.387 0 00-.284-3.21z" fill="#47475F"/></svg>