<svg width="1422" height="548" fill="none" xmlns="http://www.w3.org/2000/svg"><path d="M1 488.8c0-20.836 6.772-41.206 10.95-61.476 8.163-39.608 20.411-79.139 34.066-117.227 4.523-12.619 9.078-27.41 24.404-27.41 6.5 0 2.72 44.978 2.72 49.238V502.97c0 6.587-.983 14.06 0 20.611.566 3.775 10.29-13.991 10.305-14.027 8.347-20.146 12.358-41.853 13.598-63.551 3.302-57.795-.52-115.765 3.435-173.621 2.805-41.039 12.596-81.446 12.596-122.594 0-3.548-1.634-12.341.644-15.53.019-.027 4.144 7.491 4.509 8.301 17.33 38.513 17.674 84.851 17.963 126.03.297 42.388.071 84.785.071 127.174 0 13.034-2.291 28.8.072 41.795 1.237 6.803 3.145-13.467 4.795-20.182 3.794-15.439 8.719-32.586 16.89-46.375 3.502-5.911 5.506-6.598 7.443-.143 3.588 11.96 7.462 23.635 9.876 35.926.145.737 1.244 10.883 4.008 9.376 1.497-.817 3.441-8.112 3.721-8.803 4.006-9.876 8.268-19.677 12.596-29.414 5.848-13.159 11.737-29.287 20.969-40.65 1.544-1.901 8.77 14.144 9.662 15.816.635 1.192 4.509 10.608 6.87 6.441 12.052-21.268 23.796-42.996 35.354-64.553 14.145-26.383 23.663-50.657 26.337-80.585 2.708-30.32 2.109-60.726 5.582-91.033 2.501-21.821 6.722-43.407 7.157-65.412.006-.304 1.113-13.389 1.288-8.588 2.07 56.931 1.288 113.923 1.288 170.902v318.902c0 4.051-.612 12.845 1.288 3.721 5.844-28.05 14.45-55.54 25.049-82.158 14.126-35.479 33.211-68.456 53.389-100.766 3.092-4.952 6.166-9.98 9.446-14.815.486-.715 1.486-2.337 2.004-1.646 1.627 2.169 1.428 38.663 1.575 16.317.095-14.428-.288-28.874.143-43.298.185-6.189-1.223-24.435 4.938-29.056 2.329-1.746 6.13 13.185 6.298 13.67 4.705 13.578 9.511 27.569 15.673 40.578 1.815 3.832 3.854 8.793 6.799 3.149 8.063-15.454 14.739-31.378 26.48-44.586 2.302-2.59 14.278-17.461 16.388-8.445 3.47 14.823 4.816 30.087 8.159 44.944.676 3.004 1.3 10.588 3.578 8.516 7.306-6.641 12.125-16.51 19.538-23.474 9.956-9.352 11.843-8.216 17.963 3.149 3.347 6.215 10.755 22.965 20.683 19.968 6.62-1.999 12.489-8.839 17.105-13.455 10.099-10.1 19.571-20.802 28.269-32.134 20.949-27.292 41.148-58.278 50.597-91.677 7.573-26.766 6.012-111.049 6.012-83.232 0 11.995-.144 24.009.286 35.998 1.172 32.625 7.452 64.746 9.161 97.331 3.509 66.93.859 134.514.859 201.532v.716c0-6.918-.042-13.837 0-20.754.242-39.964 4.521-78.05 16.603-116.368 14.753-46.787 36.238-91.191 60.546-133.687 7.153-12.506 14.589-24.892 22.4-37 1.595-2.472 4.848-9.441 5.797-6.656 3.339 9.794 1.466 24.078 2.362 34.281 1.384 15.762 5.304 31.112 6.799 46.804 1.234 12.957 8.07-10.981 10.52-4.365 3.797 10.251 5.264 21.234 9.447 31.418 2.974 7.24 3.816 7.235 6.226-.215 4.177-12.91 9.342-26.115 19.252-35.783 7.576-7.392 10.362 10.741 11.808 15.601 1.129 3.792 2.544 18.49 5.01 9.447.641-2.352 2.45-2.494 3.865-4.151 11.405-13.361 19.874-30.619 29.342-45.373 23.843-37.157 43.8-75.427 59.973-116.511 4.372-11.106 6.73-21.688 8.016-33.494.528-4.855 1.516-9.151 4.15-13.311 6.21-9.804 11.152-.928 15.602 6.155 15.655 24.917 31.136 49.875 40.793 77.865 10.67 30.934 13.09 61.211 13.17 93.609.09 38.169 0 152.676 0 114.507 0-13.411.47-26.853 1.57-40.22 2.45-29.667 10.28-57.404 17.89-86.024 2.53-9.482 3.55-19.532 6.23-28.913.75-2.623.38 5.444.65 8.159.68 6.962 1.72 13.876 2.5 20.826.2 1.766-.23 17.825 1.5 18.321 1.73.492 6.32-17.543 6.73-18.536 1.47-3.583 8.9-23.222 15.46-16.46 11.37 11.719 17.3 29.946 25.12 44.013 1.1 1.975 5.82 12.522 9.37 13.526 3.47.98 4.09-5.954 5.73-9.16 6.77-13.258 15.19-28.306 26.62-38.217 6.08-5.268 13.03 31.194 15.39 24.834 2.74-7.376 23.18-60.974 32.2-50.383 2.73 3.199 5.31 11.921 9.59 6.87 13-15.33 23.74-33.401 33.78-50.741 17.32-29.916 21.84-62.612 32.49-94.97 2.43-7.351 3.95-21.393 7.09-22.113 3.14-.72 2.86-1.861 2.86-1.861s24.03 98.835 26.2 151.149c1.66 40.246.57 80.673.57 120.948 0 2.238-.69 15.639.28 6.012 2.06-20.34 8.92-39.649 17.18-58.256 12.76-28.727 35.13-50.475 49.81-77.578 4.37-8.055 9.93-14.311 16.18-21.041 5.19-5.598 12.25-8.878 17.74-14.17 2.37-2.284 2.84-4.373 6.3-4.437 9.34-.173 15.4-1.03 23.91-3.865" stroke="#262626" stroke-width="2" stroke-linecap="round"/></svg>