<svg width="40" height="40" fill="none" xmlns="http://www.w3.org/2000/svg"><g clip-path="url(#clip0_160_1168)"><path d="M7 40h26a7 7 0 007-7V7a7 7 0 00-7-7H7a7 7 0 00-7 7v26a7 7 0 007 7z" fill="#00AADE"/><path d="M29.5 13a4.999 4.999 0 002.5-3c-1 1-3.125 1.331-3.125 1.331A5 5 0 0020.231 16H20a14.655 14.655 0 01-10.5-5.5s-3 4 1.5 7c0 0-2 0-2.5-.5 0 0-.5 3 4 5a2.413 2.413 0 01-2 0c0 1.931 2.012 3.5 4.5 3.5 0 1.381-3.356 2.5-7.5 2.5 6.5 4.5 22 3.5 23-13.5L33 12l-3.5 1z" fill="#fff"/></g><defs><clipPath id="clip0_160_1168"><path fill="#fff" d="M0 0h40v40H0z"/></clipPath></defs></svg>