<svg width="41" height="41" fill="none" xmlns="http://www.w3.org/2000/svg"><g clip-path="url(#clip0_160_1144)"><path d="M20.5 41C31.822 41 41 31.822 41 20.5S31.822 0 20.5 0 0 9.178 0 20.5 9.178 41 20.5 41z" fill="#4D76A1"/><path fill-rule="evenodd" clip-rule="evenodd" d="M19.726 29.491h1.609s.486-.053.734-.32c.228-.246.22-.707.22-.707s-.03-2.16.971-2.477c.988-.314 2.257 2.086 3.601 3.009 1.017.698 1.79.545 1.79.545l3.594-.05s1.88-.116.989-1.594c-.073-.121-.52-1.094-2.673-3.093-2.254-2.092-1.952-1.754.763-5.372 1.654-2.204 2.315-3.55 2.108-4.126-.197-.55-1.413-.404-1.413-.404l-4.047.025s-.3-.04-.523.092c-.217.13-.357.435-.357.435s-.641 1.705-1.495 3.156c-1.803 3.06-2.523 3.222-2.818 3.032-.685-.443-.514-1.78-.514-2.73 0-2.965.45-4.201-.876-4.522-.44-.106-.764-.176-1.889-.188-1.444-.014-2.666.005-3.358.344-.461.226-.816.728-.6.757.268.036.874.163 1.195.6.415.565.4 1.832.4 1.832s.238 3.492-.557 3.925c-.545.298-1.294-.31-2.9-3.086-.824-1.422-1.445-2.995-1.445-2.995s-.12-.293-.334-.45c-.26-.19-.622-.252-.622-.252l-3.846.026s-.578.016-.79.267c-.188.223-.014.685-.014.685s3.01 7.045 6.42 10.595c3.127 3.255 6.677 3.041 6.677 3.041z" fill="#fff"/></g><defs><clipPath id="clip0_160_1144"><path fill="#fff" d="M0 0h41v41H0z"/></clipPath></defs></svg>