<svg width="40" height="40" fill="none" xmlns="http://www.w3.org/2000/svg"><g clip-path="url(#clip0_160_1164)"><path d="M39.898 37.41a2.49 2.49 0 01-2.488 2.488H2.59A2.49 2.49 0 01.101 37.41V2.59A2.49 2.49 0 012.59.102h34.82a2.49 2.49 0 012.488 2.488v34.82z" fill="#ED1F24"/><path d="M24.49 8.232h-3.566c-3.504 0-6.476 2.667-6.476 7.846 0 3.106 1.439 5.397 4.004 6.527l-4.786 8.661c-.157.283 0 .502.25.502h2.221c.188 0 .314-.062.376-.219l4.348-8.505h1.564v8.505c0 .093.094.22.22.22h1.94c.187 0 .25-.095.25-.251V8.546c0-.22-.126-.314-.345-.314zm-2.065 12.804h-1.314c-2.064 0-4.066-1.506-4.066-5.272 0-3.924 1.877-5.524 3.785-5.524h1.596v10.796z" fill="#fff"/></g><defs><clipPath id="clip0_160_1164"><path fill="#fff" d="M0 0h40v40H0z"/></clipPath></defs></svg>