<svg width="20" height="20" fill="none" xmlns="http://www.w3.org/2000/svg"><path d="M2.222 20a2.143 2.143 0 01-1.57-.652A2.143 2.143 0 010 17.778V2.222c0-.61.217-1.134.652-1.57A2.143 2.143 0 012.222 0h15.556c.61 0 1.134.217 1.57.652.435.436.652.96.652 1.57v15.556c0 .61-.217 1.134-.652 1.57a2.143 2.143 0 01-1.57.652H2.222zm6.222-5.806c.149 0 .287-.023.417-.068a.982.982 0 00.361-.237l6.306-6.306a1.02 1.02 0 00.305-.75c0-.296-.11-.555-.333-.777a1.054 1.054 0 00-.778-.306c-.315 0-.574.102-.778.306l-5.5 5.5-2.416-2.417a1.02 1.02 0 00-.75-.306c-.297 0-.556.111-.778.334a1.054 1.054 0 00-.306.777c0 .315.102.574.306.778l3.167 3.167a.98.98 0 00.36.237c.13.046.27.068.417.068z" fill="#DE321A"/></svg>