<svg width="20" height="20" fill="none" xmlns="http://www.w3.org/2000/svg"><path d="M2.857-.5A2.86 2.86 0 000 2.357v14.286A2.86 2.86 0 002.857 19.5h14.286A2.86 2.86 0 0020 16.643V2.357A2.86 2.86 0 0017.143-.5H2.857zm4.05 4.317a.891.891 0 011.057.518l.893 2.143a.897.897 0 01-.259 1.035L7.5 8.415A7.516 7.516 0 0011.085 12l.902-1.103a.897.897 0 011.035-.259l2.143.893a.894.894 0 01.518 1.058l-.536 1.965a.892.892 0 01-.861.66c-5.523 0-10-4.477-10-10 0-.402.268-.754.656-.861l1.964-.536z" fill="#171717"/></svg>