<svg width="40" height="40" fill="none" xmlns="http://www.w3.org/2000/svg"><path d="M34.17 5.82a19.738 19.738 0 00-6.456-4.32A19.826 19.826 0 0020.08 0C9.106 0 .16 8.9.16 19.82c0 3.5.925 6.9 2.654 9.9L0 40l10.553-2.76a20.003 20.003 0 009.527 2.42c10.975 0 19.92-8.9 19.92-19.82 0-5.3-2.07-10.28-5.83-14.02zM20.08 36.3c-2.974 0-5.889-.8-8.442-2.3l-.603-.36-6.271 1.64 1.668-6.08-.402-.62a16.467 16.467 0 01-2.533-8.76c0-9.08 7.438-16.48 16.563-16.48a16.43 16.43 0 0111.7 4.84 16.362 16.362 0 013.597 5.347 16.296 16.296 0 011.247 6.313c.04 9.08-7.397 16.46-16.523 16.46zm9.086-12.32c-.503-.24-2.955-1.44-3.397-1.62-.462-.16-.784-.24-1.126.24-.341.5-1.286 1.62-1.568 1.94-.281.34-.582.38-1.085.12-.503-.24-2.11-.78-4-2.46-1.487-1.32-2.472-2.94-2.774-3.44-.281-.5-.04-.76.221-1.02.221-.22.503-.58.744-.86s.342-.5.502-.82c.161-.34.08-.62-.04-.86s-1.125-2.68-1.527-3.68c-.402-.96-.825-.84-1.126-.86h-.965c-.342 0-.864.12-1.327.62-.442.5-1.728 1.7-1.728 4.14 0 2.44 1.789 4.8 2.03 5.12.241.34 3.518 5.34 8.503 7.48 1.185.52 2.11.82 2.834 1.04 1.186.38 2.271.32 3.135.2.965-.14 2.955-1.2 3.357-2.36.422-1.16.422-2.14.281-2.36-.14-.22-.442-.32-.944-.56z" fill="#171717"/></svg>