<svg width="330" height="120" fill="none" xmlns="http://www.w3.org/2000/svg"><path d="M248.485 101.5a46.711 46.711 0 01-25.035-45.468 46.73 46.73 0 0132.424-40.538 46.712 46.712 0 0149.854 14.438 46.714 46.714 0 015.737 51.59 46.721 46.721 0 01-62.98 19.978zm74.916-15.381l-2.672-9.218 7.707-5.755a2.057 2.057 0 00.46-2.797l-5.397-7.94 5.505-7.87a2.047 2.047 0 00-.431-2.795l-7.592-5.88 2.79-9.185a2.06 2.06 0 00-1.269-2.53l-9.034-3.256-.144-9.625a2.055 2.055 0 00-1.991-2.014l-9.596-.294-3.129-9.073a2.05 2.05 0 00-2.514-1.303l-9.217 2.673-5.772-7.671a2.06 2.06 0 00-2.793-.467l-7.937 5.41-7.868-5.506a2.057 2.057 0 00-2.799.422l-5.88 7.593-9.173-2.81a2.05 2.05 0 00-2.533 1.258l-3.257 9.034-9.599.168a2.052 2.052 0 00-2.021 1.987l-.288 9.601-9.08 3.127a2.05 2.05 0 00-1.3 2.507l2.68 9.221-7.679 5.77a2.049 2.049 0 00-.46 2.797l5.397 7.94-5.502 7.863a2.056 2.056 0 00-.349 1.487c.08.522.359.993.777 1.315l7.585 5.876-2.815 9.182a2.054 2.054 0 001.269 2.53l9.033 3.255.156 9.604a2.055 2.055 0 001.991 2.013l9.643.292 3.125 9.08a2.052 2.052 0 002.513 1.303l9.186-2.699 5.768 7.679c.318.42.784.703 1.304.79a2.052 2.052 0 001.489-.324l7.937-5.409 7.868 5.505a2.056 2.056 0 002.799-.421l5.873-7.597 9.18 2.814c.505.155 1.049.11 1.521-.126a2.053 2.053 0 001.016-1.139l3.253-9.028 9.588-.146a2.054 2.054 0 002.021-1.987l.288-9.601 9.073-3.13a2.036 2.036 0 001.299-2.507l-.003.007z" fill="url(#paint0_linear_205_3)"/><path d="M291.252 18.994a46.21 46.21 0 00-57.364 12.162 46.217 46.217 0 00.732 58.637 46.205 46.205 0 0057.649 10.712 46.225 46.225 0 0021.757-54.458 45.893 45.893 0 00-22.774-27.053zm-43.004 82.964a47.229 47.229 0 01-23.601-55.086 47.239 47.239 0 0149.423-33.9 47.229 47.229 0 0142.879 41.862 47.242 47.242 0 01-32.697 50.23 46.903 46.903 0 01-36.015-3.085l.011-.021z" fill="url(#paint1_linear_205_3)"/><path d="M247.432 50.385l1.798.931a3.401 3.401 0 004.061-.439 4.393 4.393 0 001.111-1.423 4.959 4.959 0 00.694-3.566 3.484 3.484 0 00-1.946-2.135l-1.797-.932-3.921 7.564zm5.818-11.224l1.797.932a2.946 2.946 0 003.581-.352 4.933 4.933 0 001.078-1.468 3.526 3.526 0 00.381-2.838 3.293 3.293 0 00-1.698-1.788l-1.798-.932-3.341 6.446zm-12.412 12.604l13.147-25.363 6.445 3.341a10.063 10.063 0 013.974 3.569 6.338 6.338 0 01.874 4.432 8.96 8.96 0 01-.988 2.905 6.24 6.24 0 01-3.635 3.296 4.91 4.91 0 01-2.016.209 5.484 5.484 0 011.436 3.188 7.773 7.773 0 01-.325 3.012 9.919 9.919 0 01-.749 1.848 8.68 8.68 0 01-3.14 3.551 6.569 6.569 0 01-3.348.937 7.655 7.655 0 01-3.704-.794l-7.971-4.131z" fill="url(#paint2_linear_205_3)"/><path d="M269.736 66.743l-4.297-2.227 13.135-25.34 4.297 2.227-13.135 25.34z" fill="url(#paint3_linear_205_3)"/><path d="M299.275 57.084a2.251 2.251 0 00.085-1.919 3.048 3.048 0 00-3.487-1.807 2.235 2.235 0 00-1.518 1.176l-7.192 13.873a2.236 2.236 0 00-.086 1.919 3.05 3.05 0 003.488 1.808 2.236 2.236 0 001.518-1.176l7.192-13.874zm.762-7.202a7.857 7.857 0 013.902 4.285 6.237 6.237 0 01-.237 5.33l-7.173 13.838a6.233 6.233 0 01-4.225 3.262 8.382 8.382 0 01-9.64-4.997 6.283 6.283 0 01.251-5.322l7.181-13.852a6.232 6.232 0 014.225-3.262 7.915 7.915 0 015.716.718z" fill="url(#paint4_linear_205_3)"/><path d="M239.494 72.713l-3.001-1.556.313-.428.915.129 2.012-3.882-.706-.566.317-.49c.51.173.962.335 1.346.489.384.153.796.34 1.226.562.582.263 1.083.68 1.447 1.205a1.54 1.54 0 01-.07 1.572c-.17.33-.432.604-.755.79a2.191 2.191 0 01-1.1.265 2.545 2.545 0 01-1.186-.305l-.401-.208.189-.611.157.082c.313.18.681.239 1.034.163a1.13 1.13 0 00.698-.629c.169-.295.223-.643.151-.976a1.153 1.153 0 00-.667-.763l-.193-.1-.172-.09-2.102 4.054.909.79-.354.488-.007.015z" fill="url(#paint5_linear_205_3)"/><path d="M246.691 70.237l-1.077 2.077.759.394c.241.025.485-.015.705-.116a1.07 1.07 0 00.509-.509c.1-.192.151-.406.15-.622a1.096 1.096 0 00-.193-.59 1.4 1.4 0 00-.528-.456l-.329-.17.004-.008zm-1.863 5.241l-2.75-1.425.306-.432.922.132 1.993-3.846-.709-.577.321-.497c.37.128.768.271 1.299.492.408.155.808.332 1.197.53a4.336 4.336 0 011.605 1.25 1.308 1.308 0 01.026 1.422 1.501 1.501 0 01-.491.544 2.265 2.265 0 01-.73.304 2.42 2.42 0 01-.787.028l.195 1.237c.049.343.103.607.147.803.043.196.113.386.208.562.097.185.227.35.383.49l.135.124-.334.381a2.883 2.883 0 01-.768-.27 1.873 1.873 0 01-.875-.872 3.309 3.309 0 01-.226-1.317l-.024-1.285-.537-.278-.724 1.397.582.629-.314.5-.05-.026z" fill="url(#paint6_linear_205_3)"/><path d="M254.068 73.97a1.279 1.279 0 00-1.345-.016 3.3 3.3 0 00-1.08 1.313 4.72 4.72 0 00-.421 1.18 2.55 2.55 0 000 1.191 1.267 1.267 0 00.677.833c.931.482 1.738.065 2.421-1.253.193-.376.336-.775.425-1.188.098-.396.101-.809.007-1.205a1.258 1.258 0 00-.684-.855zM251.343 79a3.23 3.23 0 01-1.247-1.1 2.557 2.557 0 01-.382-1.47 3.927 3.927 0 01.449-1.585c.257-.524.64-.974 1.116-1.312a2.734 2.734 0 011.544-.472 3.81 3.81 0 011.786.48c.504.248.937.619 1.257 1.08.287.417.44.911.438 1.417a3.739 3.739 0 01-.473 1.718 3.22 3.22 0 01-1.133 1.275 2.897 2.897 0 01-1.572.44 3.862 3.862 0 01-1.779-.478l-.004.007z" fill="url(#paint7_linear_205_3)"/><path d="M259.841 77.153l-2.149 4.148.479.248c.403.235.865.348 1.331.326a1.8 1.8 0 001.015-.382c.281-.226.512-.51.676-.83.195-.377.304-.792.321-1.216a2.15 2.15 0 00-.293-1.187 2.465 2.465 0 00-1.061-.95l-.165-.086-.136-.07h-.018zm-2.137 5l-2.456-1.274.32-.425.952.057 1.967-3.796-.666-.554.303-.497c.456.154.912.327 1.371.51.459.184.839.362 1.154.526a4.167 4.167 0 012.242 2.07 2.886 2.886 0 01-.24 2.375 2.94 2.94 0 01-1.158 1.217 3.263 3.263 0 01-1.752.419 4.596 4.596 0 01-2.066-.571l.029-.058z" fill="url(#paint8_linear_205_3)"/><path d="M265.272 80.123l-.683-.68.349-.447 2.757 1.43-.32.46-.839-.135-1.251 2.414a1.798 1.798 0 00-.229 1.371 1.54 1.54 0 00.83.922 1.342 1.342 0 001.132.114c.414-.192.741-.53.919-.95l1.273-2.457-.646-.68.32-.462 2.328 1.207-.321.46-.838-.134-1.218 2.35a3.007 3.007 0 01-1.564 1.56 2.644 2.644 0 01-2.084-.307 4.587 4.587 0 01-1.068-.745 1.856 1.856 0 01-.529-1.083 2.673 2.673 0 01.392-1.614l1.351-2.607-.061.013z" fill="url(#paint9_linear_205_3)"/><path d="M271.976 89.695a3.732 3.732 0 01-1.319-1.083 2.675 2.675 0 01-.521-1.433 3.235 3.235 0 01.392-1.614c.254-.498.618-.93 1.065-1.266a2.976 2.976 0 011.614-.608c.707-.04 1.41.126 2.025.477.321.166.621.37.893.608.228.192.415.428.549.694l-.983 1.58-.525-.372.336-1.052a1.123 1.123 0 00-.28-.527 1.717 1.717 0 00-.543-.427 1.61 1.61 0 00-.942-.197c-.326.04-.633.174-.882.387-.31.27-.562.6-.74.971a3.23 3.23 0 00-.402 1.373 2.02 2.02 0 00.311 1.151c.216.343.523.619.887.796.276.144.577.236.887.27.305.035.613.03.917-.016l-.023.57a2.4 2.4 0 01-.735.155 3.796 3.796 0 01-1.917-.403l-.064-.034z" fill="url(#paint10_linear_205_3)"/><path d="M277.857 85.692l5.192 2.692-1.034 1.644-.557-.415.317-1.154-1.067-.553-2.154 4.154.741.639-.328.475-2.793-1.448.288-.45.89.142 2.145-4.14-1.038-.538-.906.994-.528-.383.832-1.659z" fill="url(#paint11_linear_205_3)"/><path d="M289.812 86.292l-52.716-27.325a1.025 1.025 0 01.943-1.82l52.716 27.325a1.025 1.025 0 01-.943 1.82z" fill="url(#paint12_linear_205_3)"/><path d="M29.51 92.367v1.296c0 2.446-.345 4.644-1.033 6.592-.674 1.933-1.634 3.589-2.879 4.966a12.768 12.768 0 01-4.416 3.142c-1.7.718-3.575 1.076-5.625 1.076-2.066 0-3.955-.358-5.67-1.076a12.99 12.99 0 01-4.438-3.142c-1.245-1.377-2.212-3.033-2.9-4.966-.674-1.948-1.01-4.146-1.01-6.592v-1.296c0-2.447.336-4.644 1.01-6.592.688-1.948 1.648-3.604 2.878-4.966a12.385 12.385 0 014.417-3.142c1.714-.732 3.603-1.099 5.669-1.099 2.05 0 3.926.367 5.625 1.099a12.338 12.338 0 014.438 3.142c1.245 1.362 2.212 3.018 2.9 4.966.689 1.948 1.033 4.145 1.033 6.592zm-7.823 1.296v-1.34c0-1.582-.14-2.974-.418-4.175-.263-1.216-.659-2.234-1.186-3.054-.527-.82-1.18-1.436-1.956-1.846-.761-.425-1.633-.637-2.614-.637-1.026 0-1.92.212-2.681.637-.762.41-1.399 1.025-1.912 1.846-.512.82-.9 1.838-1.164 3.054-.25 1.201-.374 2.593-.374 4.175v1.34c0 1.568.125 2.96.374 4.175.264 1.201.652 2.219 1.164 3.054.528.835 1.172 1.465 1.934 1.89.776.425 1.677.637 2.703.637.981 0 1.853-.212 2.614-.637.762-.425 1.4-1.055 1.912-1.89.527-.835.923-1.853 1.187-3.054.278-1.216.417-2.607.417-4.175zm11.821-16.655h12.59c2.462 0 4.6.366 6.417 1.098 1.816.733 3.215 1.817 4.196 3.252.997 1.436 1.495 3.208 1.495 5.318 0 1.83-.286 3.362-.857 4.592a8.222 8.222 0 01-2.395 3.054c-1.011.791-2.19 1.443-3.538 1.956l-2.527 1.428H38.32l-.044-5.955H46.1c.981 0 1.794-.175 2.439-.527a3.402 3.402 0 001.45-1.494c.337-.66.505-1.443.505-2.351 0-.923-.168-1.714-.505-2.373a3.475 3.475 0 00-1.494-1.516c-.645-.352-1.443-.528-2.395-.528h-4.88V109h-7.713V77.008zM51.02 109l-7.075-14.15 8.174-.044 7.163 13.864v.33h-8.261zm38.013-17.095v13.14c-.542.601-1.377 1.245-2.505 1.934-1.113.673-2.52 1.252-4.218 1.735-1.7.484-3.7.725-5.999.725-2.124 0-4.05-.336-5.779-1.01a12.328 12.328 0 01-4.46-3.011c-1.23-1.333-2.183-2.959-2.857-4.877-.659-1.934-.988-4.146-.988-6.636v-1.78c0-2.49.337-4.702 1.01-6.636.674-1.933 1.619-3.56 2.835-4.878A12.21 12.21 0 0170.4 77.58c1.67-.688 3.501-1.033 5.494-1.033 2.944 0 5.339.47 7.185 1.407 1.845.922 3.244 2.204 4.196 3.845.953 1.626 1.531 3.508 1.736 5.647h-7.405c-.146-1.055-.424-1.948-.834-2.68a3.903 3.903 0 00-1.714-1.693c-.748-.395-1.714-.593-2.9-.593-.924 0-1.766.198-2.528.593-.747.396-1.384.996-1.911 1.802-.528.791-.938 1.787-1.23 2.988-.279 1.202-.418 2.608-.418 4.22v1.823c0 1.596.132 2.995.395 4.197.279 1.2.689 2.204 1.23 3.01a5.442 5.442 0 002.11 1.802c.864.395 1.883.593 3.054.593.82 0 1.524-.066 2.11-.198.586-.146 1.07-.322 1.45-.527.395-.22.696-.425.9-.615v-4.966h-5.36v-5.296h13.073zm18.062-8.174L99.295 109H91.01l11.755-31.992h5.252l-.923 6.723zm6.46 25.269l-7.823-25.269-1.01-6.723h5.317L121.86 109h-8.305zm-.308-11.931v5.954H96.834v-5.954h16.413zm37.683-20.061V109h-7.69l-11.316-19.907V109h-7.713V77.008h7.713l11.316 19.907V77.008h7.69zm13.074 0V109h-7.691V77.008h7.691zm23.621 21.16h7.69c-.103 2.226-.703 4.189-1.802 5.888-1.098 1.699-2.622 3.025-4.57 3.977-1.934.938-4.219 1.406-6.856 1.406-2.138 0-4.05-.358-5.734-1.076a11.698 11.698 0 01-4.263-3.098c-1.157-1.348-2.044-2.981-2.659-4.9-.6-1.92-.901-4.08-.901-6.482v-1.736c0-2.402.315-4.563.945-6.482.645-1.934 1.553-3.574 2.725-4.922a11.817 11.817 0 014.262-3.12c1.656-.718 3.494-1.077 5.516-1.077 2.783 0 5.134.498 7.053 1.494 1.919.997 3.406 2.366 4.46 4.11 1.055 1.728 1.677 3.698 1.868 5.91h-7.691c-.029-1.201-.234-2.204-.615-3.01a3.801 3.801 0 00-1.802-1.846c-.82-.41-1.911-.615-3.273-.615-.953 0-1.78.176-2.483.527-.703.352-1.289.908-1.758 1.67-.469.762-.82 1.75-1.055 2.966-.22 1.202-.329 2.652-.329 4.351v1.78c0 1.699.102 3.15.307 4.35.205 1.202.535 2.183.989 2.945.454.761 1.04 1.325 1.758 1.692.732.351 1.626.527 2.68.527 1.172 0 2.161-.183 2.967-.549a4.153 4.153 0 001.867-1.714c.44-.777.674-1.765.704-2.966z" fill="url(#paint13_linear_205_3)"/><defs><linearGradient id="paint0_linear_205_3" x1="297.612" y1="6.731" x2="242.388" y2="113.269" gradientUnits="userSpaceOnUse"><stop stop-color="#FFC28A"/><stop offset="1" stop-color="#FFC700"/></linearGradient><linearGradient id="paint1_linear_205_3" x1="291.743" y1="18.095" x2="248.256" y2="101.99" gradientUnits="userSpaceOnUse"><stop stop-color="#FFC28A"/><stop offset="1" stop-color="#FFC700"/></linearGradient><linearGradient id="paint2_linear_205_3" x1="261.235" y1="30.159" x2="248.087" y2="55.522" gradientUnits="userSpaceOnUse"><stop stop-color="#FFC28A"/><stop offset="1" stop-color="#FFC700"/></linearGradient><linearGradient id="paint3_linear_205_3" x1="280.723" y1="40.289" x2="267.587" y2="65.63" gradientUnits="userSpaceOnUse"><stop stop-color="#FFC28A"/><stop offset="1" stop-color="#FFC700"/></linearGradient><linearGradient id="paint4_linear_205_3" x1="300.048" y1="49.886" x2="286.576" y2="75.876" gradientUnits="userSpaceOnUse"><stop stop-color="#FFC28A"/><stop offset="1" stop-color="#FFC700"/></linearGradient><linearGradient id="paint5_linear_205_3" x1="241.75" y1="66.879" x2="238.889" y2="72.399" gradientUnits="userSpaceOnUse"><stop stop-color="#FFC28A"/><stop offset="1" stop-color="#FFC700"/></linearGradient><linearGradient id="paint6_linear_205_3" x1="247.822" y1="70.062" x2="244.923" y2="75.655" gradientUnits="userSpaceOnUse"><stop stop-color="#FFC28A"/><stop offset="1" stop-color="#FFC700"/></linearGradient><linearGradient id="paint7_linear_205_3" x1="254.467" y1="73.466" x2="251.544" y2="79.105" gradientUnits="userSpaceOnUse"><stop stop-color="#FFC28A"/><stop offset="1" stop-color="#FFC700"/></linearGradient><linearGradient id="paint8_linear_205_3" x1="261.084" y1="76.898" x2="258.191" y2="82.479" gradientUnits="userSpaceOnUse"><stop stop-color="#FFC28A"/><stop offset="1" stop-color="#FFC700"/></linearGradient><linearGradient id="paint9_linear_205_3" x1="268.032" y1="80.582" x2="265.147" y2="86.147" gradientUnits="userSpaceOnUse"><stop stop-color="#FFC28A"/><stop offset="1" stop-color="#FFC700"/></linearGradient><linearGradient id="paint10_linear_205_3" x1="274.638" y1="83.857" x2="271.689" y2="89.547" gradientUnits="userSpaceOnUse"><stop stop-color="#FFC28A"/><stop offset="1" stop-color="#FFC700"/></linearGradient><linearGradient id="paint11_linear_205_3" x1="280.453" y1="87.038" x2="277.632" y2="92.481" gradientUnits="userSpaceOnUse"><stop stop-color="#FFC28A"/><stop offset="1" stop-color="#FFC700"/></linearGradient><linearGradient id="paint12_linear_205_3" x1="264.397" y1="70.81" x2="263.454" y2="72.629" gradientUnits="userSpaceOnUse"><stop stop-color="#FFC28A"/><stop offset="1" stop-color="#FFC700"/></linearGradient><linearGradient id="paint13_linear_205_3" x1="98.5" y1="67" x2="98.5" y2="120" gradientUnits="userSpaceOnUse"><stop stop-color="#FFC28A"/><stop offset="1" stop-color="#FFC700"/></linearGradient></defs></svg>