<svg width="530" height="60" fill="none" xmlns="http://www.w3.org/2000/svg"><path d="M24.093 45.548a2 2 0 01-2.853 0L10.378 34.494a2 2 0 010-2.803l3.27-3.33a2 2 0 012.856.002l4.735 4.833a2 2 0 002.856.002l18.401-18.745a2 2 0 012.854 0l3.273 3.33a2 2 0 010 2.803l-24.53 24.962z" fill="url(#paint0_linear_76_3778)"/><rect x="1.5" y="1.5" width="57" height="57" rx="8.5" stroke="url(#paint1_linear_76_3778)" stroke-width="3"/><path d="M91.236 45.548a2 2 0 01-2.853 0L77.52 34.494a2 2 0 010-2.803l3.272-3.33a2 2 0 012.855.002l4.735 4.833a2 2 0 002.856.002l18.401-18.745a2 2 0 012.853 0l3.273 3.33a2 2 0 010 2.803l-24.53 24.962z" fill="url(#paint2_linear_76_3778)"/><rect x="68.643" y="1.5" width="57" height="57" rx="8.5" stroke="url(#paint3_linear_76_3778)" stroke-width="3"/><path d="M158.379 45.548a2 2 0 01-2.853 0l-10.862-11.054a2 2 0 010-2.803l3.271-3.33a2 2 0 012.855.002l4.736 4.833a2 2 0 002.855.002l18.401-18.745a2 2 0 012.854 0l3.273 3.33a2.001 2.001 0 010 2.803l-24.53 24.962z" fill="url(#paint4_linear_76_3778)"/><rect x="135.786" y="1.5" width="57" height="57" rx="8.5" stroke="url(#paint5_linear_76_3778)" stroke-width="3"/><path d="M225.522 45.548a2 2 0 01-2.853 0l-10.863-11.054a2.001 2.001 0 010-2.803l3.272-3.33a2 2 0 012.855.002l4.735 4.833a2 2 0 002.856.002l18.401-18.745a2 2 0 012.854 0l3.272 3.33a2 2 0 010 2.803l-24.529 24.962z" fill="url(#paint6_linear_76_3778)"/><rect x="202.929" y="1.5" width="57" height="57" rx="8.5" stroke="url(#paint7_linear_76_3778)" stroke-width="3"/><path d="M292.664 45.548a2 2 0 01-2.853 0l-10.862-11.054a2 2 0 010-2.803l3.271-3.33a2 2 0 012.855.002l4.736 4.833a2 2 0 002.855.002l18.401-18.745a2 2 0 012.854 0l3.273 3.33a2.001 2.001 0 010 2.803l-24.53 24.962z" fill="url(#paint8_linear_76_3778)"/><rect x="270.071" y="1.5" width="57" height="57" rx="8.5" stroke="url(#paint9_linear_76_3778)" stroke-width="3"/><path d="M359.807 45.548a2 2 0 01-2.853 0l-10.863-11.054a2.001 2.001 0 010-2.803l3.272-3.33a2 2 0 012.855.002l4.735 4.833a2 2 0 002.856.002l18.401-18.745a2 2 0 012.854 0l3.272 3.33a2 2 0 010 2.803l-24.529 24.962z" fill="url(#paint10_linear_76_3778)"/><rect x="337.214" y="1.5" width="57" height="57" rx="8.5" stroke="url(#paint11_linear_76_3778)" stroke-width="3"/><path d="M426.951 45.548a2 2 0 01-2.853 0l-10.863-11.054a2 2 0 010-2.803l3.271-3.33a2 2 0 012.855.002l4.736 4.833a2 2 0 002.856.002l18.401-18.745a2 2 0 012.853 0l3.273 3.33a2 2 0 010 2.803l-24.529 24.962z" fill="url(#paint12_linear_76_3778)"/><rect x="404.357" y="1.5" width="57" height="57" rx="8.5" stroke="url(#paint13_linear_76_3778)" stroke-width="3"/><path d="M494.093 45.548a2 2 0 01-2.853 0l-10.862-11.054a2 2 0 010-2.803l3.271-3.33a2 2 0 012.855.002l4.735 4.833a2 2 0 002.856.002l18.401-18.745a2 2 0 012.854 0l3.272 3.33a2 2 0 010 2.803l-24.529 24.962z" fill="url(#paint14_linear_76_3778)"/><rect x="471.5" y="1.5" width="57" height="57" rx="8.5" stroke="url(#paint15_linear_76_3778)" stroke-width="3"/><defs><linearGradient id="paint0_linear_76_3778" x1="29.5" y1="13" x2="29.5" y2="47" gradientUnits="userSpaceOnUse"><stop stop-color="#FFC28A"/><stop offset="1" stop-color="#FFC700"/></linearGradient><linearGradient id="paint1_linear_76_3778" x1="30" y1="0" x2="30" y2="60" gradientUnits="userSpaceOnUse"><stop stop-color="#FFC28A"/><stop offset="1" stop-color="#FFC700"/></linearGradient><linearGradient id="paint2_linear_76_3778" x1="96.643" y1="13" x2="96.643" y2="47" gradientUnits="userSpaceOnUse"><stop stop-color="#FFC28A"/><stop offset="1" stop-color="#FFC700"/></linearGradient><linearGradient id="paint3_linear_76_3778" x1="97.143" y1="0" x2="97.143" y2="60" gradientUnits="userSpaceOnUse"><stop stop-color="#FFC28A"/><stop offset="1" stop-color="#FFC700"/></linearGradient><linearGradient id="paint4_linear_76_3778" x1="163.786" y1="13" x2="163.786" y2="47" gradientUnits="userSpaceOnUse"><stop stop-color="#FFC28A"/><stop offset="1" stop-color="#FFC700"/></linearGradient><linearGradient id="paint5_linear_76_3778" x1="164.286" y1="0" x2="164.286" y2="60" gradientUnits="userSpaceOnUse"><stop stop-color="#FFC28A"/><stop offset="1" stop-color="#FFC700"/></linearGradient><linearGradient id="paint6_linear_76_3778" x1="230.929" y1="13" x2="230.929" y2="47" gradientUnits="userSpaceOnUse"><stop stop-color="#FFC28A"/><stop offset="1" stop-color="#FFC700"/></linearGradient><linearGradient id="paint7_linear_76_3778" x1="231.429" y1="0" x2="231.429" y2="60" gradientUnits="userSpaceOnUse"><stop stop-color="#FFC28A"/><stop offset="1" stop-color="#FFC700"/></linearGradient><linearGradient id="paint8_linear_76_3778" x1="298.071" y1="13" x2="298.071" y2="47" gradientUnits="userSpaceOnUse"><stop stop-color="#FFC28A"/><stop offset="1" stop-color="#FFC700"/></linearGradient><linearGradient id="paint9_linear_76_3778" x1="298.571" y1="0" x2="298.571" y2="60" gradientUnits="userSpaceOnUse"><stop stop-color="#FFC28A"/><stop offset="1" stop-color="#FFC700"/></linearGradient><linearGradient id="paint10_linear_76_3778" x1="365.214" y1="13" x2="365.214" y2="47" gradientUnits="userSpaceOnUse"><stop stop-color="#FFC28A"/><stop offset="1" stop-color="#FFC700"/></linearGradient><linearGradient id="paint11_linear_76_3778" x1="365.714" y1="0" x2="365.714" y2="60" gradientUnits="userSpaceOnUse"><stop stop-color="#FFC28A"/><stop offset="1" stop-color="#FFC700"/></linearGradient><linearGradient id="paint12_linear_76_3778" x1="432.357" y1="13" x2="432.357" y2="47" gradientUnits="userSpaceOnUse"><stop stop-color="#FFC28A"/><stop offset="1" stop-color="#FFC700"/></linearGradient><linearGradient id="paint13_linear_76_3778" x1="432.857" y1="0" x2="432.857" y2="60" gradientUnits="userSpaceOnUse"><stop stop-color="#FFC28A"/><stop offset="1" stop-color="#FFC700"/></linearGradient><linearGradient id="paint14_linear_76_3778" x1="499.5" y1="13" x2="499.5" y2="47" gradientUnits="userSpaceOnUse"><stop stop-color="#FFC28A"/><stop offset="1" stop-color="#FFC700"/></linearGradient><linearGradient id="paint15_linear_76_3778" x1="500" y1="0" x2="500" y2="60" gradientUnits="userSpaceOnUse"><stop stop-color="#FFC28A"/><stop offset="1" stop-color="#FFC700"/></linearGradient></defs></svg>