<svg width="1600" height="325" fill="none" xmlns="http://www.w3.org/2000/svg"><path d="M419.283 181.79a6.76 6.76 0 00-1.163-.095 29.95 29.95 0 00-3.281.123 51.913 51.913 0 00-11.348 2.345 55.044 55.044 0 00-14.393 7.159 58.79 58.79 0 00-6.931 5.674 57.106 57.106 0 00-6.147 6.837 70.707 70.707 0 00-5.173 7.565c-1.532 2.6-2.978 5.201-4.217 7.792a79.878 79.878 0 00-3.187 7.565 45.158 45.158 0 00-1.891 7.064 22.59 22.59 0 00-.237 6.1c.17 1.574.639 3.102 1.381 4.501.17.283.312.567.492.813.179.246.34.473.491.681.341.407.653.728.946.993l.851.747-.945-.643a10.27 10.27 0 01-2.251-2.336 12.564 12.564 0 01-1.891-4.605 21.814 21.814 0 01-.265-6.421 39.31 39.31 0 011.494-7.442 62.717 62.717 0 012.941-7.934 80.681 80.681 0 014.123-8.095 72.152 72.152 0 015.277-7.858 59.443 59.443 0 016.468-7.055 54.23 54.23 0 017.385-5.759 50.3 50.3 0 017.783-4.17 48.834 48.834 0 017.518-2.563 45.024 45.024 0 0111.764-1.475c1.107.004 2.212.08 3.309.227a6.77 6.77 0 011.154.236l-.057.029zm12.71 5.474s-.151-.141-.444-.387a8.503 8.503 0 00-1.381-.946 4.897 4.897 0 00-.501-.227l-.558-.217a3.752 3.752 0 00-1.211-.142 5.793 5.793 0 00-2.836 1.059 19.172 19.172 0 00-2.837 2.43c-.946.946-1.892 2.062-2.837 3.206-1.892 2.307-3.877 4.879-5.854 7.452-1.976 2.572-3.991 5.144-5.976 7.489-.946 1.182-1.986 2.289-2.951 3.329-.964 1.04-1.891 1.995-2.837 2.837a37.045 37.045 0 01-4.681 3.83c-.605.406-1.115.699-1.456.898l-.529.284.434-.407c.284-.265.672-.671 1.183-1.173a88.006 88.006 0 003.839-4.435c.756-.945 1.541-1.995 2.392-3.092s1.693-2.288 2.601-3.508c1.797-2.44 3.697-5.059 5.674-7.641 1.976-2.582 4.057-5.144 6.194-7.423a38.982 38.982 0 013.309-3.13c.568-.464 1.145-.946 1.722-1.305.573-.39 1.173-.737 1.796-1.041a8.75 8.75 0 011.892-.671 5.421 5.421 0 011.891-.123c.55.061 1.085.221 1.579.473.195.106.385.223.567.35l.464.378a6.13 6.13 0 011.135 1.296c.113.16.179.283.236.368l.066.133-.085.056z" fill="#fff"/><path d="M409.722 210.433l-.945.208-.946.256-.946.293c-.293.104-.586.236-.879.35-.577.246-1.135.529-1.683.822l-.795.473-.766.52c-.501.36-.945.738-1.456 1.126-.511.387-.945.813-1.352 1.239-.87.86-1.683 1.768-2.478 2.704a54.397 54.397 0 00-2.298 2.903l-2.212 2.96a43.605 43.605 0 01-5.126 5.769l-.104.075a13.807 13.807 0 00-1.976 1.891 36.391 36.391 0 00-1.892 2.289c-.595.785-1.248 1.589-1.844 2.392l-1.796 2.431c-.287.383-.549.784-.785 1.201a9.268 9.268 0 00-.577 1.191 9.613 9.613 0 00-.652 2.601 7.567 7.567 0 00.16 2.657c.107.438.253.865.435 1.277.079.213.177.419.293.614l.076.161.057.085.047.066.066.066c.32.245.682.428 1.069.539.462.134.933.235 1.409.303 1.006.13 2.021.184 3.035.161a36.197 36.197 0 006.194-.681 36.835 36.835 0 006.015-1.693 21.004 21.004 0 005.456-2.95 19.637 19.637 0 01-5.22 3.451 34.899 34.899 0 01-6.005 2.157 36.784 36.784 0 01-6.364 1.087 21.514 21.514 0 01-3.31 0 11.013 11.013 0 01-1.702-.284 4.86 4.86 0 01-1.749-.813c-.076-.066-.133-.104-.218-.189l-.198-.227-.057-.076-.057-.075v-.048l-.123-.17a8.154 8.154 0 01-.444-.718 8.52 8.52 0 01-.672-1.532 9.804 9.804 0 01-.482-3.291c.03-1.116.234-2.22.605-3.272a13.037 13.037 0 011.494-2.951 68.412 68.412 0 011.75-2.562c.605-.842 1.21-1.674 1.891-2.497s1.305-1.636 2.005-2.43a15.243 15.243 0 012.487-2.336l-.142.104c.445-.406.879-.813 1.314-1.239.435-.425.852-.87 1.268-1.324a88.937 88.937 0 002.449-2.77l2.449-2.837a117.53 117.53 0 012.601-2.837c.454-.463.945-.946 1.39-1.352.444-.407.945-.851 1.494-1.258.548-.407 1.04-.794 1.589-1.173l.832-.529.86-.483.946-.444.946-.397.945-.331.946-.274a14.97 14.97 0 011.948-.36l.945-.085h.946l-.161.066z" fill="#fff"/><path d="M433.628 190.801c8.747 10.771-6.619 22.28-12.113 30.601-3.556 5.4-6.289 10.941-11.594 15.074-4.416 3.433-10.761 5.4-16.407 5.768-.359 0-.492.558-.095.625a25.537 25.537 0 0016.89-2.951c6.969-3.782 10.231-10.582 14.09-16.908 3.858-6.326 9.778-11.348 12.066-18.478 1.504-4.728.946-10.175-2.78-13.787 0 0-.085 0-.057.056z" fill="#fff"/><path d="M436.854 193.648c8.511 19.017-2.903 38.261-14.979 53.193-.114.142.132.321.265.198 13.73-14.014 25.296-34.629 14.78-53.429h-.066v.038z" fill="#fff"/><path d="M366.279 250.604c8.965 9.646 23.358 9.778 35.632 6.837 12.653-3.035 24.218-10.969 29.589-22.383a.123.123 0 00-.047-.17.123.123 0 00-.17.047c-12.019 19.234-44.975 30.081-64.9 15.546-.075-.056-.161.057-.104.123zm46.28-65.439a67.685 67.685 0 01-10.695 17.391 61.25 61.25 0 01-7.073 6.922c-.445.378-2.695 2.695-3.386 2.071a2.604 2.604 0 00-2.345-.539c-.331 0-.567.501-.198.662a8.768 8.768 0 012.402 1.333.657.657 0 00.86 0c9.542-7.243 16.833-16.776 20.521-27.84 0-.047-.067-.066-.086 0zm-22.07 28.474c.199 1.759.549 2.998-1.305 4.019a23.332 23.332 0 00-2.685 1.806 40.889 40.889 0 00-6.724 6.364c-3.489 4.038-6.686 9.23-7.565 14.431 0 .246.34.444.463.179 1.958-4.359 3.707-8.51 6.62-12.454 3.234-4.331 7.565-7.745 12.104-10.771a.306.306 0 00.135-.149.308.308 0 00.016-.201l-.766-3.253c0-.132-.264-.104-.245 0l-.048.029zm43.726-1.372c2.78 2.554 3.347 6.714 2.837 10.185a.251.251 0 00.179.303.25.25 0 00.303-.18c1.607-3.924-.284-7.641-3.3-10.402 0 0-.067 0 0 .047l-.019.047zm-3.885 5.202c2.714 4.132 3.205 8.776 3.3 13.523a.293.293 0 00.577.066c1.891-4.832-.17-10.033-3.613-13.769-.122-.142-.368 0-.264.18z" fill="#fff"/><path d="M425.874 222.387c2.506 5.617 2.279 11.347 1.466 17.22-.047.34.464.331.577.066 2.515-5.674 1.352-12.208-1.749-17.447a.17.17 0 00-.294.161zm-6.43 7.64c2.837 6.43 1.371 13.324-2.09 19.244a.25.25 0 00-.008.164.248.248 0 00.094.135.256.256 0 00.311-.006c5.239-5.371 5.542-13.39 1.891-19.651a.126.126 0 00-.17-.056.128.128 0 00-.064.073.13.13 0 00.007.097h.029zm-6.261 7.556c-1.418 6.676-5.021 12.473-9.182 17.967-.208.275.217.53.454.341 5.768-4.539 8.511-11.272 8.974-18.242 0-.132-.217-.161-.246 0v-.066zm-8.765 5.201a36.607 36.607 0 01-11.139 14.185c-.256.208.066.595.349.444a22.808 22.808 0 0011.027-14.61c0-.151-.18-.199-.237-.057v.038zm-9.05 7.858a32.986 32.986 0 01-7.508 6.941c-.237.17.056.482.302.378a15.415 15.415 0 007.424-7.234c.075-.142-.123-.246-.218-.123v.038z" fill="#fff"/><path d="M438.263 202.821c-6.525 19.073-17.589 38.686-39.036 45.249a.156.156 0 00-.098.076.16.16 0 00.06.22.16.16 0 00.123.016c22.118-4.265 34.128-26.648 39.017-45.542 0 0-.047-.057-.066 0v-.019z" fill="#fff"/><path d="M439.653 208.41c-6.118 17.258-15.329 33.608-33.098 42.119a.188.188 0 00-.106.111.2.2 0 00.267.257c18.242-5.768 28.956-25.948 33.031-42.468 0-.048-.056-.067-.075 0l-.019-.019zm-47.916 8.378c-2.156 2.316-5.277 6.997-3.244 10.099a.347.347 0 00.289.16.344.344 0 00.288-.16c.795-1.399.605-2.969.946-4.511.363-1.912 1-3.763 1.891-5.494 0-.076-.057-.17-.123-.094h-.047zm-3.887 2.431c-2.184 2.373-4.265 6.553-2.184 9.522.142.208.567.227.614-.075.275-1.495 0-2.951.237-4.464a12.882 12.882 0 011.532-4.842.12.12 0 00-.037-.158.12.12 0 00-.162.017z" fill="#fff"/><path d="M384.531 221.8c-1.892 2.477-3.622 6.837-1.494 9.617a.34.34 0 00.624-.161c.031-1.43-.023-2.86-.161-4.284a10.793 10.793 0 011.314-5.012c.095-.179-.16-.321-.283-.16zm-3.252 3.981c-1.995 3.026-3.906 8.133-1.192 11.254a.394.394 0 00.361.093.394.394 0 00.273-.254c.303-1.702-.132-3.301-.104-5.022-.026-2.025.294-4.04.946-5.957.056-.17-.208-.265-.313-.114h.029zm-4.2 3.915a25.055 25.055 0 00-1.551 6.828c-.132 1.683-.132 4.368 1.022 5.73a.39.39 0 00.362.096.4.4 0 00.281-.247c.501-1.721-.284-3.783-.322-5.57-.114-2.273.01-4.552.369-6.799a.093.093 0 00-.031-.042.089.089 0 00-.099 0 .093.093 0 00-.031.042v-.038zm-2.941 6.421a7.404 7.404 0 00-1.353 5.457c.284 1.739 1.239 3.962 3.14 4.463.284.066.624-.199.511-.482-.521-1.419-1.636-2.45-2.128-3.925a8.159 8.159 0 010-5.447c0-.085-.104-.132-.151-.066h-.019zm20.511-25.088a5.668 5.668 0 00-.88 3.168c0 .86.359 2.534 1.4 2.752a.347.347 0 00.283-.052.347.347 0 00.142-.251 1.306 1.306 0 00-.302-.946 7.036 7.036 0 01-.549-1.361 4.84 4.84 0 01.133-3.225c.047-.132-.161-.199-.227-.095v.01zm1.825-1.977a4.393 4.393 0 00-.634 2.79c.076.738.407 2.185 1.343 2.326a.255.255 0 00.214-.045.263.263 0 00.107-.191.946.946 0 00-.217-.624 4.136 4.136 0 01-.728-1.343 3.779 3.779 0 01.208-2.752.169.169 0 00-.08-.201.168.168 0 00-.114-.018.168.168 0 00-.099.058zm1.655-.85a5.692 5.692 0 000 2.033c.038.363.144.716.312 1.04.208.282.476.514.785.681a.378.378 0 00.558-.397c-.076-.237-.114-.483-.199-.719-.085-.237-.331-.539-.473-.813a4.51 4.51 0 01-.482-1.769c0-.246-.444-.34-.501-.056zm2.402-2.629a4.672 4.672 0 00-.067 3.168c.265.898.757 2.203 1.835 2.373.217 0 .492-.094.473-.34-.057-.861-.776-1.447-1.144-2.222a7.754 7.754 0 01-.596-2.913.268.268 0 00-.226-.217.265.265 0 00-.275.151zm2.442-2.922c-.832.274-.691 1.778-.615 2.421a2.89 2.89 0 001.664 2.525.338.338 0 00.319-.076.326.326 0 00.097-.312c-.189-.785-.775-1.485-1.03-2.26a4.036 4.036 0 01-.17-1.428c0-.331.075-.568-.142-.842a.122.122 0 00-.062-.016.118.118 0 00-.061.016v-.028zm2.285-3.878a8.42 8.42 0 00-.359 2.988 4.596 4.596 0 00.851 2.762c.036.042.085.07.139.081a.25.25 0 00.271-.139.244.244 0 00.015-.16c-.141-.794-.605-1.532-.784-2.326a7.412 7.412 0 010-3.159.087.087 0 00-.014-.056.08.08 0 00-.047-.034.083.083 0 00-.1.043h.028zm1.439-2.023a11.114 11.114 0 00-.473 3.565 4.73 4.73 0 001.04 2.988.255.255 0 00.435-.17 17.062 17.062 0 00-.643-2.913c-.228-1.139-.32-2.3-.274-3.461 0-.047-.076-.047-.085 0v-.009zm1.22-2.071c-.445 2.374-.672 5.542.945 7.565.133.171.511.152.473-.113a29.973 29.973 0 00-.86-3.376 13.444 13.444 0 01-.369-4.076.09.09 0 00-.031-.041.09.09 0 00-.05-.016.09.09 0 00-.049.016.09.09 0 00-.031.041h-.028zm1.39-2.676c-.397 2.184-.539 4.955 1.031 6.771.142.151.454 0 .435-.17-.218-2.223-1.182-4.284-1.22-6.573 0-.132-.227-.17-.246 0v-.028z" fill="#fff"/><path d="M410.081 190.093a10.506 10.506 0 00-.274 3.99c.189 1.296.453 2.904 1.664 3.726a.207.207 0 00.312-.17c-.132-1.173-.88-2.251-1.229-3.376a9.895 9.895 0 01-.303-4.142c0-.094-.142-.113-.17 0v-.028zm.512-2.166c0 2.27 0 5.22 1.172 7.244.114.198.483.132.473-.114a21.025 21.025 0 00-.681-3.045 23.906 23.906 0 01-.539-4.085c0-.246-.416-.255-.425 0zm1.777-1.418c-.577 2.515-.946 6.203.879 8.359a.249.249 0 00.267.063.246.246 0 00.113-.088.236.236 0 00.046-.135 21.466 21.466 0 00-.889-3.717 14.257 14.257 0 01-.331-4.473h-.085v-.009zm.786-.936a7.353 7.353 0 000 3.867c.274 1.041.946 2.45 2.071 2.837a.208.208 0 00.255-.246 18.597 18.597 0 00-1.55-2.572 6.757 6.757 0 01-.634-3.867c0-.095-.142-.104-.161 0l.019-.019z" fill="#fff"/><path d="M412.152 185.969c.293 2.412 2.185 5.041 4.937 5.145a.283.283 0 00.267-.205.297.297 0 00-.006-.177.287.287 0 00-.11-.138c-2.27-1.022-4.17-2.185-4.728-4.662 0-.18-.35-.142-.331 0l-.029.037zm-.926 8.199c-4.303 7.149-9.986 12.965-16.152 18.677-.095.094 0 .274.151.189 7.074-4.728 12.294-11.546 16.142-18.781 0-.094-.094-.17-.141-.085zm1.371-5.002a87.8 87.8 0 01-5.797 9.012c-.161.218.199.482.397.284a23.277 23.277 0 005.551-9.239c0-.085-.113-.142-.151-.057zm-.331-5.731a5.198 5.198 0 002.686 4.255c1.305.823 3.782 1.57 4.813 0a.511.511 0 00-.085-.662c-.861-.737-2.024-.662-3.093-.945a6.83 6.83 0 01-3.782-2.79c-.142-.217-.567-.151-.549.142h.01zm-34.43 22.138a55.18 55.18 0 00-11.953 23.641c-1.607 6.468-3.149 16.927 3.944 21.088.236.142.577-.142.406-.369-2.307-3.177-3.886-6.185-4.227-10.09-.349-4.133.7-8.426 1.759-12.416 2.033-7.66 5.901-14.97 10.27-21.675.076-.104-.104-.245-.199-.141v-.038z" fill="#fff"/><path d="M361.816 241.289c1.731-4.945 5.428-7.565 10.468-9.125a.322.322 0 00.21-.118.308.308 0 00.055-.11.295.295 0 00-.029-.238.308.308 0 00-.189-.149.314.314 0 00-.122-.009c-5.475 0-10.062 4.823-10.639 9.721 0 .142.199.151.246 0v.028zm-1.512-4.368c1.353-4.341 4.294-7.66 8.095-10.308.208-.142.104-.539-.189-.435a12.16 12.16 0 00-8.066 10.724c0 .094.132.104.16 0v.019zm1.721-8.946a27.575 27.575 0 0111.868-9.362c.274-.113.085-.492-.18-.435a16.54 16.54 0 00-11.953 9.636.168.168 0 00.004.115.175.175 0 00.076.087.17.17 0 00.213-.041h-.028zm3.111-9.097a24.059 24.059 0 0110.733-6.251c.217-.066.198-.416 0-.397a14.493 14.493 0 00-10.951 6.458c-.104.142.133.322.265.19h-.047zm4.453-9.391a57.416 57.416 0 019.456-3.952.211.211 0 00.081-.028.228.228 0 00.062-.058.207.207 0 00.027-.164.213.213 0 00-.04-.076.197.197 0 00-.151-.07.2.2 0 00-.083.017 21.19 21.19 0 00-9.456 4.208c-.076.057 0 .171.104.123zm50.602-27.216c5.164 3.074 11.027 4.152 14.535 9.353a.258.258 0 00.303.093.26.26 0 00.128-.108.257.257 0 00.032-.165 10.247 10.247 0 00-4.652-6.865c-2.884-2.005-6.941-1.825-10.251-2.525a.12.12 0 00-.077.014.117.117 0 00-.053.059.123.123 0 00.035.144zM713.217 36.116a4.763 4.763 0 00-.7-.622 23.224 23.224 0 00-2.193-1.486 40.932 40.932 0 00-8.611-3.889 46.479 46.479 0 00-6.137-1.556 48.89 48.89 0 00-7-.715 51.64 51.64 0 00-7.537.365c-2.58.297-5.133.791-7.638 1.478a65.806 65.806 0 00-7.397 2.42c-2.388.956-4.729 1.944-6.915 3.033-2.185 1.089-4.254 2.216-6.137 3.399a41.68 41.68 0 00-5.001 3.679 20.327 20.327 0 00-3.43 3.842 10.453 10.453 0 00-1.509 3.578c0 .272-.101.521-.117.778-.015.257 0 .467-.046.677 0 .42 0 .777.054 1.08l.156.895-.273-.879a7.79 7.79 0 01-.202-2.59 10.279 10.279 0 011.214-3.889 18.759 18.759 0 013.274-4.286 34.635 34.635 0 014.947-4.106 57.748 57.748 0 016.16-3.734 75.621 75.621 0 017-3.274 67.65 67.65 0 017.631-2.567 54 54 0 017.972-1.47 47.01 47.01 0 017.872-.195 43.3 43.3 0 017.257.988c2.123.48 4.204 1.13 6.222 1.945a35.999 35.999 0 018.424 4.666 21.33 21.33 0 012.022 1.743c.227.213.433.447.615.7l.023-.008zm5.304 9.622s0-.171-.086-.467a6.049 6.049 0 00-.404-1.245 3.78 3.78 0 00-.202-.388 4.65 4.65 0 00-.249-.413 2.671 2.671 0 00-.708-.669 4.806 4.806 0 00-2.38-.653 16.843 16.843 0 00-3.166.195c-1.135.17-2.333.427-3.578.707-2.481.576-5.118 1.307-7.778 2.023-2.66.715-5.335 1.423-7.887 1.99-1.268.296-2.512.53-3.694.779-1.183.249-2.334.38-3.36.497a32.481 32.481 0 01-5.087.242c-.615 0-1.097-.078-1.424-.11l-.497-.07.497-.062c.327 0 .778-.108 1.393-.194 1.197-.194 2.877-.537 4.869-1.035.995-.248 2.069-.544 3.204-.855 1.136-.311 2.334-.669 3.563-1.027 2.473-.715 5.11-1.501 7.778-2.232 2.668-.731 5.374-1.392 7.988-1.836a31.97 31.97 0 013.819-.443c.614 0 1.221-.047 1.812 0 .577.028 1.151.093 1.719.194a7.347 7.347 0 011.556.452 4.36 4.36 0 011.26.777c.326.299.59.658.778 1.058.073.163.133.332.178.506.047.163.07.319.102.466.078.455.093.918.046 1.377-.012.118-.03.234-.054.35v.125l-.008-.04z" fill="#fff"/><path d="M691.672 50.101l-.723-.327-.778-.28-.778-.24c-.249-.078-.505-.133-.778-.195a16.634 16.634 0 00-1.555-.273l-.778-.077h-.778c-.513 0-1.027 0-1.556.039-.528.038-1.034.085-1.555.147a40.644 40.644 0 00-3.057.568c-1.011.226-2.03.498-3.049.778l-3.072.825a40.451 40.451 0 01-6.409 1.283h-.156c-.785.025-1.567.124-2.333.296a42.38 42.38 0 00-2.474.56c-.824.217-1.649.427-2.473.668l-2.466.716c-.428.125-.731.233-1.151.397-.349.147-.689.313-1.019.498-.66.38-1.269.842-1.812 1.376a6.737 6.737 0 00-1.323 1.797 6.28 6.28 0 00-.404 1.034 6.045 6.045 0 00-.14.545v.171s0-.047 0 0v.241c.073.31.211.602.404.856.233.313.493.605.778.87.586.57 1.218 1.091 1.89 1.556a28.24 28.24 0 004.371 2.528 30.18 30.18 0 004.807 1.79c1.663.479 3.388.712 5.118.692a16.94 16.94 0 01-5.234-.257 30.014 30.014 0 01-9.754-3.827c-.755-.459-1.47-.98-2.139-1.555a8.4 8.4 0 01-.949-1.004 3.457 3.457 0 01-.692-1.361 1.415 1.415 0 010-.226 1.388 1.388 0 010-.24v-.366c.017-.228.051-.454.101-.677a6.7 6.7 0 01.389-1.322 8.153 8.153 0 011.447-2.334 9.432 9.432 0 012.139-1.82 9.924 9.924 0 011.275-.692c.417-.197.846-.368 1.284-.513a46.585 46.585 0 012.496-.817c.84-.265 1.68-.513 2.536-.731a55.399 55.399 0 012.606-.615 13.99 13.99 0 012.862-.326h-.148a43.21 43.21 0 001.556-.171c.544-.07 1.019-.156 1.555-.25a79.527 79.527 0 003.073-.622l3.111-.684c1.05-.21 2.116-.412 3.189-.568a36.98 36.98 0 011.626-.21 22.866 22.866 0 011.641-.101c.552-.016 1.097 0 1.649 0l.832.054.817.102.778.14.777.186.778.226.778.288c.498.202.983.433 1.454.692l.685.42.638.459.093-.117z" fill="#fff"/><path d="M717.673 48.849c-.101 11.17-16.241 11.255-24.244 14-5.204 1.805-9.941 4.084-15.556 4.216-4.667.117-9.863-1.657-13.721-4.122-.241-.148-.614.132-.389.365a20.37 20.37 0 0012.515 6.176c6.549.88 12.313-1.96 18.193-4.208 5.88-2.248 12.445-2.675 17.718-6.222 3.501-2.334 6.075-6.137 5.593-10.267h-.07l-.039.062z" fill="#fff"/><path d="M718.249 52.217c-4.667 16.389-22.378 23.397-38.206 27.293-.156.04-.086.28.062.25 16.412-2.497 34.947-10.322 38.206-27.535 0-.047-.054-.047-.062 0v-.008z" fill="#fff"/><path d="M642 55.32c.638 10.547 9.902 17.524 19.445 21.499 9.832 4.099 21.577 4.496 31.175-.335a.108.108 0 00.035-.054.102.102 0 00-.113-.125c-18.092 6.705-45.261-2.053-50.386-21 0-.078-.133 0-.133 0l-.023.015zm65.056-20.239a61.838 61.838 0 01-16.256 6.153 55.06 55.06 0 01-8.268 1.096c-.49 0-3.189.452-3.306-.28-.117-.73-.576-1.065-1.221-1.477-.233-.14-.646.054-.482.342.389.62.671 1.3.832 2.014a.515.515 0 00.552.42 52.89 52.89 0 0028.211-8.213s0-.07-.039-.055h-.023zm-29.565 7.879c-.778 1.237-1.253 2.21-2.995 1.984-.901-.1-1.808-.141-2.714-.124-2.618.03-5.225.335-7.779.91-4.425.949-9.271 2.777-12.655 5.709-.155.132 0 .451.203.334 3.609-1.882 7-3.764 10.959-4.9a42.006 42.006 0 0113.62-1.182.279.279 0 00.28-.156c.42-.824.832-1.649 1.244-2.473.054-.101-.109-.194-.171-.101h.008zm29.074 20.053c.428 2.994-1.424 5.958-3.609 7.964a.202.202 0 10.249.32c3.111-1.774 3.889-5.087 3.406-8.292h-.046v.008zm-5.312 1.517c-.451 3.974-2.621 7.217-5.103 10.336-.171.218.109.46.335.327 3.803-2.248 5.273-6.588 5.04-10.656a.141.141 0 00-.049-.077.143.143 0 00-.087-.03.143.143 0 00-.087.03.141.141 0 00-.049.077v-.008z" fill="#fff"/><path d="M695.755 65.572c-1.385 4.845-4.582 8.431-8.276 11.869-.21.194.124.435.334.327 4.667-2.482 7.421-7.265 8.214-12.15 0-.17-.233-.202-.272-.046zm-8.268 1.882c-1.634 5.507-6.223 9.287-11.667 11.472a.196.196 0 00-.104.094.201.201 0 00-.014.139.196.196 0 00.219.141 14.32 14.32 0 0011.768-11.784c0-.125-.171-.148-.202 0v-.062zm-8.113 1.898c-4.504 3.64-9.941 5.67-15.556 7.218-.273.078-.14.443.116.435 6.168-.178 11.574-3.212 15.556-7.513.078-.086-.054-.218-.14-.14h.024zm-8.47-.832a32.925 32.925 0 01-14.841 3.889.225.225 0 000 .45 20.558 20.558 0 0014.981-4.176c.109-.078 0-.218-.124-.156l-.016-.008zm-10.073.754a29.104 29.104 0 01-8.602.933c-.249 0-.226.343 0 .39a13.76 13.76 0 008.696-1.136.102.102 0 00.054-.133.1.1 0 00-.132-.055h-.016z" fill="#fff"/><path d="M714.251 58.836c-14.467 9.225-32.116 16.63-49.539 10.625a.131.131 0 00-.175.066.136.136 0 00-.003.101.13.13 0 00.069.074c16.614 7.832 36.386-.918 49.679-10.827 0 0 0-.055 0 0l-.031-.04z" fill="#fff"/><path d="M712.159 63.106c-13.223 8.253-27.939 14.444-44.024 11.441-.187 0-.28.25-.094.312 14.919 5.001 32.668-2.948 44.164-11.667 0 0 0-.078-.046-.055v-.031zm-35.546-17.508c-2.637.474-7.164 2.014-7.514 4.993a.273.273 0 00.373.28c1.268-.529 1.992-1.633 3.018-2.48a18.457 18.457 0 014.154-2.669c.07 0 .047-.14 0-.124h-.031zm-3.82-.28c-2.683.49-6.277 2.209-6.518 5.125a.284.284 0 00.142.267.282.282 0 00.302-.018c.972-.84 1.555-1.913 2.543-2.784a11.662 11.662 0 013.578-2.404c.101-.039.07-.21-.047-.186z" fill="#fff"/><path d="M669.254 45.403c-2.52.715-6.004 2.69-6.113 5.514a.284.284 0 00.045.163.282.282 0 00.445.032 32.47 32.47 0 002.185-2.847 9.563 9.563 0 013.539-2.621.131.131 0 00.1-.124.118.118 0 00-.01-.056.126.126 0 00-.032-.046.134.134 0 00-.159-.015zm-4.231 1.019c-2.917 1.003-6.891 3.4-6.806 6.72a.32.32 0 00.498.203c1.104-.957 1.688-2.202 2.621-3.306a15.754 15.754 0 013.819-3.391c.132-.086 0-.28-.132-.226zm-4.824.521a22.91 22.91 0 00-4.667 3.687c-.987 1.026-2.419 2.769-2.403 4.2 0 .233.319.327.498.202 1.244-.863 1.843-2.574 2.777-3.757a28.85 28.85 0 013.889-4.231.067.067 0 00.009-.042.071.071 0 00-.016-.04.068.068 0 00-.036-.022.071.071 0 00-.043.003h-.008zm-5.35 2.761a6.699 6.699 0 00-3.796 2.878c-.777 1.268-1.322 3.166-.357 4.395a.356.356 0 00.598-.062c.42-1.167.242-2.334.716-3.563a7.16 7.16 0 012.909-3.539c.07 0 0-.132-.07-.109zm26.734-6.432a5.13 5.13 0 00-2.264 1.626c-.451.56-1.12 1.812-.567 2.45a.293.293 0 00.443 0 1.046 1.046 0 00.295-.778c.09-.395.217-.78.382-1.151a4.308 4.308 0 011.812-2.022c.101-.055 0-.21-.101-.164v.04zm2.248-.405a3.889 3.889 0 00-1.906 1.494c-.35.521-.902 1.61-.373 2.154a.214.214 0 00.253.054.213.213 0 00.073-.054.778.778 0 00.203-.505 3.182 3.182 0 011.851-2.901.138.138 0 00.086-.07.148.148 0 00.014-.054.15.15 0 00-.01-.056.134.134 0 00-.138-.08.129.129 0 00-.053.018zm1.532.234a5.069 5.069 0 00-1.097 1.315 2.665 2.665 0 00-.35.824c-.013.267.035.533.14.778a.332.332 0 00.288.172.329.329 0 00.288-.172c.078-.195.186-.374.256-.568.058-.257.102-.516.133-.778.123-.459.334-.89.622-1.268.124-.17-.101-.435-.288-.28l.008-.023zm2.948-.537a4.093 4.093 0 00-1.734 2.014c-.319.708-.7 1.797-.093 2.42a.317.317 0 00.248.114.328.328 0 00.249-.115c.42-.575.273-1.306.451-1.983a6.537 6.537 0 011.167-2.17c.14-.187-.085-.397-.288-.28zm3.158-.716c-.685-.217-1.4.825-1.688 1.276-.444.684-.778 1.696-.28 2.435a.281.281 0 00.252.099.289.289 0 00.222-.154c.296-.599.296-1.33.553-1.952.154-.37.373-.71.645-1.004.187-.21.358-.334.358-.622a.094.094 0 00-.062-.078zm3.585-1.423a7.473 7.473 0 00-1.835 1.766 3.755 3.755 0 00-.926 2.193c0 .218.303.218.389.063.342-.576.428-1.284.778-1.883a6.416 6.416 0 011.719-2.03.074.074 0 00.019-.045.077.077 0 00-.015-.046.07.07 0 00-.09-.018h-.039zm1.991-.645a9.952 9.952 0 00-2.217 2.092 3.89 3.89 0 00-.926 2.427.21.21 0 00.151.166.21.21 0 00.215-.065 14.05 14.05 0 001.151-2.201 12.786 12.786 0 011.672-2.334s0-.07-.046-.054v-.031zm1.898-.755c-1.556 1.322-3.407 3.274-3.469 5.359 0 .17.241.342.365.155.468-.842.884-1.712 1.245-2.605a12.208 12.208 0 011.952-2.816c.054-.054 0-.14-.093-.093zm2.333-1.066c-1.423 1.229-3.002 2.956-2.956 4.885a.228.228 0 00.055.104.22.22 0 00.319-.003c1.05-1.556 1.555-3.345 2.73-4.846a.108.108 0 00.028-.073.103.103 0 00-.105-.099.102.102 0 00-.071.032z" fill="#fff"/><path d="M702.809 37.096a9.137 9.137 0 00-2.334 2.45c-.575.926-1.26 2.1-.917 3.205a.179.179 0 00.295.047c.545-.825.638-1.883 1.011-2.778a8.449 8.449 0 012.023-2.83c.054-.055 0-.14-.094-.094h.016z" fill="#fff"/><path d="M704.309 35.937c-1.237 1.454-2.823 3.368-3.111 5.25a.207.207 0 00.023.132.204.204 0 00.234.094.2.2 0 00.108-.078c.46-.744.858-1.525 1.191-2.334a21.006 21.006 0 011.835-2.909c.132-.17-.132-.365-.264-.194l-.016.039zm1.899-.077c-1.719 1.36-3.952 3.554-3.889 5.84a.21.21 0 00.055.104c.027.03.062.05.101.06a.215.215 0 00.217-.062 18.81 18.81 0 001.408-2.831 12.392 12.392 0 012.185-3.065s0-.07-.054-.047h-.023zm1.01-.234a6.45 6.45 0 00-2.061 2.52c-.381.778-.716 2.022-.179 2.823a.182.182 0 00.231.057.184.184 0 00.065-.057c.194-.788.322-1.592.381-2.403a5.634 5.634 0 011.664-2.816c.055-.054 0-.132-.101-.093v-.031z" fill="#fff"/><path d="M706.363 35.408c-1.105 1.704-1.292 4.31.435 5.702.179.14.49-.063.381-.265-.925-1.75-1.555-3.422-.583-5.304.07-.133-.156-.257-.233-.133zm-5 4.885c-6.619 2.574-13.417 3.617-20.472 4.371-.109 0-.124.195 0 .195 7.102.342 14.164-1.556 20.519-4.442a.067.067 0 00.031-.009.066.066 0 00.024-.022.07.07 0 00.012-.03.072.072 0 00-.004-.033.064.064 0 00-.019-.027.07.07 0 00-.028-.016.072.072 0 00-.063.013zm3.569-2.598a80.298 80.298 0 01-8.556 3.057.197.197 0 00-.144.237.196.196 0 00.237.144 21.332 21.332 0 008.556-3.33.056.056 0 00.018-.017.068.068 0 00.011-.023.071.071 0 00-.009-.049.067.067 0 00-.041-.028.064.064 0 00-.025 0 .062.062 0 00-.024.009h-.023zm2.862-3.874a4.094 4.094 0 00-.544 4.045c.404 1.159 1.625 2.847 3.111 2.287a.45.45 0 00.303-.475c-.163-.886-.964-1.392-1.555-2.069a5.202 5.202 0 01-.91-3.617.242.242 0 00-.42-.171h.015zm-34.176-2.193a50.284 50.284 0 00-20.394 9.567c-4.503 3.423-11.115 9.459-8.742 15.556.077.203.443.18.458-.054.21-3.158.778-5.864 2.668-8.556 1.992-2.854 4.971-5.125 7.778-7.202 5.445-3.99 11.846-6.876 18.263-9.132a.089.089 0 00.034-.016.11.11 0 00.026-.028.109.109 0 00.012-.035.095.095 0 00-.002-.037.098.098 0 00-.043-.06.098.098 0 00-.073-.01l.015.007z" fill="#fff"/><path d="M644.093 47.153c3.781-2.38 7.561-2.279 11.668-.902.287.093.536-.257.28-.444-3.532-2.629-9.101-1.695-12.103 1.206-.086.086.054.195.14.14h.015zm1.361-3.554a17.889 17.889 0 0110.773-2.808c.21 0 .357-.296.116-.374a10.934 10.934 0 00-10.982 3.111c-.055.055 0 .133.093.094v-.023zm5.91-4.979a24.22 24.22 0 0112.709-.38.195.195 0 00.117-.374 14.468 14.468 0 00-12.927.514.13.13 0 00-.057.072.127.127 0 00.004.092.131.131 0 00.154.077zm6.891-4.402a20.564 20.564 0 0110.306 1.09c.179.062.35-.172.179-.28a12.447 12.447 0 00-10.555-1.066.132.132 0 00-.093.163.133.133 0 00.163.093zm7.943-3.951a47.885 47.885 0 018.237 1.952.16.16 0 00.125.006.168.168 0 00.093-.084.165.165 0 00-.078-.217 17.89 17.89 0 00-8.369-1.79c-.078 0-.078.125 0 .133h-.008zm47.353 6.588c1.695 4.473 4.915 7.98 4.41 13.029a.201.201 0 00.143.238.203.203 0 00.246-.13c.585-1 .947-2.114 1.062-3.267a8.055 8.055 0 00-.393-3.414c-.778-2.676-3.524-4.504-5.289-6.55-.078-.077-.218 0-.179.094zm313.809 180.604c-5.36 8.322-16.84 8.203-25.3 4.859a88.909 88.909 0 01-11.223-5.434c-11.333-6.454-22.947-16.561-20.814-30.272.045-.303-.421-.34-.487-.06-3.337 13.963 9.547 24.942 20.962 31.41 10.502 5.958 28.712 13.489 36.662.11.1-.174.19-.354.28-.539 0-.044-.05-.088-.08-.044v-.03zm-53.483-41.406c2.813 1.138 3.588 4.497 5.833 6.299a3.52 3.52 0 002.365.802 3.522 3.522 0 002.301-.972l-.738-.17c.214 1.964-.849 3.625-1.255 5.478-.067.31.391.443.576.214 1.329-1.624 1.196-3.765 1.476-5.692a.392.392 0 00-.42-.419.396.396 0 00-.207.079c-2.836 1.942-4.947-1.307-6.276-3.219a5.742 5.742 0 00-3.648-2.488c-.051 0-.073.066 0 .088h-.007z" fill="#fff"/><path d="M983.342 186.376c1.536-.266 3.293-.539 4.541.627.407.53.762 1.096 1.063 1.691.509.729 1.096 1.4 1.75 2.001 2.142 1.994 5.169 3.433 7.701 4.873a90.169 90.169 0 003.803 2.001c.54.273 1.52.532 1.73 1.167.21.604.49 1.182.83 1.72 1.23 1.956 2.89 3.655 5.28 4.216.05.011.11.004.15-.02a.22.22 0 00.11-.113.21.21 0 00.01-.156.283.283 0 00-.09-.125 24.773 24.773 0 01-3.58-2.953 9.741 9.741 0 01-1.21-1.861c-.28-.517-.34-1.336-.74-1.772-.7-.849-2.83-1.476-3.79-2.008a89.726 89.726 0 01-4.755-2.776 58.32 58.32 0 01-3.972-2.688 12.408 12.408 0 01-2.289-2.215 9.974 9.974 0 00-1.277-1.713c-1.713-1.417-3.47-.923-5.353-.066a.1.1 0 00-.039.047.098.098 0 00-.002.061c.006.02.018.038.035.05a.098.098 0 00.058.019l.036-.007zm26.598 19.949a17.848 17.848 0 015.09 4.393c1.09 1.389 1.7 2.954 3.53 3.552 1.52.495 3.36.066 4.93.244 2.06.228 3.55 1.624 5.48 1.956.04.007.08.003.11-.01a.17.17 0 00.09-.065.21.21 0 00.04-.213c-1.19-2.591-5.91-2.916-8.43-2.828-1.71.052-2.76-.324-3.75-1.772a15.225 15.225 0 00-1.95-2.444 11.788 11.788 0 00-5.09-2.894c-.05 0-.1.052-.05.081zm-34.467-30.405a3.76 3.76 0 002.953 1.388 9 9 0 002.547-.288c.406-.081 5.087-.531 4.297.813-1.358 2.303 1.994 5.02 3.552 6.231 2.732 2.119 6.032 3.552 9.155 5.08a34.172 34.172 0 019.493 6.549c.14.14.45 0 .33-.185-3.38-5.537-11.034-7.693-16.335-11.156a19.557 19.557 0 01-4.039-3.455c-.738-.864-1.321-1.898-.738-2.991.185-.361-.207-.738-.384-1.026-.561-.834-2.038-1.218-3.005-1.181-2.503.103-5.53 2.215-7.716.17-.044-.045-.118 0-.081.051h-.029z" fill="#fff"/><path d="M974.188 174.245c12.101-8.351 27.072-.739 37.392 6.453 5.82 4.031 11.32 8.683 15.16 14.523a28.965 28.965 0 013.86 9c.74 3.05.6 6.106.38 9.2 0 .148.23.229.28.067 1.93-5.819-.2-12.552-3.12-17.758-3.69-6.527-9.66-11.584-15.91-15.867-10.59-7.257-26.089-14.766-38.101-5.692-.052.037 0 .111.059.074zm-.775 1.941a24.039 24.039 0 00-4.143 16.982 23.08 23.08 0 009.185 14.841.367.367 0 00.459-.038.362.362 0 00.051-.457c-3.035-4.556-6.438-9.052-8.122-14.25-1.801-5.493-.133-12.094 2.636-17.034 0 0 0-.044-.044 0l-.022-.044z" fill="#fff"/><path d="M975.606 188.731c-3.552 2.895-2.68 8.122-1.521 11.903a27.218 27.218 0 003.869 7.435c1.536 2.215 3.404 4.43 6.032 5.441a.31.31 0 00.369-.472c-1.395-1.817-3.064-3.441-4.474-5.257a30.762 30.762 0 01-3.788-6.513c-1.713-3.846-2.953-8.712-.458-12.507 0 0 0-.044 0 0l-.029-.03z" fill="#fff"/><path d="M981.402 198.403c-.96 3.256-.222 6.985 1.115 10.049 1.403 3.204 3.913 7.494 7.649 8.646a.219.219 0 00.145 0 .215.215 0 00.069-.362 26.072 26.072 0 01-6.645-8.262c-1.477-3.071-2.887-6.645-2.326-10.064 0 0 0-.036-.044 0l.037-.007z" fill="#fff"/><path d="M986.607 208.297c.004 2.46.778 4.856 2.215 6.852 1.263 1.735 3.338 3.825 5.686 3.95.162 0 .302-.17.177-.302-1.351-1.477-3.212-2.393-4.563-3.914a14.628 14.628 0 01-3.433-6.586h-.082zm7.125 5.161a9.885 9.885 0 001.061 4.038 9.877 9.877 0 002.631 3.242c1.868 1.536 4.426 3.367 7.056 3.101a.129.129 0 00.09-.048c.03-.025.04-.058.05-.093 0-.035-.01-.07-.02-.101a.2.2 0 00-.08-.068c-4.8-1.513-9.806-5.227-10.707-10.078 0-.059-.103-.052-.096 0l.015.007z" fill="#fff"/><path d="M1000.13 216.766c1.28 4.142 5.47 8.181 10.25 8.122a.249.249 0 00.15-.073c.04-.04.07-.093.07-.149a.233.233 0 00-.03-.163.27.27 0 00-.12-.11c-4.2-1.417-8.37-3.618-10.27-7.642h-.05v.015z" fill="#fff"/><path d="M1015.18 222.407c-3.06.738-6.65-.399-9.5-1.315a58.163 58.163 0 01-13.839-6.696 57.509 57.509 0 01-13.327-11.814c-4.194-5.124-6.645-10.912-8.329-17.137-.088-.317-.575-.265-.538.067 1.247 12.426 11.075 22.925 21.714 29.46a59.53 59.53 0 0014.539 6.527c2.83.819 6.34 1.742 9.29.959v-.044l-.01-.007z" fill="#fff"/><path d="M988.372 208.326l-1.012-.738c-.317-.244-.694-.554-1.129-.908-.436-.355-.916-.739-1.425-1.233-.51-.495-1.056-.968-1.632-1.514a28.164 28.164 0 01-1.72-1.779l-.879-.968-.864-1.026c-.295-.34-.561-.701-.841-1.056a50.343 50.343 0 01-.835-1.093l-.79-1.107-.738-1.13a13.61 13.61 0 01-.694-1.129c-.214-.392-.451-.739-.65-1.123a35.032 35.032 0 01-1.107-2.178c-.163-.354-.333-.686-.48-1.026l-.392-.975c-.266-.62-.457-1.211-.627-1.727l-.244-.739-.177-.62c-.214-.738-.318-1.189-.318-1.189s.17.414.458 1.145c.067.184.148.384.229.605l.31.694c.222.502.465 1.063.738 1.662l.458.945c.17.317.34.649.524.989.34.687.739 1.373 1.182 2.104.207.369.443.739.672 1.086.229.347.457.738.738 1.107l.738 1.108.79 1.085c.251.377.539.738.805 1.085s.539.739.827 1.049l.834 1.026.835.982c.273.325.561.628.834.938l.798.886c.546.561 1.041 1.107 1.521 1.587.479.48.915.938 1.321 1.322.406.384.738.738 1.034.997.59.546.915.871.915.871l-.007-.015zm19.908 10.138l-.22.037c-.21.048-.43.07-.64.066h-.46l-.55-.044c-.19 0-.39-.059-.61-.089a6.238 6.238 0 01-.68-.132l-.73-.163-.74-.229a18.49 18.49 0 01-1.61-.561c-.55-.214-1.12-.436-1.68-.701-.559-.266-1.113-.547-1.674-.82l-1.624-.908c-.524-.318-1.041-.628-1.528-.953a28.019 28.019 0 01-1.374-.952c-.421-.317-.841-.605-1.196-.901-.354-.295-.694-.554-.982-.79-.288-.236-.524-.465-.738-.65l-.628-.568.739.465.812.539c.317.199.672.428 1.056.687.384.258.819.502 1.262.79.443.288.93.561 1.418.864.487.302 1.019.576 1.535.886.517.31 1.071.59 1.617.878.547.288 1.085.569 1.635.82.56.251 1.08.517 1.61.738.26.126.54.214.79.325.25.111.51.222.74.31l.73.266.69.229c.22.081.44.125.64.184.19.059.39.126.58.155.32.074.64.131.96.17.21.02.42.02.63 0l.22.052zm-1.74 1.048c1.08 3.197 4.77 6.357 8.54 5.331.2-.059.11-.317-.06-.354a20.818 20.818 0 01-4.29-1.137 9.113 9.113 0 01-4.14-3.854h-.05v.014zm-3.82-37.485c3.61-.598 7.21.568 10.56 1.787 3.64 1.314 6.38 3.499 9.28 5.855.17.133.43-.067.34-.251-1.62-3.308-5.81-5.302-9.2-6.601-3.39-1.3-7.49-1.831-11-.834v.044h.02zm7.45 5.759c3.27-.325 6.27.805 9.19 2.082 2.92 1.277 4.85 3.367 7.45 4.917.03.023.07.035.11.034.05 0 .08-.014.12-.038a.196.196 0 00.07-.097.244.244 0 000-.12c-.89-2.68-4.38-4.371-6.84-5.545a15.81 15.81 0 00-10.11-1.277v.044h.01zm6.38 6.283c2.87.059 5.68.878 8.13 2.373a16.292 16.292 0 015.83 6.14c.01.037.04.067.08.084.03.018.08.022.11.013.04-.01.08-.033.1-.066.02-.032.04-.072.03-.112-.23-2.887-3.13-5.242-5.41-6.867-2.28-1.624-6.15-1.942-8.86-1.661-.05 0-.06.096 0 .096h-.01zm3.64 5.161c4.71 1.358 8.86 5.168 11.07 9.296.03.055.08.099.13.125.06.026.12.031.18.016a.25.25 0 00.15-.101c.04-.05.06-.111.06-.173-.59-4.859-6.92-8.432-11.57-9.207 0 0-.04.036 0 .044h-.02zm-13.96-19.935l-.74-.376-.85-.443c-.33-.178-.71-.362-1.11-.562-.41-.199-.86-.413-1.32-.649-.45-.237-.97-.443-1.47-.694l-.785-.37-.812-.347c-.554-.228-1.1-.48-1.668-.701l-1.691-.657c-.554-.222-1.115-.399-1.654-.598-.539-.2-1.049-.384-1.551-.532l-1.41-.45c-.436-.148-.842-.259-1.203-.362l-.923-.273-.813-.251.842.118.967.148c.37.059.79.118 1.241.228l1.477.34c.516.118 1.048.281 1.602.45l.841.259c.288.089.576.177.857.288l1.72.65c.576.228 1.13.494 1.684.738l.819.369.74.406c.51.266 1 .517 1.48.783s.87.524 1.27.738l.55.347.49.332.78.547.67.495-.03.029z" fill="#fff"/><path d="M1028.37 211.346l.07-.413c.07-.39.12-.785.13-1.182v-.841c0-.31-.05-.635-.07-.982-.03-.377-.08-.752-.15-1.123-.05-.41-.13-.816-.23-1.218-.12-.428-.2-.871-.34-1.314-.14-.443-.31-.908-.47-1.388-.16-.48-.38-.938-.58-1.425-.11-.236-.19-.487-.32-.739l-.37-.738c-.26-.48-.47-.997-.78-1.477-.31-.479-.58-.974-.87-1.476-.29-.502-.66-.96-.98-1.477l-.5-.738c-.18-.237-.37-.465-.55-.702l-1.08-1.402c-.38-.458-.74-.894-1.15-1.337l-.58-.657c-.19-.222-.38-.436-.58-.642l-1.19-1.219c-.74-.819-1.58-1.543-2.33-2.252-.38-.347-.74-.701-1.1-1.019l-1.07-.908-.99-.841c-.31-.274-.6-.532-.9-.739l-1.47-1.174-1.29-1.033s.51.332 1.39.93l1.59 1.078c.61.421 1.26.945 1.98 1.477l1.12.863c.4.303.74.65 1.16.99.78.687 1.64 1.381 2.42 2.215l1.22 1.211c.43.406.8.864 1.2 1.299.4.436.8.886 1.18 1.351l1.12 1.418c.17.236.37.473.54.738l.5.739c.33.494.68.982.99 1.476.6.985 1.14 2 1.64 3.042l.35.739c.12.251.2.509.3.738.19.502.39.982.54 1.477.15.494.28.967.42 1.432.13.465.19.923.28 1.351.09.416.14.838.17 1.263.05.38.07.762.07 1.144v1.004c0 .311-.07.598-.09.85-.04.397-.12.79-.24 1.173l-.1.407-.01.051z" fill="#fff"/><path d="M1015.51 191.16s-.29-.288-.8-.812c-.25-.266-.56-.576-.92-.931-.36-.354-.74-.738-1.21-1.188-.47-.451-.93-.901-1.47-1.381-.55-.48-1.09-.982-1.67-1.477-.57-.494-1.21-1.019-1.83-1.55a26.103 26.103 0 00-1.95-1.514c-.68-.48-1.35-.967-2.02-1.432l-1.03-.65-.51-.317-.51-.288c-.34-.192-.67-.392-1.01-.562l-.978-.494c-.318-.177-.65-.296-.96-.436a11.2 11.2 0 00-.901-.376l-.849-.303-.399-.148-.384-.103-.694-.199a5.526 5.526 0 00-.598-.141l-1.144-.221s.421 0 1.174.088c.206.018.41.048.613.089l.738.125.399.074.413.111.894.251c.31.081.62.214.952.325.332.111.665.229.997.384l1.037.465c.35.155.69.354 1.04.532l.54.28.53.31c.35.214.74.421 1.06.65.69.465 1.4.923 2.07 1.432.66.51 1.33 1.041 1.97 1.558.32.266.62.539.92.813.31.273.61.531.89.804l.83.79c.27.266.52.532.74.79.51.51.96 1.012 1.37 1.477.42.465.79.901 1.11 1.285.33.384.6.738.82 1.011.45.569.7.901.7.901l.03-.022zm10.24 18.784v-.052c.02-.046.04-.096.06-.148.03-.19.03-.385 0-.576a9.52 9.52 0 00-.54-2.03c-.14-.406-.32-.849-.51-1.314-.19-.465-.42-.945-.65-1.477-.46-.989-.98-2.045-1.55-3.072-.28-.516-.56-1.033-.86-1.535-.29-.502-.58-.99-.88-1.477a50.314 50.314 0 00-1.68-2.518c-.27-.354-.5-.686-.74-.974-.24-.288-.42-.532-.58-.739l-.53-.627.17.14c.1.089.27.214.47.399.54.489 1.06 1.01 1.54 1.558.3.339.61.738.93 1.122.32.384.65.849.97 1.314.32.465.64.945.94 1.477.31.531.61 1.026.9 1.543.28.517.55 1.063.81 1.587.26.525.47 1.064.69 1.573.39.94.72 1.907.96 2.894.2.695.29 1.413.28 2.134-.01.205-.05.408-.13.598a.435.435 0 01-.09.133v.044l.02.023zm-.24-4.571a9.948 9.948 0 013.82 3.301c1.01 1.358 1.21 3.012 1.63 4.57.04.155.32.244.38.044 1-3.588-2.4-6.999-5.82-7.959v.044h-.01z" fill="#fff"/><g clip-path="url(#clip0_76_4333)" fill-rule="evenodd" clip-rule="evenodd" fill="#fff"><path d="M1450.18 37.73c.87 1.43-1.73 1.697-2.44 1.506l-.22-.795c.35-.478 1.61-.199 2.66-.711zm-12.46 7.603c1.69-.282 2.44-.688 3.92-.2-.3 1.07-3.73 1.8-3.92.2zm47.88.528c1.03-.099 2.62-1.162 3.06-.25.27 1.125-1.96.808-2.77 1.311l-.29-1.06zm-63.67 19.052c-.71 1.042-1.56-.174-2.72.445-.63-1.702 2.25-1.339 2.72-.445zm-3.92 4.462c-1.06.664-3.52.745-4.34-.26 1.01-.582 3.65-.966 4.34.26zm69.11-16.813c-.67.853-4.47 1.63-5.57 1.492.54-1.066 4.56-2.144 5.57-1.492zm22.43-4.306c-1.35 1.5-4.9 1.908-8.08 2.733-6.51 1.694-14.04 3.268-24.47 6.272-.1-.201-.33-.193-.4-.46-.13-.296-.07-.487.12-.601 12.18-2.698 24.01-6.464 32.83-7.943zm-47.66 13.054c-.66 2.796-2.51 5.593-2.04 9.36.24 1.92 2.15 4.697.91 6.578-1.99-4.821-3.11-12.738 1.13-15.938z"/><path d="M1491.73 53.884c6.25-1.438 11.8-3.66 15.79-3.662-.83 1.389-3.1 1.433-4.63 1.81-3.47.854-7.16 1.598-10.61 2.841-.27-.18-.44-.522-.55-.989zm-28.35 8.734l.79-.213c.53 1.425-.71 3.56-.77 5.608-.02.807 1.16 1.894-.23 2.335-1.04-3.214.1-5.172.21-7.729zm40.85-9.81c-.28 1.61-2.63 1.01-4.36 1.739-.13-.37-.25-.74.05-.867.56-.173 3.25-1.107 4.31-.87v-.002zm.13 7.924c-12.53 4.608-24.98 2.833-37.31 2.89-.19-.175-.39-.356-.47-.723.2-.109.19-.337.45-.408 9.62-.002 19.73 1.287 31.02-.92 2.06-.402 4.25-2.057 6.32-.84l-.01.001zm-38.57 6.641l.53-.142c1.19-.481 2.25.207 3.2.28 2.6.197 6.12-1.191 7.6.804-3.78.345-7.04-.22-10.78.048-.28-.179-.45-.523-.55-.99zm-9.14 3.017c1.03-.627 1.62 2.782.52 2.988-.18-.997-.86-2.286-.52-2.989v.001zm54.59-12.637c.64 1.307-2.43 2.21-3.04 1.383-.11-1.187 2.09-1.464 3.04-1.384zm-106.6 28.564c.92-.042 1.33.808 1.63 1.837-1.21.592-1.98-.955-1.63-1.837zm78.48-17.903c-.99.168-2.1.533-2.4-.493.42-.456 2.34-.902 2.4.493zm-15.93 3.132l.8-.214c2.33 6.93 3.47 12.37 5.2 20.494-1.74-.049-1.2-2.245-1.45-3.306-1.35-5.571-3.03-11.814-4.34-16.18l-.21-.796v.002zm54.96-14.443c.36.028.64.194.75.654-6.01 3.922-14.26 7.055-20.97 8.744-2.85.718-7.28 1.771-10.17 1.303 3.31-1.64 7.4-1.715 11.48-2.79 6.41-1.692 13.37-4.61 18.92-7.912h-.01zm-36.31 10.867c1.16-.325 2.19-.435 2.87.085-.34 1.225-1.87.755-2.58.976l-.29-1.061zm-28.16 8.397c2.91 4.39 3.4 12.72 6.07 20.545-1.78-.8-1.77-3.426-2.21-5.091-1.64-6.122-2.71-10.257-3.64-14.659l-.22-.796v.001zm27.48-1.393c-3.8 1.732-9.77-.055-14.64.513l-.22-.796c4.45-.574 10.35-.335 14.86.284zm42.48-12.236c1.49.958 1.85 5.79 2.45 7.02-2.01-.97-1.8-5.07-2.45-7.022v.002zm-39.83 11.525c4.46-.545 9.08-1.892 14.08-2.634-.9 1.977-4 1.732-6.23 2.236-2.45.553-4.93 1.075-7.3 1.388-.27-.18-.45-.521-.55-.99zm-25.84 7.495c.29-.126.48-.068.6.122 1.2 3.894 2.83 10.028 3.69 13.792-1.76-.832-1.86-3.756-2.5-6.152l-1.85-6.896c-.19-.411.13-.527.06-.87v.004zm46.42-11.303c-.24.454-1.15.698-1.59.427-.4-1.286 1.29-1.74 1.59-.426zm13.16-1.82c.29-.126.48-.068.6.123 1 3.837 2.4 8.576 3.55 13.26.31 1.262 1.48 3.025.2 3.928-1.41-5.208-3.43-12.014-4.35-17.31zm-34.2 10.298l.8-.213c1.18 5.853 2.34 9.26 3.64 14.659-1.14-.134-1.43-2.038-1.72-3.235-.86-3.646-2.06-8.16-2.71-11.213l-.01.002zm21.22-5.683l.8-.214c.41 1.335 1.14 3.463 1.08 5.11-1.31-.441-1.19-3.382-1.88-4.899v.002zm2.27 8.486c1.88 1.236 2.88 6.974 2.28 8.487-1.09-2.926-1.72-5.762-2.28-8.488v.001zm-51.06 36.425c-13.5-.038-26.05-1.726-39.46-1.935l-.21-.795c.2-.108.19-.337.46-.408.21-.109.28.037.33.195 9.77.197 19.47 1.083 29.47 1.77 3.1.213 6.54-.288 9.41 1.178v-.005zm33.84-19.019l.8-.213c.89 4.026 2.67 8.569 3 12.271-1.79-1.694-2.7-9.272-3.8-12.06v.002zm6.14.632c.41-.19.52.128.87.052 1.05 4.595 2.62 9.145 2.88 12.873-1.79-2.825-2.35-8.651-3.75-12.928v.003zm18.29-4.902l.8-.213c.94 5.071 3.94 11.334 3.11 14.8-1.43-3.944-2.58-10.072-3.91-14.589v.002zm-77.44 23.878c6.66.231 13.35.425 19.66 1.268-2.67 1.107-6.23.454-9.58.294-3.28-.157-6.64-.637-9.8-.502l-.28-1.065v.005zm25.43 3.698l-1.32.355c-.43-1.071 1.2-1.966 1.32-.355zM1575.8 95.03l.53-.142c4.17.9 2.6 8.736-1.75 7.289 3.61-1.332 4.6-4.73 1.22-7.145v-.002zm-5.48 7.151c.91-.157 2.2-.97 2.33.227-.52.708-2.12.808-2.33-.228v.001zm-41.73 17.154l.79-.213c.19 1.604 1.14 2.644 1 3.713-1.46-.007-1.32-2.689-1.8-3.501l.01.001zm-3.82 2.732c.25.083.5.161.87.052.17.772.6 1.697.3 2.193-.74-.121-1.46-1.538-1.17-2.24v-.005zm15.47-2.729c-.88.37-1.97.663-2.92.781-.77-1.44 2.55-1.843 2.92-.781zm-42.62 11.708c1.41.125 2.6-1.487 3.39-.057-.76-.089-3.12 1.832-3.4.055l.01.002zm46.76-11.108c-.8.691-1.81.254-3.18.853.25.598 1.22-.053 1.54.44-1.24.83-2.89 2.197-3.89 2.463-.2-.935.67-1.258.56-2.14-.61-.485-2.05.445-2.98.516l-.22-.795c1.78-.312 6.54-2.565 8.17-1.335v-.002zm-43.42 11.916c.62 1.075-2.13 1.811-2.12.568.38-.664 1.47-.572 2.12-.569v.001zm-31.58 23.241c-12.29-.189-26.04-1.225-38.66-2.148-.12-.297-.06-.488.13-.602 9.22.283 19.76.917 29.39 1.505 3.13.194 6.43-.216 9.14 1.249v-.004zm30.53-10.17c.15.629-1.07 1.602-1.71 1.028-.18-.801 1.28-1.253 1.71-1.027v-.001zm15.16-1.784c.09.92-1.7 1.547-2.18 1.435-.35-.963 1.55-1.783 2.18-1.437v.002zm-43.35 16.444c-.9 1.602-3.78.15-5.51.625l-.22-.795c1.48-.658 4.11-.18 5.73.174v-.004zm22.33-6.832c-.11.529-.24 1.053-1.11 1.151-.2-.176-.39-.357-.48-.725.25-.456 1.16-.7 1.6-.427l-.01.001zm20.25-4.008c1.03.352 1 2.828 1.06 3.978-1.04-.025-1.71-3.449-1.06-3.976v-.002zm-42.54 13.107c.14.913-1.78 1.115-2.12.568.14-1.417 1.21-1.008 2.12-.568zm56.68-15.475c1.06-.64 2.19 2.74.37 2.458-.41-.987.13-1.419-.37-2.458zm55.05-1.386c-3.75 1.353-9.47.125-14.52-.09-5.24-.222-10.7.139-15.65-.07l-.14-.531c-.12-.296-.07-.487.12-.602 9.98.557 21.23.155 30.19 1.289v.004zm5.76-6.096l.53-.142c4.31 1.564-.1 9.87-2.97 5.911 4.04.39 4.73-3.636 2.44-5.769zm-76.17 21.262c.06 1.013-3.31 2.578-3.64 1.259 1.56-.521 2.6-1.531 3.65-1.257l-.01-.002zm32.12-3.202c1.17-.342 2.4-.792 2.47.758-1.05.136-2.12.307-2.48-.758h.01zm-46.42 15.564c-1.75 2.267-4.99 3.253-7.58 4.59-1.04.534-1.82 1.593-3.04 1.384-.17-1.615 2.04-1.709 3.09-2.25 2.22-1.141 4.67-2.529 6.4-3.704.52-.257.75-.006 1.13-.016v-.004zm-36.36 20.261c-7.17-.131-14.35-.253-21.06-1.178-.13-.297-.07-.487.12-.601l.53-.143c3.28.466 6.88.44 10.4.625 3.44.177 7.11.02 10.01 1.293v.004zm105.78-33.748c1.11-.237 2.32-.651 2.68.421-.49.466-2.44.782-2.67-.42l-.01-.001zm-32.43 11.537c1.38-.686 2.89-.048 2.35 1.359-1.35.526-1.9-.34-2.35-1.359zm-12.06 3.798c.49.726-.46.628-.91.815.21.533 1.18-.24 1.46.175-2.3 3.255-5.12-1.649-.55-.988v-.002zm-70.27 18.83c4.36.212 8.79.304 13 .781-3.51 1.89-8.32-.567-12.72.279l-.28-1.059v-.001zm114.31-29.495c.46 1.617-2.05 2.182-3.43 2.056l-.35-1.327c1.59-.903 2.2-1.383 3.78-.727v-.002zm-48.17 14.33c-.84.288-1.25-.168-2.19.303.22.386.89.004.81.919-4.84 1.091-.15-4.392 1.38-1.218v-.004zm16.11-4.601c.09 1.299-3.15 1.98-3.72.995l-.21-.796c.98-.892 3.39-1.323 3.93-.197v-.002zm37.48-8.621c-.26.076-.12.38-.13.602-1.53.564-3.24 1.54-3.99-.066.76-1.066 3.31-2.147 4.11-.536h.01zm-58.27 15.9c.41 1.912-3.36 2.618-3.79.729.79-.029 1.34-1.376 2.58-.975-.17 1.756.45-.291 1.21.25v-.004zm14.37-4.706c.44.538 1.14.611 1.29 1.644-1.26.739-3.45 1.516-3.99-.066.54-.733 1.3-1.344 2.7-1.579v.001zm-10.73 3.443c.58 1.524-2.14 2.112-3.17 1.985.35-1.07 2.36-1.18 3.17-1.983v-.002zm58.96-14.375c-.11 1.45-3.13 2.258-3.79.73.07-1.104 3.43-2.401 3.79-.728v-.002zm-25.83 8.624c-.82 1.157-2.21 1.364-3.64 1.26l-.36-1.326c1.13-.798 3.59-1.567 4 .064v.002zm21.34-6.285c.46 1.538-1.81 1.496-3.17 1.984-1.85-1.707 2.14-3.184 3.17-1.983v-.001zm-62.39 16.435c1.24-.54 1.47 2.128 1.31 2.776-.89-.527-2.66.468-3.46-.208.15-1.643 3.54-.04 2.15-2.569v.001zm-6.93 3.842c-.6 1.83-2.39 1.706-3.98 1.065-.37-2.006 3.27-2.548 3.98-1.065zm61.77-17.687c.67.1 2.7-1.121 3.4-.057.42 1.365-2.2 1.919-3.24 1.719-.41-.763.01-1.04-.16-1.665v.003zm-19.22 5.717c.23 1.27.87 1.383.3 2.193-1.16.212-2.35.463-2.93-.35-.43-1.369 1.36-1.458 2.64-1.843h-.01zm-46.9 14.844c-.15 1.253-2.62 1.697-3.64 1.26-.94-2.244 3.08-2.808 3.64-1.263v.003zm35.66-10.124c1.2-.252 2.27-.303 2.75.687-.1 1.132-2.47 1.782-3.38 1.189-.39-.976 1.64-.544.63-1.879v.003zm-40.34 12.8c-.21 1.4-3.12 1.806-3.78.729-.39-1.561 3.56-2.579 3.79-.727l-.01-.002zm26.91-7.783c-.71.192-1.54.306-1.79.763.12 1.086 1.82-.559 1.88.634-.92.17-2.1.781-2.72.445-1.46-1.821 2.01-3.324 2.63-1.842zm-17.82 5.63c.07 1.704-1.75 1.216-3.23 1.718-2.17-2.015 3.03-3.462 3.23-1.72v.002zm43.15-11.845l.8-.213c.3.248.54.618.62 1.255-.85 1-3.34 1.76-3.93.2.18-.198.36-.392.73-.478 1.03-.326.02.429.74.653l1.06-.285c.33-.18.04-.724-.02-1.129v-.003zm29.44-7.887c1.16-.197.85 2.154 1.38 3.04-1.28.51-1.5-2.349-1.38-3.042v.002zm-90.36 24.493c1.42-.255 3.36-1.427 3.73.137.26 1.321-2.38 1.472-3.3 1.454-.29-.98-.5-.673-.43-1.59v-.001zm13.35-2.155c.38 1.359-3.38 2.032-3.71.995-.35-1.634 3.19-2.271 3.71-.995zm9.01-2.415c.67 1.96-2.37 1.998-3.5 1.791-.6-2.019 2.35-2.486 3.5-1.793v.002zm-13.5 4.753c.24 1.81-3.51 2.753-3.85.465 1.16-.71 2.95-1.254 3.85-.466v.001zm8.97-1.547c.32 1.661-2.86 2.031-3.65 1.26-.71-1.707 3.17-2.838 3.65-1.263v.003zm9.68-2.028c-.54 1.1-2.8 1.78-3.78.729.14-1.9 2.98-2.702 3.78-.727v-.002zm-13.91 4.296c-.36 1.277-3.97 2.537-4-.066 1.19-.532 2.98-1.403 4 .065v.001zm23.67-6.056c-.84 1-1.78.892-3.44.923-.81-1.84 3.28-3.412 3.44-.923zm32.87-9.947c.41 1.102-.31 2.348-1.17 2.017-.16-.987.23-1.66 1.17-2.015v-.002zm-47.45 13.854c.92 1.852-2.95 2.52-3.57 1.526-.03-1.629 2.42-2.212 3.57-1.525v-.001zm9.15-1.885c.21 1.613-3.61 2.47-3.66.129 1.09-.566 3.1-1.508 3.66-.126v-.003zm11.21-2.723c.81 2.164-2.74 2.486-3.57 1.526-.29-1.453 2.61-2.097 3.58-1.525l-.01-.001zm-24.69 8.607c-.81.712-3.29 1.436-3.85.464-.29-1.473 3.88-2.933 3.85-.465v.001zm9.48-2.82c.59 1.482-2.91 2.308-3.38 1.19-.59-1.49 2.9-2.309 3.37-1.191l.01.001zm9.27-2.485c.36 1.853-2.59 2.08-3.64 1.26-.31-1.467 2.94-2.32 3.64-1.263v.003zm-14.42 5.567c-.02 1.574-2.37 1.633-3.57 1.526-.96-1.949 2.95-3.025 3.57-1.525v-.001zm10.15-2.432c-.41.977-3.19 1.731-3.78.73-.46-1.741 3.56-2.421 3.78-.728v-.002zm-27.1 8.11c1.1.034.95 2.236 1.45 3.306-1.58.174-1.33-2.78-1.45-3.304v-.002zm72.34-18.529c.83 2.312 2.11 5.516 2.14 7.957-2.09 1.612-7.32 2.751-10.33 3.903-1.3-.988-1.45-3.957-2.16-5.959 2.81-2.334 6.16-4.356 10.35-5.9v-.001zm-4.13 3.665c.53-1.04 3.82-.482 3.43-2.055-.96-.245-4.26 1.269-3.43 2.054v.001zm-4.76 2.411c-.02.688-.32 1.805.31 2.193.65.215 1.1-1.599 2.7-1.577.25.476.89.277.89 1.184-.05.421-.24.758-.59 1.008-1.38.71-2.02.148-2.86-.085.19.704.3 1.541.76 1.786 2.83-1.22 5.88-1.864 8.35-2.805-.17-1.624-.35-2.249-.88-4.314-3.02.786-5.43 1.938-8.67 2.606l-.01.004z"/><path d="M1563.1 191.954c.62 1.075-2.13 1.811-2.12.568.66-.5 1.29-.67 2.12-.568zm-54.23 15.096c.3-.126.49-.067.61.124l1.77 6.63c.59 2.215 1.92 4.611.77 6.048-1.26-4.481-2.38-9.045-3.14-12.804l-.01.002zm6.18-1.366c1.52 1.507 2.29 6.381 2.6 8.681-1.56-1.529-2.23-6.349-2.61-8.678l.01-.003zm3.85-.466c.27.054.54.106.67.389.64 2.414 1.45 5.337 2.13 7.956.66 2.498 1.87 5.095.91 6.579-1.01-3.984-2.95-9.935-3.71-14.928v.004zm4.16 1.732c.41-.19.52.127.87.051.39 3.264 2 6.944 1.95 9.426-1.22-1.83-2.02-7.193-2.82-9.476v-.001z"/><path d="M1473.35 41.47c4.04.333 9.1.148 14.25.16 6.9.017 14.1-1.283 17.25 3.907 10.16-2.321 22.53.106 27.7 12.19 1.28 2.988 1.95 7.365 3.06 11.405 1.22 4.427 3.16 9.839 2.01 12.82-1.2 3.12-5.69 4.712-8.34 7.067.38.895.86 1.62 1.05 2.847 11.68-.64 24.24.112 36.84.647 5.54.236 12.96-1.773 14.2 5.29 1.43 8.158-7.96 7.346-14.53 7.303-10.24-.066-23.5-.382-33.37-.438-1.55 1.365-3.18 4.578-6.77 5.508 2.88 1.102 6.69.587 7.23 5.74 4.73-.146 12.28-1.376 14.62 2.618 2.72 4.635.96 10.229 4.19 15.649 7.16.419 18.19.614 26.99 1.012 4.69.212 11.47-.433 13.44 3.505 1.75 3.484.34 8.629-2.5 9.765-2.39.959-6 .303-9.05.152-8.44-.417-17.35-.909-25.52-.837.17 3.129 1.52 5.679 2.08 8.823 4.85.186 9.76.686 15.07 1.08 4.14.306 12.37-.998 14.68 1.751.78.931 1.65 6.082 2.55 9.549.97 3.698 2.09 6.635 2.28 8.487.1 1.069-.21 4.039-.46 4.669-1.29 3.22-11.6 8.142-16.4 10.932-11.85 6.898-23.23 13.769-34.28 20.557-5.53 3.398-11.85 7.437-17.14 10.279-5.69 3.052-11.71 2.092-16.96 1.417-9.85-1.267-21.55-2.993-30.9-3.944-2.59-2.075-3.74-5.063-4.75-9.245-7.65-1.721-16.05-2.531-24.83-3.58-4.58-.546-8.96-.591-10.81-5.346-1.6-4.095-2.39-9.582-3.43-13.863-6.22-25.511-15.71-60.672-22.75-90.264-6.42 2.035-13.25-2.319-13.16-9.835.05-3.709 2.81-6.207 4.19-8.795 1.36-.406 2.2-1.12 3.57-1.526-.62-4.669-3.6-10.334-.3-13.848 2.01-2.142 6.17-3.239 9.51-4.822 3.36-1.593 6.55-3.22 9.58-4.557-.09-2.45-2.13-5.185-2.13-7.957 0-1.06.85-2.161 1.34-3.486.45-1.258.63-2.631 1.07-3.415 2.7-4.768 9.58-6.281 15.84-8.791 5.67-2.276 16.22-3.31 21.37-4.022 4.86-.671 8.21 5.136 10.92 7.876.65 2.335 1.18 3.322 1.5 5.569v-.003zm-32.98-8.504c-4.34 1.265-10.03 3.14-12.09 5.798 7.64.057 16.74-1.468 25.84-4.364 3.49-1.112 7.39-2.254 9.17-5.016-7.83.336-16.38 1.679-22.91 3.582h-.01zm-13.61 6.49c0 .222-.14.367-.45.406l-.54.143c4.51 2.425 12.26-.776 17.85-.233-3.88 1.342-10.58 2.366-15.08 2.051-1.56-.109-4.28-1.547-4.25 1.137 8.26 1.68 19.91-.3 30.24-3.838 1.39-.475 3.25-2.055 4.77-1.279-8.97 4.751-23.75 7.251-31.45 6.722-1.32-.09-3.66-1.146-4.39.607 1.55 2.11 5.69-.27 7.29 1.743-3.03.773-5.81-.684-8.19.204 2.46 1.515 6.04 1.13 9.34.909 11.17-.75 21.05-3.603 30.45-7.306 1.38-.544 3.23-1.132 4.63-1.809 1.12-.542 3.3-1.502 2.88-3.046-1.86-.871-3.34 1.273-5.09 2.217-4.47 2.401-10.41 4.496-16.43 5.537 5.29-2.24 10.85-4.096 15.35-6.385 1.93-.982 5.23-1.91 4.85-4.144-1.66-.72-2.21 2.089-3.57 1.525-.23-1.557 2.34-1.49 2.02-3.097-4.28.169-8.25 5.773-13.1 5.214 1.41-1.503 5.17-1.645 6.2-3.367-11.65 4.044-23.09 7.512-33.33 6.09v-.001zm-2.03 17.883c.4-2.982-.44-5.535-2.2-8.222l2.2 8.222zm1.93-.232c.99-2.293-.88-4.849-1.26-7.904l-.8.213c.85 2.631 1.55 6.633 2.06 7.691zm1.68.97c.87-.217 1.22.483 2.27-.037-.91-2.946-1.6-6.6-2.35-8.752-.44-.278-1.29.173-1.73-.104.23 2.748.93 5.77 1.81 8.894zm44.27-12.997c1.36-1.701-1.16-4.602-1.05-7.11-.35.077-.46-.24-.87-.051.69 2.297 1.42 5.714 1.92 7.16zm-40.34 12.799c-.52-2.457-.99-7.736-2.61-8.681.34 2.31 1.07 7.165 2.61 8.681zm38.18-10.232c1.02-.086.87-.847 1.72-1.028l-2.13-7.957c-3.13 1.113.73 6.256.41 8.985zm-36.57 10.937l2.12-.568c-.39-2.197-1.05-4.825-2.08-8.823-1.15-.275-1.22-.147-2.79.18 1.13 3.205 1.28 6.236 2.75 9.211zm35.18-10.847c1.16-1.3-.67-6.63-1.8-7.763l-.53.142c.42 2.03.81 7.16 2.32 7.622l.01-.001zm-6.16-6.025c.12 2.555 1.67 7.066 2.15 9.09 1.16-.302 2-.785 2.77-1.313-.91-2.626-1.37-5.514-2.34-8.752-1.24.109-1.5.779-2.58.975zm-24.78 15.735c-.41-2.215-.93-5.562-2.27-8.487l-.8.213c1.51 2.764.5 7.755 3.07 8.274zm1.2.247c1.3.165 2.48.033 3.26-.588-.76-2.33-1.44-5.688-2.35-8.752-1.53.365-1.55.186-3.25.587 1.01 2.547 1.4 6.385 2.34 8.753zm24.26-7.068c.17-1.854-.71-8.046-2.47-8.151-.3 1.74.73 7.42 2.47 8.15zm-7.3-6.005c.54 3.228 2.65 7.36 2.1 9.956-1.75.113-2.86 1.535-4.24 1.137 2.86-1.332-.86-7.444-1.04-10.24l-3.98 1.066c1.58 3.806 1.06 8.5 3.43 9.6-8.86 2.393-19.22 4.045-26.4 2.242 3.38 2.522 9.47 2.148 15.14 1.344 11.39-1.617 26.61-5.502 32.2-13.462-3.38 2.834-8.22 6.818-12.94 6.877-.12-1.06 1.08-.07 1.45-.956-1.04-3.409-1.48-6.49-2.68-8.947-.81.572-2.35.728-3.03 1.382l-.01.001zm-12.11 12.06c.4-1.817-1.04-5.555-1.75-8.63l-1.06.285c.59 2.743.82 7.005 2.81 8.344zm1.46.174c1.31.011 1.46-.272 2.99-.517-1.13-2.666-1.68-6.867-2.68-8.946-1.35.06-1.49.31-2.72.445l2.41 9.018zm11.53-3.657c.56-2.016-1.14-6.46-2.01-8.558l-.79.213c.79 2.183.58 6.847 2.8 8.345zm-7.16 1.918c.44-2.678-1.53-5.247-1.67-8.364l-1.06.284c1.2 3.35.7 6.683 2.73 8.08zm24.04-12.125c.78 1.483 2.81.816 3.11 3.145l3.18-.853c-.02-.87-1-.078-.88-1.184.96-.248 2.05-.71 2.53-.109.09.425-.62.389-.32.937l6.63-1.776c-4.32-.567-10.31-.261-14.26-.158l.01-.002zm-65.37 21.211c2.06.564 5.23-.776 6.74.753-3.65.883-6.04-.421-9.78.63 1.75.863 4.07.624 6.13.63 4.59.013 9.23.012 13.39.109 2.07.048 4.71-.782 6.21.895-6.69-.082-14.18.011-21.04-.047-1.95-.017-5.35-1.212-6.17 1.369 2.38.534 5.91-.927 7.6.805-1.6.936-5.02-.252-7.85.398.32 2.348 1.07 5.115 1.94 8.293 2.64-.63 3.99-2.252 6.41-2.572 3.55-.469 5 2.7 7.47 4.536.79-1.021 2.9-2.026 4.29-2.003.49 1.09 1.56 1.932 1.39 3.04 5.56.78 11.17.308 16.46.989 5.37.69 8.97 4.123 13.17 6.706-1.66-6.264-2.76-12.362-4.57-18.107-7.44-.684-15.6-.449-22.92-.68-2.42-.076-5.17.179-7.34-.876 7.13-.566 15.5-.109 22.78.151 2.41.086 5.24.851 7.25-.521-1.17-1.633-4.45-.917-7.08-.947-2.73-.032-5.83-.04-7.87-.734 4.61-1.63 10.98 1.166 15.11-.92-6.45-.423-13.88-.63-20.39-.79-2.13-.051-4.8.814-6.48-.823 6.14-.391 14.03.398 20.32.525 2.22.044 5.6.425 7.06-.185 1-.42 1.94-2.165 2.95-2.78 5.78-3.536 10.94-3.02 16.26-2.938 15.77.246 29.44.992 44.12-6.135 2.31-1.121 5.71-2.293 6.23-5.366-5.63-2.666-14.89-.773-22.24-.293-2.22.145-5.41.55-6.69-1.62.36-1.36 3.08-1.36 3.55-2.657-7.92.008-9.03 2.535-17.45 3.823-2.69 7.199-16.2 11.852-25.53 13.95-9 2.022-26.91 4.837-30.1.105-.6-.878.05-2.753-1.05-2.846-4.32 2.368-8.46 3.469-12.28 6.132v.001zm65.44-16.684c-4.48 5.828-15.19 9.838-26.03 12.094-7.67 1.594-17.77 2.967-22.04.503-1.16-.67-1.47-2.248-2.63-2.42-3.09 3.182 3.05 4.414 6.07 4.626 12.54.883 28.66-3.172 39.87-9.26 3.1-1.686 9.58-4.603 5.26-7.948-.35.7.1 1.859-.5 2.407v-.002zm19.35-2.056c2.32.83 7.52.596 9.51-.559-1.96-2.808-6.47-1.306-9.51.56zm-36.93 45.711c2.29 2.116 3.77 5.632 5.28 9.103 2.76-1.77 7.19-2.573 9.24-4.75-1.95-.54-3.36 2.169-5.57 1.491.43-1.249 1.95-1.863 3.63-2.392-1.93-6.356-3.16-12.578-4.42-17.576-.4-1.577-1.65-3.526-.75-4.916 2.76 7.916 3.73 14.237 5.96 22.279 8.44-1.442 16.75.727 25.57-.03 12.3-1.056 26.27-5.046 37.23-11.68-.17-2.157-2.72-7.317-2.02-9.69 1.14 2.332 2.12 6.436 2.41 9.017 1.38-.4 1.2-1.701 2.56-2.108-2.23-6.742-3.74-12.534-4.65-19.503 2.13 5.669 2.56 10.631 4.83 18.036.85-2.568-.73-5.916-1.62-9.231l-2.7-10.079c-4.22 3.475-11.88 9.268-19.48 10.051 5.88-3.241 14.98-6.205 18.86-11.306-.86-1.747-1.78-3.388-2.94-4.613-1.33.136-1.04 2.379-2.37 1.771-.17-1.289 2.08-2.142 1.15-3.15-.92-.736-1.74-1.65-2.83-2.083-1.49 3.773-6.25 6.852-11.26 7.849 1.27-1.675 4.6-2.547 6.86-4.112 1.9-1.315 4.86-3.497 2.57-5.239-5.88 6.623-13.55 9.138-23.72 11.188-12.62 2.547-25.64-.279-38 1.37-1.98 1.992-1.92 5.168-3.4 7.45-.88-2.801 2.04-5.624 1.28-6.88-13.6 3.29-1.58 19.801-1.71 29.735l.01-.002zm-43.92-14.382c-.03 2.604-5.31 2.165-5.92 4.43 2.74-.139 5.38-2.27 7.93-3.264.68.37 1.52.48 1.83 1.501-1.11 2.05-5 2.496-7.2 3.917.2.83.67 1.18 1.03 1.715 2.31.225 6.99-4.63 8.89-1.815-.67 2.374-4.51 2.926-7.12 4.183-.06.711-.31 1.316.04 2.264 2.81-.77 4.66-2.091 7.14-3.05.25.603 1.05.246 1.15 1.113-.57 2.812-5.4 3.161-7.78 4.926.41.76-.24.902.17 1.662 2.85-.572 5.62-3.577 7.88-2.397 2.04-5.818-2.33-14.912-8.04-15.184zm-3.3 14.242c-2.03-4.116-3.78-8.712-8.65-7.914.63 1.174 4.04.996 2.97 2.615-1.06-.328-3.27-2.054-4.07-.332 4.02-.229 5.7 3.596 7.39 7.402.39-1.491-1.54-2.651-.47-3.855 2.18 2.474 1.59 6.774 1.02 9.108 2.37-.8 1.27-3.598 2.31-5.167 1.41 1.31-.78 3.52.08 4.527 2.42-1.01 2.06-4.813 1.47-7.218-1.11-4.54-4.83-9.67-8.87-8.71 2.9 1.601 7.11 5.017 6.82 9.544zm-1.14-8.506c1.86-.578 5.83-1.661 6.74-3.51-2.5 1.024-5.12 1.977-6.74 3.51zm11.9-1.199c1 1.084 3.08-.847 4.25-1.137-.65-1.822-3.55.304-4.25 1.137zm-15.65 15.848c4.56-1.94-1.74-13.807-5.76-9.828-2.62 2.603 2.22 11.336 5.76 9.828zm6.82-10.638c1.85-.382 5.4-1.64 6.54-3.173-2.21.71-4.84 1.513-6.54 3.173zm9.52-3.69c.07.669.64.447.62 1.256.9-.305.95-1.099.9-1.947-.86.026-.89.53-1.52.692zm53.6 47.321c-2.57-5.201-4.65-9.727-7.03-14.602-3.34-6.816-5.89-14.124-9.06-20.028-6.82-12.682-20.33-13.569-34.71-12.871-.36.168-.15.662-.32.937l.14.53c6.68.989 14.11.675 20.87 1.515 4.77 2.651 10.09 6.355 12.85 11.907 5.11 10.271 10.36 22.878 15.41 33.11.62 1.273 1.19 3.728 2.99 3.746 1.26-1.432-.58-3.123-1.14-4.244zm-30.55-42.98c-2.72-.679-6.39-.546-9.87-.766-4.05-.257-8.64-.785-11.58.26 1.8 7.655-5 8.882-10.05 12.358 15.22.29 30.05 1.275 44.92 2.176-2.34-6.163-6.82-12.38-13.42-14.028zm-31.03 4.051c1.5-.558 5.47-1.62 6.2-3.367-1.92 1.208-5.15 1.656-6.2 3.367zm-7.28 6.783c1.6-.128 1.91-2.175 1.22-2.884-.21 1.077-.86 1.893-1.22 2.884zm7.16-1.918c1.57-.187 4.45-1.43 5.55-2.624-2.39.564-4.25 1.428-5.55 2.624zm51.45 101.904c1.02-1.318 4.01.89 4.38-.607-1.15-1.496-6.21.409-7.82-1.6 2.73-1.242 5.15 1.113 8 .132 1.12-.384 2.5-2.138 4.01-3.064 2.67-1.641 4.95-3.169 7.28-2.52-2.15-10.599-5.34-20.761-7.8-32.305-2.89.034-5.98-.27-8.93-.45-2.94-.18-6.14.284-8.54-1.122 5.4-.803 11.28.904 17.19.511-3.15-10.693-4.88-19.51-7.97-30.837-1.84.194-3.71.458-4.94-.384.63-1.558 3.84.333 4.92-.748-1.99-2.507-6.68-.348-9.29-1.775 2.71-1.661 6.22.547 8.65-.612-2.05-7.42-3.61-13.862-5.4-20.157-15.34-.997-30.78-1.822-46.39-2.352.16 3.005 1.72 6.824 2.43 10.15 2.02 1.036 5.78-.943 7.15 1.212-2.06.967-6.18-1.313-6.58.91 5.38.381 14.17.815 20.8 1.249 2.46.161 5.18-.532 7.08.947-3.83.434-8.73-.132-13.46-.373-4.79-.245-9.67-.442-14.13-.763 2.95 12.1 5.73 23.18 9.27 36.743.98-.28 1.75-.182 2.53-.109-.35-1.079-2.15.347-2.29-1.093 1.89-.156 3.95-.619 5.2.312.03 1.069-2.1-.153-1.45.956 6.71.113 14.22.597 20.73.984 2.08.124 4.85-.326 6.02 1.231-10.27-.213-19.87-1.575-30.46-1.221 2.74 11.469 6.31 24.566 8.92 35.417 2.62.376 6.02-.589 7.74 1.335-2.48.636-5.85-1.199-7.32.256 4.13.662 9.46 1.02 13.41 1.241 1.37.076 3.44-.729 4.21.861-5.88.092-11.12-.924-17.19-.511 1.41 4.674 2.37 10.126 4.1 14.252 10.9 1.188 22.35 3.477 32.9 3.977-.68-2.006-1.3-5.196-2.13-7.957-1.01-.191-2.49.427-3.01-.616 4.01-1.35-.52-.087-1.82-1.502v.002zm18-102.606c-6.95-1.783-13.09 3.353-19.75 5.86 2.69 5.834 5.44 11.544 8.08 17.447 4.16-1.713 8.28-5.164 11.63-5.39-2.92 2.496-7.36 4.115-11.15 6.115 2.98 4.798 3.79 10.186 6.7 14.407.55.794 1.82 1.271 2.3 2.226.96 1.878.72 3.926 1.57 5.835-.41.958-1.22 1.687-2.57 2.108-3.17-1.945-4-4.932-5.28-9.103-1.5-4.922-5.36-9.455-6.7-14.407-.95.347-2.4.403-2.84 1.047 2.38 11.503 5.78 21.603 8.08 33.365 2.5-.15 4.4-3.04 6.95-2.713-1.17 1.942-5.06 2.312-6.26 4.234 5.89-1.692 12.23-7.421 17.91-8.493-5.03 3.895-12.63 6.312-17.75 10.156 1.87 7.357 4.24 15.021 5.14 20.227 1.85.332 4.31-3.121 6.29-1.97-1.49 1.533-5.14 1.817-5.8 3.827 5.93-1.338 11.23-6.799 16.53-7.27-5.18 2.988-10.54 5.869-16.17 8.596 1.18 3.906 1.76 7.317 2.5 10.415 7.09-3.906 14.27-7.754 20.98-11.875l-.99-3.713c-.51-.028-1.48.738-1.67.161-.65-1.275 1.82-.743 1.17-2.018-2.04-.092-4.54 2.583-6.42 2.572.77-1.948 4.07-2.436 5.8-3.828-1.46-7.987-3.94-15.02-5.44-22.42-1.45-.458-3.85 3.055-5.04 1.35.61-1.299 4.22-1.203 4.55-3.207-4.2 1.227-8.53 3.944-11.83 5.727-1.08.584-2.65 2.074-3.71.994 4.78-2.845 9.99-5.44 15.18-8.047-.56-5.821-3.45-9.064-3.5-14.128-.04-5.099 7.19-6.599 11.36-9.581-2.01-4.228.51-5.837 2.47-7.768-3.79-.164-8.54 1.337-9.91-3.031-.73-.338-2.09 1.242-2.79.18.45-.638 1.8-.755 1.84-1.629-3.74 1.143-7.26 4.764-10.38 4.77 2.39-2.655 7.68-3.636 10.29-6.167-7.44 2.497-13.55 7.929-20.88 10.141 1.68-2.394 4.92-2.878 7.66-4.325 4.45-2.356 8.9-5.532 13.2-6.948-1.22-4.733-2.02-7.452-2.72-11.211-3.75.6-5.99-1.832-8.62-2.508l-.01-.01zm2.86.082c6.69 2.278 15.4.926 23.09-.787 11.15-2.48 21.67-6.01 27.75-13.12-11.03 9.745-36.19 15.137-50.84 13.903v.004zm10.9 18.4c8.66 3.661 26.67-1.555 34.44-7.239-.5-1.036.04-1.47-.38-2.458-.79-.301-1.63-.537-2.86-.085.11 1.113 1.1 2.728.66 3.519-1.27-.395-.75-2.146-1.19-3.377-2.01-.266-3.24-1.249-3.91-2.931-1.34-3.344.49-7.013.84-9.605-9.56 2.881-21.38 6.325-31.86 6.263 1.62 5.805 2.86 11.206 4.26 15.916v-.003zm32.19-21.986c.79-.261.19-2.931-.9-2.315-.67.326-.27 2.885.91 2.315h-.01zm-4.14-.594l.22.796c.8-.066 2.41.162 2.24-1.17-.27-.83-2.12-.096-2.46.372v.002zm-60.73 27.928c.49.422 1.26-.908 1.74.104.24.59-.69.5-.59 1.008.83-.193 1.18-.663 1.72-1.027-1.81-3.6-3.14-8.02-5.44-10.765.76 3.496 2.37 7.496 2.57 10.677v.003zm60.35-18.729c1.57-.261 3.42-.999 3.88.667-1.25.22-2.19-.09-3.4.057 1 1.764 3.35 1.191 5.61.772-1.58-3.902-.61-6.33.18-8.861-5.16-1.517-7.63 2.607-6.26 7.369l-.01-.004zm56.34-4.014c-1.59-3.8-9.04-2.728-13.83-2.831-10.73-.233-26.61-1.411-35.03-.278-1.14 2.037-1.31 4.626-.81 7.606 6.37.481 13.28.037 19.33 1.074-5.85 1.073-12.16-.42-18.44.11 3.15 1.293 7.26.928 11.07 1.013 3.97.088 8.08.329 11.58-.261-.79.163-1.91-.142-1.42-1.042 4.38.436 9.43-.278 13.53.639.39.669-1.3.145-.92.814 4.85.686 18.46 1.565 14.95-6.837l-.01-.007zm-49.06 8.885c.86-.1 1.12-.548.77-1.345-.38.013-.6-.242-1.13.019l.36 1.322v.004zm30.93-2.316c-2.52-.173-5.16-.136-7.73-.204 1.94.902 5.72.688 7.72.201l.01.003zm-59.44 17.915c3.46 2.685 6.94-2.126 10.47-3.373l-.64-2.387c-2.67.22-9.53 2.12-9.83 5.759v.001zm28.15-5.271c5.39-4.82-9.28-4.791-10.9-2.481.08.343-.24.459-.05.867.48.845 1.91.065 2.09 1.43-.11 2.551-3.55 3.183-4.24 5.4 3.77-1.45 10.6-2.982 13.1-5.214v-.002zm-15.63 5.324c1.23-.711 1.77-1.814 3.02-2.515-.43-1.819-1.78-3.185-.61-4.385.6 1.042.3 3.62 1.53 3.571.79-1.159-.37-2.118-.47-3.856-1.35-.247-3.44.789-5.1 1.085.93 2.541.56 4.598 1.63 6.1zm-10.6 7.107c-.06-1.601-2.01-4.298-.48-4.987.93 2.055-.1 5.684 2.23 6.223.15-1.656-.65-3.77-1.1-6.242-.81-.15-1.26-.926-2.41-.492.31 1.595.34 4.458 1.76 5.501v-.003zm2.31-5.167c.44 2.284.76 5.287 1.44 6.437 2.01-1.383 4.51-2.48 6.32-3.97-.57-2.374-.42-3.183-.96-5.711-3.07.62-4.27 2.312-6.79 3.249l-.01-.005zm26.56-.579c-1.27-2.283-1.2-3.645-2.09-5.692-4.21 2.695-10.82 4.954-16.09 5.731.14 1.947.7 4.139 1.11 6.242 6-.323 14.78-3.537 18.33-6.901-.99-2.638-.93-4.924-2.5-6.153-.59 2.13 2.37 4.945 1.24 6.767v.006zm-39.35 12.248c3.91 3.57 17.22.289 21.33 1.108.26-.534.7-2.116 1.91-1.364.22.5-.22.622-.32.937 1.09-.206 2.26-.268 4.05-.8-.02-.871-1-.078-.89-1.184 2.32.312 6.95-2.934 8.77-1.213l3.45-.924c-.06-.408-.36-.954-.02-1.132 6.14-2.582 12.24-5.19 14.68-9.904-1.82-4.868-7.47-3.097-12.17-2.992.25 1.637.94 2.524 1.34 3.907-3.78 5.647-12.46 7.926-19.77 8.99-.47-.35-.94-.701-1.02-1.714-2.87-1.309-4.88 1.975-7.02 2.449-2.12.467-3.17-1.452-5.82-1.568-2.95-.128-4.92 2.106-7.57 1.46-.17-.852 1.8-1.141 2.32-.905.36-.519-.87-1.237.44-1.54.83-.03 1.17.411.55.99 1.74-.688 2.91-.393 4.58-.943-.17-.918.01-1.636-.45-2.724-4.52 1.321-12.24 5.563-8.38 9.083l.01-.017zm-19.03 1.118l.29 1.061c.91-.517 2.52-.635 2.7-1.577-.89-.726-1.86.174-2.99.519v-.003zm.57 2.125l.43 1.591c.73-.629 3.95-.999 2.9-1.914-.05.78-1.11.166-1.01-.582-.99.18-1.72.503-2.32.908v-.003zm66.34-11.242c2.81-1.304 7.07-4.121 5.68-6.356-.47 2.936-3.69 4.288-5.68 6.352v.004zm-64.84 13.679c.41.838 1.17 1.076 1.63 1.837l1.59-.426c.34-.628-.27-1.803-.44-2.723-1.26.251-2.04.771-2.78 1.317v-.005zm17.14 1.378c1.53-.689-.43-3.385-.48-4.987l-.8.213c.1 1.267.91 2.882 1.28 4.774zm2.68 4.681c1.4.289 2.56 1 4.21.861.43-.498-.58-1.829.29-2.069.57.32.63 1.5.91 2.315 12.09-.38 20.2-1.71 31.13-5.784-.27-.816-.34-1.995-.9-2.316-1.45.163-2.02 2.625-3.31 1.454-.02-.945 1.65-.424 1.51-1.823-1.26-.162-3.04.602-4.58.943.05.85.95 2.194.44 2.722-.82-.124-.93-1.496-1.24-2.509-4.29 1.774-8.17 1.237-11.28 2.453-2.07.811-4.58 3.614-7.02 2.45 1.63-.553 2.6-1.487 3.29-2.587.48.206.61 1.019 1.34.777.14-1.987-.94-3.379-1.15-5.376-3.85.603-8.2 9.945-12.69 5.675-1.55-1.478-.63-4.881-3.03-6.01.59 2.302 1.11 5.666 2.07 8.827l.01-.003zm51.03-18.504l1.33-.356c.32-1.494-.95-2.513-.8-4.049-2.19.31-.94 2.601-.53 4.404v.001zm-40.71 10.341c-2.96 1.202-3.74 5.3-7.92 4.395-1.06-1.516-1.16-2.995-1.81-4.632l-.79.213c.73 8.478 9.02 4.03 10.52.025v-.001zm-8.8.079c.53 1.036.81 2.48 1.46 3.305 2.55.168 4.56-1.822 5.34-3.42-2.2.136-5.01-.569-6.79.116l-.01-.001zm45.3-11.282c-.12 1.319.68 1.775.52 2.988.81.357 1.23-.947 2.58-.976-.91-1.074.84-1.45-.13-3.661-1.44.289-2.06 1.058-2.97 1.651v-.002zm-32.38 10.667c.53 1.429.74 3.614 1.13 4.244 2.45.158 4.39-2.347 6.15-2.501.23.802-1.26.615-1.04 1.416 2.13.066 5.05-1.238 7.5-1.724.41-.912-1.28-2.211.08-2.866.56.683.2 1.415.71 2.653 4.52-1.131 9.06-2.243 10.91-4.912-.08.838-.09 1.375 1.08.847.62-.917-1.29-.254-.62-1.255 2.71.186 4.55-1.98 6.61-2.908l-.78-2.918c-9.41 4.822-19.62 7.686-31.74 9.926l.01-.002zm-15.26 7.781c-.5-.811-.18-3.042-1.31-2.775-.15.652.08 3.313 1.31 2.775zm42.52-9.971c.94 5.448 2.03 10.82 4.07 16.249 2.48-.605 5.8-2.61 7.65-4.324-2.32-.209-4.22.337-5.75-1.303-3-3.223-2.26-10.691 1.07-11.94 1.65-.618 2.88.683 5.32-.289-.64-1.639-.74-3.13-1.42-5.305-3.25 2.533-7.92 4.242-10.93 6.916l-.01-.004zm-41 16.672c-.09-1.339-.57-2.677-1.09-5.11l-1.06.284c.66 1.703.64 4.591 2.15 4.828v-.002zm35.72-14.12c.09 1.39.57 1.927.65 3.519 1.86-.738 2.7-.789 4.37-1.738-.44-1.18-.51-2.992-1.26-3.642-1.46.508-2.65 1.163-3.77 1.864l.01-.003zm-34.65 14.967c1.56.028 2.5 1.102 4.41.526-.36-1.623-1.17-3.515-1.02-4.845-1.6-.208-3.04-.685-4.74-.72l1.35 5.042v-.003zm79.87-6.333c3.59.14 8.18 1.391 11.39.075 2.31-.945 4.48-6.022 1.32-8.88-1.3-1.174-6.95-1.23-9.75-1.369-12.47-.616-24.58-1.206-36.04-.86-1.64 1.787-2.08 5.311-1 7.942 1.63.028 3.87-1.008 4.48.791-1.33.75-3.42-.888-3.79.729 10.49 1.239 22.16 1.141 33.4 1.578l-.01-.006zm-75.88 2.138c.57 1.652.95 4.207 1.35 5.039 9.9.486 21.11-1.823 31.21-5.519-.84-2.013-.99-2.844-1.35-5.04-9.9 3.213-21.53 5.463-31.21 5.517v.003zm31.94-5.998c-.08 2.123.95 3.253 1.15 5.376 1.41-.606 3.13-1.032 4.37-1.739-.83-1.325-.47-3.601-1.62-4.968-1.55.465-3.01 1.095-3.91 1.334l.01-.003zm-29.85 39.267c1.09-.791-.94-3.383-.34-4.456.91-.412.44 1.581 1.42 1.042.87-.694 2.27-1.084 3.23-1.72-1.71-6.426-2.48-9.716-3.64-14.658-1.49.646-3.2.04-4.24 1.137 1.03 2.855 1.86 5.803 2.36 9.885-2.03-4.143-3.67-14.115-5.52-19.556-.34.076-.46-.242-.86-.052 3.09 10.245 4.53 20.246 7.6 28.38l-.01-.002zm-3.59-19.788c1-.852 2.28-.165 3.78-.73-.48-1.381-1.46.481-1.94-.899-.05-.624 1.27-.458 1.78-.763-.34-1.542-1.1-3.329-.94-4.58-1.65-.253-3.06-.915-5.01-.649 1.15 2.301 1.4 5.78 2.32 7.633l.01-.012zm26.26 13.148c-.03-.219.66-1.039.72-.478-.52 1.863-2.81 2.708-3.65 4.39.76.237 2-.365 2.21.829.02 1.004-2.08 1.662-3.04 1.383-.26-.808.22-1.667-.57-2.122-.73.182-3 1.198-3.02 2.515.77.815 1.81-1.248 2.26-.038-.56 1.147-3.05 1.879-3.85.465-1.17.596-2.89.872-3.5 1.79.63.192 1.45.062 1.68.971-.41.977-3.19 1.731-3.79.729-.07-1.924.85-2.278 2.62-2.975 4.75-1.868 9.12-6.043 12.03-9.193-.81-.813-1.03-1.33-.3-2.193-7.57 2.207-16.62 5.499-21.14 10.212-.02 2.493 1.83 1.746 2.32 3.358-.8.356-1.19-.301-1.59.427.7 2.66 4.41 2.87 7.04 2.945 6.82.194 14.44-1.602 21.39-2.89.05-.425-.67-1.288-.09-1.398 2.45-1.508 4.56 1.285 6.44-1.439.39-.031.46.5.74.653 5.97-2.008 12.87-5.017 16.97-8.81-.71-1.348-.73-2.167-.99-3.714-.53-.642-1.73-.121-2.02-1.164.35-.471.7-.941 1.71-1.029.59.022.44 1.321 1.35.777.47-1.414-.21-8.612-2.95-8.875-.45 1.586 2 4.855.77 6.048-.3-.78-.26-2.142-1.1-1.98-.57 1.116-2.09.558-2.77 1.312.71 2.258 4.06-.052 4.83 2.117-1.94-.465-2.95.802-3.91 1.331.51 1.806 2.02 4.881 1.17 6.508-1.51.359-2.88.421-2.62-1.289.81-.284 1.43-.67 1.98-1.099-.59-1.499-.49-1.929-.99-3.713-.54-.482-1.56-.145-1.95-.9-.26-.676.98-.484.52-1.274-1.04-.36-2.22.68-3.65 1.26-.63-.372-.2-.658-.35-1.326-2.25.01-5.11 1.085-7.18.787-.61.8 1.23 1.713-.3 2.07-.28-1.554-.92-1.912-.85-3.182-1.07.304-2.79 1.714-3.66.127.01-.592.27-1.04.78-1.344.46.235.39 1.395 1.34.776.04-.944-.2-1.016 1.04-1.416l-.99-3.713c-3.96.813-6.89 4.497-9.92 4.362.2-1.154 1.99-1.391 3.16-1.984l-.85-3.183c-2.06.057-5.4 3.33-7.55 2.592.3-.95 1.75-1.233 2.97-1.649-.22-1.851 2.9-2.749 4.03-1.932.04-2.537-1.42-5.178-1.72-7.497-7.64.906-16.68 3.612-24.26 2.805.01 2.068 1.4 4.697 1.63 6.1 3.92-.836 7.94-3.896 10.26-4.168-2.16 2.416-6.19 3.751-10.31 5.035 1.4 3.908 2.08 8.441 3.77 14.057 6.36-2.391 11.5-7.839 17.49-8.952-3.28 2.962-8.84 4.608-12.19 7.531 5.98-2.72 12.24-3.9 18.14-6.566 1.43.686 2.7-.755 3.61.739-2.3 1.62-5.62 1.505-7.5 1.724.16 1.012 1.26.406 1.29 1.644-1.03.9-3.8 1.983-3.14 3.118v-.002zm8.68-25.925l1.21 4.509c.48-.051 1.12-1.102 1.59-.427.16.839-.72 1.08-1.31 1.487l.86 3.184c2.03-.672 3.67-1.592 5.71-.962-1.65 2.025-4.52.458-5.55 2.624.79 1.22 3.82-1.446 4.33.26-.96.843-2.47.778-3.71.995.97 2.245.44 4.689 1.7 6.365 3.45-1.827 7.76-.18 11.97-.933-.43-2.187-1.08-4.415-1.63-6.1-.93.585-1.42 1.421-2.3 2.037-.12 1.113 1.2-.266 1.08.847-.43.273-1.06.431-1.18.886 1.03.124 1.5-1.199 2.12-.569-.63 2.165-4.5 1.114-5.37 1.156.11-.53 1.05-.753.24-1.203-1.25.662-3.41 2.059-4.38.607-.23-.877.48-1.216 1.3-1.487.2.485-.14.665.02 1.131 3.59-.585 4.34-2.696 7.14-3.05-1.1-1.708-4.58.7-5.48-1.373 2.51-.805 4.68.885 6.72-.379.06-1.781-1.35-1.026-1.7-2.103 1.94-1.261-1.6-4.333.17-5.731l1.42 5.305c4.43 1.121 2.21-4.834 1.2-8.279-3.33.962-5.64 3.913-9.51 4.822-1.53-.462-1.94-2.864-2.48-5.021-2.22.491-2.17.922-4.17 1.411l-.01-.009zm-6.75 2.377l1.92 7.161c2.2-1.045 3.43-2.653 5.53-3.757-.62-1.926-.91-3.662-1.15-5.375-2.37.609-5.07 1.362-6.3 1.973v-.002zm23.79-3.528c.95 2.458 1.15 5.325 1.72 7.497.36 1.372.8 3.934 2.46 3.888.18-2.825-2.57-8.444-2.66-12.077-.56-.079-1.09-.183-1.74-.104 0 .405-.2.529.22.791v.005zm-16.83 9.343c-2 .076-4.41 1.556-4.8 3.278.41.492 1.51-1.016 2.19-.303.4 1.127-1.47.942-1.84 1.629.08.517.46.505.55.99 1.77-1.147 4.56-1.701 5.67-3.226-.6-.94-1.45.787-2.07-.298-.01-.981 1.69-.967 1.77-1.894-.55-.732-.94-1.275-1.47-.175v-.001zm15.69 2.331c.59 1.041.42 3.712 1.54 4.703.4-.991.85-1.744 2.44-1.506.34-.628-.28-1.803-.45-2.723-.72-.293-1.93.249-2.6-.157l-.21-.795c1.07-.429 1.38.462 2.53-.108l-.5-1.857c-1.58-.06-1.94 1.466-2.76 2.455l.01-.012zm9.95-2.1c-.72.055-2.2-.556-2.53.109.84-.247 2.13.688 2.53-.11v.001zm15.6.943c-4.9-.704-10.29-.553-15.33-1.009.19 1.095 1.64.001 1.75 1.237-1.93.498-3.08-.352-4.86-.119.17 1.749 2.08 1.006 3.15 1.147 4.32.571 8.91.839 13.67 1.169 3.35.232 6.9.849 9.58-.294-3.91-1.245-9.03-.404-12.95-1.648 1.15-1.05 3.94.436 5-.483h-.01zm-17.5 4.689c.91.367 2.78-.935 3.01.616.46 1.312-2.27.786-2.04 1.966.31 1.273 2.68-1.006 2.55 1.022.07 1.086-2.62.577-2.03 1.966.55.983 2.65-.709 2.81.952-.32.857-2.98.369-2.36 1.771 1.06.36 2.95-.71 3.34.81-.76 1.21-3 1.303-4.24 1.136.06 2.728-5.4 3.46-5.37 5.419 7.6-4.175 16.76-9.922 24.79-14.602 1.11-.646 2.82-.597 3.09-2.25-7.47.416-15.72-.917-23.78-.733-.28.445.04 1.226.23 1.934v-.007zm22.1-4.505c-.97.228-2.38-.776-3.06.251.99-.271 2.58.419 3.06-.252v.001zm-76.09 21.53c.27-.823 2.86-1.476 1.96-2.231-.36.767-3.57 1.065-1.96 2.228v.003zm80.24-19.799c-.59 2.736-3.63 4.006-5.7 5.224-14.36 8.464-28.63 16.069-42.15 24.086-6.86 4.063-13.41 8.491-20.18 11.661-5.84 2.733-12.31 1.738-17.63 1.029-8.96-1.193-18.4-2.718-26.91-3.877 6.15 2.658 13.91 3.1 20.98 4.043 7.21.961 15.87 3.098 23.04.079 6.31-2.651 12.12-7.063 18.21-10.562 6.05-3.484 12.1-7.026 18.34-10.033-1.33 3.342-7.16 4.085-9.54 6.821.35 1.381 2.41 4.534.89 5.447-.82-1.561-.48-5.128-2.22-5.092-.18 2.446.73 5.619 1.41 8.435.48 1.965 2.03 4.115.89 5.447-.99-3.458-2.28-8.707-3.48-12.996-7.94 3.65-15.87 10.102-23.08 13.575-9.94 4.787-19.21-.442-28.77-.249.56 3.461 2.87 7.934 2.31 10.751-1.7-3.13-2.08-8.602-3.18-10.804-6.47-1.092-13.18-1.75-19.17-3.674 1.69 4.379 1.69 12.886 5.27 16.496-1.15-4.999-3.2-10.514-3.79-15.189 2.86 4.681 2.92 12.013 5.01 16.567 3.36.522 6.59 1.261 10.27 1.226-.13-.823-.84-1.983-.03-2.264 1.11.649-.15 3.266 1.84 2.634.09-3.594-2.5-7.869-1.57-10.098 1.78 2.732.84 8.264 3.64 10.396-.3-4.357-2.43-9.771-2.97-14.27 2.24 3.92 2.8 9.582 3.83 14.322 6.87.921 13.67 1.96 20.82 2.381.43-.499-.58-1.829.3-2.07.72.776.3 1.284.64 2.387.97-.13 1.69.18 2.79-.18-.23-4.694-3.64-11.223-3.32-15.596 2.09 4.514 2.79 11.309 4.45 15.577l1.86-.497c-.14-2.075-1.9-4.189-1.16-5.376 1.38.535 1.31 3.608 1.62 4.968 8.46-2.591 14.43-8.555 22.3-12.23-.03-.764-.9-2.014-.37-2.457.79.06.34 2.262 1.36 1.909-.38-4.211-1.79-6.743-1.97-10.557 1.68 1.309 1.22 8.063 3.42 9.6-.22-3.541-2.59-8.727-2.4-12.148 1.69 2.476 2.11 9.239 3.39 11.599 9.42-5.398 18.48-11.002 28.03-16.322-.22-1.173-1.05-2.698-.32-3.325.87.166.31 2.83 1.5 2.438.69-3.626-3.08-9.623-1.72-11.759.8 2.544 2.1 8.336 2.91 10.874 5.08-2.892 9.87-5.957 14.63-9.038.3-.547-2.33-3.389-.53-4.12.64.034-.16 2.559 1.17 2.245-.59-3.647-1.2-9.101-3.7-13.792-.31 1.879 2.63 7.06 1.29 9.036-.75-2.894-1.75-5.939-2.01-8.558-4.17 1.926-7.67 4.241-11.35 6.452.49 2.523 1.87 5.562 1.8 7.762-2.13-1.394-1.14-6.981-3.05-7.142-1.48.907.11 2.389.39 3.591.84 3.567 1.91 8.197 2.52 11.546-2.35-4.63-2.08-8.633-4.36-14.18-4.21 1.843-9.62 5.89-13.86 7.693.48-2.386 3.47-3.455 5.32-4.552 7.48-4.436 16.32-9.022 22.89-13.239.8-2.551-1.36-4.275-3.6-3.869.48 1.324 2.33.329 2.73 1.832l.03-.014zm-111.19 36.901c2.16.663 4.46 1.071 6.88 1.284-.05-1.347 3.41-2.112 3.79-.73-.09.623-1.01.764-.71 1.61 1.83.145 3.49-2.844 5.38-1.156.08.798-.98.933-.98 1.682 2.33.742 3.18-2.596 5.64-1.227.7 1.073-.71.934-.36 1.804 1.33.159 3.49-3.313 5.1-1.084.26.897-1.25.771-.97 1.681 2.37.935 4.4-2.97 6.12-.502.03.539-.97.484-.51 1.273 1.36-.259 5.97-3.416 4.94.383 2.13-.306 4.22-2.598 6.31-.838.12-.462.41-.033.99-.55-.02-.87-.87-.314-.89-1.184.47-.849 1.45-1.404 2.97-1.648.96.164.26 1.401 1.15 1.113 1.07-.278 2.03-.624 2.17-1.435-.79.344-1-.339-1.15-1.112 1.4-1.419 2.86-.907 4.19-.271.62-.468 1.74-.644 1.91-1.364-.79.211-1.24-.178-1.61-.705.48-.991 3.44-2.542 3.86-.464 1.15-.754 3.01-1.102 3.69-2.127-.71-.191-1.97.567-2.14-.563-.16-1.422 2.62-2.102 3.38-1.189.28.758-.8 1.269.35 1.326.53-.966 2.37-1.173 2.83-2.179-.53-.121-1.42.39-1.54-.44-.07-1.624 3.07-2.743 3.52-.658 1.06-.134 1.17-.821 2.31-.905.54-.968-1.05-.455-1.02-1.715.78-1.198 3.25-1.438 3.92-.199.82-.65 2.49-.806 2.64-1.843-3.59-.641-8.86 2.616-13.6 3.359.49 1.479-1.65 1.437-2.9 1.913-.25-.475-.88-.276-.88-1.184-5.39 1.323-10.33.582-15.21 2.654-.25-.475-.75-.514-.88-1.184l-3.45.923c-1.02-3.071-3.73.802-5.22-1.444-.27-.677.97-.484.51-1.274-2.19-1.417-1.24-4.117-3.03-6.01-8.03 5.149-19.05 10.086-27.5 16.185v-.006zm29.4-14.415c.25.591.5 1.197 1.34.777l-.35-1.327c-.47.107-.81.284-.99.552v-.002zm-30.97 15.972c-5.13-2.981 2.74-5.298 4.8-7.54-3.47.662-13.34 7.121-4.8 7.538v.002zm85.22-28.807c.38 1.025.44 2.606 1.12 3.112 1.5-.13.62-3.434-.39-3.591.04.32-.35.398-.73.476v.003zm-52.27 15.997c.38-.65-.16-1.698-1.15-1.113.1.871.62.999 1.15 1.114v-.001zm-29.82 8.559c1.46-.876 3.38-1.483 4.08-2.799-1.77.699-3.55 1.39-4.08 2.797v.002zm-35.57 11.521c10.26 1.126 20.11 2.955 30.56 3.75-2.12-1.575-4.92-1.067-7.48-1.407-7.53-.999-15.63-2.343-23.1-3.475l-.8.213c.01.781.68.4.82.923v-.004zm108.34-24.195c1 .193 3.09-.901 3.5-1.791-.6-.077-3.22.472-3.5 1.793v-.002zm41.73-1.236c-4.4 3.811-11.23 6.219-15.48 10.117-18.75 9.8-36.72 21.992-55.86 32.308-.78-.973-1.79.059-2.53.109-10.45.702-19.92-3.411-29.68-2.565-3.07-2.052-8.05-.804-11.43-2.34 2.38 2.706 6.4 2.016 9.77 2.5 6.97 1.003 13.82 1.819 20.89 2.647 5.35.627 9.48 1.822 15.77-.531 5.99-2.243 11.88-6.947 17.67-10.421 14.7-8.811 29.81-17.042 43.65-25.908 2.75-1.762 6.33-3.037 7.76-6.059-.16.05-.34.097-.52.145l-.01-.002z"/><path d="M1568.41 167.22c.29 1.747-3.37 2.241-3.98 1.066.03-1.16 3.37-2.241 3.98-1.065v-.001zm-27.76 4.599c.69.525.77-1.183 1.64-1.293.01.679-.05 1.313.31 2.193.87-.17.99-.769 2.05-.833.38.672-.39.675-.25 1.203 1.01-.036 1.12-.942 1.86-.498.48 1.708-3.26 2.231-3.72.995-.54.51-1.3.893-1.23 1.752 3.94 1.134.93 9.008-2.12 4.831.66-.668 1.68-1.121 3.04-1.383.58-.19-.19-1.155-.16-1.662-1.09-.446-2.98.511-3.61-.739-1.9 2.416-5.4 3.906-6.75 6.64-1.97.591-2.88.417-4.17 1.403.21.644.39 1.267.16 1.662-1.62.482-3.28 1.021-3.8-.402.48-.249.28-.887 1.19-.886.21.717-.3.652.28 1.06l1.32-.355c-.52-1.572 1.12-1.896 1.82-2.761-.45-1.205-1.68.934-2.53.108 1.07-1.522 4.98-2.617 6.79-4.376.57-.344.47-1.072 1.04-1.415l1.86-.498c.58.409.07.344.28 1.061 1.49-1.083 2.4-2.501 3.87-3.595-.14.291-.12.675.02 1.132 1.2-.278 1.18-1.264 1.77-1.895-.92-.219-2.26.283-2.94-.35-.15-1.014 1.42-1.879 2.1-1.7.12.291.07.476-.12.596v.005zm-9.7 9.418c1.06.013 2.87-1.275 3.36-2.32-1.05-.006-3.09 1.146-3.36 2.322v-.002zm20.17-4.269c.5.362.3 1.678 1.01.582.94 1.552-1.54 1.82-2.97 1.648-.1-1.187.56-1.921 1.96-2.235v.005zm-36.84 22.663c-.89.766-3.23 1.717-3.93.2.17-1.247 3.87-2.527 3.93-.198v-.002z"/></g><path fill-rule="evenodd" clip-rule="evenodd" d="M35.845 111.14c.21 1.993-.78 3.755-.97 5.671-.84.336-1.415-.273-1.708-1.05-.152-.431.974-5.767 2.678-4.621zm11.485-3.753c-.771 1.845-3.354 2.524-4.944 3.948a14.272 14.272 0 00-2.958 4.207c-.233.994.265 2.142-.85 2.897-4.048-1.557 1.45-7.947 5.922-10.809.892-.603 2.19-1.738 2.798-.291l.032.048zm28.166-19.659c.669-.453 1.71-1.761 2.39-.619.68 1.142-2.348 2.843-3.468 3.763-3.246 2.614-5.096 4.306-8.656 7.04-1.528 1.173-3.522 2.893-4.175 1.826-.652-1.068 1.741-2.06 2.723-2.84 3.814-3.045 7.328-6.328 11.218-9.191l-.032.021zm34.056-12.429c-2.888-2.69-6.179-2.646-9.817-1.16-.377-.557-.679-1.004-.33-1.38 2.106-1.795 5.579-1.637 7.957-.97 1.186.311 4.451 1.91 2.19 3.51zm-3.901 8.443c-.462 1.102-1.425.57-2.34 1.002-2.547 1.143-4.903 3.596-7.55 5.108-1.243.702-2.605 1.09-3.817 1.77-2.253 1.269-4.035 3.542-6.43 3.537-.948-1.402 2.58-3.394 4.992-4.77 1.106-.632 2.627-1.127 4.089-1.953 3.156-1.787 6.155-4.63 8.107-5.485.925-.417 2.715-.722 2.886.834l.063-.043zm-56.786 39.23c-.715-1.606 1.166-3.39 2.678-4.621 1.511-1.232 3.367-2.093 4.953-3.352 1.279-1.027 2.342-2.234 3.472-3.138a82.812 82.812 0 0111.643-7.087c1.68-.951 3.528-2.782 4.312-1.315.783 1.467-3.816 2.906-4.857 3.494a61.792 61.792 0 00-9.93 6.324c-1.29 1.012-2.322 2.197-3.616 3.236-1.724 1.398-3.713 2.302-5.097 3.448-1.384 1.145-1.894 3.138-3.558 3.011zm31.538-24.146c.13.469.439.237.59.599-.224 3.1-4.043-.074-.59-.599zm50.892-19.802c-2.039 1.379-3.133-1.92-4.898-1.887-1.763-.34-3.556-.52-5.345-.796a.909.909 0 00-.234-.654c.112-.076.058-.225.185-.31a8.575 8.575 0 0110.292 3.647zm-3.761 1.546c-1.065 1.857-4.113-.074-5.535-.46-.406-.119-3.673-.555-1.671-1.886.94-.636 2.552.34 3.685.71 1.566.497 2.67.516 3.457 1.678l.064-.043zm-93.107 56.581c.953 2.095.063 3.835.536 5.837-3.074.57-1.766-3.983-1.701-5.466a1.288 1.288 0 011.165-.371zm11.975.233c1.005 1.108.297 2.121.525 3.453a28.84 28.84 0 005.834 12.467c1.652 2.064 3.977 3.579 4.725 6.091-2.022 1.577-2.831-1.404-3.617-2.359-.785-.955-1.7-1.519-2.405-2.389-4.023-4.917-6.606-12.132-6.184-16.828a1.291 1.291 0 011.155-.387l-.033-.048zm73.779-49.634c.497-1.497 5.858 1.795 7.091 2.795a21.61 21.61 0 016.051 9.836c.387 1.224 1.051 3.167.398 3.539-1.658.982-2.789-5.357-3.216-6.229a18.255 18.255 0 00-7.247-7.727c-.364-.195-3.67-.722-3.12-2.278l.043.064z" fill="#fff"/><path fill-rule="evenodd" clip-rule="evenodd" d="M65.829 135.316a40.384 40.384 0 00-4.382 18.404c3.191 1.045 7.647 2.071 11.398-1.512a32.103 32.103 0 002.775-4.478 12.5 12.5 0 00-7.176-12.976c-.889.3-1.705.225-2.615.562zm-8.116 16.728a74.386 74.386 0 014.11-16.711c-8.436 2.596-9.986 10.633-4.11 16.711zm-2.855-16.643a23.334 23.334 0 016.613-3.266c1.012-.22 1.932.179 3.078.123 1.792-.097 3.204-1.03 4.464-.814a17.589 17.589 0 016.37 4.095 13.943 13.943 0 01.044 19.009 13.717 13.717 0 01-7.155 3.633 19.769 19.769 0 01-12.717-3.423 14.27 14.27 0 01-4.664-9.846 12.494 12.494 0 013.967-9.511zm60.131-25.124c.363.776.855.885 1.295 1.33 2.056-.393 10.999-5.259 8.493-7.557-2.877.484-8.608 3.2-9.74 6.195l-.048.032zm-.947-4.351c3.876-3.365 13.302-9.44 14.804-1.215.654 3.643-3.982 5.92-6.764 7.779a14.31 14.31 0 01-5.304 2.799c-3.081.181-5.966-4.392-5.028-6.814a6.614 6.614 0 012.292-2.549zm-20.547 18.498c-1.43.61-2.78 1.391-4.022 2.326-.422.68.33 2.099 1.216 2.381a92.399 92.399 0 008.465-5.54c1.098-.883 2.625-2.125 2.355-3.382-2.67-.515-5.076 2.552-7.982 4.193l-.032.022zm-6.617.274c2.038-1.379 7.978-5.606 11.076-7.308a7.903 7.903 0 014.041-1.131 6.715 6.715 0 013.165 3.477c.647 1.884-1.272 4.366-3.457 6.147-1.857 1.511-4.698 2.528-6.18 4.181-.561.611-.533 1.683-.947 2.033-1.983 1.667-4.885.054-6.569-.548-2.093-2.647-2.695-4.979-1.065-6.894l-.064.043zm52.864-34.974a26.502 26.502 0 016.713 12.291c.552 1.948 1.175 4.173 1.54 6.155.366 1.981 1.012 4.377-.779 5.333-1.081-1.219-.751-2.928-.947-4.351a39.757 39.757 0 00-4.458-14.002 32.621 32.621 0 01-2.761-4.355c-.462-.477.257-.754.692-1.071zm-97.689 66.693c3.523 5.208 9.018 12.472 13.764 14.718 1.054.494 2.41-.145 3.08 1.12-.136 1.137-2.329 1.088-3.356.668-2.625-1.033-9.208-7.468-12.29-11.304-1.205-1.506-3.655-4.818-1.198-5.202zM149.03 97.858a22.054 22.054 0 011.701 5.466c.327.963 1.427 1.937.629 2.988a.907.907 0 00-.655.233 15.865 15.865 0 01-2.854-8.68c.239-.16.395-.034.628-.238.233-.204.259.382.551.23zm-12.486 9.654c.981.591 1.347 1.991.108 2.528-1.162-.003-1.792-2.41-.108-2.528zm-90.211 61.239c1.116 1.102 3.732 3.047 3.85 4.801-1.864.983-3.65-1.965-4.526-3.74-.323-.478.23-.759.676-1.061zm13.154-6.09c-3.132-1.782 2.725-2.493 0 0zm13.239 19.88c-1.934.264-2.608-2.345-3.7-3.719a16.79 16.79 0 00-3.099-3.105c-1.425-.939-2.635-.121-3.664-1.538 1.652-2.672 5.813.596 8.308 3.667 1.205 1.506 2.792 3.405 2.187 4.743l-.032-.048zm10.109-22.673c1.808.75 1.808 3.049 2.204 4.732.78 3.349 1.261 6.738 2.09 10.194.368 1.539 1.598 3.563.343 4.969-1.534-.587-1.618-2.736-1.953-4.088-1.08-4.377-1.86-9.236-2.759-13.55-.27-.399-.603-.892-.6-1.196a.847.847 0 01.134-.695l.541-.366zm74.766-26.551c-.991-1.465.165-2.433.257-3.772a7.996 7.996 0 00-3.128-6.683c-.901-.714-3.037-1.057-2.86-2.477.341-.045.166-.716.542-.366 5.236-.223 10.084 11.473 5.189 13.298zm4.459-8.821c.577 1.745.861 3.434-.805 4.747-1.935-.665-.15-3.242-.39-4.729.273.025.596-.217.869-.192.272.025.161.239.326.174zm-.953 16.061c1.018.681.395 1.613.572 2.631a25.587 25.587 0 004.106 8.436c.571.844 2.009 1.357 1.313 2.525-1.984.808-2.852-2.088-3.899-3.979-1.917-3.486-3.644-5.661-3.238-8.629a1.348 1.348 0 011.146-.984zm-61.644 81.777c-2.778-3.763-4.532-9.1-7.793-13.302a25.427 25.427 0 00-4.592-4.695c-1.913-1.421-4.798-2.117-5.404-4.145a.46.46 0 01-.01-.597c1.007-1.052 1.276.066 2.45.944a50.626 50.626 0 016.242 4.181c4.156 4.154 6.909 10.487 8.741 14.123.665 1.292 2.323 2.678.398 3.539l-.032-.048zm71.233-59.916c2.103.156 7.612 5.623 5.244 8.061a.841.841 0 00-.694-.134c-.489-2.85-3.063-5.009-5.195-7.096.233-.274.145-.609.634-.847l.011.016zm-66.187 78.325a15.369 15.369 0 003.385 11.525c.564.662 1.6.89 1.757 2.014-1.965 2.003-5.283-3.553-6.391-6.495-1.108-2.942-.899-7.541-.159-8.506 1.539-1.947 3.253.655 1.364 1.399l.044.063zm-4.499 3.439a14.78 14.78 0 001.209 6.798c.449.903 1.891 1.902.986 2.932-1.38.26-2.138-1.41-2.652-2.409a25.53 25.53 0 01-1.51-6.385c.171-.742 1.345-1.444 1.967-.936zm91.154-60.67c.131-1.899 2.62-.657 4.141.218a17.13 17.13 0 017.26 7.3c.449.904.695 2.571.164 2.884-1.354.916-1.305-1.276-1.814-2.372-2.375-5.056-6.757-6.247-9.671-8.084l-.08.054zm6.642.035c-.315-3.897 6.901 2.993 5.03 4.003-1.429.804-3.37-3.78-5.03-4.003zm-27.134 24.857c1.304 1.928.002 4.086-.189 5.933-.1.95-.156 2.102-.202 3.132-.047 1.029.533 2.402-.85 2.896-1.528-.405-.974-2.057-.842-3.029.312-2.695.463-5.63.989-8.284-.108-.159.206-.279.104-.465.376-.371.655-.164.995-.279l-.005.096zm25.41-13.196c.908.964-.077 1.979-.296 2.823-.354 1.261-.027 3.014-1.268 4.062a.815.815 0 00-.694-.134c-.774-2.379.589-4.345 1.017-6.492a1.112 1.112 0 011.241-.259z" fill="#fff"/><path fill-rule="evenodd" clip-rule="evenodd" d="M197.44 196.494c-2.802-5.069-5.5-6.379-9.703-4.046-5.85 3.261-11.483 7.769-17.886 11.311-6.403 3.543-12.112 7.219-18.264 10.754-11.141 6.354-18.173 12.295-26.993 17.24-4.697 2.667-11.389 7.705-11.884 10.85-.516 2.67 2.991 6.241 4.79 7.973.881-2.129.608-5.45 1.434-7.936 1.938-.567 1.521 2.454 1.343 3.735a21.817 21.817 0 00-.796 5.345c1.933.248 1.724-2.119 2.1-3.417.375-1.299.752-2.32.98-3.287.612-2.527.33-4.867 1.385-6.533 2.141 1.106.795 3.99.408 5.923-.217 1.052-.347 2.232-.623 3.231-.276 1-1.154 2.104-.515 2.671a15.753 15.753 0 003.853-2.027c.284-2.05.9-4.022 1.281-6.067a19.846 19.846 0 011.441-6.176c.366-.017.726.091 1.021.308.217 3.753-1.033 7.293-1.638 10.929l2.341-1.584c.428-3.006 1.56-6 1.961-8.942.143-.955-.31-2.483 1.031-2.903.097.143.219.084.326.174.918 1.562.281 3.572-.044 5.254-.324 1.682-.914 3.66-1.142 5.416l4.253-2.877c-.499-.498-.171-.836-.473-1.282.938-3.282.754-6.779 1.815-10.051 1.742-.203 1.248 1.64 1.139 2.852a48.736 48.736 0 00-.893 7.569 9.262 9.262 0 002.157-1.274c1.083-4.679 1.274-9.545 2.613-14.189 1.779-.321 1.157 2.19 1.036 3.316-.346 3.16-1.36 6.98-1.467 9.397l3.027-2.047c1.218-4.307 1.289-8.836 2.759-13.081 2.107.06.85 4.208.489 6.077-.185 1.031-.269 2.039-.386 2.861-.117.823-1.021 1.922-.346 2.44l3.186-2.155c1.163-4.595.965-9.452 2.342-14.006.319-.037.641.03.919.191.765 4.289-1.087 8.072-.984 12.274l3.711-2.51c.204-2.274 1.031-5.341 1.291-7.839.112-1.515-.69-4.177 1.699-4.353 1.028.697-.026 1.712-.165 2.433-.139.721.28 1.204.242 1.833a45.341 45.341 0 00-.874 6.396l3.695-2.5c-.313-.462-1.106-.227-1.014-.916-.19-2.82 1.262-5.683 1.062-8.519-.07-.859-1.078-1.593-.108-2.528 2.573.372 1.764 3.706 1.467 5.601-.115 1.03-.327 2.125-.48 3.134-.153 1.009-.677 2.432-.179 2.722l7.152-4.838c.072-.374-.331-.868-.232-1.236.418-1.799.737-3.619.955-5.452.259-1.848-.102-3.994 1.249-5.257 1.655.181.756 3.691.553 5.244-.306 2.019-.966 3.788-.295 5.192l2.883-1.95c-.334-.494-.649-.513-.744-1.099.005-1.606.502-3.823.675-5.867.138-1.649-.558-5.148 1.953-4.525-.007 3.627-.693 7.109-.754 10.726l3.027-2.048c.035-1.835.649-4.084.73-6.298.074-1.676-.532-5.421 1.904-5.491.35 3.571-.636 6.885-.58 10.399a16.652 16.652 0 012.582-1.537 49.708 49.708 0 01.255-8.787c.021-.896-.341-2.323.904-2.816.129.191.374.072.551.23.995 3.669-.514 6.826.049 10.369l1.592-1.078c.088-2.753.37-5.288.602-7.999.078-1.121-.393-2.845.925-3.644.14.207.384.088.567.22.834 3.43-.233 6.52-.222 9.762 2.763-3.053 6.579-5.89 6.154-9.573l-.175.188zm-19.411-1.889c.504-.457 1.595-.8 1.714-1.345-.875.011-2.058.184-1.714 1.345zm-2.74 1.853c.817-.715.405-1.667.667-2.447a3.462 3.462 0 00-.667 2.447zm-3.567 2.414c2.409-1.073 1.485-2.816 1.907-4.285-2.607.161-1.849 2.62-1.907 4.285zm-2.985 1.834c.366-.248.796-.539 1.058-.53-.23-1.54.342-2.926.161-4.498-1.593 1.078-1.076 3.352-1.235 5.038l.016-.01zm-48.434 29.956l3.473-2.349c-.387-.365.144-1.537-.601-1.196-.503 1.247-2.267 2.277-2.84 3.524l-.032.021zm4.846-5.878c.204.953-.126 1.804.291 2.798l1.099-.743a15.711 15.711 0 01-.531-2.845c-.43.291-.306.578-.859.79zm40.194-21.991l2.341-1.584c-1.716-1.439-.118-3.194-.4-4.745-.792.374-1.523.427-2.294.763 1.369 2.023-.001 3.669.353 5.566zm-3.369 1.884c.726-.677 2.041-1.102 2.341-1.584-2.114-1.17.377-3.389-.91-5.189-.605.41-1.091.274-1.786.791.504 1.981-.499 4.377.275 6.036l.08-.054zm-34.622 17.804c.386 1.08.611 2.21.668 3.356l1.243-.841c-.366-1.262.081-3.003-.678-3.953a7.466 7.466 0 01-1.313 1.492l.08-.054zm31.459-16.268l1.226-.83c-.36-2.077.155-3.958-.035-5.989a4.267 4.267 0 00-2.11 1.033c1.081 2.078.533 3.842.919 5.786zm-28.625 13.353c.417 1.42.632 2.893.638 4.374.678-.575 1.95-1.064 2.244-1.727-.946-1.055-.35-2.851-1.09-4.254a6.924 6.924 0 01-1.872 1.66l.08-.053zm4.428 1.81l1.513-1.024c-.433-1.704-.315-3.315-.813-5.046l-1.783 1.207c.934 1.69.384 3.177 1.083 4.863zm22.684-14.139c-.815-2.235.036-4.134-1.153-6.441l-1.37.927c1.822 2.041 1.739 4.698 2.523 5.514zm-20.521 6.662c.43 1.761.76 3.545.991 5.343.599-.521 1.711-.902 1.973-1.544-1.096-1.278-.288-3.241-1.324-4.909l-1.64 1.11zm6.117-.121a28.606 28.606 0 0010.013-4.453c1.034-1.628.626-3.535-.823-5.642a79.855 79.855 0 01-10.902 6.981 14.9 14.9 0 001.679 3.066l.033.048zm15.005-26.45c.466 4.327-1.384 8.25-2.963 12.197 4.26-1.768 9.102-3.465 12.988-5.374 4.263-.563 8.891-2.37 13.224-2.933-3.542-6.264-8.487-13.436-12.052-19.29 1.54 6.156-3.953 10.94-11.197 15.4zm7.945-15.196a4.387 4.387 0 00-4.678-2.454 22.244 22.244 0 00-6.392 5.927 55.944 55.944 0 012.487 8.138c4.647-2.912 10.425-7.448 8.583-11.611zM149.63 197.31c-1.42 1.332-3.117 3.594-4.452 2.617.178-2.14 2.756-3.374 4.441-5.001a25.362 25.362 0 004.147-5.127c.301-.482.446-.302.956-.647-.606-1.238.119-2.844-.708-3.723a36.681 36.681 0 01-4.7 6.987c-.772.986-3.795 5.098-4.847 4.091-1.256-1.239 2.926-4.185 3.561-5.032 1.724-2.188 3.161-4.971 4.604-6.922.576-.692 1.191.354 1.379-.33-.731-1.525-.659-3.547-1.595-4.725a77.585 77.585 0 01-7.274 11.143c-.788.928-2.187 3.082-3.577 1.817a10.994 10.994 0 012.456-3.473 63.463 63.463 0 007.101-10.817 1.44 1.44 0 01.925-.417 10.485 10.485 0 00-1.313-2.524 46.182 46.182 0 01-6.973 10.73c-.82 1.019-1.747 2.807-3.145 2.731-.799-1.456.786-2.854 1.58-3.878 3.094-3.834 6.141-7.428 7.331-11.367l-.647-.956c-3.977 7.334-14.894 16.043-25.531 22.078-4.383 2.478-8.339 5.177-12.453 5.616.614.908 1.344.855 1.885 1.929a28.85 28.85 0 0010.008-3.567c.766-.379 1.537-1.504 2.391-.619.344 1.23-1.251 1.96-2.276 2.538a39.097 39.097 0 01-8.032 3.228c2.45 2.661 4.315 1.539 8.006-.006 1.414-.586 5.017-2.536 5.73-1.277.712 1.26-1.889 1.533-2.612 1.768-2.193.74-4.439 2.121-6.366 2.704.792.486 1.555 1.27 2.403 1.184a36.15 36.15 0 004.368-1.539c2.625-1.405 5.249-4.527 6.105-1.924-2.295 1.343-5.926 4.008-8.438 4.687.981.457 2.07.629 3.145.496 2.023-.441 4.077-3.548 5.956-2.452.338.979-1.258 1.572-2.234 2.325a28.862 28.862 0 0010.011-2.361c1.317-.729 2.685-2.003 4.252-2.877a21.388 21.388 0 003.751-2.143 18.066 18.066 0 004.632-9.147 53.727 53.727 0 01-3.924 4.256l-.027-.074zm-38.786-6.404c-1.429 1.663-4.005 4.102-2.389 5.633 1.616 1.53 8.446-1.93 10.502-3.112a115.779 115.779 0 0015.723-10.219 71.41 71.41 0 006.759-6.894c1.795-1.911 5.552-5.521 3.709-7.524-.908-1.034-3.885-.39-5.295.169a69.548 69.548 0 00-9.923 5.924c.118.895-1.008 1.564-.954 2.433 2.817 3.202 3.096 6.704-.177 7.735-2.171.702-4.808-1.205-6.145-4.039a45.805 45.805 0 00-11.912 9.847l.102.047zm20.972-43.024c1.69 6.89.906 13.968 2.63 20.463 4.546-2.82 10.741-5.641 13.792-.926 1.888.046 3.273 2.847 4.77 4.992a24.23 24.23 0 017.005-5.946 9.618 9.618 0 016.252.97c-5.974-9.586-10.79-19.655-18.115-30.209a35.433 35.433 0 01-4.356 3.342c.879 3.05.262 5.604.527 8.466.086.986.249 2.153.427 3.31.179 1.156.972 2.5-.48 3.134-1.66-1.802-1.466-4.604-1.647-6.896-.18-2.292-.145-4.847-.165-7.109l-2.31 1.563c.9 4.452.553 9.98 1.247 13.992.162.959 1.027 1.998.108 2.527-1.29.873-1.871-2.216-1.95-2.883-.483-4.316-.346-8.472-1.061-12.516l-2.325 1.574c.909 4.33 1.153 8.808 1.651 13.114.153 1.221.876 3.216-.558 4.186-1.413-.716-1.041-2.569-1.199-3.832a110.31 110.31 0 00-1.687-12.79c-.972.658-1.809.759-2.652 1.4l.096.074zm-1.77 9.532a59.655 59.655 0 00.337 8.804c.188.895 1.39 2.054-.076 2.838-2.502-1.535-1.653-5.36-1.983-7.667-.571.734-1.388 1.38-1.948 2.131.216 1.177.358 2.52.564 3.82.206 1.3.916 2.863-.257 3.773a.778.778 0 01-.678-.145 29.136 29.136 0 01-1.286-6.328c-1.366 2.271 1.044 5.284-.514 7.545-2.247-.987-1.138-4.221-1.748-6.015l-3.026 2.048c.726 1.691-.027 3.083.63 4.774a1.522 1.522 0 011.833-.242c1.128 1.187 2.519 1.013 3.748 2.108.838-2.192 4.401-3.79 6.959-5.706-1.636-6.88-.453-13.229-2.661-20.233a5.77 5.77 0 00-2.494 1.083 44.257 44.257 0 012.718 7.449l-.118-.037zm-24.174-3.473c.231 1.748-.113 3.676 1.295 5.346 3.198 3.525 10.967-3.728 5.783-7.719a2.334 2.334 0 01-2.8-.707 14.02 14.02 0 00-4.437 3.188l.159-.108zm14.243-4.412c7.417-3.346 16.034-6.877 23.497-12.901 1.873-1.522 5.882-5.651 5.144-7.497-.456-1.154-2.159-1.51-3.54-1.389-3.236.262-7.943 2.913-11.243 5.586a443.02 443.02 0 00-18.468 15.907c.812 2.539 3.004 1.009 4.61.294zm13.778-24.9c.864 1.552.083 2.8.733 4.31a22.734 22.734 0 015.632-3.206l-2.511-3.711a25.938 25.938 0 00-3.94 2.48l.086.127zm-2.892 6.948a10.905 10.905 0 011.826-1.42c-.304-1.513-.132-2.906-.356-4.403-2.51 1.094-1.494 3.866-1.48 5.807l.01.016zm-3.486 2.568l1.592-1.077c-.123-1.728-.045-3.499-.088-5.141-2.89.841-2.09 4.014-1.568 6.261l.064-.043zm-4.392-2.647c.552 1.948.388 3.661.961 5.572 2.995-1.818.731-4.651 1.11-6.973l-2.071 1.401zm-1.61 7.915c1.569-.667.806-2.24.623-3.231-.182-.991-.358-2.521-.622-3.596l-3.185 2.155 3.168 4.683.016-.011zm-30.726 14.983c5.075 7.501 9.988 16.274 17.417 15.45 3.752-.426 11.848-5.206 15.915-8.77 3.197-2.79 2.128-6.223.062-9.654a42.524 42.524 0 00-6.055 2.889c.539 7.97-10.941 13.067-14.734 5.162-2.05-4.301-1.004-8.932 5.265-11.78 1.27-.558 2.347.037 3.677-.468a17.637 17.637 0 003.2-2.374c1.129-.904 2.071-2.121 3.488-3.149a53.794 53.794 0 01-3.592-5c-8.857 5.783-15.685 11.958-24.675 17.715l.032-.021zm-19.699 12.305l.194.286c5.469 7.329 9.418 13.921 15.142 21.216 4.363 5.453 8.028 11.866 11.982 17.711a305.855 305.855 0 0018.443 25.785c5.083-5.528 9.61-11.911 16.093-17.086.987-.668 2.503-1.345 2.905-2.569-4.048.881-8.9 1.773-13.514.135a30.613 30.613 0 01-7.274-4.506c-3.924-2.987-7.571-5.047-10.377-10.602-.719-1.44.285-4.418 1.113-5.768a37.142 37.142 0 017.546-8.099c1.947-1.55 4.157-2.813 6.036-4.084.398-.27 1.713-.625 1.313-1.492.114-1.238-1.28.03-1.612-.906a20.712 20.712 0 01-.928-4.016c-.142-1.273.034-2.832-.514-3.436-1.151 1.01-2.09.926-3.221 1.76.393 1.337.303 2.884.638 4.375.336 1.491 1.494 3.238.228 4.489-2.465-1.652-1.633-5.605-2.503-8.127a9.836 9.836 0 00-2.064.793c.501 1.564.631 3.473 1.007 5.332.375 1.859 1.436 4.113-.458 4.952-1.609-2.997-1.196-6.573-2.264-9.867a22.547 22.547 0 00-2.25.106c.413 1.784.707 3.594.879 5.418.167 1.722 1.264 3.789.17 5.295-2.409-1.296-1.598-4.421-1.934-6.702-.218-1.454-.984-2.724-.785-4.112-.955-.794-2.101-.738-3.091-1.136.192 1.518.507 3.186.918 4.788.411 1.603 1.395 3.468.176 4.687-1.173.051-1.269-1.463-1.487-2.198a24.722 24.722 0 01-.745-2.885c-.544-3.138.134-6.22-3.148-7.297.314 1.529.752 3.206 1.094 4.878.342 1.673 1.143 3.406.176 4.687-1.963-.877-1.784-3.598-2.252-5.697-.705-3.238-.445-6.664-3.698-8.898.707 2.006.83 4.384 1.453 6.61.623 2.225 2 4.637.882 6.623-1.434.042-1.517-1.899-1.72-2.852-.204-.954-.535-2.471-.852-3.627-1.366-4.903-1.018-10.084-4.968-14.447-.703 1.707.467 3.469.91 5.189.845 3.376 1.26 7.043 2.258 10.476.48 1.602 1.566 3.584.457 5.101-1.923-.302-1.433-2.769-1.826-4.174-1.4-5.159-2.546-10.351-3.87-15.191l-5.924 4.009c.913 4.026 2.334 8.358 3.124 12.304.227 1.194 1.022 2.884.053 3.957-1.595-.127-1.444-2.134-1.76-3.22a87.56 87.56 0 00-3.267-12.207c-.717.485-1.197.461-1.87 1.079a37.266 37.266 0 001.833 5.353c.604 1.751 1.945 3.699.905 5.216-1.382-.018-1.683-1.973-2.155-3.186-.815-2.165-1.487-4.497-2.235-6.289-1.274.862-2.26.949-3.49 1.944l.128.122zm67.711-60.319c-1.526-3.217-2.735-5.998-4.386-8.85-.621-1.09-1.379-2.04-2.037-3.011a30.874 30.874 0 00-1.353-2.892 18.692 18.692 0 00-8.23-5.646c-5.772-1.668-13 2.92-19.51 6.373a79.5 79.5 0 00-19.118 15.256c.04 2.085-2.906 3.358-5.406 5.05-4.635 3.136-8.406 4.735-12.465 7.04A151.574 151.574 0 0046.6 132.631a13.63 13.63 0 00-4.376 5.955c-1.091 6.658 8.781 19.227 14.216 25.441a5.387 5.387 0 007.17 1.743c.241-1.324-1.143-4.915 1.325-4.287.766 1.339.064 2.395.468 3.677.662-.564 1.202-.418 1.776-.806.936-1.121-.607-3.746.615-4.41 2.152-1.177 1.088 3.908 1.613 3.552.677-.063 1.593-1.078 2.25-1.103.359-1.219-.755-2.694.47-3.732.172.255.526-.217.694.134.884.517.364 1.704.705 2.518l2.198-1.487c-.293-1.497-.975-3.055-.12-4.33.368-.04.751-.16 1.062.094.675 1.238.106 2.25.755 3.483l2.054-1.39c.869-.912-1.459-5.073-.439-5.693 1.593-1.078 2.382 3.52 2.239 4.476l2.469-1.671c-.066-1.092-.154-2.217-.387-3.522-.233-1.306-.951-2.677.2-3.549 2.192.839 1.142 4.057 1.97 5.865l2.199-1.487c.069-2.369-2.622-7.514.33-7.816.087.127.22.084.311.184a41.399 41.399 0 001.015 6.511l2.039-1.379c.427-2.217-1.479-4.897.14-6.898a.85.85 0 01.694.134c.82 1.488.51 3.741.95 5.557l2.214-1.498a41.13 41.13 0 00-.406-4.717c-.171-.906-1.004-1.828.075-2.257 1.995-.792 1.888 5.433 2.114 5.767a6.167 6.167 0 001.872-1.661c-.541-1.143-.171-2.414-.174-3.689-.004-1.275-1.005-2.548-.34-3.763 2.893.364 1.624 4.495 2.107 6.375l1.592-1.078c.711-2.106-1.413-4.732.323-6.626.13.191.341-.045.47.077 1.135 1.437.659 3.547 1.198 5.202a9.502 9.502 0 002.603-2.364c-.854-1.744-2.118-4.743.168-5.105 1.191 1.074-.008 2.699 1.442 4.225l2.198-1.487a22.48 22.48 0 01-.284-3.407c-.189-1.033-1.26-2.514.105-3.275 1.942.776 1.334 3.927 1.788 5.593l1.784-1.206c-.218-2.175-1.978-4.606-.091-6.347.129.191.373.072.551.231a35.986 35.986 0 011.101 5.06l2.054-1.39c-.28-2.783-1.512-5.942-.286-8.42 1.517.32 1.38 2.247 1.506 3.392a10.809 10.809 0 00.357 3.961l2.071-1.401c-.332-2.446-1.069-5.012-.252-7.236 2.65.691.785 4.112 1.844 6.158l2.198-1.487c-.325-2.333-1.718-4.873-.681-6.945 2.377.598 1.271 4.179 2.292 6.065a11.08 11.08 0 002.013-1.176c-.444-2.509-1.913-5.23-1.048-7.487 2.431.677 1.598 4.491 2.561 6.463l1.593-1.077a3.472 3.472 0 01-.6-1.196c.627-1.818-1.773-4.234.286-5.789.129.191.374.072.54.215.951 1.817.437 4.626 1.478 5.617.908-1.335-.453-3.107-.1-4.576-.247-.948-1.021-1.817.075-2.257 1.841-.711 1.716 4.528 2.058 5.411 4.886-3.074 5.299-8.229 3.086-12.907l.139-.001zm-35.475-26.08c-4.778 3.232-11.246 7.4-15.346 10.776-5.4 4.443-12.742 8.62-19.384 13.114-6.642 4.493-14.148 8.945-19.511 13.2a17.318 17.318 0 00-4.425 4.99 23.768 23.768 0 002.578 5.871c4.834-2.945 8.763-6.369 13.316-9.008 5.844-3.373 12.302-5.839 17.372-10.151 3.87-3.269 7.343-8.055 11.66-11.487a124.273 124.273 0 0122.453-13.588c-2.384-3.936-5.521-4.043-8.713-3.717zm11.819 2.405a18.558 18.558 0 0118.296 6.452 22.295 22.295 0 011.76 3.22c1.917 3.347 4.053 6.986 5.51 10.203 2.929 6.423 4.235 12.575-.352 17.257a36.053 36.053 0 012.943 4.625c3.315-.385 7.65-.532 8.994 4.131.623 2.156-1.409 3.786-1.97 5.977a323.525 323.525 0 0116.851 27.86c3.04 5.35 6.626 9.587 9.761 15.011 1.101 1.902 1.817 3.578 2.819 5.059a43.889 43.889 0 014.847 7.749c6.371-4.311 11.683-2.773 15.861 4.5 1.733 5.444-3.381 10.994-8.967 15.47a39.583 39.583 0 01-5.408 3.263c-6.981 3.957-14.51 9.817-22.123 14.967-8.521 5.765-16.838 11.763-24.085 15.876-6.705 3.817-13.498 9.666-19.476 10.576a8.627 8.627 0 01-3.132-.203c-2.92-1.159-7.701-7.676-8.032-10.98-.378-3.715 2.409-6.46 5.596-9.196a1342.947 1342.947 0 00-6.999-8.87c-8.306-10.424-14.871-23.698-23.62-34.913-5.488-7.014-10.857-15.362-16.354-22.973-5.654 2.246-9.764 3.378-14.42-2.062a115.628 115.628 0 01-11.608-15.991 24.118 24.118 0 01-2.955-11.885 18.44 18.44 0 015.384-7.45c-.867-2.826-3.65-6.424-2.782-9.123a19.962 19.962 0 015.577-6.582c5.049-4.205 12.662-8.567 19.639-13.286 6.976-4.72 14.764-9.269 19.654-13.297 2.042-1.683 5.407-4.053 8.465-6.122a41.297 41.297 0 017.381-4.807 15.94 15.94 0 016.822.028 12.67 12.67 0 016.14 5.644l-.017-.128z" fill="#fff"/><defs><clipPath id="clip0_76_4333"><path fill="#fff" transform="rotate(-15 869.039 -5236.82) skewX(-.009)" d="M0 0h177.373v207.922H0z"/></clipPath></defs></svg>