<svg width="30" height="30" fill="none" xmlns="http://www.w3.org/2000/svg"><path d="M.6 12.3v.5h.3v.5h.3v-.5h.3v-.5h.3v-.5h.3v-.5h.3v-.5h.3v-.5h-.4v-.5h-.25v-.5h-.9v.5h.6v.5h-.3v.5h-.3v.5h-.3v-.5H.6c-.1.4-.2.85-.3 1.25v.2h.3v.05zm3.45-7.55l-.15.15h.15v-.15z" fill="#fff"/><path d="M6.4 2.95h-.3v.5h-.3v.5h-.3v.5h-.3v.5h-.3v-.5h-.3V4.2l-.3.3v.45h.3v.5h.3v.5h-.3v.5h-.3v.5H4v-.5h-.25v-.5H3.5v-.5c-.1.1-.2.25-.3.35v.15h-.1c-.1.05-.15.1-.2.2v.25h-.2c-.05.05-.05.1-.1.15v.3h-.2c-.1.15-.2.35-.3.5h.25v.5h.3v.5h.3v.5h.3v.5h.25v-.5h.3v-.5h.3v-.5h.3v-.5h.3v-.5H5v-.5h.3v.5h.2v.5h.3v.5h.3v.5h.3v.5h.3v-1h-.3v-.5h.3V5.9h-.3v.5h-.3v.5h-.3v-.5h-.3v-.5h-.3v-.5h.3v-.5h.3v-.5h.3v.5h.3v.5h.3V3.9h-.3v-.5h.3v-.85c-.1.05-.2.15-.3.2v.2zm-2.9 4.9h-.3v-1h.3v1zM.3 16.7v-.5h.3v-.5h.3v-.5h.3v-.5H.85v-.5H.6v-.5H.3v-.5H.1c-.05.65-.1 1.2-.1 1.8 0 .6.05 1.15.1 1.7h.2zm6.1-2.95h-.3v.5h-.3v.5h-.3v.5h.3v.5h.3v.5h.3v.45h.25v-3.4H6.4v.45z" fill="#fff"/><path d="M3.75 5.05c-.1.1-.2.25-.3.35h.3v-.35zM3.9 25.1l.15.15v-.15H3.9zm-.4-.5c.1.1.2.25.3.35v-.35h-.3z" fill="#fff"/><path d="M6.4 26.55v-.5h.3v-1.5h-.3v.5h-.3v.5h-.3v-.5h-.3v-.5h-.3v-.5h.3v-.5h.3v-.5h.3v.5h.3v.5h.3v-1.5h-.3v-.5h.3v-1h-.3v.5h-.3v.5h-.3v.5h-.3v.5h-.3v.5h-.3v-.5h-.3v-.5h-.3v-.5H4v-.5h-.25v-.5H3.5v-.5h-.3v.5h-.3v.5h-.3v.5h-.3v.5h-.2c.1.15.2.35.3.5h.2v.3c.05.05.05.1.1.15h.2v.25c.05.2.1.25.2.35h.1v.15c.1.1.2.25.3.35v-.5h.3v-.5h.3v-.5h.3v.5h.3v.5H5v.5h-.3v.5h-.3v.45l.3.3v-.25H5v-.5h.3v.5h.2v.5h.3v.5h.3v.5h.3v.2c.1.05.2.15.3.2v-.9l-.3-.05zM3.5 23.1h-.3v-1h.3v1zm2.9-5.4h-.3v-.5h-.3v-.5h-.3v.5h-.3v.5h-.25v.5h-.3v.5h-.3v.5h-.3v.45h.3v.5h.3v.5h.85v-.5h-.55v-.5h.25v-.45h.3v-.5h.3v.5h.3v.45h.3v.5h.25v-.95H6.4v-.5h.25v-.5H6.4v-.5zm0-7.35h-.3v.45h-.3v.5h-.3v-.5h-.3v-.45h-.25v-.5h.55v-.5h-.85v.5h-.3v.5h-.3v.45h.3v.5h.3v.5h.3v.5h.25v.5h.3v.5h.3v-.5h.3v-.5h.3v-.5h.25v-.5H6.4v-.5h.25v-.95H6.4v.5zM.85 18.7h.3v.5h.3v.5h.3v.5h-.6v.5H2v-.5h.3v-.5h.3v-.5h-.3v-.5h-.25v-.5h-.3v-.5h-.3v-.5h-.3v-.5h-.3v.5H.6v.5H.3v.2c.1.45.2.85.3 1.25h.25v-.45zm3.2-6.4h-.3v-.5H3.5v-.5h-.3v.5h-.3v.5h-.3v.5h-.3v.5h-.25v.5h-.3v2.5h.3v.5h.3v.5h.3v.5h.3v.5h.3v.5h.25v-.5h.3v-.5h.3v-.5h.3v-.5h.3v-.5H5v-2.5h-.3v-.5h-.3v-.5h-.3l-.05-.5zM2.3 14.95v.3h-.25v-.5h.3v.2H2.3zm2.05.1v-.3h.3v.5h-.3v-.2zM3.2 12.3h.3v.5h-.3v-.5zm.3 5.4h-.3v-.5h.3v.5zm.55-3.45h-.3v.5H3.5v.5h.3v.5h.3v1h-.35v-.5H3.5v-.5h-.3v.5h-.3v.5h-.3v-1h.3v-.5h.3v-.5h-.3v-.5h-.3v-1h.3v.5h.3v.5h.3v-.5h.3v-.5h.3l-.05 1z" fill="#fff"/><path d="M2.6 6.55c-.05.1-.15.2-.2.3h.2v-.3zm.3-.15v-.25c-.05.1-.1.15-.2.25h.2zm.3-.5v-.15c-.05.05-.05.1-.1.15h.1zm-1.15 9.05v.3h.25v-.5h-.25v.2zM6.4 7.4h.3v.5h-.3v-.5zM3.75 5.9v.5h.3v.5h.3v-.5h.3v-.5h.3v-.5h-.3v-.5h-.3v-.45l-.3.3v.15H3.9l-.15.15v.35H3.5v.5h.25zM6.4 3.45h.3v.5h-.3v-.5zm0 1.45h-.3v-.45h-.3v.45h-.3v.5h-.3v.5h.3v.5h.3v.5h.3v-.5h.3v-.5h.25v-.5H6.4v-.5zm-1.45-.45v.5h.3v-.5h.25v-.5h.3v-.5h.3v-.5h.3v-.2c-.55.4-1.1.8-1.55 1.25-.05.05-.1.1-.2.15v.25h.3v.05zM3.3 6.9h-.1v.95h.3V6.9h-.2zm.45 6.85H3.5v.5h-.3v-.5h-.3v-.45h-.3v.95h.3v.5h.3v.5h-.3v.5h-.3v.95h.3v-.45h.3v-.5h.3v.5h.25v.45h.3v-.95h-.3v-.5H3.5v-.5h.25v-.5h.3v-.95h-.3v.45zM6.4 10.8h.3v.5h-.3v-.5z" fill="#C8313E"/><path d="M6.4 8.35h-.3v-.5h-.3v-.5h-.3v-.5h-.3v-.5h-.3v.5h-.3v.5h-.3v.5H4v.5h-.25v.5H3.5v.5h-.3v-.5h-.3v-.5h-.3v-.5h-.3v-.5h-.2c-.3.5-.6 1.05-.85 1.6-.25.6-.45 1.2-.65 1.8h.25v.5h.3v-.5h.3v-.5h.3v-.5h-.6v-.5H2v.5h.3v.5h.3v.5h-.3v.5h-.25v.5h-.3v.5h-.3v.5h-.3v.5h-.3v-.5H.6v-.5H.3v-.2c-.1.4-.15.8-.2 1.2h.2v.5h.3v.5h.3v.5h.3v.5H.85v.5H.6v.5H.3v.5H.1c.05.4.1.8.2 1.2v-.2h.3v-.5h.3v-.5h.3v.5h.3v.5h.3v.5h.3v.5h.3v.5h.3v.5h-.4v.5h-.25v.5h-.9v-.5h.6v-.5h-.3v-.5h-.3v-.5h-.3v.5H.6c.2.55.4 1.15.65 1.75.25.55.55 1.1.85 1.6h.25v-.5h.3v-.5h.3v-.5h.3v-.5h.25v.5h.3v.5h.3v.5h.3v.5h.3v.5H5v.5h.3v-.5h.2v-.5h.3v-.5h.3v-.5h.3v-.5h.3v-1h-.3v-.5h-.3v-.5h-.3v-.5h-.3v.5h-.3v.5h-.3v.5h.6v.5h-.85v-.5h-.3v-.5h-.3v-.5h.3v-.5h.3v-.5h.3v-.5h.3v-.5h.25v-.5h.3v.5h.3v.5h.3v.5h.3v-1.5h-.3v-.5h-.3v-.5h-.3v-.5h-.3v-.5h.3v-.5h.3v-.5h.3v-.5h.3v-1.5h-.3v.5h-.3v.5h-.3v.5h-.3v-.5h-.3v-.5h-.3v-.5h-.3v-.5h-.3v-.5H4v-.5h.3v-.5h.3v-.5h.9v.5h-.6v.5h.3v.5h.3v.5h.3v-.5h.3v-.5h.3v-.5h.3v-1h-.3v-.25zM4.35 12.8v.5h.3v.5h.3v2.5h-.3v.5h-.3v.5h-.3v.5h-.3v.5H3.5v.5h-.3v-.5h-.3v-.5h-.3v-.5h-.3v-.5h-.25v-.5h-.3v-2.5h.3v-.5h.3v-.5h.3v-.5h.3v-.5h.3v-.5h.25v.5h.3v.5h.3v.5h.25z" fill="#C8313E"/><path d="M3.35 12.8h.15v-.5h-.3v.5h.15zM2.6 23.1h-.2c.05.1.15.2.2.3v-.3zm.3.5h-.2c.05.1.1.15.2.25v-.25zm.3.5h-.1c.05.05.05.1.1.15v-.15zm3.2-1.95h.3v.5h-.3v-.5zm0 1.45h-.3v-.5h-.3v.5h-.3v.5h-.3v.5h.3v.5h.3v.45h.3v-.45h.3v-.5h.25v-.5H6.4v-.5zm-2.65 1v.35l.15.15h.15v.15l.3.3v-.45h.3v-.5h.3v-.5h-.3v-.5h-.3v-.5h-.3v.5h-.3v.5H3.5v.5h.25zm2.65 1.45h.3v.5h-.3v-.5zM4.8 26c.5.45 1 .9 1.55 1.25v-.2h-.3v-.5h-.3v-.5H5.5v-.5h-.3v-.5h-.3v.5h-.3v.25l.2.2zm-1.5-3.85h-.1v.95h.3v-.95h-.2zm3.1-3.45h.3v.5h-.3v-.5zm-1.75-3.65v-.3h-.3v.5h.3v-.2zM3.3 17.2h-.1v.5h.3v-.5h-.2z" fill="#C8313E"/><path d="M6.65 21v6.45C9.05 29.05 11.9 30 15 30c3.95 0 7.5-1.5 10.2-4 1.5-1.4 2.75-3.1 3.55-5H6.65z" fill="#83BF4F"/><path d="M28.75 21c.8-1.85 1.25-3.85 1.25-6s-.45-4.15-1.25-6c-.85-1.9-2.05-3.6-3.55-5-2.7-2.5-6.25-4-10.2-4-3.1 0-5.95.95-8.35 2.55V21h22.1z" fill="#C94747"/></svg>