<svg width="60" height="60" fill="none" xmlns="http://www.w3.org/2000/svg"><path d="M29.992 19.996c-5.509 0-10.004 4.495-10.004 10.004 0 5.509 4.495 10.004 10.004 10.004 5.509 0 10.004-4.495 10.004-10.004 0-5.509-4.495-10.004-10.004-10.004zM59.997 30c0-4.143.037-8.248-.196-12.383-.232-4.804-1.328-9.066-4.84-12.579C51.44 1.518 47.186.43 42.383.198 38.24-.036 34.135.001 29.999.001c-4.142 0-8.247-.037-12.383.195C12.813.43 8.55 1.526 5.038 5.038 1.518 8.558.43 12.813.198 17.617-.036 21.759.001 25.865.001 30s-.037 8.248.195 12.383c.233 4.804 1.329 9.066 4.841 12.579 3.52 3.52 7.775 4.608 12.578 4.84 4.143.233 8.248.196 12.383.196 4.143 0 8.248.037 12.384-.195 4.803-.233 9.066-1.329 12.578-4.841 3.52-3.52 4.608-7.775 4.84-12.579.24-4.135.196-8.24.196-12.383zM29.992 45.393A15.371 15.371 0 0114.599 30a15.371 15.371 0 0115.393-15.393A15.371 15.371 0 0145.385 30a15.371 15.371 0 01-15.393 15.393zm16.023-27.821a3.59 3.59 0 01-3.595-3.595 3.59 3.59 0 013.595-3.595 3.59 3.59 0 013.595 3.595 3.591 3.591 0 01-3.595 3.595z" fill="url(#paint0_linear_76_27)"/><defs><linearGradient id="paint0_linear_76_27" x1="30" y1="0" x2="30" y2="60" gradientUnits="userSpaceOnUse"><stop stop-color="#FFC28A"/><stop offset="1" stop-color="#FFC700"/></linearGradient></defs></svg>