<svg width="30" height="30" fill="none" xmlns="http://www.w3.org/2000/svg"><path d="M15 30c8.284 0 15-6.716 15-15 0-8.284-6.716-15-15-15C6.716 0 0 6.716 0 15c0 8.284 6.716 15 15 15z" fill="#00AFCA"/><path d="M27.35 15.55c-.35-.2-.75.05-.75.4-.15 2.45-4.45 3.1-6.5 3.1-2.05.05-6.45-.7-6.6-3.1 0-.35-.4-.55-.75-.4-1.05.55-1.4 1.6-1.15 2.65.45 1.9 2.8 3.25 4.8 3.85-.15.35-.2.7-.25 1.05-.05.4.55.55.85.3 1.15-.85 2.95-1.2 4.45-1.2.65 0 .65-.9 0-.9-1.35 0-2.8.25-4 .8.45-1.05 1.5-2.1 2.65-2.15h.05c2.4.05 6.25-.8 7.25-3.05.15.4.15.85 0 1.25-.5 1.6-2.25 2.25-3.9 2.7-.6.15-.35 1.05.25.85 2.1-.55 3.75-1.4 4.6-3.3.4-1 0-2.2-1-2.85M16.8 21.2c-1.65-.45-2.9-1.25-3.9-2.55-.4-.55-.55-1.3-.2-1.85.75 1.75 3.2 2.65 5.4 2.95-.5.4-.95.9-1.3 1.45" fill="#FFE62E"/><path d="M20 16.35a3.85 3.85 0 100-7.7 3.85 3.85 0 000 7.7zm0-8.2c.25 0 .3-.15.3-.3 0-.25-.3-1.3-.3-1.3s-.3 1.1-.3 1.3c0 .15.05.3.3.3z" fill="#FFE62E"/><path d="M21.65 8.45c.2.1.35 0 .4-.15.1-.2.2-1.35.2-1.35s-.7.9-.8 1.1c0 .15 0 .35.2.4m2.4 5.7c-.1.2 0 .35.15.4.2.1 1.35.2 1.35.2s-.9-.7-1.1-.8c-.15 0-.35 0-.4.2m-5.7 2.4c-.2-.1-.35 0-.4.15-.1.2-.2 1.35-.2 1.35s.7-.9.8-1.1c0-.15 0-.35-.2-.4m-2.4-5.7c.1-.2 0-.35-.15-.4-.2-.1-1.35-.2-1.35-.2s.9.7 1.1.8c.15 0 .35 0 .4-.2M23.1 9.4c.15.15.35.1.45 0 .15-.15.7-1.15.7-1.15s-1 .55-1.15.7c-.15.15-.15.3 0 .45m0 6.2c-.15.15-.1.3 0 .45.15.15 1.15.7 1.15.7s-.55-1-.7-1.15c-.15-.15-.3-.15-.45 0zm-6.2 0a.316.316 0 00-.45 0c-.15.15-.7 1.15-.7 1.15s1-.55 1.15-.7c.15-.15.15-.3 0-.45zm0-6.2c.15-.15.1-.35 0-.45-.15-.15-1.15-.7-1.15-.7s.55 1 .7 1.15c.15.15.3.15.45 0m7.15 1.45c.1.2.25.25.4.15.2-.1 1.1-.8 1.1-.8s-1.15.15-1.35.2c-.15.1-.25.2-.15.45m-2.4 5.7c-.2.1-.25.25-.15.4.1.2.8 1.1.8 1.1s-.15-1.15-.2-1.35c-.1-.15-.2-.25-.45-.15m-5.7-2.4c-.1-.2-.25-.25-.4-.15-.2.1-1.1.8-1.1.8s1.15-.15 1.35-.2c.15-.1.25-.2.15-.45m2.4-5.7c.2-.1.25-.25.15-.4-.1-.2-.8-1.1-.8-1.1s.15 1.1.2 1.35c.1.15.2.25.45.15m2.5-.25c.2.05.35-.1.35-.25.05-.2-.05-1.35-.05-1.35s-.5 1-.55 1.25c-.05.15.05.3.25.35zm3.45 5.15c-.05.2.1.35.25.35.2.05 1.35-.05 1.35-.05s-1-.5-1.25-.55c-.15-.05-.3.05-.35.25m-5.15 3.45c-.2-.05-.35.1-.35.25-.05.2.05 1.35.05 1.35s.5-1 .55-1.25c.05-.15-.05-.3-.25-.35zm-3.45-5.15c.05-.25-.1-.35-.25-.35-.2-.05-1.35.05-1.35.05s1 .5 1.25.55c.15.05.3-.05.35-.25m6.75-2.8c.2.1.35.05.45-.1.15-.2.45-1.25.45-1.25s-.85.75-1 .9c-.1.15-.1.35.1.45zm1.2 6.1c-.1.2-.05.35.1.45.2.15 1.25.45 1.25.45s-.75-.85-.9-1c-.15-.1-.35-.1-.45.1m-6.1 1.2c-.2-.1-.35-.05-.45.1-.1.15-.45 1.25-.45 1.25s.85-.75 1-.9c.1-.15.1-.35-.1-.45m-1.2-6.1c.1-.2.05-.35-.1-.45-.15-.1-1.25-.45-1.25-.45s.75.85.9 1c.15.1.35.1.45-.1m7.3 0c.15.2.3.2.45.1.2-.15.9-1 .9-1s-1.1.35-1.25.45c-.15.15-.25.3-.1.45m-1.2 6.1c-.2.15-.2.3-.1.45.15.2 1 .9 1 .9s-.35-1.1-.45-1.25c-.15-.15-.3-.25-.45-.1m-6.1-1.2c-.15-.2-.3-.2-.45-.1-.2.15-.9 1-.9 1s1.1-.35 1.25-.45c.15-.15.25-.3.1-.45m1.2-6.1c.2-.15.2-.3.1-.45-.15-.2-1-.9-1-.9s.35 1.1.45 1.25c.15.15.3.25.45.1zm6.75 2.8c.05.2.2.3.35.25.2-.05 1.25-.55 1.25-.55s-1.15-.1-1.35-.05c-.2 0-.3.1-.25.35m-3.45 5.15c-.2.05-.3.2-.25.35.05.2.55 1.25.55 1.25s.1-1.15.05-1.35c0-.2-.1-.3-.35-.25zm-5.15-3.45c-.05-.2-.2-.3-.35-.25-.2.05-1.25.55-1.25.55s1.15.1 1.35.05c.2 0 .3-.1.25-.35m3.45-5.15c.2-.05.3-.2.25-.35-.05-.2-.55-1.25-.55-1.25s-.1 1.15-.05 1.35c0 .2.1.3.35.25zM7.25 24.8H6.7v1.85H5.6c.55.45 1.1.8 1.7 1.2V24.8h-.05zM6.7 3.35V5.2h.55V2.15c-.6.35-1.15.75-1.7 1.2H6.7m-1.25.05c-.15.1-.3.25-.45.4l1.5 3.25H5.25V5.2H4.7v1.85H3.45L4.9 3.9c-.4.35-.8.75-1.15 1.2L2.6 7.55l1.95 4.2H3.3V9.9h-.55v4.9h.55v-2.05h1.3L3.85 15l.75 2.2H3.3v-2.05h-.55v4.9h.55V18.2h1.25L2.6 22.4l1.15 2.45c.35.4.75.8 1.15 1.2L3.45 22.9H4.7v1.85h.55V22.9H6.5L5 26.15c.15.15.3.25.45.4l1.9-4.15-1.95-4.2h1.25v1.85h.55v-4.9h-.55v2.05h-1.3L6.1 15l-.75-2.2h1.3v2.05h.55v-4.9h-.55v1.85H5.4l1.95-4.2-1.9-4.2m1.1 18.55H5.3V20.1h-.55v1.85h-1.3L5 18.65l1.55 3.3M5 16.6l-.4-1.15h.8L5 16.6m.4-2.05h-.8L5 13.4l.4 1.15M5 11.4L3.45 8.1H4.7v1.85h.55V8.1H6.5L5 11.4" fill="#FFE62E"/></svg>