<svg width="80" height="81" fill="none" xmlns="http://www.w3.org/2000/svg"><rect y=".5" width="80" height="80" rx="20" fill="url(#paint0_linear_76_3898)"/><path d="M16.407 27.301l21 11.281c.706.378 1.618.557 2.537.557.918 0 1.831-.179 2.537-.557l21-11.281c1.369-.736 2.662-3.6.15-3.6H16.26c-2.512 0-1.218 2.864.148 3.6zm47.71 6.168L42.48 44.745c-.952.498-1.619.557-2.537.557-.919 0-1.585-.059-2.537-.557-.952-.498-19.972-10.47-21.526-11.278-1.092-.572-1.081.098-1.081.613V54.5c0 1.176 1.585 2.8 2.8 2.8h44.8c1.215 0 2.8-1.624 2.8-2.8V34.083c0-.516.011-1.185-1.084-.614z" fill="#fff"/><defs><linearGradient id="paint0_linear_76_3898" x1="40" y1=".5" x2="40" y2="80.5" gradientUnits="userSpaceOnUse"><stop stop-color="#FFC28A"/><stop offset="1" stop-color="#FFC700"/></linearGradient></defs></svg>