<svg width="331" height="122" fill="none" xmlns="http://www.w3.org/2000/svg"><path d="M260.281 65.486c-.219.29-.413.6-.578.925l-12.774 25.538 12.144 6.074 12.774-25.538c.163-.326.295-.667.393-1.017 3.545.29 7.098-.479 10.214-2.208a18.122 18.122 0 009.22-17.798 18.022 18.022 0 00-4.087-9.617l-7.417 14.83-12.814-6.41 7.418-14.83a18.028 18.028 0 00-10.146 2.502 18.122 18.122 0 00-8.706 18.056 18.033 18.033 0 004.363 9.494l-.004-.001z" fill="#fff" stroke="#434343" stroke-width="3" stroke-miterlimit="10"/><path d="M254.789 95.88L265.234 75c.409-.82-.061-1.879-1.051-2.374-.991-.496-2.119-.231-2.527.584l-10.444 20.88 3.577 1.79z" fill="#fff" stroke="#434343" stroke-width="3" stroke-miterlimit="10"/><path d="M285.311 60.292a13.312 13.312 0 01-7.815 6.486 13.174 13.174 0 01-10.075-.938" stroke="#434343" stroke-width="3" stroke-miterlimit="10"/><path d="M314.58 84.014a51.981 51.981 0 001.841-4.153l10.168 2.127 3.724-17.474-10.382-2.181a50.59 50.59 0 00-1.914-14.733l9.705-4.72-7.707-16.07-9.832 4.778a49.54 49.54 0 00-10.312-10.407l4.932-9.86-15.907-7.956-4.93 9.856a49.511 49.511 0 00-13.785-2.018L268.274.45l-17.532 3.217 1.877 10.652a50.303 50.303 0 00-9.652 4.756l-7.282-7.78-13.002 12.256 7.149 7.61a50.907 50.907 0 00-4.969 7.972 52.934 52.934 0 00-1.363 2.994l-10.086-2.122-3.71 17.49 9.845 2.06a50.488 50.488 0 001.665 15.222l-8.938 4.337 7.713 16.083 8.821-4.262a49.75 49.75 0 0010.781 11.036l-4.363 8.724 15.907 7.956 4.363-8.723a49.385 49.385 0 0014.555 2.013l1.719 9.632 17.528-3.218-1.74-9.768a50.249 50.249 0 009.931-5.163l6.848 7.311 12.998-12.257-6.972-7.455c1.59-2.22 3-4.563 4.215-7.009zm-59.931 7.698a34.024 34.024 0 01-14.385-13.663 34.303 34.303 0 01-4.359-19.41 34.505 34.505 0 017.135-18.614 34.391 34.391 0 0116.225-11.543 34.1 34.1 0 0119.845-.582 33.992 33.992 0 0116.777 10.576 34.193 34.193 0 018.052 18.168 34.464 34.464 0 01-3.385 19.637 34.432 34.432 0 01-19.807 17.239 34.065 34.065 0 01-26.098-1.808z" fill="url(#paint0_linear_205_4)"/><path d="M42.117 75.79V122H31.008L14.663 93.245V122H3.523V75.79h11.14l16.345 28.754V75.789h11.109zm38.847 37.641V122H56.335v-8.569h24.63zM60.303 75.789V122h-11.14V75.79h11.14zM77.79 94.134v8.283H56.335v-8.283H77.79zm3.27-18.345v8.601H56.335v-8.6H81.06zm15.139 42.022l9.204-42.022h5.491l2.983 3.587L104.07 122h-6.062l-1.81-4.189zm-2.444-42.022l7.776 42.339-2 3.872h-7.014L82.71 75.79h11.045zm25.168 42.117l7.713-42.117h11.013L127.842 122h-6.983l-1.936-4.094zm-4.062-42.117l9.426 42.275-1.904 3.936h-6.062l-10.029-42.688 3.11-3.523h5.459z" fill="url(#paint1_linear_205_4)"/><defs><linearGradient id="paint0_linear_205_4" x1="296.841" y1="7.339" x2="243.158" y2="114.661" gradientUnits="userSpaceOnUse"><stop stop-color="#FFC28A"/><stop offset="1" stop-color="#FFC700"/></linearGradient><linearGradient id="paint1_linear_205_4" x1="69.5" y1="62" x2="69.5" y2="121" gradientUnits="userSpaceOnUse"><stop stop-color="#FFC28A"/><stop offset="1" stop-color="#FFC700"/></linearGradient></defs></svg>