<svg width="30" height="30" fill="none" xmlns="http://www.w3.org/2000/svg"><rect width="30" height="30" rx="15" fill="url(#paint0_radial_76_2594)"/><path fill-rule="evenodd" clip-rule="evenodd" d="M16.592 4.395c.165.164.401.205.59.328.095-.05.084-.146.037-.23-.028-.044-.599-.335-.627-.098zm-1.23.751c.227.066.489-.115.74-.153.206-.021.413-.006.612.044.108.052.174.18.328.136.173-.475-.833-.452-1.439-.262-.124.036-.327.069-.243.229l.002.006zm-3.966 1.078c-.093.026-.292.024-.24.168.05.144.439-.002.61-.034.488-.1.785-.14 1.308-.258.225-.051.536-.103.49-.24-.047-.136-.322.005-.47.035-.57.118-1.14.192-1.702.33l.004-.001zM7.631 8.357c-.02-.455.239-.746.655-.962-.021-.075-.038-.134-.1-.13-.325.056-.58.378-.704.64-.063.128-.171.537.15.452zm1.067.27c.136.04.163-.086.273-.136.3-.144.706-.175 1.048-.3.16-.06.3-.154.456-.212.29-.108.634-.101.82-.316-.055-.187-.509-.018-.82.097-.143.053-.306.152-.494.222-.407.152-.897.212-1.126.323-.11.052-.276.19-.148.32l-.009.002zm7.959-2.202c-.09-.182-.398-.144-.627-.1-.229.046-.45.148-.688.198-.192.039-.384.046-.553.08a10.36 10.36 0 00-1.545.522c-.217.08-.526.112-.454.289.073.177.56-.128.694-.178a7.669 7.669 0 011.343-.425c.191-.04.379-.046.573-.086.26-.051.497-.163.708-.203.211-.04.431.061.549-.097zm-4.634 1.05c.032.046-.012.057.009.097.298.207.306-.367-.009-.097zm-5.739 3.098c.283-.081.068-.42.208-.576.106-.182.228-.356.342-.536a.102.102 0 01-.041-.069c-.016.005-.025-.01-.043-.006-.207.117-.367.3-.452.517a.962.962 0 00-.014.67zm.431-.223c.251.041.312-.373.387-.528.02-.045.234-.37-.041-.288-.13.038-.167.253-.221.382-.077.176-.16.276-.116.432l-.009.002zm12.346-4.177c.117.238.343.286.488.475.29-.233-.224-.45-.364-.552a.16.16 0 00-.124.077zm-.906 1.087c.023.171.17.182.273.3.344.416.577.908.68 1.435.059.298.016.617.186.868.3-.065.092-.356.066-.496-.026-.14-.006-.263-.03-.39-.135-.72-.59-1.479-1.048-1.785a.16.16 0 00-.125.075l-.002-.007zM7.937 10.219c-.175-.065-.291.655-.296.838a2.4 2.4 0 00.424 1.261c.08.125.206.326.29.295.218-.076-.27-.641-.316-.743a2.034 2.034 0 01-.14-1.214c.01-.047.219-.38.035-.446l.003.009z" fill="#fff"/><path fill-rule="evenodd" clip-rule="evenodd" d="M16.463 8.845c.742.159 1.43.486 2.01.956-.153.362-.405.835-1.021.908a3.923 3.923 0 01-.621-.08 1.397 1.397 0 01-.621-1.592c.095-.057.152-.135.253-.192zm2.146.5a8.789 8.789 0 00-1.834-.857c.889-.563 1.738-.113 1.834.857zM17.32 7.87a2.866 2.866 0 00-.808.352c-.099.074-.134.185-.227.284-.148.153-.342.21-.42.34a1.988 1.988 0 00-.122.868c.047.404.25.773.57 1.032.32.26.73.39 1.151.364.325-.037.633-.167.884-.373.38-.377.619-.867.675-1.387a1.591 1.591 0 00-.532-1.138 1.468 1.468 0 00-.545-.294 1.53 1.53 0 00-.626-.048zm-6.937 3.535c.042.089.014.14.02.213-.194.155-1.329.598-1.343.205.267-.221.957-.534 1.316-.416l.007-.002zM10.062 11c-.606.1-1.887.498-1.257 1.234.28.326.845.078 1.23-.034.237-.044.464-.136.664-.27.255-.261.064-.854-.229-.948a.816.816 0 00-.408.018zm3.269-.48c.166-.083.342-.147.523-.19.094.013.165.184.122.284-.38.137-.767.254-1.159.35-.165.034-.396.08-.489-.037.16-.276.625-.266.999-.406l.004-.001zm.538-.571c-.284.08-1.127.302-1.521.454a.97.97 0 00-.416.278.747.747 0 00.07.538c.121.196.495.206.826.141.28-.055.593-.234.858-.246.099-.005.194.076.258.064.304-.055.383-.432.459-.627-.078-.38-.243-.605-.543-.6l.009-.002zM6.6 12.112c.056.545.261 1.063.596 1.5.134.192.288.41.44.588.15.178.318.411.543.321-.027-.186-.207-.282-.321-.403a4.45 4.45 0 01-.925-1.424 3.63 3.63 0 00-.181-.566c-.008-.076-.089-.032-.151-.016zm13.62-3.847c.199.697.432 1.72.268 2.308-.036.13-.2.205-.136.358.113.07.279-.129.32-.251.11-.31.036-1.37-.073-1.926-.044-.218-.154-.68-.38-.489zm-13.6 5.272c.095.2.218.385.363.553.063.1.066.27.223.275a.11.11 0 01.072-.042 1.778 1.778 0 00-.567-.89c-.033.01-.033.032-.07.038-.037.006.015.051-.022.066zm1.842-.408c-.022.13.076.266.22.194.09-.104-.079-.336-.22-.194zm12.544-3.578c.014.18-.012.557.138.696.233-.095.104-.47.011-.678-.018-.064-.087-.035-.149-.018zm-1.571.73c.08-.41-.438.061 0 0zm.778 2.639c.174-.153-.01-.405-.05-.603a1.872 1.872 0 01-.042-.504c.025-.196.193-.245.144-.44-.37-.048-.396.563-.31 1.01.043.219.092.5.26.544l-.002-.007zm-2.84-.757c-.072.216.136.385.258.543.244.315.514.607.764.934.11.145.199.403.424.394.065-.18-.123-.345-.22-.474-.313-.417-.694-.842-1.016-1.239-.015-.053-.034-.119-.062-.14a.097.097 0 00-.032-.028.103.103 0 00-.041-.012l-.075.022zm-8.2 4.737c-.057-.195-.234-.163-.363-.253a.904.904 0 01-.364-.769c.005-.133.14-.349-.003-.437-.03.027-.078-.038-.075.022-.426.451.26 1.741.805 1.437zm-1.146-.247c.113.18.245.328.493.276.09-.222-.283-.251-.4-.382-.018.027-.065.038-.084.064-.019.026.01.032-.01.042zm1.531 1.091c-.017.14.116.154.194.244.212.297.363.631.448.985.032.113-.033.279.127.302.227-.118.032-.408-.059-.64-.168-.427-.231-.74-.532-.921a.164.164 0 00-.178.03zm12.195.48c-.127-.524-.475-1.072-.604-1.67-.057-.247-.08-.5-.07-.755.02-.275.18-.584.043-.786a.051.051 0 00-.018-.032.054.054 0 00-.036-.013c-.173.013-.093.119-.104.288a5.699 5.699 0 00-.104.864c.055.676.416 1.386.604 1.816.066.154.063.403.29.294l-.001-.006zm-10.955 1.978c-.149.2-.08 1.092.325 1.06a.098.098 0 01.042-.073c-.22-.252-.217-.64-.241-.984-.043.001-.067-.031-.127-.005l.001.002zm12.234-.179c.204.13.379.297.513.494.135.197.227.42.27.653.016.099-.043.208.047.305.334-.03.087-.733-.095-1.047-.18-.315-.614-.633-.759-.637-.296-.005-.192.338.021.224l.003.008zm.661-.15c.222.158.401.366.523.606.047.106.026.308.19.303.13-.105.037-.294-.014-.414a2.874 2.874 0 00-.462-.602c-.08-.04-.235.014-.237.107zm-12.566 3.703c-.182-.127-.262.186-.3.386-.094.398-.059.811.1 1.184.046.106.179.25.248.226.188-.054-.014-.21-.075-.336-.274-.583-.043-1.062.016-1.456l.011-.003zm-.511.596c-.33-.313-.263.836-.027.743.184-.069-.082-.578.027-.742zm4.357-.604c.074.258.37.3.553.418.094.06.203.14.3.21.097.072.176.224.328.137.082-.166-.11-.238-.21-.297-.268-.17-.546-.371-.828-.518-.006-.022-.04-.002-.05-.025-.063.006-.065.046-.102.068l.009.007zm-3.166 1.304c.018.152.186.138.28.18.141.061.275.219.466.185a.093.093 0 01.042-.072c-.156-.243-.44-.266-.668-.385a.138.138 0 00-.074.029.133.133 0 00-.046.063z" fill="#fff"/><path fill-rule="evenodd" clip-rule="evenodd" d="M11.818 25.088c-.242-.622-.152-.959.385-1.164.749-.284 1.594-.457 2.412-.77.817-.312 1.593-.553 2.39-.844 1.44-.53 2.523-.724 3.655-1.15.606-.224 1.581-.454 1.905-.268.282.15.335.725.353 1.012-.262-.077-.542-.344-.831-.453-.202.132.104.316.234.394.196.084.38.192.547.32-.127.191-.326 0-.473-.062-.147-.062-.268-.103-.374-.153-.277-.13-.467-.327-.7-.355-.065.272.3.363.506.47.112.058.23.133.341.181.112.049.28.051.283.15a1.95 1.95 0 01-.483.196c-.208-.125-.434-.214-.65-.33a2.342 2.342 0 00-.672-.324.186.186 0 00-.05.114c.323.294.741.442 1.118.654l-.325.093c-.306-.182-.665-.3-.963-.48-.098-.057-.202-.209-.344-.12.006.02-.01.026-.01.042.071.196.303.287.48.38.179.095.404.187.58.296l-.59.169c-.006-.081-.062-.077-.08-.136-.37-.157-.673-.43-1.052-.574-.153.14.052.232.17.31.265.139.518.298.757.475a1.15 1.15 0 01-.283.1c-.509-.246-.965-.586-1.49-.806-.167.135.11.264.22.335.314.2.74.39.967.557l-.42.12c-.485-.206-.902-.531-1.4-.71-.159.192.315.384.513.488.108.06.206.126.29.175.083.05.253.05.247.148l-.442.127c-.507-.233-.932-.606-1.452-.816a.174.174 0 00-.054.096c.33.382.816.494 1.19.81l-.515.148c-.223-.148-.565-.299-.812-.458-.146-.101-.325-.368-.526-.167-.017.143.157.123.233.163.076.04.088.113.148.156a5.3 5.3 0 01.648.39l-.513.148c-.018-.062.065-.116-.005-.158-.24-.224-.613-.304-.855-.53-.072-.068-.061-.212-.22-.194-.166.257.199.43.394.541.102.066.218.127.321.187.104.06.273.118.26.183l-.992.285c-.04-.02-.053-.093-.094-.111a5.89 5.89 0 01-.569-.314c-.188-.112-.354-.302-.574-.273-.111.16.277.338.433.433.207.12.419.191.494.354l-.4.115c-.019-.066.004-.096-.042-.147-.146-.117-.386-.235-.585-.37-.16-.108-.424-.426-.562-.156.33.265.7.458 1.032.718l-.42.12c-.17-.13-.421-.24-.628-.396-.158-.116-.45-.444-.646-.232.297.293.674.448.989.71-.117.03-.23.07-.34.118a5.73 5.73 0 00-.817-.62c-.083-.064-.184-.201-.325-.126.007.026-.023.039-.022.066.256.358.659.454.937.764l-.221.063c-.257-.193-.509-.354-.773-.532-.107-.075-.228-.243-.402-.184.008.028-.022.04-.024.067.247.326.61.457.903.695-.491.023-1.044.157-1.345-.151l.03-.002zm1.332-1.873c-.08.011-.196.084-.254.055.068-.078.176-.17.254-.055zm.38-.11c-.127.021-.182-.085-.273-.119a.41.41 0 01.274.12zm.496-.141c-.284.136-.37-.074-.536-.144.216-.22.38.027.536.144zm.398-.133c-.051.015-.11.032-.13.056-.122-.133-.292-.184-.42-.315.22-.063.387.15.552.259h-.002zm6.47-2.134l-.482.138c-.004-.061-.151-.1-.063-.141.153.046.383-.036.54.004l.005-.001zm-.91.002c.072.088.174.12.232.231l-.152.044a1.792 1.792 0 00-.217-.256c.06-.017.076.015.138-.019zm-5.108 1.982l-.325.093c.002-.259-.28-.245-.4-.383.096-.044.157-.105.247-.15.078.271.334.27.478.44zm.432-.163c-.118.015-.258.101-.325.093.058-.275-.337-.215-.4-.462.084-.024.11-.077.21-.101.14.19.436.276.526.467l-.011.003zm4.297-1.79c.068.113.154.216.253.305l-.172.05c-.087-.126-.28-.213-.307-.35a.923.923 0 00.237-.009l-.01.003zm-3.913 1.62l-.17.048c-.16-.184-.371-.276-.54-.442a.525.525 0 01.257-.113c.104.25.307.33.453.506zm3.43-1.58c.096.14.213.267.347.376-.105.019-.248.097-.33.075-.023-.162-.232-.24-.302-.41.1.003.2-.013.295-.045l-.01.003zm-.18.527l-.21.06c-.12-.163-.276-.27-.394-.442l.247-.07c.081.207.259.266.357.452zm-3.04.992c-.14-.236-.377-.3-.494-.575l.19-.054c.044.312.291.5.304.63zm2.195-1.346c.126.168.262.328.408.48-.094.015-.215.087-.293.063-.031-.191-.272-.263-.343-.478l.228-.065zm-.485.538c-.353.26-.754.454-1.18.569-.228-.027-.37-.203-.448-.487a9.93 9.93 0 001.478-.463c.064.118.114.244.148.375l.002.006zm-3.562-.596c.356.358.855.48 1.336.628-.49.252-1.02.56-1.494.768-.381.34-.904.62-1.29.966-.294-.775-.562-1.742-.817-2.49.44.59 1.299.449 2.265.128zm-1.995-.403a.488.488 0 01-.033-.32.517.517 0 01.173-.278 2.754 2.754 0 011.033-.137c.16.286.342.56.546.818-.624.202-1.483.386-1.719-.083zm3.54.395c.232-.03.568-.015.583-.206-.208-.141-.52-.001-.798.03-.262.032-.526.03-.786-.005-.067-.008-.062.018-.133.038-.065-.144-.267-.197-.283-.335.327.067.662.098.998.091.15.003.757.034.747-.133-.015-.203-.607-.045-.732-.05-.333-.007-.696-.082-.985-.096-.108 0-.06.132-.137.099-.082-.177-.27-.319-.305-.489a9.475 9.475 0 001.574.166c.146-.002.45.03.442-.186a1.347 1.347 0 00-.505-.035 7.755 7.755 0 01-1.532-.158.179.179 0 00-.109.052 1.165 1.165 0 01-.127-.302 5.633 5.633 0 001.513.163c.156.001.39.05.492-.081-.07-.178-.32-.139-.474-.143-.588-.004-1.15.005-1.6-.177l-.036-.128c.973.182 2.61-.156 3.98-.665.565-.21 1.116-.366 1.475-.702.035.122-.027.183.029.31a3.54 3.54 0 01-1.1.633c-.093.041-.255.027-.24.169.084.12.274.032.406-.018.322-.127.629-.289.915-.481.052.414-.195.498-.62.715-.163.083-.62.262-.56.418.059.156.285-.056.362-.104.237-.141.537-.241.739-.37-.017.106-.005.232-.079.301a4.491 4.491 0 01-.478.278c-.33.131-.817.137-.647.404.3-.106.822-.236 1.079-.41a.68.68 0 01-.199.317c-.197.148-.638.104-.684.353.063.102.24.002.384-.03-.284.295-.619.54-.99.722-.168.064-.39.093-.59.17a2.655 2.655 0 01-.485.178 2.184 2.184 0 01-1.189-.256 6.37 6.37 0 00.69-.04l-.004-.007zm2.424-3.936c.262-.006.683-.057.696.2.014.256-.829.613-1.096.71-.696.274-1.414.494-2.145.657-.38.058-.764.091-1.149.1-.312.02-.93.091-.97-.22-.023-.157.266-.376.426-.461a8.64 8.64 0 011.306-.453c.072.076.22.024.295.093.072.486.368.767.715.55.232-.142.263-.518.11-.845a5.68 5.68 0 011.816-.343l-.004.012zm-5.528-1.276c.494.655 1.197 1.104 1.653 1.733-.608.2-1.344.547-1.152 1.165-.143.172.004.501.083.792a3.005 3.005 0 00-1.082.19c-.2.163-.34.385-.396.63-.407-1.235-.948-2.403-1.338-3.83.217-.033.43-.081.64-.145.21.302.489.433.728.667.083.08.176.18.267.28.091.1.152.27.322.187-.035-.28-.304-.468-.498-.652s-.429-.368-.633-.536l.321-.092c.334.407.863.78 1.173 1.137.074.084.102.238.221.194.18-.051-.056-.33-.11-.385-.355-.36-.742-.652-1.054-1.012l.323-.092c.322.398.71.748 1.062 1.108.099.103.224.314.423.257.044-.18-.153-.282-.255-.388a12.743 12.743 0 01-1.03-1.088c.135-.038.21-.106.333-.134l-.001.014zm1.002.54c.275.206.533.431.773.675.066.082.078.274.263.2.055-.335-.358-.54-.542-.738.11.003.233-.023.344-.018.09.105.201.216.303.33.102.114.19.292.362.253a.094.094 0 00.029-.03.088.088 0 00.01-.04 3.295 3.295 0 00-.474-.58c.312.045.399.481.725.508.084-.274-.295-.411-.41-.597l.42-.12c.097.188.281.223.384.405a.188.188 0 00-.107.047.179.179 0 00-.057.1c.02.187-.103.299-.1.489-.263-.086-.684.115-1.056.204-.497-.65-1.165-1.01-1.63-1.72a.714.714 0 01.292-.143c.13.276.286.54.465.788l.006-.013zm1.557-2.415c.141.148.343.259.385.507.072.544-1.188.707-1.148-.049a.281.281 0 00.13-.126.262.262 0 00.023-.175 1.74 1.74 0 01.633-.164l-.023.007zm-1.503.95c-.878.418-1.866.929-2.99 1.155-.284.056-.97.112-1.08-.09-.069-.125.03-.303.149-.418.274-.27.88-.496 1.377-.595.997-.196 1.95-.354 2.874-.486.168.259-.14.342-.33.434zm-3.327-.593c.074.191.248.213.335.382a2.817 2.817 0 00-.728.268l-.142-.496c.172-.072.35-.13.53-.17l.005.016zm.855.25a1.35 1.35 0 00-.27.06c-.114-.138-.254-.225-.372-.354.293-.145.466.15.641.293v.002zm.503-.123l-.221.064c-.147-.138-.314-.26-.46-.385.3-.197.526.107.69.319l-.01.002zm.1-.586c.134.192.302.303.431.494-.397.134-.479-.275-.719-.412l.288-.082zm.843.436c-.182.091-.266-.092-.342-.181-.075-.09-.2-.217-.278-.32l.443-.126.179.626h-.002zm3.74-1.65c.287 1.004.702 2.085.052 2.69-.33.303-1.39.677-2.029.78-.5.08-.73-.266-.88-.702.234-.129.479-.239.73-.33.682.632 2.034-.02 1.61-.939-.23-.498-.732-.744-1.476-.392-.15.073-.179.212-.327.294-.15.055-.306.092-.464.113-.17.034-.353.03-.556.08a5.953 5.953 0 00-.175-.687c1.21-.367 2.3-.525 3.519-.907h-.005zm2.642-.858l.01.038c.242 1.025.534 1.861.753 2.907.156.79.454 1.586.678 2.368a33.94 33.94 0 01.911 3.537c-.895.05-1.825-.014-2.796.187-.138.039-.316.125-.459.071.394-.297.85-.666 1.06-1.198a3.48 3.48 0 00.154-.98c.033-.57.129-1.046-.158-1.704-.075-.17-.423-.298-.61-.323a4.585 4.585 0 00-1.319.082c-.291.06-.577.165-.838.24-.055.016-.19.107-.237.008-.121-.08.102-.112.042-.21a2.327 2.327 0 00-.292-.378c-.104-.105-.26-.204-.272-.297.18-.029.246-.12.41-.159.09.133.237.238.347.377.11.14.178.371.39.35.04-.342-.383-.557-.544-.82.072-.05.15-.092.232-.126.103.16.266.311.405.48.14.17.262.43.485.323-.147-.364-.503-.589-.72-.926.058-.067.12-.131.184-.193.13.168.272.326.424.475.143.141.246.39.467.403.07-.31-.277-.466-.458-.663-.115-.126-.171-.288-.313-.372.003-.143.096-.241.137-.359.123.128.25.279.363.433.114.154.207.378.412.359.095-.101-.035-.22-.084-.294a2.766 2.766 0 00-.205-.278c-.242-.278-.574-.444-.418-.816.115.14.233.302.358.455.125.153.22.352.412.36.072-.24-.189-.424-.343-.62-.239-.3-.57-.527-.52-.981.127.21.333.395.487.614.153.218.265.518.532.563.115-.125-.055-.274-.125-.362a8.159 8.159 0 01-.263-.342c-.34-.481-.837-.83-.926-1.502.209.062.278.296.4.461.24.323.541.629.775.97.109.16.204.402.428.414.122-.194-.14-.331-.237-.47-.36-.502-.742-.985-1.079-1.457l.823-.236c.294.376.577.82.874 1.18.09.108.183.303.355.295.112-.152-.082-.286-.156-.394-.314-.374-.6-.77-.854-1.186.1-.028.134-.073.243-.088.129.177.244.362.343.556.112.182.185.445.403.463.106-.125-.048-.295-.122-.426-.133-.231-.293-.462-.397-.66.177-.051.26-.133.447-.17v.02zM8.185 13.247c-.174-.372-.333-.683-.464-1.04-.05-.135-.078-.272-.115-.402a3.474 3.474 0 01-.157-.333 2.109 2.109 0 01.125-1.15c.296-.637 1.272-.947 2.09-1.276a9.865 9.865 0 012.864-.591c.186.156.53-.014.877-.114.644-.184 1.081-.404 1.605-.598.877-.338 1.78-.61 2.698-.813a1.67 1.67 0 01.88.045c.688.39 1.064 2.193 1.207 3.134a.607.607 0 01-.043.457.654.654 0 01-.354.311c-.14-.075-.358-.462-.492-.195.062.166.212.18.297.31-.102.019-.13.077-.21.1-.175.002-.293-.328-.448-.268-.274.107.27.384.197.405-.058.056-.221.063-.274.12-.139-.057-.186-.265-.375-.231.01.034-.06.03-.042.072-.021.116.127.157.174.247l-.305.087c-.113-.135-.202-.31-.384-.327-.032.03-.073.055-.074.101.06.151.196.175.258.323l-.285.082c-.15.01-.348-.502-.483-.456-.22.063.135.47.233.527l-.343.099a3.335 3.335 0 01-.29-.293c-.1-.116-.169-.28-.337-.242-.094.258.28.4.38.606l-.306.087c-.22-.167-.478-.784-.735-.543.005.018-.009.026-.007.042.186.175.358.365.512.567l-.283.082c-.234-.125-.33-.491-.636-.493a.102.102 0 00-.042.072c.071.182.3.32.43.492l-.307.088a4.69 4.69 0 01-.396-.382c-.07-.082-.088-.224-.211-.159-.227.12.347.567.36.612a.762.762 0 01-.296.045c-.062-.132-.206-.192-.322-.286-.115-.093-.153-.276-.315-.305-.19.285.282.474.416.655l-.222.063c-.246-.09-.32-.473-.626-.456.008.025-.03.027-.03.047.043.207.272.32.38.489a1.178 1.178 0 01-.416.059c-.092-.204-.266-.537-.476-.359.005.185.245.197.271.438l-.305.088a2.564 2.564 0 00-.287-.275c-.079-.092-.13-.297-.305-.23-.08.23.253.406.369.569l-.248.071c-.18-.179-.264-.514-.569-.473.008.026-.022.039-.021.066.112.165.237.322.373.47l-.285.081c-.23-.229-.422-.57-.742-.642-.088.159.097.288.191.383.131.086.243.195.332.322l-.287.082c-.197-.209-.372-.462-.637-.552-.143.287.312.371.416.616l-.306.087c-.186-.2-.309-.51-.577-.57-.13.257.28.42.373.65-.084.04-.172.071-.263.093-.193-.223-.326-.554-.598-.642-.127.267.284.472.388.703l-.221.063a.385.385 0 00-.062-.141c-.214-.077-.247-.469-.548-.399.008.026-.022.04-.022.065.091.218.386.377.395.543-.191-.017-.247-.268-.407-.344-.067-.091-.086-.224-.21-.159-.208.113.277.485.33.58-.657.212-1.156-.129-1.41-.669l-.01.012zm.381-5.08c.664-.19 1.543-.463 2.167-.582.821-.158 1.77-.508 2.691-.772.923-.265 1.908-.61 2.71-.777.261-.06.531-.07.795-.03.142.204.254.426.333.66-.642.216-1.257.317-1.849.53-.759.276-1.483.672-2.267.81-.596.106-1.3.066-1.945.2a15.43 15.43 0 00-2.972 1.012c-.173-.502.06-.79.337-1.051zM7.87 9.399a2.212 2.212 0 00-.72.946 2.091 2.091 0 00-.112 1.162c.04.135.093.267.156.393.155.416.32.874.5 1.24.355.732.812 1.3 1.592 1.232.048.206.112.407.192.602-.292.268-.641.645-.322 1.106.147.214.452.152.695.262a35.868 35.868 0 001.222 3.547c.25.663.357 1.294.606 1.971.087.238.184.425.24.623.073.344.183.68.328 1-.884.254-1.156.841-.82 1.747.36.554 1.26.503 2.098.332a4.92 4.92 0 00.715-.244c.9-.334 2.015-.578 3.072-.881 1.183-.34 2.372-.644 3.306-.99.866-.32 1.923-.498 2.468-.966.093-.085.169-.184.224-.295.121-.346-.1-1.25-.374-1.522-.307-.306-.772-.258-1.267-.173-.083-.387-.17-.818-.263-1.275-.303-1.506-.998-3.065-1.338-4.668-.212-1.005-.553-2.096-.818-3.145.642-.34 1.063-.625.93-1.44a12.83 12.83 0 00-.552-2.208 2.714 2.714 0 00-.849-1.134 2.26 2.26 0 00-1.093-.065c-.19-.284-.3-.796-.612-.917a2.458 2.458 0 00-1.03.017c-.772.143-1.757.504-2.726.782-.969.278-1.985.64-2.729.783-.31.059-.787.186-1.211.308-.346.067-.684.17-1.008.307a1.912 1.912 0 00-.526.612c-.1.318-.088.657.036.962l-.01-.01z" fill="#fff"/><defs><radialGradient id="paint0_radial_76_2594" cx="0" cy="0" r="1" gradientUnits="userSpaceOnUse" gradientTransform="matrix(0 15 -15 0 15 15)"><stop stop-color="#35722F"/><stop offset="0" stop-color="#35722F"/><stop offset="1" stop-color="#38563A"/></radialGradient></defs></svg>