<svg width="22" height="20" fill="none" xmlns="http://www.w3.org/2000/svg"><path d="M2 19.225a2 2 0 01-2-2v-3.497c0-1.6.28-3.247.84-4.944a22.9 22.9 0 012.216-4.797A20.389 20.389 0 015 1.263c.6-.704 1.63-.799 2.409-.3l1.599 1.022c.885.566 1.175 1.719.732 2.672A31.79 31.79 0 008.498 7.75c-.582 1.698-.874 3.69-.874 5.978v3.497a2 2 0 01-2 2H2zm11.42 0a2 2 0 01-2-2v-3.497c0-1.6.28-3.247.84-4.944a22.899 22.899 0 012.216-4.797 20.377 20.377 0 011.944-2.724c.6-.704 1.63-.799 2.409-.3l1.599 1.022c.885.566 1.175 1.719.731 2.672a31.775 31.775 0 00-1.241 3.093c-.582 1.698-.874 3.69-.874 5.978v3.497a2 2 0 01-2 2H13.42z" fill="#434343"/></svg>