<svg width="137" height="20" fill="none" xmlns="http://www.w3.org/2000/svg"><path d="M20.434 9.07a1.404 1.404 0 00-.003-2.253 1.408 1.408 0 00-.815-.275l-5.701-.215a.146.146 0 01-.127-.095l-1.97-5.31A1.403 1.403 0 0010.497 0a1.409 1.409 0 00-1.321.922l-1.964 5.33a.145.145 0 01-.127.094l-5.702.215a1.408 1.408 0 00-1.315.972A1.4 1.4 0 00.566 9.09l4.473 3.509a.145.145 0 01.05.151L3.55 18.194a1.4 1.4 0 00.527 1.524 1.409 1.409 0 001.614.025l4.727-3.162a.14.14 0 01.158 0l4.726 3.162a1.396 1.396 0 001.616 0 1.391 1.391 0 00.526-1.518l-1.553-5.462a.138.138 0 01.051-.152l4.492-3.54z" fill="url(#paint0_linear_76_3833)"/><path d="M49.434 9.07a1.404 1.404 0 00-.003-2.253 1.408 1.408 0 00-.814-.275l-5.702-.215a.146.146 0 01-.127-.095l-1.97-5.31A1.403 1.403 0 0039.497 0a1.408 1.408 0 00-1.321.922l-1.964 5.33a.146.146 0 01-.127.094l-5.701.215a1.408 1.408 0 00-1.316.972 1.401 1.401 0 00.498 1.557l4.473 3.509a.145.145 0 01.05.151l-1.539 5.444a1.4 1.4 0 00.527 1.524 1.409 1.409 0 001.614.025l4.727-3.162a.14.14 0 01.158 0l4.726 3.162a1.396 1.396 0 001.616 0 1.391 1.391 0 00.526-1.518l-1.553-5.462a.138.138 0 01.051-.152l4.492-3.54z" fill="url(#paint1_linear_76_3833)"/><path d="M78.434 9.07a1.404 1.404 0 00-.003-2.253 1.408 1.408 0 00-.814-.275l-5.702-.215a.146.146 0 01-.127-.095l-1.97-5.31A1.403 1.403 0 0068.497 0a1.408 1.408 0 00-1.321.922l-1.964 5.33a.146.146 0 01-.127.094l-5.701.215a1.408 1.408 0 00-1.316.972 1.401 1.401 0 00.498 1.557l4.473 3.509a.145.145 0 01.05.151l-1.539 5.444a1.4 1.4 0 00.527 1.524 1.409 1.409 0 001.614.025l4.727-3.162a.14.14 0 01.158 0l4.726 3.162a1.396 1.396 0 001.616 0 1.391 1.391 0 00.525-1.518l-1.552-5.462a.138.138 0 01.051-.152l4.492-3.54z" fill="url(#paint2_linear_76_3833)"/><path d="M107.434 9.07a1.403 1.403 0 00-.817-2.528l-5.702-.215a.15.15 0 01-.078-.029.15.15 0 01-.049-.066l-1.97-5.31A1.403 1.403 0 0097.497 0a1.408 1.408 0 00-1.321.922l-1.964 5.33a.146.146 0 01-.127.094l-5.701.215a1.408 1.408 0 00-1.316.972 1.401 1.401 0 00.498 1.557l4.473 3.509a.145.145 0 01.05.151l-1.539 5.444a1.4 1.4 0 00.526 1.524 1.409 1.409 0 001.616.025l4.726-3.162a.14.14 0 01.158 0l4.726 3.162a1.396 1.396 0 001.616 0 1.39 1.39 0 00.526-1.518l-1.553-5.462a.14.14 0 01.051-.152l4.492-3.54z" fill="url(#paint3_linear_76_3833)"/><path d="M136.434 9.07a1.403 1.403 0 00-.817-2.528l-5.702-.215a.15.15 0 01-.078-.029.15.15 0 01-.049-.066l-1.97-5.31a1.405 1.405 0 00-2.127-.669 1.405 1.405 0 00-.515.669l-1.964 5.33a.15.15 0 01-.049.065.15.15 0 01-.078.029l-5.702.215a1.41 1.41 0 00-1.315.972 1.397 1.397 0 00.498 1.557l4.473 3.509a.147.147 0 01.051.151l-1.54 5.444a1.4 1.4 0 00.527 1.524 1.407 1.407 0 001.614.025l4.727-3.162a.14.14 0 01.158 0l4.726 3.162a1.396 1.396 0 001.616 0 1.39 1.39 0 00.526-1.518l-1.553-5.462a.14.14 0 01.051-.152l4.492-3.54z" fill="url(#paint4_linear_76_3833)"/><defs><linearGradient id="paint0_linear_76_3833" x1="10.5" y1="0" x2="10.5" y2="20" gradientUnits="userSpaceOnUse"><stop stop-color="#8614DD"/><stop offset="1" stop-color="#491174"/></linearGradient><linearGradient id="paint1_linear_76_3833" x1="39.5" y1="0" x2="39.5" y2="20" gradientUnits="userSpaceOnUse"><stop stop-color="#8614DD"/><stop offset="1" stop-color="#491174"/></linearGradient><linearGradient id="paint2_linear_76_3833" x1="68.5" y1="0" x2="68.5" y2="20" gradientUnits="userSpaceOnUse"><stop stop-color="#8614DD"/><stop offset="1" stop-color="#491174"/></linearGradient><linearGradient id="paint3_linear_76_3833" x1="97.5" y1="0" x2="97.5" y2="20" gradientUnits="userSpaceOnUse"><stop stop-color="#8614DD"/><stop offset="1" stop-color="#491174"/></linearGradient><linearGradient id="paint4_linear_76_3833" x1="126.5" y1="0" x2="126.5" y2="20" gradientUnits="userSpaceOnUse"><stop stop-color="#8614DD"/><stop offset="1" stop-color="#491174"/></linearGradient></defs></svg>