<svg width="330" height="91" fill="none" xmlns="http://www.w3.org/2000/svg"><path d="M167.874 74.159V89.77h-60.933V76.56l28.067-29.542c2.479-2.842 4.478-5.384 5.998-7.626 1.519-2.282 2.619-4.343 3.298-6.184.72-1.842 1.08-3.503 1.08-4.984 0-2.522-.38-4.624-1.14-6.305-.719-1.721-1.799-3.022-3.238-3.903-1.4-.88-3.139-1.32-5.218-1.32s-3.898.6-5.457 1.8c-1.56 1.201-2.779 2.843-3.659 4.924-.839 2.082-1.259 4.423-1.259 7.025h-20.271c0-5.364 1.299-10.267 3.898-14.71 2.639-4.444 6.297-7.987 10.975-10.629 4.678-2.682 10.096-4.023 16.253-4.023 6.437 0 11.835 1.001 16.193 3.003 4.358 2.001 7.636 4.903 9.836 8.706 2.239 3.763 3.358 8.306 3.358 13.63 0 3.043-.48 5.965-1.439 8.767-.96 2.802-2.339 5.584-4.139 8.346-1.799 2.722-3.998 5.525-6.597 8.407-2.559 2.882-5.477 5.944-8.756 9.187l-11.275 13.03h34.425zm70.949-36.088v15.972c0 6.285-.74 11.75-2.219 16.393-1.44 4.643-3.519 8.486-6.237 11.528-2.679 3.043-5.878 5.304-9.596 6.785-3.718 1.482-7.817 2.222-12.295 2.222-3.598 0-6.957-.46-10.075-1.38-3.119-.962-5.938-2.403-8.457-4.324-2.479-1.962-4.618-4.403-6.417-7.326-1.799-2.922-3.178-6.364-4.138-10.328-.96-4.002-1.439-8.526-1.439-13.57V38.071c0-6.324.719-11.789 2.159-16.392 1.479-4.644 3.578-8.486 6.297-11.529 2.719-3.042 5.937-5.304 9.656-6.785 3.718-1.481 7.816-2.222 12.294-2.222 3.599 0 6.937.48 10.016 1.441a25.292 25.292 0 018.456 4.324c2.519 1.921 4.658 4.343 6.418 7.265 1.798 2.922 3.177 6.385 4.138 10.388.959 3.963 1.439 8.466 1.439 13.51zm-20.211 18.434V35.49c0-2.802-.16-5.244-.48-7.325-.28-2.082-.72-3.843-1.319-5.284-.56-1.441-1.26-2.602-2.099-3.483-.84-.92-1.8-1.581-2.879-1.981-1.04-.44-2.199-.66-3.479-.66-1.599 0-3.038.34-4.318 1.02-1.239.64-2.299 1.681-3.178 3.122-.88 1.441-1.56 3.363-2.04 5.765-.439 2.401-.659 5.344-.659 8.826v21.016c0 2.842.14 5.324.42 7.446.319 2.081.759 3.863 1.319 5.344.6 1.44 1.319 2.622 2.159 3.543.84.88 1.799 1.52 2.879 1.921 1.079.4 2.259.6 3.538.6 1.56 0 2.959-.32 4.198-.96 1.24-.64 2.299-1.682 3.179-3.123.92-1.48 1.599-3.422 2.039-5.824.48-2.442.72-5.424.72-8.947zm30.886-32.725v-4.623c0-3.323.72-6.345 2.16-9.067 1.439-2.722 3.597-4.904 6.476-6.545s6.457-2.462 10.735-2.462c4.399 0 8.037.82 10.916 2.462 2.879 1.641 5.017 3.823 6.417 6.545 1.44 2.722 2.16 5.744 2.16 9.067v4.623c0 3.243-.72 6.225-2.16 8.947-1.4 2.722-3.538 4.904-6.417 6.545-2.839 1.641-6.417 2.462-10.735 2.462-4.358 0-7.977-.82-10.856-2.462-2.879-1.641-5.058-3.823-6.536-6.545-1.44-2.722-2.16-5.704-2.16-8.947zm12.955-4.623v4.623a8.34 8.34 0 00.719 3.423 6.322 6.322 0 002.16 2.642c.998.64 2.218.96 3.658.96 1.48 0 2.678-.32 3.598-.96a6.05 6.05 0 002.039-2.642c.48-1.08.72-2.222.72-3.423v-4.623c0-1.281-.24-2.462-.72-3.543a5.546 5.546 0 00-2.099-2.582c-.959-.68-2.179-1.02-3.659-1.02-1.399 0-2.578.34-3.537 1.02a5.92 5.92 0 00-2.16 2.582c-.48 1.081-.719 2.262-.719 3.543zm28.487 53.8v-4.623c0-3.282.72-6.285 2.159-9.007 1.479-2.722 3.659-4.903 6.537-6.545 2.919-1.64 6.517-2.461 10.795-2.461 4.398 0 8.017.82 10.855 2.461 2.879 1.642 5.019 3.823 6.418 6.545 1.44 2.722 2.159 5.725 2.159 9.007v4.624c0 3.282-.719 6.284-2.159 9.006-1.399 2.722-3.519 4.904-6.357 6.545-2.839 1.641-6.418 2.462-10.735 2.462-4.358 0-7.998-.82-10.916-2.462-2.918-1.64-5.118-3.823-6.597-6.545-1.439-2.722-2.159-5.724-2.159-9.006zm13.014-4.623v4.624c0 1.24.3 2.401.9 3.482a7.627 7.627 0 002.398 2.642c1 .64 2.099.96 3.299.96 1.839 0 3.199-.32 4.078-.96.92-.68 1.52-1.56 1.8-2.642.32-1.08.48-2.242.48-3.482v-4.624a8.5 8.5 0 00-.72-3.483 5.932 5.932 0 00-2.159-2.581c-.959-.681-2.159-1.021-3.599-1.021-1.439 0-2.638.34-3.598 1.02a5.919 5.919 0 00-2.159 2.582 8.483 8.483 0 00-.72 3.483zm11.515-53.44l-42.641 68.331-9.416-4.743 42.642-68.332 9.415 4.744z" fill="url(#paint0_linear_205_2)"/><path d="M5.798 58.308L0 64l27.5 27L55 64l-5.798-5.692L31.6 75.59V37h-8.2v38.59L5.798 58.308z" fill="url(#paint1_linear_205_2)"/><defs><linearGradient id="paint0_linear_205_2" x1="218.842" y1="-24.595" x2="218.842" y2="89.77" gradientUnits="userSpaceOnUse"><stop stop-color="#FFC28A"/><stop offset="1" stop-color="#FFC700"/></linearGradient><linearGradient id="paint1_linear_205_2" x1="55" y1="64" x2="0" y2="64" gradientUnits="userSpaceOnUse"><stop stop-color="#FFC28A"/><stop offset="1" stop-color="#FFC700"/></linearGradient></defs></svg>