<svg width="530" height="99" fill="none" xmlns="http://www.w3.org/2000/svg"><path d="M5.798 77.692L0 72l27.5-27L55 72l-5.798 5.692L31.6 60.41V99h-8.2V60.41L5.798 77.692z" fill="url(#paint0_linear_76_3764)"/><path d="M123.717 70.038a3.715 3.715 0 001.308-1.851 3.754 3.754 0 00-.003-2.274 3.717 3.717 0 00-1.313-1.847 3.658 3.658 0 00-2.132-.73l-14.933-.57a.379.379 0 01-.332-.25l-5.161-14.074a3.714 3.714 0 00-1.349-1.77 3.66 3.66 0 00-4.22 0 3.714 3.714 0 00-1.35 1.77L89.09 62.565a.384.384 0 01-.332.252l-14.933.57a3.66 3.66 0 00-2.133.73 3.718 3.718 0 00-1.313 1.847 3.754 3.754 0 00-.003 2.273c.234.74.692 1.387 1.308 1.85l11.714 9.3a.386.386 0 01.133.401l-4.032 14.425a3.754 3.754 0 00.058 2.239 3.73 3.73 0 001.32 1.8 3.66 3.66 0 004.23.066l12.379-8.377a.363.363 0 01.414 0l12.378 8.377a3.625 3.625 0 005.553-1.79c.246-.72.266-1.5.056-2.231l-4.066-14.475a.374.374 0 01.133-.402l11.764-9.382z" fill="url(#paint1_linear_76_3764)"/><path d="M203.648 64.573a4.42 4.42 0 001.546-2.2 4.491 4.491 0 00-.004-2.702 4.415 4.415 0 00-1.552-2.196 4.308 4.308 0 00-2.52-.868l-17.648-.677a.449.449 0 01-.392-.299l-6.099-16.728a4.412 4.412 0 00-1.594-2.105 4.306 4.306 0 00-2.494-.798 4.31 4.31 0 00-2.495.798 4.412 4.412 0 00-1.594 2.105l-6.079 16.788a.449.449 0 01-.392.299l-17.648.677a4.313 4.313 0 00-2.521.868 4.413 4.413 0 00-1.551 2.195 4.483 4.483 0 00-.004 2.703 4.42 4.42 0 001.546 2.2l13.844 11.053a.461.461 0 01.157.477l-4.765 17.147a4.49 4.49 0 00.068 2.661 4.422 4.422 0 001.561 2.14 4.304 4.304 0 004.999.08l14.628-9.96a.43.43 0 01.491 0l14.628 9.958a4.27 4.27 0 002.5.811c.897 0 1.77-.283 2.501-.81a4.375 4.375 0 001.561-2.128 4.445 4.445 0 00.066-2.652l-4.804-17.207a.441.441 0 01.157-.478l13.903-11.152z" fill="url(#paint2_linear_76_3764)"/><path d="M300.389 55.83a5.545 5.545 0 001.95-2.759 5.6 5.6 0 00-.004-3.389 5.545 5.545 0 00-1.958-2.753 5.458 5.458 0 00-3.18-1.088l-22.264-.85a.567.567 0 01-.494-.374l-7.694-20.977a5.537 5.537 0 00-2.011-2.64 5.454 5.454 0 00-6.293 0 5.54 5.54 0 00-2.012 2.64l-7.668 21.052a.573.573 0 01-.495.374l-22.264.85a5.46 5.46 0 00-3.18 1.088 5.543 5.543 0 00-1.957 2.753 5.593 5.593 0 00-.005 3.39 5.54 5.54 0 001.951 2.758l17.465 13.86a.574.574 0 01.197.599l-6.011 21.501a5.596 5.596 0 00.087 3.337 5.538 5.538 0 001.968 2.682 5.457 5.457 0 006.307.1l18.454-12.487a.542.542 0 01.618 0l18.455 12.486A5.407 5.407 0 00283.505 99c1.13 0 2.233-.355 3.154-1.017a5.492 5.492 0 001.97-2.667 5.536 5.536 0 00.083-3.326l-6.06-21.576a.543.543 0 01.005-.332.545.545 0 01.192-.268l17.54-13.984z" fill="url(#paint3_linear_76_3764)"/><path d="M409.265 49.819a6.315 6.315 0 002.236-3.143 6.338 6.338 0 00-.005-3.86 6.313 6.313 0 00-2.244-3.137 6.284 6.284 0 00-3.645-1.24l-25.522-.968a.653.653 0 01-.567-.426l-8.82-23.898a6.315 6.315 0 00-2.305-3.008 6.283 6.283 0 00-9.52 3.008l-8.791 23.983a.656.656 0 01-.567.427l-25.523.967a6.28 6.28 0 00-3.644 1.24 6.323 6.323 0 00-.014 10.14l20.021 15.79a.658.658 0 01.227.683l-6.891 24.494a6.333 6.333 0 002.356 6.858 6.281 6.281 0 007.229.113l21.155-14.225a.623.623 0 01.709 0l21.155 14.225a6.225 6.225 0 007.232 0 6.264 6.264 0 002.353-6.828l-6.947-24.58a.631.631 0 01.226-.683l20.106-15.932z" fill="url(#paint4_linear_76_3764)"/><path d="M527.223 44.9a6.95 6.95 0 002.45-3.456 6.997 6.997 0 00-.006-4.247 6.947 6.947 0 00-2.459-3.45 6.868 6.868 0 00-3.994-1.364l-27.966-1.064a.71.71 0 01-.621-.47l-9.664-26.287a6.936 6.936 0 00-2.526-3.309A6.866 6.866 0 00478.484 0a6.866 6.866 0 00-3.952 1.254 6.936 6.936 0 00-2.526 3.308l-9.633 26.381a.711.711 0 01-.621.47l-27.966 1.064c-1.44.023-2.837.5-3.994 1.364a6.947 6.947 0 00-2.459 3.45 6.997 6.997 0 00-.006 4.247 6.95 6.95 0 002.45 3.456l21.938 17.369a.717.717 0 01.248.751l-7.55 26.945a6.988 6.988 0 00.108 4.182 6.948 6.948 0 002.473 3.36 6.862 6.862 0 007.921.124l23.181-15.646a.68.68 0 01.777 0l23.181 15.647a6.8 6.8 0 007.923 0 6.875 6.875 0 002.474-3.343 6.927 6.927 0 00.105-4.168l-7.613-27.038a.692.692 0 01.249-.752l22.031-17.524z" fill="url(#paint5_linear_76_3764)"/><defs><linearGradient id="paint0_linear_76_3764" x1="55" y1="72" x2="0" y2="72" gradientUnits="userSpaceOnUse"><stop stop-color="#FFC28A"/><stop offset="1" stop-color="#FFC700"/></linearGradient><linearGradient id="paint1_linear_76_3764" x1="97.7" y1="46" x2="97.7" y2="99" gradientUnits="userSpaceOnUse"><stop stop-color="#FFC28A"/><stop offset="1" stop-color="#FFC700"/></linearGradient><linearGradient id="paint2_linear_76_3764" x1="172.9" y1="36" x2="172.9" y2="99" gradientUnits="userSpaceOnUse"><stop stop-color="#FFC28A"/><stop offset="1" stop-color="#FFC700"/></linearGradient><linearGradient id="paint3_linear_76_3764" x1="261.6" y1="20" x2="261.6" y2="99" gradientUnits="userSpaceOnUse"><stop stop-color="#FFC28A"/><stop offset="1" stop-color="#FFC700"/></linearGradient><linearGradient id="paint4_linear_76_3764" x1="364.8" y1="9" x2="364.8" y2="99" gradientUnits="userSpaceOnUse"><stop stop-color="#FFC28A"/><stop offset="1" stop-color="#FFC700"/></linearGradient><linearGradient id="paint5_linear_76_3764" x1="478.5" y1="0" x2="478.5" y2="99" gradientUnits="userSpaceOnUse"><stop stop-color="#FFC28A"/><stop offset="1" stop-color="#FFC700"/></linearGradient></defs></svg>