<svg width="80" height="81" fill="none" xmlns="http://www.w3.org/2000/svg"><rect y=".5" width="80" height="80" rx="20" fill="#99C452"/><path d="M54 35.25h-3.5A5.256 5.256 0 0045.25 30v-3.5A8.76 8.76 0 0154 35.25z" fill="#fff"/><path d="M61 35.25h-3.5A12.264 12.264 0 0045.25 23v-3.5A15.767 15.767 0 0161 35.25zM47.583 50.093l3.92-3.92a3.792 3.792 0 014.09-.84l4.774 1.912a3.792 3.792 0 012.383 3.52v8.682a3.793 3.793 0 01-3.997 3.796C25.29 61.16 18.531 32.818 17.276 21.964a3.783 3.783 0 013.77-4.214h8.528a3.792 3.792 0 013.52 2.384l1.91 4.773a3.792 3.792 0 01-.84 4.09l-3.92 3.92s2.173 15.281 17.339 17.176z" fill="#fff"/></svg>