<svg width="32" height="32" fill="none" xmlns="http://www.w3.org/2000/svg"><g clip-path="url(#clip0_2011_268)"><path d="M1.079 10.713h29.806C28.716 4.578 22.87.181 15.994.176h-.024C9.093.18 3.248 4.578 1.079 10.713z" fill="#000"/><path d="M30.885 21.25H1.08c2.17 6.14 8.021 10.538 14.903 10.538s12.733-4.399 14.903-10.537z" fill="#FFCE00"/><path d="M30.885 21.25c.583-1.648.903-3.42.903-5.268 0-1.848-.32-3.62-.903-5.269H1.078a15.776 15.776 0 00-.902 5.27c0 1.847.32 3.62.903 5.268h29.806z" fill="#D00"/></g><defs><clipPath id="clip0_2011_268"><path fill="#fff" d="M0 0h32v32H0z"/></clipPath></defs></svg>