<svg width="72" height="72" fill="none" xmlns="http://www.w3.org/2000/svg"><circle cx="36" cy="36" r="36" fill="#F9FAFE"/><path d="M53.28 27.36v1.44a1.44 1.44 0 11-2.88 0v-1.44a4.325 4.325 0 00-4.32-4.32H25.92a4.325 4.325 0 00-4.32 4.32v14.4a4.325 4.325 0 004.32 4.32h4.32a1.44 1.44 0 110 2.88h-4.32c-3.97 0-7.2-3.23-7.2-7.2v-14.4c0-3.97 3.23-7.2 7.2-7.2h20.16c3.97 0 7.2 3.23 7.2 7.2zm-12.96 2.88h5.76a1.44 1.44 0 100-2.88h-5.76a1.44 1.44 0 100 2.88zm11.694 4.146a4.294 4.294 0 011.266 3.054 4.3 4.3 0 01-1.266 3.056l-9.658 9.658a5.724 5.724 0 01-4.072 1.688H36a1.44 1.44 0 01-1.44-1.44v-2.284c0-1.538.6-2.985 1.688-4.073l9.658-9.658a4.323 4.323 0 016.108 0v-.001zM50.4 37.44a1.44 1.44 0 00-2.458-1.018l-9.658 9.658a2.904 2.904 0 00-.844 2.036v.844h.844c.769 0 1.492-.3 2.036-.844l9.658-9.658a1.43 1.43 0 00.422-1.018zm-18.72 1.44h-3.266a1.45 1.45 0 01-1.248-.72 1.434 1.434 0 00-1.967-.525 1.437 1.437 0 00-.524 1.967 4.332 4.332 0 003.74 2.158h.387a1.44 1.44 0 102.88 0 4.325 4.325 0 004.32-4.32 3.977 3.977 0 00-3.334-3.935l-4.379-.73a1.106 1.106 0 01-.927-1.095c0-.793.645-1.44 1.44-1.44h3.266c.512 0 .99.277 1.248.72a1.438 1.438 0 001.967.526 1.438 1.438 0 00.524-1.967 4.333 4.333 0 00-3.74-2.16h-.387a1.44 1.44 0 10-2.88 0 4.325 4.325 0 00-4.32 4.32 3.977 3.977 0 003.334 3.935l4.379.73c.537.09.927.55.927 1.095 0 .793-.645 1.44-1.44 1.44v.001zm7.2-4.32a1.44 1.44 0 102.881 0 1.44 1.44 0 00-2.88 0z" fill="#000"/></svg>