<svg width="80" height="97" fill="none" xmlns="http://www.w3.org/2000/svg"><path opacity=".4" d="M60 56.583c0 1.072-.422 2.1-1.172 2.858A3.98 3.98 0 0156 60.625H24a3.98 3.98 0 01-2.828-1.184A4.063 4.063 0 0120 56.583c0-1.072.421-2.1 1.172-2.858A3.98 3.98 0 0124 52.542h32a3.98 3.98 0 012.828 1.183A4.063 4.063 0 0160 56.583zM44 68.708H24a3.98 3.98 0 00-2.828 1.184A4.063 4.063 0 0020 72.75c0 1.072.421 2.1 1.172 2.858A3.98 3.98 0 0024 76.792h20a3.98 3.98 0 002.828-1.184A4.063 4.063 0 0048 72.75c0-1.072-.422-2.1-1.172-2.858A3.98 3.98 0 0044 68.708zm36-26.331v34.415a20.34 20.34 0 01-5.865 14.282A19.92 19.92 0 0160 97H20a19.92 19.92 0 01-14.135-5.926A20.34 20.34 0 010 76.792V20.208A20.34 20.34 0 015.865 5.926 19.92 19.92 0 0120 0h18.06c3.678-.01 7.322.718 10.72 2.14a27.815 27.815 0 019.08 6.146l13.936 14.089a28.112 28.112 0 016.086 9.17A28.346 28.346 0 0180 42.377zM52.204 14A20.055 20.055 0 0048 10.848v17.444c0 1.072.421 2.1 1.172 2.858A3.98 3.98 0 0052 32.333h17.264a20.126 20.126 0 00-3.124-4.243L52.204 14zM72 42.377c0-.667-.128-1.306-.188-1.96H52a11.937 11.937 0 01-8.485-3.552A12.19 12.19 0 0140 28.292V8.273c-.648-.06-1.284-.19-1.94-.19H20a11.938 11.938 0 00-8.485 3.552A12.19 12.19 0 008 20.208v56.584c0 3.215 1.264 6.3 3.515 8.573A11.938 11.938 0 0020 88.917h40c3.182 0 6.235-1.278 8.485-3.552A12.19 12.19 0 0072 76.792V42.377z" fill="#fff"/></svg>