<svg width="97" height="97" fill="none" xmlns="http://www.w3.org/2000/svg"><path opacity=".4" d="M97 40.417c0-.295-.032-.59-.097-.877l-5.254-23.717A20.08 20.08 0 0071.909 0H25.091A20.079 20.079 0 005.367 15.823L.097 39.54a3.993 3.993 0 00-.097.877v4.041a16.102 16.102 0 004.042 10.683v21.65A20.233 20.233 0 0024.25 97h48.5a20.233 20.233 0 0020.208-20.208V55.14A16.102 16.102 0 0097 44.459v-4.042zm-88.917.44l5.174-23.28A12.052 12.052 0 0125.09 8.085h3.2V20.21a4.042 4.042 0 008.084 0V8.084h24.25v12.125a4.042 4.042 0 008.083 0V8.084h3.201a12.052 12.052 0 0111.834 9.494l5.174 23.28v3.6a8.084 8.084 0 01-8.084 8.084h-4.041a8.083 8.083 0 01-8.084-8.084 4.042 4.042 0 00-8.083 0 8.083 8.083 0 01-8.083 8.084h-8.084a8.083 8.083 0 01-8.083-8.084 4.042 4.042 0 00-8.083 0 8.084 8.084 0 01-8.084 8.084h-4.041a8.083 8.083 0 01-8.084-8.084v-3.6zm64.667 48.06h-48.5a12.125 12.125 0 01-12.125-12.125v-16.68c1.32.342 2.678.514 4.042.513h4.041a16.127 16.127 0 0012.125-5.484 16.127 16.127 0 0012.125 5.484h8.084a16.127 16.127 0 0012.125-5.484 16.126 16.126 0 0012.125 5.484h4.041a16.076 16.076 0 004.042-.513v16.68A12.125 12.125 0 0172.75 88.917z" fill="#fff"/></svg>