<svg width="66" height="99" fill="none" xmlns="http://www.w3.org/2000/svg"><path d="M45.375 99h-24.75C9.252 99 0 89.748 0 78.375v-57.75C0 9.252 9.252 0 20.625 0h24.75C56.748 0 66 9.252 66 20.625v57.75C66 89.748 56.748 99 45.375 99zM20.625 8.25c-6.823 0-12.375 5.552-12.375 12.375v57.75c0 6.823 5.552 12.375 12.375 12.375h24.75c6.823 0 12.375-5.552 12.375-12.375v-57.75c0-6.823-5.552-12.375-12.375-12.375h-24.75zM41.25 78.375a4.127 4.127 0 00-4.125-4.125h-8.25a4.127 4.127 0 00-4.125 4.125 4.127 4.127 0 004.125 4.125h8.25a4.127 4.127 0 004.125-4.125z" fill="#D7E8FF"/></svg>