<svg width="72" height="72" fill="none" xmlns="http://www.w3.org/2000/svg"><circle cx="36" cy="36" r="36" fill="#F9FAFE"/><path d="M44.93 22.986l-8.272-2.758a1.32 1.32 0 00-.834 0l-8.27 2.758a6.591 6.591 0 00-4.514 6.26v6.756c0 9.984 12.145 15.498 12.665 15.728a1.32 1.32 0 001.072 0c.52-.23 12.666-5.744 12.666-15.728v-6.755a6.59 6.59 0 00-4.514-6.261zm1.872 13.016c0 7.201-8.341 11.925-10.56 13.055C34.02 47.93 25.68 43.222 25.68 36.002v-6.755a3.96 3.96 0 012.71-3.757l7.851-2.618 7.852 2.618a3.96 3.96 0 012.71 3.757v6.755z" fill="#000"/><path d="M40.598 31.117l-5.528 5.545-2.963-3.09a1.321 1.321 0 10-1.902 1.83l3.044 3.169a2.469 2.469 0 001.776.792h.043a2.472 2.472 0 001.763-.73l5.64-5.64a1.325 1.325 0 00-1.873-1.876z" fill="#000"/></svg>