<svg width="39" height="46" fill="none" xmlns="http://www.w3.org/2000/svg"><path d="M31.78 4.102L19.772.098a1.917 1.917 0 00-1.211 0L6.553 4.102A9.57 9.57 0 000 13.192V23c0 14.496 17.633 22.501 18.388 22.835a1.916 1.916 0 001.556 0c.756-.335 18.39-8.34 18.39-22.835v-9.807a9.57 9.57 0 00-6.553-9.09zM34.5 23c0 10.455-12.112 17.313-15.334 18.954C15.941 40.319 3.833 33.482 3.833 23v-9.807a5.75 5.75 0 013.933-5.455l11.4-3.8 11.4 3.8a5.75 5.75 0 013.933 5.455V23z" fill="#0084F8"/><path d="M25.491 15.909l-8.027 8.05-4.3-4.485a1.918 1.918 0 00-3.176.536 1.917 1.917 0 00.414 2.12l4.42 4.6a3.589 3.589 0 002.577 1.15h.063a3.589 3.589 0 002.56-1.06l8.187-8.188a1.924 1.924 0 10-2.718-2.723z" fill="#0084F8"/></svg>