<svg width="72" height="72" fill="none" xmlns="http://www.w3.org/2000/svg"><circle cx="36" cy="36" r="36" fill="#F9FAFE"/><g clip-path="url(#clip0_502_437)"><path d="M36 49.2h-9.24a3.965 3.965 0 01-3.96-3.96V26.76a3.965 3.965 0 013.96-3.96h5.96c.215 0 .429.01.64.03v6.57a3.965 3.965 0 003.96 3.96h7.673a1.32 1.32 0 001.28-1.647 9.241 9.241 0 00-2.42-4.247l-4.6-4.599a9.18 9.18 0 00-6.533-2.707h-5.96c-3.64 0-6.6 2.96-6.6 6.6v18.48c0 3.64 2.96 6.6 6.6 6.6H36a1.319 1.319 0 100-2.64zm0-25.53c.502.288.966.644 1.387 1.064l4.6 4.599c.414.414.77.882 1.06 1.387H37.32A1.32 1.32 0 0136 29.4v-5.73zm-1.32 20.25c0 .73-.59 1.32-1.32 1.32h-6.6a1.319 1.319 0 110-2.64h6.6c.73 0 1.32.59 1.32 1.32zm0-5.28c0 .73-.59 1.32-1.32 1.32h-6.6a1.319 1.319 0 110-2.64h6.6c.73 0 1.32.59 1.32 1.32zm15.352-2.224l-5.036-1.67a1.313 1.313 0 00-.83 0l-5.036 1.67a2.634 2.634 0 00-1.809 2.503v4.387c0 4.713 4.904 7.528 6.402 8.277 0 0 .404.276.86.276.455 0 .768-.206.768-.206 1.522-.613 6.49-3.026 6.49-8.345V38.92a2.634 2.634 0 00-1.808-2.503l-.002-.001zm-.832 6.892c0 3.407-3.198 5.18-4.56 5.78-1.206-.647-4.68-2.77-4.68-5.78v-4.385l4.62-1.532 4.62 1.529v4.388z" fill="#000"/></g><defs><clipPath id="clip0_502_437"><path fill="#fff" transform="translate(20.16 20.16)" d="M0 0h31.68v31.68H0z"/></clipPath></defs></svg>