<svg width="42" height="46" fill="none" xmlns="http://www.w3.org/2000/svg"><path d="M20.694 15.333a7.666 7.666 0 100 15.333 7.666 7.666 0 000-15.333zm0 11.5a3.834 3.834 0 110-7.667 3.834 3.834 0 010 7.667z" fill="#0084F8"/><path d="M38.507 26.642l-.85-.491a17.443 17.443 0 000-6.306l.85-.49a5.754 5.754 0 00-5.75-9.967l-.853.492a17.205 17.205 0 00-5.46-3.147V5.75a5.75 5.75 0 00-11.5 0v.983a17.207 17.207 0 00-5.459 3.155l-.857-.496a5.753 5.753 0 00-5.75 9.966l.851.491a17.442 17.442 0 000 6.306l-.85.49a5.753 5.753 0 005.75 9.967l.852-.492a17.205 17.205 0 005.463 3.147v.983a5.75 5.75 0 0011.5 0v-.983a17.204 17.204 0 005.458-3.155l.857.494a5.753 5.753 0 105.75-9.966l-.002.002zm-4.883-7.238a13.51 13.51 0 010 7.188 1.917 1.917 0 00.889 2.171l2.078 1.2a1.918 1.918 0 01-1.917 3.322l-2.082-1.204a1.916 1.916 0 00-2.328.316 13.386 13.386 0 01-6.216 3.594 1.917 1.917 0 00-1.44 1.857v2.402a1.917 1.917 0 01-3.833 0v-2.4a1.916 1.916 0 00-1.44-1.857 13.386 13.386 0 01-6.213-3.601 1.917 1.917 0 00-2.329-.317l-2.078 1.202a1.918 1.918 0 01-2.87-1.406 1.917 1.917 0 01.954-1.913l2.077-1.2a1.917 1.917 0 00.89-2.172 13.509 13.509 0 010-7.187 1.917 1.917 0 00-.892-2.164l-2.077-1.2a1.917 1.917 0 111.916-3.322l2.082 1.204a1.917 1.917 0 002.327-.309 13.385 13.385 0 016.215-3.593 1.917 1.917 0 001.44-1.865v-2.4a1.917 1.917 0 113.833 0v2.4a1.917 1.917 0 001.44 1.857 13.386 13.386 0 016.215 3.601 1.916 1.916 0 002.33.317l2.077-1.202a1.918 1.918 0 111.917 3.32l-2.078 1.2a1.917 1.917 0 00-.888 2.163v-.002z" fill="#0084F8"/></svg>