<svg width="46" height="46" fill="none" xmlns="http://www.w3.org/2000/svg"><path d="M38.333 30.667a2.876 2.876 0 01-5.75 0 2.876 2.876 0 015.75 0zm5.75-15.334c-1.06 0-1.916.859-1.916 1.917v23a1.919 1.919 0 01-1.917 1.917H9.583c-3.17 0-5.75-2.58-5.75-5.75V17.24a9.594 9.594 0 005.748 1.927h19.167a1.916 1.916 0 100-3.834H9.583c-1.64 0-3.168-.73-4.249-1.924 1.052-1.164 2.559-1.91 4.25-1.91H23a1.916 1.916 0 100-3.832H9.583C3.833 7.667 0 12.458 0 17.25v19.167C0 41.7 4.3 46 9.583 46H40.25c3.17 0 5.75-2.58 5.75-5.75v-23a1.916 1.916 0 00-1.917-1.917zM32.014 8.071L34.5 5.616V17.25a1.916 1.916 0 103.833 0V5.65l2.498 2.43a1.913 1.913 0 002.71-.035 1.915 1.915 0 00-.038-2.71l-4.269-4.154a4.038 4.038 0 00-5.692-.008l-4.225 4.173a1.918 1.918 0 002.695 2.727l.002-.002z" fill="#0084F8"/></svg>