<svg width="47" height="47" fill="none" xmlns="http://www.w3.org/2000/svg"><path d="M17.258 46.034H1.918a1.918 1.918 0 110-3.835h15.34a1.917 1.917 0 110 3.835zm-3.835-7.67H1.918a1.917 1.917 0 110-3.835h11.505a1.918 1.918 0 110 3.835zm-3.835-7.67h-7.67a1.918 1.918 0 110-3.835h7.67a1.917 1.917 0 110 3.835z" fill="#0084F8"/><path d="M24.928 45.948a1.92 1.92 0 01-.17-3.835A19.177 19.177 0 103.913 21.279a1.918 1.918 0 11-3.82-.346 23.01 23.01 0 0145.927 2.09A22.885 22.885 0 0125.1 45.94a1.744 1.744 0 01-.173.008z" fill="#0084F8"/><path d="M23.01 11.518a1.917 1.917 0 00-1.917 1.918v9.588c0 .508.202.996.562 1.355l5.752 5.753a1.918 1.918 0 002.712-2.711l-5.191-5.191v-8.794a1.917 1.917 0 00-1.918-1.918z" fill="#0084F8"/></svg>