<svg width="117" height="33" fill="none" xmlns="http://www.w3.org/2000/svg"><path d="M54.654 7.503v2.694H49.39v14.606H46.3V10.197h-5.288V7.503h13.642zm11.269 16.658c-1.046.552-2.216.828-3.51.828-1.293 0-2.463-.276-3.509-.828-1.038-.56-1.866-1.376-2.484-2.447-.617-1.071-.926-2.307-.926-3.707 0-1.055.177-2.023.531-2.904.363-.881.857-1.615 1.483-2.2a6.737 6.737 0 012.2-1.384 7.347 7.347 0 012.706-.494c1.293 0 2.463.28 3.509.84 1.046.552 1.878 1.364 2.496 2.435.618 1.07.927 2.306.927 3.707 0 1.4-.309 2.636-.927 3.707-.618 1.07-1.45 1.887-2.496 2.447zm-3.51-1.841c1.22 0 2.213-.396 2.979-1.187.766-.79 1.153-1.833 1.161-3.126.008-1.269-.379-2.303-1.161-3.102-.783-.807-1.776-1.21-2.978-1.21-1.203 0-2.192.403-2.966 1.21-.775.8-1.162 1.833-1.162 3.102 0 1.285.387 2.327 1.162 3.126.774.791 1.763 1.187 2.966 1.187zm22.033-11.11l-5.202 6.797 5.202 6.796h-3.213l-4.164-5.45h-1.78v5.45h-2.953V6.91h2.954v9.75h1.779l4.164-5.45h3.213zm15.346 6.797c0 .321-.02.667-.061 1.038H88.918c.19 1.046.643 1.874 1.36 2.484.716.601 1.577.902 2.582.902 1.689 0 2.871-.709 3.546-2.126l2.67.73c-.462 1.219-1.257 2.182-2.385 2.89-1.129.71-2.406 1.064-3.831 1.064a7.249 7.249 0 01-2.706-.507 6.768 6.768 0 01-2.212-1.409c-.618-.601-1.108-1.338-1.47-2.212a7.433 7.433 0 01-.544-2.854c0-1.36.309-2.575.927-3.646a6.417 6.417 0 012.496-2.47c1.054-.578 2.224-.866 3.509-.866 1.285 0 2.45.288 3.497.865a6.401 6.401 0 012.509 2.471c.617 1.071.926 2.287.926 3.646zm-6.932-4.424c-.98 0-1.825.293-2.533.877-.709.577-1.17 1.372-1.384 2.385h7.847c-.19-1.03-.635-1.829-1.335-2.397-.7-.577-1.565-.865-2.595-.865zm19.425 11.22v-7.71c0-1.187-.268-2.085-.803-2.694-.536-.61-1.335-.915-2.397-.915-1.03 0-1.87.383-2.521 1.15-.651.757-.972 1.7-.964 2.83v7.34h-2.83V11.21h2.756l.074 2.434c.651-1.747 2.076-2.62 4.276-2.62 1.655 0 2.94.507 3.855 1.52.923 1.005 1.384 2.401 1.384 4.19v8.068h-2.83zM14.85.027a1.55 1.55 0 00-.592.003L1.246 2.63A1.55 1.55 0 000 4.15v10.715c0 6.05 3.658 10.513 7.061 13.362a31.27 31.27 0 006.268 4.052 19.388 19.388 0 00.575.266l.036.016.011.005.005.002s.002 0 .606-1.426l-.604 1.426c.349.148.74.163 1.1.042l-.496-1.468c.496 1.468.497 1.467.497 1.467l.006-.002.011-.004.038-.013c.032-.01.076-.027.133-.047.113-.041.273-.101.475-.18a30.71 30.71 0 006.65-3.643c2.343-1.706 4.817-4.097 6.267-7.234h-3.517c-1.17 1.888-2.827 3.457-4.573 4.727a27.623 27.623 0 01-5.923 3.25 28.177 28.177 0 01-5.575-3.612c-3.104-2.598-5.952-6.274-5.952-10.986V5.42l11.472-2.293 12.24 2.307v2.81h3.098V4.15a1.55 1.55 0 00-1.262-1.523L14.849.027z" fill="#000"/><path d="M11.948 20.106c1.691 0 3.207-.592 4.29-1.625 1.084-1.025 1.742-2.625 1.742-4.49 0-1.867-.658-3.459-1.741-4.492-1.084-1.033-2.6-1.625-4.291-1.625-1.125 0-2.142.242-3.05.725-.908.484-1.633 1.192-2.175 2.125-.541.941-.808 2.025-.808 3.266 0 1.242.267 2.325.808 3.258 1.075 1.875 2.958 2.858 5.225 2.858zm-2.217-3.6c-.575-.591-.866-1.433-.866-2.516 0-1.075.283-1.916.858-2.516.575-.592 1.316-.892 2.225-.892.916 0 1.658.292 2.233.883.575.592.858 1.434.858 2.525 0 1.083-.284 1.925-.858 2.516-.575.6-1.317.9-2.225.9-.908 0-1.65-.3-2.225-.9zM26.81 8.245l-4.172 5.045V8.016h-2.942v10.995h2.942v-1.888l1.258-1.567 2.933 3.455h3.082l-4.307-5.596 4.305-5.17H26.81z" fill="#000"/></svg>