<svg viewBox="0 0 24 24" xmlns="http://www.w3.org/2000/svg" xmlns:xlink="http://www.w3.org/1999/xlink"><style>:root&gt;svg{display:none}:root&gt;svg:target{display:block}</style><svg viewBox="0 0 23 23" id="login-arrow" xmlns="http://www.w3.org/2000/svg"><path d="M1.807 15.178c-.585.221-.884.879-.606 1.439a11.5 11.5 0 10.746-11.52c-.348.52-.136 1.21.415 1.506.551.295 1.232.083 1.593-.428a9.235 9.235 0 11-.624 9.633c-.292-.554-.94-.852-1.524-.63z"/><path d="M1.438 10.6a.9.9 0 100 1.8v-1.8zm15.01 1.536a.9.9 0 000-1.272l-5.727-5.728A.9.9 0 109.45 6.409l5.09 5.091-5.09 5.091a.9.9 0 001.272 1.273l5.728-5.728zm-15.01.264h14.374v-1.8H1.438v1.8z"/></svg><svg viewBox="0 0 24 24" id="tel" xmlns="http://www.w3.org/2000/svg"><path d="M15.123 16.327l1.615-1.615a1.578 1.578 0 011.687-.347l1.97.787a1.572 1.572 0 01.98 1.442V20.2a1.566 1.566 0 01-1.644 1.55C5.935 20.892 3.15 9.21 2.625 4.738A1.565 1.565 0 014.19 3h3.483a1.558 1.558 0 011.442.98l.786 1.97a1.557 1.557 0 01-.339 1.687L7.947 9.252s.93 6.296 7.176 7.075z"/></svg></svg>