<svg width="30" height="30" fill="none" xmlns="http://www.w3.org/2000/svg"><path d="M8.066 9.239c-.13 1.379-.22 3.82.594 4.858 0 0-.383-2.68 3.053-6.044 1.384-1.355 1.704-3.196 1.22-4.578-.274-.782-.775-1.428-1.21-1.88a.405.405 0 01.31-.687c2.237.1 5.861.721 7.401 4.586.676 1.697.726 3.45.404 5.233-.204 1.138-.93 3.67.726 3.98 1.181.223 1.753-.716 2.01-1.392a.403.403 0 01.675-.127c1.996 2.27 2.166 4.944 1.753 7.246-.798 4.45-5.305 7.69-9.782 7.69-5.593 0-10.046-3.201-11.2-8.994-.465-2.338-.23-6.965 3.377-10.231.268-.245.705-.028.67.34z" fill="url(#paint0_radial_1_45)"/><path d="M17.264 17.56c-2.062-2.654-1.139-5.682-.633-6.889.068-.158-.113-.308-.256-.21-.887.603-2.704 2.023-3.55 4.02-1.145 2.702-1.064 4.025-.385 5.64.408.973-.066 1.179-.304 1.215-.232.037-.445-.118-.615-.279a3.65 3.65 0 01-1.007-1.723c-.036-.141-.22-.18-.304-.064-.635.878-.964 2.286-.98 3.282-.05 3.078 2.493 5.573 5.568 5.573 3.877 0 6.7-4.287 4.473-7.87-.646-1.044-1.254-1.727-2.007-2.695z" fill="url(#paint1_radial_1_45)"/><defs><radialGradient id="paint0_radial_1_45" cx="0" cy="0" r="1" gradientUnits="userSpaceOnUse" gradientTransform="rotate(-179.751 7.087 14.082) scale(16.0103 26.2697)"><stop offset=".314" stop-color="#FF9800"/><stop offset=".662" stop-color="#FF6D00"/><stop offset=".972" stop-color="#F44336"/></radialGradient><radialGradient id="paint1_radial_1_45" cx="0" cy="0" r="1" gradientUnits="userSpaceOnUse" gradientTransform="matrix(-.1692 16.75085 -12.60626 -.12733 15.012 12.261)"><stop offset=".214" stop-color="#FFF176"/><stop offset=".328" stop-color="#FFF27D"/><stop offset=".487" stop-color="#FFF48F"/><stop offset=".672" stop-color="#FFF7AD"/><stop offset=".793" stop-color="#FFF9C4"/><stop offset=".822" stop-color="#FFF8BD" stop-opacity=".804"/><stop offset=".863" stop-color="#FFF6AB" stop-opacity=".529"/><stop offset=".91" stop-color="#FFF38D" stop-opacity=".209"/><stop offset=".941" stop-color="#FFF176" stop-opacity="0"/></radialGradient></defs></svg>