<svg width="30" height="31" fill="none" xmlns="http://www.w3.org/2000/svg"><path fill-rule="evenodd" clip-rule="evenodd" d="M15.572 4.376l-1.77 1.766.118.152c.35.447.808 1.207 1.007 1.667.388.9.518 1.552.554 2.778l.032 1.07h.153c.234.002.912.259 1.311.497l.357.212.495-.487c.272-.268.645-.687.829-.931 1.554-2.07 1.56-5.003.016-7.101-.257-.35-1.227-1.39-1.295-1.39-.02 0-.833.796-1.807 1.767zm-8.03 2.957c.022 2.617.022 2.632.174 3.186.458 1.679 1.512 3.018 2.994 3.807.659.35.655.35.771-.011a3.753 3.753 0 011.36-1.842c.426-.304 1.088-.594 1.476-.648l.257-.035-.03-1.002c-.024-.827-.056-1.103-.182-1.587a6.024 6.024 0 00-4.284-4.284c-.48-.126-.765-.159-1.572-.184l-.985-.03.021 2.63zM20.6 4.785a2.895 2.895 0 00-.331.066c-.007.008.065.246.16.53.096.285.216.786.268 1.114l.095.596.869-.017.869-.018V4.718l-.806.007c-.443.004-.949.03-1.124.06zM4.248 8.747c0 .637.068 1.392.132 1.455.01.01.196-.046.413-.124.347-.127.876-.244 1.578-.351l.22-.034V8H4.247v.747zm16.6-.701c-.04.024-.1.228-.135.453-.1.639-.232 1.13-.442 1.641-.379.927-.83 1.583-1.716 2.5l-.55.568.214.345c.24.39.498 1.072.5 1.324l.001.168 1.01-.03c1.227-.035 1.874-.182 2.77-.627 1.557-.773 2.668-2.15 3.117-3.862.12-.455.153-.752.178-1.545l.03-.981h-2.454c-1.35 0-2.485.021-2.524.046zM5.99 10.728c-1.305.24-2.363.827-3.412 1.895l-.469.476 1.799 1.796c1.79 1.788 1.798 1.795 1.933 1.696 1.303-.954 2.366-1.388 3.756-1.533l.4-.042-.4-.265c-.219-.146-.652-.519-.962-.828-.823-.82-1.349-1.675-1.698-2.76-.186-.578-.18-.576-.947-.435zm8.342 2.052c-1.486.4-2.405 1.938-2.026 3.39.392 1.506 1.928 2.434 3.394 2.052 1.5-.39 2.433-1.928 2.054-3.385-.396-1.519-1.95-2.453-3.422-2.057zm9.743 1.729c-.941.748-2.182 1.253-3.465 1.411l-.542.067.395.263c.218.145.65.517.96.826.822.82 1.348 1.675 1.697 2.76.099.306.195.505.25.516.145.03 1.127-.156 1.52-.287.936-.31 1.77-.855 2.589-1.688l.468-.476-1.728-1.732c-.95-.952-1.77-1.756-1.824-1.785-.07-.04-.155-.007-.32.125zM9.208 16.062c-2.514.454-4.438 2.385-4.866 4.882-.053.312-.095.88-.095 1.304V23l2.447-.001c1.345 0 2.477-.021 2.516-.046.038-.024.11-.294.158-.6.244-1.51.857-2.673 2.077-3.936l.606-.627-.213-.344c-.237-.385-.498-1.07-.5-1.317v-.16l-.836.005c-.459.002-1.041.042-1.294.088zm9.362.643c-.116.37-.4.863-.713 1.247-.45.55-1.451 1.13-2.101 1.22l-.273.037.03 1.002c.036 1.216.184 1.866.627 2.76.773 1.557 2.15 2.667 3.862 3.117.456.12.752.153 1.55.178l.985.03-.022-2.63c-.022-2.612-.023-2.633-.174-3.186-.473-1.739-1.599-3.12-3.194-3.919-.2-.1-.39-.183-.42-.183-.03 0-.1.147-.157.327zm-6.537 2.476c-1.003 1.044-1.51 1.995-1.727 3.242-.125.72-.085 1.815.093 2.51.272 1.07.94 2.16 1.9 3.103l.384.378 1.534-1.52c.843-.837 1.646-1.641 1.784-1.787l.251-.267-.206-.26a7.23 7.23 0 01-1.253-2.513c-.173-.675-.23-1.186-.232-2.07l-.001-.806-.161-.001c-.244-.002-.93-.262-1.308-.495a3.31 3.31 0 00-.364-.207c-.016 0-.328.312-.694.693zm13.22 1.749c-.364.124-.898.24-1.567.342l-.22.034V23h2.359l-.03-.982c-.015-.54-.052-1.037-.08-1.105l-.052-.123-.41.14zm-16.86 2.994l-.864.016v2.34h.747c.6 0 1.463-.077 1.516-.135a5.739 5.739 0 00-.16-.521 8.865 8.865 0 01-.273-1.113l-.102-.603-.864.016z" fill="#AB0C36"/></svg>