<svg width="15" height="9" fill="none" xmlns="http://www.w3.org/2000/svg"><path fill-rule="evenodd" clip-rule="evenodd" d="M6.663.039C4.813.3 2.948 1.28 1.19 2.917.61 3.454.175 3.926.077 4.118.013 4.243 0 4.307 0 4.5c0 .31.07.443.443.845C1.729 6.731 3.41 7.926 4.87 8.493c1.01.392 1.773.529 2.817.504.995-.024 1.782-.206 2.794-.646 1.174-.512 2.587-1.51 3.672-2.595.769-.768.847-.884.847-1.256 0-.318-.068-.442-.485-.887-1.127-1.201-2.442-2.192-3.73-2.808C9.906.383 9.15.147 8.323.038c-.386-.051-1.295-.05-1.659 0zm1.402 1.498c.428.071.855.231 1.24.465.227.138.734.609.882.82.366.522.539 1.054.54 1.668.004.974-.46 1.836-1.304 2.427-.558.39-1.203.586-1.929.586-1.791 0-3.227-1.336-3.222-2.999.003-.808.293-1.489.88-2.061a3.19 3.19 0 011.152-.738c.194-.071.564-.165.741-.188.207-.027.81-.015 1.02.02zm-.901.835a2.417 2.417 0 00-1.456.77c-.181.208-.39.595-.458.853-.073.276-.067.78.013 1.055.22.753.845 1.328 1.68 1.542.285.073.851.067 1.153-.012 1.227-.322 1.94-1.446 1.648-2.598a2.494 2.494 0 00-.452-.84 2.493 2.493 0 00-1.234-.729 3.163 3.163 0 00-.894-.04z" fill="#fff"/></svg>