<svg width="24" height="24" fill="none" xmlns="http://www.w3.org/2000/svg"><path fill-rule="evenodd" clip-rule="evenodd" d="M10.858.028C6.788.42 3.152 2.888 1.31 6.505.658 7.785.273 9.02.063 10.503c-.094.658-.08 2.36.024 3.094.186 1.302.57 2.537 1.159 3.723a11.875 11.875 0 005.39 5.39 11.98 11.98 0 0011.904-.689c1.393-.91 2.714-2.259 3.616-3.694.343-.545.86-1.605 1.095-2.243.237-.643.513-1.76.615-2.487.104-.738.118-2.444.026-3.094-.277-1.947-.894-3.604-1.919-5.152a11.315 11.315 0 00-1.477-1.802C18.625 1.658 16.3.485 13.64.092c-.573-.085-2.185-.122-2.783-.064zm4.453 6.06c1.307.392 2.244 1.358 2.576 2.657.098.379.098 6.09 0 6.469a3.657 3.657 0 01-2.676 2.676c-.379.097-6.09.097-6.468 0-1.31-.336-2.288-1.292-2.661-2.601C6.008 15.03 6 14.71 6 11.979c0-3.305-.006-3.211.283-3.865.443-1.002 1.448-1.834 2.46-2.036l.351-.07c.052-.011 1.412-.016 3.024-.01 2.595.009 2.96.02 3.193.09zM8.943 7.27c-.404.109-.72.298-1.049.626-.335.336-.518.647-.628 1.069-.105.403-.104 5.631.002 6.036.11.426.332.795.664 1.105.333.312.63.48 1.03.585.404.105 5.632.103 6.037-.002a2.274 2.274 0 001.105-.664c.312-.334.48-.63.584-1.031.104-.398.104-5.631 0-6.03-.104-.4-.272-.697-.584-1.03a2.273 2.273 0 00-1.105-.664c-.392-.102-5.678-.102-6.056 0zm6.34.871c.256.064.518.335.565.582.07.376-.218.827-.57.893-.39.073-.722-.094-.874-.438-.182-.412.021-.865.456-1.019.231-.082.18-.08.424-.018zm-2.63.815c.86.182 1.69.828 2.08 1.62.264.534.353.967.325 1.567-.04.817-.318 1.432-.925 2.04a2.975 2.975 0 01-2.16.89c-.847 0-1.558-.298-2.177-.914-.614-.612-.913-1.326-.913-2.18 0-.853.299-1.566.913-2.18.77-.77 1.787-1.07 2.858-.843zm-1.348 1.26c-.536.225-.813.488-1.051.998-.114.243-.129.327-.129.765 0 .456.011.516.15.808.186.394.503.708.905.9.28.132.344.144.797.144.456 0 .515-.011.806-.149.4-.19.708-.497.897-.896.138-.291.149-.351.149-.807 0-.455-.011-.515-.15-.806a1.845 1.845 0 00-.896-.896c-.273-.13-.371-.15-.76-.162-.383-.011-.482.003-.718.102z" fill="#fff"/></svg>