<svg width="24" height="24" fill="none" xmlns="http://www.w3.org/2000/svg"><path fill-rule="evenodd" clip-rule="evenodd" d="M10.871.028C4.586.634-.195 6.038.006 12.308c.059 1.822.454 3.4 1.254 5.012a11.875 11.875 0 005.39 5.39 11.98 11.98 0 0011.903-.689c1.394-.91 2.715-2.259 3.617-3.694.343-.545.86-1.605 1.095-2.243.237-.643.513-1.76.615-2.487.104-.738.118-2.444.026-3.094-.277-1.947-.894-3.604-1.919-5.152a11.315 11.315 0 00-1.477-1.802C18.639 1.658 16.313.485 13.654.092 13.081.007 11.47-.03 10.871.028zm2.385 6.086c2.048.472 3.66 1.9 4.348 3.85.252.713.315 1.113.312 1.968-.003.66-.02.85-.124 1.293-.548 2.348-2.344 4.082-4.715 4.552-.274.054-.637.08-1.11.082-.838 0-1.415-.107-2.167-.405l-.479-.19-1.513.359a51.6 51.6 0 01-1.57.357c-.032 0-.09-.048-.127-.106-.062-.096-.038-.25.255-1.662l.323-1.557-.19-.452c-.314-.752-.432-1.363-.434-2.247-.004-1.075.158-1.77.632-2.722.792-1.59 2.36-2.788 4.098-3.13.586-.116.615-.118 1.36-.1.475.012.83.048 1.1.11zm-2.094 1.244c-1.52.29-2.867 1.358-3.438 2.732-.287.687-.344.993-.348 1.842-.004.918.074 1.277.44 2.047l.227.477-.184.881c-.102.485-.179.904-.171.933.008.034.325-.021.913-.159l.9-.21.46.215c.755.355 1.12.432 2.029.432.66 0 .832-.016 1.172-.108a4.682 4.682 0 003.054-2.567c.318-.678.384-1.006.388-1.917.003-.694-.01-.848-.105-1.195-.452-1.656-1.7-2.89-3.376-3.337-.463-.123-1.478-.158-1.96-.066zm-.911 1.792c.108.076.305.463.572 1.127.156.384.147.439-.12.788-.231.304-.226.477.028.806.46.596 1.665 1.561 1.95 1.561.158 0 .282-.073.56-.334.134-.126.282-.228.328-.228.047 0 .38.084.741.187.507.144.68.214.762.307.166.19.14.387-.097.708-.427.58-.735.741-1.415.742-.56 0-.97-.111-1.556-.42-.55-.29-.951-.59-1.51-1.126-1.008-.967-1.505-1.873-1.504-2.74.001-.478.285-.996.724-1.319.209-.153.376-.172.537-.059z" fill="#fff"/></svg>