<svg width="16" height="18" viewBox="0 0 16 18" fill="none" xmlns="http://www.w3.org/2000/svg"><path fillRule="evenodd" clipRule="evenodd" d="M5.60005 0C4.72403 0 4.00005 0.740437 4.00005 1.63637C3.99892 1.71768 4.01361 1.79842 4.04326 1.87387C4.07291 1.94933 4.11693 2.01801 4.17275 2.07592C4.22858 2.13383 4.2951 2.17982 4.36846 2.2112C4.44181 2.24259 4.52053 2.25874 4.60005 2.25874C4.67956 2.25874 4.75829 2.24259 4.83164 2.2112C4.905 2.17982 4.97152 2.13383 5.02735 2.07592C5.08317 2.01801 5.12719 1.94933 5.15684 1.87387C5.18649 1.79842 5.20117 1.71768 5.20005 1.63637C5.20005 1.39911 5.36807 1.22727 5.60005 1.22727H13.6C13.832 1.22727 14 1.39911 14 1.63637V13.0909C14 13.3282 13.832 13.5 13.6 13.5C13.5205 13.4989 13.4416 13.5139 13.3678 13.5442C13.294 13.5745 13.2269 13.6195 13.1703 13.6766C13.1136 13.7337 13.0687 13.8018 13.038 13.8768C13.0073 13.9518 12.9915 14.0323 12.9915 14.1136C12.9915 14.195 13.0073 14.2755 13.038 14.3505C13.0687 14.4255 13.1136 14.4936 13.1703 14.5507C13.2269 14.6077 13.294 14.6528 13.3678 14.6831C13.4416 14.7134 13.5205 14.7284 13.6 14.7273C14.4761 14.7273 15.2 13.9868 15.2 13.0909V1.63637C15.2 0.740437 14.4761 0 13.6 0H5.60005ZM2.40005 3.27273C1.52403 3.27273 0.800049 4.01317 0.800049 4.9091V16.3636C0.800049 17.2596 1.52403 18 2.40005 18H10.4C11.2761 18 12 17.2596 12 16.3636V4.9091C12 4.01317 11.2761 3.27273 10.4 3.27273H2.40005ZM2.40005 4.5H10.4C10.632 4.5 10.8 4.67185 10.8 4.9091V16.3636C10.8 16.6009 10.632 16.7727 10.4 16.7727H2.40005C2.16807 16.7727 2.00005 16.6009 2.00005 16.3636V4.9091C2.00005 4.67185 2.16807 4.5 2.40005 4.5Z" fill="#374BFF"/></svg>