<svg width="27" height="10" viewBox="0 0 27 10" fill="none" xmlns="http://www.w3.org/2000/svg">
<path d="M0.540381 4.54038C0.28654 4.79422 0.28654 5.20578 0.540381 5.45962L4.67696 9.59619C4.9308 9.85003 5.34235 9.85003 5.59619 9.59619C5.85003 9.34235 5.85003 8.9308 5.59619 8.67696L1.91924 5L5.59619 1.32304C5.85003 1.0692 5.85003 0.657647 5.59619 0.403806C5.34235 0.149965 4.9308 0.149965 4.67696 0.403806L0.540381 4.54038ZM26.4596 5.45962C26.7135 5.20578 26.7135 4.79422 26.4596 4.54038L22.323 0.403806C22.0692 0.149965 21.6576 0.149965 21.4038 0.403806C21.15 0.657647 21.15 1.0692 21.4038 1.32304L25.0808 5L21.4038 8.67696C21.15 8.9308 21.15 9.34235 21.4038 9.59619C21.6576 9.85003 22.0692 9.85003 22.323 9.59619L26.4596 5.45962ZM1 5.65H26V4.35H1V5.65Z" fill="black"/>
</svg>
