<svg width="119" height="21" viewBox="0 0 119 21" fill="none" xmlns="http://www.w3.org/2000/svg">
<path d="M42.611 16.2122C43.6583 16.2122 44.6238 15.9668 45.5075 15.4595C46.3911 14.9522 47.0784 14.2649 47.553 13.414L46.2275 12.6613C45.5729 13.9049 44.182 14.7231 42.611 14.7231C41.2856 14.7231 40.2055 14.2977 39.371 13.4467C38.5364 12.5958 38.1273 11.5321 38.1273 10.2721C38.1273 8.99573 38.5364 7.93207 39.371 7.08114C40.2055 6.23021 41.2856 5.80475 42.611 5.80475C44.182 5.80475 45.5729 6.62295 46.2275 7.88298L47.553 7.11387C46.5711 5.41201 44.7056 4.33199 42.611 4.33199C40.8765 4.33199 39.4364 4.90473 38.3073 6.05021C37.1782 7.19569 36.6218 8.60299 36.6218 10.2721C36.6218 11.9412 37.1782 13.3485 38.3073 14.494C39.4364 15.6395 40.8765 16.2122 42.611 16.2122ZM50.6009 15.9995V4.0538H49.1772V15.9995H50.6009ZM59.6784 14.9686C60.513 14.134 60.9385 13.1195 60.9385 11.9085C60.9385 10.6976 60.513 9.68301 59.6784 8.84845C58.8439 8.01389 57.8129 7.60479 56.6184 7.60479C55.4238 7.60479 54.3929 8.01389 53.5583 8.84845C52.7237 9.68301 52.3146 10.6976 52.3146 11.9085C52.3146 13.1195 52.7237 14.134 53.5583 14.9686C54.3929 15.8031 55.4238 16.2122 56.6184 16.2122C57.8129 16.2122 58.8439 15.8031 59.6784 14.9686ZM56.6184 14.8213C55.8165 14.8213 55.1292 14.5431 54.5729 13.9867C54.0165 13.4304 53.7383 12.7431 53.7383 11.9085C53.7383 11.074 54.0165 10.3867 54.5729 9.83029C55.1292 9.27391 55.8165 8.99573 56.6184 8.99573C57.4366 8.99573 58.1238 9.27391 58.6802 9.83029C59.2366 10.3867 59.5148 11.074 59.5148 11.9085C59.5148 12.7431 59.2366 13.4304 58.6802 13.9867C58.1238 14.5431 57.4366 14.8213 56.6184 14.8213ZM68.2624 12.154C68.2624 13.9867 67.3132 14.854 65.8896 14.854C64.6296 14.854 63.8604 14.0849 63.8604 12.7594V7.81752H62.4368V12.8413C62.4368 14.9195 63.6968 16.2122 65.6114 16.2122C66.806 16.2122 67.6896 15.7541 68.2624 14.8213V15.9995H69.686V7.81752H68.2624V12.154ZM78.6282 9.22482C77.9245 8.1448 76.8936 7.60479 75.5354 7.60479C74.3899 7.60479 73.4081 8.03025 72.6062 8.86481C71.8044 9.69938 71.3953 10.7139 71.3953 11.9085C71.3953 13.1031 71.8044 14.134 72.6062 14.9686C73.4081 15.8031 74.3899 16.2122 75.5354 16.2122C76.8936 16.2122 77.9245 15.6722 78.6282 14.5922V15.9995H80.0518V4.54472H78.6282V9.22482ZM75.7154 14.8377C74.8972 14.8377 74.2099 14.5595 73.6535 14.0031C73.0971 13.4304 72.819 12.7431 72.819 11.9085C72.819 11.074 73.0971 10.3867 73.6535 9.83029C74.2099 9.25755 74.8972 8.97936 75.7154 8.97936C76.55 8.97936 77.2372 9.25755 77.7936 9.83029C78.35 10.3867 78.6282 11.074 78.6282 11.9085C78.6282 12.7431 78.35 13.4304 77.7936 14.0031C77.2372 14.5595 76.55 14.8377 75.7154 14.8377ZM87.7398 16.2122C88.7871 16.2122 89.7526 15.9668 90.6363 15.4595C91.5199 14.9522 92.2072 14.2649 92.6818 13.414L91.3563 12.6613C90.7017 13.9049 89.3108 14.7231 87.7398 14.7231C86.4144 14.7231 85.3343 14.2977 84.4998 13.4467C83.6652 12.5958 83.2561 11.5321 83.2561 10.2721C83.2561 8.99573 83.6652 7.93207 84.4998 7.08114C85.3343 6.23021 86.4144 5.80475 87.7398 5.80475C89.3108 5.80475 90.7017 6.62295 91.3563 7.88298L92.6818 7.11387C91.6999 5.41201 89.8344 4.33199 87.7398 4.33199C86.0053 4.33199 84.5652 4.90473 83.4361 6.05021C82.307 7.19569 81.7506 8.60299 81.7506 10.2721C81.7506 11.9412 82.307 13.3485 83.4361 14.494C84.5652 15.6395 86.0053 16.2122 87.7398 16.2122ZM101.001 9.22482C100.297 8.1448 99.2662 7.60479 97.908 7.60479C96.7625 7.60479 95.7807 8.03025 94.9789 8.86481C94.177 9.69938 93.7679 10.7139 93.7679 11.9085C93.7679 13.1031 94.177 14.134 94.9789 14.9686C95.7807 15.8031 96.7625 16.2122 97.908 16.2122C99.2662 16.2122 100.297 15.6722 101.001 14.5922V15.9995H102.424V7.81752H101.001V9.22482ZM98.088 14.8377C97.2698 14.8377 96.5825 14.5595 96.0262 14.0031C95.4698 13.4304 95.1916 12.7431 95.1916 11.9085C95.1916 11.074 95.4698 10.3867 96.0262 9.83029C96.5825 9.25755 97.2698 8.97936 98.088 8.97936C98.9226 8.97936 99.6099 9.25755 100.166 9.83029C100.723 10.3867 101.001 11.074 101.001 11.9085C101.001 12.7431 100.723 13.4304 100.166 14.0031C99.6099 14.5595 98.9226 14.8377 98.088 14.8377ZM106.005 7.81752H104.581V15.9995H106.005V11.6631C106.005 10.763 106.251 10.1248 106.758 9.71574C107.265 9.30664 107.854 9.12664 108.558 9.15937V7.67024C107.331 7.67024 106.48 8.17753 106.005 9.19209V7.81752ZM116.278 9.22482C115.574 8.1448 114.544 7.60479 113.185 7.60479C112.04 7.60479 111.058 8.03025 110.256 8.86481C109.454 9.69938 109.045 10.7139 109.045 11.9085C109.045 13.1031 109.454 14.134 110.256 14.9686C111.058 15.8031 112.04 16.2122 113.185 16.2122C114.544 16.2122 115.574 15.6722 116.278 14.5922V15.9995H117.702V4.54472H116.278V9.22482ZM113.365 14.8377C112.547 14.8377 111.86 14.5595 111.303 14.0031C110.747 13.4304 110.469 12.7431 110.469 11.9085C110.469 11.074 110.747 10.3867 111.303 9.83029C111.86 9.25755 112.547 8.97936 113.365 8.97936C114.2 8.97936 114.887 9.25755 115.444 9.83029C116 10.3867 116.278 11.074 116.278 11.9085C116.278 12.7431 116 13.4304 115.444 14.0031C114.887 14.5595 114.2 14.8377 113.365 14.8377Z" fill="black"/>
<path d="M26.2163 20.0876H25.7835H7.54869C7.12965 20.0876 6.78998 19.748 6.78998 19.3289C6.78998 18.9101 7.12954 18.5702 7.54869 18.5702H25.7835C26.3218 18.5702 26.8217 18.3604 27.1947 17.9795L27.4041 18.1845L27.1947 17.9795C27.5683 17.5979 27.7755 17.0865 27.7755 16.5358C27.7755 15.6271 27.2031 14.8497 26.3559 14.5919L26.2163 20.0876ZM26.2163 20.0876L26.2062 20.0624M26.2163 20.0876L26.2062 20.0624M26.2062 20.0624C26.9926 19.9686 27.7176 19.6139 28.2791 19.0405L28.2791 19.0405C28.9335 18.3721 29.293 17.4811 29.293 16.5342C29.293 15.207 28.58 14.0263 27.459 13.4167C27.495 13.1899 27.5134 12.9647 27.5134 12.743C27.5134 10.2233 25.4661 8.17329 22.9485 8.17329C22.1965 8.17329 21.4742 8.35235 20.8234 8.69665C20.4322 8.14341 19.936 7.66889 19.36 7.30075L19.3599 7.30073C18.5188 6.7634 17.5443 6.47944 16.5425 6.47944C13.854 6.47944 11.6325 8.51302 11.3339 11.123C10.4975 11.3641 9.74243 11.8434 9.16396 12.5086C8.44052 13.3404 8.04248 14.4086 8.04248 15.5161C8.04248 15.9351 8.38212 16.2748 8.80118 16.2748C9.22032 16.2748 9.55988 15.9348 9.55988 15.5161C9.55988 14.7736 9.82623 14.0591 10.3089 13.5042M26.2062 20.0624L25.8516 13.6427C25.9485 13.3275 25.9961 13.0249 25.9961 12.7432C25.9961 11.0598 24.6283 9.69064 22.9486 9.69064C22.2503 9.69064 21.5948 9.92026 21.0488 10.3559C20.8686 10.4998 20.6331 10.5535 20.4087 10.503L20.4087 10.503C20.1838 10.4523 19.9944 10.302 19.8935 10.0951L19.8935 10.0949C19.263 8.79965 17.9803 7.99679 16.5426 7.99679C14.4921 7.99679 12.8229 9.66254 12.817 11.712C12.8173 11.7218 12.8175 11.7316 12.8175 11.7418C12.8175 12.1196 12.5394 12.44 12.1653 12.493C11.4472 12.5947 10.788 12.9534 10.3089 13.5042M10.3089 13.5042L10.0878 13.3119L10.3089 13.5042ZM25.9065 14.2219C26.001 14.3997 26.1624 14.5331 26.3557 14.5918L25.8515 13.6428C25.7922 13.8355 25.812 14.0438 25.9065 14.2219Z" fill="#FF6B00" stroke="#FF6B00" stroke-width="0.586047"/>
<path d="M8.40465 19.3184H7.86047C4.62382 19.3184 2 16.6946 2 13.458V7.85998C2 4.62333 4.62382 1.99951 7.86046 1.99951H22.1654C25.1012 1.99951 27.4811 4.37944 27.4811 7.31522V7.31522" stroke="#FF6B00" stroke-width="2.42791" stroke-linecap="round"/>
</svg>
