<svg width="56" height="56" fill="none" xmlns="http://www.w3.org/2000/svg"><circle cx="28" cy="28" r="28" fill="#009393"/><path d="M40.432 25.227a.567.567 0 00.568-.566v-2.273c0-.2-.105-.386-.278-.488l-11.13-6.61c-.69-.382-1.47-.394-2.2.008L16.278 21.9a.567.567 0 00-.278.488v2.273c0 .314.254.566.568.566h1.705v10.228A2.275 2.275 0 0016 37.728v1.704a.567.567 0 00.568.568h23.864a.57.57 0 00.568-.568v-1.705a2.275 2.275 0 00-2.273-2.272V25.227h1.705zM26.227 35.455h-3.409V25.227h3.41v10.228zM28.5 22.957a2.276 2.276 0 01-2.274-2.273A2.276 2.276 0 0128.5 18.41a2.276 2.276 0 012.274 2.274 2.276 2.276 0 01-2.274 2.273zm5.683 12.498h-3.41V25.227h3.41v10.228z" fill="#fff"/></svg>