<svg width="39" height="39" fill="none" xmlns="http://www.w3.org/2000/svg"><path d="M34.704 7.607a20.37 20.37 0 012.27 3.801L19.772 24.245l-7.226-4.592v-5.495l7.188 4.554 14.97-11.105z" fill="#21A038"/><path d="M5.207 19.276c0-.265 0-.488.038-.753l-4.356-.226c0 .303-.038.64-.038.94a19.171 19.171 0 005.548 13.515l3.09-3.125a14.544 14.544 0 01-4.282-10.351z" fill="url(#paint0_linear_3662_5103)"/><path d="M19.732 4.593c.261 0 .485 0 .746.038l.223-4.403c-.3 0-.634-.039-.93-.039-5.215 0-9.944 2.147-13.372 5.61l3.09 3.125a14.31 14.31 0 0110.243-4.33z" fill="url(#paint1_linear_3662_5103)"/><path d="M19.731 33.957c-.261 0-.485 0-.746-.038l-.223 4.404c.3 0 .634.038.93.038 5.215 0 9.947-2.146 13.372-5.609l-3.09-3.125c-2.609 2.71-6.222 4.33-10.243 4.33z" fill="url(#paint2_linear_3662_5103)"/><path d="M27.924 7.153l3.687-2.749C28.37 1.77 24.238.15 19.732.15v4.404c3.055.038 5.884.98 8.192 2.6z" fill="url(#paint3_linear_3662_5103)"/><path d="M38.65 19.276c0-1.167-.112-2.296-.3-3.424L34.29 18.9v.376a14.66 14.66 0 01-4.802 10.88l2.94 3.276a19.155 19.155 0 006.222-14.156z" fill="#21A038"/><path d="M19.73 33.958c-4.282 0-8.118-1.881-10.762-4.856l-3.24 2.975c3.464 3.877 8.454 6.285 14.003 6.285v-4.404z" fill="url(#paint4_linear_3662_5103)"/><path d="M10.012 8.39L7.07 5.115A19.086 19.086 0 00.85 19.27h4.356a14.72 14.72 0 014.805-10.88z" fill="url(#paint5_linear_3662_5103)"/><defs><linearGradient id="paint0_linear_3662_5103" x1="5.935" y1="32.216" x2="1.461" y2="19.226" gradientUnits="userSpaceOnUse"><stop offset=".144" stop-color="#F2E913"/><stop offset=".304" stop-color="#E7E518"/><stop offset=".582" stop-color="#CADB26"/><stop offset=".891" stop-color="#A3CD39"/></linearGradient><linearGradient id="paint1_linear_3662_5103" x1="7.642" y1="5.301" x2="18.945" y2=".974" gradientUnits="userSpaceOnUse"><stop offset=".059" stop-color="#0FA8E0"/><stop offset=".538" stop-color="#0099F9"/><stop offset=".923" stop-color="#0291EB"/></linearGradient><linearGradient id="paint2_linear_3662_5103" x1="18.507" y1="34.616" x2="31.976" y2="31.558" gradientUnits="userSpaceOnUse"><stop offset=".123" stop-color="#A3CD39"/><stop offset=".285" stop-color="#86C339"/><stop offset=".869" stop-color="#21A038"/></linearGradient><linearGradient id="paint3_linear_3662_5103" x1="18.837" y1="2.956" x2="30.038" y2="6.428" gradientUnits="userSpaceOnUse"><stop offset=".057" stop-color="#0291EB"/><stop offset=".79" stop-color="#0C8ACB"/></linearGradient><linearGradient id="paint4_linear_3662_5103" x1="6.836" y1="32.773" x2="18.87" y2="37.29" gradientUnits="userSpaceOnUse"><stop offset=".132" stop-color="#F2E913"/><stop offset=".298" stop-color="#EBE716"/><stop offset=".531" stop-color="#D9E01F"/><stop offset=".802" stop-color="#BBD62D"/><stop offset=".983" stop-color="#A3CD39"/></linearGradient><linearGradient id="paint5_linear_3662_5103" x1="4.189" y1="19.803" x2="9.025" y2="7.166" gradientUnits="userSpaceOnUse"><stop offset=".07" stop-color="#A3CD39"/><stop offset=".26" stop-color="#81C55F"/><stop offset=".922" stop-color="#0FA8E0"/></linearGradient></defs></svg>