<svg width="101" height="50" fill="none" xmlns="http://www.w3.org/2000/svg"><g clip-path="url(#clip0_3662_5129)"><path d="M86.597 14.097V26.17h-4.39V17.7h-4.226v8.47h-4.39V14.096h13.006z" fill="#000"/><path fill-rule="evenodd" clip-rule="evenodd" d="M64.575 26.603c3.93 0 6.848-2.366 6.848-5.954 0-3.472-2.153-5.727-5.751-5.727-1.66 0-3.031.574-4.063 1.565.246-2.047 2.01-3.542 3.95-3.542l3.82-.007 1.907-3.584s-4.234.094-6.202.094c-4.497.077-7.534 4.092-7.534 8.968 0 5.68 2.962 8.187 7.025 8.187zm.024-8.506c1.46 0 2.47.942 2.47 2.552 0 1.449-.898 2.643-2.47 2.646-1.503 0-2.515-1.106-2.515-2.622 0-1.61 1.012-2.576 2.515-2.576z" fill="#000"/><path d="M53.977 22.129s-1.036.587-2.585.698c-1.78.052-3.366-1.052-3.366-3.014 0-1.914 1.4-3.01 3.321-3.01 1.179 0 2.737.801 2.737.801s1.141-2.055 1.732-3.083c-1.082-.806-2.523-1.248-4.2-1.248-4.23 0-7.506 2.71-7.506 6.515 0 3.855 3.08 6.501 7.507 6.421 1.237-.045 2.944-.472 3.985-1.128l-1.625-2.952z" fill="#000"/><path d="M0 10.75l6.09 10.69v6.521L.006 38.631 0 10.75z" fill="#5B57A2"/><path d="M23.38 17.55l5.707-3.436 11.677-.01-17.383 10.459v-7.014z" fill="#D90751"/><path d="M23.348 10.687l.032 14.154-6.104-3.684V0l6.072 10.687z" fill="#FAB718"/><path d="M40.763 14.105l-11.678.01-5.737-3.428L17.276 0l23.487 14.105z" fill="#ED6F26"/><path d="M23.38 38.69v-6.867l-6.104-3.614.004 21.178 6.1-10.698z" fill="#63B22F"/><path d="M29.072 35.286L6.089 21.44 0 10.75l40.739 24.522-11.667.014z" fill="#1487C9"/><path d="M17.28 49.387l6.1-10.698 5.691-3.404 11.667-.013L17.28 49.387z" fill="#017F36"/><path d="M.008 38.63l17.32-10.42-5.823-3.509-5.415 3.26-6.082 10.67z" fill="#984995"/><path d="M48.029 34.296a1.26 1.26 0 01-.523.38c-.217.087-.449.13-.683.13a1.974 1.974 0 01-.685-.113 1.456 1.456 0 01-.874-.826 1.692 1.692 0 01-.123-.653 1.603 1.603 0 01.451-1.127c.141-.144.31-.253.5-.339.195-.082.406-.127.639-.127.25 0 .483.031.695.093.211.061.391.164.539.308l-.257.428a1.215 1.215 0 00-.43-.247 1.539 1.539 0 00-.47-.071 1.092 1.092 0 00-.75.298 1.07 1.07 0 00-.324.787 1.065 1.065 0 00.334.79 1 1 0 00.36.217c.137.051.282.075.437.075.19 0 .363-.038.511-.11.147-.07.279-.166.388-.283l.265.39zm.726.438v-3.048h.557v2.27l1.812-2.27h.558v3.048h-.558v-2.27l-1.812 2.27h-.557zm6.618-.438c-.137.169-.317.3-.521.38-.218.087-.45.13-.685.13a1.971 1.971 0 01-.684-.113 1.454 1.454 0 01-.874-.826 1.69 1.69 0 01-.124-.653 1.604 1.604 0 01.452-1.127c.14-.144.31-.253.5-.339.201-.087.42-.13.639-.127.25 0 .483.031.694.093.212.061.392.164.54.308l-.258.428a1.208 1.208 0 00-.43-.247 1.543 1.543 0 00-.468-.071c-.28 0-.55.107-.752.298a1.07 1.07 0 00-.324.787 1.064 1.064 0 00.335.79 1 1 0 00.36.217c.137.048.282.075.437.075.19 0 .36-.038.51-.11.148-.07.28-.166.389-.283l.264.39zm.286-2.61h2.86v.541h-1.15v2.507h-.557v-2.507h-1.15v-.54h-.003z" fill="#000"/><path fill-rule="evenodd" clip-rule="evenodd" d="M61.12 34.705c.211-.065.391-.165.546-.302l-.17-.424a1.307 1.307 0 01-.404.226 1.594 1.594 0 01-.558.092c-.306 0-.56-.078-.761-.24-.201-.16-.31-.386-.335-.674h2.412c.024-.107.035-.226.035-.367 0-.209-.04-.397-.117-.568a1.35 1.35 0 00-.31-.442 1.385 1.385 0 00-.465-.284 1.805 1.805 0 00-1.259.024 1.425 1.425 0 00-.818.843c-.074.199-.111.41-.11.623 0 .24.043.458.12.654a1.438 1.438 0 00.868.825 2.146 2.146 0 001.326.014zm-1.41-2.346c.172-.154.401-.23.69-.23.272 0 .49.073.65.217.158.143.242.342.257.595h-1.904a.926.926 0 01.306-.582z" fill="#000"/><path d="M62.643 31.69h.507l1.206 1.51 1.143-1.51h.493v3.047h-.557v-2.222l-1.086 1.414h-.021L63.2 32.515v2.222h-.557V31.69z" fill="#000"/><path fill-rule="evenodd" clip-rule="evenodd" d="M67.509 31.7a1.77 1.77 0 00-.48.201l.149.432c.127-.061.254-.113.38-.157a1.48 1.48 0 01.484-.066.84.84 0 01.373.072.49.49 0 01.215.196.82.82 0 01.1.304c.017.12.024.25.024.391a.965.965 0 00-.381-.154 2.22 2.22 0 00-.402-.041c-.166 0-.32.024-.47.065a1.04 1.04 0 00-.376.185.884.884 0 00-.339.719c0 .298.089.53.265.695.176.164.409.246.698.246.26 0 .469-.044.627-.133.16-.09.286-.192.378-.308v.394h.522v-1.87c0-.398-.088-.706-.268-.922-.176-.215-.49-.325-.935-.325-.197 0-.384.027-.564.076zm.931 2.469c-.126.089-.292.13-.497.13-.18 0-.32-.045-.42-.13a.448.448 0 01-.148-.35c0-.085.018-.157.057-.222a.51.51 0 01.152-.158.675.675 0 01.215-.092.992.992 0 01.246-.031c.276 0 .512.065.706.202v.387c-.092.1-.196.19-.31.264zm5.755-3.552a.853.853 0 00.317-.263l-.303-.428a.608.608 0 01-.265.212c-.104.04-.213.07-.324.089l-.106.019-.296.05c-.17.03-.336.081-.493.15-.251.107-.452.25-.603.432a2.018 2.018 0 00-.353.613 3.15 3.15 0 00-.166.709 6.178 6.178 0 00-.042.708c0 .292.038.555.116.791.078.237.187.435.331.596.145.165.318.288.523.377.204.09.433.134.69.134.237 0 .456-.045.653-.127.19-.08.363-.194.508-.339.14-.14.254-.309.331-.497.081-.188.12-.39.12-.603a1.83 1.83 0 00-.102-.623 1.289 1.289 0 00-.751-.784 1.628 1.628 0 00-.998-.058 1.522 1.522 0 00-.353.147c-.107.06-.206.135-.292.223a1.008 1.008 0 00-.205.29h-.014c.01-.14.028-.283.06-.43a2.09 2.09 0 01.138-.422 1.47 1.47 0 01.232-.363c.102-.11.227-.198.367-.257.153-.072.316-.123.483-.154l.11-.02c.11-.02.216-.038.317-.059a1.72 1.72 0 00.37-.113zm-1.96 2.928a1.678 1.678 0 01-.078-.534.853.853 0 01.127-.29c.06-.093.137-.175.229-.248.207-.159.463-.245.726-.242.328 0 .575.099.748.294.173.199.257.445.257.743 0 .147-.028.281-.077.404a.97.97 0 01-.536.545 1.042 1.042 0 01-.42.082.98.98 0 01-.762-.35 1.28 1.28 0 01-.215-.404zm6.872-1.856h-.558v3.048h.558V31.69zm-3.47 0h.557v.915h.515c.243 0 .44.03.6.089.158.058.285.137.38.233a.811.811 0 01.201.335c.039.127.06.257.06.394s-.021.267-.067.398a.898.898 0 01-.215.345 1.038 1.038 0 01-.402.247c-.17.061-.374.096-.62.096h-1.013v-3.052h.004zm.557 1.425v1.116h.406c.278 0 .476-.047.589-.144.113-.096.169-.232.169-.414 0-.185-.06-.325-.173-.421-.116-.096-.31-.144-.578-.144h-.413v.007z" fill="#000"/><path d="M82.791 34.296a1.26 1.26 0 01-.522.38 1.84 1.84 0 01-.684.13 1.972 1.972 0 01-.684-.113 1.463 1.463 0 01-.874-.826 1.7 1.7 0 01-.124-.653 1.595 1.595 0 01.452-1.127 1.62 1.62 0 01.5-.339c.201-.087.42-.13.639-.127.25 0 .483.031.694.093.212.061.392.164.54.308l-.258.428a1.215 1.215 0 00-.43-.247 1.54 1.54 0 00-.469-.071 1.097 1.097 0 00-.75.298 1.07 1.07 0 00-.324.787 1.065 1.065 0 00.334.79.998.998 0 00.36.217c.137.048.282.075.437.075.19 0 .36-.038.51-.11.147-.07.28-.166.389-.283l.264.39zm.286-2.61h2.86v.541h-1.15v2.507h-.557v-2.507h-1.15v-.54h-.003z" fill="#000"/><path fill-rule="evenodd" clip-rule="evenodd" d="M87.1 31.688h-.557v4.404h.557v-1.497c.113.072.247.124.402.158.155.034.317.051.483.051a1.605 1.605 0 001.184-.472 1.49 1.49 0 00.332-.521 1.79 1.79 0 00.117-.647 1.86 1.86 0 00-.102-.624 1.443 1.443 0 00-.29-.486 1.256 1.256 0 00-.455-.318c-.19-.08-.395-.12-.603-.117a1.56 1.56 0 00-.616.124 1.192 1.192 0 00-.452.304v-.359zm.388.565a1.11 1.11 0 01.519-.123c.162 0 .306.024.437.075a.904.904 0 01.518.555c.046.13.067.27.067.425 0 .164-.028.311-.077.448a.984.984 0 01-.215.35.992.992 0 01-.342.229c-.144.059-.3.088-.455.085a1.72 1.72 0 01-.427-.05 1.408 1.408 0 01-.412-.186v-1.51c.098-.116.229-.215.387-.298zm6.403-.565h-.557v3.048h.557v-3.048zm-3.473 0h.557v.914h.515c.243 0 .44.031.6.09.158.057.285.136.38.232.096.096.163.21.201.335a1.297 1.297 0 01-.006.792.898.898 0 01-.216.346 1.037 1.037 0 01-.402.247c-.169.06-.373.095-.62.095h-1.012v-3.051h.003zm.561 1.424v1.117h.406c.278 0 .476-.048.588-.144.113-.096.17-.233.17-.414 0-.186-.06-.325-.173-.422-.116-.096-.31-.144-.578-.144h-.413v.007z" fill="#000"/><path d="M96.564 33.159l1.192 1.578h-.684l-.92-1.233-.935 1.233h-.649l1.185-1.551-1.114-1.497h.684l.85 1.151.863-1.15h.65l-1.122 1.469zm-48.949 5.346h-1.71v2.54h-.557v-3.047h2.824v3.047h-.557v-2.54zm3.72.034h-1.1l-.036.513a6.075 6.075 0 01-.165 1.051 1.914 1.914 0 01-.272.617.776.776 0 01-.37.291c-.146.052-.3.078-.455.076l-.042-.528a.46.46 0 00.207-.044.575.575 0 00.23-.223c.074-.117.141-.28.2-.493a4.2 4.2 0 00.12-.85l.057-.948h2.183v3.048h-.557v-2.51z" fill="#000"/><path fill-rule="evenodd" clip-rule="evenodd" d="M53.395 38.005a1.76 1.76 0 00-.48.202l.148.431c.127-.061.254-.113.38-.157.128-.045.29-.065.484-.065.155 0 .279.024.374.071a.491.491 0 01.215.196c.05.082.08.185.099.304.017.12.024.25.024.391a.963.963 0 00-.38-.154 2.222 2.222 0 00-.403-.041c-.165 0-.32.024-.468.065a1.04 1.04 0 00-.378.185.884.884 0 00-.338.72c0 .297.088.53.264.694.176.164.41.247.699.247.26 0 .468-.045.627-.134.158-.089.285-.192.377-.308v.394h.522v-1.87c0-.397-.088-.706-.268-.921-.176-.216-.49-.325-.934-.325-.19 0-.38.025-.564.075zm.934 2.469c-.126.089-.292.13-.497.13-.183 0-.32-.044-.42-.13a.447.447 0 01-.148-.35c0-.085.018-.157.057-.222a.506.506 0 01.152-.158.67.67 0 01.215-.092.97.97 0 01.246-.03 1.2 1.2 0 01.706.2v.388c-.092.1-.196.189-.31.264z" fill="#000"/><path d="M55.707 37.996h2.86v.54h-1.15v2.508h-.557v-2.507h-1.15v-.54h-.003z" fill="#000"/><path fill-rule="evenodd" clip-rule="evenodd" d="M61.17 41.014c.212-.065.391-.164.546-.3l-.169-.426a1.31 1.31 0 01-.405.227 1.588 1.588 0 01-.557.092c-.307 0-.561-.079-.762-.24-.201-.16-.31-.386-.335-.675H61.9c.024-.105.035-.225.035-.366a1.36 1.36 0 00-.892-1.294 1.803 1.803 0 00-1.259.024 1.433 1.433 0 00-.818.842c-.074.2-.111.41-.11.623 0 .24.043.46.12.655a1.437 1.437 0 00.869.825c.222.078.457.116.694.113.208 0 .42-.035.631-.1zm-1.414-2.349c.173-.154.402-.23.691-.23.275 0 .49.076.65.217.158.144.242.342.256.596H59.45a.925.925 0 01.307-.583zm2.45-.667h.706l1.075 1.469-1.15 1.578h-.683l1.205-1.578-1.152-1.47zm1.918 0h.558v3.047h-.558v-3.047zm2.55 3.047l-1.227-1.578 1.146-1.47h-.691l-1.083 1.47 1.164 1.578h.69zm2.546-.03a1.47 1.47 0 00.546-.302l-.169-.425c-.102.09-.24.165-.405.227a1.592 1.592 0 01-.557.092c-.307 0-.561-.079-.762-.24-.201-.16-.31-.386-.335-.675h2.412a1.59 1.59 0 00.035-.366c0-.209-.039-.397-.117-.568a1.348 1.348 0 00-.31-.442 1.381 1.381 0 00-.465-.284 1.572 1.572 0 00-.568-.103c-.26 0-.49.044-.69.127a1.52 1.52 0 00-.505.339c-.14.144-.246.316-.314.503-.074.2-.111.41-.11.623 0 .24.043.46.12.655a1.44 1.44 0 00.868.825 2.133 2.133 0 001.325.013zm-1.414-2.35c.173-.154.402-.23.691-.23.272 0 .49.076.65.217.158.144.242.342.256.596H67.5a.925.925 0 01.307-.583zm4.44-1.691c-.328 0-.508-.178-.536-.534h-.526c0 .136.025.26.07.376a.81.81 0 00.202.298c.088.082.2.147.331.198.13.052.282.076.455.076a1.113 1.113 0 00.751-.274.864.864 0 00.208-.298.947.947 0 00.074-.377h-.522c-.024.356-.197.535-.507.535zm-1.506 1.023v3.048h.557l1.812-2.27v2.27h.558v-3.048h-.558l-1.812 2.27v-2.27h-.557z" fill="#000"/></g><defs><clipPath id="clip0_3662_5129"><path fill="#fff" d="M0 0h100.147v49.388H0z"/></clipPath></defs></svg>