<svg width="235" height="53" fill="none" xmlns="http://www.w3.org/2000/svg"><mask id="mask0_3662_5354" style="mask-type:luminance" maskUnits="userSpaceOnUse" x="0" y="0" width="235" height="53"><path d="M235 0H0v52.566h235V0z" fill="#fff"/></mask><g mask="url(#mask0_3662_5354)"><path d="M0 7.73h40.197v20.472a14.7 14.7 0 01-7.343 12.724l-12.755 7.513-12.742-7.513C2.81 38.31.02 33.45.02 28.202V7.73H0z" fill="#FFDD2D"/><path fill-rule="evenodd" clip-rule="evenodd" d="M10.822 18.501v6.362c.879-.976 2.46-1.64 4.255-1.64h1.97v7.397c0 1.97-.526 3.688-1.326 4.644h8.753c-.8-.956-1.283-2.673-1.283-4.644v-7.396h1.917c1.815 0 3.408.663 4.267 1.639V18.5H10.822z" fill="#333"/><path d="M224.177 17.596h-4.638v1.714c-6.498.14-10.822 2.892-10.822 7.749 0 4.856 4.324 7.395 10.822 7.535v1.714h4.638v-1.714c6.534-.14 10.844-2.679 10.844-7.535 0-4.857-4.31-7.609-10.844-7.749v-1.714zm-4.638 13.355c-3.568-.14-5.581-1.604-5.581-3.892 0-2.289 2.005-3.93 5.581-4.07v7.962zm4.638-7.962c3.606.14 5.561 1.788 5.561 4.07 0 2.28-1.955 3.752-5.561 3.892V22.99zm-27.829-5.393h-4.638v1.714c-6.498.14-10.822 2.892-10.822 7.749 0 4.856 4.324 7.395 10.822 7.535v1.714h4.638v-1.714c6.534-.14 10.844-2.679 10.844-7.535 0-4.857-4.31-7.609-10.844-7.749v-1.714zM191.71 30.95c-3.568-.14-5.581-1.604-5.581-3.892 0-2.289 2.005-3.93 5.581-4.07v7.962zm4.638-7.962c3.606.14 5.561 1.788 5.561 4.07 0 2.28-1.955 3.752-5.561 3.892v-7.96zm-28.099-4.894c-6.96 0-11.141 3.93-11.141 8.999 0 5.07 4.181 9 11.141 9 6.961 0 11.104-3.93 11.104-9s-4.179-9-11.104-9zm0 13.856c-3.466 0-5.68-2.068-5.68-4.857s2.214-4.82 5.68-4.82c3.466 0 5.68 2.039 5.68 4.82 0 2.782-2.251 4.857-5.68 4.857z" fill="#333"/><path d="M144.199 29.133l6.181 6.43h6.895l-8.609-8.851 8.285-8.139h-6.497l-6.248 6.395h-1.427v-6.395h-5.18v16.998h5.18V29.14h1.427l-.007-.007zm-16.206 6.423c1.177 0 2.252-.11 3.252-.39 2.679-.751 4.43-2.93 4.43-5.894 0-2.966-1.501-4.784-3.892-5.681-1.141-.427-2.502-.464-3.783-.464h-5.32v-4.57h-5.18v16.999H128h-.007zm-.89-8.426c.713 0 1.391 0 2.001.213.854.288 1.354 1.001 1.354 1.855 0 .853-.5 1.64-1.324 2.001-.574.25-1.141.25-2.039.25h-4.429V27.13h4.437zm-17.874 2.11v6.321h5.179V18.564h-5.179v6.726h-8.193v-6.726h-5.18V35.56h5.18v-6.32h8.193zm-29.838-.793v-9.89h-5.18v16.999h4.57l8.803-9.89v9.89h5.18V18.558h-4.577l-8.796 9.89zM65.398 35.56V23.19h7.266v-4.637H52.565v4.638h7.267V35.56h5.566z" fill="#333"/></g></svg>