<svg width="218" height="160" fill="none" xmlns="http://www.w3.org/2000/svg"><path d="M0 0h218v130c0 16.569-13.431 30-30 30H30c-16.569 0-30-13.431-30-30V0z" fill="#fff" fill-opacity=".5"/><path d="M144.122 76.489l-30.829-13.464a250.87 250.87 0 01-6.665 7.572l22.827 9.886c.834.506 1.73.892 2.661 1.148 1.22.344 2.479.517 3.742.513 4.883 0 8.814-2.398 8.984-5.399-.238-.077-.488-.153-.72-.256z" fill="#1FE5B4"/><path d="M96.777 55.818C82 77.008 73.23 90.472 71.752 94.345a7.925 7.925 0 00-.738 2.75c.348-.038 1.22-.282 3.192-1.474a83.776 83.776 0 005.084-3.386l.574-.41 12.055 5.213.262.115c.317.128.61.256.977.372 4.333 1.442 8.007.314 8.581-1.603.574-1.917-1.532-4.488-4.773-5.963l-.134-.057a8.098 8.098 0 00-.537-.231l-8.905-3.796 1.623-1.436a231.356 231.356 0 0013.19-12.88 234.023 234.023 0 008.618-9.618l-14.044-6.123zm48.313 18.183c1.462.594 3.017.89 4.584.872 4.547 0 7.721-2.237 7.721-4.25 0-1.34-1.318-2.68-3.442-3.501h-.055L73.043 31.833a9.445 9.445 0 00-1.22-.532 12.193 12.193 0 00-4.102-.686c-4.553 0-7.721 2.238-7.721 4.25 0 1.36 1.404 2.751 3.583 3.553l32.312 14.105 2.442 1.058 14.252 6.225 2.496 1.09 30.005 13.105zM64.813 52.497c.623.35 1.277.633 1.953.846L88.33 62.68c2.21-3.027 4.273-5.77 5.914-7.963L67.712 43.13c-3.418.795-5.847 2.834-5.847 5.232 0 1.622 1.117 3.077 2.893 4.103l.055.032zm57.1-2.257c.311-.41.488-.64.488-.64.995-1.354 3.1-4.303 2.698-7.842-.556-4.937-5.952-10.483-11.152-9.303-3.1.699-4.882 3.513-5.45 4.488a2118.875 2118.875 0 00-4.035 5.7l17.451 7.597zM75.806 80.938l-4.156-1.776a12.948 12.948 0 00-2.674-1.237 10.85 10.85 0 00-5.865-.43c-1.447.353-2.441 1.09-2.722 2.033-.55 1.834 1.422 4.36 4.59 5.873.274.135.561.256.854.372l5.737 2.481c1.148-2.212 2.6-4.7 4.236-7.316zm-30.407 43.015V127H30.955v-2.607l6.93-7.486c.722-.82 1.293-1.533 1.713-2.138.42-.606.718-1.153.894-1.641.185-.498.278-.972.278-1.421 0-.654-.117-1.226-.352-1.714a2.628 2.628 0 00-1.025-1.157c-.44-.274-.982-.41-1.626-.41-.713 0-1.323.166-1.831.498a3.095 3.095 0 00-1.143 1.347c-.254.577-.38 1.236-.38 1.978H30.53c0-1.26.293-2.407.879-3.442.585-1.045 1.425-1.88 2.52-2.505 1.093-.625 2.392-.938 3.896-.938 1.464 0 2.705.244 3.72.733 1.016.478 1.787 1.162 2.315 2.05.527.889.79 1.949.79 3.179a6.27 6.27 0 01-.336 2.022 9.382 9.382 0 01-.952 1.977c-.4.645-.88 1.299-1.436 1.963a34.156 34.156 0 01-1.86 2.036l-4.16 4.629h9.492zm12.275-15.044L51.594 127h-4.262l7.969-21.328h2.724l-.351 3.237zM62.757 127l-6.109-18.091-.366-3.237h2.74L67.033 127h-4.277zm-.279-7.925v3.179h-11.44v-3.179h11.44zm10.473-4.541V127h-3.867v-15.85h3.633l.234 3.384zm-.615 3.97h-1.142c.01-1.152.166-2.197.468-3.135.303-.937.728-1.743 1.275-2.417a5.734 5.734 0 011.977-1.553c.762-.361 1.612-.542 2.55-.542.76 0 1.45.108 2.064.323a3.894 3.894 0 011.582 1.025c.45.469.792 1.084 1.026 1.846.244.752.366 1.679.366 2.783V127h-3.896v-10.195c0-.723-.108-1.294-.323-1.714a1.799 1.799 0 00-.908-.894c-.39-.176-.874-.263-1.45-.263-.596 0-1.118.122-1.567.366-.44.234-.81.561-1.114.981a4.86 4.86 0 00-.674 1.45 6.434 6.434 0 00-.234 1.773zm18.823 6.738l4.248-14.092h4.145l-6.357 18.252a12.39 12.39 0 01-.571 1.275 5.408 5.408 0 01-.909 1.303c-.38.42-.859.762-1.435 1.026-.567.264-1.255.395-2.066.395-.351 0-.664-.024-.937-.073a11.83 11.83 0 01-.864-.19v-2.901c.097.01.21.015.337.015.136.01.254.015.351.015.567 0 1.035-.069 1.406-.205a1.85 1.85 0 00.894-.63c.234-.284.43-.655.586-1.114l1.172-3.076zm-2.095-14.092l3.589 11.675.63 4.087-2.666.484-5.728-16.246h4.175zm18.5 11.763l4.248-17.241h2.3l.147 3.633L109.718 127h-2.432l.278-4.087zm-2.68-17.241l3.486 17.182V127h-2.651l-4.834-21.328h3.999zm13.784 17.109l3.428-17.109h4.013L121.275 127h-2.651l.044-4.219zm-3.457-17.109l4.248 17.3.249 4.028h-2.432l-4.526-17.71.176-3.618h2.285zm17.548-1.172V127h-3.882v-22.5h3.882zm-.615 14.004h-1.143c0-1.104.147-2.119.44-3.047.293-.928.708-1.733 1.245-2.417a5.713 5.713 0 011.919-1.611c.752-.381 1.582-.572 2.49-.572.781 0 1.489.113 2.124.337a4.02 4.02 0 011.655 1.04c.459.479.811 1.104 1.055 1.875.254.762.381 1.69.381 2.784V127h-3.897v-10.137c0-.732-.107-1.308-.322-1.728-.215-.43-.522-.738-.923-.923-.39-.186-.874-.278-1.45-.278-.625 0-1.162.122-1.611.366-.449.234-.82.561-1.113.981-.284.42-.498.904-.645 1.45a7.284 7.284 0 00-.205 1.773zm21.298 8.789c-1.201 0-2.28-.195-3.237-.586a7.11 7.11 0 01-2.446-1.626 7.476 7.476 0 01-1.538-2.446 8.52 8.52 0 01-.528-3.018v-.586c0-1.22.176-2.329.528-3.325.351-1.006.849-1.87 1.494-2.593a6.587 6.587 0 012.314-1.67c.899-.39 1.89-.586 2.974-.586 1.123 0 2.114.191 2.973.572.86.371 1.578.898 2.154 1.582.576.683 1.01 1.504 1.303 2.461.293.947.44 1.997.44 3.149v1.626h-12.422v-2.666h8.613v-.293a4.647 4.647 0 00-.351-1.684 2.695 2.695 0 00-.996-1.231c-.45-.312-1.031-.469-1.744-.469-.576 0-1.079.127-1.508.381-.42.244-.772.596-1.055 1.055-.273.449-.479.986-.615 1.611a9.738 9.738 0 00-.205 2.08v.586c0 .664.088 1.279.263 1.846.186.566.454 1.059.806 1.479a3.91 3.91 0 001.289.967c.508.225 1.084.337 1.729.337.81 0 1.543-.156 2.197-.469a4.888 4.888 0 001.728-1.421l1.949 2.022c-.332.488-.782.957-1.348 1.406-.557.449-1.231.816-2.022 1.099-.791.273-1.704.41-2.739.41zm13.491-12.905V127h-3.867v-15.85h3.662l.205 3.238zm4.819-3.34l-.058 3.603a6.997 6.997 0 00-.733-.088 10.446 10.446 0 00-.747-.029c-.596 0-1.118.083-1.567.249a2.91 2.91 0 00-1.128.689 3.033 3.033 0 00-.674 1.113c-.156.43-.244.918-.264 1.465l-.835-.103c0-1.006.103-1.938.308-2.798.205-.859.503-1.611.893-2.255.391-.645.879-1.143 1.465-1.495.596-.361 1.28-.542 2.051-.542.215 0 .444.02.689.059.253.029.454.073.6.132zm9.55 16.245c-1.201 0-2.28-.195-3.237-.586a7.12 7.12 0 01-2.446-1.626 7.476 7.476 0 01-1.538-2.446 8.52 8.52 0 01-.528-3.018v-.586c0-1.22.176-2.329.528-3.325.351-1.006.849-1.87 1.494-2.593a6.587 6.587 0 012.314-1.67c.899-.39 1.89-.586 2.974-.586 1.123 0 2.114.191 2.974.572a5.746 5.746 0 012.153 1.582c.576.683 1.011 1.504 1.304 2.461.293.947.439 1.997.439 3.149v1.626h-12.422v-2.666h8.613v-.293a4.647 4.647 0 00-.351-1.684 2.695 2.695 0 00-.996-1.231c-.449-.312-1.031-.469-1.743-.469-.577 0-1.08.127-1.509.381-.42.244-.772.596-1.055 1.055-.273.449-.478.986-.615 1.611a9.738 9.738 0 00-.205 2.08v.586c0 .664.088 1.279.263 1.846.186.566.455 1.059.806 1.479a3.91 3.91 0 001.289.967c.508.225 1.084.337 1.729.337.81 0 1.543-.156 2.197-.469a4.888 4.888 0 001.728-1.421l1.949 2.022c-.332.488-.782.957-1.348 1.406-.557.449-1.23.816-2.021 1.099-.791.273-1.705.41-2.74.41z" fill="#1FE5B4"/></svg>