<svg width="64" height="64" fill="none" xmlns="http://www.w3.org/2000/svg"><rect width="64" height="64" rx="13" fill="#1FE5B4"/><path d="M51.322 39.801l-15.51-7.573a137.267 137.267 0 01-3.353 4.26l11.484 5.56c.42.284.87.502 1.339.645.614.194 1.247.29 1.882.289 2.457 0 4.434-1.349 4.52-3.037-.12-.043-.245-.086-.362-.144z" fill="#fff"/><path d="M27.502 28.175c-7.435 11.918-11.847 19.49-12.59 21.669a4.873 4.873 0 00-.372 1.547c.175-.022.614-.159 1.606-.83a42.13 42.13 0 002.558-1.904l.289-.23 6.064 2.931.132.065c.16.072.308.145.492.21 2.18.81 4.029.176 4.317-.902.289-1.078-.77-2.524-2.401-3.354l-.068-.032a3.763 3.763 0 00-.27-.13l-4.48-2.135.817-.807a123.71 123.71 0 006.636-7.245 128.327 128.327 0 004.336-5.41l-7.066-3.443zM51.81 38.402c.734.334 1.517.5 2.305.49 2.288 0 3.885-1.258 3.885-2.39 0-.754-.663-1.508-1.732-1.97h-.028L15.562 14.686a4.485 4.485 0 00-.614-.299A5.552 5.552 0 0012.884 14C10.595 14 9 15.26 9 16.39c0 .765.706 1.548 1.803 1.999l16.256 7.933 1.228.595 7.17 3.501 1.257.613 15.095 7.37zM11.421 26.307c.314.197.643.356.983.476l10.849 5.25c1.111-1.701 2.15-3.245 2.975-4.478L12.88 21.04c-1.72.447-2.942 1.594-2.942 2.942 0 .913.562 1.731 1.455 2.308l.028.018zm28.727-1.269l.245-.36c.501-.761 1.56-2.42 1.358-4.41-.28-2.777-2.994-5.897-5.61-5.233-1.56.393-2.457 1.976-2.743 2.524-.595.938-1.283 2.023-2.03 3.206l8.78 4.273zM16.952 42.304l-2.091-1a6.23 6.23 0 00-1.345-.695 4.917 4.917 0 00-2.951-.242c-.728.199-1.229.613-1.37 1.143-.276 1.032.715 2.453 2.31 3.304.137.075.282.144.43.209l2.886 1.395a62.894 62.894 0 012.13-4.114z" fill="#fff"/></svg>