<svg viewBox="0 0 31 31" xmlns="http://www.w3.org/2000/svg" xmlns:xlink="http://www.w3.org/1999/xlink"><style>:root&gt;svg{display:none}:root&gt;svg:target{display:block}</style><svg fill="none" viewBox="0 0 30 31" id="profile" xmlns="http://www.w3.org/2000/svg"><path d="M19.3 11.822c-1.257.654-2.754 1.011-4.3 1.011-2.078 0-4.036-.644-5.447-1.742-1.406-1.093-2.124-2.514-2.124-3.924 0-1.056.4-2.119 1.203-3.052.805-.938 1.979-1.7 3.395-2.156a9.865 9.865 0 014.492-.343c1.513.234 2.878.809 3.928 1.626 1.049.816 1.723 1.823 1.99 2.872.268 1.043.135 2.128-.4 3.134-.54 1.014-1.478 1.92-2.736 2.575zm9.458 17.4c-.206.16-.528.278-.9.278H2.142c-.373 0-.695-.117-.901-.277-.2-.156-.242-.306-.242-.39 0-2.736 1.396-5.429 4.007-7.46 2.617-2.035 6.21-3.206 9.993-3.206 3.783 0 7.375 1.17 9.993 3.206 2.61 2.031 4.007 4.724 4.007 7.46 0 .084-.041.234-.242.39z" stroke="#544A49" stroke-width="2"/></svg><svg fill="none" viewBox="0 0 31 31" id="quest" xmlns="http://www.w3.org/2000/svg"><path d="M15.5.188C7.044.188.187 7.043.187 15.5S7.045 30.813 15.5 30.813 30.813 23.956 30.813 15.5 23.956.187 15.5.187zm0 24.199a1.367 1.367 0 110-2.734 1.367 1.367 0 010 2.734zm2.15-7.503a1.65 1.65 0 00-1.056 1.532v.775c0 .15-.123.274-.274.274h-1.64a.274.274 0 01-.274-.274v-.735c0-.789.23-1.568.68-2.218a3.82 3.82 0 011.781-1.398c1.162-.447 1.914-1.421 1.914-2.485 0-1.507-1.473-2.734-3.281-2.734s-3.281 1.227-3.281 2.734v.26c0 .15-.123.274-.274.274h-1.64a.274.274 0 01-.274-.274v-.26c0-1.343.588-2.597 1.654-3.53 1.026-.9 2.38-1.391 3.815-1.391 1.436 0 2.79.495 3.814 1.39 1.067.934 1.655 2.188 1.655 3.531 0 1.976-1.303 3.753-3.32 4.53z" fill="#424141"/></svg><svg fill="none" viewBox="0 0 28 28" id="turn" xmlns="http://www.w3.org/2000/svg"><path d="M0 19.256a1.072 1.072 0 001.073 1.072l4.99-.001-5.748 5.747A1.071 1.071 0 101.83 27.59l5.748-5.747-.002 4.99a1.073 1.073 0 102.146 0v-7.576a1.071 1.071 0 00-1.073-1.073H1.073A1.07 1.07 0 000 19.256zm26.832 1.072a1.073 1.073 0 100-2.145h-7.576a1.07 1.07 0 00-1.073 1.073v7.576a1.073 1.073 0 002.145 0l-.001-4.99 5.747 5.747a1.071 1.071 0 001.515-1.515l-5.747-5.747 4.99.001zM7.576 1.073a1.073 1.073 0 112.146 0v7.576a1.072 1.072 0 01-1.073 1.073H1.073a1.073 1.073 0 110-2.146l4.99.002L.314 1.83A1.071 1.071 0 111.83.315l5.748 5.747-.002-4.99zm12.752 0a1.073 1.073 0 10-2.145 0v7.576a1.074 1.074 0 001.073 1.073h7.576a1.072 1.072 0 100-2.146l-4.99.002 5.747-5.748A1.072 1.072 0 0026.074.315l-5.747 5.747.001-4.99z" fill="#424141"/></svg></svg>