<svg width="18" height="16" xmlns="http://www.w3.org/2000/svg"><path d="M9.52.27a.77.77 0 01.53.21l7 7a.75.75 0 010 1.06l-7 7a.75.75 0 01-1.06 0 .74.74 0 010-1.06L15.45 8 9 1.55A.74.74 0 019 .49a.71.71 0 01.52-.22z"/><path d="M1.48 7.25h15a.75.75 0 010 1.5h-15a.75.75 0 110-1.5z"/><path d="M9.52.27a.77.77 0 01.53.21l7 7a.75.75 0 010 1.06l-7 7a.75.75 0 01-1.06 0 .74.74 0 010-1.06L15.45 8 9 1.55A.74.74 0 019 .49a.71.71 0 01.52-.22z"/><path d="M1.48 7.25h15a.75.75 0 010 1.5h-15a.75.75 0 110-1.5z"/></svg>