<svg width="31" height="31" xmlns="http://www.w3.org/2000/svg"><path fill-rule="evenodd" clip-rule="evenodd" d="M5.167 5.167A2.583 2.583 0 002.583 7.75v2.583h2.584v-.756l8.963 8.963a1.938 1.938 0 002.74 0l8.963-8.963V23.25H5.167v-1.292H2.583v1.292a2.583 2.583 0 002.584 2.583h20.666a2.583 2.583 0 002.584-2.583V7.75a2.583 2.583 0 00-2.584-2.583H5.167zm18.84 2.583H6.993l8.507 8.507 8.507-8.507z"/><path d="M2.583 12.917a1.292 1.292 0 000 2.583h3.875a1.292 1.292 0 000-2.583H2.583zM0 18.083c0-.713.578-1.291 1.292-1.291H7.75a1.292 1.292 0 010 2.583H1.292A1.292 1.292 0 010 18.083z"/></svg>