<svg width="131" height="137" fill="none" xmlns="http://www.w3.org/2000/svg"><path d="M.002 85.531a51.954 51.954 0 1028.984-47.085l.033.066-.254 31.492s2.65-3.518 4.837-5.345c2.078-1.737 5.952-3.797 6.333-3.998l.01.02a27.164 27.164 0 11-15.151 24.85h.01V25.113c0-5.382-1.807-10.714-5.69-14.441C13.853 5.619 8.48 2.377 0 0l.002 85.531z" fill="#F0E1CE"/><path d="M104.223 63.13s-5.724-10.872-10.546-16.29c-4.813-5.409-14.224-11.435-14.255-11.455V0c8.479 2.378 13.852 5.62 19.115 10.672 3.882 3.727 5.689 9.06 5.689 14.441l-.003 38.018zm26.024 23.043c0 15.706-3.465 25.257-7.427 30.21-3.962 4.952-4.953 6.438-15.848 12.381-10.895 5.942-26.743 6.438-26.743 6.438 7.427-4.457 12.406-7.731 18.895-17.111a56.102 56.102 0 009.966-31.918h21.157z" fill="#F0E1CE"/></svg>