<svg width="217" height="38" fill="none" xmlns="http://www.w3.org/2000/svg"><path d="M56.679 30.526a9.855 9.855 0 01-3.8-.74c-1.185-.501-2.201-1.18-3.048-2.036-.848-.856-1.518-1.88-2.01-3.074a9.987 9.987 0 01-.74-3.826c0-1.366.246-2.65.74-3.852.492-1.202 1.162-2.23 2.01-3.087.847-.856 1.863-1.53 3.048-2.023a9.708 9.708 0 013.8-.752c2.257 0 4.21.683 5.862 2.049 1.66 1.366 2.707 3.152 3.139 5.357h-4.034c-.389-1.107-1.024-1.976-1.906-2.607-.874-.64-1.894-.96-3.061-.96-1.574 0-2.888.562-3.943 1.686-1.055 1.115-1.582 2.512-1.582 4.19 0 1.668.527 3.06 1.582 4.176 1.055 1.106 2.37 1.66 3.943 1.66 1.219 0 2.274-.342 3.164-1.025.891-.692 1.505-1.63 1.842-2.814h4.06c-.424 2.3-1.466 4.154-3.126 5.564-1.66 1.41-3.64 2.114-5.94 2.114zm23.696-.402l-1.297-3.528h-7.406l-1.271 3.528h-4.267l7.289-18.6h3.787l7.523 18.6h-4.358zm-5.02-13.683l-2.425 6.653h4.877l-2.451-6.654zm18.898-4.916c1.228 0 2.338.277 3.333.83a5.968 5.968 0 012.36 2.296c.58.977.869 2.066.869 3.268 0 1.833-.626 3.36-1.88 4.578-1.254 1.21-2.815 1.816-4.682 1.816h-3.14v5.81h-4.02V11.526h7.16zm-.182 9.066c.787 0 1.427-.25 1.92-.752.493-.502.739-1.142.739-1.92s-.246-1.414-.74-1.907c-.484-.501-1.123-.752-1.919-.752h-2.957v5.33h2.957zm9.546 9.533v-18.6h4.021v18.6h-4.021zm21.089-18.599v3.735h-5.175v14.864h-4.021V15.26h-5.162v-3.735h14.358zm13.255 18.599l-1.297-3.528h-7.406l-1.271 3.528h-4.267l7.289-18.6h3.788l7.522 18.6h-4.358zm-5.019-13.683l-2.425 6.653h4.876l-2.451-6.654zm15.758 9.947h7.134v3.736H144.68v-18.6h4.02v14.864zm26.589-6.069a4.567 4.567 0 011.906 1.802c.45.77.675 1.648.675 2.633 0 1.487-.575 2.754-1.725 3.8-1.142 1.047-2.521 1.57-4.138 1.57h-7.898v-18.6h7.691c1.599 0 2.931.46 3.995 1.376 1.063.908 1.595 2.045 1.595 3.41 0 .796-.186 1.549-.558 2.258a4.854 4.854 0 01-1.543 1.75zm-2.374-1.946c.381-.372.571-.852.571-1.44s-.19-1.063-.571-1.426c-.38-.364-.882-.545-1.504-.545h-3.347v3.956h3.347c.631 0 1.132-.182 1.504-.545zm-1.284 8.054c.657 0 1.185-.194 1.583-.583.406-.39.609-.89.609-1.505 0-.605-.203-1.102-.609-1.491-.398-.39-.926-.584-1.583-.584h-3.567v4.163h3.567zm18.353 4.099c-1.401 0-2.715-.247-3.943-.74-1.228-.501-2.283-1.18-3.165-2.036-.873-.856-1.565-1.885-2.075-3.087a9.86 9.86 0 01-.752-3.839c0-1.357.25-2.637.752-3.839.51-1.202 1.202-2.23 2.075-3.087.882-.856 1.937-1.53 3.165-2.023a10.326 10.326 0 013.943-.752c1.392 0 2.697.246 3.917.74 1.227.492 2.274 1.17 3.138 2.035.874.856 1.561 1.885 2.062 3.087a9.798 9.798 0 01.753 3.84c0 1.366-.251 2.65-.753 3.851a9.414 9.414 0 01-2.062 3.087c-.864.856-1.911 1.53-3.138 2.023-1.22.493-2.525.74-3.917.74zm-4.164-5.486c1.124 1.132 2.512 1.699 4.164 1.699 1.651 0 3.03-.562 4.137-1.687 1.107-1.132 1.66-2.542 1.66-4.228s-.553-3.09-1.66-4.215c-1.107-1.124-2.486-1.686-4.137-1.686-1.652 0-3.04.566-4.164 1.699-1.124 1.133-1.686 2.534-1.686 4.202 0 1.67.562 3.074 1.686 4.215zM217 11.525l-6.55 11.09v7.509h-4.124v-7.536l-6.485-11.063h4.28l4.293 7.445 4.306-7.445H217zM29.746 3.754C27.284 1.91 24.46.706 21.429.258 20.5.121 19.484 0 19.191 0h-.568v4.649h.585c.844 0 2.945.43 4.133.844 1.36.482 2.703 1.24 4.029 2.307l1.102.861 1.618-1.619c.922-.913 1.395-1.315 1.373-1.688-.023-.387-.578-.742-1.717-1.6z" fill="#676767"/><path fill-rule="evenodd" clip-rule="evenodd" d="M14.094 10.331c-.069 0-.12-2.17-.12-4.821 0-4.477-.018-4.821-.293-4.804-.43.017-1.446.396-3.013 1.136l-1.343.62v8.455c.017 9.28.051 9.763 1.016 11.726 2.858 5.785 10.761 6.853 15.152 2.049 1.464-1.602 2.41-3.995 2.428-6.2 0-1.153-.568-3.322-1.154-4.424-.275-.482-.981-1.395-1.601-2.032-1.292-1.309-3.065-2.273-4.735-2.583-1.533-.293-3.788-.103-5.114.43-.62.242-1.171.448-1.223.448zm.517 6.01c.55-1.016 1.395-1.774 2.376-2.118 1.498-.534 3.41-.224 4.58.74.327.276.81.895 1.068 1.377 1.687 3.083-.482 6.733-4.012 6.733-3.53 0-5.7-3.65-4.012-6.733z" fill="#676767"/><path d="M9.927 29.323c-2.238-1.825-3.977-4.494-4.752-7.37-.362-1.273-.396-1.893-.482-8.47L4.59 6.387l-.913 1.24C1.835 10.108.629 13.224.199 16.53c-.276 2.066-.276 2.462.069 4.563.878 5.441 3.702 9.883 8.178 12.845 4.77 3.151 10.59 3.926 16.014 2.118 2.41-.81 4.838-2.187 6.526-3.754l.74-.671-1.429-1.481c-.792-.81-1.515-1.532-1.636-1.619-.138-.086-.62.207-1.291.74-1.274 1.034-3.737 2.29-5.303 2.704-1.55.413-5.338.413-6.888 0-1.55-.413-4.012-1.653-5.252-2.652z" fill="#676767"/></svg>