<svg width="176" height="75" fill="none" xmlns="http://www.w3.org/2000/svg"><path d="M84.48 9.28v65.04h70.08C169.36 73.28 176 64.16 176 52.96c0-11.84-8.96-21.36-20.96-21.36-3.04 0-5.6.64-8.24 1.76C144.88 14.64 128.96 0 109.36 0 100 0 91.12 3.52 84.48 9.28zm-7.04 8.16c-2.4-1.44-4.96-2.56-7.76-3.12v60H80.8V13.04c-1.2 1.28-2.32 2.88-3.36 4.4zm-18.8-4.32v61.2H66V13.36c-1.52-.24-3.04-.32-4.64-.32-.96 0-1.84 0-2.72.08zM44 18.32v56h7.28V14.64A28.3 28.3 0 0044 18.32zm-13.36 20c-.48 0-.96-.48-1.52-.72v36.72h7.36V25.2c-2.96 3.84-4.96 8.4-5.84 13.12zm-16.32-2.24V73.6c1.68.48 3.6.72 5.68.72h1.76V35.44c-.64-.08-1.28-.16-1.76-.16-2.08 0-4 .32-5.68.8zM0 54.8c0 6 2.72 11.28 6.96 14.88V40C2.72 43.52 0 48.88 0 54.8z" fill="#676767"/></svg>