<svg width="31" height="31" fill="none" xmlns="http://www.w3.org/2000/svg"><path fill-rule="evenodd" clip-rule="evenodd" d="M12.805.322c3.497.923 6.346 3.853 7.188 7.35.146.583.291 1.473.356 1.975.048.555.068.782.19.875.084.064.217.064.442.064 1.036 0 2.752.486 4.128 1.182 3.156 1.57 5.229 4.71 5.44 8.288.307 4.873-2.251 8.678-7.06 10.507l-.04.01c-.9.232-1.284.33-12.133.378L.016 31v-3.561l11.057-.05 10.301-.044a3.358 3.358 0 001.41-.318l.398-.188c1.198-.566 2.623-1.877 3.173-2.93.194-.372.481-1.128.615-1.894.167-.946 0-2.46 0-2.46s-.263-1.192-.615-1.878c-.765-1.493-1.91-2.348-3.14-2.93-1.085-.502-1.15-.518-3.724-.567l-2.639-.049v-1.975c-.016-3.626-.469-5.131-2.007-6.67A6.638 6.638 0 003.675 8.58c-.21.825-.26 2.104-.26 7.495v6.492H0l.049-7.496s-.116-5.889.048-7.479c.06-.587.364-1.254.364-1.254A10.495 10.495 0 018.84.063c1.23-.145 2.817-.032 3.966.26zm-3.393 10.82c0-.832.675-1.507 1.507-1.507h.376c.833 0 1.508.675 1.508 1.507v9.417h9.417c.832 0 1.507.675 1.507 1.508v.375c0 .833-.675 1.508-1.507 1.508H9.412V11.142z" fill="#fff"/></svg>