<svg width="114" height="114" fill="none" xmlns="http://www.w3.org/2000/svg"><g clip-path="url(#clip0_1092_410)"><path d="M57 10.273c15.229 0 17.016.068 23.035.34 5.567.248 8.576 1.176 10.59 1.968 2.67 1.041 4.571 2.263 6.563 4.254 1.99 1.991 3.235 3.892 4.254 6.562.769 2.014 1.719 5.024 1.968 10.59.272 6.02.34 7.807.34 23.036 0 15.228-.068 17.016-.34 23.035-.249 5.566-1.176 8.576-1.968 10.59-1.041 2.67-2.263 4.57-4.254 6.562-1.992 1.991-3.893 3.236-6.563 4.254-2.014.769-5.023 1.72-10.59 1.969-6.019.271-7.806.339-23.035.339s-17.016-.068-23.035-.339c-5.567-.249-8.576-1.177-10.59-1.969-2.67-1.041-4.571-2.263-6.562-4.254-1.992-1.991-3.236-3.892-4.254-6.562-.77-2.014-1.72-5.023-1.97-10.59-.27-6.02-.338-7.807-.338-23.035 0-15.229.067-17.017.339-23.036.249-5.566 1.177-8.576 1.969-10.59 1.04-2.67 2.262-4.57 4.254-6.562 1.99-1.991 3.892-3.236 6.562-4.254 2.014-.77 5.023-1.72 10.59-1.968 6.019-.295 7.829-.34 23.035-.34zM57 0C41.523 0 39.577.068 33.49.34c-6.066.27-10.206 1.243-13.827 2.646-3.756 1.449-6.923 3.418-10.091 6.586S4.458 15.93 2.987 19.664C1.584 23.284.61 27.425.339 33.512.068 39.576 0 41.522 0 57s.068 17.424.34 23.51c.27 6.065 1.243 10.206 2.646 13.85 1.448 3.756 3.417 6.924 6.585 10.092s6.358 5.114 10.092 6.585c3.62 1.403 7.761 2.376 13.848 2.647 6.087.272 8.01.34 23.51.34 15.5 0 17.424-.068 23.511-.34 6.064-.271 10.206-1.244 13.849-2.647 3.756-1.448 6.924-3.417 10.092-6.585s5.114-6.358 6.584-10.092c1.403-3.62 2.376-7.761 2.648-13.849.271-6.086.339-8.01.339-23.51 0-15.5-.068-17.424-.339-23.51-.272-6.065-1.245-10.206-2.648-13.849-1.448-3.756-3.416-6.924-6.584-10.092-3.168-3.168-6.359-5.114-10.092-6.585C90.762 1.561 86.62.588 80.533.317 74.423.067 72.478 0 57 0z" fill="#676767"/><path d="M57 10.273c15.229 0 17.016.068 23.035.34 5.567.248 8.576 1.176 10.59 1.968 2.67 1.041 4.571 2.263 6.563 4.254 1.99 1.991 3.235 3.892 4.254 6.562.769 2.014 1.719 5.024 1.968 10.59.272 6.02.34 7.807.34 23.036 0 15.228-.068 17.016-.34 23.035-.249 5.566-1.176 8.576-1.968 10.59-1.041 2.67-2.263 4.57-4.254 6.562-1.992 1.991-3.893 3.236-6.563 4.254-2.014.769-5.023 1.72-10.59 1.969-6.019.271-7.806.339-23.035.339s-17.016-.068-23.035-.339c-5.567-.249-8.576-1.177-10.59-1.969-2.67-1.041-4.571-2.263-6.562-4.254-1.992-1.991-3.236-3.892-4.254-6.562-.77-2.014-1.72-5.023-1.97-10.59-.27-6.02-.338-7.807-.338-23.035 0-15.229.067-17.017.339-23.036.249-5.566 1.177-8.576 1.969-10.59 1.04-2.67 2.262-4.57 4.254-6.562 1.99-1.991 3.892-3.236 6.562-4.254 2.014-.77 5.023-1.72 10.59-1.968 6.019-.295 7.829-.34 23.035-.34z" fill="#676767"/><path d="M57 27.742c-16.156 0-29.28 13.102-29.28 29.28 0 16.18 13.101 29.282 29.28 29.282 16.179 0 29.28-13.102 29.28-29.281 0-16.18-13.101-29.28-29.28-29.28zm0 48.266C46.5 76.008 37.992 67.5 37.992 57S46.502 37.993 57 37.993c10.5 0 19.007 8.508 19.007 19.007 0 10.5-8.508 19.008-19.007 19.008zM87.435 33.4a6.834 6.834 0 100-13.668 6.834 6.834 0 000 13.667z" fill="#141212"/></g><defs><clipPath id="clip0_1092_410"><path fill="#fff" d="M0 0h114v114H0z"/></clipPath></defs></svg>