<svg width="119" height="119" fill="none" xmlns="http://www.w3.org/2000/svg"><path d="M104.408 35.605c.046 1.047.046 2.047.046 3.094.045 31.749-23.28 68.401-65.939 68.401-12.581 0-24.933-3.76-35.54-10.805 1.837.238 3.673.333 5.51.333 10.423 0 20.571-3.618 28.79-10.33-9.918-.19-18.642-6.901-21.673-16.707a21.65 21.65 0 0010.47-.428C15.28 66.973 7.52 57.12 7.475 45.648v-.285c3.214 1.856 6.842 2.903 10.515 2.999-10.148-7.045-13.316-21.087-7.163-32.083 11.8 15.042 29.158 24.133 47.8 25.133-1.882-8.33.69-17.088 6.704-22.99 9.322-9.093 24.016-8.617 32.832 1.046 5.189-1.047 10.194-3.046 14.739-5.855-1.744 5.57-5.372 10.282-10.193 13.28a46.434 46.434 0 0013.316-3.76c-3.123 4.856-7.072 9.045-11.617 12.472z" fill="#676767"/></svg>