<svg width="148" height="104" fill="none" xmlns="http://www.w3.org/2000/svg"><path d="M144.952 16.414a18.543 18.543 0 00-13.045-13.045C120.326.2 74 .2 74 .2S27.674.2 16.092 3.249C9.875 4.954 4.755 10.075 3.048 16.414 0 27.995 0 52.012 0 52.012S0 76.15 3.048 87.61a18.543 18.543 0 0013.044 13.044c11.704 3.17 57.908 3.17 57.908 3.17s46.326 0 57.907-3.048a18.543 18.543 0 0013.045-13.044c3.047-11.582 3.047-35.598 3.047-35.598s.122-24.139-3.047-35.72z" fill="#676767"/><path d="M59.249 74.2l38.523-22.188L59.25 29.824v44.375z" fill="#141212"/></svg>