<svg width="100" height="40" fill="none" xmlns="http://www.w3.org/2000/svg"><path d="M30.757 8.114L36.8 6.012h2.627V29h-3.021V9.296l-4.893 1.445-.756-2.627zm14.295-2.102h8.342c2.101 0 3.864.712 5.287 2.135 1.423 1.423 2.134 3.175 2.134 5.254 0 2.08-.711 3.832-2.134 5.255s-3.186 2.134-5.287 2.134h-5.288V29h-3.054V6.012zm3.054 11.921h5.288c1.291 0 2.342-.427 3.152-1.28.832-.898 1.248-1.982 1.248-3.252 0-1.313-.416-2.397-1.248-3.25-.832-.855-1.883-1.282-3.152-1.282h-5.288v9.064zm28.952-2.528V12.58h2.857V29h-2.857v-2.824c-1.401 2.167-3.47 3.25-6.207 3.25-2.32 0-4.28-.831-5.878-2.495-1.62-1.686-2.43-3.733-2.43-6.14 0-2.387.81-4.423 2.43-6.109s3.58-2.529 5.879-2.529c2.736 0 4.805 1.084 6.206 3.252zm-5.845 11.263c1.664 0 3.054-.558 4.17-1.674 1.117-1.16 1.675-2.562 1.675-4.204 0-1.664-.558-3.054-1.675-4.17-1.116-1.139-2.506-1.708-4.17-1.708-1.642 0-3.021.57-4.138 1.708-1.117 1.116-1.675 2.506-1.675 4.17 0 1.642.558 3.043 1.675 4.204 1.117 1.116 2.496 1.674 4.138 1.674zm20.349-1.215l4.73-12.873h3.053l-6.699 17.438c-.722 1.86-1.719 3.273-2.988 4.236-1.248.986-2.682 1.423-4.302 1.314v-2.66c2.014.153 3.492-.963 4.433-3.35l.296-.624-7.16-16.354h3.055l5.582 12.873z" fill="#000"/><path d="M18.045.736c-.489.169-.966.398-1.624.79-.314.188-.616.357-.664.38a3.933 3.933 0 00-.272.164 1.8 1.8 0 01-.332.18.691.691 0 00-.18.11.58.58 0 01-.182.114 8.587 8.587 0 00-.453.26 3.887 3.887 0 01-.465.253c-.096.043-.169.097-.169.121 0 .024-.03.048-.066.048-.036 0-.338.163-.67.363-.326.199-.61.362-.622.362-.012 0-.29.157-.616.35-.326.193-.634.368-.682.392a4.41 4.41 0 00-.272.163 2.17 2.17 0 01-.344.188c-.096.036-.169.09-.169.12s-.03.055-.066.055c-.036 0-.29.133-.568.302-.277.163-.531.301-.567.301-.036 0-.067.025-.067.06a.06.06 0 01-.06.061c-.048 0-.978.525-1.389.785-.048.03-.223.127-.392.217-.163.09-.314.175-.332.2a2.638 2.638 0 01-.302.175 6.67 6.67 0 00-.453.26c-.096.06-.253.144-.344.18-.096.037-.169.09-.169.121 0 .03-.03.054-.066.054-.036 0-.29.133-.568.302-.277.163-.531.302-.567.302-.036 0-.067.024-.067.06a.06.06 0 01-.06.06c-.03 0-.326.158-.646.351-.326.193-.634.368-.682.392a3.935 3.935 0 00-.272.163 1.818 1.818 0 01-.332.182.692.692 0 00-.181.108 2.112 2.112 0 01-.32.193c-.344.175-.386.206-.827.49-.38.253-.664.5-.664.597 0 .03-.024.06-.054.06-.091 0-.248.508-.248.797 0 .151.042.38.097.502.102.247.712.875.845.875.048 0 .084.024.084.054s.073.085.17.12c.09.037.247.122.343.182.103.066.302.181.453.26.151.078.284.15.302.169.03.036.362.23.815.483.133.072.465.265.73.428.272.163.526.296.562.296.036 0 .066.024.066.048s.073.079.17.121c.09.036.301.151.464.254.17.102.369.217.453.26.085.035.163.09.181.114a.695.695 0 00.181.109 1.8 1.8 0 01.332.18c.103.061.302.176.453.254.151.079.284.157.302.175.048.049.767.477.803.477.024 0 .308.163.64.363.332.199.634.362.67.362.03 0 .06.024.06.048s.073.079.17.12c.09.037.247.122.344.188.102.066.301.181.452.26.151.078.284.157.302.18a.69.69 0 00.181.11 1.8 1.8 0 01.332.18c.103.067.224.14.272.163.048.025.356.2.682.393.326.193.622.35.652.35.03 0 .055.024.055.048 0 .025.072.079.169.121.09.036.301.151.464.254.17.102.369.217.453.26a.58.58 0 01.181.114.694.694 0 00.181.109c.085.03.236.114.333.18.102.061.301.176.452.254.151.079.284.157.302.175.018.024.17.115.332.2.363.199.574.32 1.214.706.271.163.525.296.561.296.036 0 .067.024.067.06 0 .03.03.06.066.06.036 0 .29.133.567.302.278.163.532.302.568.302.036 0 .066.024.066.055 0 .03.06.078.133.102.187.055 1.075.676 1.389.966.145.133.374.38.5.544.134.162.254.307.273.325.03.03.362.707.561 1.148.09.199.097.205.127.06.054-.217.006-23.104-.043-23.394a12.2 12.2 0 01-.078-.495c-.018-.145-.054-.272-.09-.29 0-.356-.75-1.352-1.274-1.63-.29-.157-.387-.175-1.015-.193-.561-.012-.76.006-1.032.097z" fill="#0084F8"/><path d="M5.325 28.555l.066 10.044c.043.135.114.344.114.344.266.37.631.459.631.459s.861.068 1.247-.09c.393-.15.99-.452 1.069-.536.018-.019.097-.067.181-.11a3.33 3.33 0 00.332-.192c.103-.06.302-.175.453-.254.15-.078.284-.157.302-.175.018-.024.169-.109.332-.2.386-.204.537-.295.573-.343a.456.456 0 01.181-.085.562.562 0 00.182-.084c.042-.055.766-.49.809-.49.024 0 .15-.072.295-.162.308-.2.683-.417.888-.52a.583.583 0 00.181-.114.69.69 0 01.181-.109 1.83 1.83 0 00.332-.181c.103-.06.302-.175.453-.254.15-.078.308-.175.35-.21.042-.043.103-.08.133-.08.03 0 .175-.084.32-.18a1.81 1.81 0 01.302-.182c.024 0 .308-.163.634-.362.332-.199.622-.362.64-.362.024 0 .15-.073.295-.163.326-.217.405-.26.719-.435.32-.175 1.117-.779 1.394-1.056.538-.537 1.093-1.45 1.166-1.914.024-.133.066-.254.09-.272.03-.018.054-.277.054-.58a3.44 3.44 0 00-.277-1.418.918.918 0 01-.085-.254c0-.036-.024-.066-.054-.066s-.079-.06-.103-.139c-.108-.35-1.364-1.672-1.594-1.672-.03 0-.078-.036-.102-.085-.024-.048-.157-.145-.29-.217a7.951 7.951 0 01-.423-.248 2.733 2.733 0 00-.344-.18c-.096-.037-.169-.085-.169-.115 0-.024-.048-.06-.102-.079-.115-.036-.55-.278-.954-.525-.14-.084-.302-.181-.363-.223a9.717 9.717 0 00-.422-.236c-.163-.09-.314-.175-.332-.199a2.528 2.528 0 00-.302-.175c-.386-.2-.93-.507-.966-.55a1.922 1.922 0 00-.272-.157 7.337 7.337 0 01-.543-.32c-.163-.102-.332-.193-.374-.193-.043 0-.079-.03-.079-.06a.06.06 0 00-.06-.06c-.036 0-.338-.163-.67-.363-.332-.199-.628-.362-.658-.362-.03 0-.09-.036-.133-.078a2.526 2.526 0 00-.35-.218 3.263 3.263 0 01-.302-.18 2.555 2.555 0 00-.302-.176 11.44 11.44 0 01-.453-.253 1.833 1.833 0 00-.332-.181.69.69 0 01-.18-.11 1.736 1.736 0 00-.303-.18 6.684 6.684 0 01-.453-.26 2.164 2.164 0 00-.344-.187c-.096-.042-.169-.097-.169-.12 0-.025-.024-.05-.054-.05-.054 0-.79-.416-.851-.482a2.161 2.161 0 00-.272-.151 5.435 5.435 0 01-.501-.284c-.145-.09-.284-.169-.32-.169-.036 0-.048 3.574-.042 9.823z" fill="#96CDFF"/></svg>