<svg width="76" height="55" fill="none" xmlns="http://www.w3.org/2000/svg"><path d="M7.82 50.1v1.382H.792v-1.188l3.413-3.723c.375-.422.67-.787.886-1.094.216-.308.367-.584.454-.828.09-.25.136-.493.136-.728 0-.331-.062-.621-.187-.871a1.37 1.37 0 00-.533-.598c-.235-.148-.52-.223-.857-.223-.388 0-.715.084-.979.252-.264.168-.463.4-.598.699a2.392 2.392 0 00-.201 1.008H.59c0-.61.14-1.167.418-1.67a3.054 3.054 0 011.21-1.21c.528-.303 1.164-.454 1.908-.454.7 0 1.296.117 1.786.353.49.235.861.568 1.116 1 .26.432.389.944.389 1.534 0 .327-.053.65-.159.972a4.603 4.603 0 01-.453.965c-.192.317-.42.636-.684.958-.264.317-.555.638-.872.965l-2.268 2.498H7.82zm5.71-7.705l-3.132 9.087H8.504l3.946-10.484h1.21l-.13 1.397zm2.621 9.087l-3.14-9.087-.136-1.397h1.217l3.96 10.484h-1.9zM16 47.594v1.432h-5.703v-1.432H16zm4.644-2.24v6.128H18.91V43.69h1.635l.1 1.663zm-.31 1.944l-.56-.007a5.068 5.068 0 01.23-1.52c.153-.46.364-.856.633-1.187.274-.332.6-.586.98-.764a2.888 2.888 0 011.267-.273c.374 0 .713.053 1.015.158.307.101.569.267.785.497.22.23.389.53.504.9.115.365.173.814.173 1.347v5.033h-1.743v-5.04c0-.375-.055-.67-.165-.886a.927.927 0 00-.468-.468c-.202-.096-.454-.144-.756-.144-.298 0-.565.062-.8.187a1.798 1.798 0 00-.597.511 2.475 2.475 0 00-.368.75c-.086.282-.13.585-.13.906zm9.06 3.334l2.116-6.941h1.858l-3.125 8.979a6.3 6.3 0 01-.281.627 2.808 2.808 0 01-.454.64 2 2 0 01-.684.497c-.273.13-.605.195-.993.195-.154 0-.303-.015-.447-.044a7.239 7.239 0 01-.396-.079l-.007-1.325a6.22 6.22 0 00.346.022c.288 0 .528-.036.72-.108a.998.998 0 00.468-.331c.125-.154.23-.36.316-.62l.562-1.512zm-1.196-6.941l1.85 5.832.31 1.83-1.203.309-2.83-7.971h1.873zm8.965 5.436l2.088-8.13h1.094l-.122 2.096-2.232 8.389h-1.138l.31-2.355zm-1.563-8.13l1.692 8.066.151 2.419h-1.21l-2.426-10.484H35.6zm7.114 8.044l1.671-8.043h1.8l-2.427 10.484h-1.21l.166-2.441zm-1.944-8.043l2.067 8.15.302 2.334h-1.137l-2.197-8.389-.115-2.095h1.08zm8.295-.576v11.06h-1.728v-11.06h1.728zm-.302 6.876l-.562-.007c.005-.537.08-1.034.224-1.49.148-.456.355-.852.619-1.189a2.756 2.756 0 012.21-1.065c.385 0 .73.053 1.037.158.312.106.581.276.807.511.225.23.396.533.511.908.12.37.18.82.18 1.353v5.005h-1.742v-5.019c0-.374-.056-.672-.166-.893a.96.96 0 00-.468-.475 1.712 1.712 0 00-.756-.151 1.77 1.77 0 00-.828.187 1.73 1.73 0 00-.59.511 2.357 2.357 0 00-.36.75 3.454 3.454 0 00-.116.906zm10.218 4.328a4.156 4.156 0 01-1.563-.28 3.449 3.449 0 01-1.18-.8 3.543 3.543 0 01-.742-1.203 4.211 4.211 0 01-.26-1.49v-.288c0-.61.09-1.162.267-1.656a3.76 3.76 0 01.742-1.268 3.187 3.187 0 011.123-.813 3.48 3.48 0 011.404-.281c.557 0 1.044.093 1.462.28.417.188.763.452 1.037.793.278.336.484.737.619 1.202.139.466.209.98.209 1.541v.742h-6.02v-1.246h4.306v-.137a2.437 2.437 0 00-.187-.878 1.494 1.494 0 00-.512-.663c-.23-.168-.537-.252-.921-.252a1.52 1.52 0 00-1.325.713c-.149.23-.264.509-.346.835a4.693 4.693 0 00-.115 1.088v.288c0 .34.046.657.137.95.096.288.235.54.417.756.183.216.404.387.663.512.26.12.554.18.886.18.417 0 .79-.084 1.116-.252.326-.168.61-.406.85-.713l.914.885c-.168.245-.387.48-.655.706-.27.22-.598.4-.987.54-.384.14-.83.209-1.34.209zm6.214-6.452v6.308H63.46V43.69h1.656l.079 1.483zm2.383-1.534l-.014 1.613a4.513 4.513 0 00-.706-.058 2.2 2.2 0 00-.785.13 1.48 1.48 0 00-.568.36c-.15.154-.264.341-.346.562-.082.22-.13.468-.144.742l-.396.029c0-.49.048-.944.144-1.361.096-.418.24-.785.432-1.102.197-.317.442-.564.734-.742a1.97 1.97 0 011.03-.266c.106 0 .218.01.338.029.125.019.219.04.281.064zm4.378 7.986a4.156 4.156 0 01-1.562-.28 3.449 3.449 0 01-1.181-.8 3.544 3.544 0 01-.742-1.203 4.211 4.211 0 01-.259-1.49v-.288c0-.61.089-1.162.266-1.656.178-.495.425-.917.742-1.268a3.187 3.187 0 011.123-.813 3.48 3.48 0 011.405-.281c.556 0 1.044.093 1.461.28.418.188.764.452 1.037.793.279.336.485.737.62 1.202.139.466.208.98.208 1.541v.742h-6.02v-1.246h4.306v-.137a2.437 2.437 0 00-.187-.878 1.493 1.493 0 00-.511-.663c-.23-.168-.538-.252-.922-.252-.288 0-.544.063-.77.188-.22.12-.406.295-.555.525-.148.23-.264.509-.345.835a4.693 4.693 0 00-.115 1.088v.288c0 .34.045.657.136.95.096.288.236.54.418.756.183.216.403.387.662.512.26.12.555.18.886.18.418 0 .79-.084 1.116-.252.327-.168.61-.406.85-.713l.915.885a3.57 3.57 0 01-.656.706c-.269.22-.597.4-.986.54-.384.14-.83.209-1.34.209zM58.6 21.277l-15.17-6.245a118.54 118.54 0 01-3.28 3.512l11.233 4.586c.41.235.851.414 1.31.532.6.16 1.22.24 1.84.238 2.404 0 4.338-1.112 4.422-2.504-.117-.035-.24-.071-.354-.119z" fill="#1FE5B4"/><path d="M35.301 11.69c-7.271 9.828-11.587 16.073-12.314 17.87a3.508 3.508 0 00-.363 1.275c.17-.018.6-.131 1.57-.684.79-.455 1.607-.967 2.502-1.57l.283-.19 5.932 2.417.129.054c.156.06.3.119.48.172 2.133.67 3.941.146 4.223-.743.283-.89-.754-2.082-2.348-2.766l-.067-.027a3.956 3.956 0 00-.264-.107l-4.382-1.76.799-.666a111.055 111.055 0 006.49-5.974c1.52-1.511 2.93-3.004 4.242-4.461L35.3 11.69zm23.776 8.433c.72.276 1.485.413 2.256.405 2.238 0 3.8-1.038 3.8-1.972 0-.621-.65-1.243-1.694-1.623h-.028L23.623.565a4.772 4.772 0 00-.6-.247A6.333 6.333 0 0021.004 0c-2.24 0-3.8 1.038-3.8 1.972 0 .63.692 1.275 1.764 1.647l15.9 6.542 1.202.491 7.013 2.888 1.229.505 14.765 6.079zM19.573 10.15c.306.161.628.293.961.392l10.612 4.33c1.087-1.404 2.102-2.677 2.91-3.694L21 5.805c-1.682.369-2.878 1.314-2.878 2.426 0 .753.55 1.428 1.424 1.904l.027.014zM47.67 9.103l.241-.298c.49-.627 1.526-1.995 1.328-3.637C48.965 2.878 46.31.306 43.75.854c-1.526.324-2.403 1.63-2.682 2.081-.583.773-1.255 1.668-1.985 2.644l8.587 3.524zM24.982 23.341l-2.045-.824a6.575 6.575 0 00-1.316-.574 5.65 5.65 0 00-2.886-.199c-.712.164-1.201.506-1.34.943-.27.85.7 2.022 2.26 2.724.134.062.275.119.42.172l2.823 1.151a49.463 49.463 0 012.084-3.393z" fill="#1FE5B4"/></svg>