<svg width="38" height="40" fill="none" xmlns="http://www.w3.org/2000/svg"><rect width="38" height="40" rx="10" fill="#FF7C33"/><path d="M28.592 23.974l-7.913-4.982c-.54.92-1.11 1.855-1.711 2.802l5.86 3.658c.213.188.443.33.682.425.313.127.636.191.96.19 1.254 0 2.263-.887 2.307-1.998-.061-.028-.125-.057-.185-.095z" fill="#fff"/><path d="M16.44 16.326c-3.794 7.84-6.045 12.822-6.424 14.255-.105.319-.17.664-.19 1.018.09-.014.314-.104.82-.545a22.8 22.8 0 001.305-1.253l.147-.152 3.094 1.929.067.043c.082.047.157.094.251.137 1.113.534 2.056.116 2.203-.593.147-.71-.393-1.66-1.225-2.206l-.035-.022a1.946 1.946 0 00-.137-.085l-2.286-1.405.416-.531a77.623 77.623 0 003.386-4.766 84.382 84.382 0 002.212-3.559l-3.605-2.265zm12.401 6.728c.376.22.775.33 1.177.323 1.167 0 1.982-.828 1.982-1.573 0-.496-.338-.992-.884-1.295h-.014L10.348 7.45A2.286 2.286 0 008.982 7C7.813 7 7 7.827 7 8.572c0 .503.36 1.018.92 1.314l8.294 5.22.627.391 3.658 2.304.64.403 7.703 4.85zM8.235 15.097c.16.129.328.234.501.313l5.535 3.454c.568-1.12 1.097-2.135 1.519-2.946L8.98 11.63c-.878.294-1.502 1.048-1.502 1.935 0 .6.287 1.14.743 1.519l.014.012zm14.656-.835l.126-.237c.255-.501.796-1.592.692-2.902-.142-1.827-1.527-3.879-2.862-3.442-.796.258-1.254 1.3-1.4 1.66-.303.617-.654 1.331-1.035 2.11l4.48 2.81zM11.057 25.62l-1.067-.656a2.998 2.998 0 00-.686-.458 1.987 1.987 0 00-1.506-.16c-.37.131-.626.404-.698.753-.141.678.365 1.613 1.178 2.173.07.05.144.095.22.138l1.472.918a46.75 46.75 0 011.087-2.707z" fill="#fff"/></svg>