<svg width="38" height="40" fill="none" xmlns="http://www.w3.org/2000/svg"><rect width="38" height="40" rx="10" fill="#FF7C33"/><path d="M27.592 23.58l-7.913-3.986a72.174 72.174 0 01-1.711 2.241l5.86 2.927c.213.15.443.264.682.34.313.102.636.153.96.152 1.254 0 2.263-.71 2.307-1.599-.061-.022-.125-.045-.185-.075z" fill="#fff"/><path d="M15.44 17.46c-3.794 6.273-6.045 10.259-6.424 11.405-.105.255-.17.53-.19.814.09-.011.314-.083.82-.436.412-.29.838-.617 1.305-1.002l.147-.122 3.094 1.543.067.034c.082.038.157.076.251.11 1.113.427 2.056.093 2.203-.474.147-.567-.393-1.329-1.225-1.765l-.035-.017a1.985 1.985 0 00-.137-.069l-2.286-1.123.416-.425a64.407 64.407 0 003.386-3.813 67.213 67.213 0 002.212-2.847L15.44 17.46zm12.401 5.383c.376.176.775.264 1.177.259 1.167 0 1.982-.663 1.982-1.259 0-.396-.338-.793-.884-1.036h-.014L9.348 10.36a2.284 2.284 0 00-.313-.158A2.758 2.758 0 007.982 10C6.813 10 6 10.662 6 11.258c0 .403.36.815.92 1.052l8.294 4.175.627.313 3.658 1.843.64.323 7.703 3.88zM7.235 16.477c.16.104.328.188.501.25l5.535 2.764c.568-.896 1.097-1.708 1.519-2.357l-6.81-3.43c-.878.236-1.502.84-1.502 1.55 0 .48.287.91.743 1.214l.014.01zm14.656-.667l.125-.19c.256-.4.796-1.274.693-2.321-.143-1.462-1.528-3.104-2.863-2.754-.795.206-1.253 1.04-1.398 1.328-.305.494-.655 1.065-1.036 1.688l4.48 2.248zm-11.834 9.087L8.99 24.37a3.14 3.14 0 00-.686-.366 2.436 2.436 0 00-1.506-.127c-.37.104-.626.322-.698.601-.141.543.365 1.29 1.178 1.739.07.04.144.076.22.11l1.472.734c.294-.654.667-1.39 1.087-2.165z" fill="#fff"/></svg>