<svg width="341" height="73" fill="none" xmlns="http://www.w3.org/2000/svg"><path d="M37.284 0l-1.258 3.87h-4.069l3.292 2.392-1.257 3.87 3.291-2.392 3.292 2.392-1.257-3.87L42.61 3.87h-4.07L37.285 0zm16.091 3.769l-1.258 3.87H48.05l3.291 2.39-1.257 3.871 3.292-2.392 3.292 2.392-1.258-3.87 3.292-2.392h-4.069l-1.257-3.87zm8.172 21.722L64.84 23.1l3.291 2.392-1.257-3.87 3.292-2.391h-4.07l-1.256-3.87-1.258 3.87h-4.069l3.292 2.391-1.257 3.87zm12.661 9.711h-4.07l-1.257-3.87-1.257 3.87h-4.07l3.293 2.391-1.258 3.87 3.292-2.391 3.292 2.392-1.257-3.87 3.292-2.392zm-8.111 15.741l-1.257-3.87-1.258 3.87h-4.069l3.292 2.392-1.257 3.87 3.292-2.391 3.291 2.391-1.257-3.87 3.292-2.392h-4.07zM54.632 62.678l-1.257-3.87-1.258 3.87H48.05l3.291 2.392-1.257 3.87 3.292-2.392 3.292 2.391-1.258-3.87 3.292-2.391h-4.069zm-16.091 4.06l-1.257-3.87-1.258 3.87h-4.069l3.292 2.391L33.992 73l3.291-2.39L40.575 73l-1.257-3.87 3.292-2.391h-4.069zm-15.897-4.06l-1.258-3.87-1.257 3.87h-4.07l3.292 2.392-1.257 3.87 3.292-2.392 3.291 2.391-1.257-3.87 3.292-2.391h-4.068zM10.915 50.943l-1.257-3.87-1.258 3.87H4.331l3.292 2.392-1.257 3.87 3.292-2.391 3.292 2.391-1.258-3.87 3.292-2.392h-4.069zM5.427 39.072l3.292 2.392-1.257-3.87 3.292-2.392h-4.07l-1.257-3.87-1.258 3.87H.101l3.291 2.391-1.257 3.87 3.292-2.391zM9.658 15.36l-1.257 3.87H4.33l3.292 2.392-1.257 3.87L9.658 23.1l3.292 2.392-1.257-3.87 3.29-2.392h-4.068l-1.257-3.87zM21.386 3.769l-1.257 3.87h-4.07l3.292 2.39-1.257 3.871 3.292-2.392 3.291 2.392-1.257-3.87 3.292-2.392h-4.069l-1.257-3.87z" fill="#000"/><path fill-rule="evenodd" clip-rule="evenodd" d="M38.264 31.368c-.274 0-1.466.928-1.376 1.042 0 0 .094.033.279-.192.465-.569.823.606.994-.71.01-.076.228-.14.103-.14zm-.355.843c.07 0 .147-.065.174-.002.198.46.425.566.198.806-.233.246.184-.212-.253.415-.11.155-.302.075-.418.368-.159.397.203.468.203.468.26.267-.125.104-.253.275.117.045.388.015.35.134-.05.165.133.334.101.42 0 0 .059-.127.117-.136.766-.118.272.5.37.526.824.229.906-.96 1.527-.34.056.056.55.37.523.243-.033-.158.166.179.126.056-.022-.068.345-.142.345-.142.184.242-.3.276-.346.25-.139-.078-.297-.022-.1.092.452.26.351 1.756.366.106.003-.452 1.717-1.596 2.26-1.596 0 0 .02.045.058.047 1.632.085 4.317-.563 2.19-.563-.694 0-.358-.59-.69-.643-.396-.064-.251-2.877.562-2.166.639.56 1.52.77.887-.501-.12-1.078-.114.087-.494-.644-.397-.764-.195-.455.059-.836.217-.326.696-.313.795-.51.115-.23.714.2 1.22-.117.216-.136-.113.953.126 1.321.346.534.019.579.243.719.33.207.208.622.426.794 1.009.8-.572 1.076-.469 1.338.221.56.143.276-.067.602-.77 1.197.642.744-1.044 1.563-.982.476.43.675.13 1.392-.447 1.076-.341.188-.041.738.001.003-.042.553.423 1.352.281.484-.485.841-.638 1.493a.075.075 0 00-.003.026c.12.654.24.304-.059.952-.283.615.563.73.563.73.045-.212 1.07-.268 1.326-.153.531.238 1.089-1.051 1.574-.69.814.604 1.133 1.184 1.332 2.08.092.413.72.982.841.596.163-.518.656-.05.619-.02-.025.023-.601 1.26-.521 1.357.083.101.01.262.017.393.006.05.127.46-.026.415-.556-.163-.156.704-.236.838-.393.656-.197-.043.008.452.484 1.169-.103-.107-.836.56-.264.24.028.732.028.732-.145.193.05.509-.228.713-.011.008-1.581-.04-1.925.402-.049.062.374 1.95-.658.242-.12-.088-.182.635.114.894.895.782.379.685.379.685.284-.148-.568-.301-.245-.022.295.255-.176.435-.176.435.914-.304 1.955 1.387 1.354 1.027-1.121-.672-.71.294-.438.243.234-.043-.108.42-.373.067-.213-.285.45 1.309.299 1.103-.444-.597-.567.178-.597.117-.44-.903-.68.06-.655-.382.017-.287-.681-.998-.668-1.017.643-.876 1.526-.003 1.73-.54.057-.148-1.824.072-1.824.072-.007-.033-.456-1.283-.64-2.017-.124-.487 1.036-1.21 1.164-1.162.588.22.648-.926.3-.992-.466-.087-.244-.22-.3-.448-.109-.44.24-.824.222-.841-.943-.882-.4-1.366-.61-1.515-.005-.004-1.021.434-.939-.335.007-.058-1.027-1-1.423-.967-.246.02-.663.482-.663.482.147.206.19.576.44.618.212.037-.106.61-.416.327-.339-.312-.556.022-1.033-.1-.049-.013-.104-.087-.142-.054-.118.103-.243.01-.452.036-.321.042-.083.361-.456.148-.454-.26-.01.566-.01.566.026.136.29.506.38.581.119.1.711.625.711.625a.67.67 0 00.162.228c.125.079.348.11.25.206-.22.22-.935-.675-1.175-.51-.015.01-.645.048-.582-.261.01-.054-.43-.42-.432-.452-.005-.052.052.02.055.006.003-.01-.034-.021.003-.03.09-.024.186.007.28.01 0 0-.021-.025-.029-.022-.274.103-.819-1.064-.819-1.064 0 .004.004.012 0 .01-.061-.019-.119-.089-.18-.069-.1.033-.134.317-.126.337.056.145-.031.057-.05.129-.004.013.016-.026.017-.04 0-.01-.007-.039-.014-.03-.021.024-.025.06-.036.089l-.015.039-.003.003c-.002.021-.007.043-.005.064 0 .01.02.02.013.027a.091.091 0 01-.07.034c-.018-.001-.027-.026-.041-.04l-.014-.013c-.016-.019-.068-.07-.047-.056.104.075-.306-.272-.056-.27.063 0-.072-.106-.114-.153-.028-.032.048-.03.009-.042-.156-.045-.05-.234-.05-.234-.02-.588-1.031.279-1.031.279.336 0-.014.933.175 1.189.623.841.178-.563 1.343 1.61.486.906 1.768.646 1.836.722 1.581 1.768-1.808-.544.928.877 1.474.767 1.384 1.697.693.786-.494-.653-1.631.57-.91.788.92.28.079.733-.067.903-.164.19-.103 1.19-.687 1.025-.45-.126.517-.726.152-1.577-.308-.718-.674-.701-.702-.735-.652-.781-.32-.322-.81-.496-.007-.002.018-.119-.26-.233-.183-.076-.238-.352-.426-.419-.638-.227-.795-.525-1.398-.86-.413-.23-.598-.54-.694-.635-1-1-.089-.87-1.186-1.638-1.112-.778-.941.576-1.655.351-.388-.123-1.97.26-1.991.284-.328.37-.435-.487-.937-.2-1.35.77.023 1.563-1.196 2.04-1.373.537-1.23.355-2.032 1.18-1.298 1.331-.113 1.416-.594 1.789-.229.177-.878 1.028-.878 1.028-.757-.059-.632.42-1.187.71-.32.168-2.309-.797-2.944.093-.338.474-.886-.78-.819-.828.279-.199.303-.128-.07-.496a.665.665 0 00-.136-.057c-.129.13-.933-.139-1.575-.308-.774-.204.066-.136 0-.862-.084-.93.617-.29-.217-.66-.144-.064-.459-.005.777-1.915.284-.438.396-1.14.519-1.756.04-.163-.107-.108-.017-.175.292-.22.042-.234.042-.234.248-.2-.044.001.041-.143.49-.818-1.111-.298.828-1.12.384-.163.518.203.92.302.63.152 3.15.748 3.295.91.871.98 1.136-1.087 1.38-1.195.193-.086-.07.087.008-.25.337-1.463.75.276.477-.135-.167-.25-.226-1.404-.226-1.404-.306.122-.469-1.021-.636-1.129-.298-.192-.034-.137-.025-.301 0-.011-.543-.072-.543-.184 0-.37-.062-.081-.21-.176-1.5-.964-.308-.227-.643-.785l.009.008c.39.258-.16-.3-.16-.3.116-.285.82.022.896 0 .605-.188.561.316.627.283.327-.163.49.007.652.034.779.13-.093-2.096.552-1.037.33.541 1.053.351 1.053.351-.435-.144 1.044-.553.987-.81-.13-.592.804-1.063 1.44-1.094.301-.014.939.576.416-.114-.137-.18.422-.186.44-.21.864-1.077 2.148-1.506 1.819-1.606-.606-.184.536-.522.543-.396.044.809.503-.337.867.058.363.395-.18-.27-.276-.414-.07-.104-.202-.233-.148-.345.22-.449-.033.067-.033-.605 0-.167-.081-.868-.081-.482 0 .286-.215-.943-.139-.613 0 0-.126-.823.072-.732.374.17.357-.44.447.025.027.147.067-.437.56-.438zm-.65.007c.004 0 .007.007.008.01.053.15.052.134.03.168-.055.084-.245.003-.17-.074.025-.024.032-.124.132-.104zm2.057.892c-.416.026-.187.3-.187.3.055.127-.308.21-.103-.113.04-.063-.638.226-.442.328.155.082-.004.238.409.493.102.063.188.369.46-.103.147-.255-.292.004.08-.312.1-.083.006-.608-.217-.593zm-1.03.222c-.233.115.179.298.017.017-.007-.014-.013-.019-.017-.017zm-.01.312c-.101.015.018.125-.42.125 0 0-.088.528.374.52.446-.005.046-.645.046-.645zm.246.519c-.326.08-.116.85.003.083.01-.059.006-.085-.003-.084zm.507.195s-.172.72.204.187c.095-.135-.139-.203-.204-.187zm-.362.008c-.422.045.23.35.261.224.008-.031.074-.152-.059-.254 0 0 .026.039-.043.07-.089.04-.047-.052-.16-.04zm-11.29-1.525c-.701.12.465-.075-.198-.285-.167-.053-.312.47-.296.308.04-.38-.43-.321-.459.005-.131 1.514-.306-.797-.032.39.13.57-1.545-.02-1.294.232.393.393-.34.77-.104.868.628.26.579.137.108.663-.136.153-.448.377-.493.377-.76-.022.377.191-.042.27-.746.14.292.251.059.342-.638.248.22.09.2.117-.318.436-.25.429.569.293.143-.024.175-.276.175-.276s.57.225.602-.033c.013-.107 1.443.349 1.24-1.082-.15-1.052.68-.808.715-1.211.03-.335-.38-.1-.267-.193.302-.25.04-.877-.482-.785zm13.348 11.923c.157.045-.09-.025 0 0zm-3.123-1.694c-.09-.026-.047-1.84-1.965-.309-.37.296-.989 1.624-.568 1.012.321-.468.203.525 1.204.525.4 0 .18-.948.46-.35.218.463.54.492.652-.067.067-.336.791.285.66-.109-.014-.043.424-.597.176-.635-.206-.032-.248.038-.619-.067zm-.142 4.44c-.229.458-.619.349-.619.795 0 2.404 1.12-.436.619-.794zm4.498-28.907s.075.774 0 .822c-.076.05-.652-.234-.768-.083-.234.305.396.68-.276.493-.221-.062-.487 2.01-.755 2.19-.27.18-.074.413-.493 1.696-.049.15.302.067.243.476-.03.2-1.128.122-.97 1.783.09.942.56 1.379.393 1.672-.418.727.066.066-.06.844-.069.437-.32.458-.425.785-.008.026.184 1.007-.134.688-.036-.036-.18-.077-.167-.025.27 1.146-.069.227.404.786.06.071.069 1.613.604 1.791.313.104-.01.162-.046.24-.032.068.199.165.133.192-.336.139-.096.038.112.59.056.151-.01.14-.039.283-.008.032.905.195.925-.154.036-.625.083-.73.701-.785.009 0-.02.043-.008.041.464-.054.606-1.57.34-1.88 0 0 .244-.458.075-.577-.119-.084.325-.212-.231-.212 0 0 .773-.217.68-.693 0 0 .483.465.428-.028-.032-.297-1.833-.158-1-.31 1.283-.232.286-.697.5-.183.205.498 1.067-.24.495-.557-1.455-.809-.697-1.229-.875-2.28-.045-.269.314-.46.237-.531-.465-.433.387.084.236-.516-.045-.18 1.218-.913 1.17-1.619-.01-.164-.315-.195-.306-.395.01-.229.34-.314.05-.507-.022-.015.356-.195.317-.343-.01-.039-.194-.104.048-.267.223-.15.837.078.785-.186-.286-1.424 1.154 1.045.569.869-.018-.006-.925 2.075-1.109 2.114-.215.046.013.103-.126.22-.422.356.352 1.258.29 2.153-.051.746.962.574 1.014.68.419.84 1.523-.45 1.636-.518.028-.017.718-.108 1.18-.914 1.331-2.322.887-2.35-.2-3.103-.025-.017.275-.476.067-.635-1.005-.768-.373-1.41-1.354-2.39-.918-.918.99-.263-.76-1.516-.578-.413.028-1.028-.204-1.43-.552-.953-1.328-.333-1.162.862.099.712-.597.256-.744.501-.398.664-1.12-.967-1.12-.268.002.375-.169.004-.3.134zm-3.044 12.18c-.423.08.024.329.033.111.003-.065 0-.117-.033-.111zm-2.006 3.507s-.346.384.047.187c.058-.029-.031-.124-.047-.187zm3.187.349c-.223.033.095.243.02.167-.195-.194-.184.442.013.256.314-.296-.064-.358-.017-.39.048-.032-.016-.033-.016-.033zM49.333 50.8c-.099-.025-.464.314-.368.306.481-.036.909.437 1.214.447.523.015.44.111-.047-.466-.182-.216-.524-.218-.8-.287zm.225 2.94s-.054.23.146.144c.038-.016.008-.1-.146-.144zm-12.265-4.316c-.435.532-1.231.234-.802.71.003.004.199 3.146.586 1.6.048-.196.784.238.618-1.012-.047-.351-.088-.906-.06-1.022.047-.185-.317-.159-.342-.276zm5.205 3.142s-.844.249-1.065.254c-.397.01-.541-.102-.81-.116-.179-.008-1.131.436-.135.685.402.1 1.897 1.141 1.972.726.078-.42.095-.227-.032-.56-.235-.607.845-1.16.07-.989z" fill="#000"/><path d="M101.296 11.735v2.372c-1.474-1.52-3.222-2.28-5.244-2.28-1.9 0-3.535.707-4.903 2.12-1.353 1.414-2.029 3.079-2.029 4.994 0 1.915.684 3.58 2.052 4.994 1.368 1.413 3.01 2.12 4.925 2.12 1.946 0 3.68-.76 5.199-2.28v2.372c-1.55 1.124-3.26 1.687-5.13 1.687-2.432 0-4.538-.859-6.316-2.577-1.764-1.733-2.645-3.815-2.645-6.248 0-2.462.874-4.568 2.622-6.316 1.763-1.763 3.876-2.645 6.339-2.645 1.915 0 3.626.563 5.13 1.687zm4.99.935c1.763-1.748 3.876-2.622 6.339-2.622 2.462 0 4.568.874 6.316 2.622 1.763 1.733 2.645 3.831 2.645 6.294 0 2.462-.882 4.56-2.645 6.293-1.748 1.718-3.854 2.577-6.316 2.577-2.463 0-4.576-.859-6.339-2.577-1.749-1.733-2.623-3.83-2.623-6.293s.874-4.56 2.623-6.294zm11.332 1.254c-1.368-1.398-3.032-2.097-4.993-2.097-1.961 0-3.626.699-4.994 2.097-1.368 1.384-2.052 3.056-2.052 5.017 0 1.946.684 3.618 2.052 5.016 1.383 1.399 3.048 2.098 4.994 2.098 1.945 0 3.602-.699 4.971-2.098 1.383-1.398 2.075-3.07 2.075-5.016 0-1.961-.685-3.633-2.053-5.017zm6.688 13.613V9.615l13.408 14.046V10.344h1.916v17.969l-13.408-14.024v13.248h-1.916zm28.229-14.821l-1.527.98c-.715-1.246-1.703-1.87-2.965-1.87-.775 0-1.444.251-2.006.753-.563.502-.844 1.14-.844 1.915 0 .35.076.67.228.958.152.289.388.547.707.775.319.213.585.38.798.502.228.122.547.274.958.456l1.14.502a14.42 14.42 0 011.619.82c.425.244.843.555 1.254.936.426.364.737.805.935 1.322.213.517.319 1.102.319 1.756 0 1.49-.524 2.751-1.573 3.785-1.049 1.019-2.326 1.528-3.831 1.528-1.368 0-2.539-.403-3.512-1.209-.957-.82-1.573-1.9-1.847-3.238l1.87-.524a3.82 3.82 0 001.14 2.28c.639.608 1.406.912 2.303.912.943 0 1.764-.319 2.463-.957.714-.654 1.072-1.452 1.072-2.395 0-.38-.069-.73-.206-1.049a2.604 2.604 0 00-.433-.798c-.152-.197-.403-.41-.752-.638a7.14 7.14 0 00-.821-.479 16.423 16.423 0 00-.958-.456l-1.049-.456c-1.216-.547-2.143-1.14-2.782-1.779-.638-.638-.957-1.512-.957-2.622 0-1.292.471-2.341 1.413-3.147.943-.82 2.075-1.231 3.398-1.231.958 0 1.824.236 2.599.707.776.456 1.391 1.11 1.847 1.96zm5.281-2.372v11.629c.015.274.084.67.205 1.186.122.502.305.92.548 1.255.365.501.866.904 1.505 1.208a4.813 4.813 0 001.961.433c.623 0 1.239-.136 1.847-.41a4.109 4.109 0 001.527-1.117c.259-.32.457-.707.593-1.163.137-.472.213-.86.228-1.163.016-.32.023-.768.023-1.346V10.344h1.916v10.763c0 1.095-.099 2-.297 2.714-.182.714-.585 1.398-1.208 2.052-1.217 1.307-2.76 1.96-4.629 1.96-1.764 0-3.246-.584-4.447-1.755-.684-.654-1.14-1.36-1.368-2.12-.213-.76-.319-1.71-.319-2.85V10.343h1.915zm15.656 0V25.76h4.743v1.778h-6.659V10.344h1.916zm9.37 1.779v15.414h-1.916V12.123h-4.15v-1.779h10.261v1.779h-4.195zm8.111-1.779v17.193h-1.915V10.344h1.915zm3.609 17.193V9.615L207.97 23.66V10.344h1.915v17.969l-13.408-14.024v13.248h-1.915zm27.727-8.642h7.16c.03 1.308-.076 2.433-.319 3.375-.243.943-.73 1.84-1.46 2.69a7.874 7.874 0 01-2.873 2.121 8.476 8.476 0 01-3.488.753c-2.417 0-4.5-.867-6.248-2.6-1.733-1.748-2.6-3.83-2.6-6.248 0-2.462.874-4.568 2.623-6.316 1.748-1.748 3.861-2.622 6.339-2.622 2.949 0 5.373 1.239 7.274 3.717l-1.391 1.3c-1.536-2.16-3.504-3.238-5.906-3.238-1.946 0-3.603.707-4.971 2.12-1.368 1.414-2.052 3.101-2.052 5.062 0 1.87.669 3.49 2.006 4.857a8.097 8.097 0 002.281 1.596c.866.396 1.733.593 2.599.593 1.566 0 2.98-.509 4.241-1.527 1.262-1.034 1.893-2.319 1.893-3.854h-5.108v-1.779zM89.79 33.668V46.9h-.843V33.668h.843zM108.969 46.9l-2.264-10.95h-.035l-4.615 11.388-4.598-11.389h-.035L95.16 46.9h-.808l2.843-13.67 4.861 12.039 4.879-12.038 2.842 13.67h-.807zm18.732 0l-2.263-10.95h-.035l-4.616 11.388-4.597-11.389h-.035l-2.264 10.95h-.807l2.842-13.67 4.861 12.039 4.879-12.038 2.843 13.67h-.808zm6.221-13.232V46.9h-.843V33.668h.843zm12.651 6.862h5.581c.023.924-.065 1.743-.264 2.456-.199.702-.573 1.352-1.123 1.948a6.333 6.333 0 01-2.281 1.58 6.994 6.994 0 01-2.738.561c-1.836 0-3.427-.667-4.773-2-1.345-1.334-2.018-2.913-2.018-4.738 0-1.896.673-3.51 2.018-4.844 1.357-1.333 2.983-2 4.879-2 2.316 0 4.229 1.03 5.738 3.088l-.684.544c-.597-.9-1.334-1.597-2.211-2.088a5.722 5.722 0 00-2.896-.755c-1.603 0-3.007.603-4.212 1.808-1.193 1.205-1.789 2.603-1.789 4.194 0 1.638.584 3.047 1.754 4.23 1.182 1.18 2.598 1.771 4.247 1.771 1.392 0 2.691-.485 3.896-1.456 1.018-.866 1.556-2.036 1.614-3.51h-4.738v-.79zm12.832.105l4.334 6.265h-.965l-4.317-6.265h-.421V46.9h-.842V33.668h1.649c.457 0 .819.012 1.088.035.269.012.585.07.948.176.374.105.702.257.983.456.889.62 1.333 1.568 1.333 2.843 0 1.123-.351 1.989-1.053 2.597-.69.597-1.602.883-2.737.86zm-1.369-.79h1.07c1.077 0 1.849-.204 2.317-.614.62-.503.93-1.2.93-2.088a2.83 2.83 0 00-.369-1.422 2.078 2.078 0 00-1.035-.965c-.421-.199-1.211-.298-2.369-.298h-.544v5.387zm17.817 2.703h-5.809l-1.772 4.352h-.86l5.545-13.67 5.528 13.67h-.86l-1.772-4.352zm0 0l-2.896-7.178-2.913 7.178h5.809zm8.66-8.09V46.9h-.842V34.458h-3.422v-.79h7.686v.79h-3.422zm8.778-.79V46.9h-.842V33.668h.842zm11.897-.175c1.86 0 3.469.667 4.826 2 1.357 1.334 2.035 2.93 2.035 4.79 0 1.861-.678 3.458-2.035 4.792-1.357 1.333-2.966 2-4.826 2-1.86 0-3.469-.667-4.826-2-1.357-1.334-2.035-2.931-2.035-4.791 0-1.86.672-3.457 2.018-4.79 1.357-1.334 2.971-2.001 4.843-2.001zm0 .79c-1.649 0-3.065.59-4.247 1.772-1.181 1.181-1.772 2.591-1.772 4.229s.591 3.047 1.772 4.23c1.182 1.18 2.598 1.771 4.247 1.771 1.638 0 3.048-.59 4.229-1.772 1.194-1.193 1.79-2.603 1.79-4.23 0-1.637-.596-3.047-1.79-4.228-1.181-1.182-2.591-1.773-4.229-1.773zm23.84-.615v13.67l-11.108-11.81V46.9h-.843V33.493l11.108 11.722V33.668h.843zm6.701 10.04V11.44h12.838c3.623 0 6.476.884 8.559 2.653 2.111 1.74 3.167 4.394 3.167 7.96 0 7.303-3.809 10.955-11.426 10.955h-4.751v10.699h-8.387zm8.387-25.506v8.046h3.21a10.51 10.51 0 001.583-.257c.657-.143 1.142-.342 1.455-.6.314-.256.585-.641.814-1.155.256-.513.385-1.155.385-1.925 0-.8-.114-1.455-.343-1.969-.228-.542-.499-.956-.813-1.241-.314-.285-.784-.485-1.412-.6a9.517 9.517 0 00-1.583-.256 30.618 30.618 0 00-1.883-.043h-1.413zm28.293-6.762v25.164h10.057v7.104h-18.444V11.44h8.387zm32.401 0h8.387v18.146c0 2.624-.214 4.835-.642 6.633-.399 1.769-1.312 3.352-2.738 4.75-2.425 2.396-5.992 3.595-10.699 3.595s-8.274-1.199-10.699-3.595c-1.426-1.398-2.353-2.981-2.781-4.75-.4-1.798-.599-4.009-.599-6.633V11.44h8.387v16.99c0 1.026.015 1.882.043 2.567.057.685.186 1.455.385 2.31.228.857.528 1.541.899 2.055.399.514.97.956 1.712 1.327.741.342 1.626.513 2.653.513 1.027 0 1.911-.171 2.653-.513.742-.371 1.298-.813 1.669-1.327.4-.514.699-1.198.899-2.054.228-.856.357-1.626.385-2.311.057-.685.086-1.54.086-2.568V11.44zm34.762 1.798l-3.338 6.505c-1.711-1.426-3.566-2.14-5.563-2.14-.884 0-1.712.243-2.482.728-.742.485-1.113 1.14-1.113 1.968 0 .57.229 1.084.685 1.54.485.457.927.771 1.327.942.428.172.998.371 1.712.6l2.139.641c2.511.742 4.465 1.798 5.863 3.167 1.398 1.341 2.097 3.224 2.097 5.65 0 3.908-1.113 6.803-3.338 8.686-2.396 2.026-5.449 3.039-9.158 3.039-4.051 0-7.831-1.227-11.34-3.68l3.594-6.762c2.539 2.225 5.021 3.338 7.447 3.338 1.084 0 2.025-.271 2.824-.813.827-.57 1.241-1.384 1.241-2.44 0-1.455-1.355-2.582-4.065-3.38a47.903 47.903 0 00-1.028-.3c-1.54-.428-2.753-.827-3.637-1.198a12.73 12.73 0 01-2.653-1.54 5.593 5.593 0 01-1.883-2.568c-.371-1.027-.557-2.297-.557-3.81 0-3.251 1.042-5.862 3.124-7.83 2.083-1.997 4.751-2.996 8.003-2.996 1.626 0 3.352.242 5.178.727 1.854.486 3.495 1.127 4.921 1.926zM129.254 55.71h1.523c.459 0 .854.165 1.186.496.331.331.497.726.497 1.186 0 .465-.166.863-.497 1.194a1.616 1.616 0 01-1.186.489h-2.084v-5.61h3.286v.53h-2.725v1.714zm0 2.836h1.523c.31 0 .574-.112.793-.337.219-.23.329-.502.329-.817 0-.31-.11-.58-.329-.81a1.04 1.04 0 00-.793-.344h-1.523v2.308zm9.095.529h-.561v-4.568l-3.125 4.568h-.481v-5.61h.561v4.568l3.125-4.568h.481v5.61zm4.67-2.901c.31.117.55.296.721.537.171.24.256.523.256.85 0 .47-.176.857-.529 1.161-.347.3-.817.449-1.41.449-.513 0-.932-.115-1.258-.345a1.83 1.83 0 01-.689-.921l.481-.273c.074.305.232.55.472.738.241.181.572.272.994.272.427 0 .764-.099 1.01-.296a.956.956 0 00.368-.786c0-.326-.112-.587-.336-.785-.225-.198-.529-.297-.914-.297h-.641v-.529h.441c.379 0 .681-.093.905-.28a.943.943 0 00.337-.753.922.922 0 00-.328-.737c-.22-.188-.513-.281-.882-.281-.689 0-1.143.294-1.362.881l-.465-.272c.31-.758.919-1.138 1.827-1.138.524 0 .951.15 1.282.449.326.294.489.662.489 1.106 0 .56-.256.977-.769 1.25zm6.35-.249v-2.46h.561v5.61h-.561v-2.62h-3.045v2.62h-.561v-5.61h.561v2.46h3.045zm3.203.585v2.036h2.725v.529h-3.286v-5.61h3.245v.53h-2.684v1.987h2.484v.529h-2.484zm7.071 2.661c-.855 0-1.557-.28-2.107-.841a2.831 2.831 0 01-.834-2.06c0-.807.278-1.493.834-2.06.55-.56 1.252-.84 2.107-.84.513 0 .986.125 1.419.376.432.245.769.58 1.009 1.002l-.497.288a1.99 1.99 0 00-.785-.817 2.228 2.228 0 00-1.146-.305c-.705 0-1.277.227-1.715.681a2.324 2.324 0 00-.665 1.675c0 .657.222 1.215.665 1.675.438.454 1.01.681 1.715.681.417 0 .799-.101 1.146-.304a1.99 1.99 0 00.785-.818l.497.28a2.557 2.557 0 01-1.001 1.01 2.824 2.824 0 01-1.427.377zm11.124-.096h-.561v-4.568l-3.125 4.568h-.481v-5.61h.561v4.568l3.125-4.568h.481v5.61zm9.053 0h-.561v-4.568l-3.125 4.568h-.481v-5.61h.561v4.568l3.125-4.568h.481v5.61zm6.513-5.61h.697v5.61h-.561v-4.76l-1.964 3.285h-.08l-1.963-3.285v4.76h-.561v-5.61h.697l1.867 3.126 1.868-3.126zm7.21 0h.697v5.61h-.561v-4.76l-1.963 3.285h-.08l-1.963-3.285v4.76h-.561v-5.61h.697l1.867 3.126 1.867-3.126zm6.947 5.61h-.561v-4.568l-3.126 4.568h-.481v-5.61h.561v4.568l3.126-4.568h.481v5.61zm2.081-5.61h3.125v.53h-2.564v5.08h-.561v-5.61zm4.729 0h2.004c.502 0 .921.169 1.258.505.337.337.505.756.505 1.258s-.168.922-.505 1.258c-.337.337-.756.505-1.258.505h-1.443v2.084h-.561v-5.61zm.561 2.997h1.443c.347 0 .633-.115.857-.344.23-.23.345-.526.345-.89 0-.358-.115-.651-.345-.881a1.133 1.133 0 00-.857-.353h-1.443v2.468zm8.732 2.613H216l-.521-1.379h-2.661l-.521 1.379h-.593l2.156-5.61h.577l2.156 5.61zm-2.445-4.913l-1.13 3.006h2.26l-1.13-3.005zm7.973-.697v5.081h.601v1.603h-.561v-1.074h-4.047v-5.61h.561v5.081h2.885v-5.08h.561zm6.495 5.61h-.561v-4.568l-3.126 4.568h-.481v-5.61h.561v4.568l3.126-4.568h.481v5.61zm3.523-5.61h2.244v5.61h-.561V56.83h-1.346l-1.539 2.244h-.641l1.563-2.268a1.65 1.65 0 01-1.002-.569 1.637 1.637 0 01-.401-1.09c0-.465.163-.86.489-1.186a1.627 1.627 0 011.194-.497zm0 2.837h1.683v-2.308h-1.683c-.31 0-.574.112-.793.337-.219.23-.329.502-.329.817 0 .31.11.582.329.818.219.224.483.336.793.336zm10.242-.136c.278.117.497.296.658.537.16.24.24.51.24.81 0 .432-.152.8-.457 1.105a1.505 1.505 0 01-1.106.457h-2.444v-5.61h2.26c.411 0 .767.15 1.066.45.294.293.441.645.441 1.057 0 .523-.219.921-.658 1.194zm-.849-2.172h-1.699v1.956h1.699a.91.91 0 00.665-.28.982.982 0 00.281-.698.973.973 0 00-.281-.69.897.897 0 00-.665-.288zm-1.699 4.552h1.883a.949.949 0 00.706-.297c.197-.197.296-.443.296-.737a.993.993 0 00-.296-.729.936.936 0 00-.706-.305h-1.883v2.068zm8.576-2.036v2.036h2.724v.529h-3.285v-5.61h3.245v.53h-2.684v1.987h2.484v.529h-2.484zm7.599-.344a1.445 1.445 0 01.897 1.346c0 .433-.152.802-.456 1.106a1.509 1.509 0 01-1.106.457h-2.445v-5.61h2.26c.412 0 .767.15 1.066.45.294.293.441.645.441 1.057 0 .523-.219.921-.657 1.194zm-.85-2.172h-1.699v1.956h1.699a.908.908 0 00.665-.28.982.982 0 00.281-.698.973.973 0 00-.281-.69.896.896 0 00-.665-.288zm-1.699 4.552h1.884a.947.947 0 00.705-.297 1 1 0 00.296-.737.99.99 0 00-.296-.729.934.934 0 00-.705-.305h-1.884v2.068zm5.21-5.081h2.004c.502 0 .921.169 1.258.505.336.337.505.756.505 1.258s-.169.922-.505 1.258c-.337.337-.756.505-1.258.505h-1.443v2.084h-.561v-5.61zm.561 2.997h1.443c.347 0 .633-.115.857-.344.23-.23.345-.526.345-.89 0-.358-.115-.651-.345-.881a1.133 1.133 0 00-.857-.353h-1.443v2.468zm9.568 1.868c-.561.56-1.247.841-2.059.841s-1.499-.28-2.06-.841a2.835 2.835 0 01-.841-2.06c0-.807.28-1.49.841-2.051.561-.567 1.248-.85 2.06-.85s1.498.283 2.059.85c.561.56.842 1.244.842 2.051 0 .801-.281 1.488-.842 2.06zm-4.399-2.06c0 .662.224 1.22.673 1.675.449.454 1.004.681 1.667.681.662 0 1.218-.227 1.667-.681.448-.454.673-1.013.673-1.675 0-.657-.225-1.213-.673-1.667-.449-.46-1.005-.689-1.667-.689-.663 0-1.218.23-1.667.69-.449.453-.673 1.009-.673 1.666zm9.622 2.901c-.855 0-1.558-.28-2.108-.841a2.834 2.834 0 01-.833-2.06c0-.807.278-1.493.833-2.06.55-.56 1.253-.84 2.108-.84.513 0 .985.125 1.418.376.433.245.77.58 1.01 1.002l-.497.288a1.99 1.99 0 00-.785-.817 2.234 2.234 0 00-1.146-.305c-.705 0-1.277.227-1.715.681-.444.46-.665 1.018-.665 1.675s.221 1.215.665 1.675c.438.454 1.01.681 1.715.681.416 0 .798-.101 1.146-.304a1.99 1.99 0 00.785-.818l.497.28c-.23.423-.564.76-1.002 1.01a2.817 2.817 0 01-1.426.377zm8.792-.841c-.561.56-1.248.841-2.06.841s-1.498-.28-2.059-.841a2.836 2.836 0 01-.842-2.06c0-.807.281-1.49.842-2.051.561-.567 1.247-.85 2.059-.85s1.499.283 2.06.85c.561.56.841 1.244.841 2.051 0 .801-.28 1.488-.841 2.06zm-4.4-2.06c0 .662.225 1.22.673 1.675.449.454 1.005.681 1.667.681.663 0 1.218-.227 1.667-.681.449-.454.673-1.013.673-1.675 0-.657-.224-1.213-.673-1.667-.449-.46-1.004-.689-1.667-.689-.662 0-1.218.23-1.667.69a2.284 2.284 0 00-.673 1.666zm11.473-2.9c.812 0 1.499.282 2.06.849.561.56.841 1.244.841 2.051 0 .801-.28 1.488-.841 2.06-.561.56-1.248.841-2.06.841a2.78 2.78 0 01-1.987-.785 2.812 2.812 0 01-.873-1.932h-1.05v2.62h-.561v-5.609h.561v2.46h1.058c.09-.737.4-1.346.929-1.827.534-.486 1.175-.729 1.923-.729zm-2.34 2.9c0 .662.225 1.22.674 1.675.448.454 1.004.681 1.666.681.663 0 1.218-.227 1.667-.681.449-.454.673-1.013.673-1.675 0-.657-.224-1.213-.673-1.667-.449-.46-1.004-.689-1.667-.689-.662 0-1.218.23-1.666.69a2.281 2.281 0 00-.674 1.666zm9.437-.096c.309.117.55.296.721.537.171.24.256.523.256.85 0 .47-.176.857-.529 1.161-.347.3-.817.449-1.41.449-.513 0-.932-.115-1.258-.345a1.83 1.83 0 01-.689-.921l.48-.273c.075.305.233.55.473.738.241.181.572.272.994.272.427 0 .764-.099 1.01-.296a.96.96 0 00.368-.786c0-.326-.112-.587-.336-.785-.225-.198-.529-.297-.914-.297h-.641v-.529h.441c.379 0 .681-.093.905-.28a.943.943 0 00.337-.753c0-.305-.11-.55-.329-.737-.219-.188-.512-.281-.881-.281-.689 0-1.143.294-1.362.881l-.465-.272c.31-.758.919-1.138 1.827-1.138.523 0 .951.15 1.282.449.326.294.489.662.489 1.106 0 .56-.257.977-.769 1.25z" fill="#000"/><path stroke="#000" stroke-width=".7" d="M87.526 56.816H120m187.063 0h32.475"/></svg>