<svg width="182" height="39" fill="none" xmlns="http://www.w3.org/2000/svg"><path d="M19.857 0l-.671 2.067h-2.173l1.757 1.277-.67 2.067 1.757-1.277 1.758 1.277-.671-2.067 1.758-1.277h-2.174L19.858 0zm8.593 2.012l-.67 2.068h-2.173l1.758 1.277-.672 2.067 1.759-1.277 1.758 1.277-.672-2.067 1.758-1.277h-2.173l-.671-2.067zm4.365 11.601l1.758-1.277 1.758 1.277-.672-2.066 1.758-1.278h-2.173l-.671-2.067-.672 2.067h-2.173l1.758 1.278-.671 2.066zm6.761 5.187h-2.173l-.671-2.067-.672 2.066h-2.173l1.758 1.277-.672 2.067 1.759-1.277 1.758 1.277-.672-2.067 1.758-1.277zm-4.332 8.406l-.67-2.067-.672 2.067h-2.174l1.759 1.277-.672 2.067 1.758-1.277 1.758 1.277-.672-2.067 1.758-1.277h-2.173zm-6.122 6.266l-.671-2.066-.672 2.066h-2.173l1.758 1.278-.672 2.066 1.759-1.277 1.758 1.277-.672-2.066 1.758-1.278h-2.173zm-8.593 2.168l-.672-2.066-.671 2.067h-2.173l1.757 1.277-.67 2.067 1.757-1.277 1.758 1.277-.671-2.067 1.758-1.277h-2.173zm-8.49-2.168l-.672-2.066-.671 2.066H8.522l1.758 1.278-.671 2.066 1.758-1.277 1.758 1.277-.672-2.066 1.758-1.278H12.04zm-6.264-6.266l-.671-2.067-.672 2.067H2.26l1.758 1.277-.671 2.067 1.758-1.277 1.758 1.277-.672-2.067 1.758-1.277H5.775zm-2.931-6.34l1.759 1.277-.672-2.067L5.689 18.8H3.516l-.672-2.066-.671 2.066H0l1.758 1.277-.672 2.067 1.758-1.277zm2.26-12.663l-.672 2.067H2.26l1.758 1.277-.671 2.066 1.758-1.277 1.758 1.277-.672-2.066 1.758-1.277H5.775l-.671-2.067zm6.263-6.191l-.671 2.067H8.522l1.758 1.277-.671 2.067 1.758-1.277 1.758 1.277-.672-2.067 1.758-1.277H12.04l-.672-2.067z" fill="#fff"/><path fill-rule="evenodd" clip-rule="evenodd" d="M20.38 16.752c-.146 0-.782.495-.734.556 0 0 .05.018.149-.103.248-.303.44.324.53-.379.006-.04.123-.075.056-.074zm-.189.45c.037 0 .079-.035.093-.001.106.245.227.302.106.43-.125.132.098-.113-.135.222-.059.083-.161.04-.224.196-.084.213.109.25.109.25.139.143-.067.056-.135.147.062.024.207.008.187.072-.027.088.07.178.054.224 0 0 .031-.068.062-.073.409-.062.146.267.198.281.44.123.484-.512.815-.181.03.03.294.198.28.13-.018-.085.088.095.067.03-.012-.037.184-.077.184-.077.098.13-.16.148-.185.134-.074-.041-.158-.012-.053.05.241.138.187.937.195.056.002-.242.917-.853 1.207-.853 0 0 .01.024.031.026.872.045 2.306-.301 1.17-.301-.37 0-.192-.315-.368-.344-.212-.034-.135-1.536.3-1.156.34.299.811.411.473-.268-.064-.575-.06.046-.264-.344-.212-.408-.104-.243.032-.446.116-.174.372-.167.424-.273.062-.122.381.107.652-.062.115-.072-.06.509.067.706.185.285.01.309.13.383.176.11.11.332.227.425.54.427-.305.574-.25.714.118.299.076.147-.035.321-.412.64.342.398-.558.835-.525.254.23.36.07.744-.24.574-.183.1-.023.394 0 .001-.022.295.226.722.15.258-.259.449-.34.797a.042.042 0 00-.002.014c.064.35.128.162-.032.509-.151.328.3.39.3.39.025-.114.572-.144.709-.082.284.127.582-.562.84-.37.435.324.605.633.712 1.112.049.22.384.524.45.318.086-.276.35-.027.33-.01-.014.012-.321.673-.279.724.045.054.006.14.01.21.002.027.067.245-.014.222-.298-.087-.084.376-.127.447-.21.35-.104-.023.005.241.258.625-.055-.057-.446.3-.142.127.015.39.015.39-.078.104.026.272-.123.381-.005.005-.844-.021-1.028.215-.026.033.2 1.041-.35.13-.065-.048-.098.339.06.477.478.417.202.366.202.366.152-.08-.303-.162-.13-.012.157.136-.094.232-.094.232.488-.162 1.044.74.723.549-.6-.36-.38.157-.234.13.125-.024-.058.224-.2.035-.113-.152.241.699.16.589-.237-.319-.302.095-.318.063-.236-.483-.363.032-.35-.204.009-.154-.364-.534-.357-.544.343-.467.815 0 .924-.288.03-.08-.974.039-.974.039-.004-.018-.244-.686-.342-1.078-.066-.26.553-.646.621-.62.315.117.347-.495.161-.53-.25-.047-.13-.117-.16-.24-.058-.234.128-.44.118-.448-.503-.471-.214-.73-.326-.81-.002-.001-.545.233-.501-.178.003-.031-.548-.534-.76-.517-.131.011-.354.258-.354.258.078.11.102.307.235.33.113.02-.057.326-.222.174-.181-.166-.297.012-.552-.053-.026-.007-.056-.046-.076-.029-.063.055-.13.005-.24.02-.173.022-.046.192-.245.078-.242-.138-.005.302-.005.302.014.073.155.27.203.311.063.053.38.333.38.333a.358.358 0 00.086.122c.067.043.186.06.134.11-.118.117-.5-.36-.628-.272-.008.005-.344.026-.31-.14.005-.028-.23-.224-.232-.24-.002-.028.028.01.03.002.002-.005-.018-.01.002-.016.048-.012.099.004.149.006 0 0-.011-.013-.015-.012-.147.055-.438-.568-.438-.568 0 .002.002.006 0 .006-.032-.01-.063-.048-.096-.038-.053.018-.072.17-.067.18.03.078-.017.031-.027.069-.002.007.009-.013.01-.02 0-.007-.005-.022-.008-.017-.012.013-.014.032-.02.047l-.007.021-.002.002c-.001.011-.004.023-.003.034 0 .005.011.01.007.015a.053.053 0 01-.037.018c-.01-.001-.014-.014-.022-.021l-.008-.008c-.008-.01-.036-.037-.025-.03.056.04-.163-.145-.03-.144.034 0-.038-.056-.06-.082-.015-.016.025-.016.004-.022-.083-.024-.027-.125-.027-.125-.01-.314-.55.149-.55.149.18 0-.007.498.094.635.332.45.094-.3.716.86.26.484.945.345.981.386.845.943-.965-.291.495.468.788.41.74.906.371.42-.264-.35-.871.303-.486.42.491.15.042.392-.036.483-.087.101-.055.635-.367.547-.24-.067.276-.387.081-.842-.164-.384-.36-.375-.374-.393-.349-.417-.172-.172-.433-.264-.004-.002.01-.064-.139-.125-.098-.04-.127-.188-.227-.224-.34-.12-.425-.28-.747-.459-.22-.123-.32-.288-.37-.34-.534-.533-.048-.464-.634-.874-.594-.416-.503.308-.884.188-.207-.066-1.052.139-1.063.151-.175.198-.233-.26-.5-.107-.721.412.012.835-.64 1.09-.732.287-.656.19-1.084.63-.694.71-.06.756-.318.955-.122.095-.468.55-.468.55-.405-.032-.338.224-.634.379-.171.09-1.233-.426-1.572.05-.181.253-.473-.418-.438-.443.149-.106.162-.069-.037-.265a.35.35 0 00-.073-.03c-.069.069-.498-.075-.841-.165-.413-.109.035-.073 0-.46-.045-.497.33-.155-.116-.353-.077-.034-.245-.002.415-1.022.151-.234.211-.61.277-.938.021-.087-.057-.058-.01-.094.157-.117.023-.125.023-.125.133-.106-.023.001.023-.076.261-.437-.594-.159.442-.598.205-.087.276.109.491.161.336.081 1.682.4 1.76.487.465.523.606-.581.736-.639.104-.046-.037.046.005-.134.18-.78.4.148.254-.071-.089-.134-.12-.75-.12-.75-.164.065-.25-.546-.34-.603-.16-.103-.018-.073-.013-.161 0-.006-.29-.039-.29-.098 0-.198-.033-.044-.112-.094-.801-.515-.165-.121-.344-.42l.005.005c.209.138-.085-.16-.085-.16.062-.153.437.012.478 0 .323-.1.3.169.335.151.175-.087.262.003.348.018.416.069-.05-1.12.295-.554.176.29.563.188.563.188-.233-.078.557-.296.526-.433-.07-.316.43-.568.77-.584.16-.008.5.307.222-.06-.073-.098.225-.1.235-.113.461-.576 1.147-.805.971-.858-.323-.098.286-.279.29-.211.023.431.269-.18.463.03.194.211-.096-.144-.147-.22-.038-.056-.108-.125-.08-.185.119-.24-.017.036-.017-.323 0-.09-.043-.463-.043-.257 0 .153-.115-.504-.075-.328 0 0-.067-.439.04-.39.199.09.19-.235.237.013.015.078.037-.234.3-.234zm-.347.003c.002 0 .003.004.005.006.028.08.027.071.015.09-.029.045-.13.001-.09-.04.013-.013.017-.066.07-.056zm1.098.477c-.222.014-.1.16-.1.16.03.068-.164.113-.054-.06.021-.034-.341.12-.236.175.082.043-.003.127.218.264.054.033.1.196.245-.055.08-.137-.155.002.044-.167.053-.045.003-.325-.117-.317zm-.55.119c-.124.06.096.159.01.009-.004-.008-.007-.01-.01-.01zm-.005.166c-.054.008.01.067-.225.067 0 0-.046.282.2.278.239-.003.025-.345.025-.345zm.132.277c-.175.044-.062.454.001.045.005-.032.003-.046-.001-.045zm.27.104s-.092.385.11.1c.05-.072-.075-.108-.11-.1zm-.193.005c-.226.024.123.187.14.12.003-.017.039-.082-.032-.136 0 0 .014.02-.023.037-.047.021-.025-.028-.085-.021zm-6.029-.815c-.375.065.248-.04-.106-.152-.09-.028-.167.25-.158.165.02-.203-.23-.172-.245.002-.07.809-.163-.425-.018.209.07.304-.824-.01-.69.123.21.21-.182.411-.056.464.335.139.31.073.058.354-.073.082-.24.202-.264.201-.405-.012.202.102-.022.144-.398.075.156.135.031.183-.34.133.118.048.107.063-.17.232-.133.229.304.156.077-.013.094-.147.094-.147s.304.12.321-.018c.007-.057.77.186.662-.577-.08-.563.363-.432.382-.648.016-.178-.203-.053-.142-.102.161-.134.02-.469-.258-.42zm7.128 6.368c-.048-.014.084.024 0 0zM20.027 23c-.047-.014-.025-.983-1.05-.165-.197.158-.527.867-.303.54.172-.25.11.281.644.281.213 0 .095-.506.245-.187.116.247.289.263.348-.036.036-.18.423.152.353-.058-.008-.023.226-.319.094-.34-.11-.016-.133.021-.33-.035zm-.076 2.371c-.122.245-.33.186-.33.425 0 1.283.598-.233.33-.425zm2.403-15.437s.04.413 0 .439c-.04.026-.349-.126-.41-.045-.126.163.21.364-.148.263-.118-.033-.26 1.074-.403 1.17-.145.096-.04.22-.263.906-.027.08.16.035.13.254-.016.107-.603.065-.519.952.048.503.3.736.21.893-.223.388.035.036-.032.45-.037.234-.171.246-.227.42-.004.014.099.538-.071.368-.02-.02-.096-.042-.09-.014.145.612-.036.121.216.42.032.038.037.861.323.956.167.056-.006.087-.025.128-.017.037.106.089.071.103-.18.074-.051.02.06.316.03.08-.006.074-.02.15-.005.017.482.104.493-.082.02-.334.044-.39.374-.42.005 0-.01.024-.004.023.248-.03.324-.838.182-1.004 0 0 .13-.245.04-.308-.064-.045.173-.113-.124-.113 0 0 .413-.116.364-.37 0 0 .258.248.228-.016-.017-.158-.979-.084-.534-.165.686-.124.153-.373.267-.098.11.266.57-.128.264-.298-.777-.431-.372-.655-.467-1.216-.024-.145.168-.247.127-.285-.248-.23.206.045.126-.275-.024-.096.65-.487.625-.864-.006-.088-.169-.105-.164-.212.006-.122.182-.167.027-.27-.012-.008.19-.104.17-.183-.006-.021-.104-.056.025-.143.119-.08.447.041.419-.1-.153-.76.616.558.304.465-.01-.004-.494 1.107-.592 1.128-.115.025.006.056-.067.118-.226.19.188.672.154 1.15-.027.398.514.306.542.363.223.449.813-.24.873-.277.016-.009.384-.057.63-.488.712-1.24.474-1.255-.106-1.657-.013-.01.147-.254.035-.34-.536-.41-.199-.752-.723-1.276-.49-.49.53-.14-.406-.81-.308-.22.016-.548-.108-.762-.295-.51-.71-.179-.621.46.053.38-.319.136-.397.267-.213.355-.598-.516-.598-.143 0 .2-.09.002-.16.072zm-1.626 6.504c-.226.043.012.176.018.06.001-.035 0-.063-.018-.06zm-1.071 1.873s-.185.205.025.1c.03-.015-.017-.066-.025-.1zm1.701.186c-.119.018.051.13.011.09-.104-.104-.098.236.007.136.168-.157-.034-.19-.009-.208.026-.017-.009-.018-.009-.018zm4.934 8.632c-.053-.014-.248.168-.197.163.258-.02.486.234.65.239.278.008.234.06-.026-.249-.098-.116-.28-.117-.427-.153zm.12 1.57s-.029.123.078.077c.02-.01.005-.054-.078-.078zm-6.55-2.305c-.232.284-.657.125-.428.38.001 0 .106 1.679.313.853.025-.104.419.128.33-.54-.025-.188-.047-.484-.032-.546.025-.099-.17-.085-.183-.147zm2.78 1.678s-.45.133-.569.135c-.212.006-.289-.054-.432-.061-.096-.005-.604.232-.073.365.215.054 1.014.61 1.054.388.041-.225.05-.121-.018-.299-.125-.324.452-.62.038-.528z" fill="#fff"/><path d="M54.042 6.267v1.267c-.787-.812-1.72-1.218-2.8-1.218-1.015 0-1.888.377-2.618 1.132-.723.755-1.084 1.644-1.084 2.667s.365 1.912 1.096 2.667c.73.755 1.607 1.133 2.63 1.133 1.04 0 1.965-.406 2.776-1.218v1.266a4.556 4.556 0 01-2.74.901c-1.298 0-2.423-.458-3.373-1.376-.941-.925-1.412-2.037-1.412-3.336 0-1.315.467-2.44 1.4-3.373.942-.942 2.07-1.413 3.386-1.413 1.023 0 1.936.3 2.74.901zm2.665.499c.942-.933 2.07-1.4 3.385-1.4s2.44.467 3.373 1.4c.942.926 1.413 2.046 1.413 3.361 0 1.316-.471 2.436-1.413 3.361-.933.918-2.058 1.376-3.373 1.376-1.315 0-2.443-.458-3.385-1.376-.934-.925-1.4-2.045-1.4-3.36 0-1.316.466-2.436 1.4-3.362zm6.052.67c-.73-.747-1.62-1.12-2.667-1.12-1.047 0-1.936.373-2.667 1.12-.73.739-1.096 1.632-1.096 2.68 0 1.038.366 1.931 1.096 2.678.74.747 1.628 1.12 2.667 1.12 1.04 0 1.924-.373 2.655-1.12.739-.747 1.108-1.64 1.108-2.679 0-1.047-.365-1.94-1.096-2.679zm3.571 7.27V5.135l7.161 7.5v-7.11h1.023v9.595l-7.16-7.489v7.075H66.33zM81.406 6.79l-.816.524c-.381-.665-.909-.998-1.583-.998-.414 0-.771.134-1.071.402-.3.268-.451.609-.451 1.023 0 .186.04.357.122.511.081.154.207.292.377.414.17.114.313.203.427.268.121.065.292.146.51.244l.61.267c.349.155.637.3.864.439.228.13.451.296.67.5.228.194.394.43.5.705.113.276.17.589.17.938 0 .796-.28 1.47-.84 2.022-.56.543-1.242.815-2.046.815-.73 0-1.356-.215-1.875-.645-.512-.438-.84-1.015-.987-1.73l.999-.28c.065.48.268.886.609 1.219.34.324.75.487 1.23.487.503 0 .941-.17 1.315-.512.381-.349.572-.775.572-1.279 0-.203-.037-.39-.11-.56a1.395 1.395 0 00-.231-.426 1.637 1.637 0 00-.402-.34 3.773 3.773 0 00-.438-.257 8.707 8.707 0 00-.512-.243l-.56-.244c-.65-.292-1.145-.609-1.485-.95-.341-.34-.512-.807-.512-1.4 0-.69.252-1.25.755-1.68.503-.439 1.108-.658 1.814-.658.512 0 .975.126 1.389.378.414.243.743.592.986 1.047zm2.82-1.266v6.211c.008.146.045.357.11.633.065.268.162.491.292.67.195.268.463.483.804.645a2.56 2.56 0 001.047.232c.333 0 .662-.073.987-.22.332-.146.604-.345.815-.596.138-.17.244-.378.317-.621.073-.252.114-.459.122-.621.008-.17.012-.41.012-.719V5.524h1.023v5.748c0 .585-.053 1.068-.158 1.45-.098.38-.313.746-.646 1.095-.65.698-1.473 1.047-2.472 1.047-.942 0-1.733-.312-2.374-.937-.366-.35-.61-.727-.731-1.133-.114-.406-.17-.913-.17-1.522V5.524h1.022zm8.361 0v8.232h2.533v.95h-3.556V5.524h1.023zm5.003.95v8.232h-1.022V6.474h-2.216v-.95h5.48v.95H97.59zm4.333-.95v9.182H100.9V5.524h1.023zm1.927 9.182V5.135l7.16 7.5v-7.11h1.023v9.595l-7.16-7.489v7.075h-1.023zm14.807-4.616h3.824c.016.699-.04 1.3-.17 1.803-.13.503-.39.982-.78 1.437a4.202 4.202 0 01-1.534 1.133 4.53 4.53 0 01-1.863.401c-1.291 0-2.403-.462-3.337-1.388-.925-.933-1.388-2.046-1.388-3.336 0-1.316.467-2.44 1.4-3.374.934-.933 2.062-1.4 3.386-1.4 1.575 0 2.869.662 3.884 1.985l-.743.694c-.819-1.153-1.871-1.73-3.153-1.73-1.04 0-1.925.378-2.655 1.133a3.75 3.75 0 00-1.096 2.704c0 .998.357 1.863 1.071 2.594.35.349.755.633 1.218.852.463.211.926.317 1.388.317.837 0 1.592-.272 2.265-.816.674-.552 1.011-1.238 1.011-2.058h-2.728v-.95zm-70.76 7.89v7.066h-.45V17.98h.45zm10.243 7.066l-1.209-5.848h-.019l-2.464 6.083-2.456-6.082h-.018l-1.21 5.847h-.43l1.518-7.3 2.596 6.429 2.605-6.43 1.518 7.301h-.431zm10.004 0l-1.21-5.848h-.018l-2.465 6.083-2.455-6.082h-.019l-1.209 5.847h-.43l1.517-7.3 2.596 6.429 2.606-6.43 1.518 7.301h-.431zm3.322-7.066v7.066h-.45V17.98h.45zm6.756 3.665h2.98a4.46 4.46 0 01-.14 1.311 2.557 2.557 0 01-.6 1.04 3.384 3.384 0 01-1.218.844c-.475.2-.963.3-1.462.3-.981 0-1.831-.356-2.55-1.068-.718-.713-1.077-1.556-1.077-2.53 0-1.013.36-1.875 1.078-2.587a3.585 3.585 0 012.605-1.068c1.237 0 2.258.55 3.064 1.649l-.365.29a3.404 3.404 0 00-1.181-1.115 3.054 3.054 0 00-1.546-.403c-.856 0-1.606.322-2.25.965-.637.644-.955 1.39-.955 2.24 0 .875.312 1.628.937 2.259.63.63 1.387.946 2.268.946.743 0 1.437-.259 2.08-.777.544-.463.831-1.088.862-1.875h-2.53v-.421zm6.853.055l2.314 3.346h-.515l-2.305-3.345h-.225v3.345h-.45V17.98h.88c.245 0 .438.006.582.019.144.006.312.037.506.094.2.056.375.137.525.243.475.331.712.838.712 1.519 0 .6-.188 1.062-.562 1.386-.369.32-.856.472-1.462.46zm-.731-.421h.571c.575 0 .987-.11 1.237-.328.332-.269.497-.64.497-1.115 0-.275-.066-.528-.197-.76a1.11 1.11 0 00-.553-.515c-.225-.106-.646-.16-1.265-.16h-.29v2.878zm9.514 1.443h-3.102l-.946 2.324h-.46l2.962-7.3 2.952 7.3h-.46l-.946-2.324zm0 0l-1.546-3.833-1.555 3.833h3.101zm4.626-4.32v6.644h-.45v-6.644h-1.828v-.422h4.105v.422h-1.827zm4.687-.422v7.066h-.45V17.98h.45zm6.354-.093c.993 0 1.852.356 2.577 1.068.725.712 1.087 1.565 1.087 2.558 0 .994-.362 1.846-1.087 2.559-.725.712-1.584 1.068-2.577 1.068-.994 0-1.853-.356-2.577-1.068-.725-.713-1.087-1.565-1.087-2.559 0-.993.359-1.846 1.077-2.558.725-.712 1.587-1.068 2.587-1.068zm0 .421c-.881 0-1.637.316-2.268.947-.631.63-.947 1.384-.947 2.258 0 .875.316 1.628.947 2.259.631.63 1.387.946 2.268.946.874 0 1.627-.315 2.258-.946.638-.637.956-1.39.956-2.259 0-.874-.318-1.627-.956-2.258-.631-.631-1.384-.947-2.258-.947zm12.731-.328v7.3l-5.932-6.306v6.072h-.45v-7.16l5.932 6.26V17.98h.45zm3.579 5.362V6.11h6.856c1.935 0 3.458.472 4.571 1.417 1.127.93 1.691 2.346 1.691 4.25 0 3.901-2.034 5.851-6.102 5.851h-2.537v5.714h-4.479zm4.479-13.621v4.296h1.714c.229-.015.511-.06.846-.137.35-.076.609-.183.777-.32.167-.137.312-.343.434-.617.137-.274.206-.617.206-1.028 0-.427-.061-.777-.183-1.051-.122-.29-.267-.51-.434-.663-.168-.153-.419-.26-.755-.32a5.071 5.071 0 00-.845-.137 16.395 16.395 0 00-1.006-.023h-.754zm15.11-3.611v13.438h5.37v3.794h-9.85V6.11h4.48zm17.303 0h4.479v9.69c0 1.402-.114 2.582-.343 3.542-.213.945-.701 1.79-1.462 2.537-1.295 1.28-3.2 1.92-5.714 1.92-2.514 0-4.418-.64-5.713-1.92-.762-.747-1.257-1.592-1.486-2.537-.213-.96-.32-2.14-.32-3.542V6.11h4.48v9.073c0 .548.007 1.006.022 1.371.031.366.099.777.206 1.234.122.457.282.823.48 1.097.213.274.518.51.914.709.396.182.869.274 1.417.274.549 0 1.021-.091 1.417-.274.396-.198.693-.434.891-.709.214-.274.374-.64.48-1.097.122-.457.191-.868.206-1.234.03-.365.046-.823.046-1.371V6.11zm18.564.96l-1.782 3.473c-.914-.761-1.905-1.142-2.971-1.142-.473 0-.914.13-1.326.388-.396.26-.594.61-.594 1.052 0 .304.122.579.366.822.259.244.495.412.708.503.229.092.533.198.914.32l1.143.343c1.341.396 2.384.96 3.131 1.691.747.716 1.12 1.722 1.12 3.017 0 2.087-.594 3.634-1.783 4.64-1.28 1.081-2.91 1.622-4.89 1.622-2.164 0-4.183-.655-6.057-1.966l1.92-3.61c1.356 1.188 2.682 1.782 3.977 1.782.579 0 1.081-.145 1.508-.434.442-.305.663-.74.663-1.303 0-.777-.724-1.379-2.171-1.805a27.5 27.5 0 00-.549-.16c-.823-.229-1.47-.442-1.943-.64a6.8 6.8 0 01-1.416-.823 2.985 2.985 0 01-1.006-1.371c-.198-.549-.297-1.227-.297-2.034 0-1.737.556-3.131 1.668-4.182 1.112-1.067 2.537-1.6 4.274-1.6.868 0 1.79.13 2.765.388.991.26 1.867.602 2.628 1.029zM68.973 29.75h.813a.87.87 0 01.634.266.864.864 0 01.265.634.87.87 0 01-.265.637.863.863 0 01-.634.261h-1.112v-2.995h1.754v.282h-1.455v.916zm0 1.516h.813a.57.57 0 00.424-.18.611.611 0 00.175-.436.606.606 0 00-.175-.433.556.556 0 00-.424-.184h-.813v1.233zm4.857.282h-.3V29.11l-1.668 2.44h-.257v-2.996h.3v2.439l1.669-2.44h.256v2.996zM76.324 30a.81.81 0 01.385.286c.091.128.137.28.137.453a.784.784 0 01-.282.621c-.186.16-.437.24-.753.24-.274 0-.498-.062-.672-.184a.98.98 0 01-.368-.492l.256-.146c.04.163.124.294.253.394.128.097.305.145.53.145.229 0 .409-.052.54-.158a.511.511 0 00.197-.42.531.531 0 00-.18-.419c-.12-.105-.283-.158-.488-.158h-.342v-.283h.235c.203 0 .364-.05.484-.15a.505.505 0 00.18-.402.493.493 0 00-.176-.394c-.117-.1-.274-.15-.47-.15-.369 0-.612.158-.729.471l-.248-.145c.166-.405.491-.608.976-.608.28 0 .508.08.685.24a.762.762 0 01.26.59c0 .3-.136.523-.41.668zm3.391-.134v-1.313h.3v2.995h-.3v-1.4H78.09v1.4h-.3v-2.995h.3v1.313h1.626zm1.711.313v1.087h1.455v.282h-1.755v-2.995h1.733v.282h-1.433v1.061h1.326v.283h-1.326zm3.776 1.421c-.456 0-.831-.15-1.125-.45a1.513 1.513 0 01-.445-1.1c0-.43.148-.797.445-1.1.294-.299.669-.449 1.125-.449.274 0 .526.067.758.201.23.132.41.31.539.535l-.265.154a1.063 1.063 0 00-.42-.436 1.19 1.19 0 00-.612-.163c-.376 0-.682.122-.916.364a1.24 1.24 0 00-.355.895c0 .35.118.649.355.894.234.242.54.364.916.364.223 0 .427-.055.612-.163.186-.108.325-.254.42-.436l.265.15a1.369 1.369 0 01-.535.539 1.506 1.506 0 01-.762.2zm5.941-.052h-.3V29.11l-1.669 2.44h-.257v-2.996h.3v2.439l1.669-2.44h.257v2.996zm4.834 0h-.3V29.11l-1.668 2.44h-.257v-2.996h.3v2.439l1.669-2.44h.256v2.996zm3.478-2.995h.373v2.995h-.3v-2.542l-1.048 1.755h-.043l-1.049-1.755v2.542h-.3v-2.995h.373l.997 1.669.997-1.67zm3.851 0h.372v2.995h-.299v-2.542l-1.049 1.755h-.042l-1.049-1.755v2.542h-.299v-2.995h.372l.997 1.669.997-1.67zm3.71 2.995h-.3V29.11l-1.669 2.44h-.257v-2.996h.3v2.439l1.669-2.44h.257v2.996zm1.111-2.995h1.669v.282h-1.369v2.713h-.3v-2.995zm2.526 0h1.07c.268 0 .492.09.672.27.18.179.27.403.27.671s-.09.492-.27.672a.913.913 0 01-.672.27h-.77v1.112h-.3v-2.995zm.3 1.6h.77a.614.614 0 00.458-.184.642.642 0 00.184-.475.636.636 0 00-.184-.47.607.607 0 00-.458-.189h-.77v1.318zm4.662 1.395h-.316l-.278-.736H113.6l-.278.736h-.317l1.151-2.995h.308l1.151 2.995zm-1.305-2.623l-.603 1.605h1.207l-.604-1.605zm4.258-.372v2.713h.321v.856h-.3v-.574h-2.161v-2.995h.3v2.713h1.54v-2.713h.3zm3.468 2.995h-.299V29.11l-1.669 2.44h-.257v-2.996h.299v2.439l1.669-2.44h.257v2.996zm1.882-2.995h1.198v2.995h-.299V30.35h-.719l-.822 1.198h-.342l.834-1.21a.882.882 0 01-.535-.305.872.872 0 01-.214-.582c0-.248.087-.459.261-.633a.87.87 0 01.638-.265zm0 1.515h.899v-1.233h-.899a.57.57 0 00-.424.18.61.61 0 00-.175.436c0 .166.058.311.175.437a.57.57 0 00.424.18zm5.47-.073a.766.766 0 01.479.719.803.803 0 01-.244.59.804.804 0 01-.59.244h-1.306v-2.995h1.207c.22 0 .41.08.569.24a.77.77 0 01.236.564c0 .28-.117.492-.351.638zm-.454-1.16h-.907v1.044h.907c.137 0 .255-.05.355-.15.1-.105.15-.23.15-.372 0-.14-.05-.262-.15-.368a.478.478 0 00-.355-.154zm-.907 2.43h1.006a.505.505 0 00.376-.157.533.533 0 00.158-.394.527.527 0 00-.158-.39.499.499 0 00-.376-.162h-1.006v1.104zm4.58-1.086v1.087h1.455v.282h-1.755v-2.995h1.733v.282h-1.433v1.061h1.326v.283h-1.326zm4.058-.184a.766.766 0 01.479.719.803.803 0 01-.244.59.802.802 0 01-.59.244h-1.306v-2.995h1.207c.22 0 .41.08.569.24a.77.77 0 01.236.564c0 .28-.117.492-.351.638zm-.454-1.16h-.907v1.044h.907c.137 0 .255-.05.355-.15.1-.105.15-.23.15-.372 0-.14-.05-.262-.15-.368a.478.478 0 00-.355-.154zm-.907 2.43h1.006a.505.505 0 00.376-.157.533.533 0 00.158-.394.527.527 0 00-.158-.39.499.499 0 00-.376-.162h-1.006v1.104zm2.782-2.712h1.07c.268 0 .492.09.672.27.18.179.27.403.27.671s-.09.492-.27.672a.913.913 0 01-.672.27h-.77v1.112h-.3v-2.995zm.3 1.6h.77a.614.614 0 00.458-.184.642.642 0 00.184-.475.636.636 0 00-.184-.47.607.607 0 00-.458-.189h-.77v1.318zm5.109.997c-.299.3-.666.45-1.1.45-.433 0-.8-.15-1.099-.45-.3-.305-.45-.671-.45-1.1 0-.43.15-.796.45-1.095a1.487 1.487 0 011.099-.454c.434 0 .801.151 1.1.454.3.3.45.665.45 1.096 0 .428-.15.794-.45 1.1zm-2.349-1.1c0 .354.12.652.359.895.24.242.537.364.89.364.354 0 .651-.122.891-.364.239-.243.359-.54.359-.895 0-.35-.12-.647-.359-.89a1.197 1.197 0 00-.891-.368c-.353 0-.65.123-.89.368a1.22 1.22 0 00-.359.89zm5.138 1.55c-.456 0-.831-.15-1.125-.45a1.511 1.511 0 01-.445-1.1c0-.43.148-.797.445-1.1.294-.299.669-.449 1.125-.449.274 0 .527.067.758.201.231.132.411.31.539.535l-.265.154a1.06 1.06 0 00-.42-.436 1.188 1.188 0 00-.612-.163c-.376 0-.681.122-.915.364a1.24 1.24 0 00-.356.895c0 .35.119.649.356.894.234.242.539.364.915.364.223 0 .427-.055.612-.163a1.06 1.06 0 00.42-.436l.265.15a1.37 1.37 0 01-.535.539 1.506 1.506 0 01-.762.2zm4.696-.45c-.3.3-.667.45-1.1.45-.434 0-.8-.15-1.1-.45a1.512 1.512 0 01-.449-1.1c0-.43.149-.796.449-1.095a1.49 1.49 0 011.1-.454c.433 0 .8.151 1.1.454.299.3.449.665.449 1.096 0 .428-.15.794-.449 1.1zm-2.35-1.1c0 .354.12.652.36.895a1.2 1.2 0 00.89.364c.354 0 .65-.122.89-.364.24-.243.359-.54.359-.895 0-.35-.119-.647-.359-.89a1.195 1.195 0 00-.89-.368c-.354 0-.651.123-.89.368-.24.243-.36.54-.36.89zm6.127-1.549c.434 0 .801.151 1.1.454.3.3.45.665.45 1.096 0 .428-.15.794-.45 1.1a1.497 1.497 0 01-1.1.449c-.413 0-.767-.14-1.061-.42a1.507 1.507 0 01-.467-1.031h-.56v1.4h-.3v-2.996h.3v1.313h.565c.048-.393.214-.718.496-.975.286-.26.628-.39 1.027-.39zm-1.249 1.55c0 .353.119.651.359.894.24.242.537.364.89.364a1.2 1.2 0 00.89-.364c.24-.243.36-.54.36-.895 0-.35-.12-.647-.36-.89a1.193 1.193 0 00-.89-.368c-.353 0-.65.123-.89.368-.24.243-.359.54-.359.89zm5.039-.051a.81.81 0 01.385.286c.091.128.137.28.137.453a.785.785 0 01-.282.621c-.186.16-.437.24-.754.24-.274 0-.497-.062-.672-.184a.984.984 0 01-.368-.492l.257-.146c.04.163.124.294.253.394.128.097.305.145.53.145.229 0 .408-.052.54-.158a.511.511 0 00.196-.42.53.53 0 00-.179-.419c-.12-.105-.283-.158-.488-.158h-.343v-.283h.236c.202 0 .364-.05.483-.15a.504.504 0 00.18-.402.492.492 0 00-.175-.394c-.117-.1-.274-.15-.471-.15-.368 0-.611.158-.728.471l-.248-.145c.166-.405.491-.608.976-.608.28 0 .508.08.685.24a.762.762 0 01.261.59c0 .3-.137.523-.411.668z" fill="#fff"/><path stroke="#fff" stroke-width=".374" d="M46.688 30.342h17.343m99.899 0h17.343"/></svg>