<svg width="40" height="40" fill="none" xmlns="http://www.w3.org/2000/svg"><path d="M39.993 19.683A20.023 20.023 0 0020.006 0 20.02 20.02 0 000 19.997a19.929 19.929 0 005.668 13.926c-.513.728-1.718 1.8-4.142 1.09a1.09 1.09 0 00-1.169 1.713c1.23 1.593 4.297 3.051 7.937 3.051a13.733 13.733 0 004.986-.943 19.996 19.996 0 0026.696-17.896c.019-.208.026-.417.022-.625.004-.22-.009-.417-.005-.63zm-2.347-2.126a35.799 35.799 0 00-2.847-2.127c-4.063-2.757-7.93-4.264-11.174-4.063-1.692.133-2.975 1.273-3.555 1.868-.77-.79-2.038-1.589-4.026-1.589a4.927 4.927 0 00-2.379.575c1.5-6.336 5.428-9.17 6.873-10.024a17.843 17.843 0 0117.108 15.36zm-17.783 20.01a1.02 1.02 0 00-.183.244 17.842 17.842 0 01-17.321-15.31c2.969 2.247 9.007 5.868 17.076 5.868h.26a2.23 2.23 0 001.28-.469c.52-.368 3.542-2.561 5.774-5.273-1.308 9.382-6.806 14.864-6.886 14.94zm-.81-22.037v.013a.99.99 0 00.088.173v.013a1.09 1.09 0 001.799.043c.026-.04.05-.083.071-.126a.646.646 0 00.053-.107c.159-.33.38-.627.654-.872a3.37 3.37 0 012.36-.83c1.09 0 2.937.734 2.937 3.487 0 2.53-4.129 6.465-6.96 8.553-2.834-2.088-6.96-6.022-6.96-8.553 0-2.753 1.843-3.487 2.933-3.487.865-.037 1.71.26 2.361.83.276.242.502.535.665.863zm-2.44-13.02c-2.444 2.377-5.308 6.599-5.683 13.526v1.277c0 3.141 3.413 6.627 5.866 8.72C8.97 25.17 3.54 20.74 2.19 19.53A17.84 17.84 0 0116.613 2.51zM4.998 37.09a5.308 5.308 0 002.252-1.694c.927.77 1.921 1.454 2.971 2.045a11.076 11.076 0 01-5.223-.351zm17.727.52a30.548 30.548 0 006.485-18.995v-1.308a6.562 6.562 0 00-.613-2.79c4.17 1.672 7.874 4.837 9.206 6.055A17.845 17.845 0 0122.725 37.61z" fill="#F8F7F9"/></svg>