<svg width="92" height="103" fill="none" xmlns="http://www.w3.org/2000/svg"><path d="M.752 9.205a.5.5 0 00.581.814l-.58-.814zm40.743 30.84l-.066-.496.066.495zm35.739 61.788a.5.5 0 00.57.418l4.448-.688a.5.5 0 10-.153-.988l-3.953.611-.611-3.953a.5.5 0 00-.988.153l.687 4.447zM3.753 8.366a.5.5 0 00-.546-.838l.546.838zM8.23 4.592a.5.5 0 10.458.89l-.458-.89zm5.734-1.42a.5.5 0 10-.337-.942l.337.942zM19.289.718a.5.5 0 00.17.986l-.17-.986zm5.837.612a.5.5 0 00.048-.999l-.047 1zm5.882.023a.5.5 0 10-.299.954l.3-.954zm4.835 3.34a.5.5 0 00.535-.844l-.535.845zm5.106 2.903a.5.5 0 00-.719.694l.72-.694zm2.783 5.182a.5.5 0 00.847-.533l-.847.534zm3.508 4.727a.5.5 0 00-.93.368l.93-.368zm.676 5.842a.5.5 0 00.982-.19l-.982.19zm1.488 5.702a.5.5 0 00-1-.03l1 .03zm-2.044 5.477a.5.5 0 10.929.37l-.929-.37zm-2.871 5.035a.5.5 0 00-.5-.867l.5.867zm-5.764-.136a.5.5 0 10-.235.972l.235-.972zm-5.096-2.623a.5.5 0 10.854-.52l-.854.52zm-.067-5.745a.5.5 0 10-.978-.208l.978.208zm2.417-5.198a.5.5 0 10.578.815l-.578-.815zm5.745-1.177a.5.5 0 00-.17-.985l.17.985zm5.731-1.247a.5.5 0 00-.06.998l.06-.998zm5.563 1.773a.5.5 0 10.206-.978l-.206.978zm5.732.547a.5.5 0 10-.32.947l.32-.947zm4.903 3.036a.5.5 0 10.419-.908l-.42.908zm5.49 1.755a.5.5 0 10-.508.86l.509-.86zm4.177 3.97a.5.5 0 10.596-.803l-.596.803zm5.004 2.86a.5.5 0 00-.682.732l.682-.732zm3.19 4.796a.5.5 0 00.766-.644l-.766.644zm4.165 3.98a.5.5 0 10-.844.537l.844-.536zm1.814 5.465a.5.5 0 10.913-.409l-.913.41zm2.86 4.997a.5.5 0 00-.964.266l.964-.267zm.107 5.754a.5.5 0 00.993-.116l-.993.116zm1.238 5.624a.5.5 0 10-1-.03l1 .03zm-1.545 5.554a.5.5 0 00.986.162l-.986-.162zm-.276 5.74a.5.5 0 00-.96-.276l.96.276zm-2.793 5.048a.5.5 0 00.928.371l-.928-.371zM85.65 89.92a.5.5 0 00-.892-.45l.892.45zm-3.61 4.469a.5.5 0 10.856.514l-.857-.514zm-2.233 5.305a.5.5 0 00-.824-.567l.824.567zM1.333 10.02a68.12 68.12 0 012.42-1.653l-.546-.838A69.133 69.133 0 00.752 9.205l.581.814zM8.69 5.481a43.399 43.399 0 015.276-2.31l-.337-.941a44.392 44.392 0 00-5.397 2.362l.458.89zm10.77-3.777a25.927 25.927 0 015.668-.374l.047-.999a26.963 26.963 0 00-5.885.387l.17.986zm11.25.603a21.633 21.633 0 015.134 2.387l.535-.845a22.634 22.634 0 00-5.37-2.496l-.299.954zm9.52 5.983a27.717 27.717 0 013.502 4.489l.847-.534a28.722 28.722 0 00-3.63-4.65l-.719.695zm6.08 9.583a30.95 30.95 0 011.606 5.474l.982-.19a31.959 31.959 0 00-1.658-5.652l-.93.368zm2.095 11.145c-.064 2.052-.414 3.927-1.045 5.508l.929.37c.683-1.711 1.05-3.705 1.115-5.847l-1-.03zm-4.416 9.676a6.91 6.91 0 01-2.56.855l.132.99a7.911 7.911 0 002.928-.978l-.5-.867zm-2.56.855a7.32 7.32 0 01-2.704-.124l-.235.972a8.33 8.33 0 003.071.143l-.132-.991zm-6.946-3.267c-.94-1.542-1.304-3.425-.92-5.225l-.979-.208c-.44 2.064-.02 4.205 1.044 5.953l.855-.52zm2.074-9.608c1.268-.898 2.966-1.61 5.167-1.992l-.17-.985c-2.322.402-4.166 1.162-5.575 2.162l.578.815zm10.837-2.24c.906.054 1.863.15 2.87.29l.139-.99a38.345 38.345 0 00-2.948-.299l-.06.998zm2.87.29c.898.125 1.818.286 2.754.484l.206-.978c-.958-.203-1.9-.368-2.821-.496l-.138.99zm8.165 1.978a53.53 53.53 0 015.224 2.09l.419-.909a54.528 54.528 0 00-5.322-2.128l-.32.947zm10.206 4.704a54.047 54.047 0 014.685 3.11l.596-.803a54.966 54.966 0 00-4.772-3.167l-.51.86zm9.007 6.702a46.259 46.259 0 013.873 4.064l.765-.644a47.256 47.256 0 00-3.956-4.152l-.682.732zm7.193 8.581a38.708 38.708 0 012.658 4.928l.913-.409a39.708 39.708 0 00-2.727-5.055l-.844.536zm4.554 10.19a36.577 36.577 0 011.07 5.489l.994-.116a37.59 37.59 0 00-1.1-5.639l-.964.267zm1.309 11.084a42.107 42.107 0 01-.545 5.583l.986.162c.322-1.956.504-3.862.559-5.716l-1-.03zM88.916 79.01a55.657 55.657 0 01-1.832 5.324l.928.371a56.696 56.696 0 001.865-5.42l-.96-.275zM84.76 89.47a76.622 76.622 0 01-2.719 4.919l.857.514a77.652 77.652 0 002.754-4.983l-.892-.45zm-5.775 9.657a99.408 99.408 0 01-1.66 2.334l.808.591c.579-.791 1.137-1.577 1.676-2.358l-.824-.567z" fill="#fff"/></svg>