<svg width="226" height="81" fill="none" xmlns="http://www.w3.org/2000/svg"><path d="M225.09.9a.5.5 0 10-.995-.098l.995.097zM.99 70.451a.5.5 0 00-.24.665l1.92 4.07a.5.5 0 00.904-.427l-1.706-3.617 3.618-1.707a.5.5 0 00-.427-.904l-4.07 1.92zM223.748 3.727a.5.5 0 10.99.139l-.99-.139zm-.067 5.876a.5.5 0 00-.974-.225l.974.225zm-2.533 5.301a.5.5 0 10.948.319l-.948-.319zm-1.207 5.78a.5.5 0 10-.909-.415l.909.416zm-3.588 4.689a.5.5 0 00.858.513l-.858-.513zm-2.429 5.375a.499.499 0 10-.795-.606l.795.606zm-4.528 3.775a.5.5 0 10.724.69l-.724-.69zm-3.538 4.716a.5.5 0 10-.648-.762l.648.762zm-5.218 2.747a.5.5 0 00.57.822l-.57-.822zm-4.394 3.934a.5.5 0 10-.492-.87l.492.87zm-5.63 1.76a.5.5 0 10.419.908l-.419-.908zm-4.984 3.157a.5.5 0 00-.35-.937l.35.937zm-5.834.898a.5.5 0 00.286.958l-.286-.958zm-5.369 2.45a.5.5 0 10-.225-.974l.225.975zm-5.901.169a.5.5 0 10.17.985l-.17-.986zm-5.615 1.822a.5.5 0 10-.117-.993l.117.993zm-5.884-.457a.5.5 0 10.068.998l-.068-.998zm-5.766 1.257a.501.501 0 00-.021-1l.021 1zm-5.811-1.01a.501.501 0 00-.025.999l.025-1zm-5.858.725a.5.5 0 00.069-.998l-.069.998zm-5.703-1.53a.5.5 0 00-.114.994l.114-.994zm-5.9.193a.5.5 0 00.16-.987l-.16.987zm-5.533-2.053a.5.5 0 10-.208.978l.208-.978zm-5.884-.39a.5.5 0 10.261-.966l-.261.965zm-5.276-2.645a.5.5 0 00-.321.947l.321-.947zm-5.814-1.14a.5.5 0 00.392-.92l-.392.92zm-4.809-3.435a.5.5 0 00-.483.875l.483-.875zM95.281 43.4a.5.5 0 00.608-.795l-.608.795zm-3.483-4.764a.5.5 0 00-.794.608l.794-.608zm-3.243-4.864a.5.5 0 10.99-.136l-.99.136zm1.785-5.385a.5.5 0 00-.94-.34l.94.34zm2.334-4.854a.5.5 0 10.502.864l-.502-.864zm4.962 1.379a.5.5 0 10.584-.812l-.584.812zm4.075 3.481a.5.5 0 10-.889.458l.889-.458zm.783 5.368a.5.5 0 00.981-.195l-.981.195zm1.425 5.234a.5.5 0 00-1-.027l1 .027zm-1.665 5.17a.5.5 0 00.976.222l-.976-.221zm-.688 5.382a.5.5 0 00-.923-.387l.923.387zm-3.514 4.633a.5.5 0 10.855.519l-.855-.52zm-2.694 5.566a.5.5 0 10-.778-.628l.778.628zm-4.86 3.81a.5.5 0 00.691.722l-.691-.722zm-4.015 4.703a.5.5 0 00-.598-.802l.598.802zm-5.644 2.526a.5.5 0 10.502.865l-.502-.865zm-4.98 3.655a.5.5 0 10-.405-.915l.405.915zm-6.054 1.252a.5.5 0 00.312.95l-.312-.95zm-5.615 2.591a.5.5 0 10-.222-.975l.222.975zm-6.187.124a.5.5 0 00.14.99l-.14-.99zm-5.955 1.617a.5.5 0 10-.066-.998l.066.998zm-6.132-.813a.5.5 0 10-.003 1l.003-1zm-6.134.79a.5.5 0 00.065-.998l-.065.998zm-5.982-1.56a.5.5 0 00-.12.992l.12-.993zm-6.177.104a.5.5 0 10.169-.985l-.17.985zm-5.81-2.155a.5.5 0 10-.214.977l.214-.977zm-6.165-.458a.5.5 0 00.254-.967l-.254.967zm-5.59-2.621a.5.5 0 10-.29.957l.29-.957zm-6.112-.918a.5.5 0 10.323-.947l-.323.947zM224.095.802a71.511 71.511 0 01-.346 2.926l.99.139c.136-.974.253-1.963.351-2.968l-.995-.097zm-1.387 8.577a59.257 59.257 0 01-1.559 5.526l.948.319a60.362 60.362 0 001.585-5.62l-.974-.225zm-3.675 10.89a52.549 52.549 0 01-2.679 5.105l.858.513a53.448 53.448 0 002.73-5.201l-.909-.416zm-5.903 9.874a52.4 52.4 0 01-3.733 4.381l.724.69a53.19 53.19 0 003.804-4.465l-.795-.606zm-7.919 8.335a58.425 58.425 0 01-4.57 3.51l.57.821a59.42 59.42 0 004.648-3.569l-.648-.762zm-9.456 6.572a69.905 69.905 0 01-5.138 2.631l.419.908a70.72 70.72 0 005.211-2.668l-.492-.87zm-10.472 4.851a84.97 84.97 0 01-5.484 1.835l.286.958a86.016 86.016 0 005.548-1.856l-.35-.937zm-11.078 3.311a101.75 101.75 0 01-5.676 1.142l.17.986c1.925-.331 3.837-.715 5.731-1.153l-.225-.975zm-11.408 1.972c-1.918.227-3.843.405-5.767.536l.068.998c1.941-.133 3.882-.312 5.816-.54l-.117-.994zm-11.554.793c-1.938.04-3.871.036-5.79-.01l-.025.999c1.935.047 3.882.052 5.836.011l-.021-1zm-11.579-.283a128.664 128.664 0 01-5.772-.532l-.114.994c1.914.22 3.855.4 5.817.536l.069-.998zm-11.512-1.326c-1.939-.315-3.84-.671-5.693-1.066l-.208.978c1.869.398 3.786.758 5.741 1.075l.16-.987zm-11.316-2.422a93.16 93.16 0 01-5.537-1.68l-.321.948a94.293 94.293 0 005.597 1.697l.261-.965zm-10.959-3.74a57.35 57.35 0 01-5.201-2.514l-.483.875a58.43 58.43 0 005.292 2.56l.392-.92zm-9.988-5.6c-1.675-1.28-3.05-2.609-4.091-3.969l-.794.608c1.107 1.445 2.55 2.835 4.277 4.156l.608-.795zm-6.343-8.97a7.967 7.967 0 01.094-2.726l-.979-.204a8.966 8.966 0 00-.106 3.067l.99-.136zm.094-2.726c.197-.945.433-1.784.7-2.522l-.94-.34a19.475 19.475 0 00-.739 2.658l.98.204zm3.536-6.512c1.354-.786 2.925-.588 4.46.515l.584-.812c-1.76-1.264-3.76-1.604-5.546-.567l.502.864zm7.646 4.454c.72 1.399 1.303 3.054 1.672 4.91l.981-.195c-.386-1.941-.998-3.685-1.764-5.173l-.889.458zm2.097 10.117a26.738 26.738 0 01-.665 5.198l.976.221c.423-1.867.642-3.673.689-5.392l-1-.027zm-2.276 10.192c-.331.791-.703 1.59-1.117 2.393l.888.458a33.9 33.9 0 001.152-2.464l-.923-.387zm-1.117 2.393a43.516 43.516 0 01-1.474 2.627l.855.519a44.307 44.307 0 001.507-2.688l-.888-.458zm-4.946 7.565a47.2 47.2 0 01-4.082 4.438l.691.722a48.196 48.196 0 004.169-4.532l-.778-.628zm-8.695 8.34a52.2 52.2 0 01-5.046 3.327l.502.865a53.201 53.201 0 005.142-3.391l-.598-.802zm-10.431 6.067a60.253 60.253 0 01-5.649 2.167l.312.95a61.274 61.274 0 005.742-2.202l-.405-.915zM63.968 77.31a72.394 72.394 0 01-5.965 1.099l.14.99c2.09-.297 4.105-.67 6.047-1.114l-.222-.975zm-11.986 1.718a88.912 88.912 0 01-6.066.185l-.003 1a89.837 89.837 0 006.135-.187l-.066-.998zm-12.135-.023a109.48 109.48 0 01-6.047-.563l-.12.993c2.082.251 4.116.44 6.102.568l.065-.998zm-12.055-1.443a134.198 134.198 0 01-5.98-1.17l-.213.977c2.048.448 4.056.84 6.024 1.178l.169-.985zm-11.89-2.595a162.163 162.163 0 01-5.844-1.654l-.29.957c1.994.604 3.954 1.158 5.88 1.664l.254-.967zM4.27 71.447c-.958-.326-1.924-.664-2.897-1.014l-.338.941c.978.352 1.949.691 2.912 1.02l.323-.947z" fill="#fff"/></svg>