<svg width="77" height="76" fill="none" xmlns="http://www.w3.org/2000/svg"><rect x=".943" width="76" height="76" rx="38" fill="#291F2F"/><path d="M38.941 59.496c11.7.17 21.32-9.45 21.492-21.49-.172-12.04-9.792-21.66-21.492-21.491-11.707-.17-21.327 9.45-21.499 21.49.172 12.04 9.792 21.66 21.5 21.491z" fill="#FFC800"/><path d="M48.191 54.017c-7.297 4.214-15.216 4.964-20.276 2.442a21.512 21.512 0 0021.777.162c6.697-3.796 10.828-11.07 10.75-18.932-.344 5.634-4.954 12.114-12.25 16.328zm-6.525-35.928c1.48 2.56-2.094 7.399-7.99 10.797-5.897 3.405-11.872 4.082-13.352 1.515a2.638 2.638 0 01-.164-.39 5.28 5.28 0 011.18-4.361 21.352 21.352 0 016.847-6.259 21.476 21.476 0 017.918-2.7c.315-.044.622-.08.922-.102a5.292 5.292 0 014.367 1.154 2.4 2.4 0 01.272.346z" fill="#000"/><path d="M50.806 20.862c2.587 4.471-2.63 12.319-11.643 17.519-9.012 5.2-18.418 5.795-20.998 1.324a5.419 5.419 0 01-.708-2.472 21.37 21.37 0 001.608 8.966c.18.434.38.86.586 1.287l.029.052a8.28 8.28 0 003.366 3.17c5.06 2.706 13.609 1.78 21.606-2.84 7.984-4.611 13.065-11.547 13.258-17.276a8.32 8.32 0 00-1.057-4.486 18.32 18.32 0 00-.915-1.273 21.437 21.437 0 00-6.876-5.795 5.454 5.454 0 011.744 1.824z" fill="#000"/></svg>