<svg width="173" height="45" fill="none" xmlns="http://www.w3.org/2000/svg"><path d="M47.727 25.849c-.951-3.917-4.32-9.568-14.684-9.568-2.16 0-7.875.607-8.902.607.089-.345 1.123-3.307 1.297-3.741-.684-.345-2.506-.69-5.098-.783-6.046-.172-13.387 2.438-17.964 5.83-.52 1.566-1.47 4-2.075 5.48 4.752-2.525 11.747-5.131 17.119-5.655 3.626-.345 5.009.345 5.44.61.432.172-3.109 1.38-3.023 2.782 0 1.741 7.255-.172 12.007 0 8.217.262 11.833 3.131 13.13 7.22 1.64 5.048-1.297 9.916-4.923 11.743 4.489-1.13 9.327-7.654 7.687-14.525" fill="#E30613"/><path d="M20.345 12.364c2.591.09 4.406.435 5.098.783-.175.434-1.209 3.393-1.298 3.74 1.027 0 6.738-.606 8.902-.606 10.364 0 13.733 5.651 14.685 9.568.237 1.055.352 2.135.342 3.217.603-2.869.603-6.348.26-8.275-.606-3.917-4.06-9.396-13.565-9.571-2.157 0-7.857.61-8.81.61.086-.345 1.124-3.307 1.21-3.741-.603-.345-2.158-.959-4.75-1.034-6.132-.087-13.476 2.437-18.053 5.83A86.872 86.872 0 012.38 18.19c4.578-3.392 11.918-6.002 17.965-5.83" fill="#009FE3"/><path d="M48.16 14.626c-.863-3.13-4.232-8.175-11.662-8.35-2.16 0-7.6.434-8.81.523.086-.262.95-2.872 1.124-3.306-.52-.69-2.075-1.307-4.667-1.38-6.132-.172-13.387 2.61-17.965 6.09-.52 1.565-1.814 4.871-1.814 4.7C8.944 9.508 16.288 6.985 22.42 7.071c2.591.086 4.146.69 4.748 1.034-.085.435-1.123 3.393-1.208 3.741.952 0 6.652-.61 8.81-.61 9.504.176 12.958 5.654 13.564 9.57.2 1.324.258 2.665.171 4a26.912 26.912 0 00-.342-10.178" fill="#fff"/><path d="M47.973 13.237c-.684-2.872-3.975-8.092-11.404-8.092-2.503 0-7.17.345-8.56.524-.174.607-.342 1.034-.342 1.13 1.208-.089 6.649-.523 8.81-.523 7.429.175 10.798 5.22 11.66 8.35.175.783.261 1.48.432 2.262a24.51 24.51 0 00-.596-3.651zM28.8 3.493c.171-.434.257-.869.342-1.034-.605-.52-2.245-1.38-4.666-1.48-6.047-.085-13.302 2.697-17.88 6.09-.12.385-.264.763-.43 1.13 4.577-3.392 11.918-6.26 17.964-6.088 2.506.086 4.06.69 4.667 1.379m13.144 28.968c.863-.52 1.712-1.827 1.37-2a19.433 19.433 0 00-2.677-.958c.26-.869-.863-1.38-3.11-2.172-.17-.872-1.554-1.828-2.677-.959-1.554-.869-5.79-2.261-7.946-2.52-.175.345-.52.955-1.209 1.034-3.283.524-6.567-1.379-11.576-1.217-3.89.176-8.121 4.262-7.43 9.22.521.175 1.124.69.863 1.306-.26.618-.684 1.218-1.294 2.697-.517 1.479-1.294 4.696.343 6.957h4.406c.086-.344.086-1.565-.435-1.651a1.2 1.2 0 01-.62-.514 1.214 1.214 0 01-.157-.793c.175-.69.777-1.217 2.075-1.824-.26-.958-.863-2.003-.952-2.348.52-.09 3.283 5.13 3.63 5.74a3.942 3.942 0 001.554 1.38h4.837c0-.52-.085-1.651-.606-1.827-.684-.173-1.468-.087-1.64-.87-.17-.782.343-1.723.517-2.957 1.027-.345 2.592-.259 3.198-.345-.52 1.651-.342 3.913-.26 4.696.086.258.777.955 1.712 1.303h4.838c0-.434-.175-1.724-.685-1.724-1.212-.09-1.9-.61-1.9-1.13.085-.611.777-1.307 1.811-2.263.435-.344 1.643-2 2.16-1.74-.602.434-.948 1.306-1.294 1.913.517 1.565 2.849 4.089 4.318 4.958h4.838c-.086-.52-.432-1.724-1.295-1.828-1.208-.258-1.814-.434-2.246-1.034-.342-.61-.606-2.61-1.027-3.74-.777-1.656-.863-2.349-.086-2.783.222.528.512 1.024.863 1.475 1.298-.172 4.06-1.034 4.407-1.823.863.086 1.712.086 2.157-.09.089 0 .777-.869.606-1.034-.086-.09-.26-.09-.517-.09.39-.1.767-.246 1.123-.434" fill="#004994"/><path d="M39.696 30.286c-.26 0-1.123.607-1.37.607-.26-.262-1.027-1.38 1.37-1.13.342 0 .086-.346-.175-.522a17.203 17.203 0 00-2.677-.958c-.26-1.034-1.469-1.48-1.815-.259a24.822 24.822 0 00-6.649-2.351c-.26.176-.342 1.034-1.814 1.307-1.815.345-5.444-.783-9.587-1.307-4.143-.524-7.426 1.569-7.858 5.392.949-.172 2.935-.258 4.232 1.48 3.972 5.047 3.195 6.874 3.886 7.24.777-1.741 1.986-5.654.777-8.006.432-.172 1.123.435 1.815 1.034a4.45 4.45 0 003.194 1.307c.435-1.655 2.335-3.306 2.853-3.22a15.821 15.821 0 00-2.075 4.785c-.778 2.435-.517 5.217 0 5.307.325-1.511.91-2.953 1.729-4.262 1.9-3.044 5.53-5.658 8.217-5.047a2.689 2.689 0 00-1.555 1.306 3.42 3.42 0 011.986 1.217c.952-.872 2.763-.69 3.975-1.217a.768.768 0 01.39-.784.754.754 0 01.295-.088c.777-.086 1.815.262 2.506-.086.26-.173.863-.869.863-1.303-.257-.176-1.37-.435-2.503-.435" fill="#fff"/><path d="M72.707 4.836h-8.162v2.22h6.497c0 2.455-.238 4.169-.951 4.169h-5.518v2.24h8.162v4.675H58.542V.414h14.165v4.422zm11.034.253a21.024 21.024 0 01-1.902 8.103h4.071V5.09h-2.169zm4.757 15.72V18.11h-8.885v2.698h-5.28v-7.617c.41-.043.814-.125 1.208-.243 1.199-.497 2.16-1.948 2.635-4.179a37.1 37.1 0 00.952-8.356h12.718v13.051h2.16v7.373l-5.508-.03zm19.965-2.699V9.015s-3.805 5.162-4.556 6.633c-.485.974-1.446 2.464-3.12 2.464h-4.32V.414h5.518V10.98s5.042-7.616 6.241-9.33c.29-.37.654-.671 1.067-.885a3.187 3.187 0 011.33-.352h3.596V18.11h-5.756zm14.644-11.552h5.517V.422h6.003v17.687h-6.24v-6.633h-5.28v6.633h-6.002V.422h6.002v6.136zm20.878 4.18h3.596l-1.674-6.389-1.922 6.39zm12.243 7.373h-6.488l-1.198-3.672h-5.28l-.951 3.692h-6.716l6.24-17.697h7.915l6.478 17.677z" fill="#0A80F9"/><path d="M165.106 4.105a2.283 2.283 0 00-1.684.487 1.335 1.335 0 00-.528.51c-.126.217-.19.465-.186.718-.036.29.012.587.139.85.127.264.327.483.575.63a4.466 4.466 0 001.684.487h1.683V4.105h-1.683zm1.436 14.006v-6.886c-.713 0-1.674.253-1.902.974-.229.72-1.446 3.438-1.684 4.422-.476 1.237-.723 1.48-1.437 1.48h-5.812l1.684-3.896a10.129 10.129 0 012.397-3.681c.51-.41 1.077-.74 1.684-.974a5.62 5.62 0 01-2.854-.974 3.97 3.97 0 01-1.273-1.498 4.086 4.086 0 01-.411-1.94 4.24 4.24 0 01.376-1.762 4.141 4.141 0 011.07-1.433 7.423 7.423 0 014.757-1.48h9.36V18.16l-5.955-.049zm-19.673 26.044V33.841s-4.081 6.136-5.042 7.616c-1.199 1.948-1.902 2.698-3.605 2.698h-4.557V24.987h6.241v7.87l-.238 2.922s5.755-7.616 6.716-9.33a2.878 2.878 0 011.205-1.189 2.795 2.795 0 011.648-.292h3.806l-.191 19.187h-5.983zM164.38 28.92a4.37 4.37 0 00-1.674.488 1.74 1.74 0 00-.543.647 1.788 1.788 0 00-.18.833 2.067 2.067 0 00.485 1.47 3.454 3.454 0 002.16.498h1.674V28.96l-1.922-.04zm1.684 15.234V36.78a2.564 2.564 0 00-1.193.223c-.375.17-.706.427-.966.75-.238.74-1.437 3.692-1.903 4.92-.466 1.226-.723 1.47-1.436 1.47h-6.241l1.903-4.178a7.953 7.953 0 012.397-3.896 6.782 6.782 0 011.903-1.237 7.142 7.142 0 01-3.121-.974 3.419 3.419 0 01-1.431-1.564 3.519 3.519 0 01-.252-2.128 4.597 4.597 0 01.301-2.011 4.504 4.504 0 011.135-1.67 8.241 8.241 0 015.042-1.48h10.34v19.167l-6.478-.02zM65.02 34.085h1.684a2.074 2.074 0 001.541-.633c.202-.207.361-.453.467-.724.106-.272.158-.562.151-.854 0-.974-.237-2.464-2.159-2.464H65.02v4.675zm1.208-9.097c1.903 0 5.033 0 6.716 1.724a6.037 6.037 0 011.7 2.309c.377.899.534 1.878.46 2.853a6.86 6.86 0 01-.47 2.656 6.734 6.734 0 01-1.451 2.253 6.553 6.553 0 01-2.2 1.487 6.43 6.43 0 01-2.595.48H65.02v5.406h-6.478V24.988h7.686zm19.921 4.665c-2.854 0-3.12 3.204-3.12 4.918s.238 4.675 3.12 4.675c2.635 0 3.12-2.707 3.12-4.431-.247-3.438-1.684-5.162-3.12-5.162zm7.201-1.948a10.708 10.708 0 012.635 6.876c0 4.675-2.635 9.827-10.083 9.827a10.3 10.3 0 01-6.716-2.21 10.584 10.584 0 01-2.176-3.515 10.774 10.774 0 01-.678-4.102c-.238-5.893 3.605-9.828 9.846-9.828 2.853 0 5.517.74 7.438 2.922l-.266.03zm19.918 2.942a14.429 14.429 0 00-3.805-.497c-3.12 0-5.042 1.948-5.042 4.422 0 2.474 1.199 4.422 4.804 4.422 1.902 0 3.596-.244 4.081-.244l.713 5.162a41.789 41.789 0 01-6.24.487c-5.993 0-10.56-3.681-10.56-9.827.239-6.136 3.806-9.827 10.798-9.827a19.431 19.431 0 016.24.74l-.989 5.162zm17.516 0a14.888 14.888 0 00-4.081-.497c-3.12 0-5.042 1.948-5.042 4.422 0 2.474 1.208 4.422 5.042 4.422 1.683 0 3.367-.244 4.081-.244l.485 5.162a39.666 39.666 0 01-6.003.487c-6.24 0-10.559-3.681-10.559-9.827s3.805-9.828 10.559-9.828a21.13 21.13 0 016.478.74l-.96 5.163z" fill="#0A80F9"/></svg>