<svg width="295" height="99" fill="none" xmlns="http://www.w3.org/2000/svg"><rect width="294.5" height="99" rx="49.5" fill="#291F2F"/><path d="M107.229 54.147c-1.294-5.299-5.876-12.944-19.97-12.944-2.937 0-10.708.821-12.105.821.121-.466 1.528-4.473 1.765-5.06-.931-.467-3.408-.934-6.933-1.06-8.222-.233-18.204 3.298-24.429 7.888-.708 2.117-1.997 5.41-2.822 7.412 6.463-3.415 15.975-6.941 23.28-7.65 4.93-.467 6.811.466 7.398.826.587.233-4.227 1.865-4.111 3.764 0 2.355 9.866-.233 16.328 0 11.174.354 16.091 4.235 17.856 9.767 2.23 6.829-1.765 13.415-6.696 15.887 6.104-1.53 12.683-10.355 10.453-19.651" fill="#E30613"/><path d="M69.993 35.904c3.525.122 5.992.588 6.933 1.06-.238.587-1.644 4.59-1.765 5.06 1.397 0 9.163-.82 12.105-.82 14.094 0 18.675 7.644 19.97 12.943.323 1.428.479 2.888.465 4.352.82-3.88.82-8.587.354-11.195-.824-5.299-5.522-12.71-18.447-12.948-2.933 0-10.685.825-11.98.825.117-.466 1.528-4.473 1.644-5.06-.82-.467-2.933-1.297-6.458-1.4-8.338-.116-18.325 3.298-24.55 7.888a117.114 117.114 0 01-2.7 7.178c6.224-4.59 16.207-8.12 24.43-7.887" fill="#009FE3"/><path d="M107.816 38.965c-1.173-4.236-5.754-11.06-15.858-11.298-2.938 0-10.336.588-11.98.71.117-.355 1.29-3.886 1.528-4.474-.708-.933-2.822-1.768-6.346-1.866-8.339-.233-18.205 3.531-24.43 8.238-.707 2.117-2.467 6.59-2.467 6.357 6.225-4.59 16.212-8.004 24.55-7.887 3.525.116 5.639.932 6.458 1.399-.116.588-1.527 4.59-1.644 5.06 1.295 0 9.047-.825 11.98-.825 12.925.238 17.623 7.65 18.447 12.949.272 1.79.35 3.604.233 5.41a36.22 36.22 0 00-.466-13.769" fill="#fff"/><path d="M107.563 37.085c-.931-3.886-5.405-10.948-15.509-10.948-3.403 0-9.749.467-11.64.71-.237.82-.465 1.399-.465 1.53 1.644-.122 9.042-.71 11.98-.71 10.103.238 14.684 7.062 15.858 11.298.237 1.058.354 2 .586 3.06a32.884 32.884 0 00-.81-4.94zM81.49 23.903c.233-.588.35-1.175.466-1.4-.824-.704-3.055-1.865-6.346-2-8.222-.117-18.088 3.647-24.313 8.237a13.22 13.22 0 01-.587 1.53c6.225-4.59 16.207-8.47 24.43-8.237 3.408.116 5.521.932 6.346 1.865M99.36 63.089c1.174-.705 2.329-2.473 1.863-2.706a26.478 26.478 0 00-3.64-1.297c.353-1.175-1.174-1.865-4.228-2.938-.233-1.18-2.114-2.472-3.641-1.297-2.114-1.175-7.873-3.06-10.807-3.41-.237.467-.707 1.292-1.643 1.4-4.465.709-8.93-1.866-15.742-1.647-5.289.238-11.044 5.765-10.103 12.473.708.238 1.527.933 1.173 1.768-.354.835-.93 1.646-1.76 3.647-.703 2.002-1.76 6.353.466 9.413h5.992c.117-.466.117-2.117-.591-2.234a1.63 1.63 0 01-1.057-1.768c.237-.933 1.057-1.646 2.821-2.467-.354-1.297-1.173-2.71-1.294-3.177.708-.121 4.465 6.94 4.935 7.766a5.352 5.352 0 002.114 1.866h6.579c0-.704-.117-2.234-.824-2.472-.931-.233-1.998-.117-2.23-1.175-.233-1.06.465-2.333.703-4.002 1.396-.467 3.524-.35 4.348-.467-.707 2.234-.465 5.294-.354 6.353.117.35 1.057 1.292 2.328 1.763h6.58c0-.587-.238-2.332-.932-2.332-1.648-.121-2.584-.826-2.584-1.53.116-.826 1.057-1.768 2.463-3.06.591-.466 2.235-2.705 2.938-2.355-.82.587-1.29 1.768-1.76 2.589.703 2.117 3.874 5.531 5.87 6.707h6.58c-.117-.704-.587-2.332-1.76-2.472-1.644-.35-2.468-.588-3.055-1.4-.465-.825-.824-3.53-1.396-5.06-1.057-2.24-1.174-3.177-.117-3.765A8.752 8.752 0 0088.77 67.8c1.764-.233 5.521-1.4 5.992-2.468 1.173.117 2.328.117 2.933-.121.121 0 1.057-1.175.824-1.4-.116-.12-.354-.12-.703-.12a6.98 6.98 0 001.527-.588" fill="#004994"/><path d="M96.307 60.15c-.354 0-1.527.821-1.863.821-.353-.354-1.396-1.865 1.863-1.53.465 0 .116-.466-.238-.704a23.47 23.47 0 00-3.64-1.297c-.355-1.4-1.998-2-2.468-.35a33.87 33.87 0 00-9.042-3.18c-.354.237-.466 1.399-2.468 1.767-2.467.467-7.402-1.059-13.036-1.768-5.634-.709-10.099 2.123-10.685 7.296 1.29-.234 3.99-.35 5.754 2 5.401 6.83 4.344 9.301 5.285 9.796 1.057-2.356 2.7-7.65 1.057-10.831.586-.233 1.527.588 2.467 1.4a6.054 6.054 0 004.344 1.767c.591-2.239 3.175-4.473 3.879-4.356a21.346 21.346 0 00-2.822 6.474c-1.057 3.293-.703 7.057 0 7.178a17.977 17.977 0 012.351-5.765c2.584-4.119 7.52-7.654 11.174-6.829a3.652 3.652 0 00-2.113 1.768 4.655 4.655 0 012.7 1.647c1.294-1.18 3.757-.933 5.406-1.647a1.032 1.032 0 01.93-1.18c1.058-.117 2.468.355 3.409-.117.354-.233 1.173-1.175 1.173-1.763-.349-.237-1.862-.587-3.403-.587" fill="#fff"/><path d="M135.289 29.525h-9.522v2.523h7.58c0 2.79-.278 4.737-1.11 4.737H125.8v2.546h9.522v5.313h-16.558V24.5h16.525v5.025zm12.875.288a23.38 23.38 0 01-2.22 9.208h4.75v-9.208h-2.53zm5.549 17.863V44.61h-10.366v3.066h-6.159v-8.655a7.9 7.9 0 001.409-.277c1.398-.564 2.519-2.213 3.074-4.748a41.152 41.152 0 001.11-9.496h14.838v14.831h2.519v8.378l-6.425-.033zm23.292-3.066V34.273s-4.44 5.866-5.317 7.537c-.566 1.107-1.686 2.8-3.64 2.8h-5.038V24.5h6.437v12.009s5.882-8.655 7.28-10.603a3.78 3.78 0 012.797-1.406h4.195v20.11h-6.714zm17.084-13.127h6.437v-6.972h7.003v20.1h-7.281v-7.538h-6.159v7.537h-7.003v-20.1h7.003v6.973zm24.358 4.749h4.195l-1.953-7.26-2.242 7.26zm14.283 8.378h-7.569l-1.398-4.172h-6.16l-1.109 4.194h-7.836l7.281-20.11h9.233l7.558 20.088z" fill="#0A80F9"/><path d="M243.086 28.694a2.712 2.712 0 00-1.964.554 1.537 1.537 0 00-.833 1.394 1.691 1.691 0 00.833 1.682c.612.31 1.28.498 1.964.554h1.964v-4.184h-1.964zm1.676 15.916v-7.825c-.832 0-1.953.288-2.22 1.107-.266.819-1.687 3.907-1.964 5.025-.555 1.405-.844 1.682-1.676 1.682h-6.781l1.964-4.427a11.493 11.493 0 012.797-4.184 7.424 7.424 0 011.965-1.107 6.672 6.672 0 01-3.33-1.106 4.53 4.53 0 01-1.964-3.907 4.696 4.696 0 011.687-3.63 8.818 8.818 0 015.549-1.683h10.92v20.11l-6.947-.055zM221.81 74.206V62.485s-4.761 6.972-5.882 8.655c-1.398 2.213-2.219 3.066-4.206 3.066h-5.316V52.424h7.281v8.943l-.278 3.32s6.715-8.655 7.835-10.603a3.335 3.335 0 013.33-1.682h4.439l-.222 21.804h-6.981zm20.432-17.311a5.204 5.204 0 00-1.953.554 1.998 1.998 0 00-.843 1.682 2.288 2.288 0 00.566 1.671 4.11 4.11 0 002.519.565h1.953V56.94l-2.242-.045zm1.965 17.31v-8.378a3.058 3.058 0 00-2.519 1.107c-.278.841-1.676 4.195-2.22 5.59-.544 1.394-.844 1.67-1.676 1.67h-7.28l2.219-4.748a9.009 9.009 0 012.797-4.427 7.927 7.927 0 012.22-1.405 8.481 8.481 0 01-3.64-1.107 3.92 3.92 0 01-1.965-4.195 5.115 5.115 0 011.676-4.184 9.797 9.797 0 015.882-1.682h12.064v21.782l-7.558-.022zM126.322 62.762h1.964a2.47 2.47 0 002.343-1.542c.124-.309.184-.639.176-.97 0-1.107-.277-2.8-2.519-2.8h-1.964v5.312zm1.409-10.338c2.22 0 5.871 0 7.835 1.96a6.866 6.866 0 012.52 5.866 7.627 7.627 0 01-2.241 5.579 7.664 7.664 0 01-5.595 2.234h-3.928v6.143h-7.558V52.424h8.967zm23.24 5.302c-3.329 0-3.64 3.641-3.64 5.589 0 1.948.278 5.313 3.64 5.313 3.075 0 3.641-3.077 3.641-5.036-.289-3.907-1.965-5.866-3.641-5.866zm8.402-2.214a11.996 11.996 0 013.074 7.814c0 5.313-3.074 11.167-11.764 11.167a12.232 12.232 0 01-7.836-2.512 11.975 11.975 0 01-3.329-8.655c-.277-6.696 4.206-11.168 11.487-11.168 3.329 0 6.437.842 8.678 3.32l-.31.034zm23.238 3.342a17.257 17.257 0 00-4.439-.564c-3.64 0-5.882 2.213-5.882 5.025 0 2.81 1.398 5.024 5.605 5.024 2.219 0 4.195-.276 4.761-.276l.832 5.866c-2.41.36-4.843.546-7.28.553-6.992 0-12.319-4.183-12.319-11.167.277-6.973 4.439-11.168 12.596-11.168a23.24 23.24 0 017.28.841l-1.154 5.866zm20.434 0a17.8 17.8 0 00-4.761-.564c-3.64 0-5.882 2.213-5.882 5.025 0 2.81 1.409 5.025 5.882 5.025 1.964 0 3.929-.277 4.761-.277l.566 5.866a47.452 47.452 0 01-7.003.553c-7.28 0-12.319-4.183-12.319-11.167s4.439-11.168 12.319-11.168a25.282 25.282 0 017.558.841l-1.121 5.866z" fill="#0A80F9"/></svg>