<svg width="27" height="27" fill="none" xmlns="http://www.w3.org/2000/svg"><path d="M24.75 3.375H2.25C1.01 3.375 0 4.385 0 5.625v15.75c0 1.24 1.01 2.25 2.25 2.25h22.5c1.24 0 2.25-1.01 2.25-2.25V5.625c0-1.24-1.01-2.25-2.25-2.25zM2.25 4.5h22.5c.083 0 .156.03.234.047a3013.914 3013.914 0 01-10.668 9.729c-.177.159-.462.349-.816.349-.354 0-.64-.19-.817-.35-2.26-2.036-8.72-7.945-10.667-9.728.078-.017.151-.047.234-.047zM1.125 21.375V5.625c0-.11.033-.21.063-.31 1.49 1.364 5.998 5.487 8.92 8.144-2.913 2.502-7.42 6.776-8.924 8.21-.026-.096-.059-.19-.059-.294zM24.75 22.5H2.25c-.09 0-.17-.031-.254-.051 1.553-1.48 6.09-5.78 8.952-8.227.373.338.713.647.982.889.464.418 1.006.639 1.57.639.564 0 1.106-.22 1.57-.639.268-.242.61-.55.982-.89 2.862 2.448 7.398 6.747 8.952 8.228-.084.02-.164.051-.254.051zm1.125-1.125c0 .104-.033.198-.06.293-1.503-1.434-6.01-5.707-8.923-8.209 2.922-2.657 7.429-6.78 8.92-8.145.03.1.063.2.063.311v15.75z" fill="#fff"/></svg>