<svg width="172" height="37" fill="none" xmlns="http://www.w3.org/2000/svg"><path d="M71.454 15.104c-.308-1.091-.92-3.205-4.14-3.205-1.871 0-4.7 1.295-4.7 6.392 0 3.237 1.414 6.236 4.7 6.236 2.162 0 3.679-1.263 4.14-3.477h3.887c-.77 3.933-3.42 6.666-8.098 6.666-4.96 0-8.51-3.263-8.51-9.477 0-6.318 3.756-9.523 8.558-9.523 5.584 0 7.838 3.728 8.05 6.388h-3.886zm8.647 3.836l4.57-5.076h4.45l-4.858 5.17 4.988 8.213h-4.348l-3.296-5.748-1.506 1.52v4.228h-3.627V13.864h3.627v5.076z" fill="#BFDF14"/><path d="M102.517 20.527c0 4.824-3.344 7.069-7.046 7.069-3.697 0-7.069-2.212-7.069-7.038 0-4.829 3.372-7.043 7.069-7.043 3.702 0 7.046 2.188 7.046 7.012zm-10.386 0c0 1.715.537 4.1 3.34 4.1 2.802 0 3.317-2.359 3.317-4.069 0-1.72-.514-4.08-3.317-4.08s-3.34 2.334-3.34 4.05zm24.013-6.664v13.383h-3.626V16.679h-3.881v4.127c0 5.118-1.593 6.733-4.141 6.733-.634 0-1.669-.1-2.206-.293v-2.617c.075.052.537.1 1.073.1 1.089 0 1.653-.52 1.653-4.595v-6.271h11.128zm5.477 5.077l4.569-5.076h4.451l-4.863 5.17 4.993 8.213h-4.348l-3.29-5.748-1.512 1.52v4.228h-3.626V13.864h3.626v5.076z" fill="#BFDF14"/><path d="M144.038 20.527c0 4.824-3.338 7.069-7.041 7.069-3.702 0-7.068-2.212-7.068-7.038 0-4.829 3.366-7.043 7.068-7.043 3.703 0 7.041 2.188 7.041 7.012zm-10.379 0c0 1.715.536 4.1 3.338 4.1 2.791 0 3.323-2.359 3.323-4.069 0-1.72-.532-4.08-3.323-4.08-2.802 0-3.338 2.334-3.338 4.05zm11.556-6.664h6.245c3.089 0 5.349 1.223 5.349 3.457 0 1.541-1.133 2.532-2.575 2.883 1.414.327 2.986 1.201 2.986 3.39 0 2.479-1.94 3.654-5.073 3.654h-6.932V13.863zm3.62 5.418h2.364c1.203 0 2.055-.466 2.055-1.515 0-1.092-.82-1.49-2.028-1.49h-2.391v3.005zm0 5.554h2.667c1.339 0 2.169-.399 2.169-1.72 0-1.17-.873-1.71-2.211-1.71h-2.625v3.43zm22.898-4.308c0 4.824-3.334 7.069-7.041 7.069-3.698 0-7.075-2.212-7.075-7.038 0-4.829 3.377-7.043 7.075-7.043 3.707 0 7.041 2.188 7.041 7.012zm-10.386 0c0 1.715.546 4.1 3.345 4.1 2.802 0 3.312-2.359 3.312-4.069 0-1.72-.51-4.08-3.312-4.08-2.799 0-3.345 2.334-3.345 4.05zM15.02 36.716c1.832 0 6.344-.318 9.715-2.762v1.854h6.803l.007-8.15 2.841-2.918 6.184 11.068h8.162l-9.368-15.814 9.125-9.967h-8.356l-8.588 9.779V1.02h-6.81v2.972C22.662 1.782 19.301.112 14.06.112 2.713.111.583 6.961.583 10.795c0 5.268 2.854 8.196 7.826 9.393l7.048 1.722c3.718.912 6.376 1.581 6.376 4.312 0 3.643-3.866 4.504-7.343 4.504-6.374 0-7.434-3.688-7.434-5.652H.053c0 4.312 2.22 11.641 14.966 11.641zm4.637-20.744l-8.542-2.064c-1.452-.334-3.722-.912-3.722-3.639 0-3.116 3.333-4.171 6.133-4.171 6.373 0 6.954 3.693 7.144 5.272h4.065v6.484c-1.491-.864-3.252-1.426-5.078-1.882z" fill="#BFDF14"/></svg>