<svg width="295" height="99" fill="none" xmlns="http://www.w3.org/2000/svg"><rect x=".5" width="294.5" height="99" rx="49.5" fill="#291F2F"/><path d="M109.009 75.494c-.273-.995-.815-2.924-3.664-2.924-1.656 0-4.159 1.182-4.159 5.832 0 2.952 1.251 5.688 4.159 5.688 1.913 0 3.255-1.152 3.664-3.171h3.439c-.681 3.587-3.026 6.081-7.166 6.081-4.389 0-7.531-2.977-7.531-8.646 0-5.764 3.323-8.687 7.574-8.687 4.941 0 6.935 3.4 7.123 5.827h-3.439zm7.652 3.499l4.043-4.63h3.939l-4.299 4.716 4.414 7.492h-3.848l-2.916-5.244-1.333 1.388v3.856h-3.209V74.362h3.209v4.631z" fill="#BFDF14"/><path d="M136.498 80.443c0 4.4-2.96 6.448-6.237 6.448-3.271 0-6.255-2.017-6.255-6.42 0-4.406 2.984-6.426 6.255-6.426 3.277 0 6.237 1.996 6.237 6.398zm-9.192 0c0 1.564.476 3.74 2.955 3.74 2.481 0 2.936-2.152 2.936-3.712 0-1.569-.455-3.722-2.936-3.722-2.479 0-2.955 2.129-2.955 3.694zm21.252-6.082v12.21h-3.21v-9.64h-3.434v3.764c0 4.67-1.41 6.143-3.664 6.143-.561 0-1.478-.09-1.953-.268v-2.387c.067.047.475.091.95.091.964 0 1.463-.474 1.463-4.191V74.36h9.848zm4.847 4.632l4.044-4.63h3.938l-4.303 4.716 4.418 7.492h-3.847l-2.912-5.244-1.338 1.388v3.856h-3.209V74.362h3.209v4.631z" fill="#BFDF14"/><path d="M173.242 80.443c0 4.4-2.954 6.448-6.231 6.448-3.276 0-6.255-2.017-6.255-6.42 0-4.406 2.979-6.426 6.255-6.426 3.277 0 6.231 1.996 6.231 6.398zm-9.185 0c0 1.564.475 3.74 2.954 3.74 2.47 0 2.941-2.152 2.941-3.712 0-1.569-.471-3.722-2.941-3.722-2.479 0-2.954 2.129-2.954 3.694zm10.227-6.081h5.526c2.734 0 4.733 1.115 4.733 3.153 0 1.406-1.002 2.31-2.278 2.63 1.251.299 2.642 1.096 2.642 3.093 0 2.261-1.716 3.334-4.489 3.334h-6.134v-12.21zm3.203 4.943h2.092c1.065 0 1.819-.426 1.819-1.383 0-.996-.726-1.359-1.795-1.359h-2.116v2.742zm0 5.066h2.36c1.186 0 1.92-.363 1.92-1.57 0-1.066-.773-1.56-1.957-1.56h-2.323v3.13zm20.263-3.928c0 4.4-2.95 6.448-6.231 6.448-3.273 0-6.261-2.017-6.261-6.42 0-4.406 2.988-6.426 6.261-6.426 3.281 0 6.231 1.996 6.231 6.398zm-9.191 0c0 1.564.483 3.74 2.96 3.74 2.479 0 2.931-2.152 2.931-3.712 0-1.569-.452-3.722-2.931-3.722-2.477 0-2.96 2.129-2.96 3.694zm-67.478-13.536c2.735 0 9.469-.478 14.501-4.143v2.78h10.154l.011-12.224 4.239-4.377 9.23 16.601h12.183l-13.982-23.72 13.618-14.95h-12.471l-12.817 14.668v-28.18h-10.165v4.459C132.488 14.507 127.471 12 119.647 12c-16.933 0-20.113 10.275-20.113 16.026 0 7.903 4.26 12.295 11.68 14.09l10.52 2.583c5.549 1.368 9.516 2.372 9.516 6.469 0 5.463-5.77 6.755-10.96 6.755-9.513 0-11.095-5.532-11.095-8.477H98.743c0 6.467 3.314 17.461 22.338 17.461zm6.922-31.116l-12.75-3.096c-2.167-.502-5.555-1.368-5.555-5.458 0-4.674 4.975-6.257 9.153-6.257 9.512 0 10.381 5.539 10.663 7.907h6.068v9.727c-2.226-1.297-4.854-2.139-7.579-2.823z" fill="#BFDF14"/></svg>