<svg width="331" height="65" fill="none" xmlns="http://www.w3.org/2000/svg"><g clip-path="url(#clip0_61_4441)"><path d="M31.05 4.347c-3.556 0-7.974 2.197-9.62 3.744l.647 1.47s-5.014.067-7.597 1.73c-2.584 1.663-3.763 2.794-5.035 5.48-1.274.062-6.052 2.09-8.819 4.128 0 0-2.326 8.804 2.08 12.604L-.076 37.32c.701 2.404 3.73 4.846 6.739 5.137 1.354 1.641-1.272 4.901-1.272 4.901 1.111 3.53 8.597 7.409 13.068 7.409l-.616 2.078s4.98 3.626 13.016 3.287c6.793.22 12.318-1.402 13.72-3.287l-.71-2.078c6.204-.925 10.89-2.948 13.498-7.242 0 0-1.942-4.081-1.264-5.106 3.01-.29 5.824-3.255 6.572-4.55l-2.73-4.297c2.178-2.445 3.396-8.897 1.796-12.673-2.767-2.039-7.498-3.696-8.772-3.757-.506-2.983-3.752-5.315-3.752-5.315-3.073-2.673-8.664-2.266-8.664-2.266l.455-1.47c-1.425-1.59-5.925-3.744-9.96-3.744z" fill="#fff"/><path d="M22.758 12.696c-3.558-.906-6.24.334-8.56 2.04-2.325 1.71-3.243 3.926-3.039 4.72-1.901-.779-6.076 1.636-8.063 2.794 0 0-1.538 7.522 2.393 10.433-.204 2.044-1.646 4.496-2.393 4.955 1.295 2.044 4.041 2.604 5.204 2.084 1.944 2.692 1.005 6.339-.075 7.502 3.021 2.728 10.23 3.872 12.341 4.043 0 0-1.858-4.357-2.688-7.946-2.294-9.92-1.06-22.299-1.06-22.299s-5.357 6.237-2.37 21.272a97.935 97.935 0 001.217 5.222c-.497-.246-1.71-.097-3.94-1.225.956-1.028.545-7.13-2.269-10.122 0 0-1.339.617-2.322.208.662-.406 1.487-2.998 1.487-4.982-3.181-1.902-2.844-5.34-2.687-7.148 1.562-1.014 4.362-2.737 7.885-1.232-.093-.854.148-3.125 1.115-4.716 0 0 1.177-2.047 3.835-2.69 2.658-.642 3.99-2.913 3.99-2.913zm17.085 0c3.557-.906 6.24.334 8.56 2.04 2.325 1.71 3.243 3.926 3.039 4.72 1.901-.779 6.076 1.636 8.063 2.794 0 0 1.538 7.522-2.393 10.433.204 2.044 1.646 4.496 2.393 4.956-1.296 2.043-4.042 2.602-5.205 2.083-1.944 2.692-1.004 6.339.076 7.502-3.021 2.728-10.23 3.872-12.341 4.043 0 0 1.858-4.357 2.688-7.946 2.294-9.92 1.06-22.298 1.06-22.298s5.356 6.236 2.37 21.27a97.405 97.405 0 01-1.217 5.223c.497-.246 1.71-.097 3.94-1.225-.956-1.028-.545-7.13 2.269-10.122 0 0 1.339.617 2.321.208-.66-.406-1.486-2.998-1.486-4.982 3.181-1.902 2.844-5.34 2.686-7.148-1.56-1.014-4.361-2.737-7.884-1.232.092-.854-.149-3.125-1.115-4.716 0 0-1.177-2.047-3.835-2.69-2.658-.642-3.99-2.913-3.99-2.913z" fill="#333"/><path fill-rule="evenodd" clip-rule="evenodd" d="M31.59 18.492c-2.56-.01-5.944.672-5.944.672L24.63 9.047l6.838-2.067 6.503 2.067-.557 10.117s-3.304-.663-5.823-.672zm0-2.884c-1.42-.038-3.248.218-3.248.218l-.418-4.793 3.544-.961 3.518.96v4.794s-1.945-.18-3.395-.218zm-.325 41.331c5.92-.07 9.708-1.833 9.708-1.833l-2.314-7.27s-4.966 1.44-7.359 1.442c-2.392-.003-7.28-1.442-7.28-1.442l-2.393 7.27s3.719 1.764 9.638 1.833zm.035-2.426c3.37-.014 5.453-.705 6.583-1.164l-.619-2.491c-1.395.458-3.815.964-5.964.982-2.149-.018-4.584-.396-5.979-.854l-.539 2.363c1.13.459 3.148 1.15 6.518 1.164zm11.983-32.162H19.318c.186.259.941 1.516 1.211 2.242.271.728.47 1.462.48 1.915.007.358.05 1.47.108 2.924v.014c.113 2.883.28 7.122.326 9.625.021 1.105.266 2.57 1.152 3.767.903 1.219 2.426 2.104 4.876 2.104h1.723a.64.64 0 01.38.107c.099.068.19.173.282.323.092.151.189.363.279.564.081.183.173.388.28.574.038.05.186.247.324.336.148.094.333.15.561.15.234 0 .42-.058.57-.15.14-.086.28-.287.32-.336.11-.192.223-.404.304-.591.088-.202.175-.4.266-.551a1 1 0 01.273-.32.622.622 0 01.374-.106h1.723c2.45 0 3.973-.885 4.875-2.104.886-1.198 1.132-2.662 1.152-3.767.047-2.503.213-6.741.326-9.624v-.014c.058-1.454.102-2.567.109-2.925.009-.453.208-1.187.48-1.915.27-.726 1.025-1.983 1.21-2.242zm-19.404 3.393a9.36 9.36 0 00-.091-.44H38.88c-.043.15-.072.301-.094.443a8.74 8.74 0 00-.064.914c-.117 2.95-.353 9.09-.353 12.146 0 1.26-.406 2.075-.944 2.572-.544.502-1.262.716-1.944.694-.091-.003-.273-.006-.468-.01-.26-.003-.541-.008-.654-.013-.687-.032-1.354 0-1.934.159-.421.115-.808.302-1.12.59-.732-.723-1.912-1.041-3.12-.986-.113.005-.423.01-.711.014a26.14 26.14 0 00-.526.01c-1.283.04-2.582-1.023-2.582-3.03 0-3.337-.217-8.939-.328-11.814 0 0-.08-.819-.16-1.249z" fill="#333"/><path d="M23.754 25.304c.032.136.063.287.091.44.08.43.16 1.25.16 1.25.111 2.874.328 8.476.328 11.813 0 2.007 1.3 3.07 2.583 3.03.094-.004.303-.007.525-.01.288-.004.598-.009.711-.014 1.208-.055 2.388.263 3.12.986.313-.288.7-.474 1.12-.59.58-.16 1.247-.19 1.934-.16.113.006.395.01.655.015.194.003.376.006.467.01.682.02 1.4-.193 1.944-.695.538-.497.944-1.311.944-2.572 0-3.055.236-9.197.354-12.146 0 0 .01-.564.063-.914.022-.142.052-.292.094-.443H23.754z" fill="#FFDD2D"/></g><path d="M94.413 44.377v-17.09h10.088v-6.22h-27.52v6.22h10.087v17.09h7.346zm20.128-9.745V21.067h-7.1v23.31h6.268l12.242-13.565v13.565h7.101v-23.31h-6.268l-12.243 13.565zm42.399 1.077v8.668h7.101v-23.31h-7.101v8.52h-11.41v-8.52h-7.1v23.31h7.1v-8.668h11.41zm26.875 8.668c1.616 0 3.085-.147 4.456-.539 3.673-1.028 6.073-4.016 6.073-8.08 0-3.868-2.057-6.562-5.338-7.786-1.567-.588-3.428-.637-5.191-.637h-7.296v-6.268h-7.101v23.31h14.397zm-1.224-11.557c.979 0 1.91 0 2.742.294 1.175.392 1.861 1.37 1.861 2.546 0 1.225-.686 2.253-1.812 2.743-.783.342-1.567.342-2.791.342h-6.072V32.82h6.072zm24.484 2.742l8.472 8.815h9.451l-11.802-12.145 11.361-11.165h-8.912l-8.57 8.766h-1.959v-8.766h-7.101v23.31h7.101v-8.815h1.959zm32.533-15.131c-9.549 0-15.278 5.386-15.278 12.34s5.729 12.34 15.278 12.34c9.5 0 15.23-5.386 15.23-12.34s-5.73-12.34-15.23-12.34zm0 19c-4.75 0-7.786-2.84-7.786-6.66 0-3.82 3.036-6.611 7.786-6.611 4.701 0 7.787 2.791 7.787 6.61 0 3.82-3.086 6.661-7.787 6.661zm38.877-19.686h-7.1v2.35c-8.913.197-14.251 3.967-14.251 10.627s5.338 10.137 14.251 10.333v2.35h7.1v-2.35c8.962-.196 14.299-3.673 14.299-10.333s-5.337-10.43-14.299-10.626v-2.35zm-7.1 18.315c-4.897-.196-7.052-2.204-7.052-5.338s2.155-5.387 7.052-5.582v10.92zm7.1-10.92c4.946.195 7.052 2.448 7.052 5.582s-2.106 5.142-7.052 5.338V27.14zm37.923-7.395h-7.101v2.35c-8.912.197-14.25 3.967-14.25 10.627s5.338 10.137 14.25 10.333v2.35h7.101v-2.35c8.96-.196 14.299-3.673 14.299-10.333s-5.339-10.43-14.299-10.626v-2.35zm-7.101 18.315c-4.897-.196-7.051-2.204-7.051-5.338s2.154-5.387 7.051-5.582v10.92zm7.101-10.92c4.946.195 7.051 2.448 7.051 5.582s-2.105 5.142-7.051 5.338V27.14z" fill="#fff"/><defs><clipPath id="clip0_61_4441"><path fill="#fff" transform="translate(0 .5)" d="M0 0h64.15v64.15H0z"/></clipPath></defs></svg>