<svg width="447" height="76" fill="none" xmlns="http://www.w3.org/2000/svg"><rect width="447" height="76" rx="38" fill="#291F2F"/><g clip-path="url(#clip0_61_3946)"><path d="M108.379 10.454c-3.587 0-8.043 2.216-9.704 3.776l.653 1.484s-5.058.067-7.664 1.745c-2.607 1.678-3.795 2.819-5.079 5.529-1.285.06-6.105 2.106-8.896 4.163 0 0-2.346 8.881 2.097 12.714l-2.805 3.85c.708 2.425 3.763 4.889 6.799 5.183 1.366 1.655-1.284 4.944-1.284 4.944 1.122 3.56 8.673 7.474 13.183 7.474l-.62 2.096s5.022 3.658 13.129 3.316c6.852.222 12.426-1.414 13.84-3.316l-.716-2.096c6.259-.933 10.986-2.974 13.616-7.305 0 0-1.958-4.118-1.275-5.151 3.036-.294 5.875-3.284 6.63-4.59l-2.754-4.335c2.196-2.467 3.426-8.976 1.811-12.784-2.791-2.057-7.563-3.729-8.848-3.79-.51-3.01-3.785-5.361-3.785-5.361-3.1-2.697-8.74-2.286-8.74-2.286l.459-1.484c-1.438-1.603-5.978-3.776-10.047-3.776z" fill="#fff"/><path d="M100.015 18.876c-3.589-.914-6.294.337-8.635 2.058-2.346 1.725-3.271 3.96-3.066 4.76-1.918-.784-6.13 1.651-8.134 2.82 0 0-1.551 7.588 2.414 10.524-.206 2.061-1.66 4.536-2.414 4.999 1.307 2.061 4.077 2.626 5.25 2.102 1.962 2.715 1.014 6.394-.075 7.567 3.047 2.752 10.32 3.906 12.449 4.078 0 0-1.875-4.394-2.712-8.015-2.314-10.007-1.068-22.494-1.068-22.494s-5.405 6.291-2.392 21.458a98.756 98.756 0 001.227 5.268c-.5-.248-1.724-.098-3.973-1.236.963-1.037.549-7.191-2.29-10.211 0 0-1.35.623-2.342.21.667-.41 1.5-3.024 1.5-5.026-3.21-1.918-2.869-5.386-2.71-7.21 1.575-1.022 4.4-2.76 7.954-1.243-.094-.86.15-3.152 1.124-4.757 0 0 1.188-2.065 3.869-2.713 2.681-.648 4.024-2.939 4.024-2.939zm17.234 0c3.589-.914 6.295.337 8.636 2.058 2.345 1.725 3.271 3.96 3.065 4.761 1.918-.785 6.13 1.65 8.134 2.818 0 0 1.552 7.589-2.414 10.525.206 2.061 1.66 4.536 2.414 4.999-1.307 2.061-4.077 2.626-5.25 2.102-1.961 2.715-1.014 6.394.076 7.567-3.048 2.752-10.32 3.906-12.45 4.078 0 0 1.875-4.394 2.712-8.015 2.314-10.007 1.069-22.494 1.069-22.494s5.404 6.291 2.392 21.458c-.509 2.561-1.228 5.268-1.228 5.268.501-.248 1.725-.098 3.974-1.236-.964-1.037-.55-7.191 2.289-10.21 0 0 1.351.622 2.342.21-.667-.41-1.5-3.025-1.5-5.026 3.21-1.919 2.869-5.387 2.71-7.21-1.575-1.023-4.399-2.762-7.953-1.244.093-.86-.15-3.152-1.125-4.756 0 0-1.187-2.066-3.868-2.714-2.682-.648-4.025-2.939-4.025-2.939z" fill="#333"/><path fill-rule="evenodd" clip-rule="evenodd" d="M108.925 24.722c-2.584-.009-5.996.679-5.996.679l-1.026-10.206 6.899-2.085 6.559 2.085-.562 10.206s-3.332-.67-5.874-.679zm0-2.909c-1.433-.038-3.277.22-3.277.22l-.421-4.835 3.575-.97 3.549.97v4.836s-1.963-.183-3.426-.221zm-.329 41.694c5.972-.07 9.794-1.85 9.794-1.85l-2.334-7.333s-5.011 1.452-7.424 1.454c-2.413-.002-7.344-1.454-7.344-1.454l-2.414 7.334s3.751 1.779 9.722 1.849zm.036-2.448c3.4-.014 5.501-.711 6.64-1.173l-.624-2.514c-1.407.462-3.848.972-6.016.99-2.168-.018-4.624-.398-6.031-.86l-.544 2.384c1.14.462 3.175 1.16 6.575 1.173zm12.088-32.443H96.545c.187.26.95 1.53 1.222 2.261.273.734.474 1.475.484 1.931.007.362.05 1.484.108 2.95v.015c.115 2.908.283 7.184.33 9.71.02 1.114.268 2.59 1.162 3.799.91 1.23 2.447 2.122 4.918 2.122h1.738c.172 0 .29.044.383.109.1.068.192.174.285.325.093.153.191.366.281.57.083.184.175.39.284.578.037.05.186.25.326.339.149.095.336.151.566.151.235 0 .424-.058.574-.15.142-.087.283-.29.323-.34.112-.193.225-.407.308-.596.088-.204.176-.403.267-.556.09-.151.179-.255.276-.323a.627.627 0 01.377-.107h1.738c2.471 0 4.008-.893 4.918-2.122.894-1.208 1.142-2.685 1.162-3.8.048-2.525.215-6.8.329-9.709l.001-.013c.057-1.467.101-2.59.109-2.952.009-.456.21-1.197.484-1.93.272-.733 1.034-2.001 1.222-2.262zm-19.574 3.423c-.029-.156-.06-.307-.092-.444h15.225a3.713 3.713 0 00-.095.446c-.054.354-.064.922-.064.922-.118 2.975-.356 9.17-.356 12.253 0 1.271-.41 2.093-.952 2.594-.549.507-1.273.722-1.962.7a36.211 36.211 0 00-.471-.009 34.72 34.72 0 01-.661-.014c-.692-.032-1.365 0-1.95.16-.425.117-.815.305-1.13.595-.739-.728-1.929-1.05-3.148-.994-.113.005-.426.01-.717.014-.224.003-.435.006-.53.01-1.295.04-2.605-1.032-2.605-3.056 0-3.367-.219-9.018-.331-11.917 0 0-.081-.827-.161-1.26z" fill="#333"/><path d="M101.019 31.595c.033.137.064.288.093.444.08.433.161 1.26.161 1.26.112 2.9.331 8.55.331 11.917 0 2.025 1.31 3.096 2.605 3.056.095-.003.306-.007.53-.01.291-.004.604-.009.717-.014 1.219-.056 2.409.266 3.148.994.315-.29.705-.478 1.129-.595.586-.16 1.259-.192 1.951-.16.114.005.398.01.661.014.196.004.379.007.471.01.689.021 1.413-.194 1.962-.7.542-.502.952-1.324.952-2.595 0-3.082.238-9.278.356-12.253 0 0 .01-.568.064-.922a3.71 3.71 0 01.095-.446h-15.226z" fill="#FFDD2D"/></g><path d="M162.619 48.773V33.688h8.652v-5.49h-23.602v5.49h8.651v15.085h6.299zm17.262-8.601V28.199h-6.089v20.574h5.376L189.666 36.8v11.973h6.09V28.2h-5.376l-10.499 11.973zm36.361.95v7.651h6.09V28.2h-6.09v7.52h-9.785V28.2h-6.089v20.574h6.089v-7.65h9.785zm23.048 7.651c1.386 0 2.646-.13 3.822-.475 3.15-.908 5.208-3.545 5.208-7.132 0-3.415-1.764-5.792-4.578-6.873-1.344-.518-2.94-.562-4.452-.562h-6.257V28.2h-6.089v20.574h12.346zm-1.049-10.2c.839 0 1.637 0 2.351.259 1.008.345 1.596 1.21 1.596 2.247 0 1.081-.588 1.989-1.554 2.421-.672.302-1.344.302-2.393.302h-5.208v-5.23h5.208zm20.997 2.42l7.265 7.78h8.106l-10.121-10.72 9.742-9.854h-7.643l-7.349 7.737h-1.68v-7.737h-6.089v20.574h6.089v-7.78h1.68zm27.901-13.356c-8.19 0-13.103 4.754-13.103 10.892s4.913 10.893 13.103 10.893c8.147 0 13.06-4.755 13.06-10.893 0-6.138-4.913-10.892-13.06-10.892zm0 16.77c-4.074 0-6.678-2.506-6.678-5.878 0-3.371 2.604-5.835 6.678-5.835 4.031 0 6.677 2.464 6.677 5.835 0 3.372-2.646 5.879-6.677 5.879zm33.34-17.375h-6.089v2.074c-7.643.173-12.221 3.502-12.221 9.38 0 5.878 4.578 8.947 12.221 9.12v2.075h6.089v-2.075c7.686-.173 12.263-3.242 12.263-9.12 0-5.878-4.577-9.207-12.263-9.38v-2.074zm-6.089 16.165c-4.2-.173-6.048-1.945-6.048-4.711 0-2.767 1.848-4.755 6.048-4.928v9.64zm6.089-9.639c4.242.173 6.048 2.161 6.048 4.928 0 2.766-1.806 4.538-6.048 4.711v-9.639zm32.523-6.526h-6.09v2.074c-7.643.173-12.22 3.502-12.22 9.38 0 5.878 4.577 8.947 12.22 9.12v2.075h6.09v-2.075c7.684-.173 12.263-3.242 12.263-9.12 0-5.878-4.579-9.207-12.263-9.38v-2.074zm-6.09 16.165c-4.199-.173-6.047-1.945-6.047-4.711 0-2.767 1.848-4.755 6.047-4.928v9.64zm6.09-9.639c4.242.173 6.047 2.161 6.047 4.928 0 2.766-1.805 4.538-6.047 4.711v-9.639z" fill="#fff"/><defs><clipPath id="clip0_61_3946"><path fill="#fff" transform="translate(81.338 10.854)" d="M0 0h55.006v55.006H0z"/></clipPath></defs></svg>