<svg width="304" height="76" fill="none" xmlns="http://www.w3.org/2000/svg"><rect x=".885" width="302.172" height="76" rx="38" fill="#291F2F"/><path fill-rule="evenodd" clip-rule="evenodd" d="M139.478 35.618c0-7.245 5.873-13.118 13.117-13.118 7.245 0 13.118 5.873 13.118 13.118v4.764c0 7.245-5.873 13.118-13.118 13.118-7.244 0-13.117-5.873-13.117-13.118v-4.764zm13.742-7.108l-5.31 17.398c-1.874-.949-2.098-11.071-.937-14.077 1.406-3.637 4.686-3.9 6.247-3.32zm4.06 1.266l-5.31 17.398c1.562.58 4.842.316 6.247-3.322 1.161-3.005.937-13.127-.937-14.076z" fill="#00AEED"/><path d="M100.915 23.133h-4.97a.825.825 0 00-.815.96l.142.866a.82.82 0 00.036.14l4.505 12.822 4.656 14.375c.11.34.427.572.785.572h4.583a.825.825 0 00.783-.566l4.965-14.934 4.812 14.772c.111.34.428.57.785.57h5.04c.361 0 .68-.236.788-.58l8.699-27.926a.825.825 0 00-.788-1.071h-4.813a.826.826 0 00-.794.6l-5.92 20.91-6.227-20.92a.827.827 0 00-.792-.59h-4.786a.825.825 0 00-.78 1.094l1.875 5.444c.059.17.06.356.004.527l-4.755 14.445-6.227-20.92a.825.825 0 00-.791-.59zm72.928 0h-4.971a.826.826 0 00-.815.96l.143.866a.84.84 0 00.036.14l4.505 12.822 4.656 14.375c.11.34.427.572.785.572h4.582a.827.827 0 00.784-.566l4.965-14.934 4.812 14.772c.111.34.427.57.785.57h5.04c.361 0 .68-.236.788-.58l8.699-27.926a.825.825 0 00-.788-1.071h-4.813a.825.825 0 00-.794.6l-5.921 20.91-6.227-20.92a.825.825 0 00-.791-.59h-4.786a.825.825 0 00-.78 1.094l1.875 5.444c.058.17.06.356.003.527l-4.754 14.445-6.227-20.92a.825.825 0 00-.791-.59z" fill="#00AEED"/></svg>