<svg width="99" height="99" fill="none" xmlns="http://www.w3.org/2000/svg"><rect width="99" height="99" rx="49.5" fill="#291F2F"/><path d="M16.297 49.5c0-18.41 14.92-33.333 33.333-33.333 18.407 0 33.333 14.923 33.333 33.333 0 18.41-14.926 33.334-33.333 33.334-18.413 0-33.333-14.924-33.333-33.334z" fill="#FC3F1D"/><path d="M53.898 35.053h-3.08c-5.646 0-8.616 2.86-8.616 7.077 0 4.767 2.053 7 6.27 9.863l3.483 2.347-10.01 14.957h-7.48l8.983-13.38c-5.166-3.703-8.066-7.3-8.066-13.384 0-7.626 5.316-12.833 15.4-12.833h10.01v39.56h-6.894V35.053z" fill="#fff"/></svg>