<svg width="151" height="44" fill="none" xmlns="http://www.w3.org/2000/svg"><g clip-path="url(#clip0_61_3479)"><path d="M143.511 37.943c2.943 0 5.027-.528 6.58-1.664v-5.152c-1.594 1.096-3.515 1.785-6.212 1.785-4.537 0-6.417-3.488-6.417-9.005 0-5.801 2.289-8.763 6.458-8.763 2.452 0 4.863.852 6.131 1.664v-5.355c-1.349-.73-3.679-1.258-6.867-1.258-8.133 0-12.343 5.801-12.343 13.915.041 8.883 4.169 13.833 12.67 13.833zm-39.768-2.353v-5.152c-1.962 1.338-5.314 2.515-8.38 2.515-4.659 0-6.416-2.19-6.702-6.653h15.368v-3.326c0-9.29-4.128-12.779-10.463-12.779-7.766 0-11.445 5.882-11.445 13.955 0 9.29 4.619 13.793 12.712 13.793 4.046 0 7.029-1.096 8.91-2.353zM45.418 10.682V21.23h-8.501V10.682H30.54v26.733h6.376V26.26h8.501v11.155h6.376V10.682h-6.376zm35.11 21.703h-2.82V10.682H59.15v2.272c0 6.53-.409 14.969-2.656 19.431H54.45V43.5h5.886v-6.085H74.6V43.5h5.885V32.385h.041zm43.528 5.03h7.234l-10.218-14.4 8.992-12.333h-6.417l-8.992 12.332V10.682h-6.376v26.733h6.376V24.272l9.401 13.143zm-30.654-22.27c3.147 0 4.128 2.596 4.128 5.963v.527h-8.87c.164-4.26 1.718-6.49 4.742-6.49zm-22.07 17.24h-8.993c1.758-4.016 2.248-11.318 2.248-15.942v-.812h6.744v16.754z" fill="#fff"/><path d="M25.227 37.415H18.73V5.49h-2.902c-5.313 0-8.093 2.636-8.093 6.571 0 4.463 1.921 6.531 5.886 9.168l3.27 2.19-9.4 13.996H.5l8.46-12.494c-4.863-3.448-7.602-6.815-7.602-12.495C1.358 5.327 6.345.5 15.786.5h9.4v36.915h.041z" fill="#FC3F1D"/></g><defs><clipPath id="clip0_61_3479"><path fill="#fff" transform="translate(.5 .5)" d="M0 0h150v43H0z"/></clipPath></defs></svg>