<svg width="371" height="76" fill="none" xmlns="http://www.w3.org/2000/svg"><rect width="371" height="76" rx="38" fill="#291F2F"/><g clip-path="url(#clip0_61_3965)"><path d="M253.511 53.943c2.943 0 5.027-.528 6.58-1.664v-5.152c-1.594 1.096-3.515 1.785-6.212 1.785-4.537 0-6.417-3.488-6.417-9.005 0-5.801 2.289-8.763 6.458-8.763 2.452 0 4.863.852 6.131 1.664v-5.355c-1.349-.73-3.679-1.258-6.867-1.258-8.133 0-12.343 5.801-12.343 13.914.041 8.884 4.169 13.834 12.67 13.834zm-39.768-2.353v-5.152c-1.962 1.338-5.314 2.515-8.379 2.515-4.66 0-6.417-2.19-6.703-6.653h15.368v-3.326c0-9.29-4.128-12.779-10.464-12.779-7.765 0-11.444 5.882-11.444 13.955 0 9.29 4.619 13.793 12.711 13.793 4.047 0 7.03-1.096 8.911-2.353zm-58.325-24.908V37.23h-8.501V26.682h-6.376v26.733h6.376V42.26h8.501v11.155h6.376V26.682h-6.376zm35.109 21.703h-2.82V26.682h-18.556v2.272c0 6.53-.408 14.969-2.656 19.431h-2.044V59.5h5.886v-6.085h14.264V59.5h5.885V48.385h.041zm43.529 5.03h7.234l-10.218-14.4 8.992-12.333h-6.417l-8.992 12.332V26.682h-6.376v26.733h6.376V40.272l9.401 13.143zm-30.654-22.27c3.147 0 4.128 2.596 4.128 5.963v.527h-8.869c.163-4.26 1.716-6.49 4.741-6.49zm-22.071 17.24h-8.992c1.758-4.016 2.248-11.318 2.248-15.942v-.812h6.744v16.754z" fill="#fff"/><path d="M135.228 53.415h-6.499V21.49h-2.902c-5.313 0-8.093 2.636-8.093 6.571 0 4.463 1.921 6.531 5.886 9.168l3.27 2.19-9.401 13.996H110.5l8.46-12.494c-4.863-3.448-7.602-6.815-7.602-12.495 0-7.099 4.987-11.926 14.428-11.926h9.401v36.915h.041z" fill="#FC3F1D"/></g><defs><clipPath id="clip0_61_3965"><path fill="#fff" transform="translate(110.5 16.5)" d="M0 0h150v43H0z"/></clipPath></defs></svg>