<svg width="46" height="25" fill="none" xmlns="http://www.w3.org/2000/svg"><path d="M19.556 0H3.632A3.632 3.632 0 000 3.632V20.64a3.632 3.632 0 003.632 3.631h15.924V0z" fill="#0A650C"/><path d="M42.368 0H19.556v24.271h22.812A3.632 3.632 0 0046 20.64V3.632A3.632 3.632 0 0042.368 0z" fill="#FC0D1B"/><path d="M16.249 12.708s-1.552-.32-1.7-.415v.521s1.354.404 1.69.361l.01-.467z" fill="#FFFD38"/><path d="M16.181 13.202c-.408 0-1.588-.35-1.638-.366l-.016-.005v-.58l.033.021c.115.074 1.158.302 1.693.412l.019.004-.011.508-.02.002a.49.49 0 01-.06.004zm-1.61-.407c.146.043 1.233.36 1.61.36l.037-.002.009-.426c-.174-.036-1.403-.292-1.656-.398v.466z" fill="#603913"/><path d="M14.52 12.186s.711.245 1.73.415v.106s-1.543-.287-1.71-.362l-.02-.159z" fill="#FFFD38"/><path d="M16.271 12.736l-.026-.005c-.063-.012-1.546-.288-1.714-.363l-.012-.005-.026-.21.033.01c.007.003.722.247 1.726.415l.02.003v.155zm-1.712-.407c.198.073 1.47.313 1.668.35v-.058a12.326 12.326 0 01-1.681-.401l.013.109z" fill="#603913"/><path d="M14.527 12.756c.03.022.922.284 1.72.367l-.01.124s-1.48-.253-1.688-.37l-.022-.12z" fill="#FFFD38"/><path d="M16.258 13.275l-.024-.004c-.06-.01-1.487-.255-1.695-.373l-.01-.005-.033-.188.044.032c.035.02.91.28 1.71.362l.021.002-.013.174zm-1.69-.414c.218.108 1.462.326 1.65.359l.006-.076a9.82 9.82 0 01-1.668-.352l.013.07z" fill="#603913"/><path d="M15.854 15.805c1.401.262 1.933.352 2.928.46l.33.12s-1.14.036-3.16-.417l-.098-.163z" fill="#FFFD38"/><path d="M19.05 16.41c-.29 0-1.37-.03-3.102-.419l-.01-.002-.13-.216.05.009c1.43.267 1.956.354 2.926.46l.45.163-.122.004h-.063zm-3.084-.463c1.603.358 2.643.41 3.012.415l-.203-.074c-.956-.103-1.48-.19-2.875-.45l.066.109z" fill="#603913"/><path d="M15.524 15.331s1.461.312 2.442.418l.855.523s-2.31-.24-3.007-.46l-.29-.48z" fill="#FFFD38"/><path d="M18.922 16.307l-.103-.01c-.023-.003-2.32-.244-3.011-.462l-.008-.002-.323-.536.051.01c.015.004 1.472.313 2.44.418l.009.003.945.579zm-3.094-.515c.611.19 2.436.396 2.892.446l-.761-.466c-.867-.094-2.12-.351-2.388-.407l.257.427z" fill="#603913"/><path d="M15.419 15.21s1.46.312 2.441.419l.02.141s-1.691-.198-2.389-.418l-.072-.141z" fill="#FFFD38"/><path d="M17.906 15.797l-.028-.004c-.017-.002-1.701-.2-2.393-.418l-.009-.003-.1-.195.047.01c.015.003 1.472.313 2.44.417l.017.002.026.19zm-2.4-.465c.643.2 2.124.383 2.348.41l-.013-.092c-.872-.096-2.124-.353-2.38-.406l.045.088z" fill="#603913"/><path d="M15.138 9.68s-.293.587-.296.656c-.004.07 1.072.836 1.072.836s.589-.073.596-.092a8.307 8.307 0 00-.011-.514c-.004-.02-1.361-.885-1.361-.885z" fill="#FFFD38"/><path d="M15.909 11.196l-.007-.005c-.496-.353-1.086-.788-1.082-.856.003-.071.249-.567.298-.666l.011-.022.02.013c1.366.872 1.369.887 1.371.901.001.004.021.498.01.527-.006.016-.012.033-.613.107l-.008.001zm-.763-1.482c-.112.226-.28.578-.282.623.027.06.659.527 1.056.81a8.67 8.67 0 00.57-.084 11.94 11.94 0 00-.012-.485 62.364 62.364 0 00-1.332-.864z" fill="#603913"/><path d="M14.803 10.474s.698.644.955.786l.232-.065s-.895-.617-1.137-.874l-.05.153z" fill="#FFFD38"/><path d="M15.755 11.284l-.007-.004c-.256-.141-.931-.762-.96-.788l-.011-.011.066-.204.025.026c.238.252 1.124.865 1.133.871l.043.03-.289.08zm-.926-.818c.09.083.693.631.931.768l.175-.05c-.175-.122-.834-.585-1.073-.821l-.033.103z" fill="#603913"/><path d="M14.609 15.042l.235.392s.504-.585 1.99-.76l-.236-.422s-1.104.03-1.99.79z" fill="#FFFD38"/><path d="M14.84 15.473l-.26-.436.015-.013c.88-.755 1.991-.794 2.002-.795h.013l.26.466-.035.004c-1.457.171-1.97.746-1.975.752l-.02.022zm-.202-.425l.21.349c.106-.108.64-.58 1.948-.742l-.21-.377c-.125.006-1.132.08-1.948.77z" fill="#603913"/><path d="M14.508 14.972l.07.12s.61-.603 2.048-.779l-.073-.114s-1.17.074-2.045.773z" fill="#FFFD38"/><path d="M14.573 15.129l-.095-.164.017-.013c.87-.695 2.045-.777 2.057-.777l.012-.001.1.158-.036.005c-1.415.173-2.029.766-2.035.772l-.02.02zm-.035-.152l.045.079c.117-.102.74-.6 2.004-.762l-.045-.07c-.127.01-1.195.117-2.004.753z" fill="#603913"/><path d="M14.771 15.421l.064.109s.558-.59 2.043-.766l-.062-.114s-1.171.048-2.045.771z" fill="#FFFD38"/><path d="M14.832 15.568l-.09-.152.016-.013c.87-.72 2.046-.776 2.057-.776h.014l.085.158-.034.004c-1.46.172-2.023.753-2.029.758l-.02.02zm-.031-.14l.04.066c.112-.103.7-.588 2-.748l-.037-.07c-.13.008-1.196.095-2.003.752z" fill="#603913"/><path d="M13.956 11.878v.489s.672-.436 2.293-.776v-.468s-.988.096-2.293.755z" fill="#FFFD38"/><path d="M13.934 12.41v-.547l.012-.006c1.294-.653 2.291-.756 2.301-.757l.024-.002v.513l-.018.004c-1.597.335-2.28.768-2.286.773l-.033.021zm.044-.517v.434c.155-.09.851-.46 2.249-.755v-.422c-.159.02-1.08.156-2.25.743z" fill="#603913"/><path d="M13.916 11.824v.15s.902-.644 2.323-.82v-.148s-1.394.18-2.323.818z" fill="#FFFD38"/><path d="M13.894 12.018v-.206l.01-.007c.923-.634 2.319-.82 2.332-.822l.025-.004v.196l-.019.003c-1.399.173-2.304.809-2.313.815l-.035.025zm.044-.18v.093c.178-.117 1.033-.639 2.28-.798v-.1c-.19.028-1.433.229-2.28.805z" fill="#603913"/><path d="M13.918 12.376v.149s.898-.658 2.312-.796l.01-.17s-1.393.18-2.322.817z" fill="#FFFD38"/><path d="M13.896 12.57v-.207l.01-.007c.923-.633 2.317-.819 2.33-.82l.027-.004-.013.22-.018.001c-1.391.136-2.293.785-2.302.792l-.034.025zm.044-.18v.092c.178-.12 1.029-.649 2.269-.774l.006-.122c-.195.03-1.431.23-2.275.803z" fill="#603913"/><path d="M14.362 9.956s0-.187.034-.265c.033-.079.056-.09.056-.09s.554-.073 1.776.608l-.017.145s-1.311-.627-1.782-.615l-.067.217z" fill="#FFFD38"/><path d="M16.23 10.389l-.028-.013c-.013-.006-1.283-.611-1.757-.613l-.105.34v-.147c0-.008 0-.193.036-.275.034-.08.059-.098.066-.102l.007-.002s.018-.002.054-.002c.15 0 .714.044 1.735.613l.014.008-.023.193zm-1.787-.674c.448 0 1.557.513 1.75.604l.011-.096c-1.004-.557-1.555-.6-1.7-.6h-.044a.285.285 0 00-.06.136l.013-.043h.03z" fill="#603913"/><path d="M14.872 8.872l-.386.74s.997.152 1.759.652l-.028-1.055s-1.048-.355-1.345-.337z" fill="#FFFD38"/><path d="M16.268 10.307l-.035-.023c-.749-.492-1.74-.646-1.75-.648l-.032-.005.408-.782.012-.001h.025c.324 0 1.287.324 1.328.338l.015.005.03 1.116zm-1.747-.712c.173.03 1.025.196 1.7.626l-.026-.994c-.125-.042-1.003-.332-1.3-.332h-.01l-.364.7z" fill="#603913"/><path d="M14.85 8.727s-.079.127-.085.15a4.49 4.49 0 00-.01.23l.117-.235s.426.024 1.328.367l.011-.138s-.79-.326-1.361-.374z" fill="#FFFD38"/><path d="M16.22 9.272l-.027-.01c-.8-.305-1.228-.358-1.308-.366l-.155.31.002-.1c.002-.035.007-.209.012-.234a1.15 1.15 0 01.088-.158l.007-.012.013.001c.568.048 1.36.372 1.367.375l.016.007-.015.187zm-1.36-.425h.013c.005.001.431.028 1.308.36l.007-.09c-.113-.046-.81-.318-1.327-.365-.034.056-.07.119-.074.132-.002.009-.005.06-.007.122l.08-.159z" fill="#603913"/><path d="M22.91 12.708s1.552-.32 1.7-.415v.521s-1.354.404-1.69.361l-.01-.467z" fill="#FFFD38"/><path d="M22.977 13.202a.49.49 0 01-.06-.004l-.02-.002-.01-.508.019-.004c.535-.11 1.578-.338 1.692-.412l.034-.021v.58l-.016.005c-.05.015-1.23.366-1.639.366zm-.036-.049c.338.024 1.496-.313 1.647-.358v-.466c-.254.106-1.482.362-1.656.398l.01.426z" fill="#603913"/><path d="M24.64 12.186s-.712.245-1.73.415v.106s1.542-.287 1.71-.362l.02-.159z" fill="#FFFD38"/><path d="M22.887 12.736v-.155l.02-.003c1.004-.168 1.718-.412 1.726-.414l.033-.012-.026.21-.012.006c-.168.075-1.652.351-1.715.363l-.026.005zm.045-.115v.058c.198-.037 1.47-.277 1.668-.35l.013-.109c-.151.05-.805.254-1.681.401z" fill="#603913"/><path d="M24.632 12.756c-.03.022-.922.284-1.72.367l.01.124s1.48-.253 1.688-.37l.022-.12z" fill="#FFFD38"/><path d="M22.901 13.275l-.014-.174.022-.002a9.402 9.402 0 001.711-.363l.044-.031-.035.188-.01.005c-.208.118-1.634.363-1.695.373l-.023.004zm.034-.131l.006.076c.187-.033 1.432-.251 1.649-.359l.012-.068a9.567 9.567 0 01-1.667.351z" fill="#603913"/><path d="M23.305 15.805c-1.402.262-1.933.352-2.929.46l-.329.12s1.139.036 3.16-.417l.098-.163z" fill="#FFFD38"/><path d="M20.11 16.41h-.063l-.123-.005.445-.162c.976-.107 1.502-.194 2.933-.461l.05-.01-.132.217-.009.002c-1.733.389-2.812.419-3.102.419zm3.149-.572c-1.395.26-1.92.347-2.88.451l-.199.073c.369-.005 1.409-.056 3.013-.415l.066-.109z" fill="#603913"/><path d="M23.634 15.331s-1.46.312-2.442.418l-.855.523s2.31-.24 3.008-.46l.29-.48z" fill="#FFFD38"/><path d="M20.236 16.307l.954-.582c.969-.105 2.425-.414 2.44-.417l.051-.011-.322.536-.008.002c-.692.218-2.989.459-3.012.461l-.103.01zm.963-.535l-.76.466c.455-.05 2.28-.257 2.892-.446l.256-.427c-.267.056-1.52.313-2.387.407z" fill="#603913"/><path d="M23.74 15.21s-1.461.312-2.442.419l-.02.141s1.692-.198 2.39-.418l.072-.141z" fill="#FFFD38"/><path d="M21.252 15.797l.027-.19.017-.003c.968-.104 2.425-.414 2.44-.417l.046-.01-.1.195-.009.003c-.691.217-2.375.416-2.392.418l-.029.004zm.065-.147l-.013.093c.225-.027 1.705-.211 2.348-.411l.045-.088c-.255.053-1.508.31-2.38.406z" fill="#603913"/><path d="M24.021 9.68s.292.587.296.656c.003.07-1.073.836-1.073.836s-.588-.073-.595-.092a8.23 8.23 0 01.01-.514c.004-.02 1.362-.885 1.362-.885z" fill="#FFFD38"/><path d="M23.25 11.196h-.008c-.602-.075-.608-.092-.614-.108a7.224 7.224 0 01.01-.527c.002-.014.005-.03 1.372-.9l.02-.014.01.022c.05.1.295.595.299.666.003.068-.587.503-1.083.856l-.006.005zm-.58-.133c.061.017.37.06.569.084.396-.283 1.029-.75 1.056-.816-.003-.039-.17-.39-.283-.617-.51.326-1.257.806-1.331.864-.005.06-.014.415-.012.485z" fill="#603913"/><path d="M24.356 10.474s-.698.644-.955.786l-.232-.065s.895-.617 1.137-.874l.05.153z" fill="#FFFD38"/><path d="M23.404 11.284l-.289-.08.043-.03c.008-.006.895-.619 1.133-.87l.024-.027.067.204-.012.01c-.028.027-.703.648-.959.79l-.007.003zm-.18-.1l.174.05c.24-.137.841-.685.932-.768l-.033-.103c-.24.236-.898.7-1.073.822z" fill="#603913"/><path d="M19.594 6.174c-3.088 0-5.592 2.693-5.592 6.015 0 3.322 2.504 6.014 5.592 6.014 3.09 0 5.593-2.692 5.593-6.014s-2.504-6.015-5.593-6.015zm0 11.378c-2.754 0-4.987-2.4-4.987-5.363 0-2.963 2.233-5.364 4.987-5.364 2.755 0 4.988 2.401 4.988 5.364 0 2.962-2.233 5.363-4.988 5.363z" fill="#FFFD38"/><path d="M19.594 18.227c-3.096 0-5.614-2.708-5.614-6.038s2.518-6.038 5.614-6.038 5.615 2.709 5.615 6.038c0 3.33-2.519 6.038-5.615 6.038zm0-12.029c-3.071 0-5.57 2.688-5.57 5.991 0 3.303 2.499 5.99 5.57 5.99 3.072 0 5.57-2.686 5.57-5.99 0-3.303-2.498-5.99-5.57-5.99zm0 11.379c-2.762 0-5.01-2.417-5.01-5.388 0-2.97 2.248-5.387 5.01-5.387 2.762 0 5.01 2.416 5.01 5.387 0 2.97-2.247 5.388-5.01 5.388zm0-10.728c-2.738 0-4.965 2.396-4.965 5.34 0 2.945 2.227 5.34 4.965 5.34s4.966-2.395 4.966-5.34c0-2.944-2.228-5.34-4.966-5.34z" fill="#603913"/><path d="M19.595 6.335c-3.007 0-5.444 2.621-5.444 5.854s2.437 5.854 5.444 5.854c3.006 0 5.443-2.62 5.443-5.854 0-3.233-2.437-5.854-5.444-5.854zm0 11.346c-2.821 0-5.107-2.458-5.107-5.492 0-3.033 2.286-5.492 5.107-5.492 2.82 0 5.106 2.459 5.106 5.492 0 3.034-2.286 5.492-5.107 5.492z" fill="#FFFD38"/><path d="M19.594 18.066c-3.013 0-5.465-2.636-5.465-5.877 0-3.241 2.452-5.878 5.465-5.878 3.014 0 5.465 2.637 5.465 5.878 0 3.24-2.451 5.877-5.465 5.877zm0-11.707c-2.989 0-5.42 2.615-5.42 5.83 0 3.214 2.431 5.83 5.42 5.83 2.99 0 5.421-2.616 5.421-5.83 0-3.215-2.431-5.83-5.42-5.83zm0 11.346c-2.828 0-5.129-2.475-5.129-5.516 0-3.042 2.301-5.516 5.13-5.516 2.827 0 5.128 2.474 5.128 5.516 0 3.041-2.3 5.516-5.129 5.516zm0-10.985c-2.803 0-5.085 2.453-5.085 5.469 0 3.015 2.282 5.468 5.085 5.468 2.804 0 5.085-2.453 5.085-5.468 0-3.016-2.28-5.469-5.085-5.469z" fill="#603913"/><path d="M14.609 15.042l.235.392s.504-.585 1.99-.76l-.236-.422s-1.104.03-1.99.79z" fill="#FFFD38"/><path d="M14.84 15.473l-.26-.436.015-.013c.88-.755 1.991-.794 2.002-.795h.013l.26.466-.035.004c-1.457.171-1.97.746-1.975.752l-.02.022zm-.202-.425l.21.349c.106-.108.64-.58 1.948-.742l-.21-.377c-.125.006-1.132.08-1.948.77z" fill="#603913"/><path d="M14.508 14.972l.07.12s.61-.603 2.048-.779l-.073-.114s-1.17.074-2.045.773z" fill="#FFFD38"/><path d="M14.573 15.129l-.095-.164.017-.013c.87-.695 2.045-.777 2.057-.777l.012-.001.1.158-.036.005c-1.415.173-2.029.766-2.035.772l-.02.02zm-.035-.152l.045.079c.117-.102.74-.6 2.004-.762l-.045-.07c-.127.01-1.195.117-2.004.753z" fill="#603913"/><path d="M14.771 15.421l.064.109s.558-.59 2.043-.766l-.062-.114s-1.171.048-2.045.771z" fill="#FFFD38"/><path d="M14.832 15.568l-.09-.152.016-.013c.87-.72 2.046-.776 2.057-.776h.014l.085.158-.034.004c-1.46.172-2.023.753-2.029.758l-.02.02zm-.031-.14l.04.066c.112-.103.7-.588 2-.748l-.037-.07c-.13.008-1.196.095-2.003.752z" fill="#603913"/><path d="M13.956 11.878v.489s.672-.436 2.293-.776v-.468s-.988.096-2.293.755z" fill="#FFFD38"/><path d="M13.934 12.41v-.547l.012-.006c1.294-.653 2.291-.756 2.301-.757l.024-.002v.513l-.018.004c-1.597.335-2.28.768-2.286.773l-.033.021zm.044-.517v.434c.155-.09.851-.46 2.249-.755v-.422c-.159.02-1.08.156-2.25.743z" fill="#603913"/><path d="M13.916 11.824v.15s.902-.644 2.323-.82v-.148s-1.394.18-2.323.818z" fill="#FFFD38"/><path d="M13.894 12.018v-.206l.01-.007c.923-.634 2.319-.82 2.332-.822l.025-.004v.196l-.019.003c-1.399.173-2.304.809-2.313.815l-.035.025zm.044-.18v.093c.178-.117 1.033-.639 2.28-.798v-.1c-.19.028-1.433.229-2.28.805z" fill="#603913"/><path d="M13.918 12.376v.149s.898-.658 2.312-.796l.01-.17s-1.393.18-2.322.817z" fill="#FFFD38"/><path d="M13.896 12.57v-.207l.01-.007c.923-.633 2.317-.819 2.33-.82l.027-.004-.013.22-.018.001c-1.391.136-2.293.785-2.302.792l-.034.025zm.044-.18v.092c.178-.12 1.029-.649 2.269-.774l.006-.122c-.195.03-1.431.23-2.275.803z" fill="#603913"/><path d="M14.362 9.956s0-.187.034-.265c.033-.079.056-.09.056-.09s.554-.073 1.776.608l-.017.145s-1.311-.627-1.782-.615l-.067.217z" fill="#FFFD38"/><path d="M16.23 10.389l-.028-.013c-.013-.006-1.283-.611-1.757-.613l-.105.34v-.147c0-.008 0-.193.036-.275.034-.08.059-.098.066-.102l.007-.002s.018-.002.054-.002c.15 0 .714.044 1.735.613l.014.008-.023.193zm-1.787-.674c.448 0 1.557.513 1.75.604l.011-.096c-1.004-.557-1.555-.6-1.7-.6h-.044a.285.285 0 00-.06.136l.013-.043h.03z" fill="#603913"/><path d="M14.872 8.872l-.386.74s.997.152 1.759.652l-.028-1.055s-1.048-.355-1.345-.337z" fill="#FFFD38"/><path d="M16.268 10.307l-.035-.023c-.749-.492-1.74-.646-1.75-.648l-.032-.005.408-.782.012-.001h.025c.324 0 1.287.324 1.328.338l.015.005.03 1.116zm-1.747-.712c.173.03 1.025.196 1.7.626l-.026-.994c-.125-.042-1.003-.332-1.3-.332h-.01l-.364.7z" fill="#603913"/><path d="M14.85 8.727s-.079.127-.085.15a4.49 4.49 0 00-.01.23l.117-.235s.426.024 1.328.367l.011-.138s-.79-.326-1.361-.374z" fill="#FFFD38"/><path d="M16.22 9.272l-.027-.01c-.8-.305-1.228-.358-1.308-.366l-.155.31.002-.1c.002-.035.007-.209.012-.234a1.15 1.15 0 01.088-.158l.007-.012.013.001c.568.048 1.36.372 1.367.375l.016.007-.015.187zm-1.36-.425h.013c.005.001.431.028 1.308.36l.007-.09c-.113-.046-.81-.318-1.327-.365-.034.056-.07.119-.074.132-.002.009-.005.06-.007.122l.08-.159z" fill="#603913"/><path d="M24.549 15.037l-.235.392s-.505-.584-1.99-.76l.236-.421s1.104.03 1.989.79z" fill="#FFFD38"/><path d="M24.317 15.468l-.02-.022c-.005-.006-.518-.58-1.975-.752l-.034-.004.26-.465h.012c.011 0 1.122.039 2.003.795l.015.013-.261.435zm-1.956-.817c1.309.161 1.842.633 1.948.741l.21-.349c-.816-.69-1.823-.763-1.947-.77l-.211.378z" fill="#603913"/><path d="M24.65 14.967l-.07.12s-.61-.602-2.048-.778l.073-.115s1.17.074 2.045.773z" fill="#FFFD38"/><path d="M24.584 15.125l-.02-.02c-.005-.006-.621-.6-2.035-.772l-.036-.005.1-.158h.013c.012.001 1.188.083 2.057.778l.016.013-.095.164zm-2.013-.835c1.263.163 1.887.66 2.003.762l.046-.079c-.809-.637-1.877-.743-2.004-.754l-.045.071z" fill="#603913"/><path d="M24.387 15.417l-.065.109s-.557-.59-2.042-.766l.061-.114s1.171.048 2.046.771z" fill="#FFFD38"/><path d="M24.326 15.564l-.02-.02c-.005-.007-.57-.588-2.029-.76l-.033-.003.085-.159h.013c.012.001 1.188.057 2.058.777l.016.013-.09.152zm-2.01-.823c.751.093 1.258.293 1.551.447.26.135.401.256.45.301l.04-.066c-.807-.657-1.873-.744-2.003-.752l-.038.07z" fill="#603913"/><path d="M25.202 11.874v.49s-.672-.436-2.293-.777v-.467s.988.095 2.293.755z" fill="#FFFD38"/><path d="M25.224 12.405l-.034-.022c-.007-.004-.689-.437-2.286-.773l-.018-.003v-.514l.024.003c.01 0 1.008.103 2.3.756l.014.007v.546zm-2.294-.838c1.398.296 2.095.666 2.25.756v-.434c-1.17-.588-2.091-.723-2.25-.743v.421z" fill="#603913"/><path d="M25.24 11.82v.15s-.901-.643-2.322-.82v-.148s1.394.181 2.323.819z" fill="#FFFD38"/><path d="M25.264 12.014l-.035-.025c-.009-.006-.914-.642-2.313-.815l-.02-.003v-.195l.025.003c.014.002 1.41.188 2.332.822l.01.007v.206zm-2.324-.885c1.247.16 2.101.681 2.28.798v-.093c-.847-.576-2.09-.777-2.28-.804v.099z" fill="#603913"/><path d="M25.24 12.372v.149s-.898-.658-2.312-.796l-.01-.17s1.393.179 2.322.817z" fill="#FFFD38"/><path d="M25.262 12.566l-.035-.026c-.009-.006-.91-.655-2.3-.791l-.02-.002-.012-.22.026.004c.014.002 1.408.187 2.33.82l.011.008v.207zm-2.313-.863c1.24.126 2.091.655 2.269.774v-.092c-.844-.574-2.08-.774-2.276-.803l.007.121z" fill="#603913"/><path d="M24.796 9.952s0-.186-.035-.265c-.034-.078-.057-.09-.057-.09s-.567-.072-1.816.609l.017.144s1.34-.627 1.822-.614l.069.216z" fill="#FFFD38"/><path d="M22.887 10.384l-.023-.192.014-.008c1.044-.569 1.621-.613 1.773-.613a.56.56 0 01.055.002l.008.002c.007.004.032.022.067.102a.95.95 0 01.037.275v.144l-.107-.337c-.484.002-1.784.607-1.797.613l-.027.012zm.025-.165l.011.097c.196-.09 1.332-.605 1.79-.605l.03.001.016.05a.298.298 0 00-.063-.142.565.565 0 00-.045-.002c-.149 0-.713.044-1.74.601z" fill="#603913"/><path d="M24.274 8.867l.395.742s-1.02.15-1.799.65l.029-1.054s1.071-.356 1.375-.338z" fill="#FFFD38"/><path d="M22.847 10.302l.03-1.115.016-.005c.043-.014 1.08-.355 1.382-.338h.012l.418.784-.033.004c-.01.002-1.024.156-1.79.648l-.035.022zm.074-1.08l-.027.995c.691-.43 1.563-.596 1.74-.627l-.373-.7c-.29-.008-1.21.29-1.34.333z" fill="#603913"/><path d="M24.297 8.723s.08.126.086.15c.006.024.011.23.011.23l-.12-.236s-.435.024-1.358.368l-.011-.139s.808-.325 1.392-.373z" fill="#FFFD38"/><path d="M22.897 9.267l-.016-.187.016-.006c.008-.003.817-.327 1.398-.375l.013-.001.007.011c.025.04.083.133.09.158.005.025.01.186.011.234l.003.099-.158-.308c-.08.008-.518.06-1.337.365l-.027.01zm.031-.155l.008.09c.896-.33 1.332-.358 1.337-.359h.014l.082.16a1.618 1.618 0 00-.008-.124 1.191 1.191 0 00-.075-.132c-.529.047-1.243.32-1.358.365z" fill="#603913"/><path d="M19.89 6.142h-.643v2.386h.642V6.142z" fill="#FFFD38"/><path d="M19.911 8.552h-.686V6.12h.686v2.433zm-.642-.047h.598V6.166h-.598v2.339z" fill="#603913"/><path d="M19.386 6.062h-.142v2.501h.142V6.062z" fill="#FFFD38"/><path d="M19.408 8.587h-.187V6.04h.187v2.548zm-.142-.047h.098V6.086h-.098V8.54z" fill="#603913"/><path d="M19.897 6.062h-.142v2.501h.142V6.062z" fill="#FFFD38"/><path d="M19.92 8.587h-.187V6.04h.187v2.548zm-.143-.047h.099V6.086h-.099V8.54z" fill="#603913"/><path d="M19.89 15.883h-.643v2.386h.642v-2.386z" fill="#FFFD38"/><path d="M19.911 18.293h-.686v-2.434h.686v2.434zm-.642-.048h.598v-2.339h-.598v2.339z" fill="#603913"/><path d="M19.386 15.802h-.142v2.502h.142v-2.502z" fill="#FFFD38"/><path d="M19.408 18.328h-.187v-2.55h.187v2.55zm-.142-.048h.098v-2.454h-.098v2.454z" fill="#603913"/><path d="M19.897 15.802h-.142v2.502h.142v-2.502z" fill="#FFFD38"/><path d="M19.92 18.328h-.187v-2.55h.187v2.55zm-.143-.048h.099v-2.454h-.099v2.454z" fill="#603913"/><path d="M16.192 8.024H22.9v5.398s-.173.935-.57 1.464c-1.148 1.588-2.77 1.588-2.77 1.588s-1.766.021-2.731-1.587c-.483-.665-.599-1.486-.599-1.486l-.038-5.377z" fill="#fff"/><path d="M19.557 16.487c-.073 0-1.793-.018-2.738-1.592-.478-.66-.599-1.483-.6-1.491l-.039-5.391h6.731v5.41c-.002.012-.179.946-.572 1.471-1.139 1.575-2.763 1.593-2.779 1.593h-.003zm-3.354-8.45l.038 5.365c.001.006.12.823.596 1.479.94 1.564 2.648 1.582 2.72 1.582h.003c.016 0 1.63-.018 2.762-1.583.39-.521.565-1.45.567-1.46V8.037h-6.686z" fill="#603913"/><path d="M16.33 8.18h6.431v5.173s-.166.896-.546 1.404c-1.101 1.522-2.655 1.522-2.655 1.522s-1.693.02-2.619-1.521c-.462-.639-.573-1.424-.573-1.424l-.037-5.155z" fill="#FB1221"/><path d="M19.556 16.29c-.07 0-1.718-.017-2.624-1.526-.458-.632-.574-1.42-.575-1.429l-.037-5.168h6.452v5.187c-.002.01-.172.907-.548 1.41-1.092 1.51-2.649 1.527-2.664 1.527h-.003zm-3.214-8.099l.037 5.143c0 .006.116.788.571 1.417.9 1.499 2.537 1.516 2.607 1.516h.003c.015 0 1.561-.018 2.646-1.518.374-.499.542-1.389.544-1.398v-5.16h-6.408z" fill="#603913"/><path d="M17.626 9.587h3.854v3.402s-.1.589-.327.922c-.66 1.001-1.592 1.001-1.592 1.001s-1.014.013-1.569-1c-.277-.42-.344-.936-.344-.936l-.022-3.39z" fill="#fff"/><path d="M19.56 14.924a1.89 1.89 0 01-1.578-1.006c-.275-.416-.344-.936-.345-.941l-.022-3.402h3.876v3.413c-.001.008-.103.598-.33.93-.655.994-1.59 1.006-1.6 1.006h-.002zm-1.923-5.326l.022 3.377c0 .004.07.518.342.93a1.869 1.869 0 001.558.995v.012l.002-.012c.01 0 .934-.012 1.583-.996.223-.328.324-.912.325-.918V9.6h-3.832z" fill="#603913"/><path d="M20.002 8.908h-.881v.498h.881v-.498z" fill="#FFFD38"/><path d="M20.014 9.418h-.904v-.522h.904v.522zm-.882-.024h.86V8.92h-.86v.474z" fill="#603913"/><path d="M19.377 8.586h-.257v.354h.257v-.354z" fill="#FFFD38"/><path d="M19.388 8.952h-.28v-.377h.28v.377zm-.258-.024h.236v-.33h-.235v.33z" fill="#603913"/><path d="M20.06 9.374h-1v.128h1v-.128z" fill="#FFFD38"/><path d="M20.072 9.515h-1.024v-.153h1.024v.153zM19.07 9.49h.98v-.105h-.98v.105z" fill="#603913"/><path d="M19.69 8.45h-.257v.49h.257v-.49z" fill="#FFFD38"/><path d="M19.701 8.952h-.28v-.514h.28v.514zm-.257-.024h.235v-.466h-.235v.466z" fill="#603913"/><path d="M19.997 8.61h-.258v.33h.258v-.33z" fill="#FFFD38"/><path d="M20.008 8.952h-.28v-.353h.28v.353zm-.258-.024h.235v-.306h-.235v.306z" fill="#603913"/><path d="M20.06 8.852h-1v.1h1v-.1z" fill="#FFFD38"/><path d="M20.072 8.964h-1.024V8.84h1.024v.124zM19.07 8.94h.98v-.076h-.98v.076z" fill="#603913"/><path d="M19.807 9.336c0-.148-.112-.267-.249-.267s-.248.12-.248.267c0 .013.002.026.003.038h.49a.233.233 0 00.004-.038z" fill="#FFFD38"/><path d="M19.812 9.386h-.508l-.002-.015a.265.265 0 01-.003-.035c0-.154.116-.28.259-.28.143 0 .26.126.26.28a.198.198 0 01-.004.036l-.002.014zm-.49-.024h.471a.195.195 0 00.002-.026c0-.141-.106-.256-.237-.256-.13 0-.237.115-.237.256 0 .008 0 .017.002.026z" fill="#603913"/><path d="M19.747 9.336c0-.112-.085-.203-.189-.203s-.188.091-.188.203c0 .013.001.026.003.038h.37a.218.218 0 00.004-.038z" fill="#FFFD38"/><path d="M19.752 9.386h-.388l-.002-.01a.234.234 0 01-.004-.04c0-.119.09-.215.2-.215.11 0 .2.096.2.215a.235.235 0 01-.004.04l-.002.01zm-.37-.024h.352a.203.203 0 00.002-.026c0-.105-.08-.191-.178-.191-.098 0-.177.086-.177.19l.001.027z" fill="#603913"/><path d="M19.414 8.594v-.115h-.076v-.066h-.061v.063h-.054v-.063h-.057v.063h-.083v.116l.33.002z" fill="#FFFD38"/><path d="M19.425 8.607l-.353-.002v-.14h.083v-.063h.08v.064h.03v-.064h.084v.067h.076v.138zm-.33-.025l.308.001v-.09h-.076v-.067h-.04v.063h-.075v-.063h-.035v.063h-.083v.093z" fill="#603913"/><path d="M19.727 8.445v-.114h-.076v-.066h-.061v.063h-.054v-.063h-.057v.063h-.083v.116l.33.001z" fill="#FFFD38"/><path d="M19.738 8.458l-.353-.002v-.14h.083v-.063h.08v.063h.03v-.063h.084v.066h.076v.139zm-.33-.026l.308.002v-.091h-.076v-.066h-.04v.063h-.075v-.063h-.035v.063h-.083v.092z" fill="#603913"/><path d="M20.033 8.604v-.115h-.076v-.066h-.062v.063h-.053v-.063h-.057v.063h-.083v.116l.33.002z" fill="#FFFD38"/><path d="M20.044 8.615l-.353-.001v-.14h.083V8.41h.08v.063h.03V8.41h.084v.066h.076v.138zm-.331-.025l.308.001v-.09h-.075v-.067h-.04v.064h-.075v-.064h-.035v.064h-.083v.092z" fill="#603913"/><path d="M19.27 8.652h-.042v.123h.042v-.123z" fill="#FFFD38"/><path d="M19.282 8.787h-.064V8.64h.064v.147zm-.042-.024h.02v-.1h-.02v.1z" fill="#603913"/><path d="M19.61 8.55h-.093v.1h.093v-.1z" fill="#FFFD38"/><path d="M19.62 8.66h-.114v-.122h.115v.123zm-.092-.023h.07v-.076h-.07v.076z" fill="#603913"/><path d="M19.895 8.652h-.05v.123h.05v-.123z" fill="#FFFD38"/><path d="M19.907 8.787h-.073V8.64h.073v.147zm-.05-.024h.027v-.1h-.028v.1z" fill="#603913"/><path d="M17.403 8.908h-.881v.498h.881v-.498z" fill="#FFFD38"/><path d="M17.414 9.418h-.904v-.522h.904v.522zm-.881-.024h.859V8.92h-.86v.474z" fill="#603913"/><path d="M16.778 8.586h-.258v.354h.258v-.354z" fill="#FFFD38"/><path d="M16.789 8.952h-.28v-.377h.28v.377zm-.258-.024h.236v-.33h-.236v.33z" fill="#603913"/><path d="M17.461 9.373h-1v.129h1v-.129z" fill="#FFFD38"/><path d="M17.472 9.514H16.45v-.152h1.023v.152zm-1-.024h.978v-.104h-.979v.104z" fill="#603913"/><path d="M17.09 8.45h-.257v.49h.258v-.49z" fill="#FFFD38"/><path d="M17.102 8.952h-.28v-.514h.28v.514zm-.258-.024h.236v-.466h-.236v.466z" fill="#603913"/><path d="M17.397 8.61h-.258v.33h.258v-.33z" fill="#FFFD38"/><path d="M17.408 8.951h-.28v-.353h.28v.353zm-.258-.023h.236v-.306h-.236v.306z" fill="#603913"/><path d="M17.461 8.852h-1v.1h1v-.1z" fill="#FFFD38"/><path d="M17.472 8.964H16.45V8.84h1.023v.124zm-1-.024h.978v-.076h-.979v.076z" fill="#603913"/><path d="M17.207 9.336c0-.148-.11-.267-.248-.267-.137 0-.249.12-.249.267 0 .013.002.026.004.038h.49c.001-.012.003-.025.003-.038z" fill="#FFFD38"/><path d="M17.213 9.386h-.509l-.002-.015a.265.265 0 01-.003-.035c0-.154.116-.28.26-.28.142 0 .259.126.259.28 0 .013-.002.025-.003.036l-.002.014zm-.49-.024h.47a.195.195 0 00.003-.026c0-.141-.107-.256-.238-.256-.13 0-.237.115-.237.256l.002.026z" fill="#603913"/><path d="M17.147 9.336c0-.112-.084-.203-.188-.203s-.189.09-.189.203c0 .013.001.025.004.038h.37a.218.218 0 00.003-.038z" fill="#FFFD38"/><path d="M17.153 9.385h-.389l-.002-.01a.234.234 0 01-.003-.04c0-.118.09-.214.2-.214.11 0 .2.096.2.214a.235.235 0 01-.005.04l-.001.01zm-.37-.023h.351a.204.204 0 00.002-.027c0-.105-.08-.19-.178-.19-.097 0-.177.085-.177.19 0 .009 0 .017.002.027z" fill="#603913"/><path d="M16.814 8.594v-.115h-.075v-.066h-.062v.063h-.053v-.063h-.058v.063h-.082v.116l.33.002z" fill="#FFFD38"/><path d="M16.825 8.607l-.352-.002v-.14h.082v-.063h.08v.064h.031v-.064h.084v.067h.075v.138zm-.33-.025l.308.001v-.09h-.075v-.067h-.04v.063h-.075v-.063h-.036v.063h-.082v.093z" fill="#603913"/><path d="M17.128 8.445v-.114h-.076v-.066h-.062v.063h-.053v-.063h-.057v.063h-.083v.116l.33.001z" fill="#FFFD38"/><path d="M17.139 8.458l-.353-.002v-.14h.082v-.063h.08v.063h.031v-.063h.084v.066h.076v.139zm-.331-.026l.308.002v-.091h-.075v-.066H17v.063h-.075v-.063h-.035v.063h-.083v.092z" fill="#603913"/><path d="M17.433 8.604v-.115h-.075v-.066h-.062v.063h-.053v-.063h-.058v.063h-.082v.116l.33.002z" fill="#FFFD38"/><path d="M17.444 8.615l-.352-.001v-.14h.082V8.41h.08v.063h.03V8.41h.085v.066h.075v.138zm-.33-.025l.308.001v-.09h-.076v-.067h-.039v.064h-.075v-.064h-.036v.064h-.082v.092z" fill="#603913"/><path d="M16.671 8.652h-.042v.123h.042v-.123z" fill="#FFFD38"/><path d="M16.682 8.787h-.064V8.64h.064v.147zm-.042-.024h.02v-.1h-.02v.1z" fill="#603913"/><path d="M17.01 8.55h-.093v.099h.093v-.1z" fill="#FFFD38"/><path d="M17.021 8.66h-.114v-.122h.114v.123zm-.092-.023h.07v-.076h-.07v.076z" fill="#603913"/><path d="M17.296 8.652h-.05v.123h.05v-.123z" fill="#FFFD38"/><path d="M17.307 8.787h-.073V8.64h.073v.147zm-.05-.024h.028v-.1h-.029v.1z" fill="#603913"/><path d="M17.403 11.716h-.881v.498h.881v-.498z" fill="#FFFD38"/><path d="M17.414 12.226h-.904v-.522h.904v.522zm-.881-.024h.859v-.474h-.86v.474z" fill="#603913"/><path d="M16.778 11.395h-.258v.353h.258v-.353z" fill="#FFFD38"/><path d="M16.789 11.76h-.28v-.378h.28v.378zm-.258-.024h.236v-.33h-.236v.33z" fill="#603913"/><path d="M17.461 12.181h-1v.129h1v-.129z" fill="#FFFD38"/><path d="M17.472 12.322H16.45v-.153h1.023v.153zm-1-.024h.978v-.105h-.979v.105z" fill="#603913"/><path d="M17.091 11.258h-.258v.49h.258v-.49z" fill="#FFFD38"/><path d="M17.102 11.76h-.28v-.514h.28v.513zm-.258-.024h.236v-.467h-.236v.467z" fill="#603913"/><path d="M17.397 11.419h-.258v.33h.258v-.33z" fill="#FFFD38"/><path d="M17.408 11.76h-.28v-.353h.28v.353zm-.258-.024h.236v-.306h-.236v.306z" fill="#603913"/><path d="M17.461 11.66h-1v.1h1v-.1z" fill="#FFFD38"/><path d="M17.472 11.772H16.45v-.124h1.023v.124zm-1-.024h.978v-.077h-.979v.077z" fill="#603913"/><path d="M17.207 12.143c0-.147-.11-.267-.248-.267-.137 0-.249.12-.249.268 0 .013.002.025.004.038h.49c.001-.013.003-.025.003-.039z" fill="#FFFD38"/><path d="M17.213 12.193h-.509l-.002-.014a.25.25 0 01-.003-.036c0-.154.116-.279.26-.279.142 0 .259.125.259.28l-.003.036-.002.013zm-.49-.024h.47a.21.21 0 00.003-.026c0-.14-.107-.255-.238-.255-.13 0-.237.115-.237.255l.002.026z" fill="#603913"/><path d="M17.147 12.144c0-.112-.084-.203-.188-.203s-.189.09-.189.203a.22.22 0 00.004.038h.37a.22.22 0 00.003-.038z" fill="#FFFD38"/><path d="M17.153 12.194h-.389l-.002-.01a.232.232 0 01-.003-.04c0-.119.09-.215.2-.215.11 0 .2.096.2.214a.232.232 0 01-.005.04l-.001.01zm-.37-.024h.351a.202.202 0 00.002-.027c0-.105-.08-.19-.178-.19-.097 0-.177.085-.177.19 0 .009 0 .018.002.027z" fill="#603913"/><path d="M16.814 11.403v-.114h-.075v-.067h-.062v.064h-.053v-.064h-.058v.064h-.082v.116l.33.001z" fill="#FFFD38"/><path d="M16.825 11.415l-.352-.002v-.14h.082v-.063h.08v.063h.031v-.063h.084v.066h.075v.139zm-.33-.026l.308.002v-.09h-.075v-.067h-.04v.063h-.075v-.063h-.036v.063h-.082v.092z" fill="#603913"/><path d="M17.128 11.253v-.114h-.076v-.066h-.062v.063h-.053v-.063h-.057v.063h-.083v.116l.33.001z" fill="#FFFD38"/><path d="M17.139 11.265l-.353-.002v-.14h.082v-.063h.08v.064h.031v-.064h.084v.067h.076v.138zm-.331-.025l.308.001v-.09h-.075v-.067H17v.064h-.075v-.064h-.035v.064h-.083v.092z" fill="#603913"/><path d="M17.433 11.412v-.115h-.075v-.066h-.062v.063h-.053v-.063h-.058v.063h-.082v.116l.33.002z" fill="#FFFD38"/><path d="M17.444 11.423l-.352-.001v-.14h.082v-.063h.08v.063h.03v-.063h.085v.066h.075v.138zm-.33-.025l.308.001v-.09h-.076v-.066h-.039v.063h-.075v-.063h-.036v.063h-.082v.092z" fill="#603913"/><path d="M16.67 11.46h-.041v.123h.042v-.123z" fill="#FFFD38"/><path d="M16.682 11.595h-.064v-.147h.064v.147zm-.042-.024h.02v-.1h-.02v.1z" fill="#603913"/><path d="M17.01 11.357h-.093v.1h.093v-.1z" fill="#FFFD38"/><path d="M17.021 11.468h-.114v-.123h.114v.123zm-.092-.023h.07v-.076h-.07v.076z" fill="#603913"/><path d="M17.296 11.46h-.05v.123h.05v-.123z" fill="#FFFD38"/><path d="M17.307 11.595h-.073v-.147h.073v.147zm-.05-.024h.028v-.1h-.029v.1z" fill="#603913"/><path d="M22.569 8.908h-.882v.498h.881v-.498z" fill="#FFFD38"/><path d="M22.58 9.418h-.904v-.522h.904v.522zm-.882-.024h.86V8.92h-.86v.474z" fill="#603913"/><path d="M21.944 8.586h-.258v.354h.258v-.354z" fill="#FFFD38"/><path d="M21.955 8.952h-.28v-.377h.28v.377zm-.258-.024h.236v-.33h-.236v.33z" fill="#603913"/><path d="M22.627 9.374h-1.001v.128h1v-.128z" fill="#FFFD38"/><path d="M22.638 9.515h-1.024v-.153h1.024v.153zm-1.001-.024h.979v-.105h-.98v.105z" fill="#603913"/><path d="M22.256 8.45H22v.49h.257v-.49z" fill="#FFFD38"/><path d="M22.268 8.952h-.28v-.514h.28v.514zm-.258-.024h.236v-.466h-.236v.466z" fill="#603913"/><path d="M22.562 8.61h-.257v.33h.257v-.33z" fill="#FFFD38"/><path d="M22.574 8.952h-.28v-.353h.28v.353zm-.258-.024h.236v-.306h-.236v.306z" fill="#603913"/><path d="M22.627 8.852h-1.001v.1h1v-.1z" fill="#FFFD38"/><path d="M22.638 8.964h-1.024V8.84h1.024v.124zm-1.001-.024h.979v-.076h-.98v.076z" fill="#603913"/><path d="M22.373 9.336c0-.148-.111-.267-.249-.267-.137 0-.248.12-.248.267 0 .013.002.026.004.038h.49c.001-.012.003-.025.003-.038z" fill="#FFFD38"/><path d="M22.378 9.386h-.508l-.002-.01-.003-.04c0-.154.116-.28.26-.28.142 0 .259.126.259.28a.267.267 0 01-.004.036l-.002.014zm-.49-.024h.471a.195.195 0 00.002-.026c0-.141-.106-.256-.237-.256-.13 0-.237.115-.237.256 0 .008 0 .017.002.026z" fill="#603913"/><path d="M22.313 9.336c0-.112-.085-.203-.189-.203s-.188.091-.188.203c0 .013 0 .026.003.038h.37a.209.209 0 00.004-.038z" fill="#FFFD38"/><path d="M22.319 9.385h-.389l-.002-.01a.235.235 0 01-.003-.04c0-.118.09-.214.2-.214.11 0 .199.096.199.214a.234.234 0 01-.004.04l-.002.01zm-.37-.023h.351a.203.203 0 00.002-.027c0-.105-.08-.19-.178-.19-.098 0-.177.085-.177.19 0 .009 0 .017.002.027z" fill="#603913"/><path d="M21.98 8.595V8.48h-.076v-.066h-.061v.063h-.053v-.063h-.058v.063h-.083v.116l.331.002z" fill="#FFFD38"/><path d="M21.99 8.606l-.352-.001v-.14h.083v-.063h.08v.063h.03v-.063h.084v.066h.076v.138zm-.33-.025l.309.002v-.091h-.076v-.066h-.04v.063h-.075v-.063h-.035v.063h-.083v.092z" fill="#603913"/><path d="M22.293 8.445v-.114h-.075v-.066h-.062v.063h-.053v-.063h-.058v.063h-.082v.116l.33.001z" fill="#FFFD38"/><path d="M22.304 8.458l-.352-.002v-.14h.082v-.063h.08v.063h.031v-.063h.084v.066h.075v.139zm-.33-.026l.308.002v-.091h-.075v-.066h-.04v.063h-.075v-.063h-.036v.063h-.082v.092z" fill="#603913"/><path d="M22.599 8.604v-.115h-.076v-.066h-.061v.063h-.054v-.063h-.057v.063h-.083v.116l.33.002z" fill="#FFFD38"/><path d="M22.61 8.615l-.353-.001v-.14h.083V8.41h.08v.063h.03V8.41h.084v.066h.076v.138zm-.33-.025l.308.001v-.09h-.076v-.067h-.04v.064h-.075v-.064h-.035v.064h-.083v.092z" fill="#603913"/><path d="M21.837 8.652h-.042v.123h.042v-.123z" fill="#FFFD38"/><path d="M21.848 8.787h-.065V8.64h.065v.147zm-.042-.024h.02v-.1h-.02v.1z" fill="#603913"/><path d="M22.176 8.55h-.093v.1h.093v-.1z" fill="#FFFD38"/><path d="M22.187 8.66h-.115v-.122h.115v.123zm-.093-.023h.07v-.076h-.07v.076z" fill="#603913"/><path d="M22.462 8.652h-.05v.123h.05v-.123z" fill="#FFFD38"/><path d="M22.473 8.787H22.4V8.64h.073v.147zm-.051-.024h.028v-.1h-.028v.1z" fill="#603913"/><path d="M22.569 11.716h-.882v.498h.881v-.498z" fill="#FFFD38"/><path d="M22.58 12.226h-.904v-.522h.904v.522zm-.882-.024h.86v-.474h-.86v.474z" fill="#603913"/><path d="M21.944 11.395h-.258v.353h.258v-.353z" fill="#FFFD38"/><path d="M21.955 11.76h-.28v-.378h.28v.378zm-.258-.024h.236v-.33h-.236v.33z" fill="#603913"/><path d="M22.627 12.182h-1.001v.128h1v-.128z" fill="#FFFD38"/><path d="M22.638 12.322h-1.024v-.152h1.024v.152zm-1.001-.023h.979v-.105h-.98v.104z" fill="#603913"/><path d="M22.257 11.258h-.258v.49h.258v-.49z" fill="#FFFD38"/><path d="M22.268 11.76h-.28v-.514h.28v.513zm-.258-.024h.236v-.467h-.236v.467z" fill="#603913"/><path d="M22.562 11.419h-.257v.33h.257v-.33z" fill="#FFFD38"/><path d="M22.574 11.76h-.28v-.353h.28v.353zm-.258-.024h.236v-.306h-.236v.306z" fill="#603913"/><path d="M22.627 11.66h-1.001v.1h1v-.1z" fill="#FFFD38"/><path d="M22.638 11.772h-1.024v-.124h1.024v.124zm-1.001-.024h.979v-.077h-.98v.077z" fill="#603913"/><path d="M22.373 12.143c0-.147-.111-.267-.249-.267-.137 0-.248.12-.248.268 0 .013.002.025.004.038h.49c.001-.013.003-.025.003-.039z" fill="#FFFD38"/><path d="M22.378 12.193h-.508l-.002-.01a.27.27 0 01-.003-.04c0-.154.116-.279.26-.279.142 0 .259.125.259.28a.22.22 0 01-.004.036l-.002.013zm-.49-.024h.471a.21.21 0 00.002-.026c0-.14-.106-.255-.237-.255-.13 0-.237.115-.237.255 0 .01 0 .018.002.026z" fill="#603913"/><path d="M22.313 12.144c0-.112-.085-.203-.189-.203s-.188.09-.188.203a.21.21 0 00.003.038h.37a.21.21 0 00.004-.038z" fill="#FFFD38"/><path d="M22.319 12.194h-.389l-.002-.01a.232.232 0 01-.003-.04c0-.119.09-.215.2-.215.11 0 .199.096.199.214a.232.232 0 01-.004.04l-.002.01zm-.37-.024h.351a.202.202 0 00.002-.027c0-.105-.08-.19-.178-.19-.098 0-.177.085-.177.19 0 .009 0 .018.002.027z" fill="#603913"/><path d="M21.98 11.402v-.114h-.076v-.066h-.061v.063h-.053v-.063h-.058v.063h-.083v.116l.331.002z" fill="#FFFD38"/><path d="M21.99 11.415l-.352-.002v-.14h.083v-.063h.08v.063h.03v-.063h.084v.066h.076v.139zm-.33-.026l.309.002v-.09h-.076v-.067h-.04v.063h-.075v-.063h-.035v.063h-.083v.092z" fill="#603913"/><path d="M22.293 11.253v-.114h-.075v-.066h-.062v.063h-.053v-.063h-.058v.063h-.082v.116l.33.001z" fill="#FFFD38"/><path d="M22.304 11.265l-.352-.002v-.14h.082v-.063h.08v.064h.031v-.064h.084v.067h.075v.138zm-.33-.025l.308.001v-.09h-.075v-.067h-.04v.064h-.075v-.064h-.036v.064h-.082v.092z" fill="#603913"/><path d="M22.599 11.412v-.114h-.076v-.067h-.061v.064h-.054v-.064h-.057v.064h-.083v.116l.33.001z" fill="#FFFD38"/><path d="M22.61 11.424l-.353-.002v-.14h.083v-.063h.08v.064h.03v-.064h.084v.067h.076v.138zm-.33-.025h.308v-.09h-.076v-.066h-.04v.063h-.075v-.063h-.035v.063h-.083v.093z" fill="#603913"/><path d="M21.837 11.46h-.042v.123h.042v-.123z" fill="#FFFD38"/><path d="M21.848 11.595h-.065v-.147h.065v.147zm-.042-.024h.02v-.1h-.02v.1z" fill="#603913"/><path d="M22.176 11.357h-.093v.1h.093v-.1z" fill="#FFFD38"/><path d="M22.187 11.468h-.115v-.123h.115v.123zm-.093-.023h.07v-.076h-.07v.076z" fill="#603913"/><path d="M22.462 11.46h-.05v.123h.05v-.123z" fill="#FFFD38"/><path d="M22.473 11.595H22.4v-.147h.073v.147zm-.051-.024h.028v-.1h-.028v.1z" fill="#603913"/><path d="M21.502 15.326l-.624-.67.328-.352.623.67-.327.352z" fill="#FFFD38"/><path d="M21.502 15.343l-.008-.008-.631-.68.343-.368.008.008.63.679-.007.008-.335.36zm-.608-.687l.608.653.311-.335-.607-.654-.312.336z" fill="#603913"/><path d="M21.366 14.521l-.182-.196.232-.25.183.196-.233.25z" fill="#FFFD38"/><path d="M21.366 14.538l-.198-.213.248-.267.198.213-.248.267zm-.166-.213l.166.179.217-.233-.167-.18-.216.234z" fill="#603913"/><path d="M21.48 15.438l-.709-.761.085-.091.708.761-.085.091z" fill="#FFFD38"/><path d="M21.48 15.455l-.009-.008-.715-.77.1-.108.008.009.715.77-.1.107zm-.693-.778l.692.744.069-.073-.692-.745-.07.074z" fill="#603913"/><path d="M21.588 14.76l-.183-.197.323-.346.182.196-.322.346z" fill="#FFFD38"/><path d="M21.588 14.776l-.008-.008-.19-.205.338-.363.198.213-.338.363zm-.167-.213l.167.18.306-.33-.166-.18-.307.33z" fill="#603913"/><path d="M21.804 14.992l-.183-.197.217-.232.182.195-.216.234z" fill="#FFFD38"/><path d="M21.804 15.008L21.796 15l-.19-.204.232-.25.198.213-.008.008-.224.241zm-.167-.212l.167.179.2-.216-.166-.18-.2.217z" fill="#603913"/><path d="M21.841 15.049l-.708-.761.066-.071.708.761-.066.071z" fill="#FFFD38"/><path d="M21.84 15.066l-.007-.008-.716-.77.082-.088.008.009.715.77-.081.087zm-.691-.778l.692.745.05-.055-.692-.744-.05.054z" fill="#603913"/><path d="M21.41 15.127a.282.282 0 000-.378.236.236 0 00-.352 0l-.022.03.346.372a.155.155 0 00.027-.024z" fill="#FFFD38"/><path d="M21.38 15.167l-.006-.007-.353-.38.008-.011a.25.25 0 01.205-.11c.069 0 .134.03.183.082a.295.295 0 010 .395.249.249 0 01-.027.023l-.01.008zm-.33-.39l.333.359a.269.269 0 00.019-.378.227.227 0 00-.336 0l-.016.02z" fill="#603913"/><path d="M21.367 15.082a.214.214 0 000-.287.18.18 0 00-.29.03l.263.281a.196.196 0 00.027-.024z" fill="#FFFD38"/><path d="M21.338 15.12l-.274-.294.005-.008a.192.192 0 01.165-.095c.053 0 .103.023.141.063a.227.227 0 01-.03.33l-.007.005zm-.246-.297l.249.267a.202.202 0 00.019-.287.17.17 0 00-.267.02z" fill="#603913"/><path d="M21.619 14.304l.075-.08-.053-.058.043-.047-.043-.047-.042.045-.038-.04.042-.046-.04-.043-.042.045-.059-.063-.076.082.233.252z" fill="#FFFD38"/><path d="M21.62 14.321l-.25-.27.092-.098.059.063.041-.045.057.06-.042.045.022.024.042-.045.059.064-.043.047.053.057-.09.098zm-.218-.269l.217.236.06-.065-.054-.057.044-.047-.028-.03-.042.045-.053-.058.041-.044-.024-.027-.042.045-.058-.063-.061.065z" fill="#603913"/><path d="M21.938 14.437l.076-.081-.054-.057.044-.047-.044-.047-.041.044-.038-.04.041-.045-.04-.043-.042.044-.058-.063-.076.082.232.253z" fill="#FFFD38"/><path d="M21.938 14.455l-.248-.27.092-.099.058.063.042-.044.056.06-.041.045.022.023.041-.044.06.063-.044.047.053.058-.09.098zm-.217-.27l.217.236.06-.064-.053-.058.043-.047-.028-.03-.041.045-.054-.057.042-.045-.025-.027-.042.045-.058-.063-.06.065z" fill="#603913"/><path d="M22.05 14.781l.076-.08-.054-.058.044-.047-.044-.047-.041.045-.038-.04.042-.045-.04-.044-.042.045-.059-.063-.076.082.233.252z" fill="#FFFD38"/><path d="M22.05 14.798l-.007-.008-.24-.261.091-.099.059.063.041-.045.056.06-.041.046.022.023.041-.045.06.064-.044.047.053.057-.09.098zm-.216-.269l.217.236.06-.065-.054-.057.043-.047-.028-.03-.041.045-.053-.058.041-.044-.025-.027-.041.045-.059-.063-.06.065z" fill="#603913"/><path d="M21.398 14.323l-.03-.032.082-.087.03.032-.082.087z" fill="#FFFD38"/><path d="M21.399 14.34l-.046-.048.097-.104.046.048-.097.104zm-.015-.048l.015.015.065-.07-.014-.016-.066.07z" fill="#603913"/><path d="M21.721 14.492l-.065-.07.065-.07.066.07-.066.07z" fill="#FFFD38"/><path d="M21.722 14.509l-.081-.087.08-.088.082.088-.081.087zm-.05-.087l.05.053.05-.053-.05-.054-.05.054z" fill="#603913"/><path d="M21.84 14.798l-.035-.038.081-.088.036.039-.082.087z" fill="#FFFD38"/><path d="M21.84 14.816l-.05-.056.096-.104.051.055-.097.105zm-.02-.056l.02.022.066-.07-.02-.022-.065.07z" fill="#603913"/><path d="M18.271 14.625l-.623.67-.328-.352.624-.67.327.352z" fill="#FFFD38"/><path d="M17.648 15.312l-.008-.009-.335-.36.008-.009.63-.679.344.37-.008.008-.631.679zm-.312-.37l.312.336.608-.654-.312-.335-.608.654z" fill="#603913"/><path d="M17.523 14.771l-.183.196-.232-.25.182-.196.233.25z" fill="#FFFD38"/><path d="M17.34 14.983l-.007-.008-.24-.258.197-.213.248.267-.198.212zm-.216-.266l.216.233.167-.18-.217-.232-.166.179z" fill="#603913"/><path d="M18.375 14.649l-.707.761-.085-.09.708-.762.084.091z" fill="#FFFD38"/><path d="M17.668 15.427l-.1-.107.723-.779.1.108-.008.009-.715.77zm-.07-.107l.07.074.692-.745-.07-.074-.691.745z" fill="#603913"/><path d="M17.744 14.533l-.183.196-.322-.346.183-.196.322.346z" fill="#FFFD38"/><path d="M17.562 14.745l-.008-.008-.33-.355.198-.213.338.364-.198.213zm-.307-.363l.307.33.166-.18-.306-.329-.167.18z" fill="#603913"/><path d="M17.96 14.3l-.182.196-.216-.233.182-.196.216.233z" fill="#FFFD38"/><path d="M17.778 14.513l-.232-.25.198-.213.232.25-.198.213zm-.2-.25l.2.216.167-.179-.201-.216-.167.18z" fill="#603913"/><path d="M18.014 14.26l-.708.761-.066-.07.708-.762.066.071z" fill="#FFFD38"/><path d="M17.306 15.038l-.082-.088.008-.008.716-.77.081.088-.008.008-.715.77zm-.05-.088l.05.054.692-.744-.05-.054-.693.744z" fill="#603913"/><path d="M18.087 14.724a.236.236 0 00-.352 0 .281.281 0 000 .378c.009.01.018.017.028.024l.346-.372-.022-.03z" fill="#FFFD38"/><path d="M17.764 15.142l-.01-.008a.194.194 0 01-.027-.023.295.295 0 010-.395.25.25 0 01.184-.082.25.25 0 01.205.111l.006.009-.005.009-.353.38zm.147-.484a.227.227 0 00-.168.075.27.27 0 00.019.378l.332-.358a.227.227 0 00-.184-.095z" fill="#603913"/><path d="M18.044 14.77a.18.18 0 00-.267 0 .214.214 0 000 .287c.009.01.018.017.028.024l.262-.281a.206.206 0 00-.023-.03z" fill="#FFFD38"/><path d="M17.806 15.097l-.007-.006a.192.192 0 01-.03-.026.227.227 0 010-.303.192.192 0 01.142-.063.192.192 0 01.165.094l.005.008-.007.007-.268.289zm.104-.374a.17.17 0 00-.125.055.201.201 0 00.019.288l.248-.268a.174.174 0 00-.142-.075z" fill="#603913"/><path d="M17.321 14.498l-.075-.08-.054.057-.043-.047-.044.047.042.045-.038.04-.042-.045-.04.044.041.045-.058.063.076.082.235-.25z" fill="#FFFD38"/><path d="M17.087 14.766l-.092-.099.058-.063-.041-.044.056-.06.041.044.022-.024-.041-.044.059-.064.043.047.054-.058.091.098-.25.267zm-.061-.099l.06.066.22-.234-.06-.064-.053.057-.044-.046-.028.03.042.044-.054.058-.041-.045-.025.027.041.044-.058.063z" fill="#603913"/><path d="M17.445 14.155l-.076-.08-.053.057-.043-.047-.044.047.041.044-.037.04-.042-.044-.04.044.041.045-.058.063.076.082.235-.25z" fill="#FFFD38"/><path d="M17.21 14.422l-.092-.098.058-.063-.041-.045.056-.06.042.044.022-.023-.042-.045.06-.064.043.047.053-.057.091.097-.25.267zm-.06-.098l.06.065.219-.234-.06-.064-.053.058-.044-.047-.028.03.042.045-.053.057-.042-.045-.025.027.042.045-.059.063z" fill="#603913"/><path d="M17.765 14.034l-.076-.08-.053.057-.044-.047-.043.047.041.045-.037.04-.042-.045-.04.044.041.045-.058.063.076.081.235-.25z" fill="#FFFD38"/><path d="M17.53 14.302l-.092-.099.059-.063-.042-.045.056-.06.042.045.022-.024-.042-.045.06-.063.043.046.054-.057.09.098-.25.267zm-.06-.099l.06.065.22-.233-.06-.064-.054.057-.043-.047-.028.03.041.045-.053.057-.042-.044-.025.026.042.045-.058.063z" fill="#603913"/><path d="M17.339 14.736l-.03.032-.081-.088.03-.032.08.088z" fill="#FFFD38"/><path d="M17.309 14.785l-.097-.104.046-.05.096.105-.045.049zm-.066-.104l.066.07.014-.015-.066-.07-.014.014z" fill="#603913"/><path d="M17.495 14.388l-.065.07-.066-.07.066-.07.065.07z" fill="#FFFD38"/><path d="M17.43 14.476l-.081-.088.08-.087.082.087-.081.088zm-.05-.088l.05.054.05-.054-.05-.053-.05.053z" fill="#603913"/><path d="M17.78 14.26l-.035.039-.081-.088.035-.038.082.087z" fill="#FFFD38"/><path d="M17.745 14.316l-.097-.104.052-.055.096.104-.051.055zm-.066-.104l.066.07.02-.021-.066-.07-.02.02z" fill="#603913"/><path d="M19.118 11.614h.905v.8s-.023.138-.077.216c-.155.235-.374.235-.374.235s-.238.003-.368-.235c-.066-.098-.081-.22-.081-.22l-.005-.796z" fill="#063796"/><path d="M19.667 12.17c0 .051-.039.093-.087.093-.049 0-.088-.042-.088-.094s.04-.094.088-.094c.048 0 .087.042.087.094zm-.244-.254c0 .052-.04.094-.088.094-.048 0-.087-.042-.087-.094s.039-.094.087-.094c.049 0 .088.042.088.094zm0 .51c0 .052-.04.094-.088.094-.048 0-.087-.042-.087-.094s.039-.094.087-.094c.049 0 .088.042.088.094zm.48-.51c0 .052-.04.094-.088.094-.048 0-.087-.042-.087-.094s.039-.094.087-.094c.048 0 .088.042.088.094zm0 .51c0 .052-.04.094-.088.094-.048 0-.087-.042-.087-.094s.039-.094.087-.094c.048 0 .088.042.088.094z" fill="#fff"/><path d="M20.268 11.614h.905v.8s-.023.138-.076.216c-.155.235-.374.235-.374.235s-.239.003-.369-.235c-.065-.098-.08-.22-.08-.22l-.006-.796z" fill="#063796"/><path d="M20.818 12.17c0 .051-.04.093-.088.093-.048 0-.087-.042-.087-.094s.039-.094.087-.094c.049 0 .088.042.088.094zm-.245-.254c0 .052-.039.094-.087.094-.048 0-.088-.042-.088-.094s.04-.094.088-.094c.048 0 .087.042.087.094zm0 .51c0 .052-.039.094-.087.094-.048 0-.088-.042-.088-.094s.04-.094.088-.094c.048 0 .087.042.087.094zm.48-.51c0 .052-.04.094-.088.094-.048 0-.087-.042-.087-.094s.04-.094.087-.094c.049 0 .088.042.088.094zm0 .51c0 .052-.04.094-.088.094-.048 0-.087-.042-.087-.094s.04-.094.087-.094c.049 0 .088.042.088.094z" fill="#fff"/><path d="M19.118 10.064h.905v.8s-.023.137-.077.216c-.155.235-.374.235-.374.235s-.238.003-.368-.235c-.066-.099-.081-.22-.081-.22l-.005-.796z" fill="#063796"/><path d="M19.667 10.618c0 .052-.039.095-.087.095-.049 0-.088-.043-.088-.095 0-.052.04-.094.088-.094.048 0 .087.043.087.095zm-.244-.252c0 .052-.04.094-.088.094-.048 0-.087-.043-.087-.095 0-.051.039-.094.087-.094.049 0 .088.043.088.095zm0 .509c0 .052-.04.094-.088.094-.048 0-.087-.042-.087-.094s.039-.094.087-.094c.049 0 .088.042.088.094zm.48-.509c0 .052-.04.094-.088.094-.048 0-.087-.043-.087-.095 0-.051.039-.094.087-.094.048 0 .088.043.088.095zm0 .509c0 .052-.04.094-.088.094-.048 0-.087-.042-.087-.094s.039-.094.087-.094c.048 0 .088.042.088.094z" fill="#fff"/><path d="M19.118 13.197h.905v.799s-.023.138-.077.216c-.155.236-.374.236-.374.236s-.238.003-.368-.235c-.066-.099-.081-.22-.081-.22l-.005-.796z" fill="#063796"/><path d="M19.667 13.752c0 .052-.039.094-.087.094-.049 0-.088-.042-.088-.094s.04-.094.088-.094c.048 0 .087.042.087.094zm-.244-.252c0 .051-.04.093-.088.093-.048 0-.087-.042-.087-.094s.039-.094.087-.094c.049 0 .088.043.088.094zm0 .509c0 .051-.04.094-.088.094-.048 0-.087-.043-.087-.094 0-.052.039-.094.087-.094.049 0 .088.042.088.094zm.48-.509c0 .051-.04.093-.088.093-.048 0-.087-.042-.087-.094s.039-.094.087-.094c.048 0 .088.043.088.094zm0 .509c0 .051-.04.094-.088.094-.048 0-.087-.043-.087-.094 0-.052.039-.094.087-.094.048 0 .088.042.088.094z" fill="#fff"/><path d="M17.915 11.639h.905v.799s-.023.138-.076.216c-.155.236-.374.236-.374.236s-.239.003-.369-.235c-.065-.099-.08-.22-.08-.22l-.006-.796z" fill="#063796"/><path d="M18.473 12.17c0 .051-.04.093-.088.093-.048 0-.087-.042-.087-.094s.039-.094.087-.094c.048 0 .088.042.088.094zm-.245-.254c0 .052-.04.094-.087.094-.049 0-.088-.042-.088-.094s.04-.094.088-.094c.048 0 .087.042.087.094zm0 .51c0 .052-.04.094-.087.094-.049 0-.088-.042-.088-.094s.04-.094.088-.094c.048 0 .087.042.087.094zm.48-.51c0 .052-.04.094-.088.094-.048 0-.087-.042-.087-.094s.039-.094.087-.094c.048 0 .088.042.088.094zm0 .51c0 .052-.04.094-.088.094-.048 0-.087-.042-.087-.094s.039-.094.087-.094c.048 0 .088.042.088.094z" fill="#fff"/></svg>