<svg width="16" height="18" fill="none" xmlns="http://www.w3.org/2000/svg"><path fill-rule="evenodd" clip-rule="evenodd" d="M5.6 0C4.724 0 4 .74 4 1.636a.626.626 0 00.173.44.6.6 0 00.427.183.588.588 0 00.427-.183.615.615 0 00.173-.44c0-.237.168-.409.4-.409h8c.232 0 .4.172.4.41V13.09a.391.391 0 01-.4.409.59.59 0 00-.43.177.616.616 0 00-.179.437.625.625 0 00.18.437.6.6 0 00.429.176c.876 0 1.6-.74 1.6-1.636V1.636C15.2.74 14.476 0 13.6 0h-8zM2.4 3.273c-.876 0-1.6.74-1.6 1.636v11.455C.8 17.26 1.524 18 2.4 18h8c.876 0 1.6-.74 1.6-1.636V4.909c0-.896-.724-1.636-1.6-1.636h-8zm0 1.227h8c.232 0 .4.172.4.41v11.454a.391.391 0 01-.4.409h-8a.391.391 0 01-.4-.41V4.91c0-.237.168-.409.4-.409z" fill="#374BFF"/></svg>