<svg width="58" height="58" fill="none" xmlns="http://www.w3.org/2000/svg"><path d="M55.583 53.167h-43.5a7.25 7.25 0 01-7.25-7.25v-43.5a2.417 2.417 0 10-4.833 0v43.5A12.098 12.098 0 0012.083 58h43.5a2.417 2.417 0 100-4.833z" fill="#000"/><path d="M14.5 48.333a2.417 2.417 0 002.417-2.416V29a2.417 2.417 0 00-4.834 0v16.917a2.417 2.417 0 002.417 2.416zm9.667-24.166v21.75a2.417 2.417 0 004.833 0v-21.75a2.417 2.417 0 10-4.833 0zm12.083 7.25v14.5a2.417 2.417 0 004.833 0v-14.5a2.417 2.417 0 10-4.833 0zm12.083-9.667v24.167a2.417 2.417 0 104.834 0V21.75a2.417 2.417 0 00-4.834 0zm-33.833 0c.64 0 1.255-.255 1.709-.708l8.666-8.666a2.477 2.477 0 013.417 0l5.249 5.249a7.25 7.25 0 0010.251 0l13.5-13.5A2.417 2.417 0 0053.875.708l-13.5 13.497a2.417 2.417 0 01-3.417 0L31.71 8.96a7.25 7.25 0 00-10.251 0l-8.667 8.666A2.417 2.417 0 0014.5 21.75z" fill="#000"/></svg>