<svg width="105" height="105" fill="none" xmlns="http://www.w3.org/2000/svg"><circle cx="52.5" cy="52.5" r="52.5" fill="#FFC671"/><path d="M30.425 57.25a2.425 2.425 0 100 4.85 7.275 7.275 0 017.275 7.275 2.425 2.425 0 104.85 0A12.125 12.125 0 0030.425 57.25zm-1.722 10.403a2.424 2.424 0 103.442 3.415 2.424 2.424 0 00-3.442-3.415zM69.225 33h-33.95A7.275 7.275 0 0028 40.275a2.425 2.425 0 104.85 0 2.425 2.425 0 012.425-2.425h33.95a2.425 2.425 0 012.425 2.425v24.25a2.425 2.425 0 01-2.425 2.425h-9.7a2.425 2.425 0 100 4.85h9.7a7.275 7.275 0 007.275-7.275v-24.25A7.275 7.275 0 0069.225 33zm-38.8 14.55a2.425 2.425 0 100 4.85A16.975 16.975 0 0147.4 69.375a2.425 2.425 0 104.85 0A21.825 21.825 0 0030.425 47.55z" fill="#000"/></svg>