<svg width="61" height="58" fill="none" xmlns="http://www.w3.org/2000/svg"><path d="M55.477 22.696h-5.043a5.049 5.049 0 00-5.043 5.043v5.044a5.048 5.048 0 005.043 5.043h5.044a5.048 5.048 0 005.043-5.043v-5.044a5.049 5.049 0 00-5.044-5.043zm0 10.087h-5.043v-5.044h5.044v5.044zm0-30.26h-5.043a5.049 5.049 0 00-5.043 5.043v5.043a5.049 5.049 0 005.043 5.044h5.044a5.049 5.049 0 005.043-5.044V7.566a5.049 5.049 0 00-5.044-5.044zm0 10.086h-5.043V7.566h5.044v5.043zm0 30.26h-5.043a5.048 5.048 0 00-5.043 5.044v5.044A5.049 5.049 0 0050.434 58h5.044a5.049 5.049 0 005.043-5.043v-5.044a5.048 5.048 0 00-5.044-5.043zm0 10.088h-5.043v-5.044h5.044v5.044zm-15.13-2.522a2.521 2.521 0 01-2.521 2.522h-15.13C10.182 52.957 0 42.777 0 30.26 0 17.746 10.183 7.566 22.695 7.566H32.81l-3.198-3.278a2.519 2.519 0 01.036-3.566 2.519 2.519 0 013.565.035l5.674 5.783c1.95 1.949 1.95 5.149-.017 7.113l-5.657 5.765a2.513 2.513 0 01-1.8.756 2.521 2.521 0 01-1.8-4.287l3.215-3.278H22.693c-9.734 0-17.652 7.918-17.652 17.652 0 9.734 7.918 17.652 17.652 17.652h15.13a2.521 2.521 0 012.522 2.522h.002z" fill="#000"/></svg>