<svg width="50" height="50" fill="none" xmlns="http://www.w3.org/2000/svg"><rect width="50" height="50" rx="10" fill="#fff"/><g clip-path="url(#clip0_135_121)"><path d="M25.333 14.403c3.563 0 3.98.016 5.389.08 1.302.058 2.006.275 2.477.46.625.243 1.07.53 1.535.995.466.466.757.91.995 1.535.18.471.402 1.175.46 2.477.064 1.408.08 1.826.08 5.389 0 3.562-.016 3.98-.08 5.388-.058 1.302-.275 2.006-.46 2.477a4.138 4.138 0 01-.995 1.535c-.466.466-.91.757-1.535.995-.471.18-1.175.403-2.477.46-1.408.064-1.826.08-5.389.08-3.562 0-3.98-.016-5.388-.08-1.302-.057-2.006-.275-2.477-.46a4.138 4.138 0 01-1.535-.995 4.074 4.074 0 01-.995-1.535c-.18-.47-.403-1.175-.46-2.477-.064-1.408-.08-1.826-.08-5.388 0-3.563.016-3.98.08-5.389.057-1.302.274-2.006.46-2.477.243-.624.529-1.07.995-1.535.466-.466.91-.757 1.535-.995.47-.18 1.175-.402 2.477-.46 1.408-.07 1.831-.08 5.388-.08zm0-2.403c-3.62 0-4.075.016-5.5.08-1.418.063-2.386.29-3.233.619a6.487 6.487 0 00-2.361 1.54 6.612 6.612 0 00-1.54 2.36c-.329.848-.556 1.816-.62 3.24-.063 1.419-.079 1.874-.079 5.494 0 3.62.016 4.076.08 5.5.063 1.418.29 2.387.619 3.24a6.492 6.492 0 001.54 2.36 6.614 6.614 0 002.36 1.54c.848.328 1.816.556 3.24.62 1.424.063 1.874.079 5.5.079 3.625 0 4.075-.016 5.5-.08 1.418-.063 2.386-.29 3.239-.619a6.5 6.5 0 002.36-1.54 6.616 6.616 0 001.54-2.36c.329-.848.556-1.816.62-3.24.063-1.424.08-1.874.08-5.5 0-3.625-.017-4.075-.08-5.5-.064-1.418-.291-2.386-.62-3.239a6.5 6.5 0 00-1.54-2.36 6.614 6.614 0 00-2.36-1.54c-.847-.329-1.816-.556-3.24-.62-1.429-.058-1.884-.074-5.505-.074z" fill="#52595C"/><path d="M25.333 14.403c3.563 0 3.98.016 5.389.08 1.302.058 2.006.275 2.477.46.625.243 1.07.53 1.535.995.466.466.757.91.995 1.535.18.471.402 1.175.46 2.477.064 1.408.08 1.826.08 5.389 0 3.562-.016 3.98-.08 5.388-.058 1.302-.275 2.006-.46 2.477a4.138 4.138 0 01-.995 1.535c-.466.466-.91.757-1.535.995-.471.18-1.175.403-2.477.46-1.408.064-1.826.08-5.389.08-3.562 0-3.98-.016-5.388-.08-1.302-.057-2.006-.275-2.477-.46a4.138 4.138 0 01-1.535-.995 4.074 4.074 0 01-.995-1.535c-.18-.47-.403-1.175-.46-2.477-.064-1.408-.08-1.826-.08-5.388 0-3.563.016-3.98.08-5.389.057-1.302.274-2.006.46-2.477.243-.624.529-1.07.995-1.535.466-.466.91-.757 1.535-.995.47-.18 1.175-.402 2.477-.46 1.408-.07 1.831-.08 5.388-.08z" fill="#52595C"/><path d="M25.333 18.49a6.85 6.85 0 10.002 13.7 6.85 6.85 0 00-.002-13.7zm0 11.29a4.446 4.446 0 110-8.893 4.446 4.446 0 110 8.893zm7.12-9.967a1.598 1.598 0 100-3.197 1.598 1.598 0 000 3.197z" fill="#fff"/></g><defs><clipPath id="clip0_135_121"><rect x="12" y="12" width="26.667" height="26.667" rx="10" fill="#fff"/></clipPath></defs></svg>