<svg width="50" height="50" fill="none" xmlns="http://www.w3.org/2000/svg"><rect width="50" height="50" rx="10" fill="#fff"/><g clip-path="url(#clip0_135_124)"><path d="M36.698 12h-22.73A1.968 1.968 0 0012 13.969v22.73a1.969 1.969 0 001.969 1.968h22.73a1.969 1.969 0 001.968-1.969v-22.73A1.968 1.968 0 0036.698 12zm-16.75 22.717h-4.01V21.982h4.01v12.735zm-2.007-14.5a2.302 2.302 0 112.315-2.3 2.27 2.27 0 01-2.315 2.3zm16.785 14.51h-4.008V27.77c0-2.052-.872-2.685-1.998-2.685-1.188 0-2.355.896-2.355 2.737v6.906h-4.01V21.99h3.856v1.765h.052c.387-.784 1.743-2.123 3.811-2.123 2.237 0 4.654 1.328 4.654 5.217l-.002 7.878z" fill="#52595C"/></g><defs><clipPath id="clip0_135_124"><rect x="12" y="12" width="26.667" height="26.667" rx="10" fill="#fff"/></clipPath></defs></svg>