<svg width="105" height="105" fill="none" xmlns="http://www.w3.org/2000/svg"><circle cx="52.5" cy="52.5" r="52.5" fill="#FFC671"/><path d="M57.105 42.508a3.308 3.308 0 00-3.12-2.206H51.43a2.953 2.953 0 00-.629 5.838l3.897.85a3.307 3.307 0 01-.708 6.542h-2.203a3.307 3.307 0 01-3.12-2.206m4.218-11.024v-3.308m0 19.846v-3.308" stroke="#000" stroke-width="3.308" stroke-linecap="round" stroke-linejoin="round"/><path d="M46.269 74h13.23m8.27-28.013a14.885 14.885 0 10-21.5 13.231v4.962a1.654 1.654 0 001.654 1.653h9.923A1.654 1.654 0 0059.5 64.18v-4.962a14.818 14.818 0 008.269-13.23z" stroke="#000" stroke-width="3.308" stroke-linecap="round" stroke-linejoin="round"/></svg>