<svg width="53" height="96" fill="none" xmlns="http://www.w3.org/2000/svg"><path d="M44.276.245c-1.2.415-2.37.978-3.985 1.94-.77.46-1.511.875-1.63.934a9.68 9.68 0 00-.666.4c-.237.163-.607.37-.815.444-.192.09-.4.208-.444.267-.045.06-.237.192-.444.281a20.63 20.63 0 00-1.111.637c-.4.252-.919.534-1.141.622-.237.104-.415.237-.415.297 0 .059-.074.118-.163.118-.089 0-.83.4-1.644.889-.8.489-1.496.889-1.526.889-.03 0-.71.385-1.51.859s-1.556.903-1.674.963a9.67 9.67 0 00-.667.4 5.31 5.31 0 01-.844.459c-.237.089-.415.222-.415.296 0 .074-.074.133-.163.133-.089 0-.711.326-1.392.741-.682.4-1.304.74-1.393.74-.089 0-.163.06-.163.149 0 .074-.06.148-.148.148-.118 0-2.4 1.289-3.407 1.926-.118.074-.548.31-.963.533-.4.222-.77.43-.815.489-.044.044-.37.237-.74.43-.37.192-.86.473-1.111.636a6.672 6.672 0 01-.844.445c-.237.088-.415.222-.415.296 0 .074-.074.133-.163.133-.089 0-.711.326-1.393.74-.68.4-1.303.742-1.392.742-.089 0-.163.059-.163.148 0 .074-.06.148-.148.148-.074 0-.8.385-1.585.859-.8.474-1.555.903-1.674.963a9.48 9.48 0 00-.666.4c-.237.163-.608.37-.815.444-.193.089-.4.207-.444.267-.045.059-.4.266-.786.474-.844.43-.948.503-2.029 1.2-.933.622-1.63 1.229-1.63 1.466 0 .074-.059.148-.133.148-.222 0-.607 1.244-.607 1.955 0 .37.104.934.237 1.23.252.607 1.748 2.148 2.074 2.148.118 0 .207.059.207.133 0 .074.178.207.415.296.222.09.607.297.844.445.252.163.74.444 1.111.637.37.192.696.37.74.414.075.09.89.563 2 1.185a52.27 52.27 0 011.793 1.052c.667.4 1.289.726 1.378.726.088 0 .162.06.162.118 0 .06.178.193.415.297.223.089.74.37 1.14.622.416.252.904.533 1.112.637.207.089.4.222.444.281.045.06.252.178.445.267.207.074.577.281.814.444.252.148.74.43 1.111.622.37.193.697.386.74.43.12.118 1.882 1.17 1.971 1.17.06 0 .756.4 1.57.889.815.489 1.556.889 1.644.889.075 0 .148.059.148.118 0 .06.178.193.415.296.223.09.608.297.845.46.251.163.74.444 1.11.637.37.192.697.385.741.444.045.06.252.178.445.267.207.074.577.281.814.444.252.163.548.34.667.4.118.06.874.489 1.674.963.8.474 1.526.859 1.6.859.074 0 .133.06.133.119s.178.192.415.296c.222.089.74.37 1.14.622.415.252.904.533 1.111.637.208.089.4.222.444.281.045.06.252.178.445.267.207.074.578.281.815.444.252.148.74.43 1.11.622.37.193.697.386.741.43.045.06.415.282.815.489.889.489 1.407.785 2.977 1.733.667.4 1.289.726 1.378.726.089 0 .163.059.163.148 0 .074.074.148.163.148.089 0 .71.326 1.392.74.682.4 1.304.741 1.393.741.089 0 .163.06.163.134 0 .074.148.192.325.251.46.134 2.637 1.66 3.407 2.37.356.326.919.934 1.23 1.334.326.4.622.755.666.8.075.074.89 1.733 1.378 2.814.222.489.237.504.311.148.133-.533.015-56.689-.104-57.4a29.618 29.618 0 01-.192-1.214c-.045-.356-.134-.667-.222-.711 0-.874-1.837-3.318-3.126-4-.71-.385-.948-.43-2.488-.474-1.378-.03-1.867.015-2.533.237zm-31.21 68.259l.16 24.645c.107.33.282.844.282.844.653.908 1.548 1.126 1.548 1.126s2.113.167 3.06-.218c.963-.37 2.43-1.111 2.622-1.319a2.55 2.55 0 01.445-.266 8.24 8.24 0 00.815-.474c.251-.148.74-.43 1.11-.622.37-.193.697-.386.741-.43.045-.06.415-.267.815-.489.948-.503 1.318-.726 1.407-.844.045-.06.237-.148.444-.207.208-.06.4-.163.445-.208.104-.133 1.881-1.2 1.985-1.2.06 0 .37-.177.726-.4a27.494 27.494 0 012.177-1.274c.208-.089.4-.222.445-.281.044-.06.251-.178.444-.267.207-.074.578-.281.815-.444.252-.148.74-.43 1.11-.622.37-.193.756-.43.86-.519.103-.103.252-.192.326-.192.074 0 .43-.208.785-.445.37-.251.696-.444.74-.444.06 0 .756-.4 1.556-.889.814-.489 1.525-.888 1.57-.888.06 0 .37-.178.726-.4.8-.534.992-.637 1.762-1.067.785-.43 2.74-1.91 3.422-2.592 1.319-1.319 2.681-3.555 2.86-4.696.058-.326.162-.622.221-.666.074-.045.134-.682.134-1.422 0-1.304-.208-2.37-.682-3.481-.118-.252-.207-.534-.207-.623 0-.089-.06-.163-.133-.163-.075 0-.193-.148-.252-.34-.267-.86-3.348-4.104-3.91-4.104-.075 0-.194-.088-.253-.207-.059-.118-.385-.355-.71-.533a19.538 19.538 0 01-1.038-.607 6.647 6.647 0 00-.844-.445c-.237-.089-.415-.207-.415-.281 0-.06-.118-.148-.252-.193-.281-.089-1.347-.681-2.34-1.289-.34-.207-.74-.444-.889-.548a23.749 23.749 0 00-1.037-.577c-.4-.222-.77-.43-.814-.49-.045-.044-.37-.236-.741-.429-.948-.489-2.281-1.244-2.37-1.348-.044-.044-.34-.222-.667-.385a18.007 18.007 0 01-1.333-.785c-.4-.252-.814-.474-.918-.474-.104 0-.193-.074-.193-.148a.148.148 0 00-.148-.148c-.089 0-.83-.4-1.644-.889-.815-.489-1.54-.889-1.615-.889-.074 0-.222-.089-.326-.192a6.22 6.22 0 00-.859-.534c-.37-.207-.696-.4-.74-.444-.045-.044-.37-.237-.741-.43a26.08 26.08 0 01-1.111-.622c-.237-.163-.607-.37-.815-.444-.192-.089-.4-.207-.444-.267-.044-.059-.37-.252-.74-.444-.371-.193-.86-.474-1.112-.637a5.31 5.31 0 00-.844-.46c-.237-.103-.415-.236-.415-.296 0-.059-.059-.118-.133-.118-.133 0-1.94-1.022-2.089-1.185-.044-.044-.34-.207-.666-.37-.326-.148-.874-.474-1.23-.697-.355-.222-.696-.414-.785-.414-.089 0-.118 8.769-.104 24.1z" fill="#fff"/></svg>