<svg width="105" height="105" fill="none" xmlns="http://www.w3.org/2000/svg"><circle cx="52.5" cy="52.5" r="52.5" fill="#FFC671"/><mask id="path-2-outside-1_138_1031" maskUnits="userSpaceOnUse" x="26" y="28" width="52" height="48" fill="#000"><path fill="#fff" d="M26 28h52v48H26z"/><path d="M59.456 61.045l-7.233-4.177a.776.776 0 00-.776 0l-7.233 4.177a.775.775 0 00-.388.671v8.331a.777.777 0 00.388.673l7.233 4.175a.772.772 0 00.776 0l7.233-4.175a.777.777 0 00.388-.672v-8.332a.776.776 0 00-.388-.671zm-7.621-2.608l5.681 3.28-5.681 3.28-5.681-3.28 5.681-3.28zm-6.457 4.624l5.68 3.28v6.539l-5.68-3.28v-6.54zM58.292 69.6l-5.68 3.28v-6.54l5.68-3.28v6.54zM40.927 45.19a.75.75 0 00.387-.103l3.296-1.902 6.837 3.951a.772.772 0 00.776 0l6.837-3.947 3.296 1.903a.776.776 0 10.776-1.345l-3.288-1.902v-7.893a.777.777 0 00-.388-.673l-7.233-4.175a.776.776 0 00-.776 0l-7.233 4.175a.777.777 0 00-.388.673v7.893l-3.288 1.898a.776.776 0 00.39 1.448zm15.108-5.547a.778.778 0 00-.776 1.346l2.252 1.3-4.9 2.826v-6.54l4.023-2.322 1.656-.958v5.653l-2.255-1.305zm-4.2-8.971l5.681 3.28-5.681 3.28-5.681-3.28 5.681-3.28zm-6.457 4.623l1.656.958 4.023 2.322v6.54l-4.897-2.827 2.252-1.3a.776.776 0 10-.776-1.346l-2.258 1.306v-5.653zm-.185 23.69a.776.776 0 10.776-1.345l-2.95-1.7v-7.872a.777.777 0 00-.389-.673l-7.233-4.177a.776.776 0 00-.776 0l-7.233 4.172a.776.776 0 00-.388.678v8.33a.776.776 0 00.388.672l7.233 4.177a.772.772 0 00.776 0l6.85-3.955 2.946 1.694zM35.009 44.783l5.681 3.28-5.68 3.28-5.682-3.274 5.681-3.286zm-6.457 4.625l1.656.957 4.025 2.323v6.538l-5.68-3.28v-6.538zm7.233 9.818v-6.538l4.024-2.323 1.655-.957v5.636l-2.648-1.528a.777.777 0 10-.776 1.345l2.653 1.531-4.908 2.834zM76.282 47.39l-7.233-4.177a.776.776 0 00-.776 0l-7.228 4.177a.777.777 0 00-.388.672v7.877l-2.95 1.703a.776.776 0 10.776 1.346l2.945-1.7 6.85 3.956a.772.772 0 00.776 0l7.233-4.177a.775.775 0 00.383-.673v-8.326a.778.778 0 00-.388-.678zm-7.621-2.608l5.68 3.28-5.68 3.28-5.681-3.274 5.68-3.286zm-2.753 9.016a.776.776 0 00-1.06-.283l-2.644 1.528v-5.636l1.655.957 4.023 2.323v6.538l-4.91-2.835 2.654-1.531a.778.778 0 00.282-1.06zm3.526 5.427v-6.538l4.028-2.323 1.656-.957v6.537l-5.684 3.28z"/></mask><path d="M59.456 61.045l-7.233-4.177a.776.776 0 00-.776 0l-7.233 4.177a.775.775 0 00-.388.671v8.331a.777.777 0 00.388.673l7.233 4.175a.772.772 0 00.776 0l7.233-4.175a.777.777 0 00.388-.672v-8.332a.776.776 0 00-.388-.671zm-7.621-2.608l5.681 3.28-5.681 3.28-5.681-3.28 5.681-3.28zm-6.457 4.624l5.68 3.28v6.539l-5.68-3.28v-6.54zM58.292 69.6l-5.68 3.28v-6.54l5.68-3.28v6.54zM40.927 45.19a.75.75 0 00.387-.103l3.296-1.902 6.837 3.951a.772.772 0 00.776 0l6.837-3.947 3.296 1.903a.776.776 0 10.776-1.345l-3.288-1.902v-7.893a.777.777 0 00-.388-.673l-7.233-4.175a.776.776 0 00-.776 0l-7.233 4.175a.777.777 0 00-.388.673v7.893l-3.288 1.898a.776.776 0 00.39 1.448zm15.108-5.547a.778.778 0 00-.776 1.346l2.252 1.3-4.9 2.826v-6.54l4.023-2.322 1.656-.958v5.653l-2.255-1.305zm-4.2-8.971l5.681 3.28-5.681 3.28-5.681-3.28 5.681-3.28zm-6.457 4.623l1.656.958 4.023 2.322v6.54l-4.897-2.827 2.252-1.3a.776.776 0 10-.776-1.346l-2.258 1.306v-5.653zm-.185 23.69a.776.776 0 10.776-1.345l-2.95-1.7v-7.872a.777.777 0 00-.389-.673l-7.233-4.177a.776.776 0 00-.776 0l-7.233 4.172a.776.776 0 00-.388.678v8.33a.776.776 0 00.388.672l7.233 4.177a.772.772 0 00.776 0l6.85-3.955 2.946 1.694zM35.009 44.783l5.681 3.28-5.68 3.28-5.682-3.274 5.681-3.286zm-6.457 4.625l1.656.957 4.025 2.323v6.538l-5.68-3.28v-6.538zm7.233 9.818v-6.538l4.024-2.323 1.655-.957v5.636l-2.648-1.528a.777.777 0 10-.776 1.345l2.653 1.531-4.908 2.834zM76.282 47.39l-7.233-4.177a.776.776 0 00-.776 0l-7.228 4.177a.777.777 0 00-.388.672v7.877l-2.95 1.703a.776.776 0 10.776 1.346l2.945-1.7 6.85 3.956a.772.772 0 00.776 0l7.233-4.177a.775.775 0 00.383-.673v-8.326a.778.778 0 00-.388-.678zm-7.621-2.608l5.68 3.28-5.68 3.28-5.681-3.274 5.68-3.286zm-2.753 9.016a.776.776 0 00-1.06-.283l-2.644 1.528v-5.636l1.655.957 4.023 2.323v6.538l-4.91-2.835 2.654-1.531a.778.778 0 00.282-1.06zm3.526 5.427v-6.538l4.028-2.323 1.656-.957v6.537l-5.684 3.28z" fill="#000"/><path d="M59.456 61.045l-7.233-4.177a.776.776 0 00-.776 0l-7.233 4.177a.775.775 0 00-.388.671v8.331a.777.777 0 00.388.673l7.233 4.175a.772.772 0 00.776 0l7.233-4.175a.777.777 0 00.388-.672v-8.332a.776.776 0 00-.388-.671zm-7.621-2.608l5.681 3.28-5.681 3.28-5.681-3.28 5.681-3.28zm-6.457 4.624l5.68 3.28v6.539l-5.68-3.28v-6.54zM58.292 69.6l-5.68 3.28v-6.54l5.68-3.28v6.54zM40.927 45.19a.75.75 0 00.387-.103l3.296-1.902 6.837 3.951a.772.772 0 00.776 0l6.837-3.947 3.296 1.903a.776.776 0 10.776-1.345l-3.288-1.902v-7.893a.777.777 0 00-.388-.673l-7.233-4.175a.776.776 0 00-.776 0l-7.233 4.175a.777.777 0 00-.388.673v7.893l-3.288 1.898a.776.776 0 00.39 1.448zm15.108-5.547a.778.778 0 00-.776 1.346l2.252 1.3-4.9 2.826v-6.54l4.023-2.322 1.656-.958v5.653l-2.255-1.305zm-4.2-8.971l5.681 3.28-5.681 3.28-5.681-3.28 5.681-3.28zm-6.457 4.623l1.656.958 4.023 2.322v6.54l-4.897-2.827 2.252-1.3a.776.776 0 10-.776-1.346l-2.258 1.306v-5.653zm-.185 23.69a.776.776 0 10.776-1.345l-2.95-1.7v-7.872a.777.777 0 00-.389-.673l-7.233-4.177a.776.776 0 00-.776 0l-7.233 4.172a.776.776 0 00-.388.678v8.33a.776.776 0 00.388.672l7.233 4.177a.772.772 0 00.776 0l6.85-3.955 2.946 1.694zM35.009 44.783l5.681 3.28-5.68 3.28-5.682-3.274 5.681-3.286zm-6.457 4.625l1.656.957 4.025 2.323v6.538l-5.68-3.28v-6.538zm7.233 9.818v-6.538l4.024-2.323 1.655-.957v5.636l-2.648-1.528a.777.777 0 10-.776 1.345l2.653 1.531-4.908 2.834zM76.282 47.39l-7.233-4.177a.776.776 0 00-.776 0l-7.228 4.177a.777.777 0 00-.388.672v7.877l-2.95 1.703a.776.776 0 10.776 1.346l2.945-1.7 6.85 3.956a.772.772 0 00.776 0l7.233-4.177a.775.775 0 00.383-.673v-8.326a.778.778 0 00-.388-.678zm-7.621-2.608l5.68 3.28-5.68 3.28-5.681-3.274 5.68-3.286zm-2.753 9.016a.776.776 0 00-1.06-.283l-2.644 1.528v-5.636l1.655.957 4.023 2.323v6.538l-4.91-2.835 2.654-1.531a.778.778 0 00.282-1.06zm3.526 5.427v-6.538l4.028-2.323 1.656-.957v6.537l-5.684 3.28z" stroke="#000" stroke-width="1.197" mask="url(#path-2-outside-1_138_1031)"/></svg>