<svg width="48" height="58" fill="none" xmlns="http://www.w3.org/2000/svg"><path d="M36 33.6a2.4 2.4 0 01-2.4 2.4H14.4a2.4 2.4 0 110-4.8h19.2a2.4 2.4 0 012.4 2.4zm-9.6 7.2h-12a2.4 2.4 0 000 4.8h12a2.4 2.4 0 000-4.8zM48 25.164V45.6a12.014 12.014 0 01-12 12H12a12.014 12.014 0 01-12-12V12A12.014 12.014 0 0112 0h10.836a16.699 16.699 0 0111.88 4.92l8.361 8.366A16.683 16.683 0 0148 25.164zM31.322 8.314A12.027 12.027 0 0028.8 6.442V16.8a2.4 2.4 0 002.4 2.4h10.358a11.96 11.96 0 00-1.874-2.52l-8.362-8.366zM43.2 25.164c0-.396-.077-.775-.113-1.164H31.2a7.2 7.2 0 01-7.2-7.2V4.913c-.389-.036-.77-.113-1.164-.113H12A7.2 7.2 0 004.8 12v33.6a7.2 7.2 0 007.2 7.2h24a7.2 7.2 0 007.2-7.2V25.164z" fill="#000"/></svg>