<svg width="59" height="58" fill="none" xmlns="http://www.w3.org/2000/svg"><path d="M57.325 26.092a2.416 2.416 0 00-3.42 0l-1.327 1.328L30.615 5.456l1.327-1.327a2.416 2.416 0 000-3.42 2.416 2.416 0 00-3.42 0L11.595 17.638a2.416 2.416 0 000 3.42 2.417 2.417 0 003.42-.001l1.405-1.405 9.255 9.255L.709 53.872a2.416 2.416 0 000 3.42c.472.471 1.09.708 1.71.708a2.41 2.41 0 001.71-.709l24.964-24.964 9.29 9.289-1.403 1.402a2.416 2.416 0 000 3.42 2.413 2.413 0 003.42-.001L57.327 29.51a2.416 2.416 0 000-3.42l-.003.003zm-21.978 5.652l-8.88-8.88 7.357-7.357 8.88 8.88-7.357 7.357zM27.195 8.876l3.21 3.21-7.357 7.356-3.21-3.21 7.357-7.356zm11.574 26.288l7.357-7.357 3.033 3.033-7.357 7.356-3.033-3.032z" fill="#000"/></svg>