<svg width="58" height="59" fill="none" xmlns="http://www.w3.org/2000/svg"><path d="M26.303 4.545A2.023 2.023 0 1026.302.5c-5.439.01-9.772.078-13.214.634-3.507.566-6.307 1.672-8.544 3.909C2.13 7.454 1.036 10.529.513 14.43 0 18.234 0 23.117 0 29.343v.31C0 35.88 0 40.762.513 44.57c.523 3.898 1.618 6.974 4.03 9.388 2.415 2.412 5.49 3.507 9.388 4.03 3.807.513 8.687.513 14.917.513h.307c6.23 0 11.11 0 14.919-.512 3.896-.526 6.971-1.619 9.386-4.033 2.233-2.234 3.34-5.037 3.906-8.542.559-3.445.626-7.777.634-13.214a2.024 2.024 0 00-4.047-.008c-.008 5.504-.083 9.505-.582 12.575-.486 3.01-1.35 4.902-2.774 6.329-1.538 1.538-3.615 2.417-7.065 2.881-3.507.472-8.115.475-14.53.475-6.416 0-11.024-.003-14.531-.475-3.45-.464-5.53-1.346-7.068-2.881-1.535-1.538-2.417-3.615-2.881-7.068-.47-3.508-.475-8.113-.475-14.53 0-6.416.005-11.024.475-14.531.464-3.448 1.348-5.53 2.883-7.066 1.425-1.424 3.319-2.285 6.327-2.773 3.07-.496 7.068-.572 12.572-.583z" fill="#000"/><path d="M39.536 2.522c0 1.117.907 2.023 2.024 2.023h9.53L31.023 24.617v-5.908a2.023 2.023 0 00-4.047 0V29.5c0 1.117.907 2.023 2.024 2.023h10.79a2.023 2.023 0 100-4.046h-5.907l20.07-20.072v9.534a2.024 2.024 0 004.047 0V2.522A2.024 2.024 0 0055.977.499H41.56a2.023 2.023 0 00-2.024 2.023z" fill="#000"/></svg>