<svg width="105" height="105" fill="none" xmlns="http://www.w3.org/2000/svg"><circle cx="52.5" cy="52.5" r="52.5" fill="#FFC671"/><path d="M68.763 30.055a5.806 5.806 0 00-1.822.436h-.008c-.557.22-3.203 1.334-7.225 3.02l-14.415 6.072c-10.344 4.354-20.512 8.643-20.512 8.643l.121-.047s-.7.23-1.433.732a3.965 3.965 0 00-1.145 1.107c-.359.527-.648 1.334-.54 2.168.175 1.41 1.09 2.255 1.745 2.722a5.794 5.794 0 001.297.693h.016l9.535 3.212c.427 1.373 2.905 9.52 3.501 11.397.352 1.12.693 1.822 1.121 2.357.207.273.45.501.74.685.151.088.313.157.48.207l-.097-.023c.03.007.053.03.074.039.078.021.13.029.23.044 1.51.457 2.722-.48 2.722-.48l.069-.055 5.63-5.125 9.435 7.238.215.092c1.967.863 3.958.383 5.01-.465a5.1 5.1 0 001.473-1.945l.069-.175L72.34 35.25c.207-.922.26-1.785.031-2.623a3.528 3.528 0 00-1.525-2.044 3.656 3.656 0 00-2.083-.528zm-.198 4.004c-.007.123.016.109-.039.345v.022L61.303 71.39c-.031.053-.084.168-.228.283-.153.121-.274.197-.908-.055l-11.541-8.847-6.971 6.354 1.464-9.354 18.856-17.575c.777-.722.517-.874.517-.874.055-.887-1.173-.26-1.173-.26l-23.777 14.73-.008-.04-11.396-3.837v-.008l-.03-.005a.518.518 0 00.06-.024l.062-.031.06-.021s10.176-4.289 20.52-8.643c5.179-2.182 10.396-4.378 14.41-6.073a1565.52 1565.52 0 017.146-2.988c.16-.063.084-.064.2-.064z" fill="#000"/></svg>