<svg width="63" height="63" fill="none" xmlns="http://www.w3.org/2000/svg"><path d="M31.38 5.25a26.333 26.333 0 0118.694 7.875H41.88a2.625 2.625 0 000 5.25h10.875a4.877 4.877 0 004.875-4.874V2.626a2.625 2.625 0 10-5.25 0V8.08A31.449 31.449 0 00.01 28.613 2.643 2.643 0 002.636 31.5a2.577 2.577 0 002.596-2.305A26.286 26.286 0 0131.38 5.251zM60.125 31.5a2.578 2.578 0 00-2.596 2.305 26.212 26.212 0 01-44.844 16.07h8.195a2.625 2.625 0 000-5.25H10.005a4.872 4.872 0 00-4.875 4.874v10.875a2.625 2.625 0 005.25 0V54.92a31.449 31.449 0 0052.367-20.532 2.643 2.643 0 00-2.622-2.888z" fill="#000"/></svg>