<svg width="253" height="90" fill="none" xmlns="http://www.w3.org/2000/svg"><path d="M8 19.798a5 5 0 014.875-4.999L126.5 11.961l113.375-2.833A5 5 0 01245 14.126v64.726a5 5 0 01-5.146 4.998l-227-6.616A5 5 0 018 72.236V19.798z" fill="#8DA4EA"/><path d="M49 10l165-7" stroke="url(#paint0_linear_205_1905)" stroke-width="2"/><path d="M49 82l165 7" stroke="url(#paint1_linear_205_1905)" stroke-width="2"/><circle cx="213" cy="2" r="2" fill="#8DA4EA"/><circle cx="221" cy="2" r="2" fill="#8DA4EA"/><circle cx="229" cy="2" r="2" fill="#8DA4EA"/><circle cx="213" cy="87" r="2" fill="#8DA4EA"/><circle cx="221" cy="87" r="2" fill="#8DA4EA"/><circle cx="229" cy="87" r="2" fill="#8DA4EA"/><circle cx="26.005" cy="10.245" r="2" transform="rotate(-1.753 26.005 10.245)" fill="#8DA4EA"/><circle cx="34.001" cy="10" r="2" transform="rotate(-1.753 34 10)" fill="#8DA4EA"/><circle cx="41.997" cy="9.755" r="2" transform="rotate(-1.753 41.997 9.755)" fill="#8DA4EA"/><circle cx="24.002" cy="80.804" r="2" transform="rotate(1.402 24.002 80.804)" fill="#8DA4EA"/><circle cx="32" cy="81" r="2" transform="rotate(1.402 32 81)" fill="#8DA4EA"/><circle cx="39.997" cy="81.196" r="2" transform="rotate(1.402 39.997 81.196)" fill="#8DA4EA"/><path d="M17 80.5l-8.747-.82A8 8 0 011 71.715v-52.43a8 8 0 017.253-7.965L17 10.5M236 88h8a8 8 0 008-8V11a8 8 0 00-8-8h-8" stroke="#fff" stroke-width="2"/><defs><linearGradient id="paint0_linear_205_1905" x1="58.586" y1="5.033" x2="209.183" y2="1.982" gradientUnits="userSpaceOnUse"><stop stop-color="#fff"/><stop offset="1" stop-color="#fff" stop-opacity="0"/></linearGradient><linearGradient id="paint1_linear_205_1905" x1="58.586" y1="86.967" x2="209.183" y2="90.018" gradientUnits="userSpaceOnUse"><stop stop-color="#fff"/><stop offset="1" stop-color="#fff" stop-opacity="0"/></linearGradient></defs></svg>