<svg width="21" height="13" xmlns="http://www.w3.org/2000/svg"><path d="M20.673 10.876c0-.083-.083-.083-.083-.166-.332-.664-1.08-1.494-2.076-2.408-.498-.415-.747-.747-.913-.913-.25-.332-.25-.581-.166-.913.083-.25.415-.664.996-1.412.332-.415.498-.664.747-.913 1.246-1.66 1.827-2.74 1.66-3.238L20.757.83c-.083-.083-.166-.166-.332-.166-.166-.083-.415-.083-.665 0h-3.737l-.083.083c-.083.083-.083.083-.083.166-.332.913-.747 1.66-1.162 2.49-.249.416-.498.831-.747 1.163-.25.332-.415.581-.581.747-.166.167-.332.25-.415.416-.084.083-.25.166-.25.083-.082 0-.165 0-.165-.083l-.25-.25c-.083-.083-.083-.249-.166-.415V.914c0-.083-.083-.249-.083-.332l-.248-.25c-.084-.082-.25-.082-.333-.166A7.447 7.447 0 009.963 0C8.634 0 7.72.083 7.389.25c-.166.082-.332.165-.415.331-.166.166-.166.25-.083.25.415.082.747.248.913.497l.083.166c.083.083.083.25.166.499s.083.498.083.83V4.15c0 .415-.083.664-.083.913 0 .25-.083.416-.166.499-.083.166-.083.249-.166.249 0 0 0 .083-.083.083s-.166.083-.332.083c-.083 0-.249-.083-.332-.166a1 1 0 01-.415-.416c-.166-.166-.332-.415-.498-.747-.166-.332-.415-.664-.581-1.162l-.167-.332c-.083-.166-.249-.498-.415-.913-.166-.415-.332-.748-.498-1.163a1.146 1.146 0 00-.249-.332h-.083S3.985.664 3.902.664 3.736.581 3.653.581H.664C.332.581.166.664.083.747L0 .83v.166c0 .083 0 .166.083.332.415.997.913 1.993 1.411 2.99.499.912.997 1.743 1.329 2.324.415.581.747 1.162 1.162 1.66.415.498.664.83.747.997l.332.332.25.249c.166.166.415.415.747.664.332.249.747.498 1.162.747.415.25.913.415 1.411.581.582.166 1.08.25 1.578.166h1.245a.754.754 0 00.581-.249l.083-.083c0-.083.083-.083.083-.166v-.332c0-.332 0-.581.083-.83.083-.25.083-.415.166-.581a1.15 1.15 0 01.25-.332l.166-.166h.083c.166-.083.415 0 .58.166.25.166.499.415.665.664.166.249.415.498.747.83.332.332.581.581.747.664l.25.166c.165.083.332.166.58.25.25.082.416.082.582.082l2.822-.083c.25 0 .499-.083.665-.166.166-.083.249-.166.249-.332v-.332c-.166-.166-.166-.249-.166-.332z"/></svg>