<svg width="1920" height="841" fill="none" xmlns="http://www.w3.org/2000/svg"><path d="M0 1l1920 272.756V841L0 541.19V1z" fill="#1FE5B4"/><path d="M1480.95 601.924l1.22-.217-1.22.217zm-65.14 102.585a1.23 1.23 0 00.87 1.513l10.71 2.906a1.234 1.234 0 00.65-2.381l-9.53-2.582 2.59-9.523a1.24 1.24 0 00-.87-1.513c-.66-.178-1.34.21-1.51.868l-2.91 10.712zM1429.31 502l-.86.884v.005c.01.004.01.011.02.02l.09.082c.07.075.18.187.33.337.3.301.74.751 1.3 1.348 1.13 1.193 2.76 2.968 4.74 5.288 3.98 4.641 9.4 11.456 15.15 20.141 11.51 17.377 24.34 42.201 29.66 72.035l2.43-.433c-5.4-30.265-18.4-55.404-30.03-72.964-5.82-8.783-11.3-15.679-15.33-20.384a145.205 145.205 0 00-4.83-5.377c-.57-.61-1.02-1.074-1.33-1.386-.16-.157-.27-.275-.36-.355l-.09-.091c-.01-.011-.02-.019-.02-.024-.01-.003-.01-.005-.01-.007v-.002l-.86.883zm50.43 100.14c5.25 29.468-10.4 54.811-27.64 72.925-8.6 9.038-17.53 16.219-24.32 21.141-3.4 2.46-6.25 4.353-8.26 5.629-1 .638-1.78 1.122-2.32 1.446-.27.161-.47.283-.61.363-.07.04-.12.071-.15.09l-.04.022c-.01.002-.01.004-.01.005v.001l.61 1.07c.61 1.07.61 1.07.62 1.069v-.002c0-.001 0-.003.01-.006.01-.006.02-.014.04-.025.04-.022.1-.055.17-.097.14-.085.36-.212.63-.378.56-.333 1.36-.828 2.38-1.478 2.04-1.299 4.94-3.22 8.37-5.712 6.88-4.983 15.94-12.261 24.67-21.437 17.42-18.315 33.74-44.427 28.28-75.059l-2.43.433zM428.766 334.21l1.15-.445-1.15.445zm162.163 82.895c.489.474.5 1.255.025 1.744l-7.734 7.961a1.233 1.233 0 11-1.769-1.718l6.875-7.077-7.077-6.875a1.233 1.233 0 111.719-1.769l7.961 7.734zM416.637 166l1.195.304-.001.002-.002.01-.011.042-.043.174-.165.696c-.144.617-.352 1.538-.604 2.741a219.847 219.847 0 00-1.916 10.466c-1.445 9.037-3.03 21.984-3.582 37.6-1.106 31.238 1.918 73.113 18.408 115.73l-2.3.89c-16.647-43.02-19.687-85.251-18.574-116.708.557-15.732 2.154-28.781 3.612-37.902a222.24 222.24 0 011.938-10.583 127.277 127.277 0 01.787-3.515l.046-.185a1.642 1.642 0 01.015-.061l.001-.003c0-.001 0-.002 1.196.302zm13.279 167.765c16.359 42.277 56.216 63.06 92.264 73.262 18 5.094 34.978 7.528 47.46 8.687 6.239.579 11.35.84 14.898.955 1.774.058 3.157.08 4.094.087.468.004.826.004 1.065.003l.269-.002h.066l.016-.001h.003l.019 1.233c.018 1.234.017 1.234.015 1.234h-.024l-.073.001-.282.002c-.248 0-.615 0-1.093-.003-.957-.008-2.36-.03-4.155-.088a253.87 253.87 0 01-15.046-.965c-12.585-1.169-29.72-3.623-47.904-8.769-36.319-10.279-77.114-31.385-93.892-74.746l2.3-.89z" fill="#FF7C33"/><path d="M330.849 460.028l13.03 10.87 43.503-58.515c1.535-2.064 2.13-4.563 1.657-6.948-.474-2.384-1.979-4.458-4.184-5.766l-1.143-.678a22.18 22.18 0 00-5.724-2.369l-47.139 63.406zm-22.174 30.27l-47.222 63.517a19.888 19.888 0 004.13 3.245l1.798 1.066c2.205 1.306 4.929 1.739 7.573 1.203 2.643-.534 4.991-1.993 6.527-4.056l43.503-58.516-16.309-6.459zm32.095-102.442l-103.222 139c-3.069 4.126-4.264 9.123-3.325 13.894.94 4.769 3.939 8.922 8.338 11.544l1.764 1.048c1.947 1.151 4.348 1.532 6.68 1.06 2.331-.472 4.402-1.76 5.758-3.58L373.35 393.825c1.35-1.824 1.873-4.03 1.456-6.135-.418-2.104-1.743-3.936-3.685-5.093l-1.14-.677c-4.576-2.696-10.216-3.585-15.69-2.472-5.474 1.112-10.335 4.135-13.521 8.408zm-66.576 80.473l21.888-29.342a184.993 184.993 0 00-3.72-2.383c-5.92-3.717-11.793-6.804-18.452-3.888-4.881 2.133-8.728 6.864-9.773 8.242l-.133.178c-1.244 1.669-4.598 6.579-4.92 11.455-.44 6.601 5.052 10.2 11.179 13.638 1.311.695 2.614 1.401 3.931 2.1zm37.005 18.536l76.194 30.41c.385.153.824.175 1.237.061a1.902 1.902 0 001.019-.686c.244-.328.356-.719.314-1.103a1.503 1.503 0 00-.544-.992l-61.005-50.799-17.215 23.109zm75.093-5.044l-11.786 15.805 14.883 12.379 17.078-22.903c1.089-1.46 1.511-3.227 1.175-4.913-.336-1.686-1.403-3.153-2.966-4.077a13.403 13.403 0 00-4.723-1.683 14.56 14.56 0 00-5.151.114 14.602 14.602 0 00-4.798 1.893 13.514 13.514 0 00-3.712 3.385zm-33.98 45.863c-2.001 2.683-2.778 5.932-2.16 9.032.617 3.1 2.579 5.796 5.454 7.496a7.295 7.295 0 002.568.916 7.968 7.968 0 005.412-1.092 7.33 7.33 0 002.019-1.841l17.077-22.903-18.585-7.414-11.785 15.806z" fill="#fff"/><g filter="url(#filter0_d_33_221)"><path d="M181.756 240.16c-31.018-39.341-36.776-43.379-36.776-57.838 0-19.805 18.351-35.86 40.989-35.86 22.638 0 40.989 16.055 40.989 35.86 0 14.459-5.758 18.497-36.776 57.838-2.036 2.573-6.39 2.573-8.426 0z" fill="#FF7C33"/><path d="M181.756 240.16c-31.018-39.341-36.776-43.379-36.776-57.838 0-19.805 18.351-35.86 40.989-35.86 22.638 0 40.989 16.055 40.989 35.86 0 14.459-5.758 18.497-36.776 57.838-2.036 2.573-6.39 2.573-8.426 0z" stroke="#fff" stroke-width=".822"/></g><path d="M211.924 186.907l-18.635-6.599a134.176 134.176 0 01-4.029 3.712l13.799 4.845a7.21 7.21 0 001.608.563 10.08 10.08 0 002.262.251c2.952 0 5.327-1.175 5.431-2.646-.144-.037-.295-.075-.436-.126z" fill="#fff"/><path d="M183.306 176.776c-8.933 10.386-14.234 16.985-15.127 18.883a3.334 3.334 0 00-.447 1.348c.211-.019.738-.139 1.93-.723a52.812 52.812 0 003.073-1.659l.347-.201 7.287 2.554.158.057c.192.063.369.126.591.182 2.619.707 4.84.154 5.187-.785.347-.94-.926-2.2-2.885-2.923l-.081-.028a5.654 5.654 0 00-.325-.113l-5.383-1.86.982-.704a131.53 131.53 0 0013.182-11.027l-8.489-3.001zm29.206 8.913a8.613 8.613 0 002.771.427c2.748 0 4.667-1.097 4.667-2.084 0-.656-.797-1.313-2.081-1.715h-.033l-48.874-17.296a6.652 6.652 0 00-.738-.261 8.938 8.938 0 00-2.479-.336c-2.753 0-4.668 1.097-4.668 2.083 0 .666.849 1.348 2.166 1.741l19.532 6.913 1.476.519 8.615 3.051 1.508.534 18.138 6.424zm-48.526-10.54c.376.17.772.31 1.18.414l13.035 4.576c1.336-1.484 2.583-2.828 3.575-3.903l-16.038-5.679c-2.066.39-3.534 1.389-3.534 2.565 0 .795.675 1.508 1.749 2.011l.033.016zm34.513-1.107l.296-.314c.601-.663 1.874-2.109 1.63-3.843-.335-2.42-3.597-5.138-6.74-4.56-1.874.343-2.952 1.722-3.295 2.2-.716.817-1.542 1.763-2.439 2.794l10.548 3.723zm-27.868 15.046l-2.512-.87a8.752 8.752 0 00-1.616-.607 8.012 8.012 0 00-3.546-.21c-.874.172-1.476.534-1.645.996-.332.898.859 2.136 2.774 2.878.166.066.34.126.517.182l3.468 1.217c.693-1.085 1.571-2.304 2.56-3.586z" fill="#fff"/><g filter="url(#filter1_d_33_221)"><path d="M64.914 267.968c-18.377-26.025-21.788-28.697-21.788-38.261 0-13.102 10.872-23.723 24.284-23.723 13.412 0 24.284 10.621 24.284 23.723 0 9.564-3.411 12.236-21.788 38.261-1.206 1.702-3.786 1.702-4.992 0z" fill="#FF7C33"/><path d="M64.914 267.968c-18.377-26.025-21.788-28.697-21.788-38.261 0-13.102 10.872-23.723 24.284-23.723 13.412 0 24.284 10.621 24.284 23.723 0 9.564-3.412 12.236-21.788 38.261-1.206 1.702-3.786 1.702-4.992 0z" stroke="#fff" stroke-width=".822"/></g><path d="M82.787 232.74l-11.04-4.366a84.052 84.052 0 01-2.387 2.455l8.175 3.206c.298.164.619.289.953.372.437.111.887.168 1.34.166 1.748 0 3.156-.777 3.217-1.75-.085-.025-.175-.05-.258-.083z" fill="#fff"/><path d="M65.832 226.038c-5.292 6.87-8.433 11.236-8.961 12.491a2.38 2.38 0 00-.265.892c.125-.013.437-.092 1.143-.478.575-.318 1.17-.676 1.82-1.098l.206-.133 4.317 1.69.094.038c.114.041.219.083.35.12 1.552.468 2.868.102 3.073-.519.206-.622-.548-1.456-1.709-1.934l-.048-.018a2.62 2.62 0 00-.192-.075l-3.19-1.231.582-.466a79.432 79.432 0 004.723-4.176 79.734 79.734 0 003.087-3.118l-5.03-1.985zm17.303 5.896c.524.192 1.08.288 1.642.282 1.628 0 2.765-.725 2.765-1.378 0-.434-.472-.869-1.233-1.135h-.02l-28.955-11.442a3.567 3.567 0 00-.437-.172 4.804 4.804 0 00-1.469-.223c-1.63 0-2.765.726-2.765 1.379 0 .44.503.891 1.283 1.151l11.572 4.574.874.343 5.104 2.018.894.354 10.745 4.249zm-28.749-6.973c.223.113.457.205.7.274l7.722 3.027c.791-.981 1.53-1.871 2.118-2.582l-9.502-3.756c-1.224.257-2.094.919-2.094 1.696 0 .526.4.998 1.036 1.33l.02.011zm20.448-.732l.174-.208c.357-.439 1.11-1.395.967-2.542-.2-1.601-2.132-3.399-3.994-3.017-1.11.227-1.748 1.14-1.952 1.456-.424.54-.913 1.166-1.444 1.848l6.249 2.463zm-16.511 9.954l-1.489-.576a4.88 4.88 0 00-.957-.402 4.287 4.287 0 00-2.1-.139c-.518.115-.875.354-.975.659-.197.595.509 1.414 1.644 1.904.098.044.2.084.306.121l2.054.804c.411-.717.931-1.523 1.517-2.371z" fill="#fff"/><g clip-path="url(#clip0_33_221)" fill="#fff"><path d="M1462.59 433.546l-14.31 5.473 32.45 56.206a8.626 8.626 0 005.23 4.029c2.2.597 4.55.293 6.52-.846l1.02-.591c1.58-.91 3.01-2.044 4.25-3.367l-35.16-60.904zm-17.04-56.513l-35.22-61.011c-1.53.413-3 1.023-4.37 1.815l-1.61.929a8.555 8.555 0 00-3.99 5.226 8.655 8.655 0 00.87 6.544l32.45 56.206 11.87-9.709zm73.47 66.024l-77.2-133.707a17.366 17.366 0 00-10.47-8.081 17.18 17.18 0 00-13.07 1.676l-1.58.914a7.603 7.603 0 00-3.53 4.623 7.697 7.697 0 00.77 5.786l87.19 151.02a7.685 7.685 0 004.63 3.558c1.95.528 4.02.26 5.77-.744l1.02-.59a17.82 17.82 0 008.27-10.867c1.21-4.582.56-9.468-1.8-13.588z"/><path d="M1476.26 388.052l16.14 27.97c1.16-.598 2.32-1.207 3.45-1.827 5.42-2.938 10.3-6.092 10.43-12.215.1-4.485-2.38-9.233-3.13-10.559l-.1-.17c-.91-1.59-3.74-6.041-7.71-8.217-5.37-2.949-10.53-.283-15.79 2.921-1.1.701-2.2 1.392-3.29 2.097zm-28.46-7.122l-54.38 44.172c-.27.223-.46.537-.52.886-.07.35 0 .71.17 1.018a1.5 1.5 0 001.83.651l65.44-25.013-12.54-21.714zm-23.97 57.73l-8.71-15.091-16.21 6.196 12.63 21.867a6.057 6.057 0 003.67 2.832c1.55.419 3.2.206 4.59-.594a10.994 10.994 0 003.25-2.86 10.947 10.947 0 001.91-3.893c.37-1.413.47-2.887.27-4.338-.19-1.45-.67-2.851-1.4-4.119zm-25.51-44.185a11.186 11.186 0 00-6.76-5.207 11.068 11.068 0 00-8.43 1.094c-.68.396-1.28.924-1.77 1.554-.48.631-.83 1.35-1.04 2.119-.2.768-.25 1.569-.14 2.359.1.789.36 1.55.76 2.241l12.62 21.867 13.47-10.937-8.71-15.09z"/></g><path d="M1477.52 670.898l1.54-3.356 12.98 8.669c.46.306.78.781.89 1.32.11.539 0 1.098-.31 1.554l-.16.237c-.24.364-.54.69-.87.97l-14.07-9.394zm-6.82-4.553l-14.09-9.41c.13-.361.3-.704.51-1.021l.25-.372c.3-.456.77-.772 1.31-.879.54-.106 1.1.006 1.56.311l12.98 8.669-2.52 2.702zm14.69 18.678l-30.88-20.622a4.162 4.162 0 01-1.16-5.755l.24-.366a1.83 1.83 0 012.54-.503l34.88 23.293c.41.271.69.691.78 1.167.1.477 0 .971-.27 1.375l-.15.236c-.64.945-1.62 1.6-2.74 1.82a4.346 4.346 0 01-3.24-.645zm-19.01-11.546l6.46 4.314c-.16.27-.33.538-.49.8-.8 1.257-1.63 2.38-3.1 2.318-1.08-.045-2.18-.714-2.49-.916l-.04-.026c-.36-.245-1.39-.992-1.85-1.98-.62-1.337.1-2.535.95-3.751.19-.252.37-.506.56-.759zm5.22-6.53l11.47-12.384a.373.373 0 01.22-.113c.09-.009.17.011.25.059.07.047.12.118.14.201.03.082.02.169-.02.247l-7.04 15.339-5.02-3.349zm14.25-4.867l-3.49-2.327 1.75-3.799 5.05 3.373c.32.215.54.548.62.927.07.379 0 .772-.22 1.093-.19.292-.44.542-.74.737-.29.195-.62.33-.96.399a2.67 2.67 0 01-2.01-.403zm-10.21-6.815a2.689 2.689 0 01-.75-3.714 1.519 1.519 0 01.93-.617 1.477 1.477 0 011.1.218l5.05 3.373-2.84 3.067-3.49-2.327zM476.695 383.586l-3.296-1.666 9.148-12.649a2.08 2.08 0 011.352-.834 2.07 2.07 0 011.542.364l.23.167c.355.257.67.564.937.912l-9.913 13.706zm-4.804 6.642l-9.93 13.729a4.397 4.397 0 01-1.002-.543l-.362-.262a2.063 2.063 0 01-.829-1.35 2.085 2.085 0 01.369-1.545l9.148-12.648 2.606 2.619zm19.214-13.982l-21.762 30.09a4.166 4.166 0 01-2.705 1.674 4.138 4.138 0 01-3.09-.726l-.356-.257a1.837 1.837 0 01-.407-2.561l24.579-33.985a1.844 1.844 0 011.196-.737 1.83 1.83 0 011.363.321l.231.167a4.305 4.305 0 011.715 2.807 4.326 4.326 0 01-.764 3.207zm-12.249 18.569l4.553-6.295c.263.172.524.347.781.523 1.226.838 2.317 1.714 2.2 3.183-.085 1.076-.795 2.151-1.008 2.45l-.027.038c-.259.358-1.044 1.353-2.049 1.776-1.359.572-2.529-.194-3.713-1.092-.244-.195-.491-.387-.737-.583zm-6.33-5.465l-11.947-11.924a.355.355 0 01-.037-.464.355.355 0 01.206-.139.352.352 0 01.247.028l15.065 7.612-3.534 4.887zm-4.332-14.414l-2.456 3.396-3.73-1.885 3.559-4.921a1.458 1.458 0 012.033-.331 2.67 2.67 0 011.031 2.79c-.082.342-.23.666-.437.951zm-7.191 9.943a2.687 2.687 0 01-1.747 1.079 2.67 2.67 0 01-1.992-.471 1.445 1.445 0 01-.583-.949 1.468 1.468 0 01.26-1.086l3.559-4.921 2.959 2.953-2.456 3.395zm-46.221-143.843l-.582-3.647h15.61a2.07 2.07 0 012.077 2.07v.284a4.532 4.532 0 01-.19 1.293h-16.915zm-8.197-.001h-16.944a4.404 4.404 0 01-.148-1.13v-.448c.001-.549.22-1.075.609-1.462a2.084 2.084 0 011.468-.607l15.61.001-.595 3.646zm22.588 7.376l-37.134-.001a4.17 4.17 0 01-2.942-1.211 4.138 4.138 0 01-1.222-2.929v-.44c0-.485.194-.95.538-1.293a1.844 1.844 0 011.298-.537l41.942.001c.487.001.953.194 1.297.537.345.343.538.808.539 1.293v.285a4.302 4.302 0 01-1.269 3.035 4.328 4.328 0 01-3.047 1.26zm-22.223.956l7.768.001c.014.314.026.628.034.939.039 1.485-.031 2.882-1.29 3.648-.922.562-2.209.616-2.576.619h-.047c-.442 0-1.708-.053-2.639-.619-1.261-.766-1.325-2.163-1.292-3.648.015-.313.027-.626.042-.94zm.718-8.332l2.661-16.668a.36.36 0 01.71 0l2.66 16.668h-6.031zm9.141-11.956h-4.191l-.658-4.128h6.073c.387 0 .758.153 1.032.426s.427.643.427 1.028a2.676 2.676 0 01-2.683 2.674zm-12.271-.001a2.684 2.684 0 01-1.897-.783 2.664 2.664 0 01-.786-1.89 1.442 1.442 0 01.427-1.029 1.456 1.456 0 011.032-.426l6.073.001-.658 4.127h-4.191z" fill="#fff"/><defs><filter id="filter0_d_33_221" x="137.169" y="141.939" width="97.599" height="111.25" filterUnits="userSpaceOnUse" color-interpolation-filters="sRGB"><feFlood flood-opacity="0" result="BackgroundImageFix"/><feColorMatrix in="SourceAlpha" values="0 0 0 0 0 0 0 0 0 0 0 0 0 0 0 0 0 0 127 0" result="hardAlpha"/><feOffset dy="3.289"/><feGaussianBlur stdDeviation="3.7"/><feColorMatrix values="0 0 0 0 0 0 0 0 0 0 0 0 0 0 0 0 0 0 0.25 0"/><feBlend in2="BackgroundImageFix" result="effect1_dropShadow_33_221"/><feBlend in="SourceGraphic" in2="effect1_dropShadow_33_221" result="shape"/></filter><filter id="filter1_d_33_221" x="35.315" y="201.462" width="64.189" height="78.883" filterUnits="userSpaceOnUse" color-interpolation-filters="sRGB"><feFlood flood-opacity="0" result="BackgroundImageFix"/><feColorMatrix in="SourceAlpha" values="0 0 0 0 0 0 0 0 0 0 0 0 0 0 0 0 0 0 127 0" result="hardAlpha"/><feOffset dy="3.289"/><feGaussianBlur stdDeviation="3.7"/><feColorMatrix values="0 0 0 0 0 0 0 0 0 0 0 0 0 0 0 0 0 0 0.25 0"/><feBlend in2="BackgroundImageFix" result="effect1_dropShadow_33_221"/><feBlend in="SourceGraphic" in2="effect1_dropShadow_33_221" result="shape"/></filter><clipPath id="clip0_33_221"><path fill="#fff" transform="rotate(150 731.08 449.572)" d="M0 0h197.328v230.216H0z"/></clipPath></defs></svg>