<svg width="1920" height="786" fill="none" xmlns="http://www.w3.org/2000/svg"><path d="M0 7l1920 252.949V786L0 507.962V7z" fill="#1FE5B4"/><path d="M435.694 426.876l11.271 10.387 35.9-54.068a8.656 8.656 0 001.281-6.477 8.563 8.563 0 00-3.66-5.466l-.984-.653a18.707 18.707 0 00-4.907-2.31l-38.901 58.587zm-18.851 28.391l-38.969 58.689a18.252 18.252 0 003.569 3.105l1.547 1.027a8.57 8.57 0 006.457 1.249 8.655 8.655 0 005.472-3.691l35.901-54.068-13.977-6.311zM443.29 360.1l-85.402 128.62a17.352 17.352 0 00-2.579 12.971 17.162 17.162 0 007.314 10.958l1.522 1.01a7.586 7.586 0 005.71 1.103 7.67 7.67 0 004.84-3.262l96.461-145.275a7.673 7.673 0 001.128-5.727 7.59 7.59 0 00-3.232-4.834l-.984-.654a17.84 17.84 0 00-13.412-2.572 18.028 18.028 0 00-11.366 7.662zm-54.419 74.779l17.866-26.906a160.011 160.011 0 00-3.17-2.274c-5.043-3.547-10.036-6.51-15.58-3.907-4.063 1.903-7.211 6.236-8.064 7.499l-.109.164c-1.016 1.53-3.746 6.038-3.928 10.562-.251 6.125 4.431 9.556 9.643 12.848 1.115.667 2.223 1.344 3.342 2.014zm30.462 16.639l63.753 29.05a1.485 1.485 0 001.86-.536 1.486 1.486 0 00-.228-1.922l-51.516-47.48-13.869 20.888zm62.366-4.215l-9.639 14.516 12.759 11.757 13.967-21.035a6.087 6.087 0 00.901-4.552 6.023 6.023 0 00-2.572-3.842 11.088 11.088 0 00-8.345-1.618 11.17 11.17 0 00-7.071 4.774zm-28.222 42.504a11.185 11.185 0 00-1.656 8.369 11.063 11.063 0 004.73 7.063 6.025 6.025 0 006.717-.036 6.118 6.118 0 001.667-1.681l13.967-21.035-15.787-7.197-9.638 14.517z" fill="#fff"/><path d="M311.464 223.006c-25.849-36.532-30.647-40.281-30.647-53.707 0-18.391 15.293-33.299 34.157-33.299 18.865 0 34.158 14.908 34.158 33.299 0 13.426-4.799 17.175-30.647 53.707-1.697 2.389-5.325 2.389-7.021 0z" fill="#FF7C33"/><path d="M311.464 223.006c-25.849-36.532-30.647-40.281-30.647-53.707 0-18.391 15.293-33.299 34.157-33.299 18.865 0 34.158 14.908 34.158 33.299 0 13.426-4.799 17.175-30.647 53.707-1.697 2.389-5.325 2.389-7.021 0z" stroke="#fff" stroke-width=".822"/><path d="M336.604 173.557l-15.53-6.128a119.845 119.845 0 01-3.357 3.446l11.498 4.5c.421.23.872.406 1.341.522a7.57 7.57 0 001.885.234c2.459 0 4.439-1.092 4.525-2.457-.12-.035-.246-.07-.362-.117z" fill="#fff"/><path d="M312.755 164.149c-7.444 9.644-11.862 15.772-12.606 17.534a3.34 3.34 0 00-.372 1.252c.176-.018.615-.129 1.608-.671a43.047 43.047 0 002.561-1.541l.289-.187 6.072 2.373.133.052c.159.059.307.117.492.169 2.183.657 4.033.143 4.322-.729.289-.872-.771-2.043-2.404-2.714l-.068-.026a4.19 4.19 0 00-.27-.105l-4.486-1.728.818-.653a112.234 112.234 0 0010.985-10.239l-7.074-2.787zm24.338 8.276a6.52 6.52 0 002.309.397c2.291 0 3.889-1.018 3.889-1.935 0-.61-.664-1.219-1.734-1.593h-.027l-40.728-16.06a5.17 5.17 0 00-.615-.243 6.787 6.787 0 00-2.066-.312c-2.294 0-3.89 1.019-3.89 1.935 0 .618.707 1.252 1.805 1.616l16.277 6.42 1.229.481 7.179 2.834 1.258.496 15.114 5.964zm-40.438-9.787c.314.159.643.288.984.385l10.862 4.249c1.113-1.378 2.152-2.626 2.979-3.625l-13.365-5.272c-1.722.362-2.945 1.29-2.945 2.381 0 .738.563 1.4 1.457 1.867l.028.015zm28.761-1.027l.246-.292c.501-.616 1.562-1.958 1.359-3.569-.28-2.247-2.998-4.771-5.617-4.234-1.562.318-2.46 1.599-2.746 2.043-.596.758-1.285 1.637-2.032 2.594l8.79 3.458zm-23.223 13.971l-2.094-.808a6.814 6.814 0 00-1.347-.564 6.014 6.014 0 00-2.954-.195c-.729.16-1.23.496-1.371.925-.277.834.716 1.984 2.312 2.673.138.061.282.116.43.169l2.89 1.129a47.986 47.986 0 012.134-3.329z" fill="#fff"/><path d="M224.914 267.968c-18.377-26.025-21.788-28.697-21.788-38.261 0-13.102 10.872-23.723 24.284-23.723 13.412 0 24.284 10.621 24.284 23.723 0 9.564-3.411 12.236-21.788 38.261-1.206 1.702-3.786 1.702-4.992 0z" fill="#FF7C33"/><path d="M224.914 267.968c-18.377-26.025-21.788-28.697-21.788-38.261 0-13.102 10.872-23.723 24.284-23.723 13.412 0 24.284 10.621 24.284 23.723 0 9.564-3.411 12.236-21.788 38.261-1.206 1.702-3.786 1.702-4.992 0z" stroke="#fff" stroke-width=".822"/><path d="M242.787 232.74l-11.04-4.366a84.319 84.319 0 01-2.387 2.455l8.175 3.206c.298.164.619.289.953.372a5.3 5.3 0 001.339.166c1.749 0 3.157-.777 3.218-1.75-.085-.025-.175-.05-.258-.083z" fill="#fff"/><path d="M225.832 226.038c-5.292 6.87-8.433 11.236-8.962 12.491a2.383 2.383 0 00-.264.892c.125-.013.437-.092 1.143-.478a30.21 30.21 0 001.821-1.098l.205-.133 4.317 1.69.094.038c.114.041.219.083.35.12 1.552.468 2.868.102 3.073-.52.206-.621-.548-1.455-1.709-1.933l-.048-.019a3.45 3.45 0 00-.192-.074l-3.189-1.231.581-.466a79.398 79.398 0 004.723-4.176 79.621 79.621 0 003.087-3.118l-5.03-1.985zm17.303 5.896a4.632 4.632 0 001.642.282c1.628 0 2.765-.725 2.765-1.378 0-.434-.472-.869-1.233-1.135h-.02l-28.955-11.442a3.509 3.509 0 00-.437-.172 4.806 4.806 0 00-1.469-.223c-1.63 0-2.765.726-2.765 1.379 0 .44.503.891 1.283 1.151l11.572 4.574.874.343 5.104 2.018.894.354 10.745 4.249zm-28.749-6.973c.223.113.457.205.699.274l7.723 3.027c.791-.981 1.53-1.871 2.118-2.582l-9.502-3.756c-1.224.257-2.094.919-2.094 1.696 0 .526.4.998 1.036 1.33l.02.011zm20.448-.732l.175-.208c.356-.438 1.11-1.395.966-2.542-.199-1.601-2.131-3.399-3.994-3.017-1.11.227-1.748 1.14-1.952 1.456-.424.54-.913 1.166-1.444 1.848l6.249 2.463zm-16.511 9.954l-1.488-.576a4.89 4.89 0 00-.958-.402 4.285 4.285 0 00-2.1-.139c-.518.115-.875.354-.975.659-.197.595.509 1.414 1.644 1.904.098.044.201.084.306.121l2.054.804c.411-.717.931-1.523 1.517-2.371z" fill="#fff"/><g clip-path="url(#clip0_140_2)" fill="#fff"><path d="M1621.32 405.094l-14.32 5.473 32.45 56.206a8.682 8.682 0 005.23 4.029 8.55 8.55 0 006.52-.846l1.03-.591c1.57-.91 3-2.044 4.25-3.366l-35.16-60.905zm-15.77-28.061l-35.22-61.011c-1.53.413-3 1.023-4.37 1.815l-1.61.929a8.555 8.555 0 00-3.99 5.226 8.655 8.655 0 00.87 6.544l32.45 56.206 11.87-9.709zm73.47 66.024l-77.2-133.707a17.366 17.366 0 00-10.47-8.081 17.18 17.18 0 00-13.07 1.676l-1.58.914a7.603 7.603 0 00-3.53 4.623 7.697 7.697 0 00.77 5.786l87.19 151.02a7.685 7.685 0 004.63 3.558c1.95.528 4.02.26 5.77-.744l1.02-.59a17.82 17.82 0 008.27-10.867c1.21-4.582.56-9.468-1.8-13.588z"/><path d="M1636.26 388.052l16.14 27.97c1.16-.598 2.32-1.207 3.45-1.827 5.42-2.938 10.3-6.092 10.43-12.215.1-4.485-2.38-9.233-3.13-10.559l-.1-.17c-.91-1.59-3.74-6.041-7.71-8.217-5.37-2.949-10.53-.283-15.79 2.92-1.1.702-2.2 1.393-3.29 2.098zm-28.46-7.122l-54.38 44.172c-.27.223-.46.537-.52.886-.07.35 0 .71.17 1.018a1.5 1.5 0 001.83.651l65.44-25.013-12.54-21.714zm-23.97 57.73l-8.71-15.091-16.21 6.196 12.63 21.867a6.057 6.057 0 003.67 2.832c1.55.419 3.2.206 4.59-.594a10.994 10.994 0 003.25-2.86 10.947 10.947 0 001.91-3.893c.37-1.413.47-2.887.27-4.338-.19-1.45-.67-2.851-1.4-4.119zm-25.51-44.185a11.186 11.186 0 00-6.76-5.207 11.068 11.068 0 00-8.43 1.094c-.68.396-1.29.924-1.77 1.554-.48.631-.83 1.35-1.04 2.119-.2.768-.25 1.569-.14 2.359.1.789.36 1.55.76 2.241l12.62 21.867 13.47-10.937-8.71-15.09z"/></g><defs><clipPath id="clip0_140_2"><path fill="#fff" transform="rotate(150 811.08 471.008)" d="M0 0h197.328v230.216H0z"/></clipPath></defs></svg>