<svg width="150" height="52" fill="none" xmlns="http://www.w3.org/2000/svg"><rect width="150" height="52" rx="10" fill="#fff"/><path d="M26.276 11.947l1.053-1.82a2.369 2.369 0 013.237-.871 2.37 2.37 0 01.87 3.237L21.29 30.056h7.339c2.379 0 3.711 2.795 2.678 4.732H9.792a2.358 2.358 0 01-2.366-2.366 2.358 2.358 0 012.366-2.366h6.032l7.722-13.384-2.412-4.186a2.372 2.372 0 01.871-3.237 2.372 2.372 0 013.237.871l1.034 1.827zM17.15 37.225l-2.275 3.946a2.369 2.369 0 01-3.237.871 2.369 2.369 0 01-.871-3.237l1.69-2.925c1.91-.592 3.464-.137 4.693 1.345zm19.59-7.156h6.156a2.358 2.358 0 012.366 2.366 2.358 2.358 0 01-2.366 2.366h-3.419l2.308 4.004a2.372 2.372 0 01-.871 3.237 2.372 2.372 0 01-3.237-.871c-3.887-6.74-6.806-11.784-8.743-15.145-1.982-3.419-.565-6.851.832-8.014 1.554 2.665 3.874 6.688 6.975 12.057z" fill="#0D92F6"/><path d="M62.64 29.57L59.548 39h-2.492l4.226-11.375h1.586l-.226 1.945zM65.21 39l-3.1-9.43-.25-1.945h1.6L67.71 39h-2.5zm-.14-4.234v1.836h-6.007v-1.836h6.007zm5.555-2.594V42.25h-2.25V30.547h2.086l.164 1.625zm5.352 2.508v.164c0 .614-.073 1.185-.22 1.71-.14.527-.348.985-.624 1.376-.276.385-.62.687-1.031.906-.407.214-.875.32-1.407.32-.515 0-.963-.104-1.343-.312a2.8 2.8 0 01-.961-.875 5.059 5.059 0 01-.618-1.32c-.156-.5-.276-1.037-.359-1.61v-.43c.083-.614.203-1.177.36-1.687a4.87 4.87 0 01.617-1.336 2.8 2.8 0 01.953-.883c.38-.208.825-.312 1.336-.312.536 0 1.007.101 1.414.304a2.78 2.78 0 011.031.875c.281.38.492.834.633 1.36a6.54 6.54 0 01.219 1.75zm-2.258.164v-.164c0-.36-.031-.69-.094-.992a2.574 2.574 0 00-.281-.805 1.367 1.367 0 00-.5-.531 1.347 1.347 0 00-.742-.196c-.308 0-.57.05-.79.149a1.317 1.317 0 00-.523.43 1.989 1.989 0 00-.305.671 4.34 4.34 0 00-.125.883v1.086c.026.385.1.732.22 1.04.119.301.304.54.554.718.25.177.578.265.984.265.297 0 .547-.065.75-.195a1.5 1.5 0 00.492-.555c.13-.234.222-.505.274-.812.057-.307.086-.638.086-.992zm5.906-2.672V42.25h-2.25V30.547h2.086l.164 1.625zm5.352 2.508v.164c0 .614-.073 1.185-.22 1.71-.14.527-.348.985-.624 1.376-.276.385-.62.687-1.031.906-.407.214-.875.32-1.407.32-.515 0-.963-.104-1.343-.312a2.8 2.8 0 01-.961-.875 5.059 5.059 0 01-.618-1.32c-.156-.5-.276-1.037-.359-1.61v-.43c.083-.614.203-1.177.36-1.687a4.87 4.87 0 01.617-1.336 2.8 2.8 0 01.953-.883c.38-.208.825-.312 1.336-.312.536 0 1.007.101 1.414.304a2.78 2.78 0 011.031.875c.281.38.492.834.633 1.36a6.54 6.54 0 01.219 1.75zm-2.258.164v-.164c0-.36-.031-.69-.094-.992a2.574 2.574 0 00-.281-.805 1.367 1.367 0 00-.5-.531 1.347 1.347 0 00-.742-.196c-.308 0-.57.05-.79.149a1.317 1.317 0 00-.523.43 1.989 1.989 0 00-.305.671 4.34 4.34 0 00-.125.883v1.086c.026.385.1.732.22 1.04.119.301.304.54.554.718.25.177.578.265.984.265.297 0 .547-.065.75-.195a1.5 1.5 0 00.492-.555c.13-.234.222-.505.274-.812.057-.307.086-.638.086-.992zm13.703 1.18a1.49 1.49 0 00-.094-.547 1.033 1.033 0 00-.328-.454 2.909 2.909 0 00-.68-.414 9.608 9.608 0 00-1.132-.422 14.35 14.35 0 01-1.47-.562 6.03 6.03 0 01-1.218-.727 3.272 3.272 0 01-.828-.976c-.198-.37-.297-.8-.297-1.29 0-.473.104-.903.313-1.288.208-.39.5-.724.874-1a4.156 4.156 0 011.329-.649 6.014 6.014 0 011.695-.226c.838 0 1.57.15 2.195.453.625.302 1.11.716 1.453 1.242.35.526.524 1.128.524 1.805H96.43c0-.334-.07-.625-.211-.875a1.427 1.427 0 00-.625-.602c-.276-.146-.625-.219-1.047-.219-.406 0-.745.063-1.016.188-.27.12-.474.284-.61.492a1.212 1.212 0 00-.202.688c0 .192.047.367.14.523.1.156.245.302.438.438.193.135.43.263.71.382.282.12.608.237.977.352.62.187 1.164.398 1.633.633.474.234.87.497 1.188.789.317.291.557.622.718.992.162.37.243.79.243 1.258 0 .495-.097.937-.29 1.328-.192.39-.47.721-.835.992s-.8.477-1.305.617a6.32 6.32 0 01-1.695.211 6.432 6.432 0 01-1.664-.218 5.052 5.052 0 01-1.493-.68 3.426 3.426 0 01-1.062-1.156c-.266-.47-.399-1.024-.399-1.664h2.352c0 .354.055.653.164.898.11.245.263.443.461.594.203.15.443.26.719.328.281.067.588.101.922.101.406 0 .74-.057 1-.172.265-.114.46-.273.586-.476.13-.203.195-.432.195-.688zm7.937-5.477v1.594h-4.921v-1.594h4.921zm-3.703-2.086h2.25v7.992c0 .245.032.432.094.563.068.13.167.221.297.273.13.047.294.07.492.07.141 0 .266-.005.375-.015a4.86 4.86 0 00.289-.047l.008 1.656a4.24 4.24 0 01-.625.149 4.64 4.64 0 01-.742.054c-.495 0-.927-.08-1.297-.242a1.785 1.785 0 01-.844-.797c-.198-.364-.297-.844-.297-1.437v-8.22zm4.422 6.398v-.164c0-.62.089-1.19.266-1.71.177-.527.435-.982.773-1.368a3.468 3.468 0 011.25-.898c.495-.219 1.063-.328 1.703-.328.641 0 1.211.109 1.711.328.5.213.92.513 1.258.898.344.386.604.841.781 1.367.177.521.266 1.091.266 1.711v.164c0 .615-.089 1.185-.266 1.711a3.973 3.973 0 01-.781 1.367 3.459 3.459 0 01-1.25.899c-.495.214-1.062.32-1.703.32s-1.211-.106-1.711-.32a3.541 3.541 0 01-1.258-.898 4.063 4.063 0 01-.773-1.368 5.333 5.333 0 01-.266-1.71zm2.25-.164v.164c0 .355.031.685.094.993.062.307.161.578.297.812.14.23.323.409.547.54.224.13.497.194.82.194.312 0 .581-.065.805-.195.224-.13.403-.31.539-.539.135-.234.234-.505.297-.812a4.66 4.66 0 00.101-.993v-.164c0-.343-.034-.666-.101-.968a2.584 2.584 0 00-.305-.813 1.517 1.517 0 00-.539-.562 1.543 1.543 0 00-.813-.204c-.317 0-.588.068-.812.204a1.59 1.59 0 00-.539.562 2.652 2.652 0 00-.297.813 4.74 4.74 0 00-.094.968zm9.391-2.304V39h-2.25v-8.453h2.117l.133 1.844zm2.547-1.899l-.039 2.086a5.514 5.514 0 00-.399-.039 4.03 4.03 0 00-.414-.023 2.47 2.47 0 00-.828.125 1.477 1.477 0 00-.578.351 1.534 1.534 0 00-.344.57 2.79 2.79 0 00-.125.766l-.453-.14c0-.547.055-1.05.164-1.508a4.14 4.14 0 01.477-1.211c.213-.344.474-.61.781-.797a1.983 1.983 0 011.054-.281c.126 0 .253.01.383.03.131.017.237.04.321.071zm4.796 8.664c-.656 0-1.244-.104-1.765-.312a3.87 3.87 0 01-1.328-.883 3.902 3.902 0 01-.828-1.305 4.386 4.386 0 01-.289-1.593v-.313c0-.64.091-1.227.273-1.758.182-.531.443-.992.781-1.383a3.44 3.44 0 011.25-.898c.49-.214 1.042-.32 1.656-.32.599 0 1.131.099 1.594.297a3.11 3.11 0 011.164.843c.318.365.558.802.719 1.313.162.505.242 1.067.242 1.687v.938h-6.719v-1.5h4.508v-.172c0-.313-.057-.591-.172-.836a1.324 1.324 0 00-.5-.594c-.224-.146-.51-.219-.859-.219-.297 0-.552.066-.766.196a1.51 1.51 0 00-.523.547c-.13.234-.229.51-.297.828a5.304 5.304 0 00-.094 1.031v.313c0 .338.047.65.141.937.099.286.237.534.414.742.182.209.401.37.656.485.261.114.555.171.883.171.406 0 .784-.078 1.133-.234.354-.161.659-.404.914-.727l1.094 1.188c-.177.255-.42.5-.727.734a3.866 3.866 0 01-1.094.578 4.511 4.511 0 01-1.461.22zM63.398 18.34h.721c-.058.574-.217 1.07-.474 1.488a2.57 2.57 0 01-1.055.955c-.446.223-.983.334-1.612.334-.484 0-.923-.092-1.318-.275a2.922 2.922 0 01-1.008-.78 3.639 3.639 0 01-.65-1.218 5.119 5.119 0 01-.229-1.576V16.2c0-.578.077-1.101.229-1.57a3.58 3.58 0 01.656-1.219c.285-.34.627-.602 1.026-.785a3.184 3.184 0 011.347-.275c.606 0 1.13.11 1.57.333a2.5 2.5 0 011.044.95c.257.414.416.914.474 1.5h-.72c-.055-.461-.176-.852-.364-1.172a1.855 1.855 0 00-.78-.732c-.327-.172-.736-.258-1.224-.258-.398 0-.754.076-1.066.228a2.22 2.22 0 00-.797.656 3.05 3.05 0 00-.504 1.014 4.77 4.77 0 00-.17 1.318v1.079c0 .468.055.9.164 1.294.11.395.27.737.48 1.026.215.289.477.514.786.674.308.16.66.24 1.054.24.504 0 .924-.08 1.26-.24.34-.164.604-.407.791-.727.188-.32.31-.719.37-1.195zm3.059-3.68V21h-.703v-6.34h.703zm4.172 0l-2.906 3.434H66.21l-.076-.627h1.289l2.32-2.807h.885zM69.996 21l-2.642-3 .445-.54L70.922 21h-.926zm5.795-1.137v-3.27c0-.3-.063-.56-.188-.778a1.234 1.234 0 00-.55-.505c-.242-.117-.541-.175-.897-.175-.328 0-.62.058-.879.175a1.515 1.515 0 00-.603.463 1.035 1.035 0 00-.217.64l-.703-.007c0-.238.058-.468.176-.691a1.94 1.94 0 01.498-.598c.215-.176.47-.314.767-.416.301-.105.631-.158.99-.158.454 0 .852.076 1.196.229.347.152.619.38.814.685.196.305.293.688.293 1.148v3.065c0 .219.016.445.047.68.035.234.084.427.147.58V21h-.745a2.856 2.856 0 01-.11-.527 5.617 5.617 0 01-.036-.61zm.164-2.554l.012.539H74.59c-.36 0-.682.033-.967.1-.281.062-.52.155-.715.28a1.352 1.352 0 00-.451.44 1.13 1.13 0 00-.152.586c0 .226.056.433.17.621.117.188.28.338.492.451.215.11.469.164.761.164.391 0 .735-.072 1.032-.217.3-.144.549-.334.744-.568a1.87 1.87 0 00.392-.767l.305.404c-.05.195-.144.396-.281.603a2.632 2.632 0 01-.522.575c-.214.175-.468.32-.761.433-.29.11-.618.164-.985.164-.414 0-.775-.078-1.084-.234a1.802 1.802 0 01-.715-.639 1.732 1.732 0 01-.251-.926c0-.312.066-.591.199-.838.133-.25.324-.46.574-.632.254-.176.559-.309.914-.399a4.78 4.78 0 011.207-.14h1.46zm6.92-2.649V21h-.697v-6.34h.697zm-.24 2.877v.604c-.18.086-.387.168-.621.246-.23.078-.475.142-.733.193-.254.047-.508.07-.762.07-.523 0-.966-.076-1.33-.228a1.605 1.605 0 01-.814-.75c-.184-.352-.275-.82-.275-1.406v-1.612h.697v1.612c0 .449.062.804.187 1.066a1.1 1.1 0 00.569.55c.254.11.576.165.966.165.27-.008.538-.035.803-.082a5.95 5.95 0 00.739-.188c.23-.078.421-.158.574-.24zm5.976 2.326v-3.27c0-.3-.062-.56-.187-.778a1.234 1.234 0 00-.551-.505c-.242-.117-.541-.175-.896-.175a2.11 2.11 0 00-.88.175 1.515 1.515 0 00-.603.463 1.035 1.035 0 00-.217.64l-.703-.007c0-.238.059-.468.176-.691a1.94 1.94 0 01.498-.598c.215-.176.47-.314.768-.416.3-.105.63-.158.99-.158.453 0 .851.076 1.195.229.348.152.62.38.815.685.195.305.293.688.293 1.148v3.065c0 .219.015.445.047.68.035.234.084.427.146.58V21h-.744a2.856 2.856 0 01-.111-.527 5.617 5.617 0 01-.036-.61zm.164-2.554l.012.539H87.41c-.36 0-.681.033-.967.1-.28.062-.52.155-.715.28a1.352 1.352 0 00-.45.44 1.13 1.13 0 00-.153.586c0 .226.057.433.17.621.117.188.281.338.492.451.215.11.469.164.762.164.39 0 .734-.072 1.031-.217.3-.144.549-.334.744-.568a1.87 1.87 0 00.393-.767l.305.404a2.036 2.036 0 01-.282.603 2.634 2.634 0 01-.521.575 2.77 2.77 0 01-.762.433c-.289.11-.617.164-.984.164-.414 0-.776-.078-1.084-.234a1.802 1.802 0 01-.715-.639 1.733 1.733 0 01-.252-.926 1.727 1.727 0 01.773-1.47c.254-.176.559-.309.914-.399a4.78 4.78 0 011.207-.14h1.46zm3.153 2.554l3.428-5.203h.703V21h-.703v-5.203L91.928 21h-.692v-6.34h.692v5.203zm2.783-7.476h.598c0 .293-.069.553-.206.779a1.373 1.373 0 01-.58.533 1.97 1.97 0 01-.902.194c-.523 0-.937-.141-1.242-.422-.3-.281-.451-.643-.451-1.084h.591c0 .27.083.504.247.703.168.195.453.293.855.293.39 0 .67-.1.838-.299.168-.2.252-.432.252-.697zm5.467 2.273V21h-.697v-6.34h.697zm2.308 0v.598h-5.232v-.598h5.232zm3.141 6.457a2.82 2.82 0 01-1.143-.228 2.74 2.74 0 01-.902-.645 2.974 2.974 0 01-.592-.984 3.721 3.721 0 01-.205-1.254v-.252c0-.488.072-.93.217-1.324.144-.395.344-.733.598-1.014a2.65 2.65 0 01.867-.645 2.42 2.42 0 011.031-.228c.402 0 .76.072 1.072.217.313.14.575.342.785.603.215.258.377.565.487.92.109.352.164.74.164 1.166v.428h-4.799v-.598h4.102v-.082a2.572 2.572 0 00-.217-.996 1.8 1.8 0 00-.598-.761c-.265-.196-.598-.293-.996-.293-.297 0-.57.062-.82.187a1.87 1.87 0 00-.639.539 2.6 2.6 0 00-.41.826 3.696 3.696 0 00-.141 1.055v.252c0 .351.051.68.153.984.105.301.254.567.445.797.195.23.426.41.691.54a2 2 0 00.879.192c.375 0 .707-.068.996-.204.289-.141.549-.362.78-.663l.439.34c-.137.203-.309.39-.516.563a2.329 2.329 0 01-.732.41 2.964 2.964 0 01-.996.152zm9.492-3.04h-2.226l-.012-.587h1.898c.383 0 .701-.04.955-.123.258-.086.452-.213.58-.38a.97.97 0 00.2-.622.988.988 0 00-.118-.492.873.873 0 00-.339-.346 1.7 1.7 0 00-.563-.199 3.815 3.815 0 00-.779-.07h-1.623V21h-.697v-6.34h2.32c.387 0 .732.035 1.037.106.309.066.572.168.791.304.219.137.385.313.498.528.117.21.176.46.176.75 0 .195-.037.379-.112.55-.074.168-.183.32-.328.457-.14.133-.314.243-.521.329a2.407 2.407 0 01-.715.152l-.422.24zm0 2.923h-2.443l.269-.598h2.174c.352 0 .651-.045.897-.134.246-.09.431-.223.556-.399a1.05 1.05 0 00.194-.639.987.987 0 00-.194-.609 1.185 1.185 0 00-.556-.398 2.434 2.434 0 00-.897-.147h-1.617l.012-.586h2.08l.299.223c.32.027.597.113.832.258.234.144.416.328.545.55.128.22.193.46.193.721 0 .29-.055.545-.164.768a1.5 1.5 0 01-.475.55 2.204 2.204 0 01-.738.329 3.889 3.889 0 01-.967.111z" fill="#000"/></svg>