<svg width="95" height="295" fill="none" xmlns="http://www.w3.org/2000/svg"><path d="M91.966.913a1.5 1.5 0 112.068 2.174L91.966.913zM37.812 104.22l1.465.321-1.465-.321zm56.67 112.544a1.5 1.5 0 01-1.246 1.717l-13.332 2.123a1.5 1.5 0 11-.472-2.963l11.85-1.886-1.886-11.851a1.5 1.5 0 012.963-.472l2.122 13.332zM93 2l1.034 1.087-.005.004-.02.02-.084.08-.338.333c-.3.296-.744.743-1.316 1.335a148.834 148.834 0 00-4.834 5.273c-4.067 4.64-9.639 11.483-15.64 20.279-12.005 17.598-25.702 42.976-32.52 74.13l-2.93-.642c6.922-31.631 20.819-57.363 32.972-75.179 6.08-8.91 11.728-15.85 15.862-20.566a151.972 151.972 0 014.932-5.38A89.742 89.742 0 0191.931.948l.025-.024.007-.007.002-.002L93 2zM39.277 104.541c-6.732 30.761 6.765 58.502 22.169 78.704 7.688 10.082 15.807 18.226 22.007 23.851a164.57 164.57 0 007.55 6.463 107.447 107.447 0 002.694 2.091l.14.104.034.025a.105.105 0 00.008.006l.002.001L93 217a91.078 91.078 0 01-.882 1.213l-.003-.002-.012-.008-.04-.03a72.31 72.31 0 01-.742-.556c-.511-.389-1.255-.964-2.194-1.718a167.126 167.126 0 01-7.69-6.581c-6.295-5.711-14.55-13.989-22.377-24.254-15.625-20.492-29.722-49.142-22.714-81.165l2.93.642z" fill="#FF7C33"/><path d="M41.724 135.508l-1.434-4.023 17.736-3.308a2.401 2.401 0 011.797.378c.525.358.885.91 1.001 1.535l.06.323a5.24 5.24 0 01.06 1.511l-19.22 3.584zm-9.314 1.738l-19.252 3.591a5.095 5.095 0 01-.407-1.254l-.095-.509a2.39 2.39 0 01.381-1.792c.36-.524.914-.884 1.54-1.001l17.736-3.308.097 4.273zm27.23 3.6l-42.194 7.87a4.821 4.821 0 01-3.6-.754 4.79 4.79 0 01-2.01-3.071l-.093-.501a2.114 2.114 0 01.338-1.584 2.13 2.13 0 011.36-.886l47.657-8.889a2.12 2.12 0 012.475 1.692l.06.323a4.981 4.981 0 01-.798 3.721 5.009 5.009 0 01-3.195 2.079zm-25.049 5.798l8.827-1.647c.083.354.163.709.237 1.061.36 1.681.577 3.284-.692 4.422-.928.835-2.379 1.169-2.795 1.25l-.053.01c-.502.094-1.953.302-3.13-.145-1.595-.604-1.965-2.179-2.241-3.875-.05-.358-.103-.716-.153-1.076zm-.951-9.628l-.512-19.519a.416.416 0 01.807-.15l6.557 18.391-6.852 1.278zm7.852-15.534l-4.762.888-1.624-4.555 6.9-1.287a1.69 1.69 0 011.264.266c.368.252.622.64.703 1.078a3.086 3.086 0 01-.491 2.317 3.109 3.109 0 01-1.99 1.293zm-13.943 2.6a3.103 3.103 0 01-2.322-.488 3.087 3.087 0 01-1.294-1.983 1.682 1.682 0 011.35-1.963l6.9-1.288.128 4.834-4.762.888z" fill="#1FE5B4"/></svg>