<svg width="203" height="154" fill="none" xmlns="http://www.w3.org/2000/svg"><path d="M179.466 2.09a1.5 1.5 0 10-2.883-.83l2.883.83zM118.51 92.949l-1.021-1.098 1.021 1.098zM1.288 112.562a1.5 1.5 0 00-.608 2.033l6.41 11.881a1.5 1.5 0 002.64-1.425L4.032 114.49l10.561-5.697a1.501 1.501 0 00-1.424-2.641l-11.881 6.41zM178.025 1.676l-1.442-.416v.001l-.001.005-.007.023-.029.1-.124.404c-.111.36-.282.897-.516 1.599a138.134 138.134 0 01-2.197 6.068c-2.016 5.213-5.178 12.613-9.751 21.327-9.147 17.431-23.93 40.101-46.469 61.063l2.043 2.197c22.845-21.247 37.819-44.214 47.083-61.866 4.633-8.828 7.84-16.333 9.892-21.638a141.313 141.313 0 002.245-6.202c.241-.722.418-1.28.536-1.66.059-.19.102-.335.132-.434l.034-.113a.195.195 0 01.009-.03l.002-.01.001-.002-1.441-.416zM117.489 91.85c-22.3 20.74-50.985 25.936-74.25 25.894-11.618-.021-21.837-1.35-29.15-2.673a142.84 142.84 0 01-8.586-1.814 90.98 90.98 0 01-2.297-.593c-.26-.071-.457-.127-.587-.164a25.78 25.78 0 00-.146-.042l-.034-.01-.008-.002-.001-.001-.43 1.437a79.674 79.674 0 00-.428 1.438l.003.001a.091.091 0 00.012.003l.043.013.162.047a93.632 93.632 0 002.995.787 146.6 146.6 0 008.768 1.852c7.442 1.347 17.842 2.699 29.678 2.721 23.645.043 53.215-5.228 76.299-26.697l-2.043-2.197z" fill="#FF7C33"/><g clip-path="url(#clip0_109_4)" fill="#1FE5B4"><path d="M121.701 95.29l2.508-3.458 12.758 12.758c.45.45.703 1.06.704 1.696a2.387 2.387 0 01-.7 1.693l-.232.233a5.255 5.255 0 01-1.213.903L121.701 95.29zm-6.699-6.7l-13.848-13.848a5.09 5.09 0 01.804-1.044l.366-.366a2.39 2.39 0 011.694-.7 2.408 2.408 0 011.695.704l12.758 12.758-3.469 2.497zm12.428 24.494l-30.35-30.35a4.817 4.817 0 01-1.414-3.394 4.79 4.79 0 011.397-3.395l.36-.36a2.118 2.118 0 011.498-.618 2.133 2.133 0 011.5.622l34.279 34.279a2.128 2.128 0 01.004 2.998l-.233.233a4.979 4.979 0 01-3.519 1.445 5.004 5.004 0 01-3.522-1.46zm-18.946-17.38l6.349 6.349c-.245.269-.492.535-.741.796-1.182 1.247-2.382 2.332-4.038 1.929-1.213-.293-2.31-1.301-2.612-1.598l-.038-.039c-.361-.361-1.353-1.439-1.65-2.663-.404-1.657.686-2.853 1.928-4.04.268-.243.533-.49.802-.734zm7.403-6.228l15.809-11.46a.417.417 0 01.658.304.413.413 0 01-.078.276l-11.46 15.808-4.929-4.928zm17.252-2.309l-3.425-3.425 2.838-3.915 4.964 4.964a1.68 1.68 0 01.003 2.382 3.079 3.079 0 01-2.189.904 3.106 3.106 0 01-2.191-.91zM123.11 77.138a3.103 3.103 0 01-.91-2.192 3.085 3.085 0 01.904-2.188 1.669 1.669 0 011.19-.492 1.693 1.693 0 011.192.495l4.963 4.964-3.914 2.838-3.425-3.425z"/></g><defs><clipPath id="clip0_109_4"><path fill="#fff" transform="scale(1 -1) rotate(45 221.142 82.709)" d="M0 0h55v64H0z"/></clipPath></defs></svg>