<svg width="158" height="243" fill="none" xmlns="http://www.w3.org/2000/svg"><path d="M84.952 100.924l1.214-.217-1.214.217zM19.81 203.509c-.178.658.21 1.335.867 1.513l10.713 2.906a1.234 1.234 0 00.646-2.381l-9.523-2.582 2.583-9.523a1.234 1.234 0 00-2.38-.645l-2.906 10.712zM33.308 1l-.86.884a.483.483 0 01.025.025 45.878 45.878 0 01.42.42c.296.3.734.75 1.298 1.347a147.309 147.309 0 014.742 5.288c3.977 4.64 9.396 11.456 15.149 20.141 11.51 17.378 24.334 42.2 29.656 72.035l2.428-.433C80.768 70.442 67.77 45.303 56.138 27.743c-5.818-8.783-11.3-15.68-15.332-20.384a149.834 149.834 0 00-4.822-5.377A89.684 89.684 0 0034.202.15l-.024-.024a1.359 1.359 0 00-.007-.007L34.17.117 33.31 1zm50.43 100.14c5.256 29.468-10.403 54.811-27.635 72.925-8.598 9.038-17.535 16.219-24.327 21.141a168.2 168.2 0 01-8.251 5.629 110.89 110.89 0 01-2.326 1.446 63.487 63.487 0 01-.764.453l-.037.022-.01.005-.001.001.613 1.07c.613 1.07.614 1.07.615 1.069l.003-.002a.077.077 0 00.012-.006l.043-.025.166-.097a112.6 112.6 0 003.012-1.856 171.01 171.01 0 008.373-5.712c6.875-4.983 15.936-12.261 24.666-21.437 17.423-18.315 33.74-44.427 28.276-75.059l-2.428.433z" fill="#FF7C33"/><path d="M81.52 169.898l1.541-3.356 12.982 8.669c.458.306.776.781.884 1.32a2.064 2.064 0 01-.306 1.554l-.158.237a4.54 4.54 0 01-.876.97l-14.067-9.394zm-6.817-4.553l-14.09-9.41c.123-.361.292-.704.504-1.021l.249-.372a2.07 2.07 0 012.876-.568l12.981 8.669-2.52 2.702zm14.689 18.678l-30.88-20.622a4.171 4.171 0 01-1.775-2.641 4.138 4.138 0 01.61-3.114l.244-.366a1.83 1.83 0 011.166-.777c.477-.094.972.005 1.377.274l34.88 23.293c.404.271.685.691.78 1.167a1.83 1.83 0 01-.27 1.375l-.157.236a4.303 4.303 0 01-2.74 1.82 4.333 4.333 0 01-3.235-.645zM70.38 172.477l6.46 4.314c-.163.27-.327.538-.494.8-.791 1.257-1.626 2.38-3.098 2.318-1.079-.045-2.18-.714-2.486-.916l-.04-.026c-.367-.245-1.39-.992-1.85-1.98-.623-1.338.099-2.535.952-3.751.186-.252.369-.506.556-.759zm5.224-6.53l11.47-12.384a.357.357 0 01.462-.054.356.356 0 01.127.448l-7.044 15.339-5.015-3.349zm14.242-4.867l-3.485-2.327 1.745-3.799 5.05 3.373a1.46 1.46 0 01.406 2.02 2.664 2.664 0 01-1.703 1.136 2.687 2.687 0 01-2.013-.403zm-10.206-6.815a2.686 2.686 0 01-1.142-1.705 2.67 2.67 0 01.396-2.009 1.457 1.457 0 012.021-.398l5.05 3.372-2.839 3.068-3.485-2.328z" fill="#fff"/></svg>