<svg width="321" height="249" fill="none" xmlns="http://www.w3.org/2000/svg"><path d="M44.294 2.295a1.5 1.5 0 112.941-.59l-2.941.59zm87.141 152.072l1.056-1.065-1.056 1.065zm188.322 20.531a1.5 1.5 0 01.769 1.977l-5.432 12.359a1.5 1.5 0 01-2.746-1.208l4.828-10.985-10.985-4.829a1.501 1.501 0 011.207-2.747l12.359 5.433zM45.764 2l1.471-.295v.002l.002.01.01.042c.007.039.02.097.036.175a125.233 125.233 0 00.798 3.459c.59 2.413 1.511 5.944 2.832 10.398 2.642 8.907 6.88 21.502 13.261 36.222 12.765 29.447 34.087 67.361 68.317 101.289l-2.112 2.131c-34.574-34.27-56.088-72.54-68.957-102.227C54.986 38.36 50.708 25.65 48.037 16.644a227.511 227.511 0 01-2.87-10.538 133.8 133.8 0 01-.82-3.553l-.04-.19-.01-.05a.753.753 0 01-.003-.016c0-.001 0-.002 1.47-.297zm86.727 151.302c33.948 33.649 80.339 39.13 118.486 36.096 19.05-1.515 35.972-5.15 48.133-8.408a246.83 246.83 0 0014.323-4.285c1.681-.562 2.98-1.022 3.856-1.34.438-.16.771-.283.992-.367l.249-.094.061-.024.015-.005.003-.001.544 1.397c.544 1.398.544 1.398.542 1.399a.017.017 0 00-.005.002l-.018.007-.069.026-.264.101a162.739 162.739 0 01-4.954 1.744 249.888 249.888 0 01-14.499 4.338c-12.286 3.291-29.393 6.967-48.672 8.501-38.511 3.063-85.979-2.408-120.835-36.956l2.112-2.131z" fill="#FF7C33"/><g clip-path="url(#clip0_109_3)" fill="#1FE5B4"><path d="M106.924 124.593l-2.691-3.317 15.625-9.021a2.391 2.391 0 013.275.873l.165.285c.253.439.44.912.557 1.405l-16.931 9.775zm-8.204 4.737l-16.962 9.793a5.1 5.1 0 01-.8-1.047l-.26-.449a2.392 2.392 0 01-.236-1.817 2.408 2.408 0 011.118-1.456l15.626-9.021 1.513 3.997zm26.875-5.665l-37.17 21.461a4.819 4.819 0 01-3.646.487 4.794 4.794 0 01-2.918-2.228l-.255-.441a2.115 2.115 0 01-.208-1.606 2.128 2.128 0 01.988-1.288l41.984-24.239a2.117 2.117 0 012.896.772l.165.285c.655 1.143.829 2.5.485 3.773a5.004 5.004 0 01-2.321 3.024zm-21.692 13.802l7.775-4.489c.197.306.39.614.578.921.898 1.465 1.636 2.905.818 4.4-.597 1.096-1.854 1.894-2.22 2.109l-.047.027c-.442.256-1.74.935-3 .905-1.705-.039-2.577-1.401-3.402-2.908-.166-.322-.335-.642-.502-.965zm-4.1-8.762l-6.978-18.237a.415.415 0 01.18-.508c.086-.049.187-.067.284-.049.097.018.185.07.247.147l12.303 15.161-6.036 3.486zm2.235-17.262l-4.195 2.422-3.047-3.755 6.08-3.51a1.687 1.687 0 012.302.613 3.098 3.098 0 01-1.14 4.23zm-12.284 7.092a3.11 3.11 0 01-2.352.312 3.092 3.092 0 01-1.88-1.44 1.685 1.685 0 01.62-2.301l6.079-3.509 1.729 4.516-4.196 2.422z"/></g><defs><clipPath id="clip0_109_3"><path fill="#fff" transform="scale(-1 1) rotate(-60 43.399 190.093)" d="M0 0h55v64H0z"/></clipPath></defs></svg>