<svg width="280" height="208" fill="none" xmlns="http://www.w3.org/2000/svg"><path d="M250.482 2.509a1.5 1.5 0 10-2.822-1.018l2.822 1.018zm-89.213 120.908l.996 1.121-.996-1.121zM1.201 158.225a1.5 1.5 0 00-.47 2.069l7.19 11.426a1.5 1.5 0 102.539-1.598l-6.392-10.156 10.157-6.392a1.5 1.5 0 10-1.598-2.539L1.2 158.225zM249.071 2l-1.411-.51v.002l-.003.007-.011.031-.049.132c-.044.118-.11.296-.201.532-.181.472-.456 1.177-.83 2.096a195.015 195.015 0 01-3.469 7.957c-3.152 6.841-8.031 16.572-14.928 28.1-13.795 23.056-35.653 53.282-67.897 81.949l1.993 2.242c32.521-28.912 54.564-59.394 68.479-82.651 6.958-11.63 11.886-21.458 15.078-28.385a196.221 196.221 0 003.522-8.081 113.013 113.013 0 001.119-2.859l.014-.038.004-.01.001-.003c0-.001 0-.002-1.411-.511zm-88.799 120.296c-32.036 28.481-71.474 37.443-103.01 39.254a234.106 234.106 0 01-39.315-1.086 191.513 191.513 0 01-11.5-1.635 118.12 118.12 0 01-3.072-.577c-.348-.07-.611-.126-.786-.163l-.196-.043-.047-.011-.011-.002-.002-.001L2 159.495c-.333 1.463-.332 1.463-.33 1.463l.004.001a.138.138 0 00.015.003l.055.013.213.046c.187.041.462.099.822.172.72.145 1.78.351 3.149.591 2.738.48 6.712 1.1 11.682 1.661a237.135 237.135 0 0039.824 1.101c31.907-1.833 72.102-10.911 104.831-40.008l-1.993-2.242z" fill="#FF7C33"/><g clip-path="url(#clip0_109_2)" fill="#1FE5B4"><path d="M134.038 146.924l3.317-2.691 9.022 15.625c.318.551.405 1.206.241 1.82a2.39 2.39 0 01-1.114 1.455l-.285.165a5.198 5.198 0 01-1.405.557l-9.776-16.931zm-4.737-8.205l-9.792-16.961a5.13 5.13 0 011.047-.801l.448-.258a2.394 2.394 0 011.817-.237 2.407 2.407 0 011.456 1.118l9.021 15.626-3.997 1.513zm5.665 26.876l-21.46-37.171a4.818 4.818 0 01-.487-3.645 4.79 4.79 0 012.227-2.918l.441-.254a2.118 2.118 0 011.607-.209 2.132 2.132 0 011.288.988l24.239 41.984a2.119 2.119 0 01-.772 2.896l-.285.165a4.98 4.98 0 01-3.774.485 5.004 5.004 0 01-3.024-2.321zm-13.802-21.692l4.49 7.776c-.307.196-.614.389-.922.577-1.464.898-2.905 1.636-4.4.818-1.096-.597-1.894-1.854-2.109-2.22l-.027-.047c-.255-.442-.934-1.74-.905-2.999.039-1.705 1.401-2.578 2.909-3.403.321-.166.641-.335.964-.502zm8.763-4.1l18.237-6.978a.416.416 0 01.41.711l-15.162 12.303-3.485-6.036zm17.262 2.235l-2.422-4.195 3.755-3.046 3.509 6.079a1.687 1.687 0 01-.613 2.302 3.094 3.094 0 01-4.229-1.14zm-7.092-12.283a3.105 3.105 0 01-.312-2.352 3.088 3.088 0 011.44-1.881 1.687 1.687 0 012.3.62l3.51 6.079-4.516 1.729-2.422-4.195z"/></g><defs><clipPath id="clip0_109_2"><path fill="#fff" transform="scale(1 -1) rotate(30 404.345 143.656)" d="M0 0h55v64H0z"/></clipPath></defs></svg>