<svg width="248" height="308" fill="none" xmlns="http://www.w3.org/2000/svg"><path d="M84.766 174.21l1.15-.445-1.15.445zm162.163 82.895c.489.474.5 1.255.025 1.744l-7.734 7.961a1.233 1.233 0 11-1.769-1.718l6.875-7.077-7.077-6.875a1.233 1.233 0 111.719-1.769l7.961 7.734zM72.637 6l1.195.304v.002l-.003.01a7.68 7.68 0 00-.053.216 128.864 128.864 0 00-.771 3.437 220.804 220.804 0 00-1.915 10.466c-1.445 9.037-3.03 21.984-3.583 37.6-1.105 31.238 1.919 73.113 18.41 115.73l-2.301.89c-16.647-43.02-19.687-85.25-18.574-116.708.557-15.732 2.154-28.78 3.612-37.902.73-4.56 1.424-8.14 1.938-10.583a132.56 132.56 0 01.787-3.515 36.782 36.782 0 01.058-.233l.003-.013v-.003c.001-.001.001-.002 1.197.302zm13.28 167.765c16.358 42.277 56.215 63.06 92.263 73.262 18 5.094 34.978 7.528 47.46 8.687 6.239.579 11.35.84 14.898.955 1.774.058 3.157.08 4.094.087.468.004.826.004 1.065.003l.269-.002h.066l.016-.001h.003l.019 1.233c.018 1.234.017 1.234.015 1.234h-.024l-.073.001-.282.002c-.248 0-.615 0-1.093-.003-.957-.008-2.36-.03-4.155-.088a253.87 253.87 0 01-15.046-.965c-12.585-1.169-29.72-3.623-47.904-8.769-36.319-10.279-77.114-31.385-93.892-74.746l2.3-.89z" fill="#FF7C33"/><path d="M132.695 223.585l-3.296-1.665 9.148-12.649a2.08 2.08 0 011.352-.834 2.07 2.07 0 011.542.364l.23.167c.355.257.67.564.937.912l-9.913 13.705zm-4.804 6.643l-9.93 13.729a4.397 4.397 0 01-1.002-.543l-.362-.262a2.063 2.063 0 01-.829-1.35 2.085 2.085 0 01.369-1.545l9.148-12.648 2.606 2.619zm19.214-13.981l-21.762 30.089a4.166 4.166 0 01-2.705 1.674 4.142 4.142 0 01-3.09-.725l-.356-.258a1.838 1.838 0 01-.407-2.561l24.579-33.985a1.844 1.844 0 011.196-.737 1.83 1.83 0 011.363.321l.231.167a4.305 4.305 0 011.715 2.807 4.33 4.33 0 01-.764 3.208zm-12.248 18.568l4.552-6.295c.263.172.524.347.781.523 1.226.838 2.317 1.714 2.2 3.183-.085 1.076-.795 2.151-1.008 2.45l-.027.038c-.259.358-1.044 1.353-2.049 1.776-1.359.572-2.529-.194-3.713-1.092-.244-.195-.491-.387-.736-.583zm-6.331-5.465l-11.947-11.924a.355.355 0 01-.037-.464.355.355 0 01.206-.139.352.352 0 01.247.028l15.065 7.612-3.534 4.887zm-4.332-14.414l-2.456 3.396-3.73-1.885 3.559-4.921a1.46 1.46 0 01.95-.587 1.45 1.45 0 011.083.256 2.67 2.67 0 011.031 2.79c-.082.342-.23.666-.437.951zm-7.191 9.944a2.69 2.69 0 01-1.747 1.078 2.67 2.67 0 01-1.992-.471 1.445 1.445 0 01-.583-.949 1.468 1.468 0 01.26-1.086l3.559-4.921 2.959 2.953-2.456 3.396zM70.782 81.035l-.581-3.646h15.61c.55 0 1.078.219 1.468.607.39.388.608.914.608 1.463v.284c0 .438-.064.873-.19 1.293H70.782zm-8.197 0H45.64a4.4 4.4 0 01-.148-1.13v-.448c0-.549.22-1.075.61-1.462a2.071 2.071 0 011.467-.607h15.61l-.595 3.647zm22.588 7.376H48.04a4.17 4.17 0 01-2.942-1.212 4.14 4.14 0 01-1.222-2.929v-.44c0-.485.194-.95.538-1.293A1.844 1.844 0 0145.712 82l41.942.001a1.841 1.841 0 011.837 1.831v.284a4.302 4.302 0 01-1.27 3.035 4.332 4.332 0 01-3.047 1.26zm-22.223.956h7.768c.015.315.026.629.034.94.04 1.485-.031 2.882-1.29 3.648-.922.562-2.209.616-2.576.619h-.047c-.442 0-1.708-.053-2.639-.62-1.26-.765-1.325-2.162-1.291-3.647l.04-.94zm.718-8.332l2.66-16.668a.359.359 0 01.71 0l2.66 16.668h-6.03zm9.142-11.956h-4.192l-.658-4.128h6.073a1.462 1.462 0 011.46 1.454 2.664 2.664 0 01-.786 1.89 2.686 2.686 0 01-1.898.784zm-12.272-.001a2.688 2.688 0 01-1.897-.783 2.668 2.668 0 01-.786-1.89 1.446 1.446 0 01.427-1.029 1.46 1.46 0 011.032-.425h6.073l-.658 4.128h-4.191z" fill="#fff"/></svg>