<svg width="445" height="433" fill="none" xmlns="http://www.w3.org/2000/svg"><g clip-path="url(#clip0_22_372)" fill="#FF7C33"><path d="M63.466 338.073l107.608-89.548c11.373 6.75 23.28 13.483 35.72 20.201l-79.776 65.993a45.386 45.386 0 01-9.306 7.674 60.498 60.498 0 01-14.392 6.638c-19.577 6.135-38.186 2.025-42.438-9.085.864-.589 1.775-1.194 2.584-1.873z"/><path d="M228.735 200.574c84.427 61.401 135.594 101.192 146.118 113.951a29.948 29.948 0 016.229 9.452c-1.441.291-5.229.469-14.551-1.554-7.602-1.685-15.568-3.761-24.408-6.387l-2.788-.828-42.138 34.818-.915.765c-1.12.883-2.142 1.736-3.473 2.631-15.661 10.889-31.735 11.247-36.313 4.733-4.578-6.513.809-18.862 12.052-28.499l.47-.386a33.774 33.774 0 011.879-1.547l31.193-25.513-8.216-3.379c-21.702-9.15-44.477-19.744-68.19-32.037-16.253-8.412-31.555-16.961-45.983-25.467l49.034-40.753zM56.626 329.902a52.318 52.318 0 01-17.342 9.051c-18.232 5.713-33.617 1.256-36.009-6.341-1.592-5.056 2.1-11.77 9.643-17.537l.22-.069L295.383 80.239a40.75 40.75 0 014.262-3.543 54.089 54.089 0 0115.63-7.742c18.256-5.721 33.616-1.257 36.008 6.34 1.616 5.13-2.359 12.144-10.143 17.907l-112.793 93.831-8.532 7.061-49.744 41.401-8.714 7.251-104.73 87.157zm296.313-182.021a45.173 45.173 0 01-6.825 5.648l-75.367 62.325c-12.454-8.645-23.987-16.408-33.176-22.62l92.613-77.061c14.648-1.295 26.811 3.348 29.661 12.397 1.928 6.122-.821 13.017-6.723 19.121l-.183.19zm-231.614 63.226a587.789 587.789 0 00-2.719-1.806c-5.597-3.855-17.544-12.339-20.134-26.202-3.64-19.329 11.403-47.039 33.654-49.121 13.263-1.257 23.754 7.124 27.187 10.089a8219.087 8219.087 0 0122.949 16.441l-60.937 50.599z"/></g><defs><clipPath id="clip0_22_372"><path fill="#fff" transform="scale(-1 1) rotate(-15 138.336 1736.877)" d="M0 0h367v349H0z"/></clipPath></defs></svg>