<svg width="555" height="33" fill="none" xmlns="http://www.w3.org/2000/svg"><path d="M243.5 16.5H.5" stroke="#fff" stroke-width="2"/><rect x="260.5" width="34" height="33" rx="5" fill="#fff"/><path d="M287.312 19.521L279.244 16a66.66 66.66 0 01-1.744 1.98l5.974 2.586c.218.132.452.233.696.3.319.09.648.135.979.134 1.278 0 2.306-.627 2.351-1.412-.062-.02-.128-.04-.188-.067z" fill="#1FE5B4"/><path d="M274.972 15c-3.712 4.502-5.915 7.363-6.287 8.186a1.49 1.49 0 00-.185.584c.087-.008.307-.06.802-.314.403-.208.82-.442 1.277-.719l.144-.087 3.028 1.108.066.024c.08.027.154.055.246.08 1.088.306 2.011.066 2.155-.341.145-.408-.384-.954-1.199-1.267l-.033-.013a2.39 2.39 0 00-.135-.049l-2.237-.806.408-.305a55.16 55.16 0 005.478-4.78L274.972 15zm11.622 2.823c.345.12.713.18 1.083.177 1.073 0 1.823-.455 1.823-.864 0-.273-.311-.546-.813-.712h-.013L269.58 9.248a2.379 2.379 0 00-.288-.108 3.305 3.305 0 00-.969-.14c-1.075 0-1.823.455-1.823.864 0 .277.331.56.846.723l7.631 2.868.576.215 3.366 1.266.589.222 7.086 2.665zm-19.366-3.906c.154.071.316.13.483.173l5.328 1.91c.546-.62 1.055-1.18 1.461-1.63L267.945 12c-.845.163-1.445.58-1.445 1.07 0 .332.276.63.715.84l.013.007zm14.49-.917l.118-.107c.24-.226.749-.72.652-1.311-.134-.825-1.439-1.752-2.695-1.555a2.164 2.164 0 00-1.318.75c-.286.279-.617.601-.975.953l4.218 1.27z" fill="#1FE5B4"/><path d="M270.5 20.667l-1.072-.323a4.113 4.113 0 00-.689-.226 3.912 3.912 0 00-1.513-.078c-.373.064-.63.198-.702.37-.142.334.366.795 1.183 1.07.071.025.145.047.221.068l1.479.452c.296-.403.671-.856 1.093-1.333z" fill="#1FE5B4"/><path d="M554.5 16.5h-243" stroke="#fff" stroke-width="2"/></svg>