<svg width="577" height="297" fill="none" xmlns="http://www.w3.org/2000/svg"><g clip-path="url(#clip0_106_3)"><g filter="url(#filter0_d_106_3)"><path d="M361.069 192.066c-21.42-30.381-25.396-33.499-25.396-44.664 0-15.294 12.673-27.693 28.305-27.693s28.305 12.399 28.305 27.693c0 11.165-3.976 14.283-25.396 44.664-1.406 1.986-4.412 1.986-5.818 0z" fill="#FF7C33"/><path d="M361.069 192.066c-21.42-30.381-25.396-33.499-25.396-44.664 0-15.294 12.673-27.693 28.305-27.693s28.305 12.399 28.305 27.693c0 11.165-3.976 14.283-25.396 44.664-1.406 1.986-4.412 1.986-5.818 0z" stroke="#fff"/></g><path d="M381.901 150.942l-12.868-5.096a97.829 97.829 0 01-2.783 2.866l9.529 3.742c.348.192.722.338 1.111.435.509.13 1.034.195 1.561.194 2.039 0 3.679-.908 3.751-2.043-.1-.03-.204-.059-.301-.098z" fill="#fff"/><path d="M362.139 143.119c-6.168 8.02-9.829 13.116-10.446 14.582a2.79 2.79 0 00-.308 1.041c.145-.015.51-.107 1.332-.558a35.243 35.243 0 002.123-1.282l.239-.155 5.032 1.973.109.043c.133.049.255.097.408.141 1.809.546 3.343.119 3.582-.606.24-.726-.639-1.699-1.992-2.257l-.056-.022a3.048 3.048 0 00-.224-.087l-3.717-1.437.677-.544a92.556 92.556 0 005.506-4.875 91.894 91.894 0 003.597-3.64l-5.862-2.317zm20.168 6.882c.61.225 1.259.337 1.913.33 1.898 0 3.223-.847 3.223-1.609 0-.507-.55-1.014-1.437-1.325h-.023l-33.749-13.356a4.155 4.155 0 00-.51-.201 5.572 5.572 0 00-1.712-.26c-1.9 0-3.223.847-3.223 1.609 0 .514.586 1.041 1.496 1.344l13.488 5.339 1.019.4 5.949 2.357 1.041.412 12.525 4.96zm-33.51-8.139c.26.132.533.239.816.32l9.001 3.533c.922-1.145 1.783-2.183 2.468-3.013l-11.074-4.385c-1.427.301-2.441 1.072-2.441 1.98 0 .614.466 1.165 1.208 1.553l.022.012zm23.834-.854l.204-.243c.415-.512 1.294-1.628 1.126-2.968-.232-1.868-2.484-3.967-4.655-3.521-1.294.265-2.038 1.33-2.275 1.699-.494.631-1.065 1.361-1.684 2.157l7.284 2.876zm-19.245 11.619l-1.735-.673a5.729 5.729 0 00-1.115-.468 4.962 4.962 0 00-2.449-.162c-.603.133-1.019.412-1.136.769-.229.694.594 1.65 1.916 2.223.115.05.234.097.357.14l2.394.939a40.427 40.427 0 011.768-2.768z" fill="#fff"/></g><g clip-path="url(#clip1_106_3)"><g filter="url(#filter1_d_106_3)"><path d="M422.703 107.03c-17.965-25.444-21.299-28.055-21.299-37.406 0-12.809 10.628-23.192 23.739-23.192s23.739 10.383 23.739 23.192c0 9.351-3.334 11.962-21.299 37.406-1.179 1.664-3.701 1.664-4.88 0z" fill="#FF7C33"/><path d="M422.703 107.03c-17.965-25.444-21.299-28.055-21.299-37.406 0-12.809 10.628-23.192 23.739-23.192s23.739 10.383 23.739 23.192c0 9.351-3.334 11.962-21.299 37.406-1.179 1.664-3.701 1.664-4.88 0z" stroke="#fff"/></g><path d="M440.175 72.59l-10.793-4.269a83.124 83.124 0 01-2.333 2.4l7.991 3.135c.292.16.606.282.932.363.427.11.868.164 1.31.163 1.709 0 3.085-.76 3.145-1.711-.083-.025-.171-.05-.252-.082z" fill="#fff"/><path d="M423.6 66.037c-5.173 6.717-8.243 10.985-8.761 12.212-.143.273-.23.569-.258.872.122-.012.427-.09 1.117-.467.562-.311 1.144-.66 1.78-1.073l.201-.13 4.22 1.652.092.036c.111.041.214.082.342.118 1.517.457 2.804.1 3.004-.508.201-.607-.536-1.422-1.67-1.89l-.048-.018a2.765 2.765 0 00-.188-.073l-3.117-1.204.568-.455a77.869 77.869 0 007.635-7.131l-4.917-1.94zm16.915 5.764a4.52 4.52 0 001.605.276c1.592 0 2.703-.709 2.703-1.347 0-.425-.461-.85-1.205-1.11h-.019l-28.306-11.185a3.506 3.506 0 00-.428-.17 4.68 4.68 0 00-1.436-.217c-1.594 0-2.703.71-2.703 1.348 0 .43.492.872 1.255 1.126l11.312 4.47.855.336 4.989 1.974.874.345 10.504 4.154zm-28.104-6.817c.218.11.447.2.683.269l7.55 2.959c.773-.96 1.496-1.83 2.07-2.525l-9.288-3.672c-1.197.252-2.047.898-2.047 1.658 0 .515.391.976 1.012 1.301l.02.01zm19.989-.714l.171-.204c.348-.429 1.085-1.364.944-2.486-.194-1.564-2.083-3.322-3.903-2.949-1.086.222-1.71 1.114-1.909 1.423-.414.528-.893 1.14-1.412 1.807l6.109 2.408zM416.26 74l-1.456-.563a4.748 4.748 0 00-.935-.392 4.18 4.18 0 00-2.054-.137c-.506.112-.855.346-.953.645-.192.58.498 1.382 1.607 1.861.096.043.197.082.299.118l2.009.787c.401-.702.91-1.49 1.483-2.32z" fill="#fff"/></g><g clip-path="url(#clip2_106_3)" fill="#FF7C33"><path d="M43.501 231.724l73.757-61.378a697.351 697.351 0 0024.484 13.846l-54.68 45.233a31.065 31.065 0 01-6.38 5.26 41.447 41.447 0 01-9.864 4.55c-13.418 4.205-26.174 1.388-29.088-6.227.592-.404 1.217-.818 1.771-1.284z"/><path d="M156.781 137.479c57.869 42.085 92.939 69.359 100.153 78.105a20.504 20.504 0 014.269 6.478c-.987.2-3.584.321-9.973-1.065-5.211-1.155-10.671-2.578-16.73-4.378l-1.911-.567-28.882 23.865-.627.524c-.769.606-1.469 1.19-2.382 1.803-10.733 7.464-21.751 7.709-24.889 3.245-3.138-4.465.555-12.929 8.26-19.534l.323-.265c.418-.368.841-.72 1.288-1.06l21.38-17.487-5.631-2.317c-14.875-6.271-30.486-13.533-46.739-21.959a652.528 652.528 0 01-31.519-17.455l33.61-27.933zM38.813 226.123a35.857 35.857 0 01-11.887 6.204c-12.496 3.916-23.041.861-24.681-4.346-1.091-3.466 1.44-8.068 6.61-12.02l.15-.047L202.463 54.998a27.838 27.838 0 012.922-2.428 37.068 37.068 0 0110.713-5.307c12.513-3.921 23.041-.861 24.681 4.346 1.107 3.516-1.618 8.323-6.953 12.273l-77.311 64.315-5.848 4.839-34.096 28.378-5.973 4.97-71.785 59.739zm203.1-124.761a30.99 30.99 0 01-4.677 3.871l-51.659 42.719c-8.537-5.925-16.441-11.246-22.739-15.504l63.478-52.82c10.041-.887 18.378 2.295 20.331 8.497 1.321 4.197-.563 8.923-4.608 13.107l-.126.13zM83.16 144.698c-1.19-.793-1.864-1.237-1.864-1.237-3.836-2.643-12.025-8.458-13.8-17.96C65 112.252 75.31 93.26 90.563 91.832c9.09-.862 16.281 4.883 18.634 6.916a5711.36 5711.36 0 0115.73 11.269L83.16 144.698z"/></g><g clip-path="url(#clip3_106_3)" fill="#1FE5B4"><path d="M522.33 216.342l-4.034-4.972 23.419-13.521a3.598 3.598 0 012.728-.361 3.581 3.581 0 012.181 1.67l.246.427c.379.658.661 1.367.836 2.106l-25.376 14.651zm-12.298 7.1l-25.421 14.677a7.656 7.656 0 01-1.2-1.569l-.388-.672a3.586 3.586 0 01-.355-2.724 3.608 3.608 0 011.676-2.182l23.42-13.521 2.268 5.991zm40.281-8.491l-55.711 32.165a7.223 7.223 0 01-5.464.73 7.183 7.183 0 01-4.373-3.338l-.381-.661a3.172 3.172 0 01-.313-2.409 3.193 3.193 0 011.481-1.93l62.925-36.329a3.187 3.187 0 012.412-.318 3.17 3.17 0 011.929 1.475l.247.427a7.459 7.459 0 01.727 5.656 7.498 7.498 0 01-3.479 4.532zm-32.512 20.687l11.654-6.729c.295.459.585.92.865 1.381 1.347 2.195 2.453 4.354 1.227 6.595-.895 1.642-2.779 2.839-3.327 3.161l-.071.041c-.662.382-2.608 1.4-4.496 1.355-2.555-.058-3.863-2.099-5.1-4.358-.248-.483-.502-.962-.752-1.446zm-6.145-13.134l-10.458-27.333a.623.623 0 011.065-.615l18.44 22.725-9.047 5.223zm3.35-25.872l-6.287 3.631-4.566-5.629 9.111-5.26a2.53 2.53 0 013.45.919 4.624 4.624 0 01.46 3.52 4.652 4.652 0 01-2.168 2.819zm-18.41 10.63a4.656 4.656 0 01-3.525.467 4.628 4.628 0 01-2.818-2.158 2.508 2.508 0 01-.25-1.914 2.523 2.523 0 011.179-1.534l9.111-5.26 2.591 6.768-6.288 3.631z"/></g><defs><clipPath id="clip0_106_3"><path fill="#fff" transform="translate(334 118)" d="M0 0h62v80H0z"/></clipPath><clipPath id="clip1_106_3"><path fill="#fff" transform="translate(400 45)" d="M0 0h52v67H0z"/></clipPath><clipPath id="clip2_106_3"><path fill="#fff" transform="scale(-1 1) rotate(-15 94.82 1190.5)" d="M0 0h251.551v239.214H0z"/></clipPath><clipPath id="clip3_106_3"><path fill="#fff" transform="scale(-1 1) rotate(-60 -90.353 613.276)" d="M0 0h82.434v95.923H0z"/></clipPath><filter id="filter0_d_106_3" x="326.173" y="114.209" width="75.609" height="92.846" filterUnits="userSpaceOnUse" color-interpolation-filters="sRGB"><feFlood flood-opacity="0" result="BackgroundImageFix"/><feColorMatrix in="SourceAlpha" values="0 0 0 0 0 0 0 0 0 0 0 0 0 0 0 0 0 0 127 0" result="hardAlpha"/><feOffset dy="4"/><feGaussianBlur stdDeviation="4.5"/><feColorMatrix values="0 0 0 0 0 0 0 0 0 0 0 0 0 0 0 0 0 0 0.25 0"/><feBlend in2="BackgroundImageFix" result="effect1_dropShadow_106_3"/><feBlend in="SourceGraphic" in2="effect1_dropShadow_106_3" result="shape"/></filter><filter id="filter1_d_106_3" x="391.904" y="40.932" width="66.479" height="80.846" filterUnits="userSpaceOnUse" color-interpolation-filters="sRGB"><feFlood flood-opacity="0" result="BackgroundImageFix"/><feColorMatrix in="SourceAlpha" values="0 0 0 0 0 0 0 0 0 0 0 0 0 0 0 0 0 0 127 0" result="hardAlpha"/><feOffset dy="4"/><feGaussianBlur stdDeviation="4.5"/><feColorMatrix values="0 0 0 0 0 0 0 0 0 0 0 0 0 0 0 0 0 0 0.25 0"/><feBlend in2="BackgroundImageFix" result="effect1_dropShadow_106_3"/><feBlend in="SourceGraphic" in2="effect1_dropShadow_106_3" result="shape"/></filter></defs></svg>