<svg width="217" height="671" fill="none" xmlns="http://www.w3.org/2000/svg"><path d="M128.633 129.206l-19.188-3.024 18.322-85.783c.646-3.027 2.372-5.557 4.798-7.035 2.427-1.478 5.354-1.783 8.139-.846l1.444.485a24.492 24.492 0 016.338 3.25l-19.853 92.953zm-11.603 46.162l-19.888 93.115a21.633 21.633 0 01-5.907-1.118l-2.27-.763c-2.785-.939-5.198-3.04-6.71-5.841-1.511-2.801-1.998-6.074-1.354-9.1l18.322-85.784 17.807 9.491zm63.112-113.661l-44.176 204.58c-1.308 6.078-4.807 11.162-9.728 14.137-4.921 2.975-10.863 3.596-16.518 1.727l-2.264-.753c-2.494-.834-4.656-2.696-6.01-5.179-1.355-2.483-1.793-5.384-1.218-8.067l49.895-231.069c.584-2.68 2.132-4.921 4.306-6.23 2.173-1.31 4.795-1.583 7.291-.757l1.464.486c5.854 1.97 10.924 6.349 14.101 12.181 3.178 5.832 4.205 12.643 2.857 18.944zm-23.668 122.255l8.761-42.043c1.548.448 3.093.911 4.618 1.395 7.286 2.279 14.018 5.009 16.333 13.111 1.701 5.933.514 12.991.115 14.98l-.053.255c-.498 2.392-2.184 9.157-5.996 13.243-5.157 5.536-12.042 3.539-19.245.861-1.507-.605-3.018-1.194-4.533-1.802zm-37.186-15.365l-76.117-40.665a2.056 2.056 0 01-.893-.979 2.208 2.208 0 01-.15-1.349c.094-.444.328-.825.662-1.074a1.524 1.524 0 011.16-.282l81.952 13.051-6.614 31.298zM74.1 100.701l-4.755 22.763-20.99-3.384 6.888-32.986c.44-2.102 1.612-3.86 3.26-4.886 1.647-1.026 3.636-1.239 5.527-.588 1.722.592 3.348 1.555 4.787 2.835a16.454 16.454 0 013.594 4.62 17.713 17.713 0 011.855 5.706c.29 1.994.233 4.006-.167 5.92zm-15.13 67.755c-.806 3.865-2.962 7.097-5.992 8.984-3.03 1.888-6.685 2.277-10.163 1.081a7.689 7.689 0 01-2.603-1.541 8.966 8.966 0 01-1.955-2.514 9.65 9.65 0 01-1.01-3.103 9.272 9.272 0 01.092-3.22l6.888-32.985 19.497 10.535-4.753 22.763z" fill="#1FE5B4"/><g clip-path="url(#clip0_101_2)" fill="#FF7C33"><path d="M155.447 655.506L74.683 541.158c-12.734 3.577-25.978 6.998-39.732 10.267l59.978 84.393a45.376 45.376 0 007.002 9.821 60.444 60.444 0 0012.184 10.136c17.322 10.993 36.361 11.839 43.343 2.209-.682-.793-1.405-1.613-2.011-2.478z"/><path d="M31.396 479.917c-97.442 37.457-157.163 62.649-170.631 72.25a29.916 29.916 0 00-8.463 7.518c1.315.654 4.929 1.806 14.457 2.265 7.779.34 16.011.396 25.229.148l2.907-.079 31.69 44.538.687.976c.854 1.143 1.62 2.231 2.674 3.44 12.309 14.572 27.743 19.078 33.85 13.971 6.108-5.107 4.1-18.429-4.264-30.647l-.355-.495a33.877 33.877 0 00-1.414-1.98l-23.528-32.718 8.81-1.138c23.332-3.22 48.073-7.559 74.16-13.296 17.876-3.918 34.87-8.216 51.007-12.697l-36.816-52.056zm132.772 169.467a52.304 52.304 0 0014.409 13.23c16.132 10.238 32.146 9.915 36.423 3.196 2.847-4.472 1.017-11.913-4.775-19.435l-.195-.124L-1.835 346.433a40.656 40.656 0 00-3.2-4.525 54.083 54.083 0 00-13.094-11.524c-16.153-10.252-32.145-9.915-36.422-3.195-2.888 4.536-.864 12.34 5.163 19.921l84.664 119.828 6.414 9.028 37.334 52.865 6.54 9.259 78.604 111.294zM-74.937 396.873a45.18 45.18 0 005.13 7.223l56.668 79.707c14.268-5.127 27.417-9.64 37.9-13.263l-69.512-98.405c-13.814-5.042-26.764-3.706-31.858 4.298-3.447 5.415-2.577 12.786 1.544 20.21l.128.23zM132.42 517.891a694.016 694.016 0 013.094-1.041c6.404-2.275 20.14-7.378 26.23-20.098 8.518-17.728 1.16-48.387-19.795-56.157-12.485-4.648-24.788.733-28.871 2.709a7952.503 7952.503 0 00-26.422 9.941l45.764 64.646z"/></g><defs><clipPath id="clip0_101_2"><path fill="#fff" transform="translate(0 322)" d="M0 0h217v349H0z"/></clipPath></defs></svg>