<svg width="452" height="323" fill="none" xmlns="http://www.w3.org/2000/svg"><path d="M131.055 252.508c-26.948-38.356-31.95-42.292-31.95-56.388 0-19.309 15.943-34.962 35.609-34.962 19.667 0 35.609 15.653 35.609 34.962 0 14.096-5.002 18.032-31.949 56.388-1.769 2.508-5.551 2.508-7.319 0z" fill="#FF7C33"/><path d="M131.055 252.508c-26.948-38.356-31.95-42.292-31.95-56.388 0-19.309 15.943-34.962 35.609-34.962 19.667 0 35.609 15.653 35.609 34.962 0 14.096-5.002 18.032-31.949 56.388-1.769 2.508-5.551 2.508-7.319 0z" stroke="#fff"/><path d="M157.263 200.59l-16.19-6.434a123.506 123.506 0 01-3.5 3.619l11.988 4.724c.438.241.908.426 1.397.548a7.832 7.832 0 001.965.245c2.564 0 4.628-1.146 4.718-2.579-.125-.037-.256-.074-.378-.123z" fill="#fff"/><path d="M132.4 190.713c-7.759 10.125-12.365 16.559-13.141 18.409a3.53 3.53 0 00-.388 1.314c.183-.018.641-.135 1.677-.704a44.879 44.879 0 002.67-1.618l.301-.196 6.33 2.491.138.055c.167.061.321.122.513.178 2.276.689 4.205.15 4.506-.766.302-.916-.804-2.145-2.506-2.85l-.071-.027a4.014 4.014 0 00-.282-.11l-4.676-1.814.853-.686a117.526 117.526 0 0011.452-10.751l-7.376-2.925zm25.373 8.689a6.732 6.732 0 002.407.416c2.388 0 4.055-1.069 4.055-2.031 0-.64-.692-1.28-1.808-1.673h-.029l-42.459-16.862a5.307 5.307 0 00-.641-.254 6.979 6.979 0 00-2.154-.328c-2.391 0-4.054 1.069-4.054 2.031 0 .65.737 1.315 1.881 1.698l16.968 6.74 1.282.505 7.485 2.975 1.31.521 15.757 6.262zm-42.157-10.276c.327.166.671.302 1.026.404l11.324 4.461c1.16-1.446 2.243-2.757 3.106-3.805l-13.933-5.536c-1.795.38-3.071 1.354-3.071 2.5 0 .775.587 1.47 1.519 1.96l.029.016zm29.984-1.079l.257-.306c.522-.647 1.628-2.056 1.416-3.747-.291-2.359-3.125-5.009-5.856-4.445-1.628.334-2.564 1.679-2.862 2.144-.622.797-1.34 1.719-2.118 2.724l9.163 3.63zm-24.211 14.669l-2.182-.848a7.14 7.14 0 00-1.404-.592 6.237 6.237 0 00-3.08-.205c-.76.168-1.282.521-1.43.971-.288.876.747 2.083 2.41 2.806.145.065.295.123.449.178l3.013 1.186c.603-1.057 1.366-2.246 2.224-3.496z" fill="#fff"/><path d="M22.703 303.03c-17.965-25.444-21.3-28.055-21.3-37.406 0-12.809 10.629-23.192 23.74-23.192 13.11 0 23.74 10.383 23.74 23.192 0 9.351-3.335 11.962-21.3 37.406-1.18 1.664-3.701 1.664-4.88 0z" fill="#FF7C33"/><path d="M22.703 303.03c-17.965-25.444-21.3-28.055-21.3-37.406 0-12.809 10.629-23.192 23.74-23.192 13.11 0 23.74 10.383 23.74 23.192 0 9.351-3.335 11.962-21.3 37.406-1.18 1.664-3.701 1.664-4.88 0z" stroke="#fff"/><path d="M40.175 268.589l-10.793-4.268a82.627 82.627 0 01-2.333 2.401l7.991 3.133c.293.161.606.283.932.364.427.109.868.164 1.31.163 1.71 0 3.085-.76 3.145-1.711-.083-.025-.17-.049-.252-.082z" fill="#fff"/><path d="M23.6 262.037c-5.173 6.717-8.243 10.985-8.76 12.212a2.346 2.346 0 00-.26.872c.123-.012.428-.089 1.118-.467a29.995 29.995 0 001.78-1.073l.201-.13 4.22 1.652.092.036c.111.041.214.082.342.118 1.517.458 2.804.1 3.005-.508.2-.607-.537-1.422-1.671-1.89l-.047-.018a2.519 2.519 0 00-.188-.073l-3.118-1.203.568-.456a77.79 77.79 0 004.618-4.083 77.167 77.167 0 003.017-3.048l-4.917-1.941zm16.916 5.764a4.536 4.536 0 001.604.277c1.592 0 2.703-.71 2.703-1.348 0-.425-.461-.849-1.205-1.11h-.02l-28.305-11.185a3.428 3.428 0 00-.428-.169 4.652 4.652 0 00-1.435-.217c-1.595 0-2.704.709-2.704 1.347 0 .431.492.872 1.255 1.126l11.312 4.471.855.335 4.99 1.974.873.345 10.505 4.154zm-28.106-6.816c.219.11.448.2.685.268l7.549 2.959c.773-.959 1.496-1.829 2.07-2.524l-9.288-3.673c-1.197.252-2.047.899-2.047 1.659 0 .514.39.975 1.013 1.3l.019.011zm19.99-.716l.171-.203c.348-.429 1.086-1.364.945-2.486-.195-1.564-2.084-3.322-3.904-2.949-1.086.222-1.71 1.114-1.909 1.423-.414.528-.893 1.14-1.412 1.807l6.11 2.408zM16.26 270l-1.456-.563a4.739 4.739 0 00-.935-.392 4.17 4.17 0 00-2.054-.136c-.506.111-.855.345-.953.644-.192.581.498 1.382 1.607 1.861.096.043.197.082.3.118l2.008.787c.402-.701.91-1.49 1.483-2.319z" fill="#fff"/><path d="M302.847 135.47l-16.911 13.725-46.03-79.727a12.266 12.266 0 01-1.234-9.286 12.18 12.18 0 015.68-7.421l1.453-.84a26.69 26.69 0 017.164-2.842l49.878 86.391zm24.17 41.864l49.965 86.542a25.945 25.945 0 01-5.338 4.084l-2.285 1.32a12.192 12.192 0 01-9.267 1.204 12.272 12.272 0 01-7.425-5.708l-46.031-79.727 20.381-7.715zM298.084 40.221l109.5 189.66a24.592 24.592 0 012.49 18.597 24.42 24.42 0 01-11.354 14.881l-2.249 1.298a10.79 10.79 0 01-8.193 1.062 10.87 10.87 0 01-6.569-5.044L258.031 46.458a10.869 10.869 0 01-1.084-8.211 10.793 10.793 0 015.016-6.565l1.454-.84a25.377 25.377 0 0119.244-2.469 25.55 25.55 0 0115.423 11.848zm70.419 110.683l-22.906-39.674a233.495 233.495 0 014.697-2.943c7.469-4.583 14.813-8.342 22.438-4.17 5.589 3.051 9.662 9.465 10.758 11.329l.139.241c1.303 2.256 4.767 8.88 4.619 15.304-.196 8.698-7.14 13.148-14.826 17.354-1.64.847-3.271 1.709-4.919 2.559zm-44.678 20.902l-92.987 35.566a2.124 2.124 0 01-1.464.017 2.125 2.125 0 01-1.376-2.385 2.11 2.11 0 01.746-1.258l77.299-62.74 17.782 30.8zm-88.038-11.43l12.358 21.406-19.144 15.535-17.908-31.018a8.624 8.624 0 01-.868-6.527 8.565 8.565 0 013.992-5.216 15.734 15.734 0 0111.974-1.561 15.835 15.835 0 019.596 7.381zm36.186 62.675a15.856 15.856 0 011.594 12 15.742 15.742 0 01-7.34 9.589 8.555 8.555 0 01-6.512.849 8.617 8.617 0 01-5.219-4.015l-17.908-31.017 23.026-8.812 12.359 21.406z" fill="#1FE5B4"/></svg>