<svg width="374" height="195" fill="none" xmlns="http://www.w3.org/2000/svg"><path d="M311.223 138.149l5.314-7.343 27.115 27.073a5.107 5.107 0 011.5 3.599 5.071 5.071 0 01-1.482 3.596l-.493.495c-.76.76-1.627 1.405-2.573 1.916l-29.381-29.336zm-14.238-14.216l-29.433-29.387c.47-.81 1.042-1.556 1.704-2.218l.776-.778a5.077 5.077 0 013.595-1.485 5.108 5.108 0 013.601 1.492l27.115 27.073-7.358 5.303zm26.442 51.987l-64.503-64.404a10.236 10.236 0 01-3.01-7.206 10.162 10.162 0 012.956-7.208l.764-.764a4.492 4.492 0 013.178-1.313 4.525 4.525 0 013.186 1.318l72.855 72.743a4.522 4.522 0 011.323 3.183 4.492 4.492 0 01-1.307 3.181l-.494.494a10.563 10.563 0 01-7.468 3.072 10.64 10.64 0 01-7.48-3.096zm-40.262-36.881l13.493 13.472a97.93 97.93 0 01-1.57 1.69c-2.507 2.649-5.053 4.954-8.568 4.1-2.576-.622-4.906-2.76-5.548-3.391l-.082-.082c-.768-.766-2.876-3.054-3.51-5.652-.861-3.517 1.449-6.056 4.084-8.577.568-.518 1.13-1.04 1.701-1.56zm15.7-13.229l33.534-24.341a.881.881 0 011.233 1.231l-24.292 33.569-10.475-10.459zm36.619-4.915l-7.28-7.269 6.017-8.313 10.549 10.533a3.594 3.594 0 011.054 2.53 3.567 3.567 0 01-1.041 2.528 6.549 6.549 0 01-4.644 1.921 6.597 6.597 0 01-4.655-1.93zm-21.316-21.283a6.597 6.597 0 01-1.937-4.65 6.554 6.554 0 011.914-4.648 3.572 3.572 0 015.058.005l10.549 10.533-8.304 6.029-7.28-7.269z" fill="#1FE5B4"/><path d="M39.73 108.321C8.292 63.89 2.456 59.329 2.456 43c0-22.368 18.6-40.5 41.544-40.5 22.944 0 41.544 18.132 41.544 40.5 0 16.33-5.836 20.89-37.274 65.321-2.064 2.906-6.477 2.905-8.54 0z" fill="#FF7C33"/><path d="M39.73 108.321C8.292 63.89 2.456 59.329 2.456 43c0-22.368 18.6-40.5 41.544-40.5 22.944 0 41.544 18.132 41.544 40.5 0 16.33-5.836 20.89-37.274 65.321-2.064 2.906-6.477 2.905-8.54 0z" stroke="#fff"/><path d="M70.306 48.178L51.42 40.727a144.663 144.663 0 01-4.084 4.191l13.986 5.473c.51.28 1.06.493 1.63.635.748.19 1.518.286 2.292.284 2.992 0 5.4-1.328 5.505-2.988-.146-.043-.3-.086-.442-.142z" fill="#fff"/><path d="M41.3 36.736c-9.052 11.73-14.426 19.183-15.33 21.326a4.06 4.06 0 00-.453 1.523c.213-.022.748-.157 1.955-.816.984-.544 2-1.154 3.115-1.875l.352-.227 7.385 2.886.16.064c.195.07.375.142.6.205 2.654.799 4.905.174 5.257-.887.351-1.06-.939-2.484-2.924-3.3l-.083-.032a5.395 5.395 0 00-.329-.128l-5.455-2.101.994-.795a136.307 136.307 0 008.081-7.13 135.505 135.505 0 005.28-5.323l-8.604-3.39zm29.602 10.066a7.919 7.919 0 002.808.483c2.786 0 4.73-1.239 4.73-2.353 0-.742-.807-1.484-2.108-1.938h-.034L26.763 23.46a6.153 6.153 0 00-.748-.294 8.208 8.208 0 00-2.513-.38c-2.79 0-4.73 1.239-4.73 2.353 0 .752.86 1.523 2.194 1.966l19.797 7.808 1.495.585 8.732 3.447 1.53.603 18.382 7.254zM21.719 34.898c.381.193.782.35 1.197.469l13.21 5.167c1.354-1.675 2.618-3.194 3.624-4.408l-16.255-6.413c-2.094.44-3.582 1.569-3.582 2.896 0 .898.684 1.704 1.772 2.271l.034.018zM56.7 33.649c.19-.227.3-.355.3-.355.609-.749 1.899-2.381 1.652-4.34-.34-2.733-3.646-5.803-6.832-5.15-1.9.387-2.991 1.945-3.339 2.484-.726.923-1.563 1.991-2.472 3.155L56.7 33.65zM28.454 50.642l-2.546-.984a8.366 8.366 0 00-1.638-.685 7.322 7.322 0 00-3.594-.237c-.886.195-1.495.603-1.667 1.125-.337 1.015.87 2.413 2.812 3.25.168.075.344.143.523.206l3.515 1.374c.703-1.225 1.593-2.602 2.595-4.05z" fill="#fff"/><path d="M122.069 185.066c-21.42-30.381-25.396-33.499-25.396-44.664 0-15.294 12.673-27.693 28.305-27.693s28.305 12.399 28.305 27.693c0 11.165-3.976 14.283-25.396 44.664-1.406 1.986-4.412 1.986-5.818 0z" fill="#FF7C33"/><path d="M122.069 185.066c-21.42-30.381-25.396-33.499-25.396-44.664 0-15.294 12.673-27.693 28.305-27.693s28.305 12.399 28.305 27.693c0 11.165-3.976 14.283-25.396 44.664-1.406 1.986-4.412 1.986-5.818 0z" stroke="#fff"/><path d="M142.901 143.943l-12.868-5.096a100.4 100.4 0 01-2.783 2.866l9.529 3.741c.348.192.722.338 1.111.435.509.13 1.034.195 1.561.194 2.039 0 3.679-.908 3.751-2.043-.1-.029-.204-.059-.301-.097z" fill="#fff"/><path d="M123.139 136.119c-6.168 8.02-9.829 13.116-10.446 14.582a2.79 2.79 0 00-.308 1.041c.145-.015.51-.107 1.332-.558a35.243 35.243 0 002.123-1.282l.239-.155 5.032 1.973.109.043c.133.049.255.097.408.141 1.809.546 3.343.119 3.582-.606.24-.726-.639-1.699-1.992-2.257l-.056-.022a3.048 3.048 0 00-.224-.087l-3.717-1.437.677-.544a92.556 92.556 0 005.506-4.875 91.894 91.894 0 003.597-3.64l-5.862-2.317zm20.168 6.882c.61.225 1.259.337 1.913.33 1.898 0 3.223-.847 3.223-1.609 0-.507-.55-1.014-1.437-1.324h-.023l-33.749-13.357a4.155 4.155 0 00-.51-.201 5.572 5.572 0 00-1.712-.26c-1.9 0-3.223.847-3.223 1.609 0 .515.586 1.041 1.496 1.345l13.488 5.338 1.019.4 5.949 2.357 1.041.412 12.525 4.96zm-33.51-8.139c.26.132.533.239.816.32l9.001 3.533c.922-1.145 1.783-2.183 2.468-3.013l-11.074-4.385c-1.427.301-2.441 1.072-2.441 1.98 0 .614.466 1.165 1.208 1.553l.022.012zm23.834-.854l.204-.243c.415-.512 1.294-1.628 1.126-2.968-.232-1.868-2.484-3.967-4.655-3.521-1.294.265-2.038 1.33-2.275 1.699-.494.631-1.065 1.361-1.684 2.157l7.284 2.876zm-19.245 11.619l-1.735-.673a5.729 5.729 0 00-1.115-.468 4.962 4.962 0 00-2.449-.162c-.603.133-1.019.412-1.136.769-.229.694.594 1.65 1.916 2.223.115.05.234.097.357.14l2.394.939a40.427 40.427 0 011.768-2.768z" fill="#fff"/><path d="M183.703 100.03c-17.965-25.444-21.299-28.055-21.299-37.406 0-12.809 10.628-23.192 23.739-23.192s23.739 10.383 23.739 23.192c0 9.351-3.334 11.962-21.299 37.406-1.179 1.664-3.701 1.664-4.88 0z" fill="#FF7C33"/><path d="M183.703 100.03c-17.965-25.444-21.299-28.055-21.299-37.406 0-12.809 10.628-23.192 23.739-23.192s23.739 10.383 23.739 23.192c0 9.351-3.334 11.962-21.299 37.406-1.179 1.664-3.701 1.664-4.88 0z" stroke="#fff"/><path d="M201.175 65.59l-10.793-4.269a83.253 83.253 0 01-2.333 2.4l7.991 3.135c.292.16.606.282.932.363.427.11.868.164 1.31.163 1.709 0 3.085-.76 3.145-1.711-.083-.025-.171-.05-.252-.082z" fill="#fff"/><path d="M184.6 59.037c-5.173 6.717-8.243 10.985-8.761 12.212-.143.273-.23.569-.258.872.122-.012.427-.09 1.117-.467.562-.311 1.144-.66 1.78-1.073l.201-.13 4.22 1.652.092.036c.111.041.214.082.342.118 1.517.457 2.804.1 3.004-.508.201-.607-.536-1.422-1.67-1.89l-.048-.018a2.765 2.765 0 00-.188-.073l-3.117-1.204.568-.455a77.869 77.869 0 007.635-7.131l-4.917-1.94zm16.915 5.764a4.523 4.523 0 001.605.277c1.592 0 2.703-.71 2.703-1.348 0-.425-.461-.85-1.205-1.11h-.019l-28.306-11.185a3.506 3.506 0 00-.428-.17 4.683 4.683 0 00-1.436-.217c-1.594 0-2.703.71-2.703 1.348 0 .43.492.872 1.255 1.126l11.312 4.471.855.335 4.989 1.974.874.345 10.504 4.154zm-28.104-6.817c.218.111.447.201.683.269l7.55 2.959c.773-.96 1.496-1.83 2.07-2.524l-9.288-3.673c-1.197.252-2.047.899-2.047 1.659 0 .514.391.975 1.012 1.3l.02.01zm19.989-.714l.171-.204c.348-.429 1.085-1.364.944-2.486-.194-1.564-2.083-3.322-3.903-2.949-1.086.222-1.71 1.114-1.909 1.423-.414.528-.893 1.14-1.412 1.807l6.109 2.408zM177.26 67l-1.456-.563a4.754 4.754 0 00-.935-.392 4.18 4.18 0 00-2.054-.136c-.506.111-.855.345-.953.644-.192.581.498 1.382 1.607 1.861.096.043.197.082.299.118l2.009.787c.401-.701.91-1.49 1.483-2.32z" fill="#fff"/></svg>