<svg width="150" height="52" fill="none" xmlns="http://www.w3.org/2000/svg"><rect width="150" height="52" rx="10" fill="#fff"/><path d="M60.031 33.055v4.508c-.177.213-.45.445-.82.695-.37.245-.846.456-1.43.633-.583.177-1.289.265-2.117.265-.734 0-1.404-.12-2.008-.36a4.338 4.338 0 01-1.562-1.07c-.433-.468-.766-1.041-1-1.718-.235-.683-.352-1.461-.352-2.336v-.711c0-.875.112-1.654.336-2.336.23-.682.555-1.258.977-1.727a4.18 4.18 0 011.508-1.07c.583-.245 1.231-.367 1.945-.367.99 0 1.802.161 2.437.484.636.318 1.12.76 1.453 1.328.339.563.547 1.209.625 1.938H57.75a2.908 2.908 0 00-.328-1.008 1.697 1.697 0 00-.695-.672c-.297-.161-.683-.242-1.157-.242-.39 0-.74.08-1.047.242a2.072 2.072 0 00-.765.696c-.209.307-.367.687-.477 1.14-.11.453-.164.98-.164 1.578v.727c0 .594.058 1.12.172 1.578.115.453.284.836.508 1.148.229.308.51.54.844.696.333.156.721.234 1.164.234.37 0 .677-.031.922-.094.25-.062.45-.138.601-.226.156-.094.276-.183.36-.266v-2.015h-2.141v-1.672h4.484zm1.39 1.804v-.164c0-.62.09-1.19.267-1.71a3.95 3.95 0 01.773-1.368 3.466 3.466 0 011.25-.898c.495-.219 1.062-.328 1.703-.328.64 0 1.211.109 1.711.328.5.213.92.513 1.258.898.344.386.604.841.781 1.367.177.521.266 1.091.266 1.711v.164c0 .615-.089 1.185-.266 1.711a3.973 3.973 0 01-.781 1.367 3.465 3.465 0 01-1.25.899c-.495.214-1.063.32-1.703.32-.64 0-1.211-.106-1.711-.32a3.541 3.541 0 01-1.258-.898 4.057 4.057 0 01-.773-1.368 5.33 5.33 0 01-.266-1.71zm2.25-.164v.164c0 .355.032.685.095.993.062.307.161.578.297.812.14.23.322.409.546.54.224.13.498.194.82.194.313 0 .581-.065.805-.195.224-.13.404-.31.54-.539a2.68 2.68 0 00.296-.812c.068-.308.102-.638.102-.993v-.164c0-.343-.034-.666-.102-.968a2.557 2.557 0 00-.304-.813 1.513 1.513 0 00-.54-.562 1.541 1.541 0 00-.812-.204c-.318 0-.588.068-.812.204a1.597 1.597 0 00-.54.562 2.68 2.68 0 00-.296.813 4.776 4.776 0 00-.094.968zm6.782.164v-.164c0-.62.089-1.19.266-1.71.177-.527.435-.982.773-1.368a3.465 3.465 0 011.25-.898c.495-.219 1.063-.328 1.703-.328.64 0 1.211.109 1.711.328.5.213.92.513 1.258.898.344.386.604.841.781 1.367.177.521.266 1.091.266 1.711v.164a5.33 5.33 0 01-.266 1.711 3.987 3.987 0 01-.78 1.367 3.466 3.466 0 01-1.25.899c-.496.214-1.063.32-1.704.32-.64 0-1.211-.106-1.711-.32a3.54 3.54 0 01-1.258-.898 4.054 4.054 0 01-.773-1.368 5.33 5.33 0 01-.266-1.71zm2.25-.164v.164c0 .355.031.685.094.993.062.307.161.578.297.812.14.23.323.409.547.54.224.13.497.194.82.194.312 0 .58-.065.805-.195.224-.13.403-.31.539-.539.135-.234.234-.505.297-.812a4.66 4.66 0 00.101-.993v-.164c0-.343-.034-.666-.101-.968a2.557 2.557 0 00-.305-.813 1.512 1.512 0 00-.54-.562 1.541 1.541 0 00-.812-.204c-.317 0-.588.068-.812.204a1.598 1.598 0 00-.54.562 2.678 2.678 0 00-.296.813 4.776 4.776 0 00-.094.968zm12.492-4.148h2.04v8.172c0 .77-.172 1.424-.516 1.96a3.18 3.18 0 01-1.422 1.227c-.61.282-1.318.422-2.125.422a4.89 4.89 0 01-1.125-.14 4.497 4.497 0 01-1.125-.438 2.972 2.972 0 01-.89-.75l.991-1.328c.26.302.563.536.907.703a2.51 2.51 0 001.14.258c.407 0 .75-.076 1.032-.227a1.5 1.5 0 00.648-.648c.151-.281.227-.623.227-1.024V32.5l.218-1.953zm-5.687 4.328v-.164c0-.646.078-1.232.234-1.758a4.26 4.26 0 01.68-1.367 3.09 3.09 0 011.078-.883 3.186 3.186 0 011.43-.312c.562 0 1.033.104 1.414.312.38.209.693.505.937.89.245.381.435.832.57 1.352.141.516.25 1.081.329 1.696V35a10 10 0 01-.352 1.64 5.04 5.04 0 01-.617 1.329 2.73 2.73 0 01-.953.875c-.375.208-.823.312-1.344.312-.52 0-.992-.106-1.414-.32a3.158 3.158 0 01-1.07-.898 4.28 4.28 0 01-.688-1.36 5.903 5.903 0 01-.234-1.703zm2.25-.164v.164c0 .349.034.675.101.977.068.302.172.57.313.804.146.23.325.41.539.54.219.124.477.187.773.187.412 0 .748-.086 1.008-.258.26-.177.456-.42.586-.727a3.13 3.13 0 00.227-1.062v-1.023a3.456 3.456 0 00-.133-.883 2.117 2.117 0 00-.328-.68 1.419 1.419 0 00-.547-.438 1.875 1.875 0 00-.797-.156 1.44 1.44 0 00-.773.203c-.214.13-.394.31-.54.54-.14.229-.247.5-.32.812-.073.307-.11.64-.11 1zM91.359 27v12h-2.257V27h2.257zm5.75 12.156c-.656 0-1.244-.104-1.765-.312a3.878 3.878 0 01-1.328-.883 3.922 3.922 0 01-.829-1.305 4.393 4.393 0 01-.289-1.593v-.313c0-.64.092-1.227.274-1.758.182-.531.443-.992.781-1.383.344-.39.76-.69 1.25-.898.49-.214 1.042-.32 1.656-.32.6 0 1.13.099 1.594.297a3.11 3.11 0 011.164.843c.318.365.557.802.719 1.313a5.54 5.54 0 01.242 1.687v.938h-6.719v-1.5h4.508v-.172a1.95 1.95 0 00-.172-.836 1.326 1.326 0 00-.5-.594c-.224-.146-.51-.219-.86-.219-.296 0-.551.066-.765.196a1.51 1.51 0 00-.523.547c-.13.234-.23.51-.297.828a5.266 5.266 0 00-.094 1.031v.313c0 .338.047.65.14.937.1.286.238.534.415.742.182.209.401.37.656.485.26.114.555.171.883.171a2.74 2.74 0 001.133-.234c.354-.161.659-.404.914-.727l1.094 1.188c-.177.255-.42.5-.727.734a3.879 3.879 0 01-1.094.578 4.512 4.512 0 01-1.46.22zm13.305-4.21h-2.898v-1.829h2.898c.448 0 .813-.073 1.094-.219.281-.15.487-.359.617-.625.13-.265.195-.565.195-.898 0-.338-.065-.654-.195-.945a1.577 1.577 0 00-.617-.703c-.281-.178-.646-.266-1.094-.266h-2.086V39h-2.344V27.625h4.43c.891 0 1.654.162 2.289.484.641.318 1.13.758 1.469 1.32.338.563.508 1.206.508 1.93 0 .735-.17 1.37-.508 1.907-.339.536-.828.95-1.469 1.242-.635.291-1.398.437-2.289.437zM118.531 27v12h-2.258V27h2.258zm6.422 10.094v-3.766c0-.27-.044-.503-.133-.695a.983.983 0 00-.414-.461c-.182-.11-.419-.164-.711-.164-.25 0-.466.044-.648.133a.941.941 0 00-.422.367 1.014 1.014 0 00-.148.554h-2.25c0-.359.083-.7.25-1.023.166-.323.408-.607.726-.852.318-.25.695-.445 1.133-.585a4.876 4.876 0 011.484-.211c.657 0 1.24.109 1.75.328.511.218.912.547 1.203.984.297.438.446.985.446 1.64v3.618c0 .464.028.844.086 1.14.057.292.14.547.25.766V39h-2.274a3.292 3.292 0 01-.25-.86 7.093 7.093 0 01-.078-1.046zm.297-3.242l.016 1.273h-1.258c-.297 0-.555.034-.774.102a1.448 1.448 0 00-.539.289c-.14.12-.244.26-.312.422a1.45 1.45 0 00-.094.53c0 .193.044.368.133.524a.946.946 0 00.383.36c.166.083.362.125.586.125.338 0 .632-.068.882-.204a1.62 1.62 0 00.579-.5c.14-.198.213-.385.218-.562l.594.953a3.825 3.825 0 01-.344.664c-.14.23-.32.445-.539.649a2.79 2.79 0 01-.789.492c-.307.125-.672.187-1.094.187a3.281 3.281 0 01-1.46-.32 2.659 2.659 0 01-1.032-.898 2.359 2.359 0 01-.375-1.313c0-.443.084-.836.25-1.18.167-.343.412-.633.735-.867.328-.24.737-.42 1.226-.539.49-.125 1.057-.187 1.703-.187h1.305zm6.086 4.195l2.242-7.5h2.414l-3.398 9.726a5.28 5.28 0 01-.297.688 2.78 2.78 0 01-.492.695 2.297 2.297 0 01-.774.547c-.307.14-.685.211-1.133.211a2.86 2.86 0 01-.523-.039 9.137 9.137 0 01-.484-.11v-1.648h.179c.063.005.123.008.18.008.297 0 .539-.034.727-.102a1.01 1.01 0 00.453-.312c.114-.136.205-.313.273-.531l.633-1.633zm-.938-7.5l1.836 6.125.321 2.383-1.532.164-3.039-8.672h2.414zm-74-12.207h.721c-.059.574-.217 1.07-.474 1.488a2.57 2.57 0 01-1.055.955c-.446.223-.983.334-1.612.334-.484 0-.923-.092-1.318-.275a2.922 2.922 0 01-1.008-.78 3.639 3.639 0 01-.65-1.218 5.119 5.119 0 01-.229-1.576V16.2c0-.578.077-1.101.229-1.57a3.58 3.58 0 01.656-1.219c.285-.34.627-.602 1.026-.785a3.184 3.184 0 011.347-.275c.606 0 1.13.11 1.57.333a2.5 2.5 0 011.044.95c.257.414.415.914.474 1.5h-.72c-.055-.461-.176-.852-.364-1.172a1.855 1.855 0 00-.78-.732c-.327-.172-.736-.258-1.224-.258-.398 0-.754.076-1.066.228a2.22 2.22 0 00-.797.656 3.05 3.05 0 00-.504 1.014 4.77 4.77 0 00-.17 1.318v1.079c0 .468.055.9.164 1.294.11.395.27.737.48 1.026.215.289.477.514.786.674.308.16.66.24 1.054.24.504 0 .924-.08 1.26-.24.34-.164.604-.407.791-.727.188-.32.31-.719.37-1.195zm3.059-3.68V21h-.703v-6.34h.703zm4.172 0l-2.906 3.434H59.21l-.076-.627h1.289l2.32-2.807h.885zM62.996 21l-2.643-3 .446-.54L63.922 21h-.926zm5.795-1.137v-3.27c0-.3-.063-.56-.188-.778a1.234 1.234 0 00-.55-.505c-.242-.117-.541-.175-.897-.175-.328 0-.62.058-.879.175a1.515 1.515 0 00-.603.463 1.035 1.035 0 00-.217.64l-.703-.007c0-.238.058-.468.176-.691a1.94 1.94 0 01.498-.598c.215-.176.47-.314.767-.416.301-.105.631-.158.99-.158.454 0 .852.076 1.196.229.347.152.619.38.814.685.196.305.293.688.293 1.148v3.065c0 .219.016.445.047.68.035.234.084.427.147.58V21h-.745a2.856 2.856 0 01-.11-.527 5.617 5.617 0 01-.036-.61zm.164-2.554l.012.539H67.59c-.36 0-.682.033-.967.1-.281.062-.52.155-.715.28a1.352 1.352 0 00-.451.44 1.13 1.13 0 00-.152.586c0 .226.056.433.17.621.117.188.28.338.492.451.215.11.469.164.761.164.391 0 .735-.072 1.032-.217.3-.144.549-.334.744-.568a1.87 1.87 0 00.392-.767l.305.404c-.05.195-.144.396-.281.603a2.632 2.632 0 01-.522.575c-.214.175-.468.32-.761.433-.29.11-.618.164-.985.164-.414 0-.775-.078-1.084-.234a1.802 1.802 0 01-.715-.639 1.732 1.732 0 01-.251-.926c0-.312.066-.591.199-.838.133-.25.324-.46.574-.632.254-.176.559-.309.914-.399a4.78 4.78 0 011.207-.14h1.46zm6.92-2.649V21h-.697v-6.34h.697zm-.24 2.877v.604c-.18.086-.387.168-.621.246-.23.078-.475.142-.733.193-.254.047-.508.07-.762.07-.523 0-.966-.076-1.33-.228a1.605 1.605 0 01-.814-.75c-.184-.352-.275-.82-.275-1.406v-1.612h.697v1.612c0 .449.062.804.187 1.066a1.1 1.1 0 00.569.55c.254.11.576.165.966.165.27-.008.538-.035.803-.082a5.95 5.95 0 00.739-.188c.23-.078.421-.158.574-.24zm5.976 2.326v-3.27c0-.3-.062-.56-.187-.778a1.234 1.234 0 00-.551-.505c-.242-.117-.541-.175-.896-.175a2.11 2.11 0 00-.88.175 1.515 1.515 0 00-.603.463 1.035 1.035 0 00-.217.64l-.703-.007c0-.238.059-.468.176-.691a1.94 1.94 0 01.498-.598c.215-.176.47-.314.768-.416.3-.105.63-.158.99-.158.453 0 .851.076 1.195.229.348.152.62.38.815.685.195.305.293.688.293 1.148v3.065c0 .219.015.445.047.68.035.234.084.427.146.58V21h-.744a2.856 2.856 0 01-.111-.527 5.617 5.617 0 01-.036-.61zm.164-2.554l.012.539H80.41c-.36 0-.681.033-.967.1-.28.062-.52.155-.715.28a1.352 1.352 0 00-.45.44 1.13 1.13 0 00-.153.586c0 .226.057.433.17.621.117.188.281.338.492.451.215.11.469.164.762.164.39 0 .734-.072 1.031-.217.3-.144.549-.334.744-.568a1.87 1.87 0 00.393-.767l.305.404a2.036 2.036 0 01-.282.603 2.634 2.634 0 01-.521.575 2.77 2.77 0 01-.762.433c-.289.11-.617.164-.984.164-.414 0-.776-.078-1.084-.234a1.802 1.802 0 01-.715-.639 1.733 1.733 0 01-.252-.926 1.727 1.727 0 01.773-1.47c.254-.176.559-.309.914-.399a4.78 4.78 0 011.207-.14h1.46zm3.153 2.554l3.428-5.203h.703V21h-.703v-5.203L84.928 21h-.692v-6.34h.692v5.203zm2.783-7.476h.598c0 .293-.069.553-.206.779a1.373 1.373 0 01-.58.533 1.97 1.97 0 01-.902.194c-.523 0-.937-.141-1.242-.422-.3-.281-.451-.643-.451-1.084h.591c0 .27.083.504.247.703.168.195.453.293.855.293.39 0 .67-.1.838-.299.168-.2.252-.432.252-.697zm5.467 2.273V21h-.697v-6.34h.697zm2.308 0v.598h-5.232v-.598h5.232zm3.141 6.457c-.414 0-.795-.076-1.143-.228a2.73 2.73 0 01-.902-.645 2.97 2.97 0 01-.592-.984 3.704 3.704 0 01-.205-1.254v-.252c0-.488.072-.93.217-1.324.145-.395.344-.733.598-1.014s.543-.496.867-.645a2.42 2.42 0 011.031-.228c.402 0 .76.072 1.072.217.313.14.575.342.785.603.215.258.377.565.487.92.109.352.164.74.164 1.166v.428h-4.799v-.598h4.102v-.082a2.572 2.572 0 00-.217-.996 1.801 1.801 0 00-.598-.761c-.266-.196-.597-.293-.996-.293-.297 0-.57.062-.82.187a1.865 1.865 0 00-.639.539c-.176.23-.312.506-.41.826a3.7 3.7 0 00-.14 1.055v.252c0 .351.05.68.152.984.105.301.253.567.445.797.195.23.426.41.691.54.266.128.559.192.88.192.374 0 .706-.068.995-.204.29-.141.549-.362.78-.663l.439.34c-.137.203-.309.39-.516.563a2.326 2.326 0 01-.732.41 2.964 2.964 0 01-.996.152zm9.492-3.04h-2.226l-.012-.587h1.898c.383 0 .701-.04.955-.123.258-.086.452-.213.58-.38a.97.97 0 00.2-.622.988.988 0 00-.118-.492.873.873 0 00-.339-.346 1.7 1.7 0 00-.563-.199 3.815 3.815 0 00-.779-.07h-1.623V21h-.697v-6.34h2.32c.387 0 .732.035 1.037.106.309.066.572.168.791.304.219.137.385.313.498.528.117.21.176.46.176.75 0 .195-.037.379-.112.55-.074.168-.183.32-.328.457-.14.133-.314.243-.521.329a2.407 2.407 0 01-.715.152l-.422.24zm0 2.923h-2.443l.269-.598h2.174c.352 0 .651-.045.897-.134.246-.09.431-.223.556-.399a1.05 1.05 0 00.194-.639.987.987 0 00-.194-.609 1.185 1.185 0 00-.556-.398 2.434 2.434 0 00-.897-.147h-1.617l.012-.586h2.08l.299.223c.32.027.597.113.832.258.234.144.416.328.545.55.128.22.193.46.193.721 0 .29-.055.545-.164.768a1.5 1.5 0 01-.475.55 2.204 2.204 0 01-.738.329 3.889 3.889 0 01-.967.111z" fill="#000"/><path d="M14.979 10.97a2.329 2.329 0 00-.542 1.635v25.793c-.034.594.16 1.178.542 1.636l.089.088 14.55-14.454v-.342l-14.55-14.444-.089.088z" fill="url(#paint0_linear_108_18)"/><path d="M34.472 30.486l-4.854-4.818v-.342l4.854-4.809.109.06 5.75 3.24c1.648.921 1.648 2.439 0 3.37l-5.75 3.24-.109.06z" fill="url(#paint1_linear_108_18)"/><path d="M34.58 30.427l-4.932-4.896L14.98 40.034a1.982 1.982 0 002.417.068l17.155-9.675" fill="url(#paint2_linear_108_18)"/><path d="M34.58 20.576l-17.184-9.684a1.913 1.913 0 00-2.417.078l14.64 14.532 4.962-4.926z" fill="url(#paint3_linear_108_18)"/><path opacity=".1" d="M34.472 30.32l-17.076 9.616a1.983 1.983 0 01-2.358 0l-.088.088.088.088a1.983 1.983 0 002.358 0l17.155-9.675-.079-.117z" fill="#000"/><path opacity=".07" d="M14.979 39.877a2.368 2.368 0 01-.542-1.645v.166c-.034.594.16 1.178.542 1.636l.089-.088-.089-.069zM40.332 27.01l-5.86 3.31.109.107 5.75-3.28a2.07 2.07 0 001.234-1.684 2.157 2.157 0 01-1.233 1.547z" fill="#000"/><path opacity=".3" d="M17.396 11.068l22.936 12.916a2.167 2.167 0 011.233 1.518 2.038 2.038 0 00-.385-1.01 2.06 2.06 0 00-.848-.674L17.396 10.892c-1.618-.92-2.96-.157-2.96 1.713v.167c0-1.86 1.342-2.634 2.96-1.704z" fill="#fff"/><defs><linearGradient id="paint0_linear_108_18" x1="28.336" y1="12.331" x2="8.762" y2="32.05" gradientUnits="userSpaceOnUse"><stop stop-color="#008EFF"/><stop offset=".01" stop-color="#008FFF"/><stop offset=".26" stop-color="#00ACFF"/><stop offset=".51" stop-color="#00C0FF"/><stop offset=".76" stop-color="#00CDFF"/><stop offset="1" stop-color="#00D1FF"/></linearGradient><linearGradient id="paint1_linear_108_18" x1="40.529" y1="25.502" x2="12.098" y2="25.502" gradientUnits="userSpaceOnUse"><stop stop-color="#FFD800"/><stop offset="1" stop-color="#FF8A00"/></linearGradient><linearGradient id="paint2_linear_108_18" x1="31.887" y1="28.175" x2="5.351" y2="54.908" gradientUnits="userSpaceOnUse"><stop stop-color="#FF3A44"/><stop offset="1" stop-color="#B11162"/></linearGradient><linearGradient id="paint3_linear_108_18" x1="11.29" y1="2.382" x2="23.148" y2="14.318" gradientUnits="userSpaceOnUse"><stop stop-color="#328E71"/><stop offset=".07" stop-color="#2D9571"/><stop offset=".48" stop-color="#15BD74"/><stop offset=".8" stop-color="#06D575"/><stop offset="1" stop-color="#00DE76"/></linearGradient></defs></svg>