<svg width="52" height="52" fill="none" xmlns="http://www.w3.org/2000/svg"><rect width="52" height="52" rx="26" fill="red"/><g clip-path="url(#clip0_48_147)"><path d="M37.47 19.651a3.044 3.044 0 00-.78-1.355 3.012 3.012 0 00-1.344-.784C33.483 17 25.988 17 25.988 17s-7.497.015-9.359.527a3.02 3.02 0 00-1.345.785 3.044 3.044 0 00-.779 1.355c-.563 3.334-.782 8.414.016 11.614a3.022 3.022 0 002.124 2.14c1.862.511 9.358.511 9.358.511s7.496 0 9.358-.511c.509-.139.973-.41 1.345-.785.373-.375.641-.843.78-1.355.593-3.338.776-8.415-.016-11.63z" fill="#fff"/><path d="M23.602 29.095l6.218-3.629-6.218-3.628v7.257z" fill="red"/></g><defs><clipPath id="clip0_48_147"><path fill="#fff" transform="translate(14 17)" d="M0 0h24v17H0z"/></clipPath></defs></svg>