<svg width="41" height="41" fill="none" xmlns="http://www.w3.org/2000/svg"><path fill-rule="evenodd" clip-rule="evenodd" d="M29.89 24.571c-.51-.254-3.018-1.482-3.486-1.651-.467-.17-.807-.255-1.147.254-.34.508-1.318 1.651-1.615 1.99-.298.339-.595.381-1.105.127s-2.154-.79-4.102-2.52c-1.517-1.345-2.54-3.008-2.838-3.516-.297-.508-.032-.783.224-1.036.23-.228.51-.593.765-.89.255-.296.34-.508.51-.846.17-.34.085-.636-.043-.89-.127-.254-1.147-2.753-1.572-3.769-.414-.99-.835-.856-1.148-.871a20.57 20.57 0 00-.978-.018c-.34 0-.892.127-1.36.635-.467.508-1.785 1.736-1.785 4.235 0 2.499 1.828 4.913 2.083 5.251.255.34 3.597 5.467 8.713 7.665 1.217.523 2.168.836 2.908 1.07 1.222.386 2.334.332 3.213.201.98-.146 3.018-1.228 3.443-2.414.425-1.186.425-2.202.298-2.414-.128-.212-.468-.339-.978-.593zm-9.306 12.645h-.007a17.003 17.003 0 01-8.636-2.353l-.62-.366L4.9 36.173l1.714-6.231-.404-.639a16.788 16.788 0 01-2.594-8.987c.004-9.31 7.616-16.885 16.975-16.885a16.895 16.895 0 0111.995 4.952 16.744 16.744 0 014.965 11.947c-.003 9.311-7.615 16.886-16.967 16.886zM35.026 5.958C31.172 2.118 26.046.002 20.586 0 9.334 0 .176 9.113.17 20.315a20.206 20.206 0 002.725 10.157L0 41l10.822-2.825a20.479 20.479 0 009.755 2.473h.009c11.25 0 20.41-9.115 20.414-20.317.002-5.428-2.12-10.533-5.974-14.373z" fill="#4CAF50"/></svg>