<svg width="24" height="24" fill="none" xmlns="http://www.w3.org/2000/svg"><path fill-rule="evenodd" clip-rule="evenodd" d="M17.497 14.383c-.299-.149-1.767-.867-2.04-.967-.274-.099-.473-.148-.673.15-.199.297-.77.966-.945 1.164-.174.198-.348.223-.647.075-.298-.15-1.26-.463-2.401-1.475-.888-.788-1.487-1.761-1.661-2.059-.174-.297-.019-.458.13-.606.135-.133.3-.347.449-.52.15-.174.199-.298.298-.497.1-.198.05-.372-.025-.52-.074-.149-.671-1.612-.92-2.207-.242-.579-.489-.5-.672-.51a12.92 12.92 0 00-.572-.01 1.1 1.1 0 00-.796.372c-.274.297-1.045 1.016-1.045 2.479 0 1.462 1.07 2.875 1.219 3.074.15.198 2.105 3.2 5.1 4.487a17.28 17.28 0 001.703.626c.715.226 1.366.194 1.88.117.574-.085 1.767-.719 2.016-1.413.248-.694.248-1.289.174-1.413-.075-.124-.274-.198-.572-.347zm-5.448 7.402h-.004a9.953 9.953 0 01-5.055-1.378l-.363-.214-3.759.981 1.003-3.647-.236-.374a9.827 9.827 0 01-1.518-5.26c.002-5.45 4.457-9.885 9.936-9.885a9.89 9.89 0 017.022 2.9A9.802 9.802 0 0121.98 11.9c-.002 5.45-4.458 9.885-9.932 9.885zm8.454-18.297A11.9 11.9 0 0012.05 0C5.464 0 .103 5.335.1 11.892c0 2.096.55 4.142 1.595 5.945L0 24l6.335-1.654a11.987 11.987 0 005.71 1.448h.005c6.586 0 11.947-5.335 11.95-11.893a11.792 11.792 0 00-3.497-8.413z" fill="#fff"/></svg>