<svg width="95" height="104" fill="none" xmlns="http://www.w3.org/2000/svg"><path d="M47.161.085a4.922 4.922 0 00-1.876.01L3.957 8.355A4.921 4.921 0 000 13.18v34.03c0 19.218 11.619 33.392 22.426 42.44 5.46 4.572 10.895 7.996 14.957 10.277a91.917 91.917 0 004.951 2.592 62.181 62.181 0 001.826.845l.115.05.035.015.016.007s.004.001 1.924-4.53l-1.92 4.531c1.11.47 2.353.517 3.495.132l-1.575-4.663c1.575 4.663 1.578 4.661 1.578 4.661l.017-.006.037-.012.12-.042a61.603 61.603 0 001.932-.724 91.717 91.717 0 005.248-2.266c4.304-2.013 10.074-5.083 15.875-9.305C78.496 85.8 86.354 78.205 90.959 68.24h-11.17c-3.718 5.997-8.98 10.98-14.524 15.015-5.155 3.751-10.34 6.518-14.253 8.348a82.598 82.598 0 01-4.56 1.974 81.919 81.919 0 01-4.25-2.231c-3.688-2.071-8.585-5.161-13.457-9.24-9.857-8.254-18.902-19.927-18.902-34.894V17.216l36.434-7.282 38.874 7.327v8.925h9.842V13.18a4.921 4.921 0 00-4.01-4.836L47.161.085z" fill="#CBE4FB"/><path d="M37.946 63.857c5.372 0 10.188-1.879 13.629-5.16 3.44-3.255 5.53-8.336 5.53-14.264 0-5.928-2.09-10.982-5.53-14.263-3.44-3.282-8.257-5.16-13.629-5.16-3.572 0-6.8.767-9.685 2.302-2.885 1.535-5.187 3.784-6.907 6.748-1.72 2.99-2.567 6.43-2.567 10.373 0 3.943.847 7.383 2.567 10.347 3.414 5.954 9.394 9.077 16.592 9.077zm-7.039-11.432c-1.826-1.879-2.752-4.552-2.752-7.992 0-3.413.9-6.086 2.726-7.992 1.826-1.878 4.18-2.831 7.065-2.831 2.911 0 5.266.926 7.092 2.805 1.826 1.879 2.726 4.552 2.726 8.018 0 3.44-.9 6.113-2.726 7.992-1.826 1.905-4.18 2.858-7.065 2.858-2.885 0-5.24-.953-7.066-2.858zM85.15 26.186L71.899 42.21V25.46h-9.341v34.92h9.341v-5.997l3.996-4.975 9.315 10.973H95L81.319 42.607l13.674-16.421h-9.842z" fill="#CBE4FB"/></svg>