<svg width="60" height="60" fill="none" xmlns="http://www.w3.org/2000/svg"><rect width="60" height="60" rx="17.057" fill="#E9F4FF"/><path d="M30.41 17.022c-.162-.03-.33-.03-.493.003l-10.876 2.148A1.284 1.284 0 0018 20.428v8.85c0 4.997 3.058 8.683 5.902 11.035a26.16 26.16 0 005.239 3.347 16.096 16.096 0 00.48.22l.03.012.01.004.004.002.506-1.178-.505 1.179c.292.122.619.134.92.034l-.415-1.213c.414 1.213.415 1.212.415 1.212l.005-.001.01-.003.031-.011.111-.04a24.344 24.344 0 001.778-.738 25.743 25.743 0 004.178-2.42c1.958-1.407 4.026-3.382 5.238-5.974h-2.94c-.978 1.56-2.363 2.856-3.822 3.905a23.155 23.155 0 01-4.951 2.684 23.564 23.564 0 01-4.66-2.983c-2.593-2.146-4.974-5.182-4.974-9.074v-7.8l9.588-1.894 10.23 1.906v2.32h2.59v-3.381c0-.616-.443-1.144-1.055-1.258l-11.532-2.148z" fill="#000"/><path d="M27.986 33.606c1.413 0 2.68-.489 3.586-1.342.906-.847 1.456-2.168 1.456-3.71 0-1.54-.55-2.855-1.456-3.708-.905-.854-2.172-1.342-3.586-1.342-.94 0-1.79.2-2.549.598a4.52 4.52 0 00-1.818 1.755c-.452.778-.675 1.672-.675 2.698 0 1.025.223 1.92.675 2.69.899 1.549 2.473 2.36 4.367 2.36zm-1.853-2.973c-.48-.489-.724-1.184-.724-2.078 0-.888.237-1.583.718-2.079.48-.488 1.1-.736 1.859-.736.766 0 1.386.24 1.866.73.48.488.717 1.183.717 2.085 0 .894-.236 1.59-.717 2.078-.48.495-1.1.743-1.86.743-.758 0-1.378-.248-1.859-.743zm14.275-6.823l-3.488 4.167V23.62h-2.458v9.08h2.458v-1.559l1.052-1.294 2.451 2.854H43l-3.6-4.622 3.598-4.27h-2.59z" fill="#000"/></svg>