<svg width="54" height="53" fill="none" xmlns="http://www.w3.org/2000/svg"><path d="M29.153 16.177a2.143 2.143 0 00-4.286 0h4.286zm-4.286 21.082a2.143 2.143 0 004.286 0h-4.286zm12.289-14.322a2.143 2.143 0 00-4.286 0h4.286zM32.87 37.259a2.143 2.143 0 004.286 0H32.87zM21.15 22.937a2.143 2.143 0 00-4.286 0h4.285zm-4.286 14.322a2.143 2.143 0 004.285 0h-4.285zM8.498 47.92l1.25-1.74-1.25 1.74zm-2.95-2.915l1.726-1.27-1.727 1.27zm42.924 0l-1.726-1.27 1.726 1.27zm-2.95 2.915l-1.25-1.74 1.25 1.74zm0-42.402l-1.25 1.74 1.25-1.74zm2.95 2.915l-1.726 1.27 1.726-1.27zM8.498 5.517l1.25 1.74-1.25-1.74zm-2.95 2.915l1.726 1.27-1.727-1.27zm19.319 7.745v21.082h4.286V16.177h-4.286zm8.003 6.76v14.322h4.286V22.937H32.87zm-16.006 0v14.322h4.285V22.937h-4.285zM27.01 48.293c-5.049 0-8.666-.003-11.464-.302-2.76-.296-4.47-.86-5.798-1.813L7.249 49.66c2.178 1.564 4.723 2.258 7.84 2.592 3.08.33 6.966.327 11.92.327v-4.286zM.857 26.718c0 4.892-.003 8.736.331 11.784.34 3.088 1.045 5.613 2.633 7.772l3.453-2.54c-.96-1.304-1.527-2.982-1.825-5.7-.303-2.76-.306-6.327-.306-11.316H.857zm8.89 19.46a11.115 11.115 0 01-2.473-2.443L3.82 46.274a15.402 15.402 0 003.43 3.386l2.499-3.481zm39.13-19.46c0 4.99-.003 8.557-.306 11.316-.298 2.718-.865 4.396-1.825 5.7l3.453 2.54c1.587-2.16 2.294-4.684 2.632-7.773.335-3.047.332-6.89.332-11.783h-4.286zM27.01 52.578c4.954 0 8.84.004 11.92-.326 3.118-.334 5.663-1.028 7.84-2.592l-2.498-3.481c-1.328.953-3.038 1.516-5.798 1.812-2.799.3-6.415.302-11.464.302v4.286zm19.736-8.843a11.116 11.116 0 01-2.474 2.444l2.499 3.481a15.403 15.403 0 003.428-3.386l-3.453-2.54zM27.01 5.143c5.049 0 8.665.003 11.464.302 2.76.296 4.47.86 5.798 1.812l2.499-3.481c-2.178-1.564-4.723-2.258-7.841-2.592-3.08-.33-6.966-.327-11.92-.327v4.286zm26.153 21.575c0-4.893.003-8.736-.332-11.784-.338-3.089-1.045-5.613-2.633-7.772l-3.452 2.54c.96 1.304 1.527 2.982 1.825 5.7.303 2.76.306 6.327.306 11.316h4.286zm-8.891-19.46c.95.682 1.785 1.506 2.474 2.443l3.453-2.539a15.402 15.402 0 00-3.428-3.386l-2.5 3.481zM27.01.857c-4.955 0-8.84-.004-11.92.326-3.118.334-5.663 1.028-7.841 2.592l2.499 3.481c1.328-.953 3.038-1.516 5.798-1.812 2.798-.3 6.415-.302 11.464-.302V.857zM5.143 26.717c0-4.99.003-8.557.306-11.316.298-2.718.865-4.396 1.825-5.7L3.82 7.161c-1.588 2.159-2.294 4.683-2.633 7.772-.334 3.048-.33 6.891-.33 11.784h4.285zM7.249 3.776a15.402 15.402 0 00-3.428 3.386l3.453 2.54a11.116 11.116 0 012.474-2.445L7.249 3.776z" fill="#000"/></svg>