<svg width="46" height="48" fill="none" xmlns="http://www.w3.org/2000/svg"><path d="M0 24.08a2 2 0 104 0H0zm45.086 0a2 2 0 10-4 0h4zM8.436 35.81a2 2 0 00-3.01 2.636l3.01-2.636zM36.65 12.351a2 2 0 003.009-2.636l-3.009 2.636zm5.675-10.36a2 2 0 00-4 .018l4-.018zm-1.982 3.995l2-.01-2 .01zm-7.56 7.387l-.008 2 .008-2zm-4.07-2.018a2 2 0 00-.018 4l.018-4zm10.79.486l1.569 1.242-1.568-1.242zm-.727.712l1.206 1.595-1.206-1.595zM2.592 46.009a2 2 0 004-.018l-4 .018zm1.982-3.995l-2 .01 2-.01zm7.56-7.387l.008-2-.008 2zm4.07 2.018a2 2 0 10.018-4l-.018 4zm-10.79-.486l-1.569-1.242 1.568 1.242zm.728-.712l-1.207-1.595 1.207 1.595zm16.4-33.44C10.138 2.007 0 11.847 0 24.081h4c0-9.939 8.258-18.074 18.543-18.074v-4zm0 44.147c12.407 0 22.544-9.84 22.544-22.073h-4c0 9.938-8.258 18.073-18.543 18.073v4zM5.428 38.446c4.137 4.723 10.277 7.708 17.116 7.708v-4c-5.656 0-10.71-2.465-14.108-6.344l-3.008 2.636zM39.659 9.715c-4.137-4.722-10.277-7.708-17.116-7.708v4c5.656 0 10.71 2.465 14.107 6.344l3.009-2.636zm-1.334-7.706l.018 3.986 4-.018-.018-3.986-4 .018zm-5.533 9.364l-4.08-.018-.017 4 4.08.018.017-4zm5.551-5.378c.008 1.638.01 2.693-.079 3.48-.083.745-.224.994-.328 1.125l3.136 2.483c.757-.956 1.043-2.046 1.167-3.163.12-1.073.111-2.402.104-3.943l-4 .018zm-5.568 9.378c1.58.007 2.93.016 4.02-.1 1.125-.12 2.22-.394 3.187-1.125l-2.413-3.19c-.146.11-.42.254-1.2.337-.815.087-1.904.085-3.577.078l-.017 4zm5.161-4.773a2.028 2.028 0 01-.367.358l2.413 3.19a6.028 6.028 0 001.09-1.065L37.936 10.6zM6.592 45.99l-.018-3.985-4 .018.018 3.986 4-.018zm5.533-9.363l4.08.018.017-4-4.08-.018-.017 4zm-5.551 5.378c-.008-1.638-.01-2.693.079-3.48.083-.745.224-.994.328-1.125l-3.136-2.483c-.757.956-1.043 2.046-1.167 3.163-.12 1.073-.111 2.402-.104 3.943l4-.018zm5.569-9.378c-1.581-.007-2.932-.016-4.02.1-1.126.12-2.222.394-3.188 1.125l2.413 3.19c.146-.11.42-.254 1.2-.337.815-.087 1.905-.085 3.577-.078l.018-4zM6.98 37.4a2.03 2.03 0 01.367-.358l-2.413-3.19a6.027 6.027 0 00-1.09 1.065L6.981 37.4z" fill="#000"/></svg>