<svg width="29" height="26" fill="none" xmlns="http://www.w3.org/2000/svg"><path d="M16.975 8.714V5.26h7.907V0H3.352v5.261h7.907v3.45C4.832 9.006 0 10.277 0 11.799c0 1.523 4.835 2.794 11.259 3.09v11.06h5.718V14.89c6.415-.296 11.237-1.566 11.237-3.087 0-1.521-4.822-2.792-11.237-3.087l-.002-.001zm.002 5.238v-.003c-.162.01-.99.06-2.836.06-1.475 0-2.513-.042-2.88-.06v.004c-5.677-.251-9.915-1.239-9.915-2.42 0-1.181 4.238-2.167 9.916-2.42v3.856c.372.026 1.435.088 2.903.088 1.764 0 2.65-.073 2.813-.088V9.114c5.666.252 9.895 1.24 9.895 2.418 0 1.177-4.23 2.166-9.895 2.418" fill="#000"/></svg>