<svg width="18" height="21" fill="none" xmlns="http://www.w3.org/2000/svg"><path d="M14.875 12.25a2.625 2.625 0 012.625 2.625v.626C17.5 18.63 13.816 21 8.75 21S0 18.754 0 15.5v-.625a2.625 2.625 0 012.625-2.625h12.25zm0 1.313H2.625a1.312 1.312 0 00-1.306 1.185l-.006.127v.626c0 2.34 2.965 4.187 7.437 4.187 4.31 0 7.31-1.842 7.434-4.046l.004-.141v-.626a1.313 1.313 0 00-1.186-1.306l-.127-.007zM8.75 0a5.25 5.25 0 110 10.5 5.25 5.25 0 010-10.5zm0 1.313a3.937 3.937 0 100 7.874 3.937 3.937 0 000-7.874z" fill="#000"/></svg>