<svg width="20" height="20" fill="none" xmlns="http://www.w3.org/2000/svg"><path fill-rule="evenodd" clip-rule="evenodd" d="M8.966 1.278a7 7 0 112.596 12.574h-.015c.196.06-.185-.042.015 0L10 15.414A2 2 0 018.586 16H8a2 2 0 01-2 2 2 2 0 01-2 2H2a2 2 0 01-2-2v-2.586A2 2 0 01.586 14l5.562-5.562c-.06-.196.042.2 0 0a7 7 0 012.818-7.16zM13.058 2a5 5 0 00-4.844 6.453 1 1 0 01-.25.997L2 15.414V18h2a2 2 0 012-2 2 2 0 012-2h.586l1.964-1.964a1 1 0 01.997-.25 5.002 5.002 0 006.218-6.297A5 5 0 0013.057 2zM12 5a1 1 0 011-1 3 3 0 013 3 1 1 0 11-2 0 1 1 0 00-1-1 1 1 0 01-1-1z" fill="#fff"/></svg>