<svg width="24" height="24" fill="none" xmlns="http://www.w3.org/2000/svg"><path d="M22 3h-1V2a1 1 0 00-2 0v1h-1a1 1 0 100 2h1v1a1 1 0 002 0V5h1a1 1 0 100-2zm-9.5 10H12a1 1 0 010-2h.5a1.001 1.001 0 001-1V9a1.001 1.001 0 00-1-1h-1a1.001 1.001 0 00-1 1 1 1 0 01-2 0 3.003 3.003 0 013-3h1a3.003 3.003 0 013 3v1a3.004 3.004 0 01-3 3z" fill="#46BF8C"/><path d="M12.5 18h-1a3.003 3.003 0 01-3-3 1 1 0 112 0 1.001 1.001 0 001 1h1a1.001 1.001 0 001-1v-1a1.001 1.001 0 00-1-1H12a1 1 0 010-2h.5a3.004 3.004 0 013 3v1a3.004 3.004 0 01-3 3z" fill="#46BF8C"/><path d="M12 23a11 11 0 112.199-21.78 1 1 0 11-.398 1.96 8.991 8.991 0 107.019 7.02 1 1 0 011.96-.4A11.008 11.008 0 0112 23z" fill="#46BF8C"/></svg>