<svg width="24" height="24" fill="none" xmlns="http://www.w3.org/2000/svg"><path d="M18.919 23.813h.619c1.125 0 2.193-.45 2.924-1.294a3.729 3.729 0 00.826-3.281L19.105.617a.548.548 0 00-.619-.43.485.485 0 00-.318.168l-.75.75c-.544.544-1.256.9-2.025.938a3.088 3.088 0 01-2.363-.881l-.806-.807a.591.591 0 00-.319-.168.564.564 0 00-.619.43l-4.18 18.62a3.771 3.771 0 00-.02 1.518c.057.338.17.675.338.975.131.263.056.581-.169.731a.49.49 0 01-.319.094.591.591 0 01-.506-.3 4.663 4.663 0 01-.468-1.5.381.381 0 00-.282-.319l-2.606-.6c-.6-.13-1.219 0-1.706.394a2.02 2.02 0 00-.75 1.688c.056 1.069.994 1.893 2.081 1.893h14.363a.572.572 0 00.412-.73.57.57 0 00-.544-.376.56.56 0 01-.544-.562v-.075l-.093-3.506c0-.32.244-.563.562-.563.3 0 .563.244.563.563l.018 3.093a1.687 1.687 0 011.125 1.594v.15c-.018.225.132.413.357.413zM12.75 6.375c0-.319.244-.562.563-.562.318 0 .562.243.562.562a.552.552 0 01-.563.563.552.552 0 01-.562-.563zm.75 16.2a.552.552 0 01-.563-.563l-.018-3.45c0-.318.243-.562.562-.562.319 0 .563.244.563.563l.018 3.45a.552.552 0 01-.562.562zm3.563-15.637a.552.552 0 01-.563-.563c0-.319.244-.562.563-.562.318 0 .562.243.562.562a.552.552 0 01-.563.563z" fill="#fff"/></svg>