<svg width="24" height="24" fill="none" xmlns="http://www.w3.org/2000/svg"><path d="M2.475 9.169c.394.281.881.319 1.2.319.281 0 1.519-.038 1.8-.057.281-.018.544-.056.788-.056.318 0 .525.037.656.131.375.863-.619 6.732-1.106 10.688v.037c-.132 1.031-.282 1.856-.432 2.456H4.275a.586.586 0 00-.581.45.562.562 0 00.544.675h3.825a.369.369 0 00.375-.393c-.02-.169 0-.338.037-.506.169-.788.9-1.332 1.725-1.332h2.081a.545.545 0 01-.037-.168c-.169-.9.018-1.82.469-2.42.168-.224.487-.318.73-.168.32.169.376.581.17.844-.263.337-.375.956-.263 1.556.019.112.056.262.113.412.168.45-.094.957-.563 1.05-.019.02-.056.02-.131.02h-2.625a.584.584 0 00-.581.468.572.572 0 00.43.656l5.72-.018h.093c1.857 0 3.132-.9 3.619-2.532.075-.281.15-.562.188-.843.224-1.575-.713-3.825-2.794-6.694-1.538-2.119-3.188-3.881-3.506-4.2L12 8.062c.319-.412.319-.6.319-.693C12.356 6.3 10.95 2.1 9.638.73 9.318.375 8.963.188 8.606.188c-.075 0-.168.018-.243.037-.694.169-.9.994-1.107 1.875-.075.319-.206.862-.318 1.012L.563 5.325c-.32.112-.47.469-.32.769.038.093 1.032 2.231 2.232 3.075zm17.662 14.643a.664.664 0 00.188-.037 4.738 4.738 0 002.738-2.569.55.55 0 00-.3-.731.55.55 0 00-.732.3 3.704 3.704 0 01-2.081 1.969c-.3.112-.431.431-.337.731.075.206.3.337.524.337z" fill="#fff"/></svg>