<svg width="24" height="24" fill="none" xmlns="http://www.w3.org/2000/svg"><path opacity=".1" fill-rule="evenodd" clip-rule="evenodd" d="M0 12C0 5.373 5.373 0 12 0s12 5.373 12 12-5.373 12-12 12S0 18.627 0 12z" fill="#FFBB37"/><path fill-rule="evenodd" clip-rule="evenodd" d="M5.333 12.037c0 3.315 2.408 6.07 5.556 6.63v-4.815H9.222V12h1.667v-1.482c0-1.666 1.074-2.592 2.593-2.592.48 0 1 .074 1.48.148v1.704h-.85c-.816 0-1 .407-1 .926V12h1.777l-.296 1.852H13.11v4.815c3.148-.56 5.556-3.315 5.556-6.63 0-3.687-3-6.704-6.667-6.704S5.333 8.35 5.333 12.037z" fill="#FFBB37"/></svg>