<svg width="24" height="25" fill="none" xmlns="http://www.w3.org/2000/svg"><path d="M12 9.376A3.13 3.13 0 008.876 12.5 3.13 3.13 0 0012 15.624a3.13 3.13 0 003.124-3.124A3.13 3.13 0 0012 9.376zm9.37 3.124c0-1.294.012-2.576-.06-3.867-.073-1.5-.415-2.831-1.512-3.928-1.1-1.1-2.428-1.44-3.928-1.512-1.294-.073-2.576-.061-3.868-.061-1.293 0-2.575-.012-3.867.061-1.5.073-2.831.415-3.928 1.512-1.1 1.099-1.439 2.428-1.512 3.928-.072 1.294-.06 2.576-.06 3.867s-.012 2.576.06 3.867c.073 1.5.415 2.831 1.512 3.928 1.1 1.1 2.428 1.44 3.928 1.512 1.294.073 2.576.061 3.867.061 1.294 0 2.576.012 3.867-.061 1.5-.073 2.832-.415 3.929-1.512 1.099-1.099 1.439-2.428 1.511-3.928.075-1.291.061-2.573.061-3.867zM12 17.307A4.8 4.8 0 017.193 12.5 4.8 4.8 0 0112 7.693a4.8 4.8 0 014.807 4.807A4.8 4.8 0 0112 17.307zm5.004-8.688a1.121 1.121 0 01-1.123-1.123c0-.621.502-1.123 1.123-1.123a1.121 1.121 0 01.43 2.16 1.12 1.12 0 01-.43.086z" fill="#70737C"/></svg>