<svg width="24" height="24" fill="none" xmlns="http://www.w3.org/2000/svg"><path fill-rule="evenodd" clip-rule="evenodd" d="M12.03 2c2.26.01 4.42.91 6 2.49a8.398 8.398 0 012.47 5.97v.05c-.06 3.03-1.76 5.82-3.88 8a22.12 22.12 0 01-3.98 3.24c-.39.33-.96.33-1.35 0-2.15-1.4-4.05-3.16-5.59-5.21a10.807 10.807 0 01-2.2-6.15c.02-4.65 3.84-8.4 8.53-8.39zm0 11.26c.71 0 1.39-.27 1.89-.76.52-.51.811-1.189.811-1.9 0-1.48-1.211-2.67-2.701-2.67S9.34 9.12 9.34 10.6c0 1.461 1.18 2.64 2.66 2.66h.03z" fill="#46BF8C"/></svg>