<svg width="24" height="24" fill="none" xmlns="http://www.w3.org/2000/svg"><path fill-rule="evenodd" clip-rule="evenodd" d="M5.008 10.695c0-.62.008-1.238.015-1.86.004-.314.008-.63.01-.947C5.034 4.483 7.167 2 10.11 2h3.782c2.943 0 5.075 2.483 5.075 5.888.025 1.364.034 2.728.034 4.102s-.009 2.758-.034 4.122c0 3.405-2.132 5.888-5.075 5.888H10.11c-2.943 0-5.075-2.483-5.075-5.898-.017-1.286-.034-2.6-.034-3.935l.008-1.472zm8.272 8.945v.16c0 .674-.563 1.2-1.28 1.2-.7 0-1.28-.526-1.28-1.2v-.16c0-.656.58-1.2 1.28-1.2.717 0 1.28.544 1.28 1.2zM7.017 8.443c-.006.404-.011.806-.011 1.209L7 10.608c0 .868.012 1.723.024 2.558 0 2.22 1.523 3.834 3.625 3.834h2.702c2.102 0 3.625-1.614 3.625-3.827.018-.887.024-1.786.024-2.68 0-.892-.006-1.78-.024-2.666C16.976 5.614 15.453 4 13.35 4h-2.702C8.547 4 7.024 5.614 7.024 7.827l-.007.616z" fill="#46BF8C"/></svg>