<svg width="48" height="48" fill="none" xmlns="http://www.w3.org/2000/svg"><rect width="48" height="48" rx="13" fill="#DFF1ED"/><path d="M14.475 21.169c.394.281.881.319 1.2.319.281 0 1.519-.038 1.8-.057.281-.018.544-.056.787-.056.32 0 .526.038.657.131.375.863-.619 6.732-1.107 10.688v.037c-.13 1.032-.28 1.856-.43 2.456h-1.107a.586.586 0 00-.581.45.562.562 0 00.543.675h3.826a.369.369 0 00.375-.393c-.02-.169 0-.338.037-.506.169-.788.9-1.332 1.725-1.332h2.081a.545.545 0 01-.037-.169c-.169-.9.018-1.818.468-2.418.17-.225.488-.319.732-.169.319.169.375.581.169.844-.263.337-.375.956-.263 1.556.019.112.056.262.112.413.17.45-.093.956-.562 1.05-.019.018-.056.018-.131.018h-2.625a.584.584 0 00-.581.469.572.572 0 00.43.656l5.72-.019h.093c1.857 0 3.131-.9 3.619-2.53.075-.282.15-.563.188-.844.224-1.576-.713-3.826-2.794-6.694-1.538-2.119-3.188-3.881-3.506-4.2L24 20.062c.319-.412.319-.6.319-.693.037-1.069-1.369-5.269-2.681-6.638-.32-.356-.676-.543-1.032-.543a1.1 1.1 0 00-.244.037c-.693.169-.9.994-1.106 1.875-.075.319-.206.863-.319 1.013l-6.375 2.212c-.318.113-.468.469-.318.769.037.093 1.031 2.231 2.231 3.075zm17.663 14.643a.664.664 0 00.187-.037 4.738 4.738 0 002.737-2.569.55.55 0 00-.3-.731.55.55 0 00-.73.3 3.704 3.704 0 01-2.082 1.969c-.3.112-.431.431-.337.731.075.206.3.337.525.337z" fill="#46BF8C"/></svg>