<svg width="48" height="48" fill="none" xmlns="http://www.w3.org/2000/svg"><rect width="48" height="48" rx="13" fill="#FFF5E2"/><path d="M30.919 35.813h.619c1.125 0 2.193-.45 2.924-1.294a3.729 3.729 0 00.825-3.281l-4.18-18.62a.548.548 0 00-.62-.43.485.485 0 00-.318.168l-.75.75c-.544.544-1.256.9-2.025.938a3.088 3.088 0 01-2.363-.882l-.806-.806a.591.591 0 00-.319-.168.564.564 0 00-.618.43l-4.182 18.62a3.77 3.77 0 00-.019 1.518c.057.338.17.675.338.975.131.263.056.581-.169.731a.49.49 0 01-.319.094.591.591 0 01-.506-.3 4.664 4.664 0 01-.469-1.5.381.381 0 00-.28-.319l-2.607-.6c-.6-.13-1.219 0-1.706.394a2.02 2.02 0 00-.75 1.688c.056 1.069.994 1.894 2.081 1.894h14.363a.574.574 0 00.412-.732.57.57 0 00-.544-.375.56.56 0 01-.544-.562v-.075l-.093-3.507c0-.318.244-.562.562-.562.3 0 .563.244.563.563l.018 3.093a1.687 1.687 0 011.125 1.594v.15c-.018.225.132.413.357.413zM24.75 18.375c0-.319.244-.563.563-.563.318 0 .562.244.562.563a.552.552 0 01-.563.563.552.552 0 01-.562-.563zm.75 16.2a.552.552 0 01-.563-.563l-.018-3.45c0-.318.244-.562.562-.562.319 0 .563.244.563.563l.018 3.45a.552.552 0 01-.562.562zm3.563-15.638a.552.552 0 01-.563-.562c0-.319.244-.563.563-.563.318 0 .562.244.562.563a.552.552 0 01-.563.563z" fill="#FFBB37"/></svg>