<svg width="160" height="60" fill="none" xmlns="http://www.w3.org/2000/svg"><path d="M60.035 31.028h-2.13v-12.02h2.13v12.02zm13.434.069h-2.13l-.047-6.508-3.706 3.914-3.706-3.914v6.508h-2.27V18.544l5.93 6.694 5.975-6.648v12.507h-.046zm13.456 0h-2.154l-.046-6.508-3.706 3.914-3.706-3.914v6.508h-2.27V18.544l5.93 6.694 5.975-6.648v12.507h-.023zm3.682-.069h-2.13v-12.02h2.13v12.02zm13.666-5.558c0 1.204-.324 2.316-.973 3.265-.648.973-1.528 1.668-2.686 2.108-.788.301-1.506.463-2.154.463-.857 0-1.483-.07-1.923-.208-1.343-.44-2.432-1.228-3.289-2.363-.857-1.134-1.297-2.408-1.297-3.798 0-1.644.649-3.08 1.946-4.331 1.297-1.228 2.756-1.853 4.4-1.853 1.205 0 2.247.209 3.081.602l.602.278-1.413 1.552c-.602-.347-1.343-.51-2.177-.51-1.112 0-2.108.417-2.988 1.228-.88.834-1.32 1.783-1.32 2.895l.023.046c0 1.159.394 2.178 1.182 3.08.81.95 1.783 1.414 2.918 1.414.88 0 1.668-.255 2.385-.742.765-.532 1.228-1.204 1.39-2.038H98.9v-1.922h5.373v.834zm6.322-2.756c-.347-1.135-1.32-1.668-2.918-1.621v5.141l.023 4.818h-2.131v-12.02h2.455c1.483 0 2.641.323 3.428.949.95.834 1.459 1.992 1.506 3.52-.047 1.135-.417 2.038-1.112 2.733l-.788.788 2.872 4.03h-2.57l-3.359-4.818c1.297-.162 2.154-.764 2.548-1.76.231-.625.255-1.204.046-1.76zm16.306 8.314h-2.293l-.787-1.551h-6.254l-.718 1.551h-2.316l6.184-12.553 6.184 12.553zm-4.006-3.428l-2.201-4.609-2.339 4.61h4.54zm14.361 2.757c-1.158.649-2.316.95-3.428.95-1.784 0-3.335-.625-4.632-1.876-1.297-1.25-1.946-2.78-1.946-4.563 0-1.714.695-3.15 2.061-4.354 1.321-1.158 2.826-1.737 4.563-1.737.695 0 1.274.07 1.76.185.44.116.973.324 1.645.648l-1.228 1.413c-.393-.231-1.158-.347-2.293-.347-1.135 0-2.154.417-3.034 1.25-.88.834-1.32 1.83-1.32 2.965 0 1.228.417 2.27 1.274 3.15.857.88 1.876 1.32 3.08 1.32 1.043 0 1.807-.231 2.293-.671l1.205 1.667zm3.288.671h-2.13v-12.02h2.13v12.02zm6.532-4.308c0 3.058-1.205 4.587-3.637 4.587h-1.459V29.36c.811 0 1.367.023 1.645.023.88 0 1.343-.88 1.343-2.663l-.046-5.814h-3.057l.069-1.876 5.165.023v7.667h-.023zM160 31.028h-2.293l-.787-1.551h-6.254l-.718 1.551h-2.316l6.184-12.553L160 31.028zm-4.007-3.428l-2.2-4.609-2.362 4.61h4.562zM69.067 39.644c0 .764-.51 1.412-1.528 1.412h-1.923v-4.284h3.08v.972h-1.991v.556h.81c1.043 0 1.552.58 1.552 1.344zm-1.111 0c0-.232-.163-.417-.464-.417h-.787v.834h.787c.301 0 .464-.209.464-.417zm2.756-.741c0-1.297.927-2.2 2.247-2.2 1.32 0 2.247.903 2.247 2.2 0 1.297-.927 2.2-2.247 2.2-1.32 0-2.247-.903-2.247-2.2zm3.359 0c0-.695-.44-1.135-1.112-1.135-.672 0-1.112.463-1.112 1.135 0 .695.44 1.135 1.112 1.135.672 0 1.112-.44 1.112-1.135zm6.623-2.131v4.284h-1.112v-3.288h-.972l-.162 1.876c-.093.995-.464 1.436-1.228 1.436-.162 0-.301 0-.51-.024v-.833h.209c.3 0 .417-.14.463-.533l.301-2.918h3.011zm4.865 3.265v.996h-2.733v-4.285h2.663v.996h-1.552v.625h1.436v.973h-1.436v.672h1.622v.023zm4.724 0v.996H87.55v-4.285h2.664v.996h-1.552v.625h1.436v.973h-1.436v.672h1.621v.023zm6.022-3.311v4.331h-1.089v-3.034l-.648.14v-.974l1.737-.463zm2.062 2.872V38.23c0-.926.671-1.529 1.667-1.529s1.668.603 1.668 1.53v1.366c0 .926-.672 1.528-1.668 1.528-.996 0-1.667-.625-1.667-1.528zm2.223-.023V38.23c0-.347-.208-.579-.556-.579-.347 0-.556.232-.556.58v1.343c0 .347.209.579.556.579.348 0 .556-.232.556-.58zm9.519-2.803v4.284h-1.111v-3.288h-.973l-.162 1.876c-.093.995-.464 1.436-1.228 1.436-.162 0-.301 0-.509-.024v-.833h.208c.301 0 .417-.14.463-.533l.301-2.918h3.011zm4.863 3.265v.996h-2.733v-4.285h2.664v.996h-1.552v.625h1.436v.973h-1.436v.672h1.621v.023zm4.818-2.27h-1.042v3.266h-1.112v-3.266h-1.042v-.995h3.196v.995zm4.03 1.136c0-1.297.927-2.2 2.247-2.2 1.32 0 2.246.903 2.246 2.2 0 1.297-.926 2.2-2.246 2.2-1.32 0-2.247-.903-2.247-2.2zm3.335 0c0-.695-.44-1.135-1.111-1.135-.672 0-1.112.463-1.112 1.135 0 .695.44 1.135 1.112 1.135.671 0 1.111-.44 1.111-1.135zm3.058-2.131h3.567v4.284h-1.112v-3.265h-1.343v3.265h-1.112v-4.284zm9.172 2.755c0 .742-.51 1.506-1.552 1.506h-1.922v-4.285h1.111v1.274h.811c1.042.023 1.552.764 1.552 1.505zm-1.135.023c0-.254-.162-.532-.463-.532h-.741v1.042h.741c.301 0 .463-.255.463-.51zm2.849-2.779v4.285h-1.112v-4.285h1.112zm4.979.996h-1.042v3.266h-1.112v-3.266h-1.042v-.995h3.196v.995zm5.444 3.221v.07h-1.205l-.255-.533h-1.621l-.232.532h-1.204v-.07l2.015-4.26h.486l2.016 4.26zm-2.641-1.46h.788l-.394-1.042-.394 1.043zm-86.923.464a1.065 1.065 0 100-2.131 1.065 1.065 0 000 2.13zm93.107 0a1.065 1.065 0 100-2.13 1.065 1.065 0 000 2.13zM43.352 59.523H0V0h43.371c.686 0 1.238.552 1.238 1.238v57.047a1.265 1.265 0 01-1.257 1.238z" fill="#fff"/><path d="M20.325 26.228h-4.42v4.114h4.934v1.238H14.42V20.19h6.152v1.238h-4.685v3.6h4.438v1.2zm3.885-6.038v6.743c0 2.552 1.124 3.638 2.648 3.638 1.695 0 2.762-1.124 2.762-3.638V20.19h1.486v6.647c0 3.505-1.848 4.934-4.305 4.934-2.324 0-4.095-1.334-4.095-4.858V20.21h1.504v-.02zm-1.81-8.953l.458 1.429h1.505l-1.22.876.477 1.429-1.22-.877-1.218.877.457-1.429-1.22-.876h1.506l.476-1.429zm6.63 1.867l.457 1.429h1.505l-1.22.895.477 1.428-1.219-.895-1.219.895.457-1.428-1.219-.895h1.505l.476-1.429zm5.2 4.913l.456 1.429h1.505l-1.219.895.476 1.429-1.219-.895-1.219.895.457-1.429-1.219-.895h1.524l.457-1.429zm1.656 6.915l.457 1.448h1.505l-1.22.876.477 1.428-1.219-.876-1.219.876.457-1.428-1.2-.876h1.505l.457-1.448zm-1.371 6.648l.457 1.428h1.504l-1.219.876.477 1.429-1.22-.877-1.219.877.458-1.429-1.2-.876h1.504l.458-1.429zm-5.143 4.97l.457 1.43h1.505l-1.219.876.476 1.428-1.219-.876-1.219.876.457-1.428-1.219-.877h1.505l.476-1.428zM22.4 38.418l.458 1.428h1.505l-1.22.895.477 1.429-1.22-.895-1.218.895.457-1.429-1.22-.895h1.506l.476-1.428zm-6.57-1.868l.457 1.43h1.504l-1.219.876.457 1.428-1.2-.876-1.219.876.457-1.428-1.219-.877h1.505l.476-1.428zm-5.163-4.97l.476 1.428h1.505l-1.22.876.458 1.429-1.219-.877-1.219.877.476-1.429-1.219-.876h1.505l.457-1.429zm-1.961-6.648l.457 1.448h1.505l-1.22.876.477 1.428-1.22-.876-1.218.876.457-1.428-1.2-.876h1.505l.457-1.448zm1.961-6.627l.476 1.428h1.505l-1.22.895.458 1.429-1.219-.895-1.219.895.476-1.429-1.219-.895h1.505l.457-1.428zm4.839-4.972l.457 1.429h1.505l-1.2.895.457 1.428-1.22-.895-1.218.895.476-1.428-1.22-.895h1.506l.457-1.429zm6.914 37.581c-.742 0-1.352-.553-1.485-1.258h-2.324v1.962h7.353v-1.962h-2.076a1.494 1.494 0 01-1.467 1.258zm0-3.01c.744 0 1.353.552 1.486 1.257h2.077v-1.962H18.61v1.962h2.324a1.512 1.512 0 011.486-1.257z" fill="#001D84"/><path d="M23.488 49.161a1.1 1.1 0 00-1.067-.857 1.1 1.1 0 00-1.067.857 1.12 1.12 0 00-.038.248c0 .076.02.171.038.247a1.1 1.1 0 001.067.858 1.1 1.1 0 001.067-.858 1.11 1.11 0 00.038-.247c0-.076-.02-.172-.038-.248z" fill="#001D84"/></svg>