<svg xmlns="http://www.w3.org/2000/svg" width="400" height="400"><path transform="matrix(6.13 0 0 6.13 99.968 141.765)" d="M30.866 6.124C29.056 4.651 23.567 0 16.381 0h-.113C9.081 0 3.593 4.651 1.789 6.118.335 7.289.015 8.529 0 9.345c-.021 1.135.431 2.147 1.343 2.989 2.508 2.426 7.816 6.573 14.861 6.641.034.002.069.025.104.025h.097c7.062 0 12.388-4.205 14.938-6.668.875-.807 1.327-1.842 1.306-2.979-.022-1.154-.655-2.323-1.783-3.229zm-.932 4.751c-2.256 2.182-7.624 6.059-13.624 6.087-6-.028-11.354-3.905-13.609-6.087-.42-.386-.712-.848-.701-1.471.016-.884.92-1.627 1.052-1.734C5.812 5.424 10.464 2 16.308 2h.037c5.846 0 10.493 3.424 13.254 5.67.132.107 1.026.825 1.042 1.71.009.624-.288 1.109-.707 1.495z" fill="#fff" id="Capa_1"/><path transform="matrix(6.13 0 0 6.13 99.907 141.761)" d="M16.326 3.773a5.757 5.757 0 000 11.512 5.751 5.751 0 005.718-5.756 5.75 5.75 0 00-5.718-5.756zm-.016 9.266c-1.535-.045-3.35-1.564-3.35-3.432 0-1.869 1.814-3.61 3.35-3.657 1.535.047 3.351 1.676 3.351 3.546-.001 1.867-1.816 3.498-3.351 3.543z" fill="#fff" id="Capa_1"/></svg>