<svg xmlns="http://www.w3.org/2000/svg" width="400" height="400"><path transform="matrix(3.13 0 0 3.13 1282.983 1439.48)" d="M-346.1-373.1c-12.6 0-22.9-10.3-22.9-22.9 0-12.6 10.3-22.9 22.9-22.9 12.6 0 22.9 10.3 22.9 22.9.1 12.6-10.2 22.9-22.9 22.9zm0-43.4c-11.3 0-20.4 9.2-20.4 20.4s9.2 20.4 20.4 20.4 20.4-9.2 20.4-20.4-9.1-20.4-20.4-20.4z" fill="#fff" id="Fill-131"/><path fill="#fff" d="M3.3 12l-8.5-8.5V-12h2.7V2.4l7.7 7.7L3.3 12" transform="matrix(3.13 0 0 3.13 211.88 199.06)" id="Fill-132"/></svg>