<svg width="25" height="21" fill="none" xmlns="http://www.w3.org/2000/svg"><path fill-rule="evenodd" clip-rule="evenodd" d="M12.5.833c1.033 0 2.093.027 3.12.07l1.213.058 1.161.07 1.088.073.993.077a4.594 4.594 0 014.222 4.136l.048.514.091 1.1a49.18 49.18 0 01.147 3.569c0 1.188-.062 2.43-.147 3.57l-.09 1.099c-.016.176-.032.347-.049.514a4.594 4.594 0 01-4.223 4.136l-.99.076-1.088.075-1.163.069-1.213.058c-1.04.045-2.08.068-3.12.07a74.273 74.273 0 01-3.12-.07l-1.213-.058-1.161-.07-1.088-.074-.993-.076a4.594 4.594 0 01-4.222-4.136l-.048-.514-.09-1.1A49.137 49.137 0 01.416 10.5c0-1.188.063-2.43.147-3.57l.09-1.099c.016-.176.032-.347.05-.514a4.594 4.594 0 014.22-4.136l.992-.077 1.087-.074L8.166.961 9.379.903c1.04-.045 2.08-.068 3.121-.07zM10.083 7.57v5.86c0 .559.605.906 1.088.629l5.075-2.93a.725.725 0 000-1.257l-5.075-2.93a.725.725 0 00-1.088.629V7.57z" fill="#F44174"/></svg>