<svg width="80" height="80" fill="none" xmlns="http://www.w3.org/2000/svg"><circle cx="40" cy="40" r="40" fill="#fff"/><g clip-path="url(#clip0_211_1904)"><path d="M28.554 47.99c-.169-3.244-.333-6.39-.496-9.55a1.864 1.864 0 01-.03-.376c.348-2.383-.77-3.947-2.561-5.329-1.853-1.432-3.424-3.244-5.286-4.66-1.393-1.06-1.224-2.32-1.104-3.855l9.383 3.472c2.008-4.797 5.463-7.656 10.595-8.485V15h2.78v4.195c5.12.814 8.596 3.638 10.631 8.499l9.263-3.423c.532 1.558.276 2.613-.817 3.6-2.434 2.199-4.874 4.392-7.288 6.612-.27.248-.552.645-.576.987-.241 4.064-.433 8.13-.633 12.194.006.098.024.195.053.289.663.122 1.327.201 1.97.376 3.955 1.026 6.857 4.368 7.204 8.52.171 2.014.03 4.057.03 6.159H19.02c.183-2.611.066-5.247.583-7.747.813-3.932 4.261-6.712 8.28-7.197.176-.03.357-.043.671-.073zm11.918-5.413l13.566-12.261c-.315-.02-.63.036-.92.161-3.969 1.472-7.932 2.961-11.912 4.397a2.36 2.36 0 01-1.472 0c-2.497-.889-4.96-1.829-7.434-2.744-1.772-.658-3.546-1.314-5.32-1.967l-.082.147 13.574 12.267zm-1.388 7.876c0-1.605.044-3.107-.025-4.605a2.012 2.012 0 00-.575-1.254c-2.33-2.171-4.706-4.295-7.069-6.43-.15-.138-.318-.254-.63-.5l.678 12.782 7.621.007zm10.396 0l.672-12.85c-2.797 2.525-5.393 4.865-7.97 7.215a.883.883 0 00-.303.541c-.024 1.68-.014 3.359-.014 5.088l7.615.006zm-9.087 8.564l5.792-5.64H34.61l5.782 5.64zm-3.456 1.237l.217-.348c-1.656-1.62-3.337-3.23-4.992-4.86-.92-.914-1.655-2.16-3.277-1.693l-.24-2.663-3.39 1.043c.014.107.037.213.068.316a4635.79 4635.79 0 007.6 7.917.88.88 0 00.551.269c1.15.024 2.308.013 3.463.013v.006zm6.852-.31l.249.312c1.008 0 2.024.048 3.02-.023a1.966 1.966 0 001.176-.504c2.345-2.376 4.652-4.791 6.967-7.197.184-.188.327-.397.645-.786l-3.567-1.032c-.085 1.036-.147 1.801-.221 2.683-1.444-.48-2.175.445-2.944 1.3-.394.436-.802.86-1.223 1.27a888.233 888.233 0 01-4.102 3.971v.006zm-1.84-28.32l7.879-2.93a10.171 10.171 0 00-3.62-4.844c-1.03 1.073-1.968 2.1-2.958 3.071-1.299 1.265-1.557 2.814-1.306 4.697l.005.006zm-10.837-2.938l7.893 2.929c.166-1.52.21-2.93-.767-4.012-1.132-1.255-2.429-2.355-3.728-3.592a10.105 10.105 0 00-3.398 4.675zm-8.034 25.395c-1.264 1.848-1.2 3.947-1.092 6.082h7.317l-6.225-6.082zm28.744 6.094h7.147c.064-2.194.166-4.308-1.041-5.98l-6.105 5.98zM37.4 22.502l3.045 3.007 3.099-3.04c-2-.648-4.15-.636-6.144.033z" fill="#8DA4EA"/></g><defs><clipPath id="clip0_211_1904"><path fill="#fff" transform="translate(19 15)" d="M0 0h43v48H0z"/></clipPath></defs></svg>