<svg width="80" height="80" fill="none" xmlns="http://www.w3.org/2000/svg"><circle cx="40" cy="40" r="40" fill="#fff"/><g clip-path="url(#clip0_211_1905)" fill="#8DA4EA"><path d="M37.125 48.637l-2.6-1.565-2.482 1.506c.304.406.62.792.899 1.205.832 1.237.287 2.539-1.155 2.889a1.2 1.2 0 00-.72.582c-.42.951-.686 1.975-1.146 2.903-.584 1.178-.444 2.187.236 3.284.64.993 1.146 2.066 1.506 3.19a1.783 1.783 0 01-1.31 2.306c-.926.236-1.85-.359-2.17-1.292-.247-.719-.502-1.467-.928-2.083-1.605-2.31-1.81-4.676-.467-7.163.18-.34.328-.702.478-1.06.066-.186.122-.377.169-.57-1.115-.08-2.265-.36-2.263-1.58 0-.898.62-1.778.967-2.677-6.53-2.9-10.884-13.413-8.46-21.225 1.932-6.227 7.517-8.8 13.028-8.141 1.115.133 2.195.55 3.302.791.361.09.74.082 1.096-.025 3.235-1.185 6.43-1.161 9.66 0 .439.158 1.053.074 1.511-.098 4.82-1.83 10.55-.528 13.738 3.197 1.976 2.302 2.761 5.062 2.95 8.02a18.802 18.802 0 01-.834 6.727c-.36 1.185-1.258 1.769-2.266 1.478-1.045-.302-1.525-1.217-1.182-2.428.8-2.817 1.03-5.643.18-8.487-1.258-4.245-5.682-6.696-9.806-5.453 4.313 7.541 4.07 12.513-1.078 21.415 1.651 1.42 3.371 1.604 5.182.463.678-.427 1.258-.996 1.885-1.508.856-.704 1.882-.675 2.573.081.692.756.7 1.774-.104 2.487-1.132 1.002-2.364 1.892-3.646 2.903.194.255.512.632.79 1.038.898 1.304.285 2.693-1.287 2.903-.507.065-.692.25-.822.728-.21.773-.418 1.587-.833 2.255-.965 1.553-.73 2.873.318 4.3.564.767.898 1.738 1.191 2.665a1.785 1.785 0 01-.582 1.955c-1.024.874-2.532.347-2.93-.962a7.509 7.509 0 00-.937-2.078c-1.578-2.293-1.772-4.632-.451-7.092.169-.314.316-.643.456-.972.081-.188.126-.393.216-.684-1.067-.106-2.14-.465-2.102-1.628.028-.871.627-1.722.982-2.611-.628-.397-1.392-.898-2.183-1.363a.738.738 0 00-.623.016c-.748.433-1.468.91-2.11 1.315.385.826.93 1.616 1.102 2.469.172.852-.507 1.42-1.851 1.815.293.52.586 1.022.859 1.533 1.195 2.24.992 4.367-.521 6.383-.778 1.038-1.78 1.9-2.077 3.284-.166.764-1.145 1.137-1.912.98-.814-.168-1.519-.883-1.414-1.718a6.95 6.95 0 01.761-2.432c.439-.801 1.113-1.476 1.702-2.19.742-.897.787-1.822.196-2.815-.54-.897-1.015-1.828-1.569-2.713a1.126 1.126 0 00-.69-.41c-1.617-.322-2.172-1.662-1.216-3.01.267-.354.544-.7.794-1.033zm-5.906-16.583c.194 2.831.882 5.465 2.217 7.929.898 1.673 2.014 3.185 3.549 4.345 2.021 1.528 3.806 1.54 5.829.038.316-.227.612-.48.888-.754 3.414-3.529 4.991-7.786 4.671-12.646-.32-4.899-2.848-7.721-7.286-8.26-3.861-.474-7.631.963-9.067 5.324-.424 1.29-.543 2.679-.801 4.024zm.655 12.351c-4.396-6.984-6.055-14.104-1.166-21.582-3.953-1.146-8.332 1.305-9.563 5.437-1.053 3.537-.589 6.984.843 10.324 1.066 2.483 2.516 4.7 4.863 6.173 1.755 1.1 3.419.957 5.024-.352z"/><path d="M34.825 31.617c.266-1.002.422-2.05.823-2.996.737-1.744 2.643-2.694 4.503-2.39a1.796 1.796 0 010 3.555c-1.409.24-1.497.34-1.581 1.795-.01.18 0 .36-.022.54-.082 1.076-.857 1.834-1.845 1.795-.988-.04-1.716-.817-1.745-1.905v-.36l-.133-.034z"/></g><defs><clipPath id="clip0_211_1905"><path fill="#fff" transform="translate(17 19)" d="M0 0h46v46H0z"/></clipPath></defs></svg>