<svg width="80" height="80" fill="none" xmlns="http://www.w3.org/2000/svg"><circle cx="40" cy="40" r="40" fill="#fff"/><g clip-path="url(#clip0_211_1902)" fill="#8DA4EA"><path d="M18 60.103c.323-.468.581-.999.978-1.392A10399.1 10399.1 0 0141.03 36.938c.908-.88 1.903-.956 2.644-.21.74.746.646 1.777-.237 2.648-6.472 6.394-12.95 12.787-19.433 19.18-.998.983-1.988 1.976-3.002 2.944-.547.516-1.2.656-1.899.323-.655-.313-1.005-.828-.913-1.588l-.19-.132zm26.003-35.111v5.228c0 .75-.331 1.344-1.03 1.63-.651.265-1.351.224-1.812-.33a2.374 2.374 0 01-.55-1.376 518.651 518.651 0 01-.017-10.285c0-1.13.72-1.858 1.702-1.86.981-.004 1.692.72 1.716 1.848.03 1.719 0 3.437 0 5.144l-.009.001zm3.504 9.578c-.53-.461-1.126-.788-1.428-1.291-.396-.664-.183-1.385.383-1.954a2261.62 2261.62 0 004.062-4.073c1.07-1.072 2.137-2.151 3.216-3.217.89-.878 1.906-.94 2.64-.182.697.72.63 1.751-.202 2.59a852.835 852.835 0 01-7.164 7.159c-.365.36-.875.57-1.508.967zm.077 6.904c.616.368 1.112.554 1.459.89a716.696 716.696 0 017.205 7.124c.784.785.82 1.825.139 2.524-.681.7-1.716.717-2.517-.065a1099.592 1099.592 0 01-7.262-7.18c-.574-.572-.892-1.29-.435-2.01.303-.499.892-.829 1.411-1.283zM29.34 23.095c.594.354 1.066.526 1.39.847A701.45 701.45 0 0138 31.21c.785.795.799 1.813.094 2.517-.705.705-1.736.67-2.517-.103-2.43-2.406-4.842-4.848-7.265-7.27-.59-.59-.823-1.324-.396-2.016.306-.495.911-.811 1.426-1.243zm25.728 16.558c-1.627 0-3.26.008-4.88 0-1.188 0-1.95-.663-1.974-1.677-.022-1.047.759-1.76 1.978-1.76 3.281-.01 6.563-.01 9.844 0 1.2 0 1.941.651 1.964 1.677.024 1.064-.733 1.751-1.968 1.758-1.655.002-3.31.002-4.964.002zM44 51.167c0 1.656.044 3.315-.014 4.97-.05 1.402-1.445 2.233-2.522 1.469-.425-.3-.83-.956-.842-1.458-.076-3.284-.06-6.57-.028-9.853.01-1.073.755-1.741 1.735-1.719.945.02 1.631.67 1.658 1.71.045 1.615.012 3.246.012 4.88zM28.995 39.653h-4.62c-1.201 0-1.942-.653-1.964-1.68-.023-1.07.736-1.757 1.969-1.757 3.11-.01 6.22-.01 9.329 0 1.188 0 1.948.665 1.972 1.677.026 1.043-.76 1.75-1.98 1.758-1.567.002-3.137.002-4.706.002zM50.337 53.03a1.71 1.71 0 01-1.647 1.733c-1.048.028-2.175-1.287-2.191-2.555a1.732 1.732 0 011.657-1.729c1.066-.034 2.167 1.265 2.18 2.55zM36.774 25.448c-1.09 0-1.594-.435-1.95-1.12-.405-.777-.788-1.547-.203-2.398l.05-.07a1.739 1.739 0 012.072-.516c.796.361 1.544 1.851 1.372 2.75-.144.78-.814 1.347-1.341 1.354zm13.49-2.578c.019 1.217-1.117 2.578-2.15 2.578a1.676 1.676 0 01-1.69-1.68c-.011-1.26 1.089-2.587 2.14-2.577a1.702 1.702 0 011.7 1.68zm6.241 19.189c1.245-.02 2.585 1.094 2.573 2.146a1.696 1.696 0 01-1.678 1.694c-1.25.023-2.583-1.082-2.573-2.137a1.705 1.705 0 011.678-1.703zm.233-8.249a1.714 1.714 0 01-1.734-1.646c-.043-1.07 1.223-2.173 2.52-2.197a1.675 1.675 0 011.585.994c.09.202.14.42.146.64.038 1.056-1.239 2.176-2.517 2.209zM29.75 32.243a1.72 1.72 0 01-1.735 1.739c-1.222-.02-2.508-1.105-2.518-2.123a1.685 1.685 0 011.648-1.718c1.244-.043 2.594 1.053 2.606 2.102z"/></g><defs><clipPath id="clip0_211_1902"><path fill="#fff" transform="translate(18 18)" d="M0 0h44v44H0z"/></clipPath></defs></svg>