<svg width="49" height="52" fill="none" xmlns="http://www.w3.org/2000/svg"><path d="M41.524 36.077l-1.744-.979 1.744.98zm-34.322 0l-1.743.98 1.743-.98zM2.007 17.113l-1.998.103 1.998-.104zm35.446 24.513l1.497 1.326-1.497-1.326zm-26.18 0L12.77 40.3l-1.497 1.326zM46.74 15.72l1.998.078-1.998-.078zm-29.85 8.62a2 2 0 000 4v-4zm14.946 4a2 2 0 100-4v4zm-9.473 5.302a2 2 0 004 0h-4zm4-14.604a2 2 0 10-4 0h4zm18.378-3.397c-.196 5.01-1.196 12.751-4.961 19.456l3.488 1.959c4.215-7.507 5.263-15.982 5.47-21.258l-3.997-.157zM39.78 35.098c-.96 1.71-2.294 3.474-3.824 5.202l2.994 2.652c1.646-1.858 3.172-3.856 4.318-5.895l-3.488-1.959zM12.77 40.3c-1.53-1.728-2.863-3.492-3.824-5.202L5.46 37.057c1.145 2.039 2.671 4.037 4.317 5.895L12.77 40.3zm-3.824-5.202c-3.663-6.522-4.705-13.505-4.942-18.089l-3.995.207c.254 4.913 1.371 12.578 5.45 19.84l3.487-1.958zM7.351 13.939h.77v-4h-.77v4zm32.528-1.42h1.468v-4H39.88v4zM33.52 6.26c0 3.501 2.891 6.26 6.36 6.26v-4c-1.348 0-2.36-1.055-2.36-2.26h-4zm-25.4 7.68c3.87 0 7.086-3.077 7.086-6.97h-4c0 1.597-1.338 2.97-3.086 2.97v4zM18.292 0c-3.87 0-7.086 3.077-7.086 6.97h4c0-1.597 1.338-2.97 3.086-2.97V0zM4.004 17.01c-.082-1.593 1.27-3.07 3.347-3.07v-4c-3.942 0-7.563 2.994-7.342 7.276l3.995-.207zM35.956 40.3c-2.52 2.844-4.207 4.732-5.927 5.964-1.59 1.138-3.219 1.714-5.666 1.714v4c3.245 0 5.696-.816 7.995-2.462 2.168-1.552 4.18-3.84 6.593-6.564L35.956 40.3zm-26.18 2.652c2.412 2.723 4.424 5.012 6.593 6.564 2.298 1.646 4.749 2.462 7.994 2.462v-4c-2.447 0-4.076-.576-5.666-1.715-1.72-1.231-3.407-3.119-5.927-5.963l-2.994 2.652zM31.16 4c1.346 0 2.359 1.055 2.359 2.26h4c0-3.5-2.891-6.26-6.36-6.26v4zm17.577 11.8c.167-4.26-3.424-7.28-7.39-7.28v4c2.068 0 3.457 1.489 3.393 3.122l3.997.157zM16.89 28.34h14.946v-4H16.89v4zM18.292 4h12.869V0H18.292v4zm8.07 29.643v-7.302h-4v7.302h4zm0-7.302v-7.302h-4v7.302h4z" fill="#000"/></svg>