<svg width="53" height="51" fill="none" xmlns="http://www.w3.org/2000/svg"><path d="M15.361 17.667c0 1.442 1.197 2.61 2.672 2.61 1.476 0 2.672-1.168 2.672-2.61s-1.196-2.612-2.672-2.612c-1.476 0-2.672 1.17-2.672 2.612zm16.033 15.666c0 1.442 1.197 2.611 2.672 2.611 1.476 0 2.673-1.169 2.673-2.61 0-1.443-1.197-2.612-2.673-2.612-1.475 0-2.672 1.17-2.672 2.611zm-14.759-1.43a2 2 0 102.796 2.86l-2.796-2.86zm17.912-11.91a2 2 0 10-2.795-2.86l2.795 2.86zM7.507 46.507l1.158-1.631-1.157 1.63zm-2.955-2.889l1.605-1.193-1.605 1.193zm42.996 0l-1.605-1.193 1.605 1.193zm-2.956 2.889l-1.158-1.631 1.158 1.63zm0-42.014l-1.158 1.631 1.158-1.63zm2.956 2.889l-1.605 1.193 1.605-1.193zM7.508 4.493l1.157 1.631-1.157-1.63zM4.552 7.382l1.605 1.193-1.605-1.193zM19.43 34.764l15.116-14.77-2.795-2.862-15.117 14.77 2.796 2.862zM26.05 47c-5.054 0-8.687-.003-11.501-.3-2.78-.295-4.523-.858-5.884-1.824L6.35 48.137c2.152 1.528 4.67 2.211 7.778 2.54 3.073.326 6.955.323 11.922.323v-4zM0 25.5c0 4.85-.003 8.652.331 11.664.339 3.053 1.043 5.532 2.616 7.648l3.21-2.387c-.98-1.316-1.55-3-1.85-5.702C4.003 33.983 4 30.441 4 25.5H0zm8.665 19.376a11.214 11.214 0 01-2.508-2.451l-3.21 2.387c.95 1.278 2.099 2.4 3.403 3.325l2.315-3.261zM48.1 25.5c0 4.941-.002 8.483-.306 11.223-.3 2.701-.871 4.386-1.85 5.702l3.21 2.387c1.573-2.116 2.277-4.595 2.615-7.648.334-3.012.331-6.814.331-11.664h-4zM26.05 51c4.967 0 8.849.003 11.923-.323 3.108-.329 5.626-1.012 7.778-2.54l-2.316-3.261c-1.36.966-3.104 1.53-5.883 1.823-2.815.298-6.448.301-11.501.301v4zm19.894-8.575a11.214 11.214 0 01-2.509 2.45l2.316 3.262a15.213 15.213 0 003.403-3.325l-3.21-2.387zM26.05 4c5.053 0 8.686.003 11.5.3 2.78.295 4.524.858 5.884 1.824l2.316-3.261C43.598 1.335 41.08.652 37.972.323 34.898-.003 31.016 0 26.05 0v4zM52.1 25.5c0-4.85.002-8.652-.332-11.664-.338-3.053-1.042-5.532-2.615-7.648l-3.21 2.387c.979 1.316 1.55 3 1.85 5.702.303 2.74.306 6.282.306 11.223h4zM43.433 6.124c.965.685 1.81 1.512 2.509 2.451l3.21-2.387a15.213 15.213 0 00-3.403-3.325l-2.316 3.261zM26.05 0c-4.967 0-8.85-.003-11.922.323-3.109.329-5.626 1.012-7.778 2.54l2.315 3.261c1.36-.966 3.104-1.53 5.884-1.823C17.363 4.003 20.996 4 26.049 4V0zM4 25.5c0-4.941.003-8.483.307-11.223.3-2.701.87-4.386 1.85-5.702l-3.21-2.387C1.374 8.304.67 10.783.33 13.836-.003 16.848 0 20.65 0 25.5h4zM6.35 2.863a15.212 15.212 0 00-3.403 3.325l3.21 2.387a11.213 11.213 0 012.508-2.45L6.35 2.862z" fill="#000"/></svg>