<svg width="30" height="31" fill="none" xmlns="http://www.w3.org/2000/svg"><path d="M14.793.025a1.47 1.47 0 00-.56.003L1.893 2.495a1.47 1.47 0 00-1.18 1.44v10.161c0 5.738 3.469 9.97 6.695 12.671a29.654 29.654 0 005.944 3.842 18.57 18.57 0 00.546.253l.034.015.01.004.005.002.574-1.352-.573 1.353c.331.14.703.154 1.043.039l-.47-1.392c.47 1.392.472 1.391.472 1.391l.005-.001.01-.004.037-.013.126-.045c.107-.039.26-.096.45-.17a29.133 29.133 0 006.306-3.455c2.222-1.617 4.568-3.884 5.943-6.86h-3.335c-1.11 1.791-2.681 3.279-4.336 4.483a26.196 26.196 0 01-5.618 3.082 26.72 26.72 0 01-5.287-3.425c-2.942-2.464-5.643-5.95-5.643-10.418V5.14L14.53 2.966l11.606 2.188v2.664h2.939V3.935a1.47 1.47 0 00-1.198-1.444L14.794.025z" fill="#000"/><path d="M12.042 19.066c1.604 0 3.042-.561 4.07-1.541 1.026-.972 1.65-2.489 1.65-4.259 0-1.77-.624-3.278-1.65-4.258-1.028-.98-2.466-1.54-4.07-1.54-1.066 0-2.03.228-2.892.686-.86.459-1.548 1.13-2.062 2.015-.513.893-.766 1.92-.766 3.097 0 1.178.253 2.205.766 3.09 1.02 1.777 2.805 2.71 4.954 2.71zM9.94 15.653c-.545-.562-.821-1.36-.821-2.387 0-1.019.268-1.817.814-2.386.545-.56 1.248-.845 2.11-.845.868 0 1.571.276 2.117.837.545.561.813 1.36.813 2.394 0 1.027-.268 1.825-.813 2.386-.546.57-1.249.854-2.11.854-.861 0-1.564-.285-2.11-.854zm16.196-7.835l-3.957 4.785V7.6H19.39v10.427h2.79v-1.79l1.192-1.486 2.781 3.276h2.924l-4.085-5.307 4.083-4.903h-2.94z" fill="#000"/></svg>