<svg width="53" height="52" fill="none" xmlns="http://www.w3.org/2000/svg"><path d="M42.746 39.019a2 2 0 00-2.795 2.86l2.795-2.86zm6.463 11.907a2 2 0 102.796-2.86l-2.796 2.86zm-9.258-9.046l9.258 9.046 2.796-2.86-9.259-9.047-2.795 2.86zm-17.12-1.17C12.387 40.71 4 32.45 4 22.356H0c0 12.39 10.266 22.356 22.831 22.356v-4zm18.832-18.355c0 10.094-8.387 18.356-18.831 18.356v4c12.565 0 22.831-9.966 22.831-22.356h-4zM22.832 4c10.444 0 18.831 8.261 18.831 18.355h4C45.663 9.965 35.397 0 22.832 0v4zm0-4C10.265 0 0 9.966 0 22.355h4C4 12.261 12.387 4 22.831 4V0z" fill="#000"/></svg>