<svg width="49" height="52" fill="none" xmlns="http://www.w3.org/2000/svg"><path d="M10.998 10.902l-.476 1.942.476-1.942zm7.723-4.357l-1.92-.56 1.92.56zM4.834 21.335l1.42-1.408-1.42 1.407zm0 8.713l-1.42-1.407 1.42 1.407zm6.164 10.433l.476 1.942-.476-1.942zm7.723 4.357l-1.92.56 1.92-.56zm12.328 0l1.92.56-1.92-.56zm7.723-4.357l.476-1.943-.476 1.943zm6.165-10.433l-1.421 1.408 1.42-1.408zm0-8.714l-1.421-1.407 1.42 1.407zm-6.165-10.432l-.475-1.943.475 1.943zM31.05 6.545l1.92-.56-1.92.56zm-20.527 6.3c4.361 1.067 8.86-1.428 10.119-5.74l-3.84-1.12c-.64 2.189-2.976 3.55-5.327 2.974l-.952 3.885zm-4.267 7.082c-2.937-2.965-.205-8.178 4.267-7.083l.952-3.885C3.435 6.99-2.621 16.651 3.414 22.742l2.84-2.815zm0 11.529a8.161 8.161 0 000-11.53l-2.842 2.816a4.161 4.161 0 010 5.898l2.842 2.816zm4.267 7.082c-4.472 1.096-7.204-4.118-4.267-7.082L3.413 28.64c-6.034 6.091.022 15.752 8.061 13.783l-.952-3.885zm10.119 5.74c-1.26-4.313-5.758-6.808-10.119-5.74l.952 3.886c2.35-.576 4.688.785 5.327 2.974l3.84-1.12zm8.489 0c-1.21 4.14-7.28 4.14-8.49 0l-3.839 1.12c2.33 7.98 13.838 7.98 16.168 0l-3.84-1.12zm10.118-5.74c-4.36-1.068-8.859 1.427-10.118 5.74l3.84 1.12c.639-2.189 2.976-3.55 5.327-2.975l.951-3.885zm4.268-7.082c2.937 2.964.205 8.178-4.268 7.082l-.951 3.886c8.038 1.968 14.095-7.693 8.06-13.784l-2.841 2.816zm0-11.53a8.161 8.161 0 000 11.53l2.841-2.816a4.161 4.161 0 010-5.898l-2.841-2.815zm-4.268-7.082c4.473-1.095 7.205 4.118 4.268 7.083l2.841 2.815c6.035-6.09-.022-15.752-8.06-13.783l.951 3.885zM29.13 7.106c1.259 4.311 5.757 6.806 10.118 5.738l-.951-3.885c-2.351.576-4.688-.785-5.328-2.975l-3.84 1.122zm3.84-1.122c-2.331-7.979-13.838-7.979-16.169 0l3.84 1.122c1.21-4.141 7.28-4.141 8.489 0l3.84-1.122zM16.02 25.691c0 4.853 4.013 8.709 8.865 8.709v-4c-2.73 0-4.865-2.151-4.865-4.709h-4zm8.865 8.709c4.853 0 8.866-3.856 8.866-8.709h-4c0 2.558-2.135 4.709-4.866 4.709v4zm8.866-8.709c0-4.853-4.013-8.708-8.866-8.708v4c2.731 0 4.866 2.151 4.866 4.708h4zm-8.866-8.708c-4.852 0-8.865 3.855-8.865 8.708h4c0-2.557 2.134-4.708 4.865-4.708v-4z" fill="#000"/></svg>