<svg width="63" height="64" fill="none" xmlns="http://www.w3.org/2000/svg"><path d="M50.077 0H12.923C5.786 0 0 5.878 0 13.128v37.744C0 58.122 5.786 64 12.923 64h37.154C57.214 64 63 58.122 63 50.872V13.128C63 5.878 57.214 0 50.077 0z" fill="#fff"/><path fill-rule="evenodd" clip-rule="evenodd" d="M51.374 47.69a2.396 2.396 0 01-3.427 0L19.066 18.35a2.49 2.49 0 010-3.481 2.397 2.397 0 013.427 0l28.88 29.339a2.49 2.49 0 010 3.481z" fill="#424141"/><path fill-rule="evenodd" clip-rule="evenodd" d="M38.549 37.744h.83v-9.495h3.448v-2.172h-9.6v2.171h3.384v7.527l1.938 1.969zm-6.473-6.576v-5.091h-2.769v2.278l2.769 2.813zm-6.263.6v2.057c.032 1.277.615 1.915 1.751 1.915.573 0 1.007-.16 1.301-.48.061-.066.116-.141.164-.225l1.785 1.813a3.74 3.74 0 01-.844.559c-.679.331-1.48.497-2.406.497-1.399 0-2.5-.369-3.305-1.106-.805-.737-1.215-1.747-1.23-3.029v-4.83l2.784 2.829zm27.07 3.404c.416-.877.623-1.884.623-3.021v-.537c-.005-1.122-.22-2.116-.646-2.981-.421-.87-1.013-1.541-1.775-2.011-.763-.47-1.63-.705-2.603-.705-.983 0-1.861.237-2.635.713-.767.475-1.359 1.151-1.774 2.027-.41.87-.615 1.878-.615 3.02v.658c.02 1.1.242 2.075.662 2.925.426.849 1.018 1.503 1.775 1.963.757.454 1.625.68 2.603.68.978 0 1.848-.234 2.61-.704.768-.476 1.36-1.151 1.775-2.027zm-2.768-6.146c.384.598.575 1.477.575 2.636v.537c-.005 1.132-.197 2-.575 2.604-.379.604-.918.905-1.617.905-.736 0-1.291-.307-1.664-.921-.374-.614-.56-1.493-.56-2.636l.007-.858c.08-2.115.813-3.173 2.201-3.173.71 0 1.254.302 1.633.906zm-35.187 6.538h3.794l.67 2.18h2.974l-4.243-11.667H15.52l-4.212 11.667h2.957l.663-2.18zm3.131-2.171h-2.468l1.23-4.047 1.238 4.047z" fill="#424141"/></svg>