<svg width="64" height="64" fill="none" xmlns="http://www.w3.org/2000/svg"><path d="M50.872 0H13.128C5.878 0 0 5.878 0 13.128v37.744C0 58.122 5.878 64 13.128 64h37.744C58.122 64 64 58.122 64 50.872V13.128C64 5.878 58.122 0 50.872 0z" fill="#fff"/><path fill-rule="evenodd" clip-rule="evenodd" d="M49.33 46.048a2.462 2.462 0 01-3.48 0l-29.34-29.34a2.461 2.461 0 113.481-3.48l29.34 29.34c.96.96.96 2.519 0 3.48z" fill="#424141"/><path fill-rule="evenodd" clip-rule="evenodd" d="M18.886 25.65a2.462 2.462 0 00-1.456 2.247c0 6.522 5.072 11.859 11.487 12.281v2.862c0 .075.003.15.01.224h-2.994a2.461 2.461 0 100 4.923h11.189a2.462 2.462 0 002.398-1.904l-3.02-3.02h-2.67c.007-.073.01-.148.01-.223v-2.437l-5.443-5.442a7.392 7.392 0 01-5.923-5.924l-3.588-3.587zm16.279 9.316l3.742 3.742a12.305 12.305 0 006.42-10.81 2.461 2.461 0 10-4.923 0 7.388 7.388 0 01-5.24 7.068zm-1.641-1.641l-9.53-9.53v-2.462a7.385 7.385 0 0114.769 0v4.923a7.388 7.388 0 01-5.24 7.069zm-2.146-14.453a2.462 2.462 0 00-2.461 2.461v4.923a2.462 2.462 0 004.923 0v-4.923a2.461 2.461 0 00-2.462-2.461z" fill="#424141"/></svg>