<svg width="63" height="64" fill="none" xmlns="http://www.w3.org/2000/svg"><path d="M50.806 0H12.194C5.459 0 0 5.546 0 12.387v39.226C0 58.454 5.46 64 12.194 64h38.612C57.541 64 63 58.454 63 51.613V12.387C63 5.546 57.54 0 50.806 0z" fill="#fff"/><path d="M31.72 19.404l.139-.093.115-.12a.339.339 0 01.103-.081.19.19 0 01.081-.013c.05 0 .07.008.08.012a.346.346 0 01.105.082c.088.092.106.152.106.252v25.113c0 .102-.018.161-.106.252a.346.346 0 01-.104.083.188.188 0 01-.08.012.196.196 0 01-.082-.012.336.336 0 01-.101-.08l-.117-.122-.139-.093-9.444-6.31-.381-.255h-7.886a.192.192 0 01-.082-.013.334.334 0 01-.102-.08v-.001c-.088-.092-.107-.15-.107-.253V26.315c0-.101.018-.16.107-.252h0a.339.339 0 01.102-.08.193.193 0 01.082-.013h7.886l.381-.255 9.444-6.31z" stroke="#424141" stroke-width="3"/><path d="M42.342 36.19A7.79 7.79 0 0043.547 32c0-1.5-.401-2.901-1.205-4.204-.804-1.302-1.867-2.22-3.19-2.753a1.536 1.536 0 00-.71-.148 1.73 1.73 0 00-1.276.547 1.85 1.85 0 00-.538 1.348c0 .414.114.765.34 1.05.227.287.501.534.822.741.322.208.643.435.965.681.32.247.595.597.822 1.051.227.455.34 1.017.34 1.688s-.113 1.234-.34 1.687c-.227.455-.501.805-.822 1.051-.322.247-.643.474-.965.681a3.37 3.37 0 00-.822.74c-.226.287-.34.637-.34 1.052 0 .533.18.982.538 1.347.36.366.785.548 1.276.548.284 0 .52-.05.71-.148 1.323-.553 2.386-1.476 3.19-2.77z" fill="#424141"/><path d="M42.015 18.055a1.974 1.974 0 00-.737-.148c-.492 0-.917.188-1.276.563-.36.375-.54.819-.54 1.332 0 .77.37 1.352 1.107 1.747 1.059.573 1.776 1.006 2.155 1.303A11.071 11.071 0 0146 26.863 11.569 11.569 0 0147.176 32 11.57 11.57 0 0146 37.137a11.07 11.07 0 01-3.276 4.012c-.378.296-1.096.73-2.155 1.303-.738.395-1.106.977-1.106 1.746 0 .514.18.959.539 1.333a1.74 1.74 0 001.304.563 1.9 1.9 0 00.71-.148c2.646-1.165 4.773-3.025 6.38-5.581A15.416 15.416 0 0050.806 32c0-3.02-.803-5.808-2.41-8.364-1.607-2.557-3.734-4.417-6.38-5.582z" fill="#424141"/><path d="M46.809 47.728L22.124 13.634a1.509 1.509 0 00-2.13-.33 1.564 1.564 0 00-.325 2.165l24.684 34.094a1.509 1.509 0 002.13.33 1.565 1.565 0 00.326-2.165z" fill="#424141"/><path d="M44.3 49.405L19.618 15.311a1.509 1.509 0 00-2.132-.33 1.564 1.564 0 00-.324 2.165L41.845 51.24a1.508 1.508 0 002.13.33 1.564 1.564 0 00.326-2.165z" fill="#fff"/></svg>