<svg width="229" height="146" fill="none" xmlns="http://www.w3.org/2000/svg"><path d="M229 0H0v146h229V0z" fill="#000005"/><path fill-rule="evenodd" clip-rule="evenodd" d="M63.354 96.67l30.77-1.716 3.902 2.078h33.493l4.084-1.536 32.04 1.807s1.452.18 1.361 2.801c0 2.62-1.815 13.281-1.815 13.281s-.817.994-2.269 1.174c-1.452.181-37.849-2.981-44.929-2.8-7.079.18-44.928 1.987-48.922 2.439-3.994.452-8.623.452-8.986-.181-.453-.542-.907-2.439-.907-2.439l-1.725-13.19s1.09-2.26 3.903-1.717z" fill="#E3000F"/><path fill-rule="evenodd" clip-rule="evenodd" d="M61.721 95.857c5.809-.18 11.618-.542 17.427-.813 4.901-.27 9.893-.542 14.885-.723l-.363.633.999.632c-5.083.18-10.257.452-15.34.723-5.809.271-11.617.632-17.517.813h-.091c-.363 0-.726.18-.998.452-.182.18-.364.452-.364.813v.09l1.634 14.004c.091.452.273.903.545 1.175.181.18.545.361.817.361a502.415 502.415 0 0015.52-1.084c11.71-.813 23.872-1.717 35.671-1.717 11.074 0 21.784.813 32.676 1.626 5.899.452 11.89.904 18.062 1.175.363 0 .635-.09.817-.361.272-.272.454-.723.544-1.175l2.088-13.28v-.091c0-.271-.091-.542-.363-.723-.272-.271-.545-.361-.908-.452h-.181c-5.9-.27-11.8-.632-17.7-1.084-4.901-.271-9.893-.632-14.794-.903l1.724-.904-.09-.361c4.447.27 8.804.542 13.251.813 5.9.361 11.89.723 17.699 1.084h.273c.635.09 1.27.361 1.633.813.454.452.727 1.084.727 1.717v.27l-2.088 13.282c-.091.722-.454 1.445-.908 1.897-.453.452-1.089.723-1.815.723-6.263-.362-12.162-.723-18.062-1.175-10.983-.813-21.602-1.626-32.585-1.626-11.708 0-23.78.903-35.58 1.717-5.264.361-10.438.722-15.52 1.084-.727 0-1.362-.271-1.816-.723-.454-.452-.817-1.175-.907-1.897l-1.725-14.004v-.18c0-.724.272-1.356.726-1.808.454-.451 1.09-.722 1.725-.813h.272z" fill="#DCC576"/><path fill-rule="evenodd" clip-rule="evenodd" d="M119.356 35.054c1.089.181 2.088.362 3.086.633.999.27 1.997.632 2.996.994l2.359-2.891.363-.452.454.27 5.446 3.073.454.27-.182.452-.998 3.614c1.089.813 1.997 1.627 2.995 2.62.908.904 1.816 1.898 2.633 2.982l3.721-1.175.544-.18.273.451 3.086 5.24.272.452-.363.362-2.904 2.8a21.773 21.773 0 011.089 3.433c.272 1.175.544 2.35.726 3.524l3.993.813.545.09v.542l.091 6.234v.543l-.545.09-4.175.632c-.181 1.175-.454 2.259-.726 3.433-.272 1.085-.726 2.26-1.089 3.343l2.995 2.801.363.361-.272.452-3.086 5.33-.273.452-.544-.18-3.994-1.175-.998.904a17.088 17.088 0 01-1.816 1.806c-.544.452-.998.904-1.543 1.356l1.997 4.878.182.543-.454.27-3.812 2.26-.182.09H97.3l-.181-.09-4.175-2.17-.454-.27.181-.542 1.543-5.15c-.726-.632-1.452-1.265-2.178-1.988a20.395 20.395 0 01-1.906-2.168l-3.812 1.446-.545.18-.272-.451-3.268-5.512-.272-.542.454-.361 3.086-2.349c-.454-1.175-.908-2.35-1.27-3.614a28.335 28.335 0 01-.818-3.794l-3.993-.633-.182.18v-.541l-.181-6.144v-.542l.544-.09 4.085-.813c.181-1.175.363-2.35.726-3.524A21.615 21.615 0 0185.5 54.48l-2.904-2.71-.364-.362.273-.452 3.267-5.33.273-.452.544.18 3.45 1.266c.816-.994 1.633-1.898 2.45-2.8.907-.904 1.815-1.718 2.814-2.44l-1.271-3.524-.182-.542.454-.27 5.446-3.073.454-.27.363.451 2.36 2.8c1.18-.451 2.36-.812 3.54-1.174 1.18-.361 2.45-.542 3.721-.723l.817-3.523.091-.542h.544l6.263-.09h.545l.09.542.817 3.613z" fill="#DCC576"/><path fill-rule="evenodd" clip-rule="evenodd" d="M122.17 36.952c-1.089-.271-2.269-.542-3.449-.723l-.454-.09-.091-.452-.726-3.704-5.173.09-.817 3.523-.091.452-.454.09c-1.361.181-2.723.452-3.994.723-1.361.362-2.632.813-3.812 1.265l-.454.18-.272-.36-2.36-2.711-4.447 2.53 1.18 3.433.181.452-.363.27c-1.089.814-2.087 1.717-3.086 2.62-.998.995-1.815 1.988-2.632 3.072l-.272.362-.454-.18-3.45-1.175-2.631 4.427 2.813 2.62.363.27-.181.452c-.454 1.175-.908 2.44-1.18 3.705-.363 1.264-.545 2.53-.726 3.794l-.09.452-.455.09-3.993.813.181 5.06 3.903.632.454.09.09.452c.182 1.356.454 2.71.818 4.066.363 1.355.816 2.62 1.452 3.885l.181.451-.454.362-3.086 2.259 2.633 4.517 3.721-1.446.454-.18.272.361c.636.813 1.362 1.717 2.178 2.44a14.01 14.01 0 002.451 2.168l.363.27-.09.453-1.544 5.059 3.54 1.807h34.037l3.177-1.897-1.997-4.789-.181-.451.363-.272c.635-.542 1.27-1.084 1.815-1.626.544-.542 1.18-1.174 1.724-1.807l1.271-1.174.272-.271.363.09 3.813 1.175 2.541-4.427-2.995-2.801-.363-.271.181-.452c.454-1.174.908-2.349 1.271-3.614a24.48 24.48 0 00.817-3.704l.091-.452.453-.09 4.085-.632-.091-5.15-3.994-.813-.453-.09-.091-.453c-.182-1.264-.363-2.53-.726-3.794-.363-1.265-.726-2.53-1.18-3.704l-.182-.452.363-.271 2.905-2.71-2.542-4.337-3.63 1.174-.454.181-.272-.361c-.817-1.084-1.816-2.169-2.814-3.162a29.613 29.613 0 00-3.177-2.71l-.363-.272.091-.451.998-3.524-4.538-2.53-2.36 2.801-.272.361-.454-.18c-1.271-.452-2.36-.813-3.449-1.084zm-7.715 5.51c12.889 0 23.327 10.39 23.327 23.22 0 12.829-10.438 23.219-23.327 23.219-12.889 0-23.327-10.39-23.327-23.22 0-12.828 10.438-23.218 23.327-23.218z" fill="#030100"/><path d="M137.218 70.99c2.941-12.485-4.843-24.98-17.386-27.907-12.542-2.928-25.095 4.82-28.036 17.305-2.941 12.485 4.843 24.98 17.385 27.907 12.543 2.928 25.096-4.82 28.037-17.305z" fill="#E3000F"/><path fill-rule="evenodd" clip-rule="evenodd" d="M128.252 81.493h1.18l1.09-.271 1.361.361 1.089.09.999-1.174v-.904l-1.09-.813-3.902-.18-1.543 1.084.453 1.536.363.27zm-20.694-28.821l-.091 2.168c.454.542 1.271.632 1.906.452.726-.271.817-.723 1.18-1.355.181.18-.091.722-.182.993-.181.362-.454.362-.726.633.454.451 1.452.361 2.814 2.62.272.452.363.903.817.994.998.09 2.45.18 3.358-.09.726-.181 1.815-.995 1.906-1.717-.181-.181-.726-.362-1.089-.542-.272-.181-.635-.543-.908-.723-1.906-2.078-1.543-4.698-3.903-4.246-.544.09-.726.36-1.089.542 0-.362.636-.814.999-.904.544-.09 1.361 0 1.815.09v-1.806c-.182-.362-1.815-.904-2.269-.994-1.271-.18-2.179.542-2.632.632l.635-.542c-.635.09-1.089-.27-1.452 0-.817.723-.091 1.717-.363 2.981 0 .543-.182.633-.726.814z" fill="#DCC576"/><path fill-rule="evenodd" clip-rule="evenodd" d="M116.543 65.14c.181.542.545 1.356.817 1.898.363.722.726.903 1.271 1.355.544.451.635 1.084 1.18 1.536 2.269 1.987 4.719 3.885 7.079 5.962.636.543 2.179 2.078 2.814 2.44.454.27 1.724.452 2.087.09.454-.452-.272-1.265-.544-1.716-.726-1.084-1.362-2.078-2.269-3.072-.817-.904-1.816-1.626-2.723-2.44v1.175c-.272-.09-.908-1.807-1.089-2.168a24.065 24.065 0 00-1.18-2.078c-.363-.723-2.269-3.072-2.814-3.614l-4.629.632zm-10.528-3.524c1.906-.18 2.632-.451 4.266.723.726.452 2.45 1.988 3.177 2.168V62.7l.907-.451c-.181-.18-.544-.18-.817-.271-.272-.09-.363-.452-.453-.723-.182-.542-.454-1.084-.636-1.626-1.634-.271-3.267-.362-4.901-.633-1.452-.18-3.631-.542-4.992.09-1.543.723-1.634 2.35-.363 3.434 1.815 1.626 5.627 2.44 8.078 3.072.726.18 1.452.361 2.178.632.363.09.726.361.999-.09.181-.271.363-.814.181-1.085 0-.09-1.452-.813-1.724-.993-.999-.813-2.088-1.807-3.449-2.078-.454-.181-2.27-.271-2.451-.362zm.544-15.63c.091-.09.182-.18.182-.27.09-.181-.091 0 0-.272h.181c0 .361-.091.542-.363.542zm-2.087-2.258l.181.36-.091-.09-.181.181.454.181c-.273 0-.545-.09-.727-.361l.364-.272zm.363-.09c.181.18.181.27.272.45 0-.18-.091-.36-.182-.541-.363-.452-.453-.18-.453-.18.09.09.181.09.363.27zm.544-1.446c.454.18.908.09 1.271.632.363.633 0 1.175.272 1.717.272.632.908.09 1.452.361.454.271.727.723.817 1.175-.363-.181-.454-.633-.998-.904-.272-.09-.545-.09-.817-.18-.454-.091-.363-.181-.635-.362-.363.271-.182.361-.363.632-.273-.451 0-.632.272-.903l-.091-.361c-.726.27-.454.903-.272 1.355-.363-.09-.454-.542-.363-.904.091-.361.363-.451.544-.723 0-.632.091-.993-.453-1.264-.454-.181-.908-.452-1.271-.09a1.09 1.09 0 00-.454.451c-.091.271 0 .452-.272.633-.363.27-.908.36-1.089.632.181.452.453.271.635.542-.091.09-.182 0-.363.18-.182.181 0 .181.091.452l-.454.09.181.453c-.181.18-.272.18-.363.36.091.362.817.453 1.18.543.817.09.908-.09 1.543-.271-.272.542-1.18.361-1.634.361.363.452 2.27.994 3.177 3.343.272.633.272 1.265.454 1.717.726-.181.454-1.446.454-1.988 0-1.445.091-.994.635-1.988-.272-.27-.817-.36-1.18-.722s-.454-.904-.635-1.265c-.363.09-.545.27-.908.18v-.27c.091 0 .182.451.999-.181.363-.271.363-.904-.273-.723.182-.542.999.09.545.723-.182.27 0 .632.181.903.273.542.999.994 1.544 1.084.635-.993 2.178-.722 3.086-.451 1.179.361 2.087.993 3.086.09-.182-.09-1.18.09-1.634 0-.817-.18-1.997-.903-2.723-.994-.636-.18-1.18.18-1.634.18 1.18-.812 2.088-.36 3.177.272.817.452 2.814.903 2.995-.361-.363 0-1.724.18-1.906 0 .545-.271 2.269-.271 2.088-1.175-.363.09-1.906 1.355-3.813-.18-.453-.362-.907-.814-1.361-1.175-.182-.18-.454-.452-.726-.542-.272-.09-.817-.18-.999-.271.182-.09.999 0 1.18.09.908.452 2.36 2.982 4.629 2.259.545-.18 1.362-.723 1.634-1.355-2.995 0-3.267.27-5.718-1.536-.635-.452-1.543-1.084-2.269-1.355-.454.18-2.088.451-2.451 1.084z" fill="#DCC576"/><path fill-rule="evenodd" clip-rule="evenodd" d="M113.094 59.718c.091.181.635 1.536.726 1.627.181.27 1.361.452 1.724.632-.181.271-1.089.542-1.452.723-.181.361-.091 1.265-.091 1.717.636.36.727-.181 1.18-.272.636-.09.726.272 1.09.543 1.27.09 3.449-.814 3.902-2.169.363-1.174-.544-3.704-1.724-4.156-1.452 1.898-3.358 1.355-5.355 1.355zm-.636-.632c-.453-1.355-1.543-2.349-2.722-3.072-.454-.27-.364-.27-.908-.27-.635 0-1.18-.362-1.634-.723 0-2.169.091-4.97-1.815-6.325-1.089.362.272 2.259-.817 3.885-.182.271-.545.452-.454.813.454 1.446 2.541 1.717 4.448 4.427.726.994.272.904 1.543.994.726 0 1.543.18 2.359.271zm2.724 9.397c.272.36.453.542.726.813.363.451-.091.361.635.813 1.271.994 4.266 3.072 5.083 3.885.998.993 2.178 1.897 3.177 2.89.817.814 2.723 2.711 3.63.995-.272-.452-3.721-3.253-4.538-3.976-.726-.632-1.543-1.355-2.269-1.897-.817-.632-1.725-1.174-2.451-1.717-.363.181-.363.543-.998.181-.908-.452-1.271-.994-1.634-1.174-.544-.271-.454.09-.726-.633l-.635-.18zm-5.174-1.807l.544-.723c-.907-.451-4.992-1.174-7.17-2.258-2.542-1.355-3.812-3.433-.636-5.06 0-.09-3.902-.451-4.72 1.355-.362.723-.09 1.807.455 2.35.453.542 1.36.903 1.996 1.174 1.634.542 3.177.994 4.811 1.536 1.361.542 3.358 1.355 4.72 1.626zm4.809-15.269c.999.814 3.359.362 4.629.362-.181.18-.363.09-.544.27.907.091 1.815.362 2.813.362 1.725 0 4.72-.542 5.719-.18 1.089.451.817.361 1.906.18.181 0 .544.09.635 0-.272-.18-1.271-.18-1.634-.18.273-.271 1.634-.723 1.997-.633.272 0 .545.18.726.09-.817-.722-3.086 0-4.175 0-1.361 0-4.357-1.264-6.081-1.174-.454 0-1.815.18-2.269.09-1.453-.451-2.179-1.084-3.812-.903l.09 1.716zm-13.522-7.86c.091.09.363.452.363.633-.363 0-.636 0-.726-.362l.363-.27zm0-.452c.091.362.181.181.363.452.181.18.091.362.272.452 0-.452-.091-.813-.635-.904zm-1.543.994c.181.452.363.18.544.452-.181.09-.363.18-.454.361l.182.362c-.272.09-.09-.09-.363.09.272.542.181.452-.272.813.272.542 1.633.633 2.087.542.363 0 .636-.18.908-.451.726-.543.181-.272.181-.814l.273-.09-.182-.27.273-.182-.454-.451c.454-.542 1.18-.452.907-1.356-.181-.542-.726-.993-1.361-.993-.272 0-.545.27-.726.451-.454.362-.454.271-.454.723.272.452-.817.361-1.09.813z" fill="#DCC576"/><path fill-rule="evenodd" clip-rule="evenodd" d="M100.479 46.8c.363.451 1.27.632 2.45 2.077.908 1.084.726 2.259 1.089 3.524.182-.09.454-.452.545-.723.181-.361.181-.813.181-1.174-.09-1.085-.363-1.356.454-2.078-.454-.723-1.997-1.175-2.723-1.717-.272.09-.453.271-.907.271-.363 0-.726-.09-1.089-.18zm14.248 19.424c.998.813.907.09 1.27.723.182.361.363.09.545.452.272.451.272.09.544.451.091.543-.363.543-.453 1.085.272.27 1.815 1.716 2.178 1.174.454-.723-.908-1.716-1.361-2.168-.636-.633-.817-1.536-1.271-2.35-.272-.36-.545-.903-1.089-.722-.363.09-.273.361-.273.632s-.09.362-.09.723zm-1.18 2.981c.363.362 1.543 1.446 2.087 1.265.636-.813-.998-1.897-1.452-2.44-.544-.541-.181-.722-.908-1.084-.363-.18-1.179-.542-1.543-.542-.09.362.545.542.817.542.273 0 .273.09.363.272.182.27.182.09.454.27.273.181 0 .272.363.362.182.09.363.09.363.361.091.362-.453.723-.544.994zm16.701 9.487c.182.36.363.722.454.993.091.362 0 .994.817.633v-.904c.454-.27.726-.18.998-.632l-.181-.452c-.273.09-.363.452-.908.542-.454.09-.817-.09-1.18-.18zM102.382 41.56c.273.09.727-.362 1.09-.09l-.454.09c.091.27 0 .09.181.18l.182.181c.454-.18.454-.271.998-.271.545 0 .726.361.908-.09-1.815-1.085-3.086-.543-2.905 0zm25.326 37.855c.453-.18.817-.18 1.089-.723l-.272-.452c-.636.633-.636.542-1.453.452l.091 1.536c.272.09.363.18.726 0l-.181-.813z" fill="#DCC576"/><path fill-rule="evenodd" clip-rule="evenodd" d="M113.457 66.586l1.18.813c.272-.09.363-.271.363-.542l-.726-.452c0-.632.181-.452.091-1.265l-.545-.09c.182 1.084.091.723-.363 1.536zm-3.176.18c.182.18.454.27.636.451.181.181.363.452.635.452.272-.09.363-.27.272-.542l-.726-.451.091-.452-.454-.181-.454.723zm-6.445-23.219c.454-.18.091-.542.363-.813.182-.18.545-.361.635-.633-1.724-.36-1.089.362-1.089.723.091.271.091.452.091.723zm15.611 20.87l1.453-.362-.454-.993c-.182.18-.273.451-.454.722-.182.181-.454.362-.545.633zm11.617 16.353c-.181 0-.454-.18-.545.09-.09.362.908.362 1.09.271v-.27c-.091-.181-.273-.091-.545-.091zm-4.084.27c.182.091.908.091 1.089 0 .182-.451-.817-.36-1.089-.36-.091.18-.091.18 0 .36zm-11.254-14.093c-.273-.09-.363.09-.545.271-.091.18-.363.361-.272.542.272.271.363-.09.544-.271.182-.18.364-.271.273-.542zm-3.811 1.265c.272.09.272 0 .454-.271.09-.18.363-.361.272-.542-.182-.271-.363.09-.454.18-.181.181-.363.272-.272.633zm4.176.542c.272.18.363 0 .453-.271.091-.18.454-.361.273-.542-.182-.271-.363.09-.454.18-.091.272-.363.272-.272.633zm-.002-1.356c-.726.633-.545 1.085-.181.814 0 0 .363-.452.363-.543.181-.18.09-.451-.182-.27zm-3.085 1.627c.272.18.363 0 .454-.181.181-.271.363-.361.272-.632-.272-.09-.272.09-.545.27-.09.272-.181.272-.181.543zm-.001-1.265l-.454.451c-.273.272-.091.543.181.362.091 0 .363-.452.363-.452.273-.27.182-.542-.09-.361z" fill="#DCC576"/><path fill-rule="evenodd" clip-rule="evenodd" d="M101.203 44c.182.09.091.09.363.09l-.091-.272-.272.181z" fill="#fff"/><path fill-rule="evenodd" clip-rule="evenodd" d="M131.7 80.86v.271c-.272.09-1.18.18-1.089-.271 0-.271.273-.18.545-.09.181 0 .363-.09.544.09zm-25.141-34.874c.272 0 .453-.18.363-.451h-.182c-.091.27.091.09 0 .27l-.181.181zm-5.083-2.168l.09.27c-.181 0-.181 0-.363-.09l.273-.18zm-.545 0c.091.361.363.361.726.361 0-.18-.272-.542-.363-.632l-.363.27zm1.089.18c0-.451-.181-.813-.635-.903.091.361.181.18.363.452.091.18.091.361.272.452zm2.088 0c.091.272.454.362.726.362l-.454-.18.182-.181.09.09-.181-.361-.363.27zm.363-.722s.091-.271.454.18c.091.181.181.362.181.543-.09-.181-.181-.272-.272-.452-.182-.09-.272-.09-.363-.271zm22.51 37.403c.272-.09 1.18-.09 1.089.362-.182.09-.817.09-1.089 0-.091-.181-.091-.181 0-.362zm.726-1.265l.091.814c-.364.18-.364.18-.727 0l-.09-1.536c.907.09.817.18 1.452-.452l.272.452c-.181.542-.544.542-.998.722zm2.541-.722c.182.361.363.722.454.993.091.362 0 .994.817.633v-.904c.454-.27.726-.18.998-.632l-.181-.452c-.272.09-.363.452-.908.542-.454.09-.817-.09-1.18-.18zm-15.067-10.21c.273.362.454.543.726.814.363.451-.09.361.636.813 1.27.994 4.266 3.072 5.083 3.885.998.993 2.178 1.897 3.176 2.89.817.814 2.723 2.711 3.631.995-.272-.452-3.721-3.253-4.538-3.976-.726-.632-1.543-1.355-2.269-1.897-.817-.632-1.725-1.174-2.451-1.717-.363.181-.363.543-.999.181-.907-.452-1.27-.994-1.633-1.174-.545-.272-.454.09-.726-.633l-.636-.18zm-2.178.543c-.091-.272.091-.362.272-.543.182-.27.182-.36.545-.27.091.27-.091.36-.273.632-.181.18-.272.361-.544.18zm3.086-.272c-.091-.27.091-.36.272-.632.091-.09.363-.452.454-.18.091.18-.182.451-.272.541-.091.181-.091.362-.454.272zm-3.086-.993l-.454.451c-.272.272-.091.543.182.362.09 0 .363-.452.363-.452.272-.271.181-.542-.091-.361zm3.086-.362c.272-.18.363.09.181.271l-.363.542c-.363.272-.635-.18.182-.813zm-4.175.813c-.091-.27.09-.361.272-.632.091-.09.363-.452.454-.18.091.18-.182.451-.272.541-.182.181-.182.362-.454.271zm3.812-1.264c-.272-.09-.363.09-.545.27-.091.181-.363.362-.272.543.272.27.363-.09.545-.271.181-.181.363-.271.272-.542zm-.091 3.523c-.545.18-1.724-.903-2.088-1.265.091-.27.545-.542.545-.903-.091-.271-.181-.271-.363-.362-.272-.18-.091-.18-.363-.361-.272-.18-.272 0-.454-.271-.181-.18-.091-.271-.363-.271-.272-.09-.908-.18-.817-.542.363 0 1.18.361 1.543.542.726.361.363.542.908 1.084.454.452 2.087 1.536 1.452 2.35zm-4.72-4.337l-.544.723c.181.18.454.271.635.452.182.18.363.452.635.452.273-.09.363-.271.273-.542l-.726-.452.09-.452-.363-.18zm5.628-.993c.181.542.544 1.355.817 1.897.363.723.726.903 1.27 1.355.545.452.636 1.084 1.18 1.536 2.269 1.988 4.72 3.885 7.08 5.963.635.542 2.178 2.078 2.814 2.44.453.27 1.724.451 2.087.09.454-.452-.272-1.265-.544-1.717-.726-1.084-1.362-2.078-2.269-3.072-.817-.903-1.816-1.626-2.723-2.44v1.175c-.273-.09-.908-1.807-1.09-2.168a24.065 24.065 0 00-1.18-2.078c-.363-.723-2.269-3.072-2.813-3.614l-4.629.633zm-1.906 2.258l-1.18-.813c.454-.723.635-.451.454-1.536l.544.09c.091.814 0 .633-.091 1.266l.726.451c-.09.271-.181.362-.453.542zm1.996 1.446c.182-.452.545-.452.454-1.084-.272-.362-.272 0-.544-.452-.182-.361-.363-.09-.545-.452-.454-.632-.363.09-1.271-.722 0-.362.091-.452.091-.814 0-.27-.091-.542.272-.632.545-.18.817.361 1.09.723.453.813.635 1.716 1.27 2.349.454.451 1.816 1.445 1.362 2.168-.363.632-1.906-.813-2.179-1.084zm2.814-4.427c.091-.18.454-.452.545-.633.181-.18.272-.451.454-.722l.453.993-1.452.362zm-13.433-2.8c1.906-.182 2.632-.453 4.266.722.726.452 2.451 1.987 3.177 2.168V62.7l.907-.451c-.181-.181-.544-.181-.817-.272-.272-.09-.363-.451-.453-.722-.182-.542-.454-1.084-.636-1.627-1.633-.27-3.267-.36-4.901-.632-1.452-.18-3.631-.542-4.992.09-1.543.723-1.634 2.35-.363 3.434 1.815 1.626 5.627 2.439 8.078 3.071.726.181 1.452.362 2.178.633.363.09.726.361.999-.09.181-.272.363-.814.181-1.085 0-.09-1.452-.813-1.724-.994-.999-.813-2.088-1.806-3.449-2.078-.454-.18-2.27-.27-2.451-.36zm7.08-1.898c1.996 0 3.903.542 5.355-1.265 1.18.452 2.087 2.981 1.724 4.156-.363 1.355-2.541 2.259-3.903 2.168-.363-.27-.453-.632-1.089-.542-.544.09-.544.633-1.18.271 0-.452-.09-1.355.091-1.716.272-.181 1.271-.542 1.452-.723-.363-.18-1.543-.452-1.724-.633-.091-.18-.636-1.535-.726-1.716zm-3.086 6.956c-1.362-.27-3.359-1.174-4.72-1.626-1.634-.542-3.177-.994-4.811-1.536-.726-.18-1.543-.632-1.996-1.174-.545-.633-.727-1.626-.454-2.35.817-1.806 4.719-1.445 4.719-1.354-3.267 1.626-1.906 3.704.636 5.06 2.178 1.174 6.172 1.806 7.17 2.258l-.544.722zm10.891-16.352c1.725-.09 4.629 1.174 6.082 1.174.998 0 3.358-.722 4.175 0-.182.09-.454-.09-.726-.09-.363-.09-1.725.361-1.997.632.363 0 1.452.09 1.634.181-.182.09-.454 0-.636 0-1.089.18-.726.271-1.906-.18-1.089-.452-4.084.18-5.718.18-.908 0-1.815-.27-2.814-.361.182-.181.363 0 .545-.271-1.271 0-3.631.451-4.629-.362V49.42c1.724-.18 2.36.452 3.812.904.363.27 1.725.09 2.178 0zm-12.344 7.408c-1.906-2.71-3.993-2.981-4.447-4.427-.091-.361.181-.542.454-.813 1.18-1.626-.273-3.523.817-3.885 1.906 1.355 1.815 4.156 1.815 6.325.454.36.998.722 1.634.722.544 0 .454 0 .907.271 1.18.723 2.269 1.717 2.723 3.072-.726-.09-1.543-.18-2.36-.271-1.27-.09-.817 0-1.543-.994zm-.998-5.06c.545-.27.635-.36.817-.993.181-1.265-.454-2.349.363-2.981.363-.272.817.09 1.452 0l-.635.542c.454-.09 1.361-.813 2.632-.633.454.09 2.088.633 2.269.994v1.807c-.544-.09-1.361-.18-1.815-.09-.363.09-.999.542-.999.903.363-.18.545-.452 1.09-.542 2.359-.452 1.996 2.168 3.902 4.246.273.271.636.542.908.723.363.18.817.361 1.089.542-.181.813-1.18 1.536-1.906 1.717-.998.27-2.36.18-3.358.09-.545-.09-.545-.452-.817-.994-1.361-2.258-2.36-2.168-2.814-2.62.273-.27.545-.361.726-.632.182-.271.364-.813.182-.994-.272.632-.454 1.084-1.18 1.355-.635.18-1.452.09-1.906-.451v-1.988zm-7.08-5.872c.363.452 1.271.633 2.451 2.078.908 1.084.726 2.259 1.089 3.524.182-.09.454-.452.545-.723.181-.361.181-.813.181-1.174-.091-1.085-.363-1.356.454-2.078-.454-.723-1.997-1.175-2.723-1.717-.272.09-.454.271-.908.271-.363 0-.726-.09-1.089-.18zm-.726-2.71c.182.452.363.18.545.452-.182.09-.363.18-.454.361l.181.361c-.272.09-.09-.09-.363.09.273.543.182.453-.272.814.272.542 1.634.632 2.088.542.363 0 .635-.18.907-.452.726-.542.182-.27.182-.813l.272-.09-.181-.271.272-.181-.454-.452c.454-.542 1.18-.451.908-1.355-.182-.542-.726-.994-1.362-.994-.272 0-.544.271-.726.452-.454.361-.454.271-.454.723.273.451-.817.361-1.089.813zm4.629-.994c.091-.18.272-.27.454-.452.363-.361.817-.18 1.271.09.635.272.454.633.454 1.266-.182.27-.454.36-.545.722-.091.362 0 .723.363.904-.182-.452-.545-.994.272-1.355l.091.361c-.272.271-.454.452-.272.904.181-.272-.091-.362.363-.633.272.09.181.271.635.361.272.09.545.09.817.181.545.18.635.633.999.904-.091-.542-.364-.994-.817-1.175-.545-.271-1.18.271-1.453-.361-.272-.452.091-1.084-.272-1.717-.363-.542-.726-.452-1.271-.632.363-.633 1.997-.904 2.723-.723.726.27 1.634.903 2.269 1.355 2.451 1.807 2.723 1.446 5.719 1.536-.182.632-.999 1.175-1.634 1.355-2.269.723-3.721-1.897-4.629-2.258-.272-.09-.999-.181-1.18-.09.181.09.726.18.998.27.273.09.454.362.726.542.454.452.817.813 1.362 1.175 1.997 1.445 3.449.18 3.812.18.182.904-1.543.904-2.088 1.175.182.18 1.543-.09 1.907 0-.182 1.265-2.27.813-2.996.361-1.089-.542-1.997-.993-3.176-.27.453 0 .907-.272 1.633-.181.726.18 1.906.903 2.723.993.363.09 1.452-.09 1.634 0-.998.904-1.906.271-3.086-.09-.998-.27-2.451-.542-3.086.452-.635-.09-1.271-.542-1.543-1.084-.182-.271-.363-.633-.182-.904.545-.632-.272-1.355-.544-.722.635-.181.544.451.272.722-.817.633-.908.18-.998.18v.272c.363.09.544-.09.907-.18.273.36.273.903.636 1.264s.907.452 1.18.723c-.545.994-.636.542-.636 1.988 0 .632.273 1.897-.454 1.987-.181-.452-.181-1.174-.453-1.716-.908-2.35-2.905-2.982-3.177-3.343.544 0 1.361.09 1.634-.362-.636.181-.726.362-1.543.271-.363 0-1.09-.18-1.18-.542.09-.27.181-.18.363-.361l-.182-.452.454-.09c-.091-.18-.272-.271-.091-.452.182-.18.273-.18.363-.18-.09-.181-.453-.09-.635-.543.272-.361.817-.451 1.089-.632 0-.633-.181-.723 0-.994zm-.544.452c.453-.18.09-.542.363-.813.181-.181.544-.362.635-.633-1.725-.361-1.089.362-1.089.723.091.271.091.452.091.723zm-1.453-1.988c-.181-.542 1.18-1.084 2.814.18-.181.453-.363.091-.908.091-.544 0-.544.09-.998.271l-.182-.18c-.181-.181-.09.09-.181-.181l.545-.18c-.364-.272-.817.09-1.09 0zm-2.904 2.53c.09.361.181.18.363.452-.545.361-.09-.09-.363.451-.09.181-.182-.09 0 .633-.272.27-.635.452-.182.813.182.18.726.361.908.542 2.178 1.265 3.268 2.53 3.449 5.06.091 1.716-.363 1.716 2.178 3.523.817.542 2.36 2.078 2.723 2.981-2.723-.18-7.352-.993-9.712.181-1.452.723-1.724 2.35-.726 3.614.908 1.084 2.27 1.536 3.54 1.897 1.271.362 7.171 2.168 8.169 2.71 1.18.543 1.906 1.537 1.906 1.537l.817.451c.272.18.182.18.363.362.182.18.454.18.817.542.817.722 1.906 1.716 2.36.361 1.18.633 5.083 3.885 6.263 4.879.998.813 1.906 1.807 2.904 2.62.363.27 1.18.994 1.362 1.445.09.362.181.814.09 1.265 0 .271-.181.271-.09.633.09.451 0 .18 0 .542.181.09.453 0 .816 0 .273 0 .636.09.817.09 0-.271-.09-.09 0-.361.091-.181.091-.271 0-.452-.181-.452-.272-.361-.181-.994l.544-.27c.182-.091.273-.272.454-.362.454.18.999.632.999 1.084 0 .632-.636 1.084-.636 1.445h.636c.454 0 .181.09.635-.09.272-.18 1.089.18 1.271.18 0-.36-.091-.09 0-.451.09-.271.181-.18 0-.452-.182-.361-.273-.542-.182-.993.636-.272.636-.362.999-.633.544.09.998.542.907 1.175-.09.542-.544.993-.726 1.445l.454.271c.908-1.445 1.815-1.807.091-2.981-.999-.723-1.543-1.898-2.269-2.891-.726-.994-1.362-1.988-2.179-2.982-.726-.813-1.815-1.716-2.541-2.53-.817-.903-1.634-1.806-2.179-2.89-.544-.904-1.543-2.079-2.178-2.892-.544-.632-.726-.723-.998-1.536-.363-.993-.273-1.174-.454-2.168-.182-1.084-.999-2.53-1.815-3.252.181-.452.272-.452.363-1.085-.817-.542-1.543-.451-2.633-1.897-.544-.632-1.452-2.168-1.633-2.981.726 0 1.27.09 2.087.09.817 0 1.18-.09 1.997.09 3.994.814 4.629 0 7.897 0 .635 0 1.089.452 1.815.362.272 0 .635-.09.908-.18.363 0 .726.09.998 0 .272-.543-.817-.543-1.089-.633 1.634-.271.544-.09 1.361-.09.454 0 1.09.18 1.271-.272-.091-.09-1.089-.27-1.271-.361-1.724-.452-3.267.18-4.719 0-1.997-.271-3.631-.994-5.719-.994-2.269 0-1.089 0-2.904-.452-.726-.18-2.632-.27-2.905-.451-.816-.362-1.633-.723-2.541-.904-.998-.18-2.36.362-2.904-.18.363-.543 1.815-.452 2.359-.272 1.09.362 3.177 1.446 3.994-.451.454-1.084-.091-.633.182-.994.363-.542.272-.452.181-1.084.454-.271.635-.633.635-1.175-1.906-.18-3.176.09-5.173-.994-1.18-.722-2.632-2.078-4.085-2.078-.363 0-.816.09-1.18.272-.544.27-.453.09-1.089-.09-2.995-1.085-2.541 0-3.176.541-.182.18-.727.542-.817.723-.363.452.272.542-.545.994-.454.09-.998.18-1.09.542z" fill="#000"/><path fill-rule="evenodd" clip-rule="evenodd" d="M96.302 82.034H132.7c.454 0 .817.362.817.723l-1.543 13.552c0 .361-.363.723-.817.723l-33.31-.18c-.455 0-.727-.362-.818-.724l-1.634-13.371c.091-.361.454-.723.908-.723z" fill="#000"/><path fill-rule="evenodd" clip-rule="evenodd" d="M96.302 81.402h36.578c.363 0 .635.18.908.361.272.271.454.542.454.904v.09l-1.543 13.552c0 .362-.182.723-.454.904-.273.27-.636.361-.999.361l-33.31-.18c-.363 0-.727-.181-.999-.362-.272-.271-.454-.542-.454-.904l-1.633-13.37v-.182c0-.36.181-.722.453-.903.273-.18.545-.361.817-.361.091.09.091.09.182.09zm36.397 1.355H96.212l1.633 13.281c0 .09 0 .09.09.09h.091l33.311.181h.091l.091-.09 1.452-13.552c-.182.09-.182.09-.272.09z" fill="#DCC576"/><path fill-rule="evenodd" clip-rule="evenodd" d="M109.555 91.882h-.998l-4.085-7.408-3.993 7.408h-.636l-.544 2.259c.181-.18.363-.271.454-.452l.453-.452c.182-.18.364-.27.545-.361.182-.09.454-.18.817-.18h5.627c.273 0 .454.09.636.18.181.09.272.27.363.452l.272.542c.091.18.091.361.182.542l.907-2.53zm-4.356 0h-3.268l1.634-3.343 1.634 3.343zm13.433-2.8c0 .632-.091 1.084-.363 1.535-.273.452-.545.813-.999 1.175-.363.361-.817.542-1.361.722-.545.181-.999.272-1.543.272-.545 0-1.089-.09-1.634-.272a4.807 4.807 0 01-1.361-.722c-.364-.362-.727-.723-.999-1.175-.272-.452-.363-.903-.363-1.445s.091-1.084.363-1.536a5.81 5.81 0 01.908-1.175c.363-.361.726-.542 1.18-.722a3.65 3.65 0 011.361-.272c-.181-.632-.272-.903-.181-.903h.363c.181 0 .272 0 .454.09.181 0 .272 0 .453.09.182 0 .273 0 .454.091l-.272.633c.454 0 .908.18 1.271.36.453.182.817.453 1.089.724.363.27.544.722.817 1.084.272.452.363.903.363 1.445zm-2.995.09v-.723c0-.271 0-.542-.091-.813-.091-.271-.091-.542-.273-.813-.09-.271-.272-.362-.453-.542l-.545 1.174-.363-1.174-.545.542c-.09.18-.181.451-.272.632-.091.271-.091.452-.091.723v1.265c0 .18.091.451.091.632 0 .271.091.452.182.723.09.271.181.452.272.632.091.181.181.362.363.452.091.09.272.18.454.18.181 0 .272-.09.454-.18.09-.09.272-.27.363-.452.09-.18.181-.361.272-.632.091-.18.091-.452.182-.633 0-.18.09-.451.09-.632-.09-.09-.09-.271-.09-.361zm14.522 3.523l-2.905-7.498-2.632 4.336-2.45-4.788-2.996 7.95h1.362l.998-3.252 1.997 3.794 2.36-3.614 1.18 3.163h3.086v-.09z" fill="#E3000F"/><path fill-rule="evenodd" clip-rule="evenodd" d="M161.925 107.783l-1.452-.181.817-1.355.635 1.536zm3.903 2.259l-3.176-7.138-4.539 6.415 1.271.09.998-1.445.636 2.078 1.089-1.898.635 1.627 3.086.271zm-7.987-.813l-2.36-4.427 2.45-1.987-1.543-.091-2.45 2.53.272-2.801-2.632-.18-.545 6.324 2.632.18.182-1.987 1.089 2.168 2.905.271zm-7.805-.723l.635-6.415-4.175 2.892.273-3.072-2.633-.271-.544 6.776 4.084-3.072-.272 2.981 2.632.181zm-7.625-.451l.363-6.324-2.723-.091-.091 2.349-1.361-.09.181-2.349-2.632-.181-.363 6.324 2.632.181.182-3.614.635 1.446.726-1.446-.272 3.705 2.723.09zm-9.531-4.698c0 .181 0 .361-.09.542-.091.181-.091.361-.182.452a.707.707 0 01-.363.361c-.091.09-.272.181-.363.181l.181-2.982c.182 0 .364.091.454.181.091.09.182.181.273.361.09.181.09.271.09.452v.452zm2.179.181c0-.271 0-.543-.091-.814a1.4 1.4 0 00-.545-.722 4.863 4.863 0 00-.998-.542c-.363-.091-.908-.181-1.452-.271l-2.723-.181-.363 6.324 2.632.181.091-1.807c.453 0 .817 0 1.18-.09.363-.091.726-.181.998-.362s.545-.452.726-.723c.454-.271.545-.632.545-.993zm-5.899-2.441l-1.089-.09-1.543 2.62-1.362-2.71-3.086-.091 2.814 5.15-.908 1.265h1.18l3.994-6.144zm-9.623.362v5.692l-2.723-.09v-5.511l-2.087 1.084.635-1.898h5.9l.635 1.988-2.36-1.265zm-6.806 3.523v.452c0 .181-.091.271-.181.452a1.25 1.25 0 01-.273.361c-.09.09-.272.181-.363.181l-.09-2.62c.181 0 .272.09.363.18l.272.271c.091.091.091.271.181.362.091.09.091.181.091.361zm2.269-.09c0-.362-.09-.723-.363-.994-.181-.271-.454-.452-.817-.542-.272-.09-.635-.181-.998-.271-.363 0-.726-.09-.998-.09v-2.349l-2.633.09.091 6.324 2.723-.09c.363 0 .726 0 1.089-.091.363-.09.636-.18.999-.361.272-.181.544-.361.726-.632.091-.271.181-.542.181-.994zm-6.626 2.259l-4.175-6.867-3.631 7.138 1.453-.091 1.361-3.343 1.997 3.253 2.995-.09zm-6.535-6.505l-1.089.09-1.361 2.71-1.453-2.62-3.176.181 3.267 4.879-.817 1.355 1.271-.09 3.358-6.505zm-6.716 6.686l-3.086-3.885 2.088-2.349-1.543.09-1.997 2.891-.181-2.801-2.632.271.453 6.325 2.633-.181-.091-2.078 1.452 1.988 2.904-.271zm-8.26-1.356c0 .362 0 .633-.182.904-.181.271-.363.542-.635.723-.272.18-.545.361-.908.542-.363.09-.635.18-.907.271h-.908a11.887 11.887 0 01-.908-.271c-.272-.181-.544-.362-.726-.542-.181-.271-.272-.543-.363-.814.09.091.273.181.363.271.182.091.273.181.454.181.182.091.363.091.454.091h.454c.181 0 .363-.091.544-.181a.71.71 0 00.363-.362.688.688 0 00.182-.451c0-.181.09-.362 0-.542 0-.091-.09-.271-.09-.362-.092-.09-.092-.18-.182-.271l-.273-.271c-.09-.09-.181-.09-.363-.181 0 0 .091-.09.182-.09.09 0 .181-.09.181-.09.091-.091.182-.091.182-.181.09-.09.09-.181.181-.361v-.452c0-.09 0-.181-.09-.361 0-.091-.091-.181-.182-.271-.09-.091-.182-.181-.272-.181-.091 0-.273-.09-.454 0-.182 0-.272.09-.454.181-.181.09-.272.18-.363.271-.09.09-.181.18-.272.361-.091.09-.182.181-.182.271l-.181-1.988 1.27-.18-.09.632c.272-.181.544-.271.726-.361.272-.091.454-.181.726-.181h.635c.182 0 .454.09.636.181.181.09.363.271.453.361.091.181.182.362.182.633 0 .18 0 .451-.09.542-.092.18-.092.271-.182.451l-.273.271c-.09.091-.181.181-.272.181.09 0 .182.09.363.181.182.09.272.18.454.271.181.09.272.271.363.452.363.271.454.542.454.722zm-6.353 2.53l-.545-6.505-3.54 3.614-.272-3.162-2.723.271.635 6.776 3.54-3.795.181 2.982 2.723-.181zm-14.07-3.975a.499.499 0 00-.453.271c-.091.18-.182.271-.273.542-.09.18-.09.361-.09.632v.542c0 .271.09.452.09.633.091.18.182.451.273.632.09.181.181.271.363.452.181.09.272.181.454.09l-.364-3.794zm3.813 1.445c0-.181-.091-.361-.091-.542-.09-.181-.09-.361-.182-.542-.09-.181-.181-.361-.363-.452-.181-.09-.272-.18-.544-.18l.363 3.704c.181 0 .272-.091.453-.181.091-.09.182-.271.273-.452.09-.18.09-.361.181-.632-.09-.271-.09-.452-.09-.723zm2.45-.271c0 .362 0 .723-.09 1.084-.091.271-.182.542-.364.813-.181.271-.363.452-.544.542-.182.181-.454.272-.726.362-.273.09-.454.181-.726.271-.273.09-.454.09-.727.09l.091.633-2.632.271-.09-.633h-.727c-.272 0-.544 0-.817-.09-.272-.09-.544-.09-.726-.271-.272-.09-.454-.271-.635-.452a1.97 1.97 0 01-.454-.723c-.09-.271-.182-.632-.272-.993 0-.452 0-.814.09-1.085.091-.271.182-.542.364-.813l.544-.542c.182-.18.454-.271.726-.361.272-.09.454-.181.726-.181.273-.09.454-.09.726-.09l-.181-.542 2.632-.271.09.722h1.544c.272 0 .544.091.726.181.272.091.454.271.635.452.182.181.363.452.545.723.09.18.181.542.272.903z" fill="#000"/><path fill-rule="evenodd" clip-rule="evenodd" d="M97.571 124.136l-.998 3.162h-.726l-.726-2.259-.727 2.259h-.726l-.998-3.162h.908l.544 2.078.635-2.078h.727l.635 2.078.545-2.078h.907zm5.083 0l-.998 3.162h-.726l-.727-2.259-.726 2.259h-.726l-.998-3.162h.907l.545 2.078.635-2.078h.726l.636 2.078.544-2.078h.908zm4.992 0l-.998 3.162h-.726l-.727-2.259-.726 2.259h-.726l-.998-3.162h.907l.545 2.078.635-2.078h.727l.635 2.078.544-2.078h.908zm1.271 3.072h-.908v-.994h.908v.994zm3.812 0h-.817v-.452c-.272.181-.454.361-.635.452-.182.09-.273.09-.454.09-.363 0-.635-.181-.908-.452a2.254 2.254 0 01-.363-1.174c0-.542.091-.904.363-1.265.273-.271.545-.452.999-.452.181 0 .272 0 .363.091.09 0 .272.09.544.18v-1.355h.817v4.337h.091zm-.908-.723v-1.717c-.181-.09-.363-.09-.544-.09-.545 0-.908.361-.908 1.084 0 .362.091.633.182.813.09.181.272.271.544.271l.726-.361zm3.086.903c-.544 0-.907-.18-1.18-.451-.272-.271-.453-.723-.453-1.265 0-.542.181-.904.453-1.265.273-.271.726-.452 1.18-.452.545 0 .908.181 1.18.452.273.271.454.723.454 1.265 0 .542-.181.903-.454 1.265-.272.271-.635.451-1.18.451zm0-2.8c-.454 0-.726.361-.726 1.084 0 .723.272 1.084.726 1.084.454 0 .726-.361.726-1.084.091-.723-.181-1.084-.726-1.084zm7.171 2.62h-.817v-2.078c0-.181-.091-.271-.182-.362-.09-.09-.181-.09-.363-.09-.181 0-.363.09-.635.271v2.349h-.817v-2.078c0-.181-.091-.271-.181-.361-.091-.091-.182-.091-.364-.091-.181 0-.363.091-.635.271v2.349h-.817v-3.162h.817v.452c.272-.271.454-.361.635-.452.182-.09.273-.09.454-.09.363 0 .726.181.908.632.272-.271.454-.361.635-.451.182-.091.363-.091.454-.091.635 0 .999.362.999 1.175v1.807h-.091zm2.723-3.614c-.182 0-.273-.09-.454-.09-.182 0-.363 0-.454.09-.091.09-.091.181-.091.452v.09h.817v.542h-.726v2.62h-.817v-2.62h-.454v-.542h.454v-.09c0-.723.363-1.085 1.18-1.085.272 0 .454 0 .635.091v.542h-.09zm3.54 3.614h-.999l-.908-1.355-.363.451v.904h-.816v-4.247h.816v2.62l1.18-1.535h.999l-1.089 1.355 1.18 1.807zm1.361 0h-.908v-.994h.908v.994zm3.086-2.259h-.454c-.272 0-.544.09-.817.181v2.168h-.817v-3.162h.817v.542c.273-.271.454-.361.636-.452.181-.09.363-.09.453-.09h.182v.813zm3.449 2.259h-.817v-.452c-.272.181-.454.361-.635.452-.182.09-.363.09-.545.09-.635 0-.998-.361-.998-1.174v-2.078h.817v1.535c0 .452.09.723.181.814.091.09.273.18.454.18.182 0 .363-.09.635-.271v-2.349h.817v3.253h.091zM22.238 33.067c0 .451 0 .813-.091 1.084-.091.27-.182.542-.363.813-.454.542-.999.813-1.816.813-.726 0-1.361-.271-1.724-.813-.182-.271-.363-.542-.454-.813-.09-.271-.09-.633-.09-1.175V31.17c0-.451 0-.722.09-.994.09-.27.272-.541.454-.722.181-.271.454-.452.817-.633.272-.18.635-.18.998-.18s.636.09.908.18.544.271.726.542c.363.452.635 1.085.635 1.807v1.898h-.09zm-3.903-.181c0 .452 0 .723.09.903 0 .181.091.452.273.542.272.452.726.633 1.361.633.272 0 .545-.09.817-.18.272-.091.454-.362.545-.543.09-.18.181-.361.181-.542 0-.18.09-.452.09-.903V31.26c0-.633-.09-1.085-.271-1.446a.929.929 0 00-.545-.452c-.272-.09-.454-.18-.726-.18-.272 0-.545.09-.817.18-.272.181-.454.362-.545.543-.181.27-.181.722-.181 1.264v1.717h-.272zm9.076.18c0 .452 0 .814-.09 1.085-.091.27-.182.542-.364.813-.454.542-.998.813-1.815.813-.726 0-1.361-.271-1.725-.813-.181-.271-.363-.542-.453-.813-.091-.271-.091-.633-.091-1.175V31.17c0-.451 0-.722.09-.994.091-.27.273-.541.454-.722.182-.271.454-.452.817-.633.273-.18.636-.18.999-.18s.635.09.907.18c.273.09.545.271.726.542.364.452.636 1.085.636 1.807v1.898h-.09zm-3.903-.18c0 .452 0 .723.09.903 0 .181.092.452.273.542.273.452.726.633 1.362.633.272 0 .544-.09.817-.18.272-.091.453-.362.544-.543.09-.18.182-.361.182-.542 0-.18.09-.452.09-.903V31.26c0-.633-.09-1.085-.272-1.446a.929.929 0 00-.544-.452c-.273-.09-.454-.18-.727-.18-.272 0-.544.09-.816.18-.273.181-.454.362-.545.543-.181.27-.181.722-.181 1.264v1.717h-.273zm9.077.18c0 .452 0 .814-.091 1.085-.09.27-.182.542-.363.813-.454.542-.999.813-1.815.813-.727 0-1.362-.271-1.725-.813-.181-.271-.363-.542-.454-.813-.09-.271-.09-.633-.09-1.175V31.17c0-.451 0-.722.09-.994.091-.27.273-.541.454-.722.181-.271.454-.452.817-.633.272-.18.635-.18.998-.18s.636.09.908.18.545.271.726.542c.363.452.635 1.085.635 1.807v1.898h-.09zm-3.903-.18c0 .452 0 .723.09.903 0 .181.091.452.273.542.272.452.726.633 1.361.633.273 0 .545-.09.817-.18.273-.091.454-.362.545-.543.09-.18.181-.361.181-.542 0-.18.091-.452.091-.903V31.26c0-.633-.09-1.085-.272-1.446a.929.929 0 00-.545-.452c-.272-.09-.454-.18-.726-.18-.272 0-.544.09-.817.18-.272.181-.454.362-.544.543-.182.27-.182.722-.182 1.264v1.717h-.272zm9.076.18c0 .452 0 .814-.09 1.085-.091.27-.182.542-.364.813-.453.542-.998.813-1.815.813-.726 0-1.361-.271-1.724-.813-.182-.271-.363-.542-.454-.813-.091-.271-.091-.633-.091-1.175V31.17c0-.451 0-.722.09-.994.092-.27.273-.541.455-.722.181-.271.453-.452.816-.633.273-.18.636-.18.999-.18s.635.09.908.18c.272.09.544.271.726.542.363.452.635 1.085.635 1.807v1.898h-.09zm-3.993-.18c0 .452 0 .723.09.903 0 .181.091.452.273.542.272.452.726.633 1.361.633.272 0 .545-.09.817-.18.272-.091.454-.362.545-.543.09-.18.181-.361.181-.542 0-.18.09-.452.09-.903V31.26c0-.633-.09-1.085-.271-1.446a.928.928 0 00-.545-.452c-.272-.09-.454-.18-.726-.18-.272 0-.545.09-.817.18-.272.181-.454.362-.545.543-.181.27-.181.722-.181 1.264v1.717h-.272zm6.807 2.71v-6.234h-1.18v-.632h1.815v6.866h-.635z" fill="#fff"/></svg>