<svg width="229" height="146" fill="none" xmlns="http://www.w3.org/2000/svg"><g clip-path="url(#clip0_1752_11838)"><path d="M229 0H0v146h229V0z" fill="#000005"/><g filter="url(#filter0_d_1752_11838)"><path fill-rule="evenodd" clip-rule="evenodd" d="M63.354 87.772l30.77-1.716 3.902 2.078h33.493l4.084-1.536 32.04 1.807s1.452.18 1.361 2.8c0 2.62-1.815 13.281-1.815 13.281s-.817.994-2.269 1.175c-1.452.181-37.849-2.982-44.929-2.801-7.079.181-44.928 1.988-48.922 2.44-3.994.451-8.623.451-8.986-.181-.453-.542-.907-2.44-.907-2.44l-1.725-13.19s1.09-2.259 3.903-1.717z" fill="#E3000F"/><path fill-rule="evenodd" clip-rule="evenodd" d="M61.721 86.959c5.809-.181 11.618-.542 17.427-.813 4.901-.271 9.893-.543 14.885-.723l-.363.632.999.633c-5.083.18-10.257.451-15.34.722-5.809.272-11.617.633-17.517.814h-.091c-.363 0-.726.18-.998.451-.182.181-.364.452-.364.813v.09l1.634 14.005c.091.451.273.903.545 1.174.181.181.545.361.817.361a499.314 499.314 0 0015.52-1.084c11.71-.813 23.872-1.716 35.671-1.716 11.074 0 21.784.813 32.676 1.626 5.899.452 11.89.903 18.062 1.174.363 0 .635-.09.817-.361.272-.271.454-.723.544-1.174l2.088-13.281v-.09c0-.272-.091-.543-.363-.724-.272-.27-.545-.36-.908-.451h-.181c-5.9-.271-11.8-.633-17.7-1.084-4.901-.272-9.893-.633-14.794-.904l1.724-.903-.09-.362c4.447.271 8.804.542 13.251.813 5.9.362 11.89.723 17.699 1.085h.273c.635.09 1.27.36 1.633.813a2.46 2.46 0 01.727 1.716v.271l-2.088 13.281c-.091.723-.454 1.446-.908 1.897-.453.452-1.089.723-1.815.723-6.263-.361-12.162-.723-18.062-1.174-10.983-.813-21.602-1.626-32.585-1.626-11.708 0-23.78.903-35.58 1.716-5.264.361-10.438.723-15.52 1.084-.727 0-1.362-.271-1.816-.723-.454-.451-.817-1.174-.907-1.897l-1.725-14.004v-.18c0-.723.272-1.355.726-1.807.454-.452 1.09-.723 1.725-.813h.272z" fill="#DCC576"/><path fill-rule="evenodd" clip-rule="evenodd" d="M119.356 26.156c1.089.18 2.088.361 3.086.632.999.271 1.997.633 2.996.994l2.359-2.89.363-.453.454.271 5.446 3.072.454.271-.182.452-.998 3.614c1.089.813 1.997 1.626 2.995 2.62a28.073 28.073 0 012.633 2.981l3.721-1.174.544-.18.273.45 3.086 5.24.272.453-.363.361-2.904 2.8a21.773 21.773 0 011.089 3.434c.272 1.175.544 2.349.726 3.523l3.993.814.545.09v.542l.091 6.234v.542l-.545.09-4.175.633c-.181 1.174-.454 2.258-.726 3.433-.272 1.084-.726 2.259-1.089 3.343l2.995 2.8.363.362-.272.452-3.086 5.33-.273.452-.544-.18-3.994-1.175-.998.903a17.088 17.088 0 01-1.816 1.807c-.544.452-.998.903-1.543 1.355l1.997 4.879.182.542-.454.271-3.812 2.259-.182.09H97.3l-.181-.09-4.175-2.169-.454-.27.181-.543 1.543-5.15c-.726-.632-1.452-1.264-2.178-1.987a20.395 20.395 0 01-1.906-2.168l-3.812 1.445-.545.18-.272-.45-3.268-5.512-.272-.542.454-.362 3.086-2.349c-.454-1.174-.908-2.349-1.27-3.613a28.335 28.335 0 01-.818-3.795l-3.993-.632-.182.18v-.542l-.181-6.143v-.542l.544-.09 4.085-.814c.181-1.174.363-2.349.726-3.523A21.615 21.615 0 0185.5 45.58l-2.904-2.71-.364-.361.273-.452 3.267-5.33.273-.452.544.18 3.45 1.265c.816-.993 1.633-1.897 2.45-2.8.907-.904 1.815-1.717 2.814-2.44l-1.271-3.523-.182-.542.454-.271 5.446-3.072.454-.271.363.452 2.36 2.8c1.18-.451 2.36-.813 3.54-1.174 1.18-.362 2.45-.542 3.721-.723l.817-3.524.091-.542h.544l6.263-.09h.545l.09.542.817 3.614z" fill="#DCC576"/><path fill-rule="evenodd" clip-rule="evenodd" d="M122.17 28.053c-1.089-.271-2.269-.542-3.449-.723l-.454-.09-.091-.452-.726-3.704-5.173.09-.817 3.524-.091.452-.454.09c-1.361.18-2.723.452-3.994.723-1.361.361-2.632.813-3.812 1.264l-.454.181-.272-.361-2.36-2.71-4.447 2.53 1.18 3.432.181.452-.363.271c-1.089.813-2.087 1.717-3.086 2.62-.998.994-1.815 1.988-2.632 3.072l-.272.361-.454-.18-3.45-1.175-2.631 4.427 2.813 2.62.363.271-.181.452c-.454 1.174-.908 2.44-1.18 3.704-.363 1.265-.545 2.53-.726 3.795l-.09.451-.455.09-3.993.814.181 5.06 3.903.632.454.09.09.452c.182 1.355.454 2.71.818 4.065.363 1.356.816 2.62 1.452 3.885l.181.452-.454.361-3.086 2.26 2.633 4.516 3.721-1.445.454-.18.272.36c.636.814 1.362 1.717 2.178 2.44a14.01 14.01 0 002.451 2.168l.363.271-.09.452-1.544 5.06 3.54 1.806h34.037l3.177-1.897-1.997-4.788-.181-.452.363-.271c.635-.542 1.27-1.084 1.815-1.626.544-.542 1.18-1.175 1.724-1.807l1.271-1.175.272-.27.363.09 3.813 1.174 2.541-4.427-2.995-2.8-.363-.272.181-.451c.454-1.175.908-2.35 1.271-3.614a24.48 24.48 0 00.817-3.704l.091-.452.453-.09 4.085-.633-.091-5.15-3.994-.813-.453-.09-.091-.452c-.182-1.265-.363-2.53-.726-3.794-.363-1.265-.726-2.53-1.18-3.705l-.182-.451.363-.271 2.905-2.71-2.542-4.338-3.63 1.175-.454.18-.272-.36c-.817-1.085-1.816-2.169-2.814-3.163a29.602 29.602 0 00-3.177-2.71l-.363-.271.091-.452.998-3.524-4.538-2.53-2.36 2.801-.272.362-.454-.18c-1.271-.453-2.36-.814-3.449-1.085zm-7.715 5.511c12.889 0 23.327 10.39 23.327 23.22 0 12.828-10.438 23.218-23.327 23.218-12.889 0-23.327-10.39-23.327-23.219s10.438-23.219 23.327-23.219z" fill="#030100"/><path d="M137.218 62.092c2.941-12.486-4.843-24.98-17.386-27.907-12.542-2.928-25.095 4.82-28.036 17.305-2.941 12.485 4.843 24.979 17.385 27.907 12.543 2.927 25.096-4.82 28.037-17.306z" fill="#E3000F"/><path fill-rule="evenodd" clip-rule="evenodd" d="M128.252 72.594h1.18l1.09-.27 1.361.36 1.089.09.999-1.174v-.903l-1.09-.813-3.902-.18-1.543 1.083.453 1.536.363.271zm-20.694-28.821l-.091 2.168c.454.542 1.271.633 1.906.452.726-.27.817-.723 1.18-1.355.181.18-.091.723-.182.994-.181.361-.454.361-.726.632.454.452 1.452.362 2.814 2.62.272.452.363.904.817.994.998.09 2.45.18 3.358-.09.726-.18 1.815-.994 1.906-1.717-.181-.18-.726-.361-1.089-.542-.272-.18-.635-.542-.908-.723-1.906-2.078-1.543-4.698-3.903-4.246-.544.09-.726.361-1.089.542 0-.361.636-.813.999-.903.544-.09 1.361 0 1.815.09v-1.807c-.182-.361-1.815-.903-2.269-.994-1.271-.18-2.179.542-2.632.633l.635-.542c-.635.09-1.089-.271-1.452 0-.817.722-.091 1.716-.363 2.981 0 .542-.182.633-.726.813z" fill="#DCC576"/><path fill-rule="evenodd" clip-rule="evenodd" d="M116.543 56.242c.181.542.545 1.355.817 1.897.363.723.726.903 1.271 1.355.544.452.635 1.084 1.18 1.536 2.269 1.988 4.719 3.885 7.079 5.963.636.542 2.179 2.078 2.814 2.44.454.27 1.724.451 2.087.09.454-.452-.272-1.265-.544-1.717-.726-1.084-1.362-2.078-2.269-3.072-.817-.903-1.816-1.626-2.723-2.439v1.174c-.272-.09-.908-1.806-1.089-2.168a24.065 24.065 0 00-1.18-2.078c-.363-.722-2.269-3.072-2.814-3.614l-4.629.633zm-10.528-3.524c1.906-.18 2.632-.452 4.266.723.726.451 2.45 1.987 3.177 2.168v-1.807l.907-.452c-.181-.18-.544-.18-.817-.27-.272-.091-.363-.453-.453-.724-.182-.542-.454-1.084-.636-1.626-1.634-.27-3.267-.361-4.901-.632-1.452-.18-3.631-.542-4.992.09-1.543.723-1.634 2.35-.363 3.433 1.815 1.627 5.627 2.44 8.078 3.072.726.18 1.452.361 2.178.633.363.09.726.36.999-.09.181-.272.363-.814.181-1.085 0-.09-1.452-.813-1.724-.994-.999-.813-2.088-1.807-3.449-2.078-.454-.18-2.27-.27-2.451-.361zm.544-15.63c.091-.09.182-.181.182-.271.09-.181-.091 0 0-.271h.181c0 .361-.091.542-.363.542zm-2.087-2.259l.181.361-.091-.09-.181.18.454.181c-.273 0-.545-.09-.727-.36l.364-.272zm.363-.09c.181.18.181.27.272.451 0-.18-.091-.361-.182-.542-.363-.451-.453-.18-.453-.18.09.09.181.09.363.27zm.544-1.446c.454.18.908.09 1.271.633.363.632 0 1.174.272 1.716.272.633.908.09 1.452.361.454.272.727.723.817 1.175-.363-.18-.454-.632-.998-.903-.272-.09-.545-.09-.817-.181-.454-.09-.363-.18-.635-.361-.363.27-.182.36-.363.632-.273-.452 0-.633.272-.904l-.091-.36c-.726.27-.454.903-.272 1.354-.363-.09-.454-.542-.363-.903.091-.362.363-.452.544-.723 0-.632.091-.994-.453-1.265-.454-.18-.908-.452-1.271-.09a1.09 1.09 0 00-.454.452c-.091.27 0 .451-.272.632-.363.271-.908.361-1.089.632.181.452.453.272.635.543-.091.09-.182 0-.363.18-.182.18 0 .18.091.452l-.454.09.181.452c-.181.18-.272.18-.363.361.091.362.817.452 1.18.542.817.09.908-.09 1.543-.27-.272.541-1.18.36-1.634.36.363.453 2.27.995 3.177 3.344.272.632.272 1.264.454 1.716.726-.18.454-1.445.454-1.987 0-1.446.091-.994.635-1.988-.272-.271-.817-.361-1.18-.723-.363-.361-.454-.903-.635-1.265-.363.09-.545.271-.908.181v-.271c.091 0 .182.452.999-.18.363-.272.363-.904-.273-.723.182-.542.999.09.545.722-.182.271 0 .633.181.904.273.542.999.994 1.544 1.084.635-.994 2.178-.723 3.086-.452 1.179.362 2.087.994 3.086.09-.182-.09-1.18.09-1.634 0-.817-.18-1.997-.903-2.723-.993-.636-.181-1.18.18-1.634.18 1.18-.813 2.088-.361 3.177.271.817.452 2.814.904 2.995-.36-.363 0-1.724.18-1.906 0 .545-.272 2.269-.272 2.088-1.175-.363.09-1.906 1.355-3.813-.181-.453-.361-.907-.813-1.361-1.175-.182-.18-.454-.451-.726-.542-.272-.09-.817-.18-.999-.27.182-.091.999 0 1.18.09.908.451 2.36 2.981 4.629 2.258.545-.18 1.362-.722 1.634-1.355-2.995 0-3.267.271-5.718-1.536-.635-.452-1.543-1.084-2.269-1.355-.454.18-2.088.452-2.451 1.084z" fill="#DCC576"/><path fill-rule="evenodd" clip-rule="evenodd" d="M113.094 50.82c.091.18.635 1.536.726 1.626.181.271 1.361.452 1.724.633-.181.27-1.089.542-1.452.722-.181.362-.091 1.265-.091 1.717.636.361.727-.18 1.18-.271.636-.09.726.271 1.09.542 1.27.09 3.449-.813 3.902-2.168.363-1.175-.544-3.704-1.724-4.156-1.452 1.897-3.358 1.355-5.355 1.355zm-.636-.632c-.453-1.355-1.543-2.35-2.722-3.072-.454-.271-.364-.271-.908-.271-.635 0-1.18-.361-1.634-.723 0-2.168.091-4.969-1.815-6.324-1.089.361.272 2.258-.817 3.885-.182.27-.545.452-.454.813.454 1.445 2.541 1.716 4.448 4.427.726.994.272.903 1.543.994.726 0 1.543.18 2.359.27zm2.724 9.396c.272.361.453.542.726.813.363.452-.091.361.635.813 1.271.994 4.266 3.072 5.083 3.885.998.994 2.178 1.897 3.177 2.891.817.813 2.723 2.71 3.63.994-.272-.452-3.721-3.252-4.538-3.975-.726-.633-1.543-1.355-2.269-1.897-.817-.633-1.725-1.175-2.451-1.717-.363.18-.363.542-.998.18-.908-.451-1.271-.993-1.634-1.174-.544-.27-.454.09-.726-.632l-.635-.181zm-5.174-1.806l.544-.723c-.907-.452-4.992-1.175-7.17-2.259-2.542-1.355-3.812-3.433-.636-5.06 0-.09-3.902-.45-4.72 1.356-.362.723-.09 1.807.455 2.349.453.542 1.36.903 1.996 1.174 1.634.543 3.177.994 4.811 1.536 1.361.542 3.358 1.356 4.72 1.627zm4.809-15.269c.999.813 3.359.361 4.629.361-.181.181-.363.09-.544.271.907.09 1.815.362 2.813.362 1.725 0 4.72-.542 5.719-.18 1.089.45.817.36 1.906.18.181 0 .544.09.635 0-.272-.18-1.271-.18-1.634-.18.273-.272 1.634-.724 1.997-.633.272 0 .545.18.726.09-.817-.723-3.086 0-4.175 0-1.361 0-4.357-1.265-6.081-1.175-.454 0-1.815.181-2.269.09-1.453-.45-2.179-1.083-3.812-.903l.09 1.717zm-13.522-7.86c.091.09.363.451.363.632-.363 0-.636 0-.726-.361l.363-.271zm0-.452c.091.361.181.18.363.452.181.18.091.361.272.451 0-.451-.091-.813-.635-.903zm-1.543.994c.181.451.363.18.544.451-.181.09-.363.181-.454.362l.182.361c-.272.09-.09-.09-.363.09.272.543.181.452-.272.814.272.542 1.633.632 2.087.542.363 0 .636-.18.908-.452.726-.542.181-.271.181-.813l.273-.09-.182-.271.273-.181-.454-.452c.454-.542 1.18-.452.907-1.355-.181-.542-.726-.994-1.361-.994-.272 0-.545.271-.726.452-.454.361-.454.27-.454.723.272.451-.817.361-1.09.813z" fill="#DCC576"/><path fill-rule="evenodd" clip-rule="evenodd" d="M100.479 37.9c.363.453 1.27.633 2.45 2.079.908 1.084.726 2.258 1.089 3.523.182-.09.454-.451.545-.722.181-.362.181-.813.181-1.175-.09-1.084-.363-1.355.454-2.078-.454-.723-1.997-1.174-2.723-1.717-.272.09-.453.272-.907.272-.363 0-.726-.09-1.089-.181zm14.248 19.426c.998.813.907.09 1.27.722.182.362.363.09.545.452.272.452.272.09.544.452.091.542-.363.542-.453 1.084.272.271 1.815 1.717 2.178 1.175.454-.723-.908-1.717-1.361-2.169-.636-.632-.817-1.536-1.271-2.349-.272-.361-.545-.903-1.089-.722-.363.09-.273.36-.273.632 0 .27-.09.361-.09.723zm-1.18 2.981c.363.361 1.543 1.445 2.087 1.264.636-.813-.998-1.897-1.452-2.439-.544-.542-.181-.723-.908-1.084-.363-.18-1.179-.542-1.543-.542-.09.361.545.542.817.542.273 0 .273.09.363.271.182.271.182.09.454.271.273.18 0 .271.363.361.182.09.363.09.363.362.091.361-.453.723-.544.994zm16.701 9.486c.182.361.363.723.454.994.091.361 0 .994.817.632v-.903c.454-.271.726-.18.998-.633l-.181-.451c-.273.09-.363.451-.908.542-.454.09-.817-.09-1.18-.181zm-27.866-37.132c.273.09.727-.361 1.09-.09l-.454.09c.091.271 0 .09.181.18l.182.181c.454-.18.454-.27.998-.27.545 0 .726.36.908-.09-1.815-1.085-3.086-.543-2.905 0zm25.326 37.855c.453-.18.817-.18 1.089-.723l-.272-.451c-.636.632-.636.542-1.453.451l.091 1.536c.272.09.363.181.726 0l-.181-.813z" fill="#DCC576"/><path fill-rule="evenodd" clip-rule="evenodd" d="M113.457 57.687l1.18.813c.272-.09.363-.27.363-.542l-.726-.451c0-.633.181-.452.091-1.265l-.545-.09c.182 1.084.091.722-.363 1.535zm-3.176.18c.182.181.454.271.636.452.181.18.363.452.635.452.272-.09.363-.271.272-.542l-.726-.452.091-.452-.454-.18-.454.722zm-6.445-23.219c.454-.18.091-.542.363-.813.182-.18.545-.361.635-.632-1.724-.361-1.089.361-1.089.723.091.27.091.451.091.722zm15.611 20.87l1.453-.361-.454-.994c-.182.18-.273.452-.454.723-.182.18-.454.361-.545.632zm11.617 16.353c-.181 0-.454-.18-.545.09-.09.362.908.362 1.09.272v-.271c-.091-.18-.273-.09-.545-.09zm-4.084.271c.182.09.908.09 1.089 0 .182-.451-.817-.361-1.089-.361-.091.18-.091.18 0 .361zm-11.254-14.094c-.273-.09-.363.09-.545.271-.091.181-.363.362-.272.543.272.27.363-.09.544-.272.182-.18.364-.27.273-.542zm-3.811 1.266c.272.09.272 0 .454-.272.09-.18.363-.36.272-.542-.182-.27-.363.09-.454.181-.181.18-.363.271-.272.633zm4.176.541c.272.181.363 0 .453-.27.091-.181.454-.362.273-.543-.182-.27-.363.09-.454.181-.091.271-.363.271-.272.633zm-.002-1.355c-.726.632-.545 1.084-.181.813 0 0 .363-.452.363-.542.181-.18.09-.452-.182-.271zm-3.085 1.626c.272.18.363 0 .454-.18.181-.271.363-.362.272-.633-.272-.09-.272.09-.545.271-.09.271-.181.271-.181.542zm-.001-1.265l-.454.452c-.273.271-.091.542.181.361.091 0 .363-.451.363-.451.273-.271.182-.542-.09-.362z" fill="#DCC576"/><path fill-rule="evenodd" clip-rule="evenodd" d="M101.203 35.1c.182.091.091.091.363.091l-.091-.271-.272.18z" fill="#fff"/><path fill-rule="evenodd" clip-rule="evenodd" d="M131.7 71.961v.272c-.272.09-1.18.18-1.089-.272 0-.27.273-.18.545-.09.181 0 .363-.09.544.09zm-25.141-34.873c.272 0 .453-.181.363-.452h-.182c-.091.271.091.09 0 .271l-.181.18zm-5.083-2.169l.09.271c-.181 0-.181 0-.363-.09l.273-.18zm-.545 0c.091.362.363.362.726.362 0-.18-.272-.542-.363-.633l-.363.271zm1.089.181c0-.452-.181-.813-.635-.903.091.361.181.18.363.451.091.181.091.362.272.452zm2.088 0c.091.271.454.361.726.361l-.454-.18.182-.18.09.09-.181-.362-.363.271zm.363-.723s.091-.27.454.181c.091.18.181.361.181.542-.09-.18-.181-.271-.272-.452-.182-.09-.272-.09-.363-.27zm22.51 37.404c.272-.09 1.18-.09 1.089.361-.182.09-.817.09-1.089 0-.091-.18-.091-.18 0-.361zm.726-1.265l.091.813c-.364.18-.364.18-.727 0l-.09-1.536c.907.09.817.18 1.452-.452l.272.452c-.181.542-.544.542-.998.723zm2.541-.723c.182.361.363.723.454.994.091.361 0 .994.817.632v-.903c.454-.271.726-.18.998-.633l-.181-.451c-.272.09-.363.451-.908.542-.454.09-.817-.09-1.18-.18zm-15.067-10.209c.273.361.454.542.726.813.363.452-.09.361.636.813 1.27.994 4.266 3.072 5.083 3.885.998.994 2.178 1.897 3.176 2.891.817.813 2.723 2.71 3.631.994-.272-.452-3.721-3.252-4.538-3.975-.726-.633-1.543-1.355-2.269-1.897-.817-.633-1.725-1.175-2.451-1.717-.363.18-.363.542-.999.18-.907-.451-1.27-.993-1.633-1.174-.545-.271-.454.09-.726-.632l-.636-.181zm-2.178.542c-.091-.271.091-.361.272-.542.182-.271.182-.361.545-.271.091.271-.091.361-.273.632-.181.181-.272.362-.544.181zm3.086-.271c-.091-.271.091-.361.272-.632.091-.09.363-.452.454-.181.091.18-.182.452-.272.542-.091.18-.091.361-.454.271zm-3.086-.994l-.454.452c-.272.271-.091.542.182.361.09 0 .363-.451.363-.451.272-.271.181-.542-.091-.362zm3.086-.361c.272-.18.363.09.181.27l-.363.543c-.363.271-.635-.18.182-.813zm-4.175.813c-.091-.271.09-.361.272-.633.091-.09.363-.451.454-.18.091.18-.182.452-.272.542-.182.18-.182.361-.454.27zm3.812-1.265c-.272-.09-.363.09-.545.271-.091.18-.363.361-.272.542.272.271.363-.09.545-.27.181-.181.363-.272.272-.543zm-.091 3.524c-.545.18-1.724-.904-2.088-1.265.091-.271.545-.542.545-.904-.091-.27-.181-.27-.363-.361-.272-.18-.091-.18-.363-.361s-.272 0-.454-.271c-.181-.181-.091-.272-.363-.272-.272-.09-.908-.18-.817-.542.363 0 1.18.362 1.543.542.726.362.363.543.908 1.085.454.451 2.087 1.535 1.452 2.349zm-4.72-4.337l-.544.723c.181.18.454.27.635.452.182.18.363.451.635.451.273-.09.363-.27.273-.542l-.726-.452.09-.451-.363-.181zm5.628-.994c.181.542.544 1.355.817 1.897.363.723.726.904 1.27 1.356.545.451.636 1.084 1.18 1.535 2.269 1.988 4.72 3.885 7.08 5.963.635.542 2.178 2.078 2.814 2.44.453.27 1.724.451 2.087.09.454-.452-.272-1.265-.544-1.717-.726-1.084-1.362-2.078-2.269-3.071-.817-.904-1.816-1.626-2.723-2.44v1.175c-.273-.09-.908-1.807-1.09-2.168a24.065 24.065 0 00-1.18-2.078c-.363-.723-2.269-3.072-2.813-3.614l-4.629.632zm-1.906 2.259l-1.18-.813c.454-.723.635-.452.454-1.536l.544.09c.091.813 0 .633-.091 1.265l.726.452c-.09.27-.181.361-.453.542zm1.996 1.445c.182-.451.545-.451.454-1.084-.272-.361-.272 0-.544-.451-.182-.362-.363-.09-.545-.452-.454-.633-.363.09-1.271-.723 0-.361.091-.452.091-.813 0-.271-.091-.542.272-.633.545-.18.817.362 1.09.723.453.813.635 1.717 1.27 2.35.454.45 1.816 1.445 1.362 2.167-.363.633-1.906-.813-2.179-1.084zm2.814-4.427c.091-.18.454-.451.545-.632.181-.18.272-.452.454-.723l.453.994-1.452.361zm-13.433-2.8c1.906-.181 2.632-.452 4.266.722.726.452 2.451 1.988 3.177 2.169v-1.807l.907-.452c-.181-.18-.544-.18-.817-.271-.272-.09-.363-.452-.453-.723-.182-.542-.454-1.084-.636-1.626-1.633-.271-3.267-.361-4.901-.632-1.452-.181-3.631-.542-4.992.09-1.543.723-1.634 2.349-.363 3.433 1.815 1.626 5.627 2.44 8.078 3.072.726.18 1.452.361 2.178.632.363.09.726.362.999-.09.181-.271.363-.813.181-1.084 0-.09-1.452-.813-1.724-.994-.999-.813-2.088-1.807-3.449-2.078-.454-.18-2.27-.271-2.451-.361zm7.08-1.898c1.996 0 3.903.542 5.355-1.264 1.18.451 2.087 2.98 1.724 4.155-.363 1.356-2.541 2.26-3.903 2.169-.363-.271-.453-.633-1.089-.542-.544.09-.544.632-1.18.27 0-.451-.09-1.354.091-1.716.272-.18 1.271-.542 1.452-.723-.363-.18-1.543-.451-1.724-.632-.091-.18-.636-1.536-.726-1.717zm-3.086 6.957c-1.362-.271-3.359-1.175-4.72-1.626-1.634-.542-3.177-.994-4.811-1.536-.726-.18-1.543-.633-1.996-1.175-.545-.632-.727-1.626-.454-2.349.817-1.806 4.719-1.445 4.719-1.355-3.267 1.626-1.906 3.704.636 5.06 2.178 1.174 6.172 1.806 7.17 2.258l-.544.723zm10.891-16.353c1.725-.09 4.629 1.175 6.082 1.175.998 0 3.358-.723 4.175 0-.182.09-.454-.09-.726-.09-.363-.09-1.725.36-1.997.632.363 0 1.452.09 1.634.18-.182.09-.454 0-.636 0-1.089.181-.726.272-1.906-.18-1.089-.452-4.084.18-5.718.18-.908 0-1.815-.27-2.814-.36.182-.181.363 0 .545-.272-1.271 0-3.631.452-4.629-.361V40.52c1.724-.18 2.36.452 3.812.903.363.271 1.725.09 2.178 0zm-12.344 7.409c-1.906-2.71-3.993-2.982-4.447-4.427-.091-.362.181-.542.454-.813 1.18-1.627-.273-3.524.817-3.885 1.906 1.355 1.815 4.156 1.815 6.324.454.361.998.723 1.634.723.544 0 .454 0 .907.27 1.18.724 2.269 1.717 2.723 3.073-.726-.09-1.543-.181-2.36-.271-1.27-.09-.817 0-1.543-.994zm-.998-5.06c.545-.27.635-.361.817-.994.181-1.264-.454-2.349.363-2.98.363-.272.817.09 1.452 0l-.635.541c.454-.09 1.361-.813 2.632-.632.454.09 2.088.632 2.269.994v1.806c-.544-.09-1.361-.18-1.815-.09-.363.09-.999.542-.999.904.363-.181.545-.452 1.09-.543 2.359-.451 1.996 2.169 3.902 4.247.273.27.636.542.908.723.363.18.817.361 1.089.542-.181.813-1.18 1.536-1.906 1.716-.998.271-2.36.18-3.358.09-.545-.09-.545-.451-.817-.993-1.361-2.259-2.36-2.169-2.814-2.62.273-.271.545-.362.726-.633.182-.27.364-.813.182-.993-.272.632-.454 1.084-1.18 1.355-.635.18-1.452.09-1.906-.452v-1.988zm-7.08-5.872c.363.451 1.271.632 2.451 2.078.908 1.084.726 2.258 1.089 3.523.182-.09.454-.451.545-.723.181-.36.181-.813.181-1.174-.091-1.084-.363-1.355.454-2.078-.454-.723-1.997-1.175-2.723-1.717-.272.09-.454.271-.908.271-.363 0-.726-.09-1.089-.18zm-.726-2.71c.182.451.363.18.545.451-.182.09-.363.18-.454.361l.181.362c-.272.09-.09-.09-.363.09.273.542.182.452-.272.813.272.542 1.634.633 2.088.542.363 0 .635-.18.907-.451.726-.542.182-.271.182-.813l.272-.09-.181-.272.272-.18-.454-.452c.454-.542 1.18-.452.908-1.355-.182-.543-.726-.994-1.362-.994-.272 0-.544.27-.726.451-.454.362-.454.272-.454.723.273.452-.817.362-1.089.813zm4.629-.994c.091-.181.272-.271.454-.452.363-.361.817-.18 1.271.09.635.271.454.633.454 1.265-.182.271-.454.361-.545.723-.091.361 0 .723.363.903-.182-.451-.545-.993.272-1.355l.091.361c-.272.272-.454.452-.272.904.181-.271-.091-.361.363-.633.272.09.181.272.635.362.272.09.545.09.817.18.545.181.635.633.999.904-.091-.542-.364-.994-.817-1.174-.545-.271-1.18.27-1.453-.362-.272-.452.091-1.084-.272-1.716-.363-.543-.726-.452-1.271-.633.363-.632 1.997-.903 2.723-.723.726.271 1.634.904 2.269 1.356 2.451 1.806 2.723 1.445 5.719 1.535-.182.633-.999 1.175-1.634 1.356-2.269.722-3.721-1.898-4.629-2.259-.272-.09-.999-.18-1.18-.09.181.09.726.18.998.27.273.091.454.362.726.543.454.452.817.813 1.362 1.174 1.997 1.446 3.449.181 3.812.181.182.904-1.543.904-2.088 1.175.182.18 1.543-.09 1.907 0-.182 1.264-2.27.813-2.996.36-1.089-.541-1.997-.993-3.176-.27.453 0 .907-.271 1.633-.18.726.18 1.906.903 2.723.993.363.09 1.452-.09 1.634 0-.998.903-1.906.271-3.086-.09-.998-.271-2.451-.543-3.086.451-.635-.09-1.271-.542-1.543-1.084-.182-.27-.363-.632-.182-.903.545-.633-.272-1.355-.544-.723.635-.18.544.452.272.723-.817.632-.908.18-.998.18v.271c.363.09.544-.09.907-.18.273.361.273.903.636 1.265.363.361.907.451 1.18.722-.545.994-.636.543-.636 1.988 0 .632.273 1.897-.454 1.988-.181-.452-.181-1.175-.453-1.717-.908-2.349-2.905-2.981-3.177-3.343.544 0 1.361.09 1.634-.361-.636.18-.726.361-1.543.27-.363 0-1.09-.18-1.18-.541.09-.271.181-.18.363-.362l-.182-.451.454-.09c-.091-.181-.272-.272-.091-.452.182-.181.273-.181.363-.181-.09-.18-.453-.09-.635-.542.272-.362.817-.452 1.089-.633 0-.632-.181-.722 0-.993zm-.544.451c.453-.18.09-.542.363-.813.181-.18.544-.361.635-.632-1.725-.362-1.089.361-1.089.723.091.27.091.451.091.722zm-1.453-1.987c-.181-.542 1.18-1.085 2.814.18-.181.452-.363.09-.908.09-.544 0-.544.091-.998.272l-.182-.18c-.181-.182-.09.09-.181-.182l.545-.18c-.364-.271-.817.09-1.09 0zm-2.904 2.53c.09.36.181.18.363.451-.545.361-.09-.09-.363.452-.09.18-.182-.09 0 .632-.272.271-.635.452-.182.813.182.181.726.362.908.542 2.178 1.265 3.268 2.53 3.449 5.06.091 1.717-.363 1.717 2.178 3.523.817.542 2.36 2.078 2.723 2.982-2.723-.18-7.352-.994-9.712.18-1.452.723-1.724 2.35-.726 3.614.908 1.085 2.27 1.536 3.54 1.898 1.271.361 7.171 2.168 8.169 2.71 1.18.542 1.906 1.536 1.906 1.536l.817.452c.272.18.182.18.363.361.182.18.454.18.817.542.817.723 1.906 1.717 2.36.362 1.18.632 5.083 3.885 6.263 4.878.998.813 1.906 1.807 2.904 2.62.363.271 1.18.994 1.362 1.446.09.361.181.813.09 1.265 0 .27-.181.27-.09.632.09.452 0 .18 0 .542.181.09.453 0 .816 0 .273 0 .636.09.817.09 0-.27-.09-.09 0-.36.091-.181.091-.272 0-.453-.181-.451-.272-.36-.181-.993l.544-.271c.182-.09.273-.271.454-.362.454.18.999.633.999 1.084 0 .633-.636 1.085-.636 1.446h.636c.454 0 .181.09.635-.09.272-.181 1.089.18 1.271.18 0-.361-.091-.09 0-.451.09-.272.181-.181 0-.452-.182-.362-.273-.542-.182-.994.636-.271.636-.361.999-.632.544.09.998.542.907 1.174-.09.542-.544.994-.726 1.446l.454.27c.908-1.445 1.815-1.806.091-2.98-.999-.724-1.543-1.898-2.269-2.892-.726-.994-1.362-1.987-2.179-2.981-.726-.813-1.815-1.717-2.541-2.53-.817-.904-1.634-1.807-2.179-2.891-.544-.904-1.543-2.078-2.178-2.891-.544-.633-.726-.723-.998-1.536-.363-.994-.273-1.175-.454-2.168-.182-1.085-.999-2.53-1.815-3.253.181-.452.272-.452.363-1.084-.817-.542-1.543-.452-2.633-1.897-.544-.633-1.452-2.169-1.633-2.982.726 0 1.27.09 2.087.09.817 0 1.18-.09 1.997.09 3.994.814 4.629 0 7.897 0 .635 0 1.089.453 1.815.362.272 0 .635-.09.908-.18.363 0 .726.09.998 0 .272-.542-.817-.542-1.089-.633 1.634-.27.544-.09 1.361-.09.454 0 1.09.18 1.271-.271-.091-.09-1.089-.271-1.271-.362-1.724-.451-3.267.181-4.719 0-1.997-.27-3.631-.993-5.719-.993-2.269 0-1.089 0-2.904-.452-.726-.18-2.632-.271-2.905-.452-.816-.361-1.633-.723-2.541-.903-.998-.181-2.36.361-2.904-.181.363-.542 1.815-.452 2.359-.271 1.09.361 3.177 1.446 3.994-.452.454-1.084-.091-.632.182-.994.363-.542.272-.451.181-1.084.454-.27.635-.632.635-1.174-1.906-.18-3.176.09-5.173-.994-1.18-.723-2.632-2.078-4.085-2.078-.363 0-.816.09-1.18.271-.544.271-.453.09-1.089-.09-2.995-1.085-2.541 0-3.176.542-.182.18-.727.542-.817.722-.363.452.272.543-.545.994-.454.09-.998.181-1.09.542z" fill="#000"/><path fill-rule="evenodd" clip-rule="evenodd" d="M96.302 73.136H132.7c.454 0 .817.361.817.723l-1.543 13.552c0 .36-.363.722-.817.722l-33.31-.18c-.455 0-.727-.362-.818-.723l-1.634-13.371c.091-.362.454-.723.908-.723z" fill="#000"/><path fill-rule="evenodd" clip-rule="evenodd" d="M96.302 72.503h36.578c.363 0 .635.181.908.362.272.27.454.542.454.903v.09l-1.543 13.553c0 .361-.182.722-.454.903-.273.271-.636.362-.999.362l-33.31-.181c-.363 0-.727-.18-.999-.362-.272-.27-.454-.542-.454-.903L94.85 73.859v-.181c0-.361.181-.723.453-.903.273-.181.545-.362.817-.362.091.09.091.09.182.09zm36.397 1.356H96.212l1.633 13.28c0 .09 0 .09.09.09h.091l33.311.182h.091l.091-.09 1.452-13.553c-.182.09-.182.09-.272.09z" fill="#DCC576"/><path fill-rule="evenodd" clip-rule="evenodd" d="M109.555 82.984h-.998l-4.085-7.409-3.993 7.409h-.636l-.544 2.258c.181-.18.363-.27.454-.452l.453-.451c.182-.18.364-.271.545-.362.182-.09.454-.18.817-.18h5.627c.273 0 .454.09.636.18.181.09.272.272.363.452l.272.542c.091.18.091.362.182.542l.907-2.53zm-4.356 0h-3.268l1.634-3.343 1.634 3.343zm13.433-2.801c0 .632-.091 1.084-.363 1.536-.273.452-.545.813-.999 1.174-.363.362-.817.542-1.361.723-.545.18-.999.271-1.543.271-.545 0-1.089-.09-1.634-.271a4.81 4.81 0 01-1.361-.723c-.364-.361-.727-.722-.999-1.174-.272-.452-.363-.904-.363-1.446 0-.542.091-1.084.363-1.536.272-.451.545-.813.908-1.174.363-.362.726-.542 1.18-.723.454-.18.907-.271 1.361-.271-.181-.632-.272-.904-.181-.904h.363c.181 0 .272 0 .454.09.181 0 .272 0 .453.091.182 0 .273 0 .454.09l-.272.633c.454 0 .908.18 1.271.361.453.181.817.452 1.089.723.363.271.544.723.817 1.084.272.452.363.904.363 1.446zm-2.995.09v-.723c0-.27 0-.542-.091-.813-.091-.27-.091-.542-.273-.813-.09-.27-.272-.361-.453-.542l-.545 1.175-.363-1.175-.545.542c-.09.18-.181.452-.272.633-.091.27-.091.451-.091.722v1.265c0 .18.091.452.091.633 0 .27.091.451.182.722.09.272.181.452.272.633.091.18.181.361.363.452.091.09.272.18.454.18.181 0 .272-.09.454-.18.09-.09.272-.271.363-.452.09-.18.181-.361.272-.633.091-.18.091-.451.182-.632 0-.18.09-.452.09-.632-.09-.09-.09-.271-.09-.362zm14.522 3.524l-2.905-7.499-2.632 4.337-2.45-4.789-2.996 7.95h1.362l.998-3.252 1.997 3.795 2.36-3.614 1.18 3.162h3.086v-.09z" fill="#E3000F"/><path fill-rule="evenodd" clip-rule="evenodd" d="M161.925 98.885l-1.452-.181.817-1.355.635 1.536zm3.903 2.258l-3.176-7.137-4.539 6.414 1.271.091.998-1.446.636 2.078 1.089-1.897.635 1.626 3.086.271zm-7.987-.812l-2.36-4.427 2.45-1.988-1.543-.09-2.45 2.53.272-2.801-2.632-.181-.545 6.324 2.632.181.182-1.988 1.089 2.169 2.905.271zm-7.805-.723l.635-6.415-4.175 2.891.273-3.072-2.633-.27-.544 6.775 4.084-3.072-.272 2.982 2.632.18zm-7.625-.452l.363-6.324-2.723-.09-.091 2.349-1.361-.09.181-2.35-2.632-.18-.363 6.324 2.632.18.182-3.613.635 1.445.726-1.445-.272 3.704 2.723.09zm-9.531-4.698c0 .181 0 .362-.09.543-.091.18-.091.36-.182.451a.706.706 0 01-.363.362c-.091.09-.272.18-.363.18l.181-2.981c.182 0 .364.09.454.18.091.09.182.181.273.362.09.18.09.271.09.452v.451zm2.179.181c0-.271 0-.542-.091-.813a1.404 1.404 0 00-.545-.723 4.91 4.91 0 00-.998-.542c-.363-.09-.908-.18-1.452-.27l-2.723-.182-.363 6.325 2.632.18.091-1.807c.453 0 .817 0 1.18-.09s.726-.18.998-.361.545-.452.726-.723c.454-.271.545-.632.545-.994zm-5.899-2.44l-1.089-.09-1.543 2.62-1.362-2.71-3.086-.091 2.814 5.15-.908 1.264h1.18l3.994-6.143zm-9.623.361v5.692l-2.723-.09v-5.511l-2.087 1.084.635-1.897h5.9l.635 1.988-2.36-1.265zm-6.806 3.524v.451c0 .181-.091.272-.181.452-.091.18-.182.271-.273.362-.09.09-.272.18-.363.18l-.09-2.62c.181 0 .272.09.363.18l.272.272c.091.09.091.271.181.361.091.09.091.181.091.362zm2.269-.09c0-.362-.09-.723-.363-.995-.181-.27-.454-.451-.817-.541-.272-.09-.635-.181-.998-.272-.363 0-.726-.09-.998-.09v-2.349l-2.633.09.091 6.325 2.723-.09c.363 0 .726 0 1.089-.091.363-.09.636-.18.999-.361.272-.181.544-.362.726-.633.091-.27.181-.542.181-.994zm-6.626 2.258l-4.175-6.866-3.631 7.137 1.453-.09 1.361-3.343 1.997 3.252 2.995-.09zm-6.535-6.505l-1.089.09-1.361 2.71-1.453-2.62-3.176.181 3.267 4.88-.817 1.354 1.271-.09 3.358-6.505zm-6.716 6.686l-3.086-3.885 2.088-2.349-1.543.09-1.997 2.892-.181-2.801-2.632.271.453 6.324 2.633-.18-.091-2.079 1.452 1.988 2.904-.27zm-8.26-1.355c0 .361 0 .632-.182.903-.181.271-.363.542-.635.723-.272.18-.545.362-.908.542-.363.09-.635.18-.907.271h-.908c-.363-.09-.635-.18-.908-.27-.272-.181-.544-.362-.726-.543-.181-.271-.272-.542-.363-.813.09.09.273.18.363.271.182.09.273.18.454.18.182.091.363.091.454.091h.454c.181 0 .363-.09.544-.18a.707.707 0 00.363-.362.689.689 0 00.182-.452c0-.18.09-.361 0-.542 0-.09-.09-.27-.09-.361-.092-.09-.092-.18-.182-.271l-.273-.271c-.09-.09-.181-.09-.363-.181 0 0 .091-.09.182-.09.09 0 .181-.09.181-.09.091-.091.182-.091.182-.181.09-.09.09-.181.181-.362v-.452c0-.09 0-.18-.09-.36 0-.091-.091-.182-.182-.272-.09-.09-.182-.18-.272-.18-.091 0-.273-.091-.454 0-.182 0-.272.09-.454.18-.181.09-.272.18-.363.271-.09.09-.181.18-.272.361-.091.09-.182.181-.182.271l-.181-1.987 1.27-.18-.09.632c.272-.181.544-.271.726-.362.272-.09.454-.18.726-.18h.635c.182 0 .454.09.636.18.181.09.363.271.453.362.091.18.182.361.182.632 0 .18 0 .452-.09.542-.092.18-.092.271-.182.452l-.273.27c-.09.091-.181.182-.272.182.09 0 .182.09.363.18.182.09.272.181.454.271.181.09.272.271.363.452.363.271.454.542.454.723zm-6.353 2.53l-.545-6.505-3.54 3.613-.272-3.162-2.723.271.635 6.776 3.54-3.794.181 2.981 2.723-.18zm-14.07-3.976a.5.5 0 00-.453.271c-.091.18-.182.271-.273.542-.09.18-.09.362-.09.633v.542c0 .27.09.451.09.632.091.18.182.452.273.633.09.18.181.27.363.451.181.09.272.181.454.09l-.364-3.794zm3.813 1.446c0-.181-.091-.362-.091-.542-.09-.181-.09-.362-.182-.543-.09-.18-.181-.36-.363-.451-.181-.09-.272-.18-.544-.18l.363 3.703c.181 0 .272-.09.453-.18.091-.09.182-.271.273-.452.09-.18.09-.362.181-.633-.09-.27-.09-.451-.09-.722zm2.45-.271c0 .361 0 .722-.09 1.084-.091.27-.182.542-.364.813-.181.271-.363.452-.544.542-.182.18-.454.271-.726.361-.273.09-.454.181-.726.271-.273.09-.454.09-.727.09l.091.633-2.632.271-.09-.632h-.727c-.272 0-.544 0-.817-.091-.272-.09-.544-.09-.726-.27-.272-.09-.454-.272-.635-.452a1.965 1.965 0 01-.454-.723c-.09-.271-.182-.632-.272-.994 0-.452 0-.813.09-1.084.091-.271.182-.542.364-.813l.544-.542c.182-.18.454-.271.726-.362.272-.09.454-.18.726-.18.273-.09.454-.09.726-.09l-.181-.543 2.632-.27.09.722h1.544c.272 0 .544.09.726.18.272.091.454.272.635.452.182.181.363.452.545.723.09.18.181.542.272.904z" fill="#000"/></g><path d="M161.22 118v14h-3.2v-11.36h-4.8l-.1 2.92c-.067 1.987-.227 3.6-.48 4.84-.253 1.227-.68 2.173-1.28 2.84-.587.653-1.413.98-2.48.98-.44 0-.973-.073-1.6-.22l.2-2.74c.173.053.367.08.58.08.773 0 1.313-.453 1.62-1.36.307-.92.5-2.353.58-4.3l.2-5.68h10.76zm15.857-.24c1.4 0 2.66.313 3.78.94a6.834 6.834 0 012.66 2.6c.64 1.093.96 2.327.96 3.7 0 1.373-.32 2.613-.96 3.72a6.88 6.88 0 01-2.66 2.58c-1.12.627-2.38.94-3.78.94-1.254 0-2.4-.247-3.44-.74a7.103 7.103 0 01-2.58-2.1 7.03 7.03 0 01-1.28-3.1h-1.84v5.7h-3.22v-14h3.22v5.5h1.88a6.938 6.938 0 011.32-2.98 6.85 6.85 0 012.56-2.04c1.026-.48 2.153-.72 3.38-.72zm0 11.72a4.03 4.03 0 002.1-.56c.626-.373 1.12-.9 1.48-1.58.36-.68.54-1.46.54-2.34 0-.88-.18-1.66-.54-2.34a3.942 3.942 0 00-1.48-1.58 4.03 4.03 0 00-2.1-.56c-.774 0-1.474.187-2.1.56-.627.373-1.12.9-1.48 1.58-.36.68-.54 1.46-.54 2.34 0 .88.18 1.66.54 2.34.36.68.853 1.207 1.48 1.58.626.373 1.326.56 2.1.56zm15.345-3.12h-2.24V132h-3.22v-14h3.22v5.66h2.32l3.68-5.66h3.42l-4.58 6.76 4.72 7.24h-3.68l-3.64-5.64zm15.399 5.88c-1.427 0-2.72-.307-3.88-.92a7.134 7.134 0 01-2.72-2.58c-.653-1.107-.98-2.353-.98-3.74s.327-2.627.98-3.72a6.931 6.931 0 012.72-2.58c1.16-.627 2.46-.94 3.9-.94 1.213 0 2.307.213 3.28.64a6.576 6.576 0 012.48 1.84l-2.08 1.92c-.947-1.093-2.12-1.64-3.52-1.64-.867 0-1.64.193-2.32.58-.68.373-1.213.9-1.6 1.58-.373.68-.56 1.453-.56 2.32 0 .867.187 1.64.56 2.32.387.68.92 1.213 1.6 1.6.68.373 1.453.56 2.32.56 1.4 0 2.573-.553 3.52-1.66l2.08 1.92a6.49 6.49 0 01-2.48 1.86c-.987.427-2.087.64-3.3.64z" fill="#F9E396"/></g><defs><clipPath id="clip0_1752_11838"><path fill="#fff" d="M0 0h229v146H0z"/></clipPath><filter id="filter0_d_1752_11838" x="28.998" y="-8" width="171.005" height="144.383" filterUnits="userSpaceOnUse" color-interpolation-filters="sRGB"><feFlood flood-opacity="0" result="BackgroundImageFix"/><feColorMatrix in="SourceAlpha" values="0 0 0 0 0 0 0 0 0 0 0 0 0 0 0 0 0 0 127 0" result="hardAlpha"/><feOffset/><feGaussianBlur stdDeviation="15"/><feComposite in2="hardAlpha" operator="out"/><feColorMatrix values="0 0 0 0 1 0 0 0 0 0.761676 0 0 0 0 0.204167 0 0 0 1 0"/><feBlend in2="BackgroundImageFix" result="effect1_dropShadow_1752_11838"/><feBlend in="SourceGraphic" in2="effect1_dropShadow_1752_11838" result="shape"/></filter></defs></svg>