<svg width="222" height="68" fill="none" xmlns="http://www.w3.org/2000/svg"><path d="M81.083 29.52c-.144-.396-.415-.417-.576-.48-.228-.094-.196-.14-.078-.236.155-.129.457-.266.5-.664a2.889 2.889 0 00-.176-1.308c-.22-.55-.694-.527-.694-.527-.614-2.082-2.943-5.064-6.98-5.064-4.436 0-6.285 3.58-6.092 5.939.19 2.305 1.807 3.985 4.037 3.957 2.23-.028 3.29-2.169 2.712-3.857-.48-1.41-2.23-1.735-2.868-.966-.132.158.025.407.208.333.251-.105.564-.163.821.025.698.61.514 2.052-.65 2.17-1.314.134-2.323-.804-2.228-2.431.072-1.22 1.542-3.206 4.501-2.94 3.858.348 5.283 6.93 3.172 9.41-2.302 2.71-5.186 2.542-11.609-1.19l.003-.078s.854-.298.812-1.646c-.047-1.525-.766-1.929-1.672-1.929l-.077-.293s.631-.469.324-1.816-1.172-1.484-1.513-1.502l-.109-.473s.505-.492.288-1.613c-.217-1.121-1.009-1.483-1.64-1.389l-.106-.279s.635-.394.336-1.413c-.275-.933-.911-1.041-1.336-1.03a.223.223 0 01-.12-.03.246.246 0 01-.09-.093.277.277 0 01-.002-.258c.113-.208.294-.664.087-1.186-.244-.612-.867-.794-1.216-.803a.436.436 0 01.026-.32c.117-.233.295-.72.114-1.253-.251-.742-.865-.684-.865-.684v-.233c.228-.285.355-.648.36-1.025 0-.615-.28-1.053-.641-1.074 0 0-.053.037.044-.082.122-.153.374-.228.491-.527.2-.503.185-.981-.15-1.254.165-.023.323-.087.461-.186.31-.238.483-.79.436-1.089-.032-.194-.2-.391-.2-.391.128.013.257.017.386.01.167-.013.75-.396.834-.537.084-.142.11-.45.11-.45s.148.266.386.334c.28.08.794-.068 1.195-.137.227-.038.433-.352.433-.494 0 0 .075.396.184.5.11.102.617.39 1.079.496.519.121.648-.13.648-.13a.855.855 0 00.15.58c.276.376.503.632.92.83.22.103.443.043.472.024a.944.944 0 00-.028.522c.117.543.218.982.44 1.223.104.114.248.082.265.079a.615.615 0 00-.206.314c-.101.38-.1.644-.116 1.037a.406.406 0 00.162.325c-.016-.01-.086-.036-.24.031-.18.078-.59.6-.738.897-.132.269-.026.574-.016.6-.014-.01-.079-.106-.259-.132-.192-.024-.856.224-1.014.277-.158.053-.345.42-.345.42s-.654.149-1.459-.504c-.804-.652-1.383-2.477-.421-3.131.637-.313 1.55-.133 1.55.777 0 .443-.354.633-.626.533a.123.123 0 00-.076-.003.132.132 0 00-.064.042.154.154 0 00-.025.154c.101.263.349.519.936.316 1.28-.44 1.086-3.057-.866-3.255-1.793-.182-3.07 1.6-2.738 3.757.392 2.556 3.17 4.472 6.174 3.064 3.002-1.408 3.557-5.414 2.27-8.384-1.285-2.97-4.289-4.505-7.605-4.22-3.315.287-6.59 3.206-6.944 8.308-.295 4.25 3.004 11.456 3.916 14.294.191.59.442 1.33.685 2.152-5.273-2.192-9.726-2.744-10.68-2.803 0 0 1.514-.13 2.728-3.02.908-2.165.41-3.979-.591-4.817.232-1.666 1.278-3.035 1.342-5.637.254-3.713-1.305-6.833-2.49-8.148-.25-.276-.665-.7-1.357-.963-.338-.39-.8-.795-1.504-.965-.038-.045-.076-.09-.12-.137-.452-.51-1.295-.76-1.842-.804a.388.388 0 00-.04-.037c-.516-.415-1.225-.547-1.965-.547l.176.17C41.742.21 41.182.07 40.6.07a3.015 3.015 0 00-.842.113c-.268.075-.522.2-.75.37l.175-.17c-.74 0-1.447.132-1.965.547-.013.01-.026.025-.04.037-.548.043-1.39.295-1.844.804-.043.047-.08.092-.12.137-.703.17-1.166.575-1.502.966-.693.264-1.107.688-1.357.963-1.186 1.316-2.743 4.436-2.49 8.148.065 2.602 1.111 3.973 1.343 5.637-1 .836-1.5 2.65-.59 4.816 1.213 2.89 2.727 3.02 2.727 3.02-.953.06-5.406.61-10.68 2.803.244-.822.494-1.562.685-2.152.913-2.838 4.212-10.044 3.915-14.294-.353-5.102-3.628-8.021-6.943-8.307-3.315-.286-6.32 1.25-7.605 4.219-1.285 2.968-.734 6.977 2.27 8.384 3.005 1.406 5.781-.51 6.175-3.065.331-2.157-.945-3.939-2.739-3.756-1.952.198-2.144 2.814-.865 3.255.587.202.834-.054.936-.317a.156.156 0 00-.026-.154.133.133 0 00-.065-.042.124.124 0 00-.075.003c-.272.1-.625-.088-.625-.533 0-.91.913-1.09 1.549-.777.962.655.384 2.484-.42 3.131-.806.648-1.46.505-1.46.505s-.185-.367-.344-.419c-.159-.052-.82-.3-1.012-.277-.18.026-.246.121-.26.132.01-.027.116-.332-.016-.6-.147-.298-.557-.819-.738-.896-.156-.067-.225-.041-.24-.032a.404.404 0 00.16-.325c-.014-.393-.013-.657-.113-1.037a.613.613 0 00-.208-.314c.018.003.161.033.267-.08.22-.24.323-.679.439-1.222a.94.94 0 00-.027-.522.62.62 0 00.47-.024c.416-.197.645-.454.92-.83a.859.859 0 00.15-.58s.13.251.649.13c.46-.106.97-.393 1.078-.497.108-.103.185-.5.185-.5 0 .143.206.457.43.495.403.069.916.216 1.197.137.238-.068.386-.335.386-.335s.024.307.11.45c.086.144.666.525.834.538.129.007.258.003.386-.01 0 0-.17.197-.2.391-.048.298.128.85.436 1.09.139.098.296.162.46.185-.336.273-.349.75-.152 1.254.118.3.37.374.492.527.097.119.045.083.045.083-.36.02-.643.458-.643 1.073.005.377.133.74.361 1.025v.233s-.615-.058-.865.684c-.182.533-.003 1.02.114 1.253a.427.427 0 01.025.32c-.348.009-.971.19-1.215.803-.208.522-.028.978.086 1.186a.273.273 0 010 .256.243.243 0 01-.089.095.218.218 0 01-.122.03c-.425-.011-1.061.097-1.335 1.03-.3 1.019.336 1.413.336 1.413l-.104.279c-.633-.094-1.425.269-1.642 1.389-.217 1.12.289 1.612.289 1.612l-.108.47c-.342.018-1.207.155-1.514 1.502-.307 1.347.324 1.816.324 1.816l-.077.293c-.905 0-1.622.404-1.671 1.928-.042 1.349.811 1.646.811 1.646l.003.08c-6.425 3.73-9.306 3.897-11.609 1.19-2.11-2.482-.686-9.061 3.172-9.412 2.958-.267 4.429 1.72 4.501 2.94.096 1.628-.915 2.566-2.227 2.432-1.165-.117-1.35-1.56-.652-2.169.256-.188.57-.13.82-.026.184.076.34-.173.209-.333-.639-.769-2.388-.444-2.87.966-.576 1.69.482 3.831 2.713 3.857 2.232.027 3.849-1.65 4.037-3.956.193-2.359-1.655-5.938-6.091-5.938-4.037 0-6.366 2.983-6.982 5.063 0 0-.472-.023-.693.527a2.885 2.885 0 00-.174 1.309c.042.396.344.535.5.664.117.097.148.142-.08.235-.16.064-.432.085-.576.48-.09.246-.133.704-.113 1.066.035.711.4.918.665.997.08.024.223.042.066.142-.324.21-.302.412-.312.561-.024.337 0 1.653.615 2.294 0 0-.184.082-.069.473.131.448.317.86.697.917 0 0 .202.028.15.222-.034.132-.034.223-.044.39-.04.56.238 1.124.85 1.382.433.183.63.06.932-.08.068-.032.145-.008.12.066-.12.338-.199.546-.157.742.13.595.806 1.25 1.454 1.327.478.059.69-.388.853-.525.198-.167.283.069.295.168.034.225.08.448.137.667.123.38.833.653 1.616.595.48-.036.592-.293.746-.577.044-.082.156-.13.276-.133.127-.005.179.36.3.536.26.376 1.257.336 2.029.141.455-.116.455-.362.51-.621.044-.219.255-.283.377-.15.122.132.23.354.392.458.323.208 1.005.029 1.593-.31.402-.229.325-.476.353-.906.014-.203.229-.1.275-.049.105.109.229.194.364.25.233.088.608-.03.928-.25.015.08.047.007.069.09a15.618 15.618 0 00-2.792 4.23c-2.353 5.04-1.451 9.408.324 12.24 1.532 2.44 3.184 3.488 5.191 4.113 6.848 1.876 9.975-2.919 9.778-7.45-.1-2.294-1.106-3.763-2.31-4.647-1.304-.956-3.138-1.233-4.729-.333-2.398 1.353-2.374 4.982-.36 5.753 1.552.595 2.509-.462 2.299-1.51-.048-.238-.325-.243-.403-.124-.29.448-.756.722-1.206.345-.429-.357-.277-.983-.215-.996.061-.014.299-.299.365-.397.067-.1.043-.273.043-.273s.066.111.329.071c.263-.04.596-.266.674-.312.078-.047.062-.435.062-.435s.108.408.328.423c.22.015.65-.021.752-.094a5.59 5.59 0 00.269-.2c-.007.026-.076.282-.03.383.093.196.428.594.759.653.082.015.223-.063.238-.07-.013.015-.154.217-.148.32.006.11.08.517.146.634.067.116.264.212.264.212a.621.621 0 00-.264.186c-.108.137-.227.666-.236.918-.011.242.076.364.076.364s-.17-.026-.34.147c-.248.255-.4.645-.462.913-.022.108.026.22.082.306-.103-.081-.326-.082-.606.059a3.18 3.18 0 00-.679.566c-.122.159-.084.26-.065.3a.658.658 0 00-.511-.212c-.175.026-.667.149-.8.285a.384.384 0 00-.12.26.501.501 0 00-.347-.338c-.131-.046-.818-.139-1.022.018a3.58 3.58 0 01-.145.11s.013-.267-.246-.46-.566-.529-1.033-.5c-.15.008-.188.078-.188.078.02-.13.002-.426-.553-.996-.556-.57-.815-.496-.86-.474.076-.039.661-.373.549-1.266-.118-.926-.595-1.015-.595-1.015.365-.27.414-.717.36-1.738-.035-.66-.36-.84-.36-.84s.49-.211.759-1.166c.27-.954-.293-1.507-.293-1.507 1.103.177 1.537-1.279 1.482-1.765-.054-.488-.249-.652-.249-.652l.618-.87-.486-.874c.625.794 1.572 1.322 1.572 1.322-.062.105-.653.564-.635.827.062.82.541 1.213 1.335 1.704 1.264.783 2.39.846 2.858.508.382-.273.382-1.182.382-1.182.432.095.774-.033.893-.015.119.019.066.46.059.774-.008.313.919.675 2.163.515 1.706-.218 1.358-1.394 1.358-1.394.127-.021.176.004.288-.039l.216.253c.312.225.983.229 1.802-.415.251-.197.327-.513.376-.701.113-.038.436-.136.56-.19 1.287-.561 1.474-1.13 1.665-1.498.132-.255-.15-.82-.15-.82l.532.228c-1.733 3.875-4.542 10.108-3.216 16.922 1.156 5.942 5.195 8.718 8.887 8.718 5.167 0 7.142-3.274 8.076-5.103.619-1.212 1.14-3.37.986-4.792-.592-5.475-6.015-7.752-8.688-5.258-2.53 2.365-1.047 6.01 1.408 5.96 2.184-.046 2.172-2.466.986-2.822-.58-.175-.918.103-1.027.431-.057.177.13.326.279.233.09-.06.195-.09.3-.086.361.014.554.586.35.859-.205.273-.973.417-1.538-.103-.564-.52-.518-1.46-.518-1.46s.182.048.276-.545a2.26 2.26 0 00.024-.333s.198.14.39.118c.315-.035.816-.337.868-.41a.572.572 0 00.103-.382c.005.024.026.128.154.296.267.347 1.188.341 1.331.29.273-.097.29-.288.315-.326.025-.039-.042.188.033.557.075.368.674.87 1.156.9a.868.868 0 00.504-.106c-.059.048-.264.238-.307.626-.037.323.298 1.102.479 1.18a.46.46 0 00.303 0c-.195.096-.246.178-.256.482-.058 1.097.225 1.233.225 1.233-.1.07-.19.155-.267.254a2.4 2.4 0 00-.367.823c-.084.323.009.526.009.526-.206.009-.324.023-.45.12-.138.106-.266.287-.446.553-.155.228-.02.5-.007.526a.703.703 0 00-.387-.087c-.171.007-.415.075-.803.352-.593.427-.509.706-.499.733-.014-.023-.134-.206-.315-.233-.208-.028-.525-.032-1.002.136-.334.118-.485.177-.607.372-.093.197-.045.318-.068.251-.106-.31-.445-.536-1.098-.654-.393-.07-.642-.078-.902 0-.106.033-.258.178-.348.233 0 0-.023-.313-.48-.764-.364-.359-.816-.291-.816-.291s-.332-.566-.75-.67c-.166-.042-.175-.046-.303.017.07-.054.125-.104.14-.263.023-.25-.14-1.684-.944-1.684h-.041c.034-.005.255-.022.3-.122.058-.13.18-.49.155-.856-.024-.366-.157-1.105-.517-1.118a.875.875 0 01-.408-.118c-.11-.066.488.02.63-.323.307-.742.206-1.704.093-1.842-.121-.142-.625-.38-.588-.385.036-.006.444.015.588-.045.144-.059.203-.255.528-.88s.108-1.042.011-1.187c-.096-.144-.36-.481-.228-.468.132.013.408.183.613 0 .205-.183.722-.976.866-1.418.143-.442-.072-.521-.17-.742-.096-.221-.107-.273-.06-.378.046-.106.421.066.686-.118.265-.183.866-1.38.866-1.548 0-.168-.205-.522-.23-.613-.025-.09.097-.156.144-.207.047-.052.494.168.586.095.092-.073.964-1.15 1.06-1.499a.71.71 0 00-.04-.44.713.713 0 01.036-.616c1.122-1.949 2.429-4.347 3.16-6.379.076.147.166.3.26.454-.722.197-1.024 1.327-.197 2.508.872 1.25 2.746 2.18 3.295 1.081-.092.245-.187.538-.004.82.315.485.705 1.042 1.646 1.262.566.133.576-.003.69.034.048.188.125.503.374.7.818.644 1.49.64 1.802.415 0 0 .215-.25.215-.252.113.043.164.017.288.04 0 0-.347 1.174 1.36 1.393 1.243.159 2.17-.204 2.16-.515-.008-.312-.059-.757.06-.774.119-.017.464.11.895.015 0 0 0 .909.38 1.182.468.337 1.594.275 2.86-.509.794-.49 1.273-.884 1.334-1.703.019-.264-.575-.723-.634-.827 0 0 .946-.529 1.57-1.322l-.485.873.618.87s-.197.163-.25.652c-.052.49.38 1.944 1.483 1.766 0 0-.565.553-.293 1.507.272.954.76 1.166.76 1.166s-.327.18-.36.84c-.054 1.021-.005 1.468.36 1.738 0 0-.478.088-.595 1.015-.114.89.473 1.225.549 1.266-.046-.022-.306-.1-.86.473-.556.573-.571.866-.555.996 0 0-.036-.07-.184-.077-.467-.028-.775.305-1.033.5-.26.195-.246.46-.246.46l-.144-.11c-.205-.157-.89-.064-1.021-.019a.502.502 0 00-.349.339.389.389 0 00-.12-.26c-.132-.136-.624-.259-.798-.285-.175-.027-.424.093-.52.218.017-.028.07-.133-.058-.306a3.182 3.182 0 00-.678-.566c-.281-.14-.505-.14-.608-.058.055-.086.105-.2.081-.306-.06-.268-.21-.658-.46-.913-.17-.173-.34-.148-.34-.148s.086-.122.075-.364c-.01-.252-.126-.78-.234-.918a.621.621 0 00-.266-.186s.201-.093.266-.212c.064-.118.14-.523.146-.635.005-.102-.138-.303-.15-.32.015.009.155.087.238.072.331-.06.668-.458.757-.653.048-.1-.021-.357-.028-.383.019.015.171.134.268.2.103.073.532.105.752.094.22-.012.33-.424.33-.424s-.018.39.062.435c.078.046.407.273.672.313.266.04.33-.072.33-.072s-.024.176.043.273c.066.097.307.385.366.397.059.012.212.64-.215.997-.451.377-.917.103-1.21-.346-.077-.118-.353-.114-.4.125-.211 1.048.746 2.105 2.299 1.51 2.014-.771 2.037-4.4-.36-5.753-1.593-.9-3.426-.623-4.73.333-1.201.882-2.213 2.353-2.31 4.648-.197 4.53 2.93 9.327 9.779 7.45 2.006-.625 3.658-1.673 5.19-4.113 1.776-2.831 2.678-7.2.325-12.24a15.744 15.744 0 00-2.79-4.23c.02-.082.052-.009.065-.09.321.22.697.338.929.25.136-.056.26-.14.365-.25.046-.051.261-.154.276.05.03.429-.048.677.353.906.589.338 1.27.518 1.593.31.162-.104.274-.33.392-.459.118-.13.332-.068.378.15.054.26.054.505.509.621.768.194 1.768.235 2.028-.14.122-.177.174-.541.3-.537.121.004.232.052.277.133.154.285.265.541.745.577.784.058 1.495-.215 1.617-.595.058-.219.104-.441.138-.666.012-.1.095-.336.294-.169.163.137.375.584.854.526.648-.078 1.321-.733 1.453-1.328.043-.196-.037-.404-.156-.742-.028-.075.05-.1.118-.066.302.14.5.263.933.08.61-.258.888-.821.85-1.383-.013-.166-.01-.258-.046-.387-.051-.194.15-.222.15-.222.381-.056.566-.469.698-.917.114-.39-.069-.473-.069-.473.615-.641.64-1.957.615-2.294-.01-.149.012-.352-.312-.56-.156-.1-.015-.12.066-.143.266-.079.63-.286.666-.997.018-.366-.023-.824-.115-1.07zm-9.25-.475c.65-.356 1.102-1.097.713-2.141.878.558.731 2.589-.901 3.006-.957.245-1.755-.387-2.27-1.212.704.661 1.737.742 2.459.347zm-62.276.866c-1.632-.418-1.779-2.448-.903-3.007-.387 1.045.065 1.786.716 2.142.72.395 1.753.314 2.456-.347-.514.824-1.313 1.456-2.27 1.211v.001zm70.997-2.21c-.02-.138-.097-.518-.336-.666l-.077-.325c.29-.002.393.786.413.99v.001zm-7.624-5.23c-2.528.01-4.034 1.176-4.732 2.663.5-1.526 1.777-2.436 1.856-2.49-1.042.493-1.675 1.329-2.098 2.172-.797 1.589-.633 2.716-.606 2.877-.044-.16-.343-1.354.461-2.996.717-1.463 2.01-3.054 5.118-3.138 4.25-.114 5.981 2.984 6.615 4.62.207.532.27 1.107.277 1.176a7.164 7.164 0 00-.376-1.183c-.445-.978-.953-1.74-1.524-2.32-1.466-1.489-2.9-1.788-2.987-1.805 1.048.402 1.722.904 2.343 1.546.9.936 1.244 1.793 1.283 1.894-.612-1.12-1.445-1.865-2.15-2.362-1.45-1.027-2.918-.966-2.918-.966 1.179.16 2.22.712 2.797 1.24.78.708 1.188 1.662 1.212 1.719-.404-.681-1.804-2.658-4.57-2.647zm-8.238 8.455c-.464-.01-.527-.615-.527-.615.316.46.896.186.964-.058 0 0 .03.682-.436.673h-.001zm.567 2.836c-.459-.1-.842.275-1.094.87 0 0-.066-.56.184-1.063-.025.014-.432.254-.516.696 0 0-.112-.425.028-.708.1-.204.26-.368.452-.467a.927.927 0 01.62-.083c.433.087.923.58.769 1.433.001 0 .017-.58-.442-.678h-.001zm.016 1.221s-.075.729-.513.807c-.425.076-.236-.806-.236-.806.075.577.47.526.75 0h-.001zm-.905 3.82c-.439-.32-1.19.482-1.448 1.015 0 0 .042-.974.969-1.665-.04.01-.676.181-1.036.416 0-.17-.063-.469-.063-.469s1.042-.79 1.416-.404c.48.495.566.512.54.983-.047.84-.455 1.584-.48 1.62.133-.364.414-1.27.102-1.496zm-.823 2.095s-.215.3-.48.366c-.266.067-.276-.366-.276-.366.276.171.757 0 .757 0zM62.484 35.6c-.366.003-.288-.687-.288-.687.034.236.176.353.295.362a.441.441 0 00.43-.309c.002.002-.026.635-.436.636V35.6zm2.33-7.045c.572.278.615 1.166.615 1.166s-.181-.733-.672-.776c-.491-.043-.984.512-1.01 1.109 0 0-.08-.866.117-1.19-.024.013-.405.236-.557.483.02-.147.064-.29.13-.42.209-.406.807-.648 1.378-.37l-.001-.002zm-1.909-1.965c.482.454.984.166.979-.184 0 0 .189.657-.313.774-.43.104-.653-.55-.665-.589v-.001zm.178-1.772c.68.049.878.774.89.82-.5-.723-1.226-.41-1.459.313-.166-.551.085-.79.109-.813-.434.09-.59.39-.59.39.008-.182.217-.768 1.051-.709v-.001zm-1.555-1.843c.461.339.843.281.944-.247 0 0 .096.733-.36.814-.467.085-.583-.566-.583-.566v-.001zm.332-1.587a.93.93 0 01.766.675c-.451-.58-1.361-.206-1.558.575-.079-.41.114-.853.114-.853-.205.105-.44.351-.44.351.034-.363.345-.878 1.118-.748zm-2.005-.85s.387.428.727.503l-.33.54c-.226-.27-.713-.287-.713-.287.284-.15.316-.755.316-.755v-.001zm-.406-2.919c-.39.11-.375-.368-.375-.368.246.2.475.156.575-.122 0 0 .19.382-.2.492v-.002zm.993 2.369a.342.342 0 00.433.026.397.397 0 00.109-.118s.03.381-.2.406c-.289.032-.342-.313-.342-.313v-.001zm.314-1.295c.492.112.571.735.571.735-.343-.65-1.188-.515-1.324.541-.071-.287.031-.83.031-.83-.168.091-.36.3-.36.3.094-.64.594-.858 1.082-.745zm-.935-1.998a.694.694 0 00-.7-.2c-.442.111-.504.992-.504.992-.165-.496-.061-.841-.053-.866a3.855 3.855 0 00-.284.27c.01-.229.16-.695.581-.72.421-.023.764.157.96.525v-.002zm-1.52-1.654c.26.244.457-.026.538-.23 0 0 .017.559-.27.571-.286.013-.268-.34-.268-.34v-.001zm.565-.659a.604.604 0 00-.548-.11c-.31.1-.32.947-.32.947-.184-.333-.15-.743-.15-.743-.096.148-.182.39-.182.39-.05-.384.127-.818.327-.88.2-.06.633-.123.873.397zm-1.12-1.635c.052.14.334.327.461.042-.01.044-.099.396-.307.392-.25-.005-.154-.433-.154-.433v-.001zm.3-1.046c.347.112.336.58.336.58-.062-.235-.225-.34-.363-.338-.325.005-.5.4-.57.612-.062-.533.056-.678.056-.678a.657.657 0 00-.292.096c.084-.343.484-.381.833-.27v-.002zm-1.309-3.444c.01-.33.206-.764.594-.983.302-.172.475-.058.621.033.114.072.262.267.148.6.018-.19-.051-.295-.145-.33-.122-.048-.284-.076-.535.245-.167.214-.252.44-.266.542-.026-.364.104-.698.266-.863-.384.151-.581.45-.683.757v-.001zm1.089.036c-.009.024-.093.237-.25.182-.17-.058-.028-.345-.028-.345-.011.162.06.271.278.164v-.001zm-.305 2.259c.087.16.338.16.4.102 0 0-.047.232-.237.232s-.163-.333-.163-.333v-.001zm.836-.14c-.014-.196-.088-.534-.372-.556-.243-.02-.506.185-.645.391.034-.2.123-.383.256-.527-.094-.02-.317.026-.317.026.256-.282.799-.262 1 .074.141.239.078.592.078.592zm-.048-1.477c-.108-.135.065-.304.065-.304.008.17.174.252.372.085-.042.125-.331.354-.437.22zm.697-.45c-.003-.207-.103-.406-.314-.386-.212.02-.55.291-.55.291.126-.347.395-.425.395-.425a1.6 1.6 0 00-.276.025l.201-.177c.184-.072.264-.027.354.023a.507.507 0 01.18.2.563.563 0 01.06.27c-.007.166-.05.18-.05.18v-.001zm1.025-1.653c-.18.352-.697.568-.976.573-.24.002-.544-.148-.728-.373.038.03.189.125.5.082.096-.014.126-.27.66-.57.245-.137.406-.087.445-.155.076-.133.101-.42.101-.42.05.301.179.51-.002.863zm1.896-.36c-.252.112-.776.18-.986.146-.202-.034-.437-.726-.45-.77.03.044.34.428.558.437.224.01.875-.06 1-.191.126-.132.136-.39.136-.39.02.312-.006.653-.258.766v.001zm1.965.524c-.243-.047-.843-.288-.965-.43-.12-.144-.135-.64-.135-.787 0 0 .086.408.27.613.114.126.644.31.845.34.2.03.556-.13.556-.13s-.329.438-.57.393zm1.669 1.36c-.307-.12-.538-.374-.723-.618-.11-.143-.136-.328.015-.88 0 0-.015.465.157.665.103.119.55.58.662.641.112.062.646.051.646.051s-.585.21-.757.14v.001zm.99 1.762c-.087-.132-.352-.908-.352-1.005 0-.098.072-.234.283-.48-.013.04-.129.392-.104.504.026.112.25.806.334.918.085.111.351.208.351.208s-.427-.013-.513-.146zm.396 2.068c-.035-.033-.307-.285-.315-.36-.008-.074.05-.821.096-.894.047-.074.331-.192.393-.222-.026.022-.245.191-.278.328a5.833 5.833 0 00-.08.778c0 .118.16.337.184.37zm-2.565 2.099c.092-.03.683-.188.748-.183.066.005.128.033.297.17-.019-.004-.185-.051-.272-.042-.092.011-.613.153-.723.18-.147.033-.223.184-.235.207.005-.032.047-.287.185-.334v.002zm-3.702-3.16c-.353.627-.433 1.233-.42 1.512-.154-1.465.907-3.16 2.311-3.084 1.625.087 1.73 1.516 1.625 1.894 0 0 .062-1.632-1.731-1.543-.906.043-1.38.504-1.785 1.22v.001zm2.674 4.341c-2-.366-2-2.165-2-2.165.658 1.797 3.135 2.295 4.477 1.447-.045.053-.896 1.007-2.475.717l-.002.001zm3.15-2.611c-.07.033-.406.486-.54.633-.134.146-.093.552-.093.552s-.186-.461-.087-.62c.098-.158.5-.636.588-.687.088-.051.134-.028.428 0 0-.002-.222.088-.293.12l-.002.002zm-18.98 11.96c-.592.011-.665-.53-.665-.53.184.317 1.301.255 2.095-.544-.095.118-.873 1.065-1.43 1.074zm-.148-1.159c.152.014.303.003.452-.03.198-.053.686-.214.717-.223-.615.519-1.042.565-1.17.253h.002zm2.171-1.406c.11-.569.05-.797-.05-.716-.1.082-.238.117-.4-.052-.32-.337-.417-.348-.78-.151-.363.197-.375 0-.57.28.266-.86.817-1.472 1.362-1.56.546-.087 1.146.851.437 2.2h.001zm.787-1.428s.142-.962-.915-1.211c-1.056-.249-2.336 1.248-2.823 4.12 0 0-.4-2.24 1.033-4.092-.051.04-1.711 1.327-2.042 3.852 0 0-.24-2.225 1.081-3.84 0 0-1.248.775-1.778 3.27-.11-2.938 1.793-4.422 2.362-4.763.146-.083.293-.16.44-.231.399-.184.816-.296 1.214-.267 1.224.095 2.014 1.653 1.427 3.162h.001zm-18.629.712c-.098-.08-.16.147-.05.716-.707-1.348-.106-2.286.44-2.198.546.087 1.096.7 1.362 1.558-.195-.28-.209-.08-.57-.279-.363-.199-.46-.186-.78.151-.163.17-.302.132-.402.052zm2.122 2.122c-.127.312-.554.267-1.17-.253.03.009.52.17.719.223.148.033.3.043.45.03zm-1.577.085c.792.8 1.908.86 2.094.545 0 0-.073.54-.666.529-.557-.01-1.335-.956-1.429-1.074zM18.738 9.904c-1.792-.087-1.733 1.543-1.733 1.543-.105-.378 0-1.807 1.625-1.894 1.414-.077 2.478 1.64 2.31 3.114.02-.265-.051-.893-.418-1.542-.406-.716-.879-1.177-1.784-1.221zM16.07 14.1c.067-.005.658.153.75.182.138.047.18.3.184.334-.012-.024-.088-.174-.235-.208-.11-.026-.63-.168-.722-.18-.088-.01-.255.039-.273.043.17-.138.229-.164.296-.17V14.1zm3.777-.8s0 1.798-2.001 2.166c-1.58.29-2.432-.665-2.478-.718 1.343.848 3.82.35 4.479-1.448zm-5.018-.57c.089.052.492.534.589.688.096.155-.088.62-.088.62s.04-.407-.092-.553c-.133-.145-.47-.596-.541-.633a6.022 6.022 0 00-.294-.123c.292-.027.338-.048.426.002zm-.47-1.693c-.033-.136-.252-.306-.279-.328.062.03.347.151.393.222.046.071.105.817.097.895-.009.078-.281.328-.316.36.025-.034.185-.252.185-.37a5.968 5.968 0 00-.08-.779zm.291-.92c-.085.133-.513.146-.513.146s.265-.097.352-.209c.087-.112.308-.801.333-.918.026-.116-.09-.464-.102-.504.21.247.282.382.282.48 0 .098-.265.873-.352 1.005zm1.713-2.38c-.184.244-.415.5-.722.619-.173.068-.758-.142-.758-.142s.535.008.646-.051c.11-.06.56-.522.663-.641.172-.2.156-.666.156-.666.15.553.125.738.015.881zm1.911-1.172c-.123.143-.721.384-.965.43-.243.047-.57-.393-.57-.393s.357.16.556.129c.2-.031.729-.214.843-.34.184-.204.271-.613.271-.613 0 .147-.014.642-.135.787zm1.987.052c-.212.035-.734-.033-.986-.146-.253-.114-.28-.455-.259-.766 0 0 .01.256.136.389.127.133.775.2 1 .19.218-.008.528-.392.559-.437-.013.044-.248.738-.45.77zm.91.215c-.181-.352-.052-.561-.004-.864 0 0 .027.288.103.421.039.067.2.018.446.155.533.3.562.556.659.57.31.043.46-.052.5-.082-.185.225-.487.375-.729.373-.278-.005-.795-.222-.976-.573zm1.024 1.654s-.044-.014-.05-.178a.559.559 0 01.06-.272.507.507 0 01.182-.199c.089-.05.17-.095.353-.023l.202.178a1.561 1.561 0 00-.277-.026s.27.078.396.426c0 0-.338-.273-.55-.292-.213-.019-.312.18-.316.386zm1.853-.122c-.014-.1-.1-.328-.267-.542-.25-.321-.413-.293-.535-.246-.092.036-.163.141-.145.33-.115-.332.035-.527.149-.599.146-.09.318-.205.621-.033.388.219.584.652.594.983-.101-.308-.299-.606-.684-.756.163.166.293.5.267.863zm-.394-.233s.14.287-.029.345c-.157.055-.24-.158-.249-.182.217.107.289-.002.278-.163zm-1.199.586c.199.166.365.084.372-.085 0 0 .174.169.066.304-.108.135-.395-.095-.438-.218v-.001zm.389 1.695s-.064-.354.078-.591c.202-.336.744-.356 1-.074 0 0-.223-.046-.318-.026.133.143.222.327.256.527-.138-.206-.4-.41-.645-.391-.283.024-.356.36-.371.555zm.674.474c-.191 0-.239-.231-.239-.231.062.057.315.057.4-.103.001.001.029.335-.161.335zm-.698 1.396s-.012-.468.336-.58c.348-.112.75-.072.833.272a.66.66 0 00-.293-.097s.118.147.055.678c-.068-.213-.244-.607-.568-.611-.138 0-.303.104-.363.339zm.481.9c-.21.004-.296-.348-.307-.393.126.286.41.1.46-.041.001 0 .098.428-.153.434zm-.092.806c.2.061.378.495.327.88 0 0-.086-.243-.183-.39 0 0 .031.409-.15.743 0 0-.01-.848-.32-.948a.606.606 0 00-.548.11c.241-.52.674-.457.874-.395zm-.577 1.395c-.286-.012-.27-.572-.27-.572.081.205.277.475.539.23 0 .001.017.354-.269.342zm-.293.79c.422.024.573.49.584.719a3.803 3.803 0 00-.284-.27c.008.023.113.369-.053.865 0 0-.061-.88-.504-.992a.7.7 0 00-.7.2c.195-.367.539-.546.957-.523zm-.993 4.366s.031.605.317.755c0 0-.488.016-.712.286l-.331-.538c.34-.075.726-.503.726-.503zm-.928-.236c-.231-.025-.201-.406-.201-.406a.389.389 0 00.109.117.354.354 0 00.296.05.361.361 0 00.137-.075s-.053.345-.341.314zm1.134-3.173c.1.278.329.322.576.122 0 0 .016.478-.375.369-.39-.11-.2-.491-.2-.491zm-1.106 1.566c.49-.113.988.104 1.083.747 0 0-.191-.21-.36-.3 0 0 .102.543.03.83-.137-1.056-.981-1.192-1.324-.541 0-.003.08-.626.57-.738v.002zm-1.104 2.692c.773-.131 1.084.384 1.118.748 0 0-.235-.246-.44-.351 0 0 .193.442.113.852-.197-.78-1.106-1.153-1.558-.574 0 0 .123-.564.767-.675zm.332 1.588s-.116.651-.584.566c-.456-.082-.36-.814-.36-.814.1.53.48.587.944.248zm-1.557 1.843c.834-.059 1.045.527 1.05.71 0 0-.157-.3-.59-.39.025.023.275.262.11.814-.235-.724-.96-1.037-1.458-.315.01-.045.207-.77.888-.819zm.179 1.772c-.012.038-.235.692-.667.59-.501-.116-.312-.774-.312-.774-.006.351.497.639.979.184zm-1.909 1.966c.57-.279 1.168-.037 1.378.372.066.13.11.273.13.42-.154-.246-.533-.47-.557-.482.197.324.116 1.19.116 1.19-.024-.597-.518-1.153-1.01-1.109-.492.044-.672.776-.672.776s.042-.89.615-1.168zm-.317 1.694c.069.245.65.518.965.058 0 0-.063.606-.528.616-.465.009-.437-.674-.437-.674zm2.34 7.848s-.064.298-.064.469c-.358-.235-.996-.407-1.036-.416.927.69.969 1.665.969 1.665-.257-.533-1.01-1.335-1.449-1.015-.307.227-.03 1.132.101 1.496-.024-.036-.432-.78-.478-1.62-.024-.472.059-.488.54-.984.375-.386 1.417.405 1.417.405zm-.131-3.131a.442.442 0 00.43.308c.12-.009.26-.126.296-.361 0 0 .077.69-.289.687-.409-.001-.437-.634-.437-.634zm.13 5.93s-.011.43-.276.365c-.265-.063-.48-.366-.48-.366s.48.171.757 0zm-1.043-6.634c-.084-.442-.492-.682-.517-.696.253.504.186 1.063.186 1.063-.252-.595-.635-.97-1.093-.87-.459.1-.444.678-.444.678-.155-.854.335-1.346.769-1.432a.927.927 0 01.619.083c.192.1.35.262.452.466.14.283.028.708.028.708zm-.927 1.525c-.438-.078-.513-.806-.513-.806.278.526.673.578.749 0 0 0 .189.882-.236.806zM1.655 26.178c.635-1.636 2.367-4.733 6.616-4.62 3.108.085 4.402 1.676 5.118 3.14.805 1.643.504 2.836.461 2.994.028-.16.191-1.287-.603-2.876-.424-.843-1.059-1.68-2.1-2.173.079.055 1.356.964 1.858 2.49-.698-1.486-2.206-2.653-4.734-2.662-2.766-.01-4.167 1.965-4.571 2.646.024-.057.433-1.01 1.21-1.719.579-.528 1.62-1.08 2.798-1.24 0 0-1.469-.06-2.918.966-.705.498-1.539 1.243-2.152 2.363.04-.1.383-.959 1.285-1.895.62-.642 1.291-1.143 2.343-1.546-.088.018-1.521.316-2.988 1.805-.57.58-1.08 1.342-1.525 2.32a7.52 7.52 0 00-.377 1.184c.007-.07.072-.644.28-1.177zM.647 27.7c.02-.204.123-.992.414-.992l-.077.325c-.24.15-.315.53-.337.667zm.139 2.114C.599 30.194.43 30.85.43 30.85s-.076-.548.043-1.052c.048-.198.116-.264.218-.288.42-.1.45-.295.451-.32l-.09 1.49s-.256-.47-.266-.866zm.517 5.05s.32.107.365.22c.046.114.095.524.095.524-.324-.23-.533-.694-.46-.745zm.445-.174c-.325-.214-.743-.942-.843-1.616-.069-.466-.106-.728.142-.886.11-.069.278-.026.525-.155a7.12 7.12 0 00.594 1.675c-.256-.24-.599-.903-.62-.944l.257 1.039c-.13-.11-.554-.902-.58-.95.129.687.386 1.29.691 1.514.193.138.348.033.568 0-.27.143-.41.538-.734.323zm1.248 2.993c-.65-.136-.882-.903-.901-.957.243.436.701.749.937.799.172.031.347.045.522.04 0 0-.342.14-.558.118zm.198-.676c-.52.025-1.1-1.026-1.1-1.52.003-.55.478-.367.77-.664-.032.195-.3.36-.394.393a.27.27 0 00-.13.094c.183.154.355.323.515.505.063.083.126.17.184.266.111.198.205.407.281.624 0 .003.004.006.004.008.048.082.179-.378.6-.494-.47.32-.366.768-.73.788zm2.32 2.323c-.127.162-.26.314-.373.306-.281-.02-.634-.27-.839-.444-.204-.173-.436-.411-.435-.587 0-.059.168-.416.168-.581.028.171.03.346.005.518a2 2 0 00.452.5c.295.233.51.378.643.364.132-.014.215-.164.352-.25.205-.127.37-.095.37-.095-.121.041-.218.106-.344.269zm.077-.897c-.055.246-.378.246-.907-.125-.53-.371-.838-.9-.86-1.159-.02-.26.413-.337.68-.703-.01.031-.182.522-.427.61.302.1.588.252.846.45.433.425.56.633.56.633.03-.095.066-.186.108-.274.09-.203.432-.405.432-.405s-.42.921-.432.973zm.378.05c.037-.167.406-.44.576-.977.055.477-.233.927-.233.927s.408-.107 1.01.048c.6.154.864.404.864.404-.017-.365.135-.729.269-.951-.093.54-.062 1.018-.053 1.204.009.194-.703.321-1.486.116-.782-.205-.983-.607-.947-.77zm2.373 1.55a3.03 3.03 0 01-.234.41c-.064.08-.557.107-.892.03-.282-.063-.58-.222-.633-.323a13.135 13.135 0 01-.107-.692s.197.457.269.536c.072.08.593.35 1.26.228 0 0 .133-.24.223-.333.089-.092.39-.086.39-.086-.138.022-.233.14-.276.23zm.501-1.168c.117-.522.082-.714.105-.974.058.174.086.358.084.542-.005.167-.02.334-.042.5 0 0 .123-.196.494-.345a4.33 4.33 0 01.517-.136c.26-.043.521-.06.783-.054a2.1 2.1 0 01.255.035s-.089-.347.139-.928c-.042.547.1 1.024.205 1.297.127.336-.538.62-1.263.65-.716.034-1.379-.13-1.277-.587zm2.515 1.103c-.006.163-.006.377-.078.416-.072.038-.451.163-.931.19-.48.026-.788-.073-.835-.136-.047-.065-.114-.418-.21-.529a.39.39 0 00-.234-.123s.31-.06.432.084c.122.143.156.4.21.429.053.03.931.07 1.405-.095 0 0 .044-.165.079-.334.035-.168.353-.207.353-.207-.149.096-.185.141-.19.305zM2.96 34.241a6.323 6.323 0 01-.996-2.359c-.308-1.463-.296-3.026.395-5.123-.277 1.569-.25 2.837-.093 3.831.32 1.999 1.174 2.888 1.174 2.888-.483-.966-.745-1.954-.755-2.96-.015-1.572.095-2.259.888-4.473-.71 2.747-.563 4.922.294 6.65.695 1.4 2.075 2.094 2.951 2.303 2.287.55 3.997.062 9.32-2.78l.016.371s-.789.252-.996 1.157c-3.236 1.66-5.828 2.754-7.882 2.584 2.206.476 5.261-.778 7.834-2.05.002.061.006.124.011.188l-.329.179c-1.32.71-2.51 1.32-4.316 1.834-2.755.79-4.833-.142-4.924-.184.927.704 3.35.913 4.907.525 1.761-.44 3.181-1 4.767-1.817.03.11.067.216.108.32-4.83 2.375-9.273 3.356-12.374-1.084zm11.142 4.93c-.002.21-.013.497-.035.55-.036.083-.209.155-.537.305-.258.117-.685.183-.844.098-.172-.092-.299-.31-.377-.488-.06-.137-.243-.104-.243-.104s.193-.11.305 0c.131.13.344.337.447.344.234.014.828-.153 1.015-.3.068-.054.092-.246.106-.406.025-.262.314-.268.314-.268s-.15.047-.151.27zm-1.059-.269c-1.099.277-1.215.083-1.225-.276-.014-.55-.147-.712-.05-.918.132.309.226.733.211.813 0 0 .127-.41.83-.604.704-.194 1.08-.1 1.08-.1s-.154-.427-.102-.782a1.125 1.125 0 01.04-.154c-.009.41.236.903.389 1.114.214.302-.046.626-1.172.908zm2.362.255c-.284.054-.402-.033-.613-.466 0 0 .357.248.553.281.173.028.56-.026.65-.039a.01.01 0 010 .006 2.276 2.276 0 01-.59.219zm-.631-1.066c-.317-.175-.252-.907-.558-1.268.024.014.424.258.475.859.094-.209.228-.393.393-.54.165-.149.356-.257.563-.319.502-.154.878-.09 1.056-.04l.18.293-.46.469c-.076.076-.143.16-.201.252-.436.228-1.185.442-1.448.297v-.003zm7.408 14.496c.246.033.637-.033.984-.519.04-.056.117-.066.068.163-.1.456-.715 1.072-1.65.683-1.084-.464-.92-1.827-.92-1.827.089 1.117.77 1.413.811 1.429-.382-.393-.36-1-.36-1 .132.638.564 1.004 1.069 1.073l-.002-.002zm.164-2.459c-.179.019-.173-.027-.33-.26.096.05.194.093.295.13.09.027.43-.057.477-.069-.038.025-.27.183-.44.201l-.002-.002zm1.146-.366c-.148-.064-.144-.283-.202-.469.02.05.095.24.231.341.156.117.53.136.53.136s-.408.059-.558-.008h-.001zm1.226.335c-.037-.045-.062-.313.064-.562 0 .137.006.275.018.412.019.125.242.466.29.52a7.41 7.41 0 01-.371-.37h-.001zm-1.134 5.453c.068-.087.346-.354.48-.428.135-.074.222-.097.28-.096.131.01.255.068.35.167a.581.581 0 00-.494.017c-.104.055-.457.335-.53.433a1.064 1.064 0 00-.123.292c-.01-.173-.029-.295.039-.384l-.002-.001zm-1.487.519c.084-.075.56-.233.674-.242.107-.01.439.24.478.272-.035-.019-.286-.152-.46-.16-.19-.011-.558.166-.636.233-.154.128-.173.41-.173.41-.027-.126.035-.437.119-.513h-.002zm-1.522-.07c.104-.05.575-.018.875.067.126.033.21.41.231.448-.03-.033-.134-.248-.27-.247-.415.005-.455-.008-.576-.021-.102-.01-.265-.088-.307-.078-.123.033-.304.212-.326.233.103-.175.271-.353.373-.402zm.209.596c.373-.007.919.115.94.47.023.384-.45.533-.796.555-.308.023-.62-.02-.767-.082.339.377.716.508.798.508-.43.087-.919.02-.919.02.666.469 1.946.278 1.995-.03.023-.135-.104-.907.172-1.248.126-.169.48-.41.938-.448.457-.038.54.214.54.214s-.01-.294.116-.514c.188-.327.523-.537.798-.62.151-.046.575.06.575.06s-.302-.513-.294-.717c.018-.433.335-.927.45-.989.273-.144.575-.046.621-.03-.051-.033-.43-.285-.423-.771.003-.08.1-.467.183-.602.084-.135.1-.27.4-.277.298-.007.415.04.385-.084-.03-.123-.546-.232-.68-.366-.133-.133-.184-.5-.192-.572-.007-.073.446-.348.474-.364-.024.027-.33.377-.269.37.096-.01.231.394.198.436-.062.08.618.124.787.358.168.235.197.371.197.371-.072-2.192-1.91-3.202-3.099-3.255-1.189-.054-2.385.723-2.684 1.556a2.25 2.25 0 00-.126.636c-.12-1.275 1.017-2.54 2.501-2.557 1.78-.02 2.71 1.024 2.759 1.086a3.393 3.393 0 00-2.798-1.404c-1.975.02-2.799 1.803-2.799 1.803s.038-.557.618-1.204c.468-.52 1.122-.8 1.876-.938 0 0-1.593-.123-2.67 1.261.546-1.147 1.845-2.117 3.844-1.712 2.45.495 3.66 3.379 3.732 5.036.08 3.02-1.45 6.03-4.597 6.913 2.06-.756 2.873-2.71 2.9-2.786-1.92 2.525-4.683 2.342-4.683 2.342 4.474-.333 5.228-4.678 5.25-4.813-.816 2.911-3 4.467-5.974 4.467-.9 0-2.279-.253-3.65-1.229-1.132-.806-2.006-1.848-2.835-3.203.18.677.707 1.612 1.148 2.154 1.03 1.263 1.39 1.438 2.373 2.162-1.433-.46-2.712-2.162-3.284-3.04-1.762-2.706-1.702-5.676-1.702-5.69-.12 1.922.31 4.673 1.624 6.557-1.064-1.337-1.798-3.015-2.07-4.916-.359-2.538-.039-4.33.963-6.99.63-1.68 1.569-3.132 2.681-4.406.092.22.193.428.292.614-1.01 1.19-1.495 2.103-1.524 2.159.493-.7 1.04-1.354 1.634-1.955.076.133.142.241.197.329-.4.412-.775.852-1.12 1.318.314-.267.823-.289 1.12-.16.369.161.5.53.558.682.134.357-.217.773-.217.773.172-.4-.223-.72-.407-.733-.484-.04-.89.252-1.143.733 0 0 .028-.533.593-.994-.049.019-.682.337-.907.756.069-.4.061-.535.261-.836-.007 0-.506.35-.575 1.022-.326.589-.704 1.34-.864 1.887.172-.215.366-.457.79-.497.893-.082 1.26.853 1.018 1.563.05-.197-.08-.82-.612-.875-.426-.042-.747.25-.902 1.006 0 0-.089-.425.08-.98a1.67 1.67 0 00-.404.867l-.098-.623c-.083.26-.208.888.198 1.376-.317-.126-.448-.33-.448-.33s-.177 1.573-.178 2.18c0 0 .021-.222.235-.535.324-.474.808-.54 1.328-.383.7.21.586 1.232.567 1.501 0 0-.092-.84-.635-.86-.73-.026-.878 1.045-.889 1.436 0 0-.314-.643-.063-1.307-.03.03-.62.742-.17 1.707-.054.097-.323-.133-.313-.017.058.71.19 1.41.392 2.087-.002-.37.132-1.123.67-1.304.256-.128.573-.134.79-.073.544.15.52.878.52.878-.073-.233-.342-.638-.707-.59-.365.05-.61.682-.404 1.377-.298-.297-.34-.937-.34-.937-.148.333-.14.938-.14.938a5.539 5.539 0 01-.168-.85c-.137.435-.125.663-.057 1.004.298.706.719.6 1.314.6.15 0 .143.19.234.333.104.167-.254.44-.128.598.065-.015.173-.203.23-.26.177-.182.143-.157.403-.3.26-.142.942.39 1.22.84.276.449.288.911-.17.832-.443-.075-.878-.574-.905-.605.155.482.683.819.683.819a1.902 1.902 0 01-.891-.66c.434.874 1.172 1.165 1.327 1.018.154-.147.413-.74.494-.83.08-.09.4-.3 1.028.157.63.457.743 1.226.028 1.22-.715-.006-1.065-.4-1.065-.4.154.342.408.62.721.79-.488-.033-.877-.4-.924-.443.539.801 1.445.966 1.739.75.064-.048.224-.59.24-.677a.711.711 0 01.063-.206c.145-.307.405-.402.876-.408zm-3.812-7.175c-.357-.105-.718.305-.784.833 0 0-.097-.748.192-1.03 0 0-.217-.045-.366.098a.414.414 0 01.076-.273c.159-.2.527-.297.843-.121.233.129.497.551.391 1.18 0-.026-.004-.586-.352-.687zm.072 1.06s-.037.319-.253.309c-.217-.01-.275-.308-.275-.308.453.201.528 0 .528 0zm-.85-6.457c.119.462.312.378.523.221-.025.034-.134.485-.481.365-.264-.092-.042-.586-.042-.586zm-.613 3.047c-.03.293-.21.562-.44.5-.392-.108-.257-.547-.257-.547.083.185.495.301.697.047zm-.492 3.844c-.443-.029-.415-.674-.415-.674.022.122.193.396.402.396.27 0 .316-.229.402-.484 0 0 .053.79-.389.762zm.639 2.656c-.298 0-.342-.356-.342-.356.197.16.464.096.57-.239 0 0 .155.597-.228.595zm3.388 1.714c.28.023.735.35.805.496.12.249-.03.54-.042.551.005-.03.143-.358-.033-.433a4.57 4.57 0 01-.495-.244c-.117-.07-.253-.228-.291-.239-.131-.042-.373.078-.394.087.206-.162.398-.223.45-.218zm-.861-.773c.281.358.222.62.101.69-.192.108-.504-.02-.791-.404-.193-.258-.37-.542-.39-.735a.472.472 0 00-.11-.038c-.164-.033-.376.157-.4.178.032-.038.3-.415.614-.389.313.027.64.273.975.697zm-1.383-1.843c.307.282.422.07.445-.07 0 0 .154.399-.1.399-.337 0-.347-.329-.347-.329h.002zm.693-.246s-.162-.594-.558-.646c-.518-.068-.443.607-.443.607s-.143-.286-.11-.533l-.157.375c-.032-.59.248-.849.649-.761.42.093.644.428.617.958h.002zM16.922 48c-.401-.084-.204-.637-.204-.637.007.477.528.474.655.266-.002.001-.045.458-.452.371h.001zm.822-.742s.031-.552-.434-.626c-.32-.05-.707.22-.815.425 0 0 .037-.39.27-.677 0 0-.366.16-.468.413 0 0-.008-.263.235-.563.216-.266.606-.25.804-.182.426.144.582.804.407 1.21h.001zm.205-1.94c-.257-.124-.005-.578-.005-.578.004.439.184.43.51.24-.002 0-.201.485-.506.338h.001zm.715-.366c.011-.04.18-.639-.15-.811-.302-.157-.728.203-.852.463 0 0 .059-.518.528-.728a.638.638 0 00-.691.09c.112-.19.126-.218.265-.318.584-.424.98-.092 1.17.337.101.233-.029.755-.271.966h.001zm1.97-4.195c-.264.104-.707-.326-.707-.366 0-.04.384.17.707-.247-.001 0 .264.507-.001.612l.001.001zm3.49 4.447c-.01.292-.348.425-.485.421-1.256-.024-2.284-.49-2.887-1.444-.228-.361.357-.578.592-.982 0 0 .714.143.973.466-.166-.026-.57-.15-1.045.013.646.087.949.228 1.172.469-.682-.167-1.06-.143-1.117.02-.116.333.568.729.804.832.83.369 1.582.386 1.46.04-.123-.353-.54-.619-.59-.65.483.193.89.52.851.853.135-.107.298-.79.298-.79l-.025.752zm-.88-1.788c-.43-.236-.573-.683-.605-.813.133.42.906.87 1.671.81-.001-.002-.472.33-1.067.002l.002.001zm3.181 2.188c-.414-.206-.116-.626-.288-.928l.076.13c.144.253.412.148.703.122-.492.206-.282.341-.282.341.495.163.932.054 1.416-.094.37-.11.24-.39.185-.537a.761.761 0 00-.034-.079l.395.459c-.363.751-1.757.788-2.172.584l.001.002zm1.7-1.58c-.354.038-.553-.371-.576-.421.288.342 1.123.2 1.123.2s-.17.18-.548.22l.001.002zm.735.25s.584-.02.683-.458c.098-.438-.738-1.065-1.476-1.054-.769.009-1.172.166-1.268.645-.092.464.35.847.375.866-1.18-.458-.612-1.279-.603-2.06l.207.5s.35-.477 1.199-.46c.86.018 1.268.506 1.357.625-.292-.456-.131-.8-.131-.8.08.645.567.8.621 1.52.054.72-.966.676-.966.676h.002zm2.75-1.096s.783-.05 1.269-.671c-.127.34-.525.794-1.27.67v.001zm1.76-.807c.12-.293-.227-.918-1.526-.207-1.058.578-1.01 1.223-.769 1.252-.285-.009-.477-.09-.513-.186-.08-.204-.148-.925-.319-1.238.072.116.282.464.4.743.168-.547 1.273-1.405 2.45-1.314.225-.15-.019-.703-.034-.747.033.044.567.74.549 1.024-.012.136.072.427-.24.672h.002zm8.778 14.823c.771-.013.914-.506.914-.506s.163.683-1.023.721c-1.245-.026-1.503-1.344-1.503-1.647.26.924.787 1.444 1.61 1.43l.002.002zm-.052-3.456c-.045.069-.576.321-.668.342-.082.018-.409-.166-.432-.186.028.01.324.096.487.04.164-.057.414-.195.47-.254.054-.06.205-.4.205-.4-.01.152-.018.388-.064.456l.002.002zm1.694.107c-.1.03-.748-.068-.911-.107-.164-.038-.297-.294-.323-.46 0 0 .188.225.395.294.206.069.667.097.793.079.125-.018.415-.275.415-.275-.11.203-.273.438-.37.467v.002zm1.495 1.083c-.171-.087-.737-.566-.765-.633-.028-.066-.055-.333 0-.722 0 0 .127.557.199.635.071.078.549.498.701.567.153.068.677.04.677.04-.202.083-.641.2-.813.111l.001.002zm.953 1.759c-.017-.032-.288-.533-.34-.733-.055-.205.008-.323.234-.608l.18-.183c-.014.03-.243.503-.253.701-.01.2.168.784.18.82v.003zm-2.894-4.526c-2.509-.172-3.522 2.062-3.564 3.173-.01-.546.028-1.379.76-2.352-.026.021-.46.363-.672.766.097-.47.877-2.198 3.476-2.25 2.344-.046 4.035 2.188 4.301 2.761-.076-.107-1.316-1.835-2.933-2.252.074.041 2.456 1.384 3.074 3.589-.056-.1-1.814-3.256-4.442-3.435zm3.58 5.733c.081.616-.307 1.041-.414.156-.036-.28-.045-.51-.012-.676a.177.177 0 01.043-.09.153.153 0 01.083-.046 2.22 2.22 0 00.642-.31c-.081.283-.46.378-.445.437.047.173.081.35.103.53zm-.307 1.129c.115-.08.162-.05.3.003.037.015.52.164.73.184.01 0-.098.57-.3.784.126-.303.008-.623.008-.623s-.11.43-.374.755c.176-.5-.003-.836-.004-.815a.836.836 0 01-.009.088c-.054.39-.466 1.064-.717.9-.13-.089-.126-.935.366-1.276zm-1.625 2.185c.03-.064.277-.469.36-.547.083-.077.21-.084.439-.077-.106.025-.21.06-.312.104-.102.051-.296.397-.385.54-.083.133-.033.35-.026.381-.087-.094-.107-.336-.076-.4zm-1.515 1.035c.093-.123.512-.5.77-.558.256-.059.655.156.655.156s-.45-.066-.601-.021c-.15.046-.666.437-.738.514a2.41 2.41 0 00-.22.36c.02-.053.051-.334.135-.45zm-2.047.945c.015-.235.098-.222.581-.45.302-.142.793-.213.898-.132.068.067.149.314.298.396-.123-.013-.378-.3-.441-.267-.048.027-.356.223-.639.3-.282.078-.414.1-.485.123-.14.045-.112.386-.328.514.025-.027.104-.178.116-.484zm-2.252-.403c.087-.105.423-.107.849-.03.392.069.643.184.783.347.097.11.23.543.386.674-.277-.129-.277-.387-.481-.481-.172-.08-.478-.027-.778-.069-.585-.079-.587-.31-.75-.286-.1.017-.131.117-.37.112.157-.09.32-.212.362-.267zm-.983-.525c.123.15.241.478.241.478s-.272-.283-.364-.344c-.09-.062-.522-.5-.522-.5.233.005.525.214.647.366h-.002zm-2.707-4.953c.119.169.167 1.015.155 1.262-.012.246-.909.44-1.03.544-.121.105-.142.17-.045.262.096.092 1.014-.119 1.123-.087.271.078.584.742.59 1.378 0 .087-.687.593-.759.789-.072.195.143.045.254.018.112-.027.37-.236.535-.237.395-.005 1.014.697 1.098 1.048a.756.756 0 01-.062.44c-.079.161-.147.33-.202.502-.038.121.418-.282.563-.393.145-.11.324-.049.707.16.286.154.608.57.632.725.023.15-.056.542-.064.578.015-.01.15-.023.258-.259.114-.251.192-.392.946-.3.467.058.895.207.945.398.059.23.132.704.168.795.037.09.137-.248.192-.594.054-.345.019-.518.577-.879.464-.3.847-.209 1.076-.15.23.06.305.406.397.328.093-.078-.054-.3 0-.53.055-.231.185-.643.69-.864.504-.22.793-.157.926.052.133.208.324.596.553.656.23.059.756-.317 1.008-.811-.023.018-.405.31-.744.324 0 0 .433-.416.482-.742 0 0-.613.443-.854.443-.242 0-.505-.247-.144-.808.36-.56.53-.623.747-.648.217-.025.274.194.575.4.302.206.433.117.433.117s.676-.924.885-2.098c-.036.302-.497 3.612-2.856 5.06-.75.46-1.285.856-2.065 1.127-1.278.443-1.906.51-2.597.535.571.026 1.428.057 2.383-.247 1.276-.402 1.727-.69 2.37-1.09-.132.129-2.622 2.48-6.58 1.74-1.477-.277-2.797-1.214-3.7-2.171-1.386-1.474-1.862-2.805-2.222-4.289.576 1.562 1.68 4.394 5.408 5.673-.178-.08-2.396-1.096-3.904-3.484-.592-.933-1.528-3.204-1.264-5.457.013 1.757.61 3.728 1.623 5.234.541.802 1.213 1.57 2.009 2.05-.12-.095-1.594-1.288-2.45-3.847-.735-2.195-.796-4.6.04-7.234-.062.26-.777 3.531.042 6.206l1.056-.415-.264-.946-.144.685-.217-.685-.144.52s-.504-.406-.312-2.087c0 0-.029 1.083.553 1.17.339.051.504-.037.626.133h-.002zm.137-2.255c0 .424 0 .652-.092 1.046-.069.3-.443.285-.443.285s.183-.188.222-.414c.049-.285 0-.866 0-.866s-.115.419-.236.688c.004-.303.008-.658-.049-.84-.03.32-.271.723-.271.723s.067-.744.04-.754c-.184-.066-.291-.297-.066-.978-.047.348.092.68.42.752.33.07.478.067.478.358h-.003zm.053-1.2c.017-.044.212-1.022.218-1.3-.228.41-.413.6-.433.622.016-.044.285-.777.251-.821-.15-.187-.282-.352-.236-.57.038-.193.115-.374.225-.529-.151.555.262.937.406 1.123.144.186-.15 1.118-.43 1.474h-.001zm1.58-3.684c-.09.196-.441.957-.73 1.162 0 0 .499-1.088.514-1.294-.19.29-.592.61-.643.649.038-.048.3-.383.392-.842a.515.515 0 01-.067-.26c.02-.295.101-.596.353-.84-.243.468-.135.693 0 .888.136.196.273.342.183.539l-.002-.002zm.759-1.555l.376-1.102c-.018.025-.31.43-.52.6.114-.183.401-.833.383-.867-.066-.112-.108-.183-.108-.266 0-.144.168-.436.385-.574-.197.326-.227.496-.127.63.137.189.234.315.246.379.012.064-.442.998-.633 1.2h-.002zm2.126-3.295c-.24.45-.588.792-.664.902.067-.114.416-.707.471-1.052.04-.266-.054-.284-.097-.492-.04-.197.157-.38.18-.4-.092.154.05.39.157.558.06.089.062.284-.045.484h-.002zm4.718-4.49c-.233-.276-.135-.615-.135-.615.199.643.687.8.719.808.032.01-.346.08-.581-.193h-.002zm1.82.42c-.032.095-.07.188-.112.278-.216.463-.731-.003-.731-.003s.452.048.515-.195c.026-.103 0-.233-.079-.384-.105-.21-.307-.461-.598-.748a5.334 5.334 0 00-.844-.697c-.264-.167-.503-.255-.642-.174-.279.16-.137.697-.128.733-.022-.035-.364-.592-.149-1.053.061-.129.189-.174.378-.218.225-.053.538-.1.934-.29l-.682.536s.568.07 1.236.752c.667.683.809 1.149.809 1.149.075-.267.439-.545.483-.579-.186.184-.256.53-.388.893h-.002zm-2.577-2.74c.004.008.008.013.013.02-.005.002-.009-.007-.011-.02h-.002zm4.22 3.997c.484.621 1.269.671 1.269.671-.746.125-1.144-.328-1.267-.67h-.002zm1.033-.343c-1.299-.71-1.646-.085-1.526.207-.313-.245-.229-.535-.237-.672-.019-.285.515-.98.548-1.024-.015.043-.259.595-.035.747 1.179-.092 2.283.766 2.451 1.313.119-.28.328-.627.4-.743-.17.313-.24 1.032-.319 1.239-.036.095-.227.176-.513.186.243-.029.29-.673-.766-1.253h-.003zm.833 2.112h.566c.036.174.349.283.349.283-.383.065-.767-.116-.912-.283h-.003zm1.189-.678c.053-.719.54-.875.621-1.52 0 0 .16.346-.13.8.086-.118.494-.607 1.355-.624.848-.018 1.199.46 1.199.46l.207-.5c.008.781.576 1.601-.603 2.06.025-.021.466-.404.373-.867-.094-.48-.498-.636-1.267-.645-.737-.01-1.575.615-1.475 1.055.1.44.683.457.683.457s-1.016.044-.961-.675h-.002zm2.275.005c-.022.05-.223.46-.577.422-.378-.04-.546-.22-.546-.22s.834.14 1.123-.201zm1.122 2c-.414.205-1.809.167-2.17-.584l.395-.459a.74.74 0 00-.033.078c-.056.148-.185.427.184.537.484.148.922.257 1.418.094 0 0 .206-.133-.284-.34.291.025.56.13.704-.122l.074-.13c-.17.302.128.72-.287.927zm5.675-1.422c-.604.954-1.629 1.42-2.886 1.445-.137.003-.476-.13-.487-.421l-.025-.75s.163.682.297.789c-.039-.333.367-.66.852-.853-.05.03-.465.297-.59.65-.123.346.63.329 1.461-.04.235-.104.918-.5.803-.833-.056-.162-.434-.187-1.118-.02.224-.24.53-.381 1.173-.468-.476-.163-.88-.039-1.045-.013.26-.325.973-.466.973-.466.233.402.82.62.593.98zm-3.56-.768c.766.06 1.538-.39 1.671-.81-.03.13-.175.578-.603.814a1.034 1.034 0 01-1.066-.004h-.001zm3.677-2.655c-.265-.105 0-.612 0-.612.325.416.707.207.707.246 0 .04-.443.47-.706.366zm1.37-.694c.018-.055.317-1.036.084-1.442-.506-.886-1.695.208-1.876 1.042 0 0-.206-.892.596-1.489 0 0-.787.108-1.051 1.059.005-.446.149-.878.408-1.225 0 0-.961.367-.768 2.058 0 0-.203-.417-.193-.559 0 0-.636.703-.997.963 0 0 1.006.576 1.203.912.38.65-.079 1.33-.37 1.745.05-.103.74-1.56-.401-1.432-.704.078-1.973.755-2.316 1.575-.267.64.532.888.532.888-.974.01-.918-.504-1-.96a6.06 6.06 0 00-.293-1.003c.297.466.374.657.437.9.143-.37.135-.575.878-1.154.783-.611 1.525-.78 1.525-.78-.944-.076-1.562.183-1.99.515.175-.377.653-.858 1.344-1.122-1.478.12-2.303 1.245-2.303 1.245a.652.652 0 01-.584-.067c-.29-.18-.66-.326-1.381-.326-.939 0-1.406.222-1.707.195-.3-.026-.457-.285-1.128-.728a3.14 3.14 0 00-1.636-.522c-.61-.038-2.752-1.435-4.221-3.834-.448-.732-.856-1.889-1.106-3.202l.002-.044c.712 2.192 2.213 4.535 4.444 6.011 3.301 2.187 6.528 1.712 7.421 1.516a10.447 10.447 0 01-3.456-.225c-2.445-.566-3.403-1.293-4.665-2.4-1.916-1.684-3.24-4.897-3.925-7.188-.029.186-.176.66-.163.991-.43 2.232-1.182 5.59-2.167 7.755-1.563 3.431-3.845 7.108-3.916 7.223.016-.053.332-.99 2.425-5.101 1.998-3.917 2.498-8.677 2.562-9.388-.16 1.36-1.243 6.116-3.403 9.83-2.175 3.743-3.35 7.201-3.386 7.308.01-.087.309-2.234 1.92-5.446 1.982-3.944 2.705-5.496 3.2-7.922-.78 2.265-1.239 2.973-3.377 7.031-2.235 4.246-2.483 5.3-3.328 8.25.108-1.029.628-3.116 1.267-4.753 1.506-3.855 2.238-4.617 3.297-7.81-.988 1.94-2.98 5.496-3.85 7.684-1.668 4.194-2.036 7.05-2.115 8.23.303-6.985 4.575-15.103 4.778-15.486-2.494 3.892-3.693 6.785-4.508 9.631-1.328 4.638-1.12 7.49-1.092 7.798-1.004-6.377 2.91-14.587 4.488-17.57 2.96-4.527 3.036-8.797 3.036-11.332-.024.37-.36 4.796-2.217 7.886-1.946 3.24-3.82 4.505-4.642 4.557-.364.023-.963.078-1.634.522-.672.445-.83.703-1.129.728-.298.026-.768-.195-1.705-.195-.722 0-1.091.146-1.384.326a.667.667 0 01-.584.067s-.825-1.124-2.302-1.245c.69.264 1.17.745 1.343 1.122-.427-.333-1.047-.59-1.99-.515 0 0 .743.169 1.527.78.742.58.733.783.877 1.153.063-.242.142-.433.438-.9a6.084 6.084 0 00-.294 1.005c-.084.455-.027.969-1 .96 0 0 .798-.25.532-.889-.344-.82-1.612-1.497-2.318-1.575-1.14-.127-.45 1.33-.4 1.432-.29-.415-.749-1.095-.37-1.745.196-.336 1.202-.912 1.202-.912-.36-.26-.998-.963-.998-.963.012.142-.191.559-.191.559.191-1.691-.769-2.058-.769-2.058.26.347.404.779.41 1.225-.266-.95-1.051-1.059-1.051-1.059.799.597.593 1.49.593 1.49-.18-.834-1.37-1.93-1.875-1.043-.23.406.066 1.387.083 1.442-.852-1.196-.347-2.328.134-2.752.481-.423 1.128-.123 1.128-.123l-.378-.904-.102-.592c-.18.15-.613.174-.613.174.505-.09 1.04-.727.907-1.457-.133-.73-.384-.872-.384-.872.277.619.085 1.06.085 1.06a1.394 1.394 0 00-.588-1.007 1.515 1.515 0 01.136 1.405c-.105-.78-.639-1.446-1.33-1.244-.66.193-.525 1.197-.511 1.283-.44-1.388.572-2.089.836-2.16.264-.07.966-.358.966-.358a1.912 1.912 0 00-1.977.633c-.216-.417-.744-.626-.744-.626l-.055-.708s.4-.003.678-.13c.5-.224.542-.7.542-.7s.253.555.776.684 1.578.019 1.79-.774c.21-.794.048-1.2.048-1.2.078.49-.234.84-.234.84.085-.45-.11-.847-.11-.847.098.554-.33 1.03-.33 1.03.114-.717-.224-1.691-1.014-1.545-.646.121-.736 1.038-.736 1.038-.113-.852.135-1.194.367-1.384l-.659-.9c.666-.269.826-.512.826-.512s.164.674.759.974c.45.228.95.384 1.537-.058.546-.41.618-1.583.618-1.583-.197.874-.694 1.203-.726 1.222.37-.51.372-1.37.372-1.384-.18.895-.817 1.277-.857 1.3.031-.029.405-.382.51-.846.107-.48-.086-1.413-.747-1.413s-.859.567-.859.567c.025-.554.355-1.023.86-1.082.49-.056.94.249.966.267-.469-.747-1.393-.487-1.393-.487l-.222-.613c.3-.066.72-.558.72-.558s.397.975 1.359.897c.962-.078.996-1.054.996-1.054-.12.358-.414.553-.414.553.204-.404.103-.755.103-.755a.887.887 0 01-.198.417c-.1.116-.228.2-.37.243 0 0 .325-.437.27-1.126-.055-.69-.87-.764-1.23-.321.284-.771.91-.859 1.5-.52.484.281.54.855.54.855.024-.841.512-1.129.912-1.666.095-.13.164-.282.203-.443.038-.162.046-.33.022-.494-.14.755-.588.757-.595.757.346-.43.248-.983.248-.983-.168.63-.577.86-.61.874.461-.674.072-1.457-.433-1.495-.474-.037-.66.26-.682.296.09-.507.404-.88 1.13-.825.765.057 1.073.451 1.073.451.011-.423.274-.713.553-1.206.278-.493.222-1.037.222-1.037a.827.827 0 01-.288.528c.127-.468.013-.807.013-.807 0 .325-.266.664-.266.664.103-.514-.156-.944-.51-.964a.548.548 0 00-.289.06.6.6 0 00-.226.204c.145-.633.662-.678.92-.657.257.02.754.045 1.001-.398.247-.443.3-.79.3-.79-.144.247-.274.333-.274.333a2.17 2.17 0 00-.046-.723c.013.507-.242.636-.242.636s.07-.964-.492-1.04c-.44-.061-.598.373-.598.373.012-.795.805-.95 1.249-.754.444.196.53.686.53.686.101-.39-.067-1.055-.067-1.055.349-.363.222-1.216.222-1.216.013.266-.191.645-.191.645.047-.4-.204-.69-.204-.69.066.384-.265.703-.265.703.078-.367-.012-1.06-.438-1.06a.579.579 0 00-.337.096.65.65 0 00-.234.279c.042-.748.775-.703 1.107-.676.204.02.398.104.56.24-.054-.299-.197-.376-.197-.376s.215-.215.163-.979c-.024-.322-.13-.578-.333-.779.064.26.103.424.052.603 0 0-.077-.394-.361-.57a1.094 1.094 0 01.012.842s-.062-.614-.296-.748c-.233-.133-.562 0-.7.392 0-.437.02-.655.332-.756.412-.135.686-.269.829-.252-.035-.076-.136-.55-.29-.823-.035-.063-.082.26-.371.325.19-.192.138-.7-.01-.916-.933-1.365-2.682-2.815-5.335-2.765-3.441.064-4.834 2.286-4.875 2.355.912-.938 2.317-1.433 2.49-1.49-1.152.453-2.783 2.219-3.213 4.29-.422 2.028.603 3.798.657 3.89-1.834-1.841-.686-5.714-.646-5.852-1.276 1.776-1.117 3.898-1.107 4.033-.757-4.147 2.204-8.594 7.32-8.254 5.116.34 7.641 5.806 6.586 10.883-1.054 5.077-3.942 11.119-4.904 16.042-.568 2.907-.168 5.365 1.4 6.587 1.084.843 2.599 1.374 4.837.657 4.685-1.505 6.091-6.386 6.091-8.313-.023.19-.056.38-.094.567l.002-.02c-.584 2.235-5.983 4.095-10.378 6.38a3.324 3.324 0 01-.277-.22c1.43-.79 2.698-1.425 3.992-2.075 1.808-.906 4.034-1.794 4.971-2.891-1.297.887-2.475 1.248-5.11 2.489-1.41.661-2.898 1.32-4.271 2.041a3.74 3.74 0 01-.459-.744c2.48-1.47 4.877-2.526 6.4-3.406 3.64-2.11 3.711-3.868 3.711-3.868-2.08 1.629-4.967 1.424-10.517 3.898a9.15 9.15 0 01.035-.324c2.637-1.16 4.919-1.954 8.022-2.711 0 0-2.549-.044-7.94 2.132l.029-.173c1.632-.72 3.627-1.622 5.845-2.038-2.12.227-3.972.814-5.76 1.575.11-.546.246-1.085.388-1.6 1.906-.822 3.571-1.282 5.033-1.716 3.109-.923 5.13-1.088 5.727-1.118-.075.299-.18.589-.31.864.566-.39 1.08-1.288 1.08-1.288.216.691.216 2.032.216 2.032.266-.91.36-2.135.36-2.135.518 1.446.242 4.062.242 4.062.504-1.105.84-4.164.84-4.164.412 1.54-.061 4.15-.082 4.267.044-.087.987-1.916.922-4.675.21.992.338 2.407.165 3.72 0 0 .65-1.074.477-4.442-.101-1.98-1.335-3.815-1.45-3.98.201.377.423 1.65.581 2.703-.529-2.495-1.779-3.27-1.779-3.27 1.322 1.615 1.081 3.84 1.081 3.84-.33-2.525-1.99-3.813-2.041-3.852 1.433 1.852 1.032 4.092 1.032 4.092-.486-2.872-1.766-4.367-2.823-4.12-1.056.246-.913 1.21-.913 1.21-.588-1.509.202-3.065 1.427-3.16 1.142-.086 2.442.978 3.03 1.613a3.264 3.264 0 00-.333-.55c-.05-.225-.26-1.085-1.011-3.344-1.031-3.095-.757-5.437-.475-6.43-.077.212-.871 2.43-.426 4.658.414 2.08.807 2.77.845 3.997a2.51 2.51 0 00-.16-.11c-.11-1.253-.994-2.934-1.25-5.065-.271-2.245.153-3.972.576-5.487 0 0-1.368 2.804-1.138 5.487.243 2.787.749 3.067.828 4.697h-.033c-.248-1.241-.861-1.848-1.236-3.898-.424-2.313.215-5.936 1.073-7.831-1.316 2.052-2.007 4.812-1.766 7.44.19 1.98.795 3.416 1.018 4.406-.006 0-.013.005-.021.007-.379-1.237-1.435-2.805-1.502-5.44.009-3.043.698-5.548 2.108-7.37.144-.185.382-.35.672-.576a3.478 3.478 0 00-.244.877s.599-1.512 1.85-2.003c-.059.156-.103.306-.163.478.071-.143.676-1.32 2.046-1.535-.18.297-.318.625-.377.924 0 0 .815-1.451 2.429-1.698l.007-.006a1.853 1.853 0 00-.061.077c-.161.215-.348.606-.554 1.2.085-.204.413-.897 1.055-1.24a3.298 3.298 0 011.519-.373 3.3 3.3 0 011.52.374c.641.342.968 1.035 1.053 1.239-.208-.593-.391-.984-.553-1.2-.018-.025-.038-.047-.056-.071 1.614.246 2.429 1.698 2.429 1.698a3.014 3.014 0 00-.376-.924c1.369.215 1.974 1.392 2.045 1.535-.062-.172-.102-.322-.163-.478 1.252.49 1.85 2.003 1.85 2.003s-.04-.384-.242-.877c.287.227.526.39.67.577 1.411 1.821 2.1 4.326 2.108 7.37-.042 1.644-.557 3.091-1.017 4.212.235-.775.492-1.949.639-3.615C50.722 9.964 49.654 7 49.654 7c.272 1.552.353 2.116.403 3.149.11 2.263-.547 4.272-.592 4.427.424-1.88.344-3.619.26-4.35-.29-2.558-1.302-4.66-1.302-4.66.47 1.918.612 3.087.677 4.7.117 2.785-.355 4.998-.409 5.235.242-1.462.311-2.937.205-4.23-.385-4.698-2.275-7.175-2.336-7.252 1.057 2.627 1.575 5.34 1.655 7.632.088 2.567-.286 4.145-.593 5.138.315-1.207.45-3.82.305-5.138-.609-5.466-2.974-8.199-3.048-8.283 1.242 1.96 2.021 5.883 2.13 8.283.163 3.622-.566 5.707-.612 5.832.026-.115.438-2.023.197-5.634-.287-4.325-2.566-7.911-3.078-8.794.745 1.853 2.05 5.025 2.303 8.853.242 3.674-.579 7.126-.646 7.395.027-.215.31-2.593.215-5.755-.141-4.667-2.151-8.72-2.213-8.845.684 2.707 1.493 5.682 1.555 8.318.06 2.636-.83 8.353-.892 10.608-.17 3.369.661 5.015.661 5.015-.298-1.463-.206-3.04.005-4.03-.066 2.758 1.039 4.896 1.084 4.983-.02-.116-.495-2.726-.083-4.266 0 0 .336 3.059.84 4.164 0 0-.276-2.616.24-4.062 0 0 .097 1.225.362 2.136 0 0 0-1.34.217-2.033 0 0 .514.897 1.08 1.288a4.61 4.61 0 01-.31-.864c.597.03 2.617.195 5.727 1.118 1.461.433 3.127.894 5.032 1.717.143.514.277 1.052.388 1.599-1.788-.761-3.64-1.348-5.76-1.575 2.218.416 4.214 1.317 5.848 2.04l.03.174c-5.39-2.177-7.94-2.132-7.94-2.132 3.103.757 5.383 1.55 8.023 2.712.013.108.024.216.035.323-5.553-2.474-8.437-2.27-10.52-3.897 0 0 .073 1.757 3.713 3.867 1.522.88 3.92 1.937 6.399 3.406a3.656 3.656 0 01-.458.744c-1.373-.72-2.861-1.38-4.27-2.041-2.637-1.241-3.814-1.602-5.112-2.49.937 1.1 3.164 1.986 4.972 2.892 1.294.65 2.562 1.285 3.992 2.075a3.072 3.072 0 01-.277.22c-3.88-2.018-8.155-3.549-9.624-5.43-.501-.641-.901-1.35-.926-1.542 0 1.927 1.485 6.854 6.171 8.357 2.237.719 3.753.187 4.837-.656 1.566-1.222 1.967-3.68 1.399-6.589-.967-4.924-3.85-10.966-4.908-16.043C53.647 9.73 56.171 4.263 61.29 3.925c5.118-.337 8.081 4.112 7.318 8.261 0 0 .215-2.204-1.105-4.04.04.138 1.19 4.01-.647 5.852.053-.092 1.078-1.862.657-3.89-.43-2.071-2.06-3.837-3.214-4.29.174.058 1.58.552 2.49 1.49-.042-.069-1.434-2.29-4.875-2.355-2.654-.05-4.402 1.4-5.335 2.765-.149.215-.2.724-.01.916-.289-.064-.336-.388-.369-.325-.153.274-.255.747-.292.823.143-.017.418.117.83.252.313.1.333.319.333.756-.138-.392-.467-.527-.7-.392-.235.135-.296.749-.296.749a1.095 1.095 0 01.012-.842c-.285.176-.361.57-.361.57-.053-.18-.012-.344.052-.603-.204.2-.31.457-.333.78-.054.762.163.977.163.977s-.145.077-.197.378c.162-.138.357-.221.563-.241.33-.027 1.064-.073 1.106.675a.649.649 0 00-.234-.279.58.58 0 00-.337-.096c-.426 0-.516.694-.438 1.06 0 0-.33-.318-.264-.703 0 0-.252.292-.205.69 0 0-.204-.377-.19-.645 0 0-.129.854.22 1.217 0 0-.168.664-.065 1.055 0 0 .084-.496.53-.689.445-.193 1.236-.04 1.248.754 0 0-.159-.433-.6-.373-.56.076-.492 1.04-.492 1.04s-.253-.128-.24-.636a2.2 2.2 0 00-.046.724s-.13-.088-.274-.333c0 0 .054.346.3.79.245.442.742.416 1 .397.258-.019.777.023.92.657a.597.597 0 00-.225-.204.547.547 0 00-.29-.06c-.354.02-.612.45-.51.965 0 0-.265-.34-.265-.665 0 0-.114.34.013.808a.826.826 0 01-.288-.53s-.054.541.222 1.037c.277.495.54.783.554 1.206 0 0 .307-.394 1.072-.451.726-.055 1.04.319 1.13.825-.021-.035-.209-.333-.683-.296-.505.038-.893.821-.432 1.495-.033-.014-.443-.244-.61-.874 0 0-.098.552.248.983-.007 0-.456-.002-.594-.757a1.278 1.278 0 00.223.937c.402.539.89.826.913 1.666 0 0 .056-.574.54-.854.59-.34 1.215-.252 1.5.519-.358-.444-1.175-.369-1.228.32-.052.69.27 1.127.27 1.127a.786.786 0 01-.373-.24.89.89 0 01-.2-.416s-.1.351.102.756c0 0-.294-.195-.413-.554 0 0 .035.975.995 1.054.961.08 1.358-.897 1.358-.897s.42.493.72.558l-.221.613s-.924-.26-1.393.487c.025-.018.476-.323.965-.267.505.06.835.528.861 1.082 0 0-.198-.566-.86-.566-.663 0-.854.932-.745 1.412.104.464.478.817.508.845-.04-.022-.676-.404-.856-1.299 0 .014.002.875.369 1.384-.03-.02-.527-.348-.725-1.222 0 0 .072 1.172.618 1.583.589.442 1.088.286 1.538.058.594-.3.759-.974.759-.974s.16.243.825.512l-.659.9c.233.19.48.533.367 1.384 0 0-.09-.917-.735-1.038-.79-.146-1.128.828-1.015 1.545 0 0-.426-.476-.33-1.03 0 0-.194.397-.109.847 0 0-.311-.351-.234-.84 0 0-.16.405.05 1.2.21.794 1.267.904 1.789.774.523-.13.777-.686.777-.686s.043.474.543.7c.28.126.678.13.678.13l-.056.708s-.528.208-.745.625c0 0-.678-.937-1.975-.633 0 0 .701.287.967.359.265.072 1.276.772.836 2.16.012-.086.149-1.09-.513-1.283-.69-.2-1.224.463-1.327 1.244a1.519 1.519 0 01.137-1.405c-.03.02-.523.34-.588 1.008 0 0-.192-.442.085-1.061 0 0-.252.143-.385.872-.132.73.402 1.366.906 1.458 0 0-.43-.025-.611-.175l-.103.592-.378.904s.649-.3 1.129.123.986 1.557.135 2.754h-.001zm-43.38-9.664c.085.347.594.572.953.078 0 0-.077.677-.477.66-.562-.024-.476-.738-.476-.738zm.957-3.494c.097.48.569.412.864.254-.01.032-.195.556-.54.488-.515-.105-.324-.742-.324-.742zm1.352-3.783c.042.28.175.433.625.233 0 0-.01.577-.427.44-.367-.12-.194-.673-.198-.673zm1.16-2.818c.066.252.258.456.673.291 0 0-.13.359-.476.274-.41-.099-.197-.565-.197-.565zm1.277-2.792c.231.43.626.09.657.062-.01.029-.08.464-.416.386-.342-.078-.24-.448-.24-.448zm.75-2.412c.05.112.263.268.476.028 0 0 .005.413-.285.368-.233-.035-.192-.396-.192-.396zm.197-2.264c.086.28.435.223.544-.049 0 0 .017.397-.272.5-.29.103-.272-.45-.272-.45zm.129-2.411c.08.233.34.14.415.027 0 0 .03.34-.208.36-.237.02-.207-.387-.207-.387zm.853 20.988a388.65 388.65 0 00-3.039.966c1.202-.852 5.98-2.412 7.753-2.78-.092.038-2.664 1.169-4.714 1.814zm3.248-.766c-.573.273-3.152 1.477-4.57 1.852-1 .264-1.665.44-1.713.454.608-.279 5.305-1.872 6.283-2.308v.002zm.682 4.452c-3.09 1.603-4.905 1.977-5.015 1.998 1.199-.46 2.136-.985 3.086-1.422 2.941-1.356 4.835-2.47 5.402-3.052-.193.206-1.322 1.359-3.473 2.474v.002zm2.382-.584c-.063.083-1.116 1.42-3.046 2.254-1.624.7-2.912.706-3 .706 1.52-.21 4.433-1.68 6.046-2.96zm24.423-3.1c-2.05-.646-4.622-1.776-4.713-1.817 1.774.369 6.551 1.928 7.752 2.781a364.73 364.73 0 00-3.038-.966v.002zm3.036 1.538l-1.714-.454c-1.417-.375-3.996-1.578-4.569-1.852.978.433 5.675 2.027 6.283 2.304v.002zm-6.966 2.146c-2.152-1.117-3.28-2.268-3.474-2.476.568.582 2.462 1.696 5.403 3.053.95.437 1.888.962 3.086 1.422-.109-.023-1.925-.398-5.015-2.001v.002zm3.667 2.376c-.09 0-1.379-.007-3.002-.706-1.931-.833-2.982-2.17-3.046-2.254 1.612 1.28 4.53 2.751 6.048 2.958v.002zm.909-26.661c-.236-.02-.207-.36-.207-.36.075.112.335.205.415-.028 0-.001.029.407-.208.386v.002zm.065 2.476c-.29-.104-.272-.5-.272-.5.109.273.458.329.543.05 0-.004.018.556-.271.448v.002zm.277 2.208c-.29.044-.286-.369-.286-.369.215.241.425.085.476-.028 0-.001.043.36-.189.395v.002zm.7 2.465c-.336.078-.406-.357-.418-.386.031.029.427.368.658-.062.001-.003.102.367-.239.444l-.001.004zm1.322 2.909c-.346.085-.476-.273-.476-.273.414.164.607-.04.673-.292 0-.003.214.463-.198.562v.003zm1.16 2.927c-.417.137-.428-.44-.428-.44.45.197.584.045.625-.233-.004-.003.169.548-.198.67v.003zm1.224 3.85c-.344.07-.53-.455-.54-.487.296.158.77.226.865-.254 0-.003.19.634-.326.739v.003zm.805 3.49c-.402.018-.478-.66-.478-.66.36.495.87.27.953-.077.001-.003.088.711-.475.734v.003zm1.088 14.183c-.307.147-.504-.337-.504-.337.324.188.506.198.51-.241 0-.003.252.451-.006.575v.003zm-.565-1.178c-.33.172-.162.77-.152.81-.24-.211-.371-.732-.27-.966.192-.429.588-.76 1.173-.337.137.1.151.128.264.319a.644.644 0 00-.692-.09c.47.21.529.727.529.727-.124-.263-.551-.623-.853-.465v.002zm.768 3.118c-.174-.406-.018-1.066.408-1.21.2-.067.588-.084.805.182.243.3.235.563.235.563-.103-.254-.469-.413-.469-.413.234.286.272.677.272.677-.109-.205-.496-.475-.815-.425-.466.07-.436.623-.436.623v.003zm1.029-3.014c.21.157.402.241.522-.22 0 0 .222.493-.042.584-.348.118-.456-.334-.48-.367v.003zm-.656 3.386c.126.207.65.21.656-.266 0 0 .196.553-.206.637-.408.083-.45-.374-.45-.374v.003zm.438 1.297c.315-.175.684-.08.843.121a.412.412 0 01.077.274c-.15-.143-.367-.098-.367-.098.29.281.192 1.03.192 1.03-.066-.529-.427-.938-.784-.833-.348.1-.352.66-.352.687-.107-.632.159-1.054.39-1.184v.003zm.416 1.554s-.055.3-.273.308c-.22.009-.254-.308-.254-.308s.076.198.527-.003v.003zm-1.045 1.94c-.027-.529.197-.864.618-.956.402-.087.68.171.65.76l-.158-.373c.033.245-.11.533-.11.533s.076-.676-.442-.607c-.398.047-.56.64-.56.64l.002.004zm.693.247s-.01.328-.344.328c-.254 0-.101-.4-.101-.4.02.14.137.351.444.07v.002zm-1.383 1.843c.333-.425.66-.67.975-.697.315-.027.584.35.613.389-.023-.022-.234-.212-.4-.179a.491.491 0 00-.109.037c-.021.194-.196.478-.39.736-.287.384-.6.512-.79.405-.122-.074-.182-.336.099-.694l.002.003zm-1.668 1.269c.07-.146.526-.473.806-.496.051-.005.243.056.45.219-.021-.008-.263-.128-.393-.087-.039.011-.175.17-.291.24-.16.09-.326.173-.496.243-.176.073-.039.4-.033.434-.015-.017-.163-.307-.044-.556l.002.003zm-1.529.287c.302-.086.773-.118.877-.067.104.051.268.227.373.404-.023-.023-.203-.2-.327-.234-.042-.01-.206.067-.309.079-.119.012-.157.025-.575.02-.134 0-.237.213-.27.247.019-.043.106-.42.23-.453l.001.004zm-1.322-.24c.115.008.59.167.674.242.084.076.145.388.119.512 0 0-.02-.281-.173-.41-.079-.066-.448-.242-.637-.233-.174.01-.425.142-.461.16.038-.033.37-.283.476-.274l.002.003zm-1.572-.799c.059 0 .143.021.28.095.136.075.412.341.48.429.067.087.049.211.036.385 0 0-.05-.195-.123-.291a2.947 2.947 0 00-.529-.433.573.573 0 00-.492-.018.53.53 0 01.345-.17l.003.003zm-.373-4.93a7.652 7.652 0 01-.372.37c.047-.055.27-.395.288-.52.013-.137.02-.275.019-.412.123.245.098.513.062.559l.003.003zm1.225-.335c-.15.066-.557.008-.557.008s.372-.019.528-.136c.136-.1.21-.29.23-.341-.058.183-.055.402-.203.466l.002.003zm1.147.366c-.169-.019-.404-.175-.444-.2.048.012.39.096.479.07.101-.037.2-.08.296-.131-.16.232-.154.277-.333.26l.002.001zm.76 2.786c-.933.39-1.55-.227-1.65-.683-.048-.23.029-.219.068-.163.348.484.738.551.984.519.506-.069.938-.435 1.067-1.07 0 0 .023.606-.359 1 .043-.017.723-.312.81-1.43-.002-.002.163 1.36-.922 1.825l.003.002zm7.958-8.437c1.002 2.662 1.322 4.453.96 6.991-.27 1.902-1.004 3.58-2.068 4.917 1.314-1.885 1.745-4.636 1.623-6.557 0 .013.062 2.983-1.7 5.69-.574.877-1.852 2.58-3.285 3.04.984-.725 1.344-.9 2.373-2.163.442-.542.968-1.477 1.148-2.154-.83 1.355-1.703 2.399-2.835 3.204-1.37.975-2.75 1.229-3.65 1.229-2.973 0-5.159-1.556-5.973-4.468.021.133.774 4.481 5.249 4.813 0 0-2.762.183-4.684-2.342.028.075.842 2.032 2.9 2.787-3.145-.885-4.676-3.893-4.596-6.913.072-1.658 1.283-4.541 3.735-5.037 1.996-.404 3.296.567 3.843 1.713-1.076-1.384-2.67-1.261-2.67-1.261.753.137 1.406.417 1.876.937.58.647.618 1.204.618 1.204s-.824-1.782-2.8-1.803a3.393 3.393 0 00-2.796 1.404c.049-.061.978-1.105 2.759-1.086 1.485.017 2.62 1.283 2.5 2.558a2.275 2.275 0 00-.125-.637c-.3-.833-1.496-1.607-2.685-1.556-1.19.051-3.027 1.063-3.1 3.256 0 0 .03-.137.197-.371.167-.234.85-.279.788-.358-.033-.043.102-.447.198-.437.062.007-.246-.343-.268-.37.027.016.478.295.472.364-.007.07-.062.442-.191.573-.13.13-.65.242-.68.366-.03.124.084.078.385.083.302.006.317.14.4.277.083.138.18.523.182.602.01.486-.37.74-.422.772.046-.016.347-.115.62.03.116.06.432.554.451.988.009.205-.294.718-.294.718s.424-.106.575-.06c.274.082.61.292.798.62.123.219.116.513.116.513s.084-.253.54-.214c.458.04.812.28.938.448.277.34.148 1.113.172 1.248.048.308 1.328.5 1.995.03 0 0-.49.067-.919-.02.08 0 .461-.13.798-.508-.147.063-.461.105-.769.083-.346-.023-.819-.172-.795-.556.021-.355.567-.477.94-.47.471.006.73.1.875.41a.73.73 0 01.063.206c.014.087.175.63.24.677.294.216 1.199.052 1.738-.75-.048.045-.435.41-.924.444.314-.171.567-.449.72-.79 0 0-.346.395-1.063.4-.717.004-.602-.761.028-1.22.63-.46.945-.245 1.027-.158.081.087.343.685.495.83.152.147.891-.143 1.326-1.018a1.908 1.908 0 01-.891.66s.528-.337.684-.818c-.027.031-.463.529-.906.605-.458.078-.444-.385-.169-.833.276-.449.962-.983 1.22-.84.257.145.226.117.403.3.056.058.164.245.23.26.125-.157-.233-.433-.129-.598.093-.144.084-.333.235-.333.594 0 1.015.106 1.314-.6.068-.34.079-.568-.058-1.004a5.695 5.695 0 01-.168.85s.008-.605-.141-.938c0 0-.04.641-.34.938.208-.695-.037-1.329-.404-1.376-.367-.048-.634.356-.707.59 0 0-.024-.728.52-.879a1.18 1.18 0 01.79.072c.539.182.673.933.67 1.306.202-.679.334-1.379.393-2.088.01-.116-.26.114-.314.017a1.606 1.606 0 00-.17-1.707c.25.663-.063 1.307-.063 1.307-.01-.39-.157-1.462-.889-1.435-.544.018-.635.859-.635.859-.018-.27-.133-1.291.568-1.502.52-.155 1.004-.09 1.327.384.214.313.236.535.236.535 0-.607-.179-2.18-.179-2.18s-.131.204-.447.33c.406-.488.28-1.116.197-1.377l-.097.625s-.037-.438-.406-.865c.17.554.082.979.082.979-.154-.756-.477-1.048-.902-1.006-.531.055-.664.678-.613.874-.244-.709.126-1.645 1.018-1.562.425.04.619.282.79.497-.158-.547-.537-1.3-.864-1.887a1.474 1.474 0 00-.575-1.022c.2.3.193.437.263.836-.225-.419-.86-.737-.909-.756.566.46.594.994.594.994-.254-.482-.659-.773-1.143-.733-.184.013-.58.333-.407.733 0 0-.352-.416-.216-.773.058-.152.189-.521.559-.681.298-.13.805-.109 1.12.159a13.06 13.06 0 00-1.12-1.318 8.82 8.82 0 00.196-.33 15.41 15.41 0 011.635 1.956c-.03-.056-.515-.97-1.525-2.159.107-.199.204-.404.291-.614 1.11 1.267 2.048 2.72 2.68 4.398l.003.002zm-2.33 8.495c.108.333.374.4.571.238 0 0-.042.355-.34.356-.386.002-.233-.595-.233-.595h.003zm.48-2.823c.086.255.132.483.402.483.209 0 .379-.274.403-.396 0 0 .026.646-.416.674-.443.03-.392-.762-.392-.762h.002zm-.103-3.083c.202.255.615.139.698-.045 0 0 .134.44-.26.546-.231.06-.41-.208-.44-.501h.002zm.176-7.912a2.468 2.468 0 01-.592-.217v-.006c.092.012.478.067.65.04.197-.034.553-.282.553-.282-.21.433-.33.518-.613.465h.002zm.631-1.066c-.261.146-1.012-.069-1.447-.296a1.498 1.498 0 00-.2-.253l-.462-.468.18-.293c.178-.05.554-.114 1.056.04.207.062.399.17.564.319.165.148.299.333.392.542.05-.601.451-.846.476-.86-.309.363-.245 1.095-.561 1.27h.002zm2.465 1.544c-.078.177-.204.396-.376.487-.16.085-.588.02-.844-.097-.328-.15-.502-.223-.538-.306-.022-.053-.034-.339-.034-.55 0-.222-.154-.268-.154-.268s.29.006.315.269c.016.16.036.351.106.406.187.145.78.313 1.014.3.105-.008.317-.215.448-.345.113-.11.307 0 .307 0s-.185-.032-.246.105h.002zm.492-1.01c-.01.359-.128.553-1.226.276-1.126-.283-1.386-.606-1.171-.907.151-.212.397-.704.388-1.115l.002.009c.016.048.029.096.038.146.055.355-.099.782-.099.782s.375-.095 1.076.1c.701.195.83.603.83.603-.014-.079.08-.503.213-.812.093.206-.038.37-.054.918h.003zm2.514 1.282c-.097.11-.163.463-.21.528-.048.066-.356.16-.836.136-.48-.024-.859-.15-.93-.189-.072-.04-.073-.253-.079-.416-.006-.163-.042-.209-.192-.306 0 0 .318.039.353.208.035.169.08.333.08.333.474.166 1.352.123 1.406.095.053-.028.089-.285.21-.429.12-.144.432-.084.432-.084a.392.392 0 00-.237.126l.003-.002zm-.818-.456c-.724-.031-1.39-.315-1.26-.65a3.08 3.08 0 00.205-1.297c.227.58.138.927.138.927.085-.017.17-.028.257-.035.261-.006.523.012.782.055.175.034.348.08.518.136.37.149.491.344.491.344a5.314 5.314 0 01-.042-.5c0-.184.028-.367.084-.541.025.26-.01.451.105.973.1.458-.564.622-1.28.589h.002zm-5.213-4.13a3.66 3.66 0 00.11-.32c1.585.818 3.004 1.377 4.764 1.817 1.556.387 3.98.179 4.907-.526-.092.043-2.169.974-4.923.185-1.807-.516-2.996-1.124-4.317-1.835l-.327-.178c.007-.065.01-.127.013-.19 2.57 1.273 5.625 2.527 7.833 2.052-2.055.17-4.648-.924-7.88-2.585-.209-.905-1-1.156-1-1.156l.016-.371c5.325 2.841 7.035 3.33 9.32 2.78.875-.21 2.256-.903 2.951-2.304.857-1.728 1.004-3.903.295-6.65.793 2.214.903 2.902.887 4.473-.01 1.006-.272 1.995-.756 2.96 0 0 .855-.888 1.175-2.888.156-.993.182-2.26-.092-3.83.69 2.096.701 3.66.395 5.123a6.325 6.325 0 01-.996 2.358c-3.104 4.444-7.548 3.463-12.377 1.087l.002-.002zm8.75 4.826c-.052.1-.35.259-.63.323-.336.077-.834.047-.895-.03a3.08 3.08 0 01-.233-.411c-.042-.092-.138-.207-.276-.228 0 0 .299-.005.39.086.092.092.222.333.222.333.669.121 1.19-.15 1.26-.228.072-.078.27-.536.27-.536s-.09.657-.11.693l.003-.002zm-.332-.896c-.783.205-1.495.078-1.487-.116.009-.186.04-.665-.05-1.204.133.222.285.586.267.95 0 0 .264-.249.865-.404.601-.155 1.01-.047 1.01-.047s-.287-.45-.235-.927c.17.537.54.81.578.977.037.166-.166.569-.95.773l.002-.002zm2.613-.062c-.204.174-.558.424-.838.444-.115.008-.246-.145-.373-.306-.126-.163-.222-.228-.341-.267 0 0 .162-.032.367.096.14.086.221.237.353.25.132.012.348-.131.642-.365.175-.137.328-.306.451-.5a1.748 1.748 0 01.007-.518c0 .166.168.522.168.582.002.175-.234.412-.438.587l.002-.003zm-.382-.885c-.529.371-.852.371-.906.126-.012-.053-.433-.972-.433-.972s.343.202.433.404c.043.088.079.18.107.274 0 0 .127-.207.56-.633a2.89 2.89 0 01.847-.45c-.246-.088-.418-.579-.428-.61.266.366.703.438.68.703-.023.264-.333.79-.862 1.16l.002-.002zm1.688-.624c-.215.02-.559-.118-.559-.118a2.7 2.7 0 00.523-.04c.234-.05.694-.364.937-.8-.02.056-.253.824-.902.96l.001-.002zm-.196-.676c-.366-.02-.262-.469-.732-.79.423.116.553.576.601.494l.004-.008a3.87 3.87 0 01.281-.623c.058-.093.12-.182.185-.267a4.7 4.7 0 01.515-.505.27.27 0 00-.133-.094c-.092-.033-.358-.198-.391-.393.289.298.768.114.768.664 0 .498-.581 1.549-1.1 1.524l.002-.002zm1.43-1.4s.048-.406.094-.523c.047-.116.365-.22.365-.22.071.051-.137.515-.461.746l.002-.002zm.857-2.53c-.1.673-.517 1.4-.842 1.615-.325.214-.464-.18-.736-.324.222.034.376.139.568 0 .308-.223.563-.827.693-1.514-.026.049-.45.841-.58.95l.255-1.038c-.02.04-.362.704-.62.944.266-.527.467-1.09.596-1.675.246.129.415.086.525.155.246.158.208.421.14.886h.001zm.476-2.226s-.173-.656-.357-1.035c-.01.397-.266.866-.266.866l-.093-1.489c.003.025.032.22.452.319.102.024.17.09.218.288.12.503.044 1.052.044 1.052l.002-.001zm36.445 4.509c-2.188 2.188-4.864 3.28-8.031 3.28-3.166 0-5.854-1.093-8.062-3.28-2.187-2.208-3.28-4.895-3.28-8.062 0-3.166 1.093-5.843 3.28-8.03 2.208-2.209 4.896-3.313 8.062-3.313 3.167 0 5.843 1.104 8.031 3.312 2.208 2.188 3.312 4.865 3.312 8.031 0 3.166-1.104 5.854-3.312 8.062zm-13.562-2.437c1.521 1.479 3.365 2.218 5.531 2.218 2.187 0 4.021-.74 5.5-2.218 1.5-1.5 2.25-3.375 2.25-5.625s-.75-4.114-2.25-5.593c-1.479-1.5-3.313-2.25-5.5-2.25s-4.031.75-5.531 2.25c-1.479 1.479-2.218 3.343-2.218 5.593 0 2.23.739 4.104 2.218 5.625zm27.308 5.718c-2.354 0-4.323-.792-5.906-2.375-1.563-1.604-2.344-3.552-2.344-5.843 0-2.333.781-4.281 2.344-5.843 1.583-1.584 3.552-2.375 5.906-2.375 1.521 0 2.906.364 4.156 1.093 1.25.73 2.187 1.709 2.812 2.938l-2.906 1.687a3.884 3.884 0 00-1.625-1.75c-.708-.437-1.531-.656-2.469-.656-1.375 0-2.531.469-3.468 1.406-.917.958-1.375 2.125-1.375 3.5s.458 2.541 1.375 3.5c.937.937 2.093 1.406 3.468 1.406.917 0 1.74-.209 2.469-.625a4.208 4.208 0 001.687-1.781l2.906 1.656c-.666 1.25-1.635 2.24-2.906 2.968-1.25.73-2.624 1.094-4.124 1.094zm18.188-16.03v3.25h-3.875v7.5c0 .645.146 1.114.437 1.405.292.271.719.427 1.282.469.583.02 1.302.01 2.156-.031v3.03c-2.584.313-4.437.094-5.562-.655-1.125-.771-1.688-2.177-1.688-4.219v-7.5h-2.875v-3.25h2.875v-3.374l3.375-1v4.375h3.875zm15.637 13.655c-1.583 1.583-3.531 2.375-5.843 2.375s-4.26-.792-5.843-2.375c-1.604-1.604-2.406-3.552-2.406-5.843 0-2.292.802-4.24 2.406-5.843 1.583-1.584 3.531-2.375 5.843-2.375s4.26.791 5.843 2.375c1.604 1.604 2.407 3.551 2.407 5.843 0 2.291-.803 4.24-2.407 5.843zm-10.718-5.843c0 1.416.469 2.593 1.407 3.53.937.938 2.093 1.407 3.468 1.407s2.531-.469 3.469-1.406c.937-.938 1.406-2.115 1.406-3.531 0-1.417-.469-2.594-1.406-3.531-.938-.938-2.094-1.406-3.469-1.406s-2.531.468-3.468 1.406c-.938.937-1.407 2.114-1.407 3.53zm16.395-14.062h8.062c2.062 0 3.781.688 5.155 2.063 1.396 1.375 2.094 3.083 2.094 5.124 0 2.021-.698 3.73-2.094 5.125-1.374 1.375-3.093 2.062-5.155 2.062h-4.469v7.5h-3.593V16.359zm3.593 11h4.469c1.062 0 1.937-.355 2.624-1.063.688-.729 1.032-1.646 1.032-2.75s-.344-2.01-1.032-2.718c-.687-.73-1.562-1.094-2.624-1.094h-4.469v7.625zm30.765 10.874h-3.875l-1.531-4.406h-9.312l-1.531 4.406h-3.906l7.937-21.874h4.312l7.906 21.874zm-10.062-17.655l-3.469 9.874h6.937l-3.468-9.874zm22.324-4.219h4.094l-7.625 13.187v8.687h-3.593v-8.687l-7.625-13.187h4.094l5.343 9.687 5.312-9.687z" fill="#fff"/></svg>