<svg width="157" height="45" fill="none" xmlns="http://www.w3.org/2000/svg"><path d="M22.382 44.92c12.361 0 22.382-10.022 22.382-22.383 0-12.361-10.02-22.382-22.382-22.382C10.021.155 0 10.175 0 22.537 0 34.898 10.02 44.92 22.382 44.92z" fill="#A40DD9"/><path d="M30.069 22.526l13.334-7.693A22.345 22.345 0 0039.567 8.2l-13.326 7.688V.493a22.195 22.195 0 00-7.718 0v15.353L5.233 8.16a22.359 22.359 0 00-3.872 6.676l13.335 7.717-13.334 7.69a22.347 22.347 0 003.835 6.632l13.326-7.688v15.395c2.553.45 5.165.45 7.718 0V29.228l13.29 7.688a22.358 22.358 0 003.873-6.676l-13.336-7.714z" fill="#fff"/><path d="M32.751 12.168c-5.727-5.727-15.011-5.727-20.738 0s-5.727 15.012 0 20.738c5.727 5.727 15.011 5.727 20.738 0 5.727-5.726 5.727-15.011 0-20.738zm-4.966 19.726c-5.168 2.984-11.777 1.214-14.76-3.954-2.985-5.168-1.214-11.776 3.954-14.76s11.776-1.214 14.76 3.954 1.213 11.776-3.954 14.76z" fill="#A40DD9"/><path d="M31.114 13.805c-4.823-4.822-12.642-4.822-17.464 0-4.822 4.823-4.822 12.642 0 17.464 4.823 4.822 12.641 4.822 17.464 0 4.822-4.822 4.823-12.641 0-17.463v-.001zm-4.179 16.612a9.1 9.1 0 113.328-12.43l.003.004a9.099 9.099 0 01-3.33 12.426z" fill="#fff"/><path d="M22.382 33.342c5.968 0 10.805-4.837 10.805-10.805 0-5.967-4.837-10.805-10.805-10.805S11.577 16.57 11.577 22.537c0 5.968 4.838 10.805 10.805 10.805z" fill="#A40DD9"/><path d="M29.509 25.997c0 .88-.175 1.623-.524 2.23a4.187 4.187 0 01-1.388 1.434 6.23 6.23 0 01-1.98.797c-.729.152-1.48.228-2.254.228h-6.418V14.57h6.418c.622 0 1.26.068 1.912.204a5.304 5.304 0 011.776.66c.53.304.963.721 1.297 1.252.334.531.5 1.207.5 2.026 0 .895-.242 1.639-.728 2.23-.485.577-1.123.995-1.912 1.253v.045c.456.076.88.22 1.275.433.41.197.759.455 1.047.774.304.318.539.69.706 1.115.182.425.273.903.273 1.434zm-4.416-6.76c0-.547-.212-.941-.637-1.184-.41-.258-1.024-.387-1.844-.387H20.7v3.323h2.094c.729 0 1.29-.144 1.685-.432.41-.304.614-.744.614-1.32zm.524 6.396c0-.668-.25-1.13-.751-1.389-.501-.258-1.169-.387-2.003-.387H20.7v3.688h2.185c.304 0 .615-.023.933-.069.334-.06.63-.159.888-.296.273-.136.493-.326.66-.569.167-.258.25-.584.25-.978zm43.367 2.472c0 1.367-.271 2.521-.813 3.463a6.5 6.5 0 01-2.156 2.227c-.895.565-1.92.978-3.075 1.237a17.11 17.11 0 01-3.498.353h-9.966v-25.02h9.966c.966 0 1.955.105 2.968.317a8.235 8.235 0 012.757 1.025 5.68 5.68 0 012.014 1.944c.519.825.778 1.873.778 3.145 0 1.39-.377 2.545-1.131 3.464-.754.895-1.744 1.543-2.969 1.943v.071a6.342 6.342 0 011.98.671 5.215 5.215 0 011.625 1.202 5.286 5.286 0 011.096 1.732c.282.66.424 1.401.424 2.226zM62.128 17.61c0-.848-.33-1.46-.99-1.838-.636-.4-1.59-.6-2.862-.6h-2.97v5.16h3.252c1.131 0 2.003-.224 2.615-.672.636-.471.955-1.155.955-2.05zm.812 9.93c0-1.036-.388-1.755-1.166-2.155-.777-.4-1.814-.6-3.11-.6h-3.357v5.724H58.7c.47 0 .954-.035 1.448-.106a4.742 4.742 0 001.379-.46 2.667 2.667 0 001.025-.883c.259-.4.388-.907.388-1.52zm20.428-2.969c0-.919-.294-1.708-.883-2.368-.566-.66-1.425-.99-2.58-.99a4.15 4.15 0 00-1.555.284c-.471.164-.883.4-1.237.706a3.515 3.515 0 00-.848 1.096c-.212.4-.33.825-.353 1.272h7.456zm5.337 2.226v.707c0 .236-.012.46-.036.672H75.912c.047.495.188.942.424 1.343.259.4.577.754.954 1.06.4.283.836.506 1.307.671a4.775 4.775 0 001.52.248c.919 0 1.696-.165 2.332-.495a4.796 4.796 0 001.555-1.343l4.03 2.545c-.825 1.201-1.92 2.132-3.287 2.791-1.343.637-2.91.955-4.7.955-1.32 0-2.569-.2-3.747-.601a9.703 9.703 0 01-3.11-1.803c-.871-.8-1.566-1.778-2.085-2.933-.494-1.154-.742-2.474-.742-3.958 0-1.437.248-2.733.742-3.887.495-1.178 1.167-2.168 2.015-2.969a8.842 8.842 0 013.004-1.908c1.154-.448 2.403-.672 3.746-.672 1.295 0 2.485.224 3.57.672a7.581 7.581 0 012.79 1.873c.778.824 1.38 1.826 1.803 3.004.448 1.178.672 2.52.672 4.029zm8.471-4.664v6.714c0 .825.153 1.45.46 1.873.33.4.906.601 1.73.601.284 0 .578-.024.884-.07.33-.048.601-.118.813-.213l.071 4.241c-.401.141-.907.26-1.52.354a9.71 9.71 0 01-1.837.176c-1.178 0-2.168-.141-2.969-.424-.801-.306-1.449-.73-1.944-1.272a5.283 5.283 0 01-1.025-1.98c-.212-.777-.318-1.637-.318-2.579v-7.421h-2.827v-4.347h2.792v-4.63h5.69v4.63h4.135v4.347h-4.135zm24.74-4.064c0 1.46-.271 2.697-.812 3.71a6.728 6.728 0 01-2.191 2.403c-.919.613-1.98 1.06-3.181 1.343-1.202.283-2.45.424-3.746.424h-3.004v9.436h-6.043v-25.02h9.188c1.367 0 2.639.14 3.817.424 1.202.259 2.238.694 3.11 1.307a5.98 5.98 0 012.085 2.368c.518.966.777 2.167.777 3.604zm-6.043.035c0-.59-.118-1.072-.353-1.45a2.469 2.469 0 00-.954-.883 4.114 4.114 0 00-1.379-.424 10.996 10.996 0 00-1.555-.106h-2.65v5.902h2.544c.566 0 1.108-.047 1.626-.141.518-.095.978-.26 1.378-.495.424-.236.754-.542.99-.919.235-.4.353-.895.353-1.484zm16.673 9.612h-.742c-.636 0-1.284.036-1.944.106a7.554 7.554 0 00-1.732.319 3.112 3.112 0 00-1.237.742c-.329.306-.494.718-.494 1.236 0 .33.07.613.212.849.165.235.365.424.6.565.236.141.507.247.813.318.307.047.601.07.884.07 1.178 0 2.073-.317 2.686-.953.636-.66.954-1.544.954-2.65v-.602zm-10.638-7.527a10.19 10.19 0 013.605-2.227 12.563 12.563 0 014.241-.742c1.484 0 2.733.189 3.746.566 1.037.353 1.873.919 2.509 1.696.636.754 1.096 1.72 1.378 2.898.307 1.155.46 2.533.46 4.135v8.87h-5.301v-1.873h-.106c-.448.73-1.131 1.296-2.05 1.697-.895.4-1.873.6-2.933.6a9.02 9.02 0 01-2.191-.282 6.622 6.622 0 01-2.085-.92c-.613-.423-1.119-.989-1.52-1.696-.4-.706-.601-1.578-.601-2.615 0-1.272.342-2.297 1.025-3.074.707-.778 1.602-1.379 2.686-1.803 1.107-.424 2.332-.707 3.675-.848a37.473 37.473 0 013.923-.212v-.283c0-.871-.306-1.508-.919-1.908-.612-.424-1.366-.636-2.262-.636-.824 0-1.625.177-2.403.53a7.705 7.705 0 00-1.943 1.272l-2.934-3.145z" fill="#fff"/><path d="M149.119 38.036a13.778 13.778 0 01-1.202 2.438 6.568 6.568 0 01-1.555 1.838c-.589.518-1.295.907-2.12 1.166-.801.26-1.755.389-2.863.389a14.25 14.25 0 01-1.696-.106 10.44 10.44 0 01-1.484-.283l.636-4.877c.283.094.589.165.919.212.353.07.671.106.954.106.895 0 1.543-.212 1.944-.636.4-.4.742-.978 1.025-1.732l.565-1.449-7.351-17.316h6.432l3.923 11.309h.106l3.499-11.31H157l-7.881 20.25z" fill="#fff"/></svg>