<svg width="99" height="107" fill="none" xmlns="http://www.w3.org/2000/svg"><g clip-path="url(#clip0_1490_7250)"><path fill="#fff" d="M28.986 71.928h29.722v10.7H28.986z"/><path d="M67.03 35.107l20.468-8.805M61.086 37.47l-.545.235m-49.388 18.73l10.375-4.464M7.331 42.17l10.375-4.463M45.631 99.76l24.026-10.337m2.13-28.606l18.386-7.91M75.947 86.81l-.546.234M21.26 101.076l-.546.235m48.101-90.59l-.546.235M19.476 7.154l-.546.235m-7.777 80.61l-.546.234m13.963-53.14l-.547.235m-22.38-8.204L49.487 6.539M24.57 89.422l18.386-7.91" stroke="#FFC234" stroke-width="3.567" stroke-linecap="round"/><rect x="43.083" y="17.653" width="12.12" height="16.664" rx="2.972" fill="#FFE4A5"/><path fill-rule="evenodd" clip-rule="evenodd" d="M31.578 60.958a10.559 10.559 0 01-1.311 2.083c-.353.375-3.041 2.033-5.972 3.68-4.865 2.755-5.46 3.003-6.722 3.008-.892 0-1.531-.138-1.784-.391-.353-.358.187-.898 4.798-4.82 2.854-2.43 5.51-4.91 5.906-5.51a29.297 29.297 0 001.895-4.755c.656-2.01 1.52-4.578 2.138-6.197.297-.772 1.746-5.356 2.424-6.298 1.212-1.686 2.71-2.462 7.713-4.01 7.2-2.204 7.961-2.204 14.985-.1 5.234 1.587 6.727 2.336 8.011 4.028 0 0 2.452 5.212 3.096 7.035.513 1.438 3.041 9.702 3.438 10.297.397.595 3.047 3.08 5.906 5.51 4.606 3.922 5.146 4.462 4.793 4.82-.253.253-.892.397-1.785.391-1.267 0-1.846-.27-6.732-3.019-2.937-1.653-5.647-3.344-6.022-3.746-.584-.623-3.807-8.446-4.148-9.57-.182-.55-1.653-4.231-1.653-4.231-.91-2.391-1.334-2.71-2.204-2.485l-.683.171-.072 8.5-.066 8.496H39.17l-.066-8.495-.072-8.501-.683-.182a1.014 1.014 0 00-1.025.198c-.297.325-.749.882-1.768 3.427-.325.821-1.174 3.234-1.174 3.234l-2.804 7.432z" fill="#fff"/><path fill-rule="evenodd" clip-rule="evenodd" d="M31.827 61.397a10.554 10.554 0 01-1.311 2.083c-.353.375-3.041 2.033-5.972 3.68-4.865 2.755-5.46 3.003-6.721 3.008-.893 0-1.532-.138-1.785-.39-.353-.359.187-.899 4.798-4.822 2.854-2.43 5.51-4.908 5.906-5.509a29.297 29.297 0 001.895-4.754c.656-2.011 1.52-4.579 2.138-6.198.297-.772 1.746-5.355 2.424-6.298 1.212-1.685 2.71-2.462 7.713-4.01 7.2-2.204 7.961-2.204 14.985-.1 5.234 1.587 6.727 2.336 8.011 4.028 0 0 2.452 5.212 3.096 7.035.513 1.438 3.041 9.702 3.438 10.297.397.595 3.047 3.08 5.906 5.51 4.606 3.922 5.146 4.462 4.793 4.82-.253.254-.892.397-1.785.391-1.267 0-1.846-.27-6.732-3.019-2.937-1.653-5.647-3.344-6.022-3.746-.584-.623-3.807-8.446-4.149-9.57-.181-.55-1.652-4.231-1.652-4.231-.91-2.391-1.334-2.71-2.204-2.485l-.683.171-.072 8.5-.066 8.496H39.42l-.066-8.495-.072-8.501-.683-.182a1.014 1.014 0 00-1.025.199c-.297.325-.749.881-1.768 3.426-.325.821-1.173 3.234-1.173 3.234l-2.805 7.432z" fill="#fff"/><path fill-rule="evenodd" clip-rule="evenodd" d="M42.235 20.11c1.069-2.115 2.286-3.217 4.308-3.922 2.994-1.058 5.719-.595 8.018 1.712 2.16 2.16 2.362 3.351 2.24 8.679-.099 4.627-.308 5.355-2.115 7.426-.457.524-.793.992-.733 1.041.06.05 1.89.662 4.094 1.356 4.275 1.35 6.06 2.308 7.278 3.856 1.217 1.548 1.69 2.716 4.027 9.812 1.212 3.68 2.418 7.124 2.688 7.675.32.661 2.298 2.55 5.747 5.51 5.36 4.593 6.091 5.189 6.182 5.87.02.147.01.298.01.493 0 1.019-.727 1.779-2.253 2.33l-.876.314.496 1.102a7.2 7.2 0 01.11 4.887 9.857 9.857 0 00-.402 1.063c.687.099 1.383.132 2.077.099 2.424 0 3.145.353 2.886 1.4a1.196 1.196 0 01-.77.842c-.778.215-72.487.215-73.275 0a1.18 1.18 0 01-.766-.843c-.27-1.08.447-1.399 3.152-1.399a9.365 9.365 0 002.341-.149 2.546 2.546 0 00-.27-.66c-.738-1.39-.788-3.653-.132-5.758.138-.44-.006-.606-.755-.876-1.57-.573-2.303-1.24-2.303-2.347 0-.197-.01-.349.01-.496.094-.682.833-1.275 6.183-5.85 3.449-2.976 5.427-4.866 5.746-5.51.27-.513 1.482-3.994 2.694-7.675 2.501-7.614 3.047-8.837 4.6-10.407 1.405-1.394 2.54-1.945 7.499-3.515 2.192-.694 4.038-1.31 4.104-1.372.066-.06-.259-.495-.716-.975a9.419 9.419 0 01-1.444-2.203c-.556-1.207-.611-1.72-.611-5.51 0 0-.108-3.044.196-4.11.304-1.066.735-1.89.735-1.89zm11.69.673a5.659 5.659 0 00-1.872-1.95h.005a5.509 5.509 0 00-8.016 2.402c-.435 1.035-.512 1.68-.435 5.272.077 3.845.12 4.148.749 5.08a5.31 5.31 0 004.369 2.534 5.102 5.102 0 004.611-1.928c1.124-1.29 1.471-3.102 1.35-7.003-.083-2.815-.21-3.366-.76-4.407zM34.616 56.62c-.402-.33-.39-.959.034-2.645 0 0 .848-2.413 1.179-3.245 1.013-2.545 1.465-3.101 1.768-3.426a1.003 1.003 0 011.02-.199l.682.182.144 16.996h18.324l.137-16.996.684-.17c.903-.227 1.322.093 2.236 2.484 0 0 1.471 3.68 1.653 4.231.342 1.124 3.565 8.947 4.149 9.57.374.402 3.085 2.093 6.027 3.746 4.881 2.75 5.465 3.02 6.732 3.02.887.005 1.526-.138 1.78-.392.352-.358-.188-.898-4.793-4.82-2.86-2.43-5.515-4.915-5.906-5.51-.258-.393-1.45-4.127-2.378-7.033-.478-1.497-.886-2.775-1.06-3.264-.645-1.823-3.096-7.035-3.096-7.035-1.284-1.692-2.772-2.44-8.01-4.027-7.025-2.105-7.786-2.105-14.986.099-5.003 1.548-6.501 2.325-7.713 4.01-.525.73-1.511 3.64-2.066 5.276-.162.478-.287.847-.353 1.022-.623 1.62-1.488 4.187-2.143 6.198a29.288 29.288 0 01-1.895 4.754c-.397.6-3.052 3.08-5.906 5.51-4.612 3.922-5.152 4.462-4.799 4.82.254.254.893.391 1.785.391 1.262-.005 1.857-.253 6.722-3.008 2.936-1.647 5.619-3.305 5.972-3.68a10.6 10.6 0 001.316-2.082c.766-1.582 1.592-1.973 2.143-.981.59 1.135-.864 3.989-2.754 5.366-.59.43-.959.777-.827.777.133 0 1.664-.424 3.405-.937 1.741-.512 3.19-.936 3.256-.936.066 0 .066-2.38.066-5.29V54.11l-.55 1.261c-.574 1.35-1.306 1.802-1.979 1.251zm31.365 9.167c-1.532-1.118-1.9-1.768-3.917-6.853v-.006c-.997-2.5-1.846-4.6-1.906-4.66-.06-.061-.105 2.253-.105 5.14 0 4.765.044 5.261.468 5.382l3.152.953c3.338 1.02 3.652 1.025 2.308.044zM19.52 78.858l32.555.341 2.44.06 11.614.155h11.779l.138-.17H54.808l-.55-1.24c-.207-.437-.39-.884-.552-1.34a2.682 2.682 0 011.014-.098c1.377 0 2.044-.518 1.818-1.41-.226-.893-.413-.899-3.724-.711-2.022.11-5.03-.083-12.054-.788-9.917-.986-10.193-.98-10.193.253 0 .733.645.959 3.592 1.278l9.003.948c3.482.375 6.727.848 7.211 1.052.87.364 2.017 1.4 2.017 1.818l-32.55-.32a4.407 4.407 0 01-.886-5.624c.203-.311.381-.529.723-.74-.563.272-.78.516-1.038.91a4.44 4.44 0 00.881 5.626z" fill="#000" stroke="#000"/><path fill-rule="evenodd" clip-rule="evenodd" d="M60.946 73.728c-1.78.11-2.54.264-2.722.55a.914.914 0 00.204 1.405c.408.359.997.38 4.44.166 3.978-.254 4.673-.441 4.673-1.284 0-1.118-.684-1.195-6.595-.837z" fill="#fff"/></g><defs><clipPath id="clip0_1490_7250"><path fill="#fff" d="M0 0h99v107H0z"/></clipPath></defs></svg>