<svg width="12" height="16" fill="none" xmlns="http://www.w3.org/2000/svg"><path d="M6 .5a6.063 6.063 0 00-4.24 1.728A5.847 5.847 0 000 6.393a5.766 5.766 0 001.209 3.536s.163.211.19.242L6 15.5l4.603-5.332c.024-.028.188-.24.188-.24v-.001A5.763 5.763 0 0012 6.393a5.847 5.847 0 00-1.76-4.165A6.063 6.063 0 006 .5zm0 8.036a2.21 2.21 0 01-1.212-.361 2.152 2.152 0 01-.804-.962 2.107 2.107 0 01-.124-1.238c.084-.416.292-.798.597-1.097a2.214 2.214 0 012.377-.465c.4.162.74.437.98.79a2.111 2.111 0 01-.272 2.704A2.205 2.205 0 016 8.536z" fill="#E3000F"/></svg>