<svg width="52" height="53" fill="none" xmlns="http://www.w3.org/2000/svg"><circle cx="26" cy="26" r="14" fill="#000"/><path fill-rule="evenodd" clip-rule="evenodd" d="M22.256 1.007C16.44 1.99 11.84 4.4 7.863 8.548 3.202 13.41.806 19.318.8 25.97c-.004 4.339.762 7.684 2.61 11.399.502 1.007 1.308 2.403 1.793 3.103.484.7.88 1.383.88 1.518s-.814 2.131-1.808 4.437c-.995 2.305-1.808 4.417-1.808 4.693 0 .58.643 1.31 1.155 1.31.193 0 3.414-.544 7.158-1.208 3.744-.664 6.873-1.167 6.953-1.117.08.05 1.04.326 2.133.614 2.739.721 7.337.907 10.232.413 14.664-2.502 24.019-17.055 20.275-31.541C48.02 10.48 40.74 3.467 31.397 1.304c-2.242-.519-6.927-.67-9.141-.297zm3.55 20.45c.458.417.476 1.432.035 1.922-.303.336-.723.37-4.655.37-3.74 0-4.372-.045-4.69-.334-.458-.417-.477-1.432-.035-1.922.302-.336.722-.37 4.655-.37 3.74 0 4.372.045 4.69.334zm9.564 6.848c.594.418.606 1.498.024 2.027-.402.367-.854.385-9.421.385s-9.02-.018-9.422-.385c-.536-.488-.546-1.41-.021-1.938.39-.392.67-.404 9.398-.404 7.817 0 9.054.042 9.442.315z" fill="#FFC234"/></svg>