<?xml version="1.0" encoding="UTF-8" standalone="no"?>
<!-- Created with Inkscape (http://www.inkscape.org/) -->

<svg
   xmlns:dc="http://purl.org/dc/elements/1.1/"
   xmlns:cc="http://creativecommons.org/ns#"
   xmlns:rdf="http://www.w3.org/1999/02/22-rdf-syntax-ns#"
   xmlns:svg="http://www.w3.org/2000/svg"
   xmlns="http://www.w3.org/2000/svg"
   xmlns:sodipodi="http://sodipodi.sourceforge.net/DTD/sodipodi-0.dtd"
   xmlns:inkscape="http://www.inkscape.org/namespaces/inkscape"
   width="26"
   height="26"
   id="svg3016"
   version="1.1"
   inkscape:version="0.48.3.1 r9886"
   sodipodi:docname="guard-off-white.svg">
  <defs
     id="defs3018" />
  <sodipodi:namedview
     id="base"
     pagecolor="#ffffff"
     bordercolor="#666666"
     borderopacity="1.0"
     inkscape:pageopacity="0.0"
     inkscape:pageshadow="2"
     inkscape:zoom="3.6203867"
     inkscape:cx="7.9515134"
     inkscape:cy="27.810473"
     inkscape:document-units="px"
     inkscape:current-layer="layer1"
     showgrid="false"
     inkscape:window-width="1073"
     inkscape:window-height="703"
     inkscape:window-x="458"
     inkscape:window-y="232"
     inkscape:window-maximized="0" />
  <metadata
     id="metadata3021">
    <rdf:RDF>
      <cc:Work
         rdf:about="">
        <dc:format>image/svg+xml</dc:format>
        <dc:type
           rdf:resource="http://purl.org/dc/dcmitype/StillImage" />
        <dc:title></dc:title>
      </cc:Work>
    </rdf:RDF>
  </metadata>
  <g
     inkscape:label="Layer 1"
     inkscape:groupmode="layer"
     id="layer1"
     transform="translate(0,-1026.3622)">
    <g
       style="fill:#474747;fill-opacity:1;stroke:none;display:inline"
       id="g3956"
       transform="translate(-27,999.3622)">
      <path
         inkscape:connector-curvature="0"
         style="fill:#474747;fill-opacity:1;stroke:none"
         id="rect3935"
         d="M 32.375,37 C 31.059948,37 30,38.059948 30,39.375 l 0,11.25 C 30,51.940052 31.059948,53 32.375,53 l 15.25,0 C 48.940052,53 50,51.940052 50,50.625 l 0,-11.25 C 50,38.059948 48.940052,37 47.625,37 l -15.25,0 z M 40,42 c 1.104569,0 2,0.895431 2,2 0,0.739604 -0.403104,1.372707 -1,1.71875 l 0,2.78125 -2,0 0,-2.78125 C 38.403104,45.372707 38,44.739604 38,44 c 0,-1.104569 0.895431,-2 2,-2 z" />
      <path
         inkscape:connector-curvature="0"
         style="fill:#474747;fill-opacity:1;stroke:none"
         id="path3939"
         d="m 40,27 c -3.865994,0 -7,2.686291 -7,6 l 0,3 3,0 0,-1.96875 C 36,31.798557 37.790861,30 40,30 c 2.209139,0 4,1.798557 4,4.03125 L 44,36 l 3,0 0,-3 c 0,-3.313709 -3.134008,-6 -7,-6 z" />
    </g>
  </g>
</svg>
