<svg xmlns="http://www.w3.org/2000/svg" width="26" height="26" id="svg3016" version="1.1"><g id="layer1" transform="translate(0 -1026.362)"><g id="g3956" transform="translate(-27 999.362)" fill="#474747" fill-opacity="1" stroke="none" display="inline"><path id="rect3935" d="M32.375 37A2.37 2.37 0 0030 39.375v11.25A2.37 2.37 0 0032.375 53h15.25A2.37 2.37 0 0050 50.625v-11.25A2.37 2.37 0 0047.625 37h-15.25zM40 42a2 2 0 012 2 1.98 1.98 0 01-1 1.719V48.5h-2v-2.781A1.98 1.98 0 0138 44a2 2 0 012-2z"/><path id="path3939" d="M40 27c-3.866 0-7 2.686-7 6v3h3v-1.969C36 31.8 37.79 30 40 30s4 1.799 4 4.031V36h3v-3c0-3.314-3.134-6-7-6z"/></g></g></svg>