<svg xmlns="http://www.w3.org/2000/svg" width="26" height="26" id="svg3016" version="1.1"><g id="layer1" transform="translate(0 -1026.362)"><g id="g3846" transform="matrix(.5 0 0 .5 -27 999.362)" fill="#474747" fill-opacity="1" stroke="none" display="inline"><path id="path3983" d="M70.75 74C68.12 74 66 76.12 66 78.75v22.5c0 2.63 2.12 4.75 4.75 4.75h30.5c2.63 0 4.75-2.12 4.75-4.75v-22.5c0-2.63-2.12-4.75-4.75-4.75h-30.5zM86 84a4 4 0 014 4c0 1.48-.806 2.745-2 3.438V97h-4v-5.563c-1.194-.692-2-1.958-2-3.437a4 4 0 014-4z"/><path id="path3985" d="M68 54c-7.732 0-14 5.373-14 12v10h6v-7.938C60 63.597 63.582 60 68 60s8 3.597 8 8.063V72h6v-6c0-6.627-6.268-12-14-12z"/></g></g></svg>