<?xml version="1.0" encoding="UTF-8" standalone="no"?>
<!-- Created with Inkscape (http://www.inkscape.org/) -->

<svg
   xmlns:dc="http://purl.org/dc/elements/1.1/"
   xmlns:cc="http://creativecommons.org/ns#"
   xmlns:rdf="http://www.w3.org/1999/02/22-rdf-syntax-ns#"
   xmlns:svg="http://www.w3.org/2000/svg"
   xmlns="http://www.w3.org/2000/svg"
   xmlns:sodipodi="http://sodipodi.sourceforge.net/DTD/sodipodi-0.dtd"
   xmlns:inkscape="http://www.inkscape.org/namespaces/inkscape"
   width="26"
   height="26"
   id="svg3016"
   version="1.1"
   inkscape:version="0.48.3.1 r9886"
   sodipodi:docname="offline-white.svg">
  <defs
     id="defs3018" />
  <sodipodi:namedview
     id="base"
     pagecolor="#ffffff"
     bordercolor="#666666"
     borderopacity="1.0"
     inkscape:pageopacity="0.0"
     inkscape:pageshadow="2"
     inkscape:zoom="3.6203867"
     inkscape:cx="7.9515134"
     inkscape:cy="27.810473"
     inkscape:document-units="px"
     inkscape:current-layer="layer1"
     showgrid="false"
     inkscape:window-width="1073"
     inkscape:window-height="703"
     inkscape:window-x="458"
     inkscape:window-y="232"
     inkscape:window-maximized="0" />
  <metadata
     id="metadata3021">
    <rdf:RDF>
      <cc:Work
         rdf:about="">
        <dc:format>image/svg+xml</dc:format>
        <dc:type
           rdf:resource="http://purl.org/dc/dcmitype/StillImage" />
        <dc:title></dc:title>
      </cc:Work>
    </rdf:RDF>
  </metadata>
  <g
     inkscape:label="Layer 1"
     inkscape:groupmode="layer"
     id="layer1"
     transform="translate(0,-1026.3622)">
    <g
       style="fill:#474747;fill-opacity:1;stroke:none;display:inline"
       id="g3846"
       transform="matrix(0.5,0,0,0.5,-27,999.3622)">
      <path
         inkscape:connector-curvature="0"
         style="fill:#474747;fill-opacity:1;stroke:none"
         id="path3983"
         d="M 70.75,74 C 68.119896,74 66,76.1199 66,78.75 l 0,22.5 c 0,2.6301 2.119896,4.75 4.75,4.75 l 30.5,0 c 2.6301,0 4.75,-2.1199 4.75,-4.75 l 0,-22.5 C 106,76.1199 103.8801,74 101.25,74 l -30.5,0 z M 86,84 c 2.209138,0 4,1.79086 4,4 0,1.4792 -0.806208,2.74542 -2,3.4375 L 88,97 84,97 84,91.4375 C 82.806208,90.74542 82,89.4792 82,88 c 0,-2.20914 1.790862,-4 4,-4 z" />
      <path
         inkscape:connector-curvature="0"
         style="fill:#474747;fill-opacity:1;stroke:none"
         id="path3985"
         d="m 68,54 c -7.731988,0 -14,5.37258 -14,12 l 0,10 6,0 0,-7.9375 C 60,63.59712 63.581722,60 68,60 c 4.418278,0 8,3.59712 8,8.0625 L 76,72 l 6,0 0,-6 C 82,59.37258 75.731984,54 68,54 z" />
    </g>
  </g>
</svg>
