<svg width="424" height="76" fill="none" xmlns="http://www.w3.org/2000/svg"><path d="M75.073 37.92C75.122 17.113 58.34.14 37.67.09 17.001.04.139 16.933.09 37.739c-.024 10.107 3.916 19.3 10.352 26.107-.455.91-1.079 1.559-1.884 1.967-2.391 1.213-5.649.077-5.671.066a2.114 2.114 0 00-2.47.78 2.167 2.167 0 00.085 2.61c.225.274 2.302 2.751 6.51 4.46 2.024.825 4.784 1.538 8.236 1.546 2.864.007 6.216-.475 10.034-1.799a37.17 37.17 0 0012.22 2.092c20.66.05 37.521-16.841 37.57-37.647zm-4.619-4.854a88.15 88.15 0 00-6.701-4.802c-8.25-5.341-15.038-7.557-20.168-6.578-2.435.461-4.452 1.607-6.03 3.427-1.863-1.908-4.396-3.042-7.056-3.048a9.714 9.714 0 00-4.894 1.321c1.03-4.476 2.986-8.607 5.87-12.36 2.805-3.651 5.709-5.843 6.82-6.615 16.39.347 29.888 12.708 32.16 28.655zm-33.813 38.18c-16.231-.46-29.571-12.673-31.91-28.46a53.186 53.186 0 005.978 4.014c5.471 3.158 14.077 6.79 24.763 6.817.713.001 1.438-.008 2.162-.04h.034c.046 0 .09-.012.136-.012.023 0 .045 0 .068-.011l.147-.034c.012 0 .034-.011.046-.011a1.12 1.12 0 00.26-.09c.034-.012.068-.023.102-.046.023-.011.057-.023.08-.045.034-.012.068-.034.09-.046.023-.011.057-.034.08-.045.034-.023.056-.034.09-.057.023-.023.046-.034.08-.057l.034-.034c4.491-3.658 7.429-6.146 10.061-8.795.352-.34.681-.693.988-1.034-1.117 7.768-3.758 13.949-6.157 18.216-2.864 5.189-5.895 8.52-7.132 9.77zM24.768 32.523v-.034c0-.068.012-.137.001-.205v-.046c0-.068-.01-.148-.01-.216.007-3.065 2.616-5.657 5.707-5.65 2.467.007 4.376 1.732 5.187 3.443.011.023.023.034.034.057.023.057.056.103.09.16.011.023.034.057.045.08.045.068.102.137.158.194.012.023.034.034.046.057.045.046.09.091.146.137.023.023.046.034.057.057.068.057.135.103.203.149.011.011.023.011.034.023l.17.102c.011.012.022.012.045.023.023.012.056.023.08.035.067.023.123.046.191.069.023.011.046.011.057.023.09.023.18.046.26.057h.034c.08.012.159.012.249.024h.057c.09 0 .18-.011.271-.022.012 0 .023 0 .034-.012.08-.01.148-.034.227-.045.023-.011.045-.011.068-.022.08-.023.17-.057.25-.091 0 0 .01 0 .01-.011.08-.034.148-.08.227-.125.023-.012.034-.023.057-.034.068-.046.147-.102.215-.16.068-.056.136-.124.193-.192.011-.012.023-.023.034-.046.046-.057.102-.114.136-.182.012-.011.023-.034.035-.045.045-.069.09-.148.125-.217.068-.136.136-.273.204-.398.898-1.581 2.724-3.058 5.011-3.053 3.09.008 5.688 2.612 5.68 5.677 0 .068 0 .148-.012.216v.331c.01.558-.09 4.34-4.458 8.637-2.247 2.262-4.765 4.421-8.395 7.41-3.615-2.995-6.123-5.177-8.359-7.45l-.01-.011c-4.416-4.42-4.396-8.272-4.384-8.694zM30.97 5.065a36.61 36.61 0 00-2.758 3.173c-3.702 4.754-8.034 12.776-7.71 23.955v.102c-.047 1.026.042 6.381 5.666 11.967 1.57 1.588 3.241 3.118 5.275 4.867-7.832-.76-14.198-3.521-18.472-5.97-4.408-2.529-7.39-5.157-8.588-6.288.445-15.746 11.74-28.777 26.587-31.806zM9.5 70.075c.317-.112.646-.248.952-.407a8.286 8.286 0 003.188-2.818 37.138 37.138 0 005.458 3.796c-4.02.685-7.2.245-9.598-.57zm33.177.799a53.921 53.921 0 004.748-7.087c3.729-6.612 8.011-17.415 7.252-31.409v-.296a9.604 9.604 0 00-1.087-4.458c6.604 2.819 13.621 8.169 17.168 11.254-.48 16.224-12.51 29.572-28.081 31.996zM86.576 2.996l18.532.045 19.596 47.8 19.823-47.705 18.532.045-29.141 69.452-18.532-.044-28.81-69.593zm83.335.002l21.514.052 19.967 46.126 20.237-46.028 21.411.051-.165 69.523-16.996-.041.097-40.902-17.298 40.86-14.839-.036-17.104-40.435-.096 40.393-16.996-.04.166-69.523h.102zM264.283 3l15.748.038-.166 69.524-15.747-.038L264.283 3zm29.244.001l32.328.078c16.038.039 30.022 12.21 29.985 28.105-.023 9.598-5.101 17.66-12.5 22.823l13.008 18.669-20.54-.05-9.327-13.43-16.341-.039-.032 13.407-16.746-.04L293.527 3zm31.981 39.74c7.791.018 13.521-5.452 13.535-11.597.015-6.043-6.195-11.543-13.986-11.562l-14.874-.036-.055 23.157 15.38.037zm42.254-39.739l56.237.136-.039 16.505-39.588-.096-.023 9.852 28.27.068-.039 16.302-28.27-.069-.024 10.259 39.588.096-.04 16.606-56.238-.136.166-69.523z" fill="#fff"/></svg>