<svg width="159" height="36" fill="none" xmlns="http://www.w3.org/2000/svg"><path d="M57.764 12.556c-1.476-2.016-3.564-3.024-6.3-3.024-2.483 0-4.572.9-6.335 2.736C43.364 14.104 42.5 16.336 42.5 19c0 2.628.864 4.896 2.628 6.732 1.764 1.836 3.852 2.736 6.336 2.736 2.735 0 4.823-1.008 6.3-3.06V28h3.888V2.8h-3.889v9.756zM48.008 23.14c-1.08-1.116-1.62-2.484-1.62-4.14 0-1.656.54-3.024 1.62-4.104 1.08-1.116 2.448-1.656 4.069-1.656 1.62 0 2.988.54 4.068 1.656 1.08 1.08 1.62 2.448 1.62 4.104 0 1.656-.54 3.024-1.62 4.14-1.08 1.08-2.449 1.62-4.069 1.62s-2.987-.54-4.068-1.62zm25.232 5.328c2.664 0 4.896-.9 6.732-2.736 1.836-1.836 2.772-4.068 2.772-6.732 0-2.664-.936-4.896-2.772-6.732-1.836-1.836-4.068-2.736-6.732-2.736-2.628 0-4.896.9-6.732 2.736-1.836 1.836-2.772 4.068-2.772 6.732 0 2.664.936 4.896 2.772 6.732 1.836 1.836 4.104 2.736 6.732 2.736zm-3.996-5.4c-1.08-1.08-1.62-2.448-1.62-4.068 0-1.62.54-2.988 1.62-4.068 1.08-1.08 2.412-1.62 3.996-1.62s2.916.54 3.996 1.62 1.62 2.448 1.62 4.068c0 1.62-.54 2.988-1.62 4.068-1.08 1.08-2.412 1.62-3.996 1.62s-2.916-.54-3.996-1.62zM95.188 9.532c-2.556 0-4.392.936-5.58 2.772V10H85.72v18h3.888v-9.648c0-3.492 1.836-5.184 4.572-5.184 2.484 0 4.032 1.476 4.032 4.176V28h3.888V16.948c0-4.608-2.772-7.416-6.912-7.416zm24.634 3.024c-1.476-2.016-3.564-3.024-6.3-3.024-2.484 0-4.572.9-6.336 2.736-1.764 1.836-2.628 4.068-2.628 6.732 0 2.628.864 4.896 2.628 6.732 1.764 1.836 3.852 2.736 6.336 2.736 2.736 0 4.824-1.008 6.3-3.06V28h3.888V10h-3.888v2.556zm-9.756 10.584c-1.08-1.116-1.62-2.484-1.62-4.14 0-1.656.54-3.024 1.62-4.104 1.08-1.116 2.448-1.656 4.068-1.656 1.62 0 2.988.54 4.068 1.656 1.08 1.08 1.62 2.448 1.62 4.104 0 1.656-.54 3.024-1.62 4.14-1.08 1.08-2.448 1.62-4.068 1.62-1.62 0-2.988-.54-4.068-1.62zM138.286 10h-4.464V4.96l-3.888 1.152V10h-3.312v3.744h3.312v8.64c0 4.716 2.412 6.336 8.352 5.616v-3.492c-2.952.144-4.464.18-4.464-2.124v-8.64h4.464V10zm20.176 10.656c.108-.684.144-1.224.144-1.62 0-2.628-.864-4.896-2.556-6.732-1.692-1.836-3.852-2.772-6.48-2.772-2.772 0-5.076.9-6.84 2.736-1.764 1.8-2.664 4.032-2.664 6.732 0 2.736.9 5.004 2.7 6.804 1.8 1.764 4.176 2.664 7.092 2.664 3.492 0 6.12-1.296 7.884-3.924l-3.204-1.872c-1.044 1.476-2.592 2.232-4.644 2.232-2.988 0-5.184-1.512-5.76-4.248h14.328zm-14.364-3.168c.54-2.736 2.556-4.428 5.436-4.428 2.556 0 4.608 1.512 5.148 4.428h-10.584zM36 18c0 9.941-8.059 18-18 18S0 27.941 0 18 8.059 0 18 0s18 8.059 18 18zM2.661 18c0 8.471 6.868 15.339 15.339 15.339S33.339 26.47 33.339 18 26.47 2.661 18 2.661 2.661 9.53 2.661 18z" fill="#000"/><path d="M6.32 18c-.73 0-1.327-.592-1.253-1.317A13 13 0 0116.683 5.067C17.408 4.993 18 5.59 18 6.319s-.593 1.311-1.316 1.404a10.362 10.362 0 00-8.961 8.961C7.63 17.407 7.048 18 6.319 18zM16 15a2 2 0 114 0v7a2 2 0 11-4 0v-7z" fill="#000"/><path d="M22.5 17a1.5 1.5 0 010 3h-9a1.5 1.5 0 010-3h9z" fill="#000"/></svg>