<svg width="240" height="55" fill="none" xmlns="http://www.w3.org/2000/svg"><path d="M87.408 19c-2.233-3.051-5.393-4.576-9.533-4.576-3.758 0-6.918 1.362-9.587 4.14-2.67 2.778-3.977 6.155-3.977 10.186 0 3.977 1.307 7.41 3.977 10.187 2.669 2.779 5.829 4.14 9.587 4.14 4.14 0 7.3-1.525 9.533-4.63v3.922h5.883V4.237h-5.883V19zM72.646 35.015c-1.635-1.689-2.452-3.759-2.452-6.265 0-2.505.817-4.575 2.452-6.21 1.634-1.688 3.704-2.505 6.155-2.505 2.452 0 4.522.817 6.156 2.505 1.634 1.635 2.451 3.705 2.451 6.21 0 2.506-.817 4.576-2.451 6.265-1.634 1.634-3.704 2.452-6.156 2.452-2.451 0-4.521-.818-6.155-2.452zm38.18 8.062c4.031 0 7.408-1.361 10.187-4.14 2.778-2.778 4.194-6.155 4.194-10.186 0-4.032-1.416-7.409-4.194-10.187-2.779-2.778-6.156-4.14-10.187-4.14-3.977 0-7.409 1.362-10.187 4.14-2.778 2.778-4.194 6.155-4.194 10.186 0 4.032 1.416 7.41 4.194 10.187 2.778 2.779 6.21 4.14 10.187 4.14zm-6.047-8.17c-1.634-1.635-2.451-3.705-2.451-6.156 0-2.452.817-4.522 2.451-6.156 1.634-1.634 3.65-2.451 6.047-2.451s4.412.817 6.047 2.45c1.634 1.635 2.451 3.705 2.451 6.156 0 2.452-.817 4.522-2.451 6.156-1.635 1.634-3.65 2.452-6.047 2.452s-4.413-.818-6.047-2.452zm39.258-20.483c-3.868 0-6.646 1.416-8.444 4.194v-3.486h-5.883v27.237h5.883V27.77c0-5.284 2.778-7.844 6.918-7.844 3.759 0 6.101 2.233 6.101 6.319v16.124h5.884V25.645c0-6.972-4.195-11.221-10.459-11.221zM181.313 19c-2.233-3.051-5.393-4.576-9.533-4.576-3.759 0-6.918 1.362-9.588 4.14-2.669 2.778-3.976 6.155-3.976 10.186 0 3.977 1.307 7.41 3.976 10.187 2.67 2.779 5.829 4.14 9.588 4.14 4.14 0 7.3-1.525 9.533-4.63v3.922h5.883V15.132h-5.883V19zM166.55 35.015c-1.634-1.689-2.451-3.759-2.451-6.265 0-2.505.817-4.575 2.451-6.21 1.635-1.688 3.705-2.505 6.156-2.505 2.451 0 4.521.817 6.156 2.505 1.634 1.635 2.451 3.705 2.451 6.21 0 2.506-.817 4.576-2.451 6.265-1.635 1.634-3.705 2.452-6.156 2.452-2.451 0-4.521-.818-6.156-2.452zm42.702-19.883h-6.755V7.505l-5.883 1.744v5.883h-5.012v5.665h5.012v13.074c0 7.136 3.65 9.588 12.638 8.498v-5.284c-4.467.218-6.755.273-6.755-3.214V20.797h6.755v-5.665zm30.53 16.124c.163-1.035.218-1.852.218-2.451 0-3.977-1.307-7.409-3.868-10.187-2.56-2.778-5.829-4.194-9.805-4.194-4.195 0-7.681 1.362-10.35 4.14-2.67 2.724-4.031 6.1-4.031 10.186 0 4.14 1.361 7.572 4.085 10.296 2.724 2.67 6.319 4.031 10.732 4.031 5.284 0 9.26-1.96 11.93-5.937l-4.849-2.833c-1.579 2.233-3.922 3.377-7.027 3.377-4.521 0-7.844-2.288-8.716-6.428h21.681zm-21.735-4.793c.817-4.14 3.867-6.7 8.225-6.7 3.868 0 6.973 2.287 7.79 6.7h-16.015z" fill="#000"/><circle cx="27.237" cy="27.237" r="24.211" fill="#FF008A"/><path d="M54.474 27.237c0 15.043-12.194 27.238-27.237 27.238C12.195 54.474 0 42.28 0 27.236 0 12.195 12.194 0 27.237 0 42.28 0 54.475 12.194 54.475 27.237zm-50.447 0c0 12.819 10.392 23.21 23.21 23.21 12.819 0 23.21-10.391 23.21-23.21 0-12.818-10.391-23.21-23.21-23.21-12.818 0-23.21 10.392-23.21 23.21z" fill="#000"/><path d="M9.562 27.237c-1.102 0-2.007-.896-1.895-1.993A19.672 19.672 0 0125.244 7.667c1.097-.112 1.993.793 1.993 1.895 0 1.103-.897 1.984-1.99 2.124a15.679 15.679 0 00-13.561 13.56c-.14 1.094-1.021 1.991-2.124 1.991zm14.648-4.539a3.026 3.026 0 116.054 0V33.29a3.026 3.026 0 11-6.053 0V22.698z" fill="#000"/><path d="M34.047 25.724a2.27 2.27 0 010 4.54h-13.62a2.27 2.27 0 010-4.54h13.62z" fill="#000"/></svg>