<svg width="272" height="206" fill="none" xmlns="http://www.w3.org/2000/svg"><path d="M32.314 167.817c-.282 3.785-1.881 6.717-4.797 8.796-2.885 2.078-6.46 3.118-10.725 3.118-5.048 0-9.11-1.426-12.182-4.278C1.537 172.601 0 169.03 0 164.739c0-4.238 1.568-7.769 4.704-10.594 3.167-2.852 7.26-4.278 12.276-4.278 4.077 0 7.558 1.08 10.443 3.239 2.916 2.132 4.5 4.797 4.75 7.995h-9.972c-.282-1.279-.893-2.265-1.834-2.958-.94-.693-2.132-1.04-3.575-1.04-1.505 0-2.775.413-3.81 1.24-1.003.799-1.693 1.745-2.07 2.838-.376 1.093-.564 2.279-.564 3.558 0 2.372.565 4.238 1.694 5.597 1.16 1.359 2.743 2.039 4.75 2.039 3.073 0 4.876-1.519 5.41-4.558h10.112zm32.525-17.23H79.42c9.752 0 14.629 3.371 14.629 10.114 0 3.145-1.16 5.531-3.481 7.156-2.29 1.599-5.33 2.399-9.125 2.399h-6.397v8.795H64.839v-28.464zm10.207 6.996v6.037h4.939c2.822 0 4.233-1 4.233-2.999 0-2.025-1.474-3.038-4.422-3.038h-4.75zm30.343-6.996v28.464H95.135v-28.464h10.254zm30.057 0v7.316h-9.407v21.148h-10.254v-21.148h-9.361v-7.316h29.022zm53.924 21.028v7.436h-25.164v-28.464h10.301v21.028h14.863zm11.895-21.028v28.464h-10.254v-28.464h10.254zm28.881 8.635h-9.643c-.031-.853-.423-1.519-1.175-1.999-.753-.479-1.788-.719-3.105-.719-2.258 0-3.386.586-3.386 1.759 0 .319.188.626.564.919.376.293.894.547 1.552.76.69.186 1.317.346 1.882.479.564.134 1.191.267 1.881.4a35.3 35.3 0 011.27.2c1.317.293 2.446.573 3.387.84.94.266 1.96.653 3.057 1.159 1.098.48 1.976 1.026 2.634 1.639.69.586 1.27 1.346 1.741 2.279.47.906.705 1.932.705 3.078 0 2.959-1.317 5.317-3.951 7.076-2.634 1.733-6.193 2.599-10.677 2.599-4.673 0-8.357-.906-11.054-2.719-2.697-1.839-4.076-4.344-4.139-7.516h10.301c.157 2.452 1.897 3.678 5.221 3.678 1.286 0 2.305-.213 3.057-.639.753-.427 1.129-1 1.129-1.719 0-.453-.219-.84-.658-1.16-.408-.293-1.192-.613-2.352-.959a70.867 70.867 0 00-4.139-1.079c-1.568-.4-2.556-.667-2.964-.8-1.348-.4-2.461-.786-3.339-1.159a13.172 13.172 0 01-2.54-1.44c-.816-.613-1.427-1.346-1.835-2.198-.376-.88-.564-1.906-.564-3.079 0-2.665 1.238-4.81 3.716-6.436 2.508-1.653 5.785-2.479 9.83-2.479 4.265 0 7.573.813 9.925 2.439 2.383 1.599 3.606 3.864 3.669 6.796zm41.157-8.635v28.464h-9.643v-4.277c0-5.038.126-10.435.377-16.192l-6.303 20.469h-7.667l-6.35-20.469c.219 4.318.345 9.315.376 14.992l.047 5.477h-9.643v-28.464h14.723l2.164 7.396c1.129 3.971 1.991 7.569 2.587 10.794.47-2.292 1.411-5.957 2.822-10.994l2.069-7.196h14.441z" fill="#fff"/><path d="M221.543 145.993h-9.95v4.488l9.95-.039v-4.449zm0 33.331l-9.95-.098v3.669h9.95v-3.571zm-57.337-1.503l-11.791-27.234h-10.16l-12.371 28.464h10.395l1.646-4.038c.753-1.919 3.575-9.648 4.046-10.954a72.153 72.153 0 001.411-4.357c.439 1.732.862 3.171 1.27 4.317l4.045 10.994 1.646 4.038h9.863v-1.23zm-99.367 0l-11.791-27.234h-10.16l-12.37 28.464h10.394l1.647-4.038c.752-1.919 3.574-9.648 4.045-10.954a71.515 71.515 0 001.41-4.357c.44 1.732.863 3.171 1.27 4.317l4.046 10.994 1.646 4.038h9.863v-1.23zm1.651 18.917v9.026h1.382v-5.334c0-.261-.044-1.43-.044-2.25h.044l2.968 7.584h1.41l2.983-7.584h.014c0 .833-.043 1.989-.043 2.25v5.334h1.382v-9.026h-2.022l-3.011 7.633h-.03l-2.996-7.633H66.49zm42.464 0v5.719c0 1.952-1.44 2.474-2.749 2.474-1.281 0-2.706-.547-2.706-2.499v-5.694h-1.426v6.029c0 1.679 1.222 3.233 4.059 3.233 2.895 0 4.248-1.567 4.248-3.407v-5.855h-1.426zm34.652 2.648c-.073-.995-.437-2.885-4.117-2.885-2.561 0-3.637 1.38-3.637 2.785 0 1.443 1.164 1.94 3.026 2.275 3.389.622 3.637.933 3.637 1.878 0 1.293-1.746 1.517-2.779 1.517-1.338 0-2.895-.473-2.895-2.114h-1.338c0 1.305.727 3.158 4.262 3.158 1.818 0 4.132-.597 4.132-2.723 0-1.541-.801-2.101-4.03-2.735-2.197-.435-2.633-.646-2.633-1.417 0-1.368 1.527-1.579 2.429-1.579 1.179 0 2.517.435 2.604 1.84h1.339zm26.783-2.648h-1.426v9.026h1.426v-9.026zm34.322 2.722c-.204-1.516-1.615-2.959-4.335-2.959-3.07 0-4.917 1.927-4.917 4.7 0 3.469 2.342 4.799 4.742 4.799.8 0 4.03-.149 4.612-3.556h-1.382c-.48 2.101-2.081 2.474-3.012 2.474-2.618 0-3.491-1.628-3.491-3.754 0-2.375 1.542-3.581 3.448-3.581 1.018 0 2.56.286 2.953 1.877h1.382z" fill="#fff"/><path d="M95.118 32.854l.982.995 29.045-27.78c-3.571-3.853-10.44-5.38-15.719-5.98-4.597-.521-9.053 1.272-12.562 4.288l-3.327 2.859A43.075 43.075 0 0042.09 30.142a43.088 43.088 0 0010.372 50.544 43.078 43.078 0 0049.425 5.513v12.693c7.365-2.335 12.005-5.55 16.606-10.643 2.954-3.27 4.306-7.638 4.306-12.044V54.132a20.067 20.067 0 014.261-4.72c3.777-3.022 8.423-4.383 13.046-3.823 4.622.56 8.896 3.002 12.002 6.857a21.638 21.638 0 013.733 6.993v34.643c7.366-2.336 12.005-5.55 16.606-10.643 2.954-3.27 4.306-7.639 4.306-12.045V55.735c1.144-2.903 2.863-5.49 5.031-7.564 2.429-2.323 5.344-3.926 8.471-4.659a17.005 17.005 0 019.41.468c3.046 1.04 5.799 2.924 8.003 5.478 2.204 2.553 3.787 5.692 4.599 9.122.813 3.43.83 7.039.048 10.49-.781 3.451-1.228 5.726-4.514 9.243-3.287 3.516-8.178 3.988-11.084 5.126l-6.119 20.009 40.951 19.154c4.163-8.277-10.132-28.32-10.132-28.32.291-.328.579-.661.862-1 4.471-5.355 7.657-11.877 9.259-18.954a47.807 47.807 0 00-.099-21.514c-1.667-7.034-4.912-13.47-9.432-18.707-4.519-5.237-10.166-9.102-16.412-11.234a34.877 34.877 0 00-19.299-.96c-6.413 1.504-12.39 4.792-17.372 9.556a41.43 41.43 0 00-3.818 4.192c-6.178-6.723-14.221-10.971-22.857-12.018-9.48-1.148-19.007 1.643-26.753 7.838-7.638 6.11-13.014 15.106-15.127 25.302a21.008 21.008 0 01-33.247 7.4 21.009 21.009 0 0117.149-36.47 21.006 21.006 0 0110.847 5.14z" fill="#EFCDA5"/></svg>