<svg viewBox="0 0 24 24" xmlns="http://www.w3.org/2000/svg" xmlns:xlink="http://www.w3.org/1999/xlink"><style>:root&gt;svg{display:none}:root&gt;svg:target{display:block}</style><svg viewBox="0 0 24 24" id="arrow" xmlns="http://www.w3.org/2000/svg"><path d="M0 7.33L2.829 4.5l9.175 9.339L21.171 4.5 24 7.33 12.004 19.5z"/></svg><svg viewBox="0 0 22 22" id="cart" xmlns="http://www.w3.org/2000/svg"><path d="M17.267 15.042H9.378a3.199 3.199 0 01-3.092-2.47l-1.257-5.11A3.212 3.212 0 018.17 3.488h10.372a3.212 3.212 0 013.143 3.972l-1.257 5.123a3.206 3.206 0 01-3.162 2.458zM8.134 5.06a1.647 1.647 0 00-1.597 2.03l1.257 5.123a1.634 1.634 0 001.597 1.257h7.876a1.634 1.634 0 001.596-1.257l1.258-5.123a1.642 1.642 0 00-1.597-2.03H8.134z"/><path d="M5.946 8.8a.786.786 0 01-.76-.628L4.06 3.288a2.018 2.018 0 00-1.974-1.56H1.062a.786.786 0 110-1.57h1.025a3.59 3.59 0 013.507 2.771l1.12 4.884a.78.78 0 01-.585.943.9.9 0 01-.183.044zm3.552 13.043a2.514 2.514 0 110-5.028 2.514 2.514 0 010 5.028zm0-3.482a.955.955 0 100 1.91.955.955 0 000-1.91zm8.687 3.482a2.514 2.514 0 110-5.029 2.514 2.514 0 010 5.029zm0-3.482a.955.955 0 10.012 1.91.955.955 0 00-.012-1.91z"/><path d="M18.185 18.36H7.713a2.445 2.445 0 110-4.89h1.665a.786.786 0 010 1.572H7.713a.874.874 0 000 1.747h10.472a.786.786 0 010 1.571z"/></svg><svg viewBox="0 0 20 17" id="heart" xmlns="http://www.w3.org/2000/svg"><path d="M17.657 1.8a6.173 6.173 0 00-7.929-.613 6.154 6.154 0 00-8.253.902 5.959 5.959 0 00-1.47 4.155 5.971 5.971 0 001.795 4.03l6.034 5.96A2.72 2.72 0 009.728 17a2.72 2.72 0 001.895-.765l6.034-5.962a5.968 5.968 0 001.772-4.236c0-1.587-.637-3.11-1.772-4.236zm-1.37 7.15l-6.034 5.952a.738.738 0 01-.525.216.746.746 0 01-.524-.216L3.17 8.922a4.083 4.083 0 01-1.19-2.875c0-1.075.428-2.107 1.19-2.876a4.179 4.179 0 012.915-1.18c1.09 0 2.138.424 2.915 1.18a.973.973 0 00.69.284.983.983 0 00.69-.284 4.179 4.179 0 012.914-1.18c1.092 0 2.139.424 2.915 1.18a4.084 4.084 0 011.228 2.86 4.08 4.08 0 01-1.15 2.89v.03z"/></svg><svg viewBox="0 0 22 24" id="play" xmlns="http://www.w3.org/2000/svg"><path d="M1 24a1 1 0 01-1-1V1A1 1 0 011.482.124l20 11a1 1 0 010 1.752l-20 11A1 1 0 011 24z"/></svg></svg>