<svg width="70" height="70" fill="none" xmlns="http://www.w3.org/2000/svg"><path d="M24.596 54.27c2.217 2.223 2.217 5.9-.038 8.161l-6.413 6.674a2.907 2.907 0 01-2.103.895 2.917 2.917 0 01-2.103-4.938l3.663-3.812h-5.935C5.233 61.25 0 56.017 0 49.583V43.75a2.916 2.916 0 115.833 0v5.833a5.84 5.84 0 005.834 5.834h5.918l-3.646-3.812a2.914 2.914 0 01.081-4.125 2.92 2.92 0 014.125.08l6.451 6.71zM58.333 8.75h-5.935l3.663-3.812A2.914 2.914 0 0055.98.814a2.922 2.922 0 00-4.125.079l-6.413 6.673c-2.255 2.257-2.255 5.938-.038 8.16l6.451 6.712a2.907 2.907 0 002.103.895 2.917 2.917 0 002.103-4.938l-3.646-3.812h5.918a5.84 5.84 0 015.834 5.834v5.833a2.916 2.916 0 105.833 0v-5.833C70 13.982 64.767 8.75 58.333 8.75zm11.655 37.085v10.37a8.76 8.76 0 01-4.41 7.594l-8.75 5.002a8.732 8.732 0 01-4.34 1.15c-1.499 0-3-.383-4.343-1.15l-8.75-5.002a8.759 8.759 0 01-4.41-7.595V45.835a8.768 8.768 0 014.41-7.598l8.75-4.999a8.78 8.78 0 018.683 0l8.75 5a8.771 8.771 0 014.41 7.597zM42.974 42.91l9.526 5.358 9.514-5.35-8.079-4.616a2.902 2.902 0 00-1.447-.382c-.498 0-1 .125-1.446.382l-8.07 4.608h.002zm6.61 19.99v-9.58l-8.762-4.927v7.808c0 1.044.563 2.013 1.467 2.529l7.294 4.17zm14.571-6.699v-7.793l-8.738 4.914v9.567l7.268-4.153a2.92 2.92 0 001.467-2.532l.003-.003zM37.917 18.958c0 10.471-8.488 18.959-18.959 18.959C8.488 37.917 0 29.429 0 18.958 0 8.488 8.488 0 18.958 0 29.43 0 37.917 8.488 37.917 18.958zm-7.292 5.533a7.635 7.635 0 00-6.396-7.612l-9.511-1.587c-.843-.14-1.526-.82-1.587-1.674a1.822 1.822 0 011.814-1.954h6.93c1.07 0 2.01.58 2.514 1.44a2.946 2.946 0 002.535 1.476c2.225 0 3.654-2.406 2.549-4.337a8.757 8.757 0 00-7.598-4.413 2.918 2.918 0 00-5.833 0h-.92c-4.231 0-7.795 3.36-7.83 7.592a7.632 7.632 0 006.393 7.613l9.584 1.598a1.812 1.812 0 011.517 1.91c-.059.975-.919 1.707-1.893 1.707h-6.854c-1.07 0-2.007-.58-2.514-1.44a2.946 2.946 0 00-2.535-1.477c-2.225 0-3.655 2.407-2.55 4.337a8.757 8.757 0 007.599 4.413 2.918 2.918 0 005.833 0h.919c4.232 0 7.796-3.36 7.831-7.592h.003z" fill="#363636"/></svg>