<svg width="72" height="72" fill="none" xmlns="http://www.w3.org/2000/svg"><path d="M32.086 32.137h0l8.87 1.478a8.303 8.303 0 016.96 8.218c0 4.879-3.902 8.864-8.75 8.997v2.67a3.166 3.166 0 11-6.333 0v-2.672h-.537a9.035 9.035 0 01-7.788-4.488h0a3.167 3.167 0 011.152-4.33h0a3.17 3.17 0 014.326 1.153 2.678 2.678 0 002.31 1.331h0l6.62.006s0 0 0 0a2.669 2.669 0 002.664-2.667c0-.98-.702-1.809-1.669-1.97h0l-8.87-1.478a8.303 8.303 0 01-6.96-8.218c0-4.879 3.902-8.864 8.75-8.997V18.5a3.166 3.166 0 116.333 0v2.675h.54a9.037 9.037 0 017.782 4.485 3.166 3.166 0 01-1.143 4.329h0a3.166 3.166 0 01-4.329-1.146m-9.928 3.294l10.144-3.42m-10.144 3.42a1.99 1.99 0 01-1.67-1.97A2.669 2.669 0 0133.08 27.5l-.994 4.637zm9.928-3.294s0 0 0 0l.216-.126m-.216.126s0 0 0 0l.216-.126m-.216.126a2.656 2.656 0 00-2.31-1.334h0L33.08 27.5v-.25l6.624.009c1.05 0 1.992.548 2.526 1.458m9.812-5.592c.81 0 1.621-.31 2.239-.928l1.703-1.704a10.38 10.38 0 004.808 1.174c5.767 0 10.458-4.691 10.458-10.459C71.25 5.441 66.559.75 60.792.75c-5.768 0-10.459 4.691-10.459 10.458 0 1.732.424 3.368 1.174 4.808l-1.704 1.704a3.163 3.163 0 000 4.477 3.159 3.159 0 002.239.928zm8.75-16.042a4.13 4.13 0 014.125 4.125 4.13 4.13 0 01-4.125 4.125 4.128 4.128 0 01-4.125-4.125 4.128 4.128 0 014.125-4.125zm0 43.25a10.38 10.38 0 00-4.808 1.174l-1.703-1.704a3.163 3.163 0 00-4.478 0 3.163 3.163 0 000 4.478l1.704 1.703a10.385 10.385 0 00-1.174 4.808c0 5.767 4.691 10.458 10.459 10.458 5.767 0 10.458-4.691 10.458-10.458 0-5.768-4.691-10.459-10.458-10.459zm0 14.584a4.13 4.13 0 01-4.125-4.125 4.128 4.128 0 014.125-4.125 4.128 4.128 0 014.125 4.125 4.13 4.13 0 01-4.125 4.125zM20.493 16.016a10.385 10.385 0 001.174-4.808C21.667 5.441 16.976.75 11.208.75 5.441.75.75 5.441.75 11.208c0 5.768 4.691 10.459 10.458 10.459a10.38 10.38 0 004.808-1.174l1.704 1.704a3.159 3.159 0 002.238.928c.81 0 1.622-.31 2.24-.928a3.163 3.163 0 000-4.477l-1.705-1.704zm-9.285-.683a4.13 4.13 0 01-4.125-4.125 4.13 4.13 0 014.125-4.125 4.13 4.13 0 014.125 4.125 4.128 4.128 0 01-4.125 4.125zm6.511 34.47l-1.703 1.704a10.385 10.385 0 00-4.808-1.174C5.441 50.333.75 55.024.75 60.792c0 5.767 4.691 10.458 10.458 10.458 5.768 0 10.459-4.691 10.459-10.458a10.38 10.38 0 00-1.174-4.808l1.704-1.703a3.163 3.163 0 000-4.478 3.163 3.163 0 00-4.477 0zm-6.51 15.114a4.13 4.13 0 01-4.126-4.125 4.13 4.13 0 014.125-4.125 4.128 4.128 0 014.125 4.125 4.128 4.128 0 01-4.125 4.125z" fill="#363636" stroke="#363636" stroke-width=".5"/></svg>