<svg width="70" height="70" fill="none" xmlns="http://www.w3.org/2000/svg"><path d="M16.042 61.25a7.291 7.291 0 01-7.292-7.292V4.375a4.375 4.375 0 00-8.75 0v49.583A16.042 16.042 0 0016.042 70h49.583a4.375 4.375 0 100-8.75H16.042z" fill="#363636"/><path d="M56.875 52.5a4.375 4.375 0 004.375-4.375v-17.5a4.375 4.375 0 10-8.75 0v17.5a4.375 4.375 0 004.375 4.375zm-35 0a4.375 4.375 0 004.375-4.375v-17.5a4.375 4.375 0 10-8.75 0v17.5a4.375 4.375 0 004.375 4.375zm17.5 0a4.375 4.375 0 004.375-4.375V16.042a4.375 4.375 0 10-8.75 0v32.083a4.375 4.375 0 004.375 4.375z" fill="#363636"/></svg>