<svg width="70" height="70" fill="none" xmlns="http://www.w3.org/2000/svg"><path d="M27.682 70H4.37a4.37 4.37 0 010-8.742h23.31a4.37 4.37 0 010 8.742zm-5.828-14.57H4.371a4.37 4.37 0 010-8.74h17.483a4.37 4.37 0 010 8.74zm-5.828-14.569H4.371a4.37 4.37 0 010-8.741h11.655a4.371 4.371 0 010 8.741z" fill="#363636"/><path d="M42.25 69.19a4.371 4.371 0 01-1.03-8.62 26.29 26.29 0 10-30.022-36.778 4.37 4.37 0 01-7.9-3.741 35.034 35.034 0 1139.987 49.014 4.413 4.413 0 01-1.034.125z" fill="#363636"/><path d="M36.423 17.55a4.37 4.37 0 00-4.37 4.371v12.51c0 1.545.614 3.027 1.707 4.12l5.225 5.224a4.37 4.37 0 006.18-6.18l-4.37-4.37V21.92a4.37 4.37 0 00-4.372-4.37z" fill="#363636"/></svg>