<svg width="138" height="111" fill="none" xmlns="http://www.w3.org/2000/svg"><path d="M4 .75h130A3.25 3.25 0 01137.25 4v86.3a3.25 3.25 0 01-3.25 3.25H4A3.25 3.25 0 01.75 90.3V4A3.25 3.25 0 014 .75z" fill="#373737" stroke="#fff" stroke-width="1.5"/><path d="M55.22 104.48l-.532.529.532-.529-.13-.13a2.492 2.492 0 01-.2-3.283c1.015-1.308 1.056-3.042.46-4.464-.08-.193-.156-.388-.229-.584-.519-1.404-1.715-2.593-3.31-2.805a2.296 2.296 0 01-1.987-2.3l.003-.388c.01-1.13.855-2.07 1.965-2.198 1.596-.184 2.801-1.365 3.316-2.768.1-.27.205-.535.319-.797.651-1.503.633-3.353-.448-4.746l-.087-.112a2.497 2.497 0 01.2-3.289 2.46 2.46 0 013.265-.202l.112.088c1.388 1.088 3.233 1.106 4.732.45.362-.158.732-.303 1.109-.433 1.417-.488 2.616-1.69 2.814-3.293a2.193 2.193 0 012.172-1.932h.342c1.191 0 2.2.893 2.347 2.088.198 1.61 1.366 2.837 2.762 3.399.116.046.232.094.346.144 1.47.635 3.273.608 4.63-.456l-.462-.59.463.59.07-.055a2.46 2.46 0 013.264.202 2.51 2.51 0 01.192 3.3c-1.054 1.358-1.073 3.176-.412 4.637.119.264.23.532.335.804.57 1.489 1.861 2.749 3.563 2.945a2.484 2.484 0 012.193 2.448 2.48 2.48 0 01-2.147 2.486l-.08.01c-1.7.226-2.974 1.508-3.547 2.988-.555 1.433-.48 3.134.527 4.432l.309.398a2.515 2.515 0 01-.214 3.302 2.436 2.436 0 01-3.222.211c-1.38-1.082-3.227-1.053-4.68-.322l.336.67-.336-.67c-.368.184-.744.354-1.128.509-1.396.561-2.564 1.789-2.762 3.399a2.37 2.37 0 01-2.347 2.087h-.343a2.193 2.193 0 01-2.171-1.932c-.198-1.603-1.397-2.805-2.814-3.293a14.767 14.767 0 01-1.683-.699c-1.377-.673-3.112-.679-4.412.339a2.258 2.258 0 01-2.995-.185zm13.959-5.97c4.259 0 7.705-3.468 7.705-7.738 0-4.27-3.446-7.738-7.705-7.738-4.26 0-7.706 3.468-7.706 7.738 0 4.27 3.447 7.738 7.706 7.738z" fill="#6D2BFF" stroke="#6D2BFF" stroke-width="1.5"/><path d="M61.618 58.778l.061.163h2.951l-.129-.34L52.813 27.76l-.06-.162h-2.761l-.061.161-11.732 30.843-.129.339h2.952l.06-.163 2.872-7.68h14.792l2.872 7.68zm24.215-14.363l.002-.001c1.832-1.872 2.745-4.213 2.745-7.005s-.913-5.133-2.745-7.004c-1.833-1.872-4.142-2.807-6.907-2.807H68.413v31.343h2.786V47.175h7.729c2.764 0 5.072-.919 6.905-2.761zm-1.995-1.937l-.001.002c-1.272 1.327-2.9 1.993-4.91 1.993H71.2V30.301h7.729c2.008 0 3.637.667 4.909 1.994l.001.002c1.301 1.328 1.956 3.026 1.956 5.112 0 2.057-.654 3.74-1.956 5.069zm10.139-14.88h-.25v31.343h2.785V27.598h-2.535zM45.004 48.395l6.368-16.971 6.367 16.97H45.004z" fill="#fff" stroke="#fff" stroke-width=".5"/></svg>