<svg width="419" height="270" fill="none" xmlns="http://www.w3.org/2000/svg"><path d="M387.697 0h-356c-17.121 0-31 13.88-31 31v207.322c0 17.12 13.879 31 31 31h356c17.12 0 31-13.88 31-31V31c0-17.12-13.88-31-31-31z" fill="url(#paint0_linear_556_157)"/><path d="M286.585 167.627a5.493 5.493 0 01-5.492 5.495 5.493 5.493 0 01-5.492-5.495 5.493 5.493 0 015.492-5.494 5.493 5.493 0 015.492 5.494zm-81.881 0a5.493 5.493 0 01-5.492 5.495 5.493 5.493 0 01-5.492-5.495 5.493 5.493 0 015.492-5.494 5.493 5.493 0 015.492 5.494zm-89.87 0a5.493 5.493 0 01-5.492 5.495 5.493 5.493 0 01-5.492-5.495 5.493 5.493 0 015.492-5.494 5.493 5.493 0 015.492 5.494zm153.777 0a5.493 5.493 0 01-5.492 5.495 5.493 5.493 0 01-5.492-5.495 5.493 5.493 0 015.492-5.494 5.493 5.493 0 015.492 5.494zm-81.881 0a5.493 5.493 0 01-5.492 5.495 5.493 5.493 0 01-5.492-5.495 5.493 5.493 0 015.492-5.494 5.493 5.493 0 015.492 5.494zm-89.87 0a5.493 5.493 0 01-5.492 5.495 5.493 5.493 0 01-5.492-5.495 5.493 5.493 0 1110.984 0zm153.777 0a5.493 5.493 0 01-5.492 5.495 5.493 5.493 0 01-5.492-5.495 5.493 5.493 0 015.492-5.494 5.493 5.493 0 015.492 5.494zm-81.881 0a5.493 5.493 0 01-5.492 5.495 5.493 5.493 0 01-5.492-5.495 5.493 5.493 0 015.492-5.494 5.493 5.493 0 015.492 5.494zm-89.87 0a5.493 5.493 0 01-5.492 5.495 5.493 5.493 0 01-5.492-5.495 5.493 5.493 0 1110.984 0zm153.777 0a5.493 5.493 0 01-5.492 5.495 5.493 5.493 0 01-5.492-5.495 5.493 5.493 0 015.492-5.494 5.493 5.493 0 015.492 5.494zm-81.881 0a5.493 5.493 0 01-5.492 5.495 5.493 5.493 0 01-5.492-5.495 5.493 5.493 0 015.492-5.494 5.493 5.493 0 015.492 5.494zm-89.869 0a5.493 5.493 0 01-5.492 5.495 5.493 5.493 0 01-5.492-5.495 5.493 5.493 0 1110.983 0zm250.337 8.492v-1.511l6.04-6.09c1.725-1.726 2.588-3.204 2.588-4.435 0-1.071-.336-1.902-1.007-2.493-.655-.608-1.446-.912-2.372-.912-1.726 0-2.98.792-3.763 2.374l-1.414-.839c.527-1.039 1.246-1.822 2.157-2.35a5.787 5.787 0 013.02-.815c1.342 0 2.516.456 3.523 1.367 1.022.895 1.533 2.118 1.533 3.668 0 .975-.271 1.91-.814 2.805-.544.895-1.311 1.838-2.301 2.829l-4.793 4.771h8.268v1.631H311.25zm23.19-9.806c1.342.176 2.444.695 3.307 1.558.879.847 1.318 1.974 1.318 3.381 0 1.598-.551 2.861-1.654 3.788-1.086.911-2.412 1.366-3.978 1.366-1.246 0-2.356-.287-3.331-.863a4.679 4.679 0 01-2.061-2.469l1.39-.815c.272.831.759 1.462 1.462 1.894.703.415 1.55.623 2.54.623 1.15 0 2.093-.304 2.828-.911.751-.623 1.126-1.494 1.126-2.613s-.375-1.982-1.126-2.59c-.735-.623-1.678-.935-2.828-.935v-.024l-.024.024h-.455l-.719-1.103 4.17-5.706h-7.885v-1.582h9.826v1.582l-3.906 5.395zm23.798 4.867v1.582h-2.157v3.357h-1.677v-3.357h-8.867v-1.582l6.23-11.844h1.846l-6.231 11.844h7.022v-5.131h1.677v5.131h2.157zm11.625-5.083c1.566 0 2.892.463 3.978 1.391 1.103.911 1.654 2.165 1.654 3.764 0 1.598-.551 2.861-1.654 3.788-1.086.911-2.412 1.366-3.978 1.366-1.262 0-2.388-.303-3.379-.911-.991-.623-1.662-1.51-2.013-2.661l1.414-.815c.24.895.711 1.582 1.414 2.062.719.463 1.574.695 2.564.695 1.15 0 2.093-.304 2.828-.911.751-.623 1.126-1.494 1.126-2.613s-.375-1.982-1.126-2.59c-.735-.623-1.678-.935-2.828-.935h-4.553l.599-8.391h8.987v1.582h-7.501l-.36 5.179h2.828z" fill="#fff"/><defs><linearGradient id="paint0_linear_556_157" x1="-180.842" y1="289.004" x2="473.069" y2="182.752" gradientUnits="userSpaceOnUse"><stop stop-color="#04A5FF"/><stop offset="1" stop-color="#9002FF"/></linearGradient></defs></svg>