<svg width="150" height="99" fill="none" xmlns="http://www.w3.org/2000/svg"><path d="M4 .846h142a3.25 3.25 0 013.25 3.25v90a3.25 3.25 0 01-3.25 3.25H4a3.25 3.25 0 01-3.25-3.25v-90A3.25 3.25 0 014 .846z" fill="#373737" stroke="#373737" stroke-width="1.5"/><path d="M28.012 37.992l36.385-22.42 9.097 14.116 33.905-12.455m0 0l-10.75-2.492m10.75 2.492l-6.616 7.473" stroke="#6D2BFF" stroke-width="2" stroke-linecap="round"/><path d="M106.918 33.46c-11.732.5-21.158 9.964-21.655 21.75a.47.47 0 00.48.48h21.154a.5.5 0 00.5-.5V33.938a.468.468 0 00-.479-.48z" fill="#fff" stroke="#fff"/><path d="M111.205 82.761c-12.454 0-22.612-9.873-23.133-22.25a.969.969 0 01.978-1h21.155a1 1 0 001-1v-21.25a.969.969 0 011.001-.979c12.323.527 22.154 10.725 22.154 23.23 0 12.84-10.367 23.25-23.155 23.25z" fill="#6D2BFF"/><path d="M111.205 82.761c-12.454 0-22.612-9.873-23.133-22.25a.969.969 0 01.978-1h21.155a1 1 0 001-1v-21.25a.969.969 0 011.001-.979c12.323.527 22.154 10.725 22.154 23.23 0 12.84-10.367 23.25-23.155 23.25z" stroke="#fff"/><rect x="18.73" y="44.033" width="13.26" height="47.932" rx="1" fill="#C4C4C4"/><rect x="38.619" y="52.022" width="13.26" height="39.943" rx="1" fill="#C4C4C4"/><rect x="58.509" y="56.016" width="13.26" height="35.949" rx="1" fill="#C4C4C4"/></svg>