<svg width="113" height="105" fill="none" xmlns="http://www.w3.org/2000/svg"><path d="M51.923 92.674c0 6.531-11.623 11.826-25.962 11.826C11.624 104.5 0 99.205 0 92.674c0-6.532 11.623-11.826 25.962-11.826 14.338 0 25.961 5.294 25.961 11.826z" fill="#373737"/><path fill-rule="evenodd" clip-rule="evenodd" d="M43.493 99.206c4.567-2.08 6.43-4.542 6.43-6.532 0-1.99-1.863-4.452-6.43-6.532-4.383-1.997-10.58-3.285-17.532-3.285-6.95 0-13.147 1.288-17.531 3.285C3.864 88.222 2 90.684 2 92.674c0 1.99 1.864 4.452 6.43 6.532 4.383 1.997 10.58 3.284 17.532 3.284 6.951 0 13.148-1.287 17.531-3.284zM25.961 104.5c14.339 0 25.962-5.295 25.962-11.826 0-6.532-11.623-11.826-25.962-11.826C11.624 80.848 0 86.142 0 92.674 0 99.205 11.623 104.5 25.962 104.5z" fill="#373737"/><path d="M112.5 92.674c0 6.531-11.623 11.826-25.961 11.826s-25.962-5.295-25.962-11.826c0-6.532 11.624-11.826 25.962-11.826S112.5 86.142 112.5 92.674z" fill="#373737"/><path fill-rule="evenodd" clip-rule="evenodd" d="M104.07 99.206c4.567-2.08 6.43-4.542 6.43-6.532 0-1.99-1.863-4.452-6.43-6.532-4.383-1.997-10.58-3.285-17.531-3.285-6.952 0-13.148 1.288-17.532 3.285-4.566 2.08-6.43 4.542-6.43 6.532 0 1.99 1.864 4.452 6.43 6.532 4.384 1.997 10.58 3.284 17.532 3.284 6.951 0 13.148-1.287 17.531-3.284zM86.539 104.5c14.338 0 25.961-5.295 25.961-11.826 0-6.532-11.623-11.826-25.961-11.826s-25.962 5.294-25.962 11.826c0 6.531 11.624 11.826 25.962 11.826zM1.9 64.642v8.134H.1v-8.134h1.8zm50 0v8.134h-1.8v-8.134h1.8zm-50 20.336v8.134H.1v-8.134h1.8zm50 0v8.134h-1.8v-8.134h1.8z" fill="#373737"/><path fill-rule="evenodd" clip-rule="evenodd" d="M62.4 64.642v8.134h-1.8v-8.134h1.8zm50 .976v8.134h-1.8v-8.134h1.8zm-50 19.36v8.134h-1.8v-8.134h1.8zm50 .163v8.134h-1.8V85.14h1.8z" fill="#373737"/><path fill-rule="evenodd" clip-rule="evenodd" d="M1.9 73.752v7.972H.1v-7.972h1.8zm50 0v7.972h-1.8v-7.972h1.8zm60.5 0v7.972h-1.8v-7.972h1.8zm-50 .57v7.971h-1.8v-7.971h1.8z" fill="#6D2BFF"/><path fill-rule="evenodd" clip-rule="evenodd" d="M1.9 55.532v7.971H.1v-7.971h1.8zm50 0v7.971h-1.8v-7.971h1.8z" fill="gray"/><path fill-rule="evenodd" clip-rule="evenodd" d="M43.493 91.322c4.567-2.08 6.43-4.542 6.43-6.532 0-1.99-1.863-4.452-6.43-6.532-4.383-1.997-10.58-3.284-17.532-3.284-6.95 0-13.147 1.287-17.531 3.284C3.864 80.338 2 82.8 2 84.79c0 1.99 1.864 4.452 6.43 6.532 4.383 1.997 10.58 3.284 17.532 3.284 6.951 0 13.148-1.287 17.531-3.284zm-17.532 5.294c14.339 0 25.962-5.295 25.962-11.826 0-6.531-11.623-11.826-25.962-11.826C11.624 72.964 0 78.259 0 84.79c0 6.531 11.623 11.826 25.962 11.826zm78.458-5.423c4.672-2.108 6.581-4.606 6.581-6.622s-1.909-4.514-6.581-6.622c-4.483-2.023-10.817-3.326-17.919-3.326s-13.436 1.303-17.919 3.326C63.909 80.057 62 82.555 62 84.571s1.909 4.514 6.581 6.622c4.483 2.023 10.817 3.326 17.919 3.326s13.436-1.303 17.919-3.326zM86.5 96.529c14.636 0 26.5-5.354 26.5-11.958s-11.864-11.957-26.5-11.957c-14.635 0-26.5 5.353-26.5 11.957 0 6.604 11.865 11.958 26.5 11.958z" fill="#fff"/><path d="M51.923 81.833c0 7.076-11.623 12.812-25.962 12.812C11.624 94.645 0 88.909 0 81.833s11.623-12.811 25.962-12.811c14.338 0 25.961 5.735 25.961 12.811z" fill="#6D2BFF"/><path fill-rule="evenodd" clip-rule="evenodd" d="M43.438 89.088c4.499-2.22 6.485-4.907 6.485-7.255 0-2.347-1.986-5.035-6.486-7.255-4.369-2.156-10.545-3.547-17.475-3.547-6.931 0-13.107 1.39-17.476 3.547C3.986 76.798 2 79.486 2 81.833c0 2.348 1.986 5.035 6.486 7.255 4.369 2.157 10.545 3.547 17.476 3.547 6.93 0 13.106-1.39 17.476-3.547zM25.96 94.645c14.339 0 25.962-5.736 25.962-12.812S40.3 69.022 25.961 69.022C11.624 69.022 0 74.757 0 81.833s11.623 12.812 25.962 12.812z" fill="#6D2BFF"/><path d="M112.5 81.833c0 7.076-11.623 12.812-25.961 12.812s-25.962-5.736-25.962-12.812S72.201 69.022 86.54 69.022s25.96 5.735 25.96 12.811z" fill="#6D2BFF"/><path fill-rule="evenodd" clip-rule="evenodd" d="M104.015 89.088c4.499-2.22 6.485-4.907 6.485-7.255 0-2.347-1.986-5.035-6.485-7.255-4.37-2.156-10.546-3.547-17.476-3.547-6.931 0-13.107 1.39-17.476 3.547-4.5 2.22-6.486 4.908-6.486 7.255 0 2.348 1.987 5.035 6.486 7.255 4.369 2.157 10.545 3.547 17.476 3.547 6.93 0 13.107-1.39 17.476-3.547zm-17.476 5.557c14.338 0 25.961-5.736 25.961-12.812s-11.623-12.811-25.961-12.811-25.962 5.735-25.962 12.811S72.201 94.645 86.54 94.645z" fill="#6D2BFF"/><path fill-rule="evenodd" clip-rule="evenodd" d="M43.438 81.205c4.499-2.22 6.485-4.908 6.485-7.256 0-2.347-1.986-5.035-6.486-7.255-4.369-2.156-10.545-3.547-17.475-3.547-6.931 0-13.107 1.39-17.476 3.547C3.986 68.914 2 71.602 2 73.949c0 2.348 1.986 5.035 6.486 7.256 4.369 2.156 10.545 3.546 17.476 3.546 6.93 0 13.106-1.39 17.476-3.546zM25.96 86.76c14.339 0 25.962-5.736 25.962-12.812 0-7.075-11.623-12.811-25.962-12.811C11.624 61.138 0 66.874 0 73.949c0 7.076 11.623 12.812 25.962 12.812zm78.055-5.555c4.499-2.22 6.485-4.908 6.485-7.256 0-2.347-1.986-5.035-6.485-7.255-4.37-2.156-10.546-3.547-17.476-3.547-6.931 0-13.107 1.39-17.476 3.547-4.5 2.22-6.486 4.908-6.486 7.255 0 2.348 1.987 5.035 6.486 7.256 4.369 2.156 10.545 3.546 17.476 3.546 6.93 0 13.107-1.39 17.476-3.546zM86.539 86.76c14.338 0 25.961-5.736 25.961-12.812 0-7.075-11.623-12.811-25.961-12.811s-25.962 5.736-25.962 12.811c0 7.076 11.624 12.812 25.962 12.812z" fill="#fff"/><path d="M51.923 72.964c0 6.531-11.623 11.826-25.962 11.826C11.624 84.79 0 79.495 0 72.964c0-6.532 11.623-11.826 25.962-11.826 14.338 0 25.961 5.294 25.961 11.826z" fill="#373737"/><path fill-rule="evenodd" clip-rule="evenodd" d="M43.493 79.496c4.567-2.08 6.43-4.542 6.43-6.532 0-1.99-1.863-4.452-6.43-6.532-4.383-1.997-10.58-3.285-17.532-3.285-6.95 0-13.147 1.288-17.531 3.285C3.864 68.512 2 70.974 2 72.964c0 1.99 1.864 4.452 6.43 6.532 4.383 1.997 10.58 3.284 17.532 3.284 6.951 0 13.148-1.287 17.531-3.284zM25.961 84.79c14.339 0 25.962-5.295 25.962-11.826 0-6.532-11.623-11.826-25.962-11.826C11.624 61.138 0 66.432 0 72.964 0 79.495 11.623 84.79 25.962 84.79z" fill="#373737"/><path d="M112.5 72.964c0 6.531-11.623 11.826-25.961 11.826s-25.962-5.295-25.962-11.826c0-6.532 11.624-11.826 25.962-11.826S112.5 66.432 112.5 72.964z" fill="#373737"/><path fill-rule="evenodd" clip-rule="evenodd" d="M104.07 79.496c4.567-2.08 6.43-4.542 6.43-6.532 0-1.99-1.863-4.452-6.43-6.532-4.383-1.997-10.58-3.285-17.531-3.285-6.952 0-13.148 1.288-17.532 3.285-4.566 2.08-6.43 4.542-6.43 6.532 0 1.99 1.864 4.452 6.43 6.532 4.384 1.997 10.58 3.284 17.532 3.284 6.951 0 13.148-1.287 17.531-3.284zM86.539 84.79c14.338 0 25.961-5.295 25.961-11.826 0-6.532-11.623-11.826-25.961-11.826s-25.962 5.294-25.962 11.826c0 6.531 11.624 11.826 25.962 11.826z" fill="#373737"/><path fill-rule="evenodd" clip-rule="evenodd" d="M43.493 71.612c4.567-2.08 6.43-4.542 6.43-6.532 0-1.99-1.863-4.452-6.43-6.532-4.383-1.997-10.58-3.284-17.532-3.284-6.95 0-13.147 1.287-17.531 3.284C3.864 60.628 2 63.09 2 65.08c0 1.99 1.864 4.452 6.43 6.532 4.383 1.997 10.58 3.285 17.532 3.285 6.951 0 13.148-1.288 17.531-3.285zm-17.532 5.294c14.339 0 25.962-5.295 25.962-11.826 0-6.531-11.623-11.826-25.962-11.826C11.624 53.254 0 58.549 0 65.08c0 6.531 11.623 11.826 25.962 11.826zm78.109-5.294c4.567-2.08 6.43-4.542 6.43-6.532 0-1.99-1.863-4.452-6.43-6.532-4.383-1.997-10.58-3.284-17.531-3.284-6.952 0-13.148 1.287-17.532 3.284-4.566 2.08-6.43 4.542-6.43 6.532 0 1.99 1.864 4.452 6.43 6.532 4.384 1.997 10.58 3.285 17.532 3.285 6.951 0 13.148-1.288 17.531-3.285zm-17.531 5.294c14.338 0 25.961-5.295 25.961-11.826 0-6.531-11.623-11.826-25.961-11.826S60.577 58.549 60.577 65.08c0 6.531 11.624 11.826 25.962 11.826z" fill="#fff"/><path d="M51.923 63.11c0 6.53-11.623 11.826-25.962 11.826C11.624 74.936 0 69.64 0 63.109s11.623-11.826 25.962-11.826c14.338 0 25.961 5.295 25.961 11.826z" fill="gray"/><path fill-rule="evenodd" clip-rule="evenodd" d="M43.493 69.641c4.567-2.08 6.43-4.541 6.43-6.532 0-1.99-1.863-4.452-6.43-6.532-4.383-1.997-10.58-3.284-17.532-3.284-6.95 0-13.147 1.287-17.531 3.284C3.864 58.657 2 61.12 2 63.11c0 1.99 1.864 4.452 6.43 6.532 4.383 1.997 10.58 3.285 17.532 3.285 6.951 0 13.148-1.288 17.531-3.285zm-17.532 5.294c14.339 0 25.962-5.294 25.962-11.826 0-6.531-11.623-11.826-25.962-11.826C11.624 51.283 0 56.578 0 63.11s11.623 11.827 25.962 11.827z" fill="gray"/><path d="M112.5 63.11c0 6.53-11.623 11.826-25.961 11.826S60.577 69.64 60.577 63.109s11.624-11.826 25.962-11.826S112.5 56.578 112.5 63.11z" fill="gray"/><path fill-rule="evenodd" clip-rule="evenodd" d="M104.07 69.641c4.567-2.08 6.43-4.541 6.43-6.532 0-1.99-1.863-4.452-6.43-6.532-4.383-1.997-10.58-3.284-17.531-3.284-6.952 0-13.148 1.287-17.532 3.284-4.566 2.08-6.43 4.542-6.43 6.532 0 1.99 1.864 4.452 6.43 6.532 4.384 1.997 10.58 3.285 17.532 3.285 6.951 0 13.148-1.288 17.531-3.285zm-17.531 5.294c14.338 0 25.961-5.294 25.961-11.826 0-6.531-11.623-11.826-25.961-11.826S60.577 56.578 60.577 63.11s11.624 11.827 25.962 11.827z" fill="gray"/><path fill-rule="evenodd" clip-rule="evenodd" d="M43.493 61.756c4.567-2.08 6.43-4.541 6.43-6.532 0-1.99-1.863-4.452-6.43-6.532-4.383-1.997-10.58-3.284-17.532-3.284-6.95 0-13.147 1.287-17.531 3.284C3.864 50.772 2 53.234 2 55.224c0 1.99 1.864 4.452 6.43 6.532 4.383 1.997 10.58 3.285 17.532 3.285 6.951 0 13.148-1.288 17.531-3.285zM25.961 67.05c14.339 0 25.962-5.294 25.962-11.826 0-6.531-11.623-11.826-25.962-11.826C11.624 43.398 0 48.693 0 55.224 0 61.756 11.623 67.05 25.962 67.05z" fill="#fff"/><path fill-rule="evenodd" clip-rule="evenodd" d="M89.192.5c.829 0 1.5.675 1.5 1.507v27.595c0 .832-.671 1.507-1.5 1.507-.828 0-1.5-.675-1.5-1.508V2.008c0-.832.672-1.507 1.5-1.507z" fill="#373737"/><path fill-rule="evenodd" clip-rule="evenodd" d="M76.084 14.674a1.495 1.495 0 012.117.133l10.991 12.516 10.991-12.516a1.495 1.495 0 012.117-.133c.621.55.68 1.503.132 2.127L90.317 30.6a1.497 1.497 0 01-2.25 0L75.952 16.8a1.512 1.512 0 01.132-2.127z" fill="#373737"/><path d="M51.923 53.254c0 6.531-11.623 11.826-25.962 11.826C11.624 65.08 0 59.785 0 53.254c0-6.532 11.623-11.826 25.962-11.826 14.338 0 25.961 5.294 25.961 11.826z" fill="#373737"/><path fill-rule="evenodd" clip-rule="evenodd" d="M43.493 59.786c4.567-2.08 6.43-4.542 6.43-6.532 0-1.99-1.863-4.452-6.43-6.532-4.383-1.997-10.58-3.285-17.532-3.285-6.95 0-13.147 1.288-17.531 3.285C3.864 48.802 2 51.263 2 53.254c0 1.99 1.864 4.452 6.43 6.532 4.383 1.996 10.58 3.284 17.532 3.284 6.951 0 13.148-1.288 17.531-3.284zM25.961 65.08c14.339 0 25.962-5.295 25.962-11.826 0-6.532-11.623-11.826-25.962-11.826C11.624 41.428 0 46.721 0 53.254 0 59.785 11.623 65.08 25.962 65.08z" fill="#373737"/><path fill-rule="evenodd" clip-rule="evenodd" d="M1.9 45.282v7.972H.1v-7.972h1.8zm50 0v7.972h-1.8v-7.972h1.8zm-50-19.36v7.972H.1v-7.972h1.8zm50 0v7.972h-1.8v-7.972h1.8z" fill="#373737"/><path fill-rule="evenodd" clip-rule="evenodd" d="M1.9 35.033v7.971H.1v-7.971h1.8zm50 0v7.971h-1.8v-7.971h1.8z" fill="#6D2BFF"/><path fill-rule="evenodd" clip-rule="evenodd" d="M43.493 51.902c4.567-2.08 6.43-4.542 6.43-6.532 0-1.99-1.863-4.452-6.43-6.532-4.383-1.997-10.58-3.285-17.532-3.285-6.95 0-13.147 1.288-17.531 3.285C3.864 40.918 2 43.38 2 45.37c0 1.99 1.864 4.452 6.43 6.532 4.383 1.997 10.58 3.284 17.532 3.284 6.951 0 13.148-1.287 17.531-3.284zm-17.532 5.294c14.339 0 25.962-5.295 25.962-11.826 0-6.532-11.623-11.826-25.962-11.826C11.624 33.544 0 38.838 0 45.37c0 6.53 11.623 11.826 25.962 11.826zm17.532-36.831c4.567-2.08 6.43-4.541 6.43-6.531 0-1.99-1.863-4.452-6.43-6.533-4.383-1.996-10.58-3.284-17.532-3.284-6.95 0-13.147 1.288-17.531 3.284C3.864 9.381 2 11.843 2 13.834c0 1.99 1.864 4.451 6.43 6.531 4.383 1.997 10.58 3.285 17.532 3.285 6.951 0 13.148-1.288 17.531-3.285zM25.961 25.66c14.339 0 25.962-5.295 25.962-11.826 0-6.532-11.623-11.827-25.962-11.827C11.624 2.007 0 7.302 0 13.834c0 6.53 11.623 11.826 25.962 11.826z" fill="#fff"/><path d="M51.923 43.4c0 6.53-11.623 11.825-25.962 11.825C11.624 55.225 0 49.931 0 43.4s11.623-11.826 25.962-11.826c14.338 0 25.961 5.295 25.961 11.826z" fill="#6D2BFF"/><path fill-rule="evenodd" clip-rule="evenodd" d="M43.493 49.931c4.567-2.08 6.43-4.542 6.43-6.532 0-1.99-1.863-4.452-6.43-6.532-4.383-1.997-10.58-3.284-17.532-3.284-6.95 0-13.147 1.287-17.531 3.284C3.864 38.947 2 41.41 2 43.4c0 1.99 1.864 4.452 6.43 6.532 4.383 1.997 10.58 3.285 17.532 3.285 6.951 0 13.148-1.288 17.531-3.285zm-17.532 5.294c14.339 0 25.962-5.294 25.962-11.826 0-6.531-11.623-11.826-25.962-11.826C11.624 31.573 0 36.868 0 43.399c0 6.532 11.623 11.826 25.962 11.826z" fill="#6D2BFF"/><path fill-rule="evenodd" clip-rule="evenodd" d="M43.493 42.046c4.567-2.08 6.43-4.542 6.43-6.532 0-1.99-1.863-4.452-6.43-6.532-4.383-1.997-10.58-3.284-17.532-3.284-6.95 0-13.147 1.287-17.531 3.284C3.864 31.062 2 33.524 2 35.514c0 1.99 1.864 4.452 6.43 6.532 4.383 1.997 10.58 3.285 17.532 3.285 6.951 0 13.148-1.288 17.531-3.285zM25.961 47.34c14.339 0 25.962-5.295 25.962-11.826 0-6.531-11.623-11.826-25.962-11.826C11.624 23.688 0 28.983 0 35.514 0 42.045 11.623 47.34 25.962 47.34z" fill="#fff"/><path d="M51.923 33.543c0 6.532-11.623 11.827-25.962 11.827C11.624 45.37 0 40.075 0 33.543c0-6.531 11.623-11.826 25.962-11.826 14.338 0 25.961 5.295 25.961 11.826z" fill="#373737"/><path fill-rule="evenodd" clip-rule="evenodd" d="M43.493 40.075c4.567-2.08 6.43-4.541 6.43-6.532 0-1.99-1.863-4.451-6.43-6.532-4.383-1.996-10.58-3.284-17.532-3.284-6.95 0-13.147 1.288-17.531 3.284C3.864 29.091 2 31.553 2 33.543c0 1.99 1.864 4.452 6.43 6.532 4.383 1.997 10.58 3.285 17.532 3.285 6.951 0 13.148-1.288 17.531-3.285zM25.961 45.37c14.339 0 25.962-5.294 25.962-11.826 0-6.531-11.623-11.826-25.962-11.826C11.624 21.717 0 27.012 0 33.543 0 40.075 11.623 45.37 25.962 45.37z" fill="#373737"/><path d="M51.923 25.66c0 6.531-11.623 11.826-25.962 11.826C11.624 37.486 0 32.19 0 25.66c0-6.532 11.623-11.826 25.962-11.826 14.338 0 25.961 5.294 25.961 11.826z" fill="gray"/><path fill-rule="evenodd" clip-rule="evenodd" d="M43.493 32.192c4.567-2.08 6.43-4.542 6.43-6.532 0-1.99-1.863-4.452-6.43-6.532-4.383-1.997-10.58-3.285-17.532-3.285-6.95 0-13.147 1.288-17.531 3.285C3.864 21.208 2 23.669 2 25.66c0 1.99 1.864 4.452 6.43 6.532 4.383 1.996 10.58 3.284 17.532 3.284 6.951 0 13.148-1.288 17.531-3.284zm-17.532 5.294c14.339 0 25.962-5.295 25.962-11.826 0-6.532-11.623-11.826-25.962-11.826C11.624 13.834 0 19.128 0 25.66c0 6.531 11.623 11.826 25.962 11.826z" fill="gray"/></svg>