<svg width="429" height="224" fill="none" xmlns="http://www.w3.org/2000/svg"><path fill-rule="evenodd" clip-rule="evenodd" d="M158.943 119.146c-22.622 0-40.96 18.339-40.96 40.961v11.638c0 22.622 18.338 40.96 40.96 40.96h208.696c1.222 0 2.432-.053 3.627-.158l52.82 8.985-23.394-25.591a40.777 40.777 0 007.907-24.196v-11.638c0-22.622-18.339-40.961-40.96-40.961H158.943z" fill="#fff"/><path d="M371.266 212.547l.275-1.615-.208-.036-.21.019.143 1.632zm52.82 8.985l-.274 1.615 4.702.8-3.218-3.521-1.21 1.106zm-23.394-25.591l-1.322-.968-.794 1.083.907.991 1.209-1.106zm-281.071-35.834c0-21.717 17.605-39.322 39.322-39.322v-3.277c-23.527 0-42.599 19.072-42.599 42.599h3.277zm0 11.638v-11.638h-3.277v11.638h3.277zm39.322 39.322c-21.717 0-39.322-17.605-39.322-39.322h-3.277c0 23.527 19.072 42.599 42.599 42.599v-3.277zm208.696 0H158.943v3.277h208.696v-3.277zm3.484-.152c-1.148.1-2.31.152-3.484.152v3.277c1.27 0 2.528-.056 3.77-.165l-.286-3.264zm-.132 3.247l52.821 8.985.549-3.231-52.82-8.984-.55 3.23zm54.305 6.264l-23.395-25.59-2.418 2.211 23.394 25.59 2.419-2.211zm-18.335-48.681c0 8.691-2.818 16.72-7.591 23.228l2.643 1.937a42.41 42.41 0 008.224-25.165h-3.276zm0-11.638v11.638h3.276v-11.638h-3.276zm-39.322-39.322c21.717 0 39.322 17.605 39.322 39.322h3.276c0-23.527-19.072-42.599-42.598-42.599v3.277zm-208.696 0h208.696v-3.277H158.943v3.277z" fill="#373737"/><path fill-rule="evenodd" clip-rule="evenodd" d="M270.143 2c22.622 0 40.961 18.338 40.961 40.96v11.638c0 22.622-18.339 40.96-40.961 40.96H61.448c-.31 0-.62-.003-.93-.01L5 104.385l23.395-25.59a40.776 40.776 0 01-7.908-24.197V42.96C20.487 20.34 38.826 2 61.447 2h208.696z" fill="#fff"/><path d="M60.519 95.548l-.258-1.618.146-.023.148.003-.036 1.638zM5 104.385l.258 1.618-4.63.737 3.163-3.46L5 104.385zm23.395-25.59l1.32-.969.795 1.083-.906.991-1.21-1.105zm281.07-35.835c0-21.717-17.605-39.322-39.322-39.322V.362c23.527 0 42.599 19.072 42.599 42.598h-3.277zm0 11.638V42.96h3.277v11.638h-3.277zM270.143 93.92c21.717 0 39.322-17.605 39.322-39.322h3.277c0 23.527-19.072 42.6-42.599 42.6V93.92zm-208.695 0h208.695v3.277H61.448V93.92zm-.893-.01c.297.007.594.01.893.01v3.277c-.323 0-.645-.003-.966-.01l.073-3.277zm.221 3.257l-55.518 8.836-.516-3.236 55.519-8.837.515 3.236zM3.791 103.28l23.394-25.59 2.419 2.21-23.395 25.591-2.418-2.211zm18.335-48.682a39.14 39.14 0 007.59 23.228l-2.643 1.938a42.415 42.415 0 01-8.224-25.166h3.277zm0-11.638v11.638h-3.277V42.96h3.277zM61.448 3.638c-21.717 0-39.322 17.605-39.322 39.322h-3.277C18.849 19.434 37.921.362 61.448.362v3.276zm208.695 0H61.448V.362h208.695v3.276z" fill="#6D2BFF"/><path d="M73.465 26.576h2.261V43.78h-2.26v-7.741h-8.357v7.742h-2.285V26.575h2.285v7.3h8.356v-7.3zm7.221 12.042c.213 1.098.712 1.95 1.499 2.556.803.607 1.786.91 2.949.91 1.622 0 2.802-.598 3.539-1.794l1.819 1.032c-1.196 1.851-2.999 2.777-5.407 2.777-1.95 0-3.54-.606-4.768-1.819-1.212-1.229-1.819-2.777-1.819-4.645 0-1.851.598-3.391 1.794-4.62 1.197-1.229 2.745-1.843 4.645-1.843 1.803 0 3.269.639 4.4 1.917 1.146 1.261 1.72 2.785 1.72 4.571 0 .311-.025.63-.074.959H80.686zm4.251-5.43c-1.147 0-2.097.327-2.85.982-.754.64-1.221 1.5-1.401 2.58h8.208c-.18-1.163-.639-2.047-1.376-2.654-.737-.606-1.598-.909-2.58-.909zm8.578 10.592V25.838h2.138v17.94h-2.138zm5.4 0V25.838h2.138v17.94h-2.138zm15.771-1.549c-1.262 1.245-2.794 1.868-4.596 1.868s-3.334-.623-4.596-1.868c-1.245-1.245-1.867-2.777-1.867-4.596 0-1.818.622-3.35 1.867-4.595 1.262-1.245 2.794-1.868 4.596-1.868s3.334.622 4.596 1.868c1.262 1.245 1.892 2.777 1.892 4.595 0 1.82-.63 3.351-1.892 4.596zm-4.596-.221c1.229 0 2.261-.418 3.097-1.253.835-.836 1.253-1.876 1.253-3.122 0-1.245-.418-2.285-1.253-3.12-.836-.836-1.868-1.254-3.097-1.254-1.212 0-2.236.418-3.072 1.253-.835.836-1.253 1.876-1.253 3.121 0 1.246.418 2.286 1.253 3.122.836.835 1.86 1.253 3.072 1.253zm11.22-.762l-1.598 5.972h-1.843l.983-5.972h2.458zm9.386-14.672h2.286V43.78h-2.286V26.576zm18.019 4.596c1.441 0 2.596.459 3.465 1.376.868.901 1.302 2.13 1.302 3.687v7.544h-2.138v-7.422c0-.999-.27-1.769-.811-2.31-.54-.557-1.286-.835-2.236-.835-1.065 0-1.925.336-2.581 1.007-.655.656-.983 1.672-.983 3.048v6.512h-2.138V31.491h2.138v1.77c.869-1.393 2.196-2.09 3.982-2.09zm9.251 7.446c.213 1.098.713 1.95 1.5 2.556.802.607 1.785.91 2.949.91 1.622 0 2.801-.598 3.539-1.794l1.818 1.032c-1.196 1.851-2.998 2.777-5.406 2.777-1.95 0-3.539-.606-4.768-1.819-1.213-1.229-1.819-2.777-1.819-4.645 0-1.851.598-3.391 1.794-4.62 1.196-1.229 2.744-1.843 4.645-1.843 1.802 0 3.269.639 4.399 1.917 1.147 1.261 1.721 2.785 1.721 4.571 0 .311-.025.63-.074.959h-10.298zm4.252-5.43c-1.147 0-2.097.327-2.851.982-.753.64-1.22 1.5-1.401 2.58h8.209c-.18-1.163-.639-2.047-1.376-2.654-.738-.606-1.598-.909-2.581-.909zm10.052 5.43c.213 1.098.713 1.95 1.5 2.556.802.607 1.786.91 2.949.91 1.622 0 2.801-.598 3.539-1.794l1.818 1.032c-1.196 1.851-2.998 2.777-5.406 2.777-1.95 0-3.539-.606-4.768-1.819-1.213-1.229-1.819-2.777-1.819-4.645 0-1.851.598-3.391 1.794-4.62 1.196-1.229 2.745-1.843 4.645-1.843 1.802 0 3.269.639 4.399 1.917 1.147 1.261 1.721 2.785 1.721 4.571 0 .311-.025.63-.074.959H172.27zm4.252-5.43c-1.147 0-2.097.327-2.851.982-.753.64-1.22 1.5-1.401 2.58h8.209c-.18-1.163-.639-2.047-1.376-2.654-.738-.606-1.598-.909-2.581-.909zm18.728-6.612h2.138V43.78h-2.138v-2.113c-1.065 1.622-2.613 2.433-4.645 2.433-1.72 0-3.187-.623-4.399-1.868-1.212-1.261-1.819-2.793-1.819-4.596 0-1.802.607-3.325 1.819-4.57 1.212-1.262 2.679-1.893 4.399-1.893 2.032 0 3.58.81 4.645 2.433v-7.029zm-4.375 15.459c1.246 0 2.286-.418 3.122-1.254.835-.852 1.253-1.9 1.253-3.146 0-1.245-.418-2.285-1.253-3.12-.836-.853-1.876-1.279-3.122-1.279-1.228 0-2.261.426-3.096 1.278-.836.836-1.254 1.876-1.254 3.121 0 1.246.418 2.294 1.254 3.146.835.836 1.868 1.254 3.096 1.254zm17.74-7.225c0 .474.237.86.713 1.154.475.279 1.048.508 1.72.688.672.164 1.343.36 2.015.59.672.213 1.245.59 1.72 1.13.476.525.713 1.205.713 2.04 0 1.115-.434 2.008-1.302 2.68-.852.671-1.95 1.007-3.294 1.007-1.196 0-2.22-.262-3.072-.786-.852-.525-1.458-1.221-1.818-2.09l1.843-1.056c.197.59.565 1.057 1.106 1.4.541.345 1.188.517 1.941.517.705 0 1.287-.131 1.745-.394.459-.278.688-.704.688-1.277 0-.476-.237-.852-.712-1.13-.475-.296-1.049-.525-1.721-.69a31.636 31.636 0 01-2.015-.614 4.048 4.048 0 01-1.72-1.13c-.475-.524-.713-1.196-.713-2.015 0-1.065.41-1.942 1.229-2.63.836-.688 1.876-1.032 3.121-1.032 1 0 1.884.23 2.654.688a4.234 4.234 0 011.77 1.868l-1.794 1.008c-.443-1.05-1.319-1.573-2.63-1.573-.606 0-1.122.147-1.548.442-.426.279-.639.68-.639 1.204zm19.448 7.421c-1.262 1.245-2.794 1.868-4.596 1.868s-3.334-.623-4.596-1.868c-1.245-1.245-1.867-2.777-1.867-4.596 0-1.818.622-3.35 1.867-4.595 1.262-1.245 2.794-1.868 4.596-1.868s3.334.622 4.596 1.868c1.261 1.245 1.892 2.777 1.892 4.595 0 1.82-.631 3.351-1.892 4.596zm-4.596-.221c1.229 0 2.261-.418 3.097-1.253.835-.836 1.253-1.876 1.253-3.122 0-1.245-.418-2.285-1.253-3.12-.836-.836-1.868-1.254-3.097-1.254-1.212 0-2.236.418-3.072 1.253-.835.836-1.253 1.876-1.253 3.121 0 1.246.418 2.286 1.253 3.122.836.835 1.86 1.253 3.072 1.253zm22.28-10.838c1.376 0 2.49.45 3.342 1.352.852.884 1.278 2.089 1.278 3.612v7.643h-2.138V36.21c0-.95-.246-1.688-.737-2.212-.492-.524-1.147-.786-1.966-.786-.918 0-1.655.311-2.212.934-.541.606-.811 1.54-.811 2.801v6.832h-2.138V36.21c0-.95-.238-1.688-.713-2.212-.459-.524-1.089-.786-1.892-.786-.901 0-1.655.311-2.261.934-.59.622-.885 1.556-.885 2.801v6.832h-2.138V31.491h2.138v1.647c.836-1.31 2.056-1.966 3.662-1.966 1.655 0 2.859.696 3.613 2.089.852-1.393 2.138-2.09 3.858-2.09zm9.084 7.446c.213 1.098.713 1.95 1.499 2.556.803.607 1.786.91 2.949.91 1.623 0 2.802-.598 3.539-1.794l1.819 1.032c-1.196 1.851-2.998 2.777-5.407 2.777-1.949 0-3.539-.606-4.767-1.819-1.213-1.229-1.819-2.777-1.819-4.645 0-1.851.598-3.391 1.794-4.62 1.196-1.229 2.744-1.843 4.645-1.843 1.802 0 3.269.639 4.399 1.917 1.147 1.261 1.72 2.785 1.72 4.571a6.5 6.5 0 01-.073.959h-10.298zm4.252-5.43c-1.147 0-2.097.327-2.851.982-.754.64-1.221 1.5-1.401 2.58h8.209c-.181-1.163-.639-2.047-1.377-2.654-.737-.606-1.597-.909-2.58-.909zM68.722 58.206c1.442 0 2.597.458 3.465 1.376.868.901 1.303 2.13 1.303 3.686v7.545h-2.138v-7.422c0-1-.27-1.77-.812-2.31-.54-.557-1.286-.835-2.236-.835-1.065 0-1.925.335-2.58 1.007-.656.656-.984 1.671-.984 3.048v6.512h-2.138V53.61h2.139v6.685c.868-1.393 2.195-2.09 3.98-2.09zm9.252 7.446c.213 1.098.712 1.95 1.499 2.556.803.606 1.786.91 2.949.91 1.622 0 2.802-.598 3.539-1.794l1.819 1.032c-1.197 1.851-2.999 2.777-5.407 2.777-1.95 0-3.54-.606-4.768-1.819-1.212-1.229-1.819-2.777-1.819-4.645 0-1.851.598-3.391 1.794-4.62 1.197-1.229 2.745-1.843 4.645-1.843 1.803 0 3.269.639 4.4 1.917 1.146 1.261 1.72 2.785 1.72 4.57 0 .312-.025.632-.074.96H77.974zm4.251-5.431c-1.146 0-2.097.328-2.85.983-.754.639-1.221 1.5-1.401 2.58h8.208c-.18-1.163-.639-2.047-1.376-2.654-.737-.606-1.598-.909-2.58-.909zm8.578 10.592v-17.94h2.138v17.94h-2.138zm12.183-12.607c1.72 0 3.186.63 4.399 1.892 1.212 1.245 1.819 2.769 1.819 4.571 0 1.803-.607 3.335-1.819 4.596-1.213 1.245-2.679 1.868-4.399 1.868-2.032 0-3.58-.811-4.645-2.433v7.029h-2.138V58.525h2.138v2.114c1.065-1.622 2.613-2.433 4.645-2.433zm-.271 10.862c1.229 0 2.261-.417 3.097-1.253.836-.852 1.253-1.9 1.253-3.146 0-1.245-.417-2.285-1.253-3.12-.836-.853-1.868-1.279-3.097-1.279-1.245 0-2.285.426-3.12 1.278-.836.836-1.254 1.876-1.254 3.121 0 1.246.418 2.294 1.253 3.146.836.836 1.876 1.253 3.121 1.253zm9.408 2.016a1.54 1.54 0 01-1.131-.467 1.541 1.541 0 01-.467-1.13c0-.443.156-.82.467-1.131a1.54 1.54 0 011.131-.467c.458 0 .835.155 1.13.467.311.311.467.688.467 1.13 0 .443-.156.82-.467 1.13-.295.312-.672.468-1.13.468zm54.732 73.458h2.261v17.203h-2.261v-7.741h-8.356v7.741h-2.286v-17.203h2.286v7.299h8.356v-7.299zm7.22 12.042c.213 1.098.713 1.95 1.499 2.556.803.606 1.786.91 2.95.91 1.622 0 2.801-.598 3.539-1.795l1.818 1.033c-1.196 1.851-2.998 2.777-5.407 2.777-1.949 0-3.539-.606-4.767-1.819-1.213-1.229-1.819-2.777-1.819-4.645 0-1.851.598-3.391 1.794-4.62 1.196-1.229 2.744-1.843 4.645-1.843 1.802 0 3.269.639 4.399 1.917 1.147 1.261 1.72 2.785 1.72 4.571 0 .311-.024.631-.073.958h-10.298zm4.252-5.431c-1.147 0-2.097.328-2.851.983-.754.639-1.22 1.499-1.401 2.581h8.209c-.18-1.164-.639-2.048-1.377-2.655-.737-.606-1.597-.909-2.58-.909zm8.577 10.592v-17.94h2.138v17.94h-2.138zm5.4 0v-17.94h2.138v17.94h-2.138zm15.772-1.548c-1.262 1.245-2.794 1.868-4.596 1.868s-3.334-.623-4.596-1.868c-1.245-1.245-1.868-2.777-1.868-4.596 0-1.818.623-3.35 1.868-4.595 1.262-1.246 2.794-1.868 4.596-1.868s3.334.622 4.596 1.868c1.261 1.245 1.892 2.777 1.892 4.595 0 1.819-.631 3.351-1.892 4.596zm-4.596-.221c1.229 0 2.261-.418 3.096-1.254.836-.835 1.254-1.876 1.254-3.121s-.418-2.285-1.254-3.121c-.835-.836-1.867-1.253-3.096-1.253-1.213 0-2.237.417-3.072 1.253-.836.836-1.254 1.876-1.254 3.121s.418 2.286 1.254 3.121c.835.836 1.859 1.254 3.072 1.254zm11.219-.762l-1.597 5.972h-1.843l.983-5.972h2.457zm15.285-10.076c1.442 0 2.597.458 3.465 1.376.869.901 1.303 2.13 1.303 3.686v7.545h-2.138v-7.422c0-.999-.271-1.769-.811-2.31-.541-.557-1.286-.835-2.237-.835-1.065 0-1.925.335-2.58 1.007-.656.656-.983 1.671-.983 3.048v6.512h-2.138v-17.203h2.138v6.685c.868-1.393 2.195-2.089 3.981-2.089zm18.124 11.059c-1.262 1.245-2.794 1.868-4.596 1.868s-3.334-.623-4.596-1.868c-1.245-1.245-1.867-2.777-1.867-4.596 0-1.818.622-3.35 1.867-4.595 1.262-1.246 2.794-1.868 4.596-1.868s3.334.622 4.596 1.868c1.261 1.245 1.892 2.777 1.892 4.595 0 1.819-.631 3.351-1.892 4.596zm-4.596-.221c1.229 0 2.261-.418 3.097-1.254.835-.835 1.253-1.876 1.253-3.121s-.418-2.285-1.253-3.121c-.836-.836-1.868-1.253-3.097-1.253-1.212 0-2.236.417-3.072 1.253-.836.836-1.253 1.876-1.253 3.121s.417 2.286 1.253 3.121c.836.836 1.86 1.254 3.072 1.254zm23.004-10.519h2.237l-3.81 12.288h-2.187l-2.875-9.093-2.876 9.093h-2.187l-3.809-12.288h2.236l2.703 9.339 2.9-9.339h2.065l2.9 9.364 2.703-9.364zm16.356 12.608c-1.851 0-3.391-.615-4.62-1.843-1.229-1.246-1.843-2.786-1.843-4.621 0-1.835.614-3.367 1.843-4.595 1.229-1.246 2.769-1.868 4.62-1.868 1.213 0 2.302.295 3.269.884a5.405 5.405 0 012.163 2.335l-1.794 1.032a3.627 3.627 0 00-1.45-1.572c-.639-.394-1.368-.59-2.188-.59-1.228 0-2.261.417-3.096 1.253-.819.836-1.229 1.876-1.229 3.121 0 1.229.41 2.261 1.229 3.097.835.835 1.868 1.253 3.096 1.253.82 0 1.557-.188 2.212-.565a3.946 3.946 0 001.499-1.573l1.819 1.057c-.524.967-1.278 1.745-2.261 2.335-.983.573-2.073.86-3.269.86zm17.648-12.608h2.138v12.288h-2.138v-2.113c-1.065 1.622-2.614 2.433-4.645 2.433-1.721 0-3.187-.623-4.399-1.868-1.213-1.262-1.819-2.793-1.819-4.596 0-1.802.606-3.326 1.819-4.571 1.212-1.261 2.678-1.892 4.399-1.892 2.031 0 3.58.811 4.645 2.433v-2.114zM296.145 160c1.245 0 2.286-.417 3.121-1.253.836-.852 1.254-1.901 1.254-3.146 0-1.245-.418-2.285-1.254-3.121-.835-.852-1.876-1.278-3.121-1.278-1.229 0-2.261.426-3.096 1.278-.836.836-1.254 1.876-1.254 3.121s.418 2.294 1.254 3.146c.835.836 1.867 1.253 3.096 1.253zm15.872-10.862c1.442 0 2.597.458 3.465 1.376.868.901 1.303 2.13 1.303 3.686v7.545h-2.139v-7.422c0-.999-.27-1.769-.811-2.31-.54-.557-1.286-.835-2.236-.835-1.065 0-1.925.335-2.581 1.007-.655.656-.983 1.671-.983 3.048v6.512h-2.138v-12.288h2.138v1.77c.869-1.393 2.196-2.089 3.982-2.089zm28.372.319h2.236l-3.809 12.288h-2.187l-2.876-9.093-2.875 9.093h-2.187l-3.81-12.288h2.237l2.703 9.339 2.9-9.339h2.064l2.9 9.364 2.704-9.364zm5.456 7.127c.213 1.098.712 1.95 1.499 2.556.803.606 1.786.91 2.949.91 1.622 0 2.802-.598 3.539-1.795l1.819 1.033c-1.196 1.851-2.999 2.777-5.407 2.777-1.95 0-3.539-.606-4.768-1.819-1.212-1.229-1.819-2.777-1.819-4.645 0-1.851.598-3.391 1.795-4.62 1.196-1.229 2.744-1.843 4.644-1.843 1.803 0 3.269.639 4.4 1.917 1.146 1.261 1.72 2.785 1.72 4.571 0 .311-.025.631-.074.958h-10.297zm4.251-5.431c-1.146 0-2.097.328-2.85.983-.754.639-1.221 1.499-1.401 2.581h8.208c-.18-1.164-.639-2.048-1.376-2.655-.737-.606-1.598-.909-2.581-.909zm-187.985 25.019c1.442 0 2.597.458 3.466 1.376.868.901 1.302 2.13 1.302 3.686v7.545h-2.138v-7.422c0-.999-.27-1.769-.811-2.31-.541-.557-1.286-.836-2.236-.836-1.065 0-1.925.336-2.581 1.008-.655.655-.983 1.671-.983 3.047v6.513h-2.138v-17.203h2.138v6.685c.868-1.393 2.196-2.089 3.981-2.089zm9.252 7.446c.213 1.098.713 1.95 1.499 2.556.803.606 1.786.909 2.95.909 1.622 0 2.801-.598 3.539-1.794l1.818 1.033c-1.196 1.851-2.998 2.777-5.407 2.777-1.949 0-3.539-.607-4.767-1.819-1.213-1.229-1.819-2.777-1.819-4.645 0-1.851.598-3.391 1.794-4.62 1.196-1.229 2.744-1.843 4.645-1.843 1.802 0 3.269.639 4.399 1.917 1.147 1.261 1.72 2.785 1.72 4.571 0 .311-.024.63-.073.958h-10.298zm4.252-5.431c-1.147 0-2.097.327-2.851.983-.754.639-1.221 1.499-1.401 2.58h8.209c-.181-1.163-.639-2.048-1.377-2.654-.737-.606-1.597-.909-2.58-.909zm8.577 10.592v-17.94h2.138v17.94h-2.138zm12.183-12.607c1.721 0 3.187.63 4.399 1.892 1.213 1.245 1.819 2.769 1.819 4.571 0 1.802-.606 3.334-1.819 4.596-1.212 1.245-2.678 1.868-4.399 1.868-2.031 0-3.58-.811-4.645-2.433v7.028h-2.138v-17.203h2.138v2.114c1.065-1.622 2.614-2.433 4.645-2.433zm-.27 10.862c1.229 0 2.261-.418 3.097-1.253.835-.852 1.253-1.901 1.253-3.146 0-1.245-.418-2.285-1.253-3.121-.836-.852-1.868-1.278-3.097-1.278-1.245 0-2.286.426-3.121 1.278-.836.836-1.254 1.876-1.254 3.121s.418 2.294 1.254 3.146c.835.835 1.876 1.253 3.121 1.253zm23.761-10.543h2.285l-5.013 13.05c-.525 1.393-1.262 2.449-2.212 3.17-.934.738-2.016 1.065-3.244.983v-1.99c1.507.114 2.613-.721 3.317-2.507l.222-.467-5.358-12.239h2.286l4.178 9.634 3.539-9.634zm13.962 10.74c-1.262 1.245-2.794 1.868-4.596 1.868s-3.334-.623-4.596-1.868c-1.245-1.245-1.868-2.777-1.868-4.596s.623-3.35 1.868-4.596c1.262-1.245 2.794-1.867 4.596-1.867s3.334.622 4.596 1.867c1.261 1.246 1.892 2.777 1.892 4.596s-.631 3.351-1.892 4.596zm-4.596-.221c1.229 0 2.261-.418 3.097-1.254.835-.835 1.253-1.876 1.253-3.121s-.418-2.285-1.253-3.121c-.836-.836-1.868-1.253-3.097-1.253-1.212 0-2.236.417-3.072 1.253-.836.836-1.253 1.876-1.253 3.121s.417 2.286 1.253 3.121c.836.836 1.86 1.254 3.072 1.254zm17.487-10.519h2.139v12.288h-2.139v-1.769c-.868 1.392-2.195 2.089-3.981 2.089-1.442 0-2.597-.451-3.465-1.352-.868-.918-1.303-2.155-1.303-3.711v-7.545h2.138v7.422c0 .999.271 1.778.812 2.335.54.54 1.286.811 2.236.811 1.065 0 1.925-.328 2.58-.983.656-.672.983-1.696.983-3.072v-6.513zm8.738 7.25c0-.721.156-1.393.467-2.015a6.09 6.09 0 011.13-1.598c.443-.442.885-.86 1.327-1.253a7.13 7.13 0 001.131-1.327 2.854 2.854 0 00.467-1.548c0-.82-.287-1.442-.86-1.868-.557-.443-1.286-.664-2.188-.664-1.802 0-2.957.795-3.465 2.384l-1.941-1.081c.409-1.147 1.106-2.016 2.089-2.605.983-.607 2.097-.91 3.342-.91 1.458 0 2.703.41 3.736 1.229 1.048.819 1.573 1.958 1.573 3.416 0 .688-.156 1.336-.467 1.942a6.269 6.269 0 01-1.131 1.573c-.442.442-.885.876-1.327 1.302-.442.41-.819.877-1.131 1.401a3.055 3.055 0 00-.466 1.622h-2.286zm1.13 5.308a1.54 1.54 0 01-1.13-.466 1.544 1.544 0 01-.467-1.131c0-.442.156-.819.467-1.13a1.536 1.536 0 011.13-.467c.459 0 .836.155 1.131.467.311.311.467.688.467 1.13 0 .442-.156.819-.467 1.131-.295.311-.672.466-1.131.466z" fill="#373737"/></svg>