<svg width="105" height="99" fill="none" xmlns="http://www.w3.org/2000/svg"><path d="M41.777 32.594c0 17.037 13.764 30.843 30.736 30.843 16.973 0 30.737-13.806 30.737-30.843S89.486 1.75 72.513 1.75 41.777 15.557 41.777 32.594z" fill="#373737" stroke="#fff" stroke-width="1.5"/><path d="M41.358 33.924c3.732 8.944 40.069 30.811 62.311-.332M44.341 45.896c3.731 8.944 34.801 26.606 56.345 0M45.998 16.298c3.184 8.95 32.15 26.938 53.172.045M41.358 31.596c3.732-8.944 40.069-30.478 62.311.665" stroke="#fff" stroke-width="1.5"/><path d="M72.182 1.332v62.19m0-62.19c-8.949 3.658-30.824 39.575 0 62.19m0-62.19c8.949 3.658 30.824 39.575 0 62.19" stroke="#fff" stroke-width="1.5"/><ellipse cx="37.558" cy="93.553" rx="5.44" ry="5.447" fill="#373737"/><ellipse cx="66.556" cy="93.553" rx="5.44" ry="5.447" fill="#373737"/><path d="M1 23.027l13.77 2.554a6 6 0 014.783 4.693L30.23 82.311a6 6 0 005.878 4.794h34.888" stroke="#6D2BFF" stroke-width="2" stroke-linecap="round"/><path d="M20.99 42.69a2 2 0 011.96-2.4h54.454a2 2 0 011.98 2.285l-5.477 37.888a2 2 0 01-1.98 1.714H30.705a2 2 0 01-1.96-1.599L20.99 42.69z" fill="gray"/></svg>