<svg width="129" height="82" fill="none" xmlns="http://www.w3.org/2000/svg"><path d="M8.322 4v65.66a4 4 0 004 4H125a4 4 0 004-4V4a4 4 0 00-4-4H12.322a4 4 0 00-4 4z" fill="#373737"/><path d="M54.178 9.035H2a2 2 0 00-2 2V80a2 2 0 002 2h52.178a2 2 0 002-2V11.035a2 2 0 00-2-2z" fill="#B3B2B1"/><path d="M46.548 16.678H8.935a2 2 0 00-2 2v8.508a2 2 0 002 2h37.613a2 2 0 002-2v-8.508a2 2 0 00-2-2z" fill="#373737" stroke="#373737"/><path d="M113.143 36.514c-.503-9.95-8.465-17.928-18.395-18.432a.962.962 0 00-1 .974v17.458a1 1 0 001 1h17.42c.552 0 1.003-.448.975-1z" fill="#6D2BFF"/><path d="M20.806 70.88H6.936m40.226-23.626H36.065m5.547 5.56v-11.12m-23.578 9.73l-8.324-8.34m0 8.34l8.322-8.34M35 67.131h14m-14 7.014h14" stroke="#fff" stroke-width="2" stroke-linecap="round"/><path d="M109.869 41.269c-.506 10.017-8.773 17.983-18.895 17.983-10.448 0-18.92-8.487-18.92-18.958 0-10.143 7.95-18.425 17.946-18.933a.462.462 0 01.474.476v17.457a1.5 1.5 0 001.5 1.5h17.42c.283 0 .488.225.475.475z" fill="#fff" stroke="#fff"/></svg>