<svg width="111" height="103" fill="none" xmlns="http://www.w3.org/2000/svg"><path d="M2 8.026h99.951a1 1 0 011 1V62.54a1 1 0 01-1 1H2a1 1 0 01-1-1V9.026a1 1 0 011-1z" fill="gray" stroke="gray"/><path d="M102.793 93.637c0 4.338-3.528 7.863-7.89 7.863s-7.89-3.525-7.89-7.863c0-4.34 3.528-7.864 7.89-7.864s7.89 3.525 7.89 7.864zm-33.536 0c0 4.338-3.53 7.863-7.89 7.863-4.362 0-7.89-3.525-7.89-7.863 0-4.34 3.528-7.864 7.89-7.864 4.36 0 7.89 3.525 7.89 7.864z" stroke="#6D2BFF" stroke-width="3"/><path d="M10.05.5H110a.5.5 0 01.5.5v54.182a.5.5 0 01-.5.5H10.05a.5.5 0 01-.5-.5V1a.5.5 0 01.5-.5z" fill="#373737" stroke="#373737"/><path d="M59.666 41c-6.351 0-11.533-5.149-11.533-11.5S53.315 18 59.666 18c6.351 0 11.533 5.149 11.533 11.5S66.017 41 59.666 41z" fill="gray"/><path d="M72.098 56.182l3.22 13.376 4.83-13.376h-8.05z" fill="#C4C4C4"/><path d="M89.24 12.644l-11.105 47.55 4.024 11.37L92.54 23.46a13 13 0 00-1.302-8.98l-1.073-1.962a.5.5 0 00-.925.126z" fill="#C4C4C4"/><path d="M68.745 91.63l8.927-29.886a.5.5 0 01.956-.01l9.568 29.896" stroke="#6D2BFF" stroke-width="3"/></svg>