<svg width="65" height="107" fill="none" xmlns="http://www.w3.org/2000/svg"><rect x="1.5" y="1.5" width="62" height="104" rx="6.5" fill="#B3B2B1" stroke="#373737" stroke-width="3"/><path d="M29.245 38.08H15.376c-.85 0-1.54.953-1.54 2.129v12.777c0 1.176.69 2.129 1.54 2.129h13.869c.851 0 1.54-.953 1.54-2.13V40.21c0-1.176-.689-2.13-1.54-2.13zm19.942 0H35.318c-.85 0-1.54.953-1.54 2.129v12.777c0 1.176.69 2.129 1.54 2.129h13.869c.85 0 1.54-.953 1.54-2.13V40.21c0-1.176-.69-2.13-1.54-2.13z" fill="#6D2BFF" stroke="#6D2BFF" stroke-width=".992" stroke-linecap="round" stroke-linejoin="round"/><path d="M49.187 58.121H35.318c-.85 0-1.54.954-1.54 2.13v12.776c0 1.176.69 2.13 1.54 2.13h13.869c.85 0 1.54-.954 1.54-2.13V60.251c0-1.176-.69-2.13-1.54-2.13zm-19.942 0H15.376c-.85 0-1.54.954-1.54 2.13v12.776c0 1.176.69 2.13 1.54 2.13h13.869c.851 0 1.54-.954 1.54-2.13V60.251c0-1.176-.689-2.13-1.54-2.13z" fill="#fff"/></svg>