<svg width="98" height="123" fill="none" xmlns="http://www.w3.org/2000/svg"><path d="M46.798 121.817a4.492 4.492 0 004.404 0C60.738 116.503 98 93.678 98 61.5V21.91a5 5 0 00-3.238-4.68l-44-16.567a5 5 0 00-3.524 0l-44 16.568A5 5 0 000 21.91V61.5c0 32.178 37.262 55.003 46.798 60.317z" fill="#373737"/><path d="M70.762 56.87c0 12.003-9.743 21.735-21.764 21.735-12.02 0-21.763-9.732-21.763-21.734 0-12.003 9.743-21.734 21.763-21.734 12.02 0 21.764 9.731 21.764 21.734z" fill="#C4C4C4" stroke="#C4C4C4" stroke-width="1.5"/><path d="M48.046 42.09c.294-.932 1.614-.932 1.908 0l2.642 8.387a1 1 0 00.954.7h8.615c.962 0 1.37 1.223.6 1.8l-7.022 5.26a1 1 0 00-.354 1.101l2.67 8.472c.291.927-.776 1.683-1.554 1.1L49.6 63.739a1 1 0 00-1.2 0l-6.905 5.173c-.777.582-1.845-.174-1.553-1.101l2.67-8.472a1 1 0 00-.355-1.1l-7.022-5.261c-.77-.577-.361-1.8.6-1.8h8.615a1 1 0 00.954-.7l2.642-8.386z" fill="#6D2BFF"/><path d="M50.5 86.142v13.021M50 13.021v13.022m29 31.051h13m-84 0h13" stroke="#fff" stroke-width="2" stroke-linecap="round"/></svg>