<svg width="239" height="135" fill="none" xmlns="http://www.w3.org/2000/svg"><path d="M239 132.39H0l3.182.727a75.022 75.022 0 0016.7 1.883h203.911c5.181 0 10.323-.883 15.207-2.61z" fill="#C4C4C4"/><rect x="20.544" y="1.5" width="196.484" height="127.018" rx="7.5" fill="#fff" stroke="#C4C4C4" stroke-width="3"/><path d="M178.931 85.683h-17.99a4 4 0 00-4 4v6.944a4 4 0 004 4h17.99a4 4 0 004-4v-6.944a4 4 0 00-4-4z" fill="url(#paint0_linear_556_302)"/><path d="M138.946 38.856H59.979a4 4 0 00-4 4v41.816a4 4 0 004 4h78.967a4 4 0 004-4V42.856a4 4 0 00-4-4z" fill="url(#paint1_linear_556_302)"/><path d="M128.952 72.233c0 .825-.672 1.494-1.5 1.494s-1.499-.67-1.499-1.495c0-.825.671-1.494 1.499-1.494.828 0 1.5.67 1.5 1.495zm-3.999 0c0 .825-.671 1.494-1.499 1.494-.828 0-1.5-.67-1.5-1.495 0-.825.672-1.494 1.5-1.494s1.499.67 1.499 1.495zm-3.998 0c0 .825-.672 1.494-1.5 1.494s-1.499-.67-1.499-1.495c0-.825.671-1.494 1.499-1.494.828 0 1.5.67 1.5 1.495zm-8.997 0c0 .825-.671 1.494-1.499 1.494-.829 0-1.5-.67-1.5-1.495 0-.825.671-1.494 1.5-1.494.828 0 1.499.67 1.499 1.495zm-3.998 0c0 .825-.672 1.494-1.5 1.494s-1.499-.67-1.499-1.495c0-.825.671-1.494 1.499-1.494.828 0 1.5.67 1.5 1.495zm-3.999 0c0 .825-.671 1.494-1.499 1.494-.829 0-1.5-.67-1.5-1.495 0-.825.671-1.494 1.5-1.494.828 0 1.499.67 1.499 1.495zm-7.997 0c0 .825-.671 1.494-1.5 1.494-.828 0-1.499-.67-1.499-1.495 0-.825.671-1.494 1.5-1.494.828 0 1.499.67 1.499 1.495zm-3.998 0c0 .825-.672 1.494-1.5 1.494s-1.5-.67-1.5-1.495c0-.825.672-1.494 1.5-1.494s1.5.67 1.5 1.495zm-3.999 0c0 .825-.671 1.494-1.5 1.494-.828 0-1.499-.67-1.499-1.495 0-.825.671-1.494 1.5-1.494.828 0 1.499.67 1.499 1.495zm-8.997 0c0 .825-.67 1.494-1.499 1.494-.828 0-1.5-.67-1.5-1.495 0-.825.672-1.494 1.5-1.494s1.5.67 1.5 1.495zm-3.998 0c0 .825-.671 1.494-1.5 1.494-.828 0-1.499-.67-1.499-1.495 0-.825.671-1.494 1.5-1.494.828 0 1.499.67 1.499 1.495zm-3.999 0c0 .825-.67 1.494-1.499 1.494-.828 0-1.5-.67-1.5-1.495 0-.825.672-1.494 1.5-1.494s1.5.67 1.5 1.495z" fill="#fff"/><path d="M67.975 51.808h17.993" stroke="#fff" stroke-width="2" stroke-linecap="round"/><path d="M173.935 93.653v1.993c0 .264-.094.517-.26.704a.844.844 0 01-.629.292h-6.22a.844.844 0 01-.628-.292 1.059 1.059 0 01-.26-.704v-1.993m5.998-2.989l-2-1.992-1.999 1.992m1.999-1.992v4.981" stroke="#fff" stroke-linecap="round" stroke-linejoin="round"/><defs><linearGradient id="paint0_linear_556_302" x1="139.579" y1="118.262" x2="196.734" y2="99.815" gradientUnits="userSpaceOnUse"><stop stop-color="#04A5FF"/><stop offset="1" stop-color="#9002FF"/></linearGradient><linearGradient id="paint1_linear_556_302" x1="-2.118" y1="147.454" x2="188.992" y2="85.536" gradientUnits="userSpaceOnUse"><stop stop-color="#04A5FF"/><stop offset="1" stop-color="#9002FF"/></linearGradient></defs></svg>