<svg width="83" height="143" fill="none" xmlns="http://www.w3.org/2000/svg"><rect x="-1.495" y="1.505" width="79.558" height="139.747" rx="7.5" transform="matrix(-1 .00307 .0031 1 79.562 .005)" fill="#fff" stroke="#C4C4C4" stroke-width="3"/><path d="M23.32 1.06L61.807.942l.017 5.51a3 3 0 01-2.99 3.01l-32.49.1a3 3 0 01-3.009-2.991L23.32 1.06z" fill="#C4C4C4"/><path d="M64.316 37.99h-48.26a4 4 0 00-4 4v28.055a4 4 0 004 4h48.26a4 4 0 004-4V41.989a4 4 0 00-4-4z" fill="url(#paint0_linear_556_284)"/><path d="M64.316 37.99h-48.26a4 4 0 00-4 4v28.055a4 4 0 004 4h48.26a4 4 0 004-4V41.989a4 4 0 00-4-4z" fill="gray"/><path d="M53.265 109.969H30.121a4 4 0 00-4 4v9.995a4 4 0 004 4h23.144a4 4 0 004-4v-9.995a4 4 0 00-4-4z" fill="url(#paint1_linear_556_284)"/><path d="M27.126 54.11v-1.124c0-.597-.239-1.17-.663-1.591a2.265 2.265 0 00-1.598-.66h-4.52c-.6 0-1.175.238-1.6.66a2.245 2.245 0 00-.661 1.59v1.126m4.521-5.625a2.255 2.255 0 002.26-2.25 2.255 2.255 0 00-2.26-2.248 2.255 2.255 0 00-2.26 2.249 2.255 2.255 0 002.26 2.25z" stroke="#C8C8C8" stroke-linecap="round" stroke-linejoin="round"/><path d="M46.214 119.966v2a.999.999 0 01-1.005 1h-7.032a.999.999 0 01-1.005-1v-2m7.033-3.999l-2.512-2-2.512 2m2.512-1.499v5.498" stroke="#fff" stroke-linecap="round" stroke-linejoin="round"/><path d="M69.34 53.985H21.08a4 4 0 00-4 4V86.04a4 4 0 004 4h48.26a4 4 0 004-4V57.985a4 4 0 00-4-4z" fill="url(#paint2_linear_556_284)"/><path d="M69.34 53.985H21.08a4 4 0 00-4 4V86.04a4 4 0 004 4h48.26a4 4 0 004-4V57.985a4 4 0 00-4-4z" fill="#373737"/><path d="M34.158 71.106V69.98c0-.597-.238-1.17-.662-1.591a2.266 2.266 0 00-1.598-.66h-4.521c-.6 0-1.175.238-1.599.66a2.245 2.245 0 00-.662 1.59v1.126m4.521-5.624a2.255 2.255 0 002.26-2.249 2.255 2.255 0 00-2.26-2.25 2.255 2.255 0 00-2.26 2.25 2.255 2.255 0 002.26 2.25z" stroke="#fff" stroke-linecap="round" stroke-linejoin="round"/><path stroke="#fff" stroke-linecap="round" d="M42.695 62.482h22.107"/><path stroke="#C8C8C8" stroke-linecap="round" d="M37.672 45.487h22.107"/><path stroke="#fff" stroke-linecap="round" d="M42.695 67.481h17.084"/><path stroke="#C8C8C8" stroke-linecap="round" d="M37.672 50.486h17.084"/><path stroke="#fff" stroke-linecap="round" d="M51.737 84.476h17.084"/><defs><linearGradient id="paint0_linear_556_284" x1="45.539" y1="64.233" x2="68.234" y2="46.658" gradientUnits="userSpaceOnUse"><stop stop-color="#FF9704"/><stop offset="1" stop-color="#FFC702"/></linearGradient><linearGradient id="paint1_linear_556_284" x1="5.316" y1="149.198" x2="73.867" y2="127.18" gradientUnits="userSpaceOnUse"><stop stop-color="#04A5FF"/><stop offset="1" stop-color="#9002FF"/></linearGradient><linearGradient id="paint2_linear_556_284" x1="50.562" y1="80.228" x2="73.257" y2="62.654" gradientUnits="userSpaceOnUse"><stop stop-color="#FF9704"/><stop offset="1" stop-color="#FFC702"/></linearGradient></defs></svg>