<svg width="200" height="162" fill="none" xmlns="http://www.w3.org/2000/svg"><rect x="-1.357" y="1.627" width="67.319" height="117.275" rx="7.5" transform="matrix(-.99607 .08855 .0914 .99581 67.186 36.129)" fill="#fff" stroke="#C4C4C4" stroke-width="3"/><path d="M19.85 41.206l32.655-2.903.38 4.154a2.99 2.99 0 01-2.713 3.253l-26.678 2.372a3.01 3.01 0 01-3.263-2.722l-.381-4.154z" fill="#C4C4C4"/><path d="M53.979 77.516l-29.896 2.946c-1.835.18-3.173 1.791-2.99 3.596l1.997 19.614c.183 1.806 1.82 3.123 3.654 2.942l29.896-2.947c1.834-.18 3.173-1.791 2.99-3.596l-1.997-19.614c-.184-1.805-1.82-3.122-3.654-2.941z" fill="url(#paint0_linear_556_270)"/><path d="M22.72 91.161l34.755-3.425" stroke="#fff" stroke-width="3" stroke-linecap="square" stroke-linejoin="round"/><rect x="-1.584" y="1.414" width="67.325" height="117.266" rx="7.5" transform="matrix(-.99846 -.05547 -.05727 .99836 196.916 3.816)" fill="#fff" stroke="#C4C4C4" stroke-width="3"/><path d="M149.573 1.841l32.735 1.82-.238 4.164a3.006 3.006 0 01-3.167 2.828l-26.745-1.486a2.993 2.993 0 01-2.824-3.162l.239-4.164z" fill="#C4C4C4"/><path d="M56.515 124.321l-22.796 2.021a3.987 3.987 0 00-3.62 4.337l.496 5.419a4.014 4.014 0 004.349 3.63l22.796-2.021a3.987 3.987 0 003.62-4.337l-.496-5.419a4.014 4.014 0 00-4.349-3.63z" fill="url(#paint1_linear_556_270)"/><path d="M185.536 32.79l-44.404-3.237a4.011 4.011 0 00-4.289 3.698l-.441 5.86a3.989 3.989 0 003.689 4.279l44.403 3.237a4.012 4.012 0 004.29-3.698l.441-5.86a3.989 3.989 0 00-3.689-4.28z" fill="url(#paint2_linear_556_270)"/><path d="M184.309 54.517l-44.404-3.237a4.011 4.011 0 00-4.289 3.698l-.441 5.86a3.989 3.989 0 003.689 4.28l44.403 3.237a4.011 4.011 0 004.29-3.698l.441-5.86a3.989 3.989 0 00-3.689-4.28zm-1.226 22.935l-44.403-3.237a4.011 4.011 0 00-4.29 3.698l-.441 5.86a3.989 3.989 0 003.689 4.28l44.403 3.237a4.011 4.011 0 004.29-3.698l.441-5.86a3.989 3.989 0 00-3.689-4.28z" fill="#F0F0F0"/><path d="M46.635 133.981l2.135-2.554-2.595-2.101m2.595 2.1l-5.913.567" stroke="#fff" stroke-linecap="round" stroke-linejoin="round"/><path d="M183.761 35.584l-5.402 6.197-2.874-2.403" stroke="#fff" stroke-width="1.5" stroke-linecap="round" stroke-linejoin="round"/><defs><linearGradient id="paint0_linear_556_270" x1="2.153" y1="140.206" x2="83.015" y2="110.244" gradientUnits="userSpaceOnUse"><stop stop-color="#04A5FF"/><stop offset="1" stop-color="#9002FF"/></linearGradient><linearGradient id="paint1_linear_556_270" x1="11.853" y1="157.698" x2="72.53" y2="125.026" gradientUnits="userSpaceOnUse"><stop stop-color="#04A5FF"/><stop offset="1" stop-color="#9002FF"/></linearGradient><linearGradient id="paint2_linear_556_270" x1="99.879" y1="56.876" x2="189.594" y2="3.342" gradientUnits="userSpaceOnUse"><stop stop-color="#04A5FF"/><stop offset="1" stop-color="#9002FF"/></linearGradient></defs></svg>