<svg width="239" height="135" fill="none" xmlns="http://www.w3.org/2000/svg"><path d="M239 132.39H0l3.182.727a75.022 75.022 0 0016.7 1.883h203.911c5.181 0 10.323-.883 15.207-2.61z" fill="#C4C4C4"/><rect x="20.544" y="1.5" width="196.484" height="127.018" rx="7.5" fill="#fff" stroke="#C4C4C4" stroke-width="3"/><ellipse cx="133.95" cy="71.236" rx="1.999" ry="1.494" fill="#fff"/><ellipse cx="129.451" cy="71.236" rx="1.499" ry="1.494" fill="#fff"/><ellipse cx="124.453" cy="71.236" rx="1.499" ry="1.494" fill="#fff"/><ellipse cx="113.957" cy="71.236" rx="1.999" ry="1.494" fill="#fff"/><ellipse cx="108.959" cy="71.236" rx="1.999" ry="1.494" fill="#fff"/><ellipse cx="103.961" cy="71.236" rx="1.999" ry="1.494" fill="#fff"/><ellipse cx="94.465" cy="71.236" rx="1.499" ry="1.494" fill="#fff"/><ellipse cx="89.966" cy="71.236" rx="1.999" ry="1.494" fill="#fff"/><ellipse cx="84.968" cy="71.236" rx="1.999" ry="1.494" fill="#fff"/><ellipse cx="73.972" cy="71.236" rx="1.999" ry="1.494" fill="#fff"/><ellipse cx="68.974" cy="71.236" rx="1.999" ry="1.494" fill="#fff"/><ellipse cx="64.476" cy="71.236" rx="1.499" ry="1.494" fill="#fff"/><path d="M62.976 46.827H83.97" stroke="#fff" stroke-width="2" stroke-linecap="round"/><path d="M125.951 88.672H50.982a4 4 0 00-4 4v9.933a4 4 0 004 4h74.969a4 4 0 004-4v-9.933a4 4 0 00-4-4z" fill="url(#paint0_linear_556_312)"/><path d="M125.951 88.672H50.982a4 4 0 00-4 4v9.933a4 4 0 004 4h74.969a4 4 0 004-4v-9.933a4 4 0 00-4-4z" fill="#F0F0F0"/><path d="M192.926 87.792l-34.602-.402a4 4 0 00-4.046 3.953l-.126 10.773a4 4 0 003.953 4.046l34.602.402a4.002 4.002 0 004.047-3.954l.125-10.772a4 4 0 00-3.953-4.046z" fill="url(#paint1_linear_556_312)"/><path d="M47.982 30.886h76.971a1 1 0 011 1V74.72a1 1 0 01-1 1h-76.97a1 1 0 01-1-1V31.886a1 1 0 011-1z" fill="gray" stroke="gray"/><path d="M53.98 25.408h78.97a.5.5 0 01.5.5v42.834a.5.5 0 01-.5.5H53.98a.5.5 0 01-.5-.5V25.908a.5.5 0 01.5-.5z" fill="#373737" stroke="#373737"/><path d="M103.961 48.321c0 5.222-4.249 9.461-9.496 9.461-5.248 0-9.496-4.239-9.496-9.46 0-5.223 4.248-9.462 9.496-9.462 5.247 0 9.496 4.239 9.496 9.461z" stroke="#fff" stroke-width="2"/><path d="M59.977 43.838V31.886a1 1 0 011-1h8.997m-9.997 20.922v10.956a1 1 0 001 1h8.997m58.978-19.926V31.886a1 1 0 00-1-1h-8.997m9.997 20.922v10.956a1 1 0 01-1 1h-8.997" stroke="#fff" stroke-width="2" stroke-linecap="round"/><path d="M176.481 99.82l3.292-3.251-3.263-3.281m3.262 3.282l-8.193-.036" stroke="#fff" stroke-linecap="round" stroke-linejoin="round"/><defs><linearGradient id="paint0_linear_556_312" x1="96.36" y1="101.725" x2="104.897" y2="82.124" gradientUnits="userSpaceOnUse"><stop stop-color="#FF9704"/><stop offset="1" stop-color="#FFC702"/></linearGradient><linearGradient id="paint1_linear_556_312" x1="125.387" y1="127.936" x2="213.68" y2="91.957" gradientUnits="userSpaceOnUse"><stop stop-color="#04A5FF"/><stop offset="1" stop-color="#9002FF"/></linearGradient></defs></svg>