<svg width="238" height="134" fill="none" xmlns="http://www.w3.org/2000/svg"><path d="M238 131.588H17.639l2.272.52A75.023 75.023 0 0036.65 134h187.326c4.778 0 9.52-.816 14.023-2.412z" fill="#C4C4C4"/><rect x="39.332" y="14.907" width="176.098" height="112.353" rx="7.5" fill="#fff" stroke="#C4C4C4" stroke-width="3"/><rect x="-1.191" y="1.756" width="54.89" height="97.512" rx="7.5" transform="matrix(-.98213 .18822 .18808 .98215 54.167 .256)" fill="#fff" stroke="#C4C4C4" stroke-width="3"/><path opacity=".4" d="M135.269 43.155l-5.718-.886c-15.282-2.366-29.592 8.103-31.962 23.384l-.52 3.35c-2.37 15.282 8.096 29.588 23.378 31.955l5.718.886c15.281 2.366 29.591-8.103 31.962-23.384l.52-3.35c2.37-15.282-8.097-29.589-23.378-31.955z" fill="url(#paint0_linear_556_257)"/><path opacity=".4" d="M37.58 40.464l-1.164.041c-7.966.283-14.195 6.97-13.911 14.936.283 7.966 6.97 14.195 14.936 13.912l1.164-.041c7.967-.283 14.195-6.97 13.912-14.936-.284-7.966-6.97-14.195-14.937-13.912z" fill="url(#paint1_linear_556_257)"/><path d="M132.339 49.277l-1.849-.287c-12.66-1.96-24.515 6.713-26.479 19.373-1.964 12.66 6.707 24.512 19.367 26.472l1.849.287c12.66 1.96 24.515-6.713 26.479-19.373 1.964-12.66-6.707-24.512-19.367-26.472z" fill="url(#paint2_linear_556_257)" fill-opacity=".5"/><path d="M37.565 43.624l-.91.033c-6.222.22-11.087 5.444-10.866 11.667.221 6.223 5.445 11.088 11.668 10.867l.91-.032c6.222-.221 11.087-5.445 10.866-11.667-.221-6.223-5.445-11.088-11.668-10.868z" fill="url(#paint3_linear_556_257)" fill-opacity=".5"/><path d="M131.235 54.881l-1.393-.216c-9.546-1.478-18.485 5.061-19.965 14.607-1.481 9.545 5.057 18.481 14.602 19.96l1.394.216c9.546 1.478 18.485-5.062 19.965-14.607 1.481-9.545-5.057-18.482-14.603-19.96z" fill="url(#paint4_linear_556_257)"/><path d="M37.551 46.4l-.686.024a8.501 8.501 0 00.604 16.99l.686-.024a8.501 8.501 0 00-.604-16.99z" fill="url(#paint5_linear_556_257)"/><path d="M135.746 65.374l-10.522 12.255-5.598-4.752M40.664 50.998l-3.901 6.811-3.108-1.757" stroke="#fff" stroke-width="1.5" stroke-linecap="round" stroke-linejoin="round"/><path d="M16.175 10.415L42.682 5.34l.564 2.939a2.999 2.999 0 01-2.382 3.51L20.25 15.736a3.001 3.001 0 01-3.512-2.382l-.563-2.94z" fill="#C4C4C4"/><defs><linearGradient id="paint0_linear_556_257" x1="41.245" y1="159.609" x2="188.458" y2="154.184" gradientUnits="userSpaceOnUse"><stop stop-color="#04A5FF"/><stop offset="1" stop-color="#9002FF"/></linearGradient><linearGradient id="paint1_linear_556_257" x1="4.178" y1="104.617" x2="73.951" y2="88.555" gradientUnits="userSpaceOnUse"><stop stop-color="#04A5FF"/><stop offset="1" stop-color="#9002FF"/></linearGradient><linearGradient id="paint2_linear_556_257" x1="60.201" y1="140.448" x2="175.196" y2="136.21" gradientUnits="userSpaceOnUse"><stop stop-color="#04A5FF"/><stop offset="1" stop-color="#9002FF"/></linearGradient><linearGradient id="paint3_linear_556_257" x1="11.473" y1="93.737" x2="65.976" y2="81.191" gradientUnits="userSpaceOnUse"><stop stop-color="#04A5FF"/><stop offset="1" stop-color="#9002FF"/></linearGradient><linearGradient id="paint4_linear_556_257" x1="76.845" y1="123.623" x2="163.549" y2="120.428" gradientUnits="userSpaceOnUse"><stop stop-color="#04A5FF"/><stop offset="1" stop-color="#9002FF"/></linearGradient><linearGradient id="paint5_linear_556_257" x1="17.878" y1="84.184" x2="58.972" y2="74.724" gradientUnits="userSpaceOnUse"><stop stop-color="#04A5FF"/><stop offset="1" stop-color="#9002FF"/></linearGradient></defs></svg>