<svg width="239" height="135" fill="none" xmlns="http://www.w3.org/2000/svg"><path d="M239 132.39H0l3.182.727a75.022 75.022 0 0016.7 1.883h203.911c5.181 0 10.323-.883 15.207-2.61z" fill="#C4C4C4"/><rect x="20.544" y="1.5" width="196.484" height="127.018" rx="7.5" fill="#fff" stroke="#C4C4C4" stroke-width="3"/><path d="M174.933 85.683h-17.99a4 4 0 00-4 4v6.944a4 4 0 004 4h17.99a4 4 0 004-4v-6.944a4 4 0 00-4-4z" fill="url(#paint0_linear_556_339)"/><path d="M169.936 93.155h-6.997m3.498 3.487v-6.974" stroke="#fff" stroke-width="2" stroke-linecap="round"/><path d="M133.948 36.864H59.979a4 4 0 00-4 4v6.944a4 4 0 004 4h73.969a4 4 0 004-4v-6.944a4 4 0 00-4-4z" fill="url(#paint1_linear_556_339)"/><path d="M133.948 36.864H59.979a4 4 0 00-4 4v6.944a4 4 0 004 4h73.969a4 4 0 004-4v-6.944a4 4 0 00-4-4z" fill="#F0F0F0"/><path d="M159.942 37.364h18.989a3.5 3.5 0 013.5 3.5v15.91a3.5 3.5 0 01-3.5 3.501h-18.989a3.5 3.5 0 01-3.5-3.5V40.864a3.5 3.5 0 013.5-3.5z" fill="#C4C4C4" stroke="#C4C4C4"/><path d="M133.948 60.775H59.979a4 4 0 00-4 4v6.945a4 4 0 004 4h73.969a4 4 0 004-4v-6.945a4 4 0 00-4-4z" fill="url(#paint2_linear_556_339)"/><path d="M133.948 60.775H59.979a4 4 0 00-4 4v6.945a4 4 0 004 4h73.969a4 4 0 004-4v-6.945a4 4 0 00-4-4z" fill="#F0F0F0"/><path d="M133.948 84.686H59.979a4 4 0 00-4 4v6.945a4 4 0 004 4h73.969a4 4 0 004-4v-6.945a4 4 0 00-4-4z" fill="url(#paint3_linear_556_339)"/><path d="M133.948 84.686H59.979a4 4 0 00-4 4v6.945a4 4 0 004 4h73.969a4 4 0 004-4v-6.945a4 4 0 00-4-4zm41.986-28.27v-1.619a3.23 3.23 0 00-.952-2.29 3.252 3.252 0 00-2.297-.948h-6.497c-.862 0-1.688.341-2.298.949a3.233 3.233 0 00-.951 2.29v1.618m6.498-8.095a3.243 3.243 0 003.248-3.238 3.243 3.243 0 00-3.248-3.238 3.243 3.243 0 00-3.249 3.238 3.243 3.243 0 003.249 3.238z" fill="#F0F0F0"/><defs><linearGradient id="paint0_linear_556_339" x1="135.58" y1="118.262" x2="192.735" y2="99.815" gradientUnits="userSpaceOnUse"><stop stop-color="#04A5FF"/><stop offset="1" stop-color="#9002FF"/></linearGradient><linearGradient id="paint1_linear_556_339" x1="104.762" y1="47.741" x2="111.052" y2="30.62" gradientUnits="userSpaceOnUse"><stop stop-color="#FF9704"/><stop offset="1" stop-color="#FFC702"/></linearGradient><linearGradient id="paint2_linear_556_339" x1="104.762" y1="71.653" x2="111.052" y2="54.531" gradientUnits="userSpaceOnUse"><stop stop-color="#FF9704"/><stop offset="1" stop-color="#FFC702"/></linearGradient><linearGradient id="paint3_linear_556_339" x1="104.762" y1="95.564" x2="111.052" y2="78.443" gradientUnits="userSpaceOnUse"><stop stop-color="#FF9704"/><stop offset="1" stop-color="#FFC702"/></linearGradient></defs></svg>