<svg width="131" height="112" fill="none" xmlns="http://www.w3.org/2000/svg"><path d="M104.599 50.924c0 22.784-18.529 41.258-41.39 41.258-22.86 0-41.39-18.474-41.39-41.258 0-22.783 18.53-41.257 41.39-41.257 22.861 0 41.39 18.474 41.39 41.257z" fill="#373737" stroke="#fff" stroke-width="1.5"/><path d="M104.905 52.693c-4.994 11.892-53.625 40.967-83.392-.442m79.4 16.361c-4.994 11.891-46.575 35.374-75.407 0m73.189-39.355c-4.26 11.9-43.026 35.817-71.16.06m77.37 20.28c-4.994-11.891-53.625-40.524-83.392.885" stroke="#fff" stroke-width="1.5"/><path d="M63.653 9.36v82.687m0-82.688c11.976 4.864 41.252 52.62 0 82.688m0-82.688c-11.977 4.864-41.253 52.62 0 82.688" stroke="#fff" stroke-width="1.5"/><path d="M89.465 104.462a1.25 1.25 0 00.65 1.644l10.321 4.482a1.249 1.249 0 10.995-2.293l-9.175-3.984 3.979-9.171a1.25 1.25 0 00-2.294-.996l-4.476 10.318zM101.809 1.61a1.25 1.25 0 00-1.132 1.357l1.021 11.204a1.251 1.251 0 002.49-.226l-.907-9.958 9.959-.902a1.25 1.25 0 00-.227-2.49L101.809 1.61zM91.071 106.123c13.759-5.427 28.464-21.598 33.862-41.284 5.434-19.815 1.451-43.222-22.211-62.944l-1.6 1.92c22.88 19.07 26.585 41.454 21.4 60.362-5.221 19.037-19.442 34.521-32.37 39.62l.92 2.326z" fill="#6D2BFF"/><path d="M41.65 104.456a1.25 1.25 0 01-.567 1.674l-10.085 4.99a1.25 1.25 0 11-1.108-2.241l8.964-4.435-4.433-8.962a1.25 1.25 0 012.241-1.11l4.987 10.084zM24.157 2.273a1.25 1.25 0 011.198 1.299l-.452 11.24a1.25 1.25 0 01-2.498-.1l.402-9.991-9.992-.4a1.25 1.25 0 11.1-2.498l11.241.45zm15.97 103.921c-14.014-4.736-29.512-20.164-35.892-39.57C-2.185 47.091.617 23.5 23.26 2.604l1.695 1.836C3.06 24.645.483 47.203 6.61 65.843c6.17 18.767 21.15 33.533 34.318 37.983l-.8 2.368z" fill="gray"/></svg>