<svg width="20" height="17" fill="none" xmlns="http://www.w3.org/2000/svg"><g filter="url(#filter0_d_195_57)"><path d="M8.072 6.3s1.892-.146 1.892-2.458C9.964 1.527 8.416.4 6.454.4H0v12.926h6.454s3.941.129 3.941-3.816c0 0 .171-3.21-2.323-3.21zM2.844 2.698h3.61s.878 0 .878 1.344c0 1.346-.516 1.54-1.102 1.54H2.844V2.698zm3.427 8.332H2.844V7.574h3.61s1.308-.018 1.308 1.775c0 1.512-.977 1.669-1.491 1.68zm9.378-7.341c-4.771 0-4.767 4.967-4.767 4.967s-.326 4.94 4.767 4.94c0 0 4.243.255 4.243-3.436H17.71s.072 1.39-1.988 1.39c0 0-2.184.153-2.184-2.25h6.423s.709-5.611-4.312-5.611zm1.941 3.886h-4.074s.266-1.992 2.182-1.992 1.892 1.992 1.892 1.992zm.507-6.414H12.98v1.594h5.117V1.16z" fill="#F90"/></g><defs><filter id="filter0_d_195_57" x="-4" y=".401" width="27.995" height="21.199" filterUnits="userSpaceOnUse" color-interpolation-filters="sRGB"><feFlood flood-opacity="0" result="BackgroundImageFix"/><feColorMatrix in="SourceAlpha" values="0 0 0 0 0 0 0 0 0 0 0 0 0 0 0 0 0 0 127 0" result="hardAlpha"/><feOffset dy="4"/><feGaussianBlur stdDeviation="2"/><feComposite in2="hardAlpha" operator="out"/><feColorMatrix values="0 0 0 0 0 0 0 0 0 0 0 0 0 0 0 0 0 0 0.25 0"/><feBlend in2="BackgroundImageFix" result="effect1_dropShadow_195_57"/><feBlend in="SourceGraphic" in2="effect1_dropShadow_195_57" result="shape"/></filter></defs></svg>