<svg width="20" height="19" fill="none" xmlns="http://www.w3.org/2000/svg"><g filter="url(#filter0_d_195_65)"><path d="M6.5.667h7A4.837 4.837 0 0118.333 5.5v7a4.833 4.833 0 01-4.833 4.833h-7A4.837 4.837 0 011.667 12.5v-7A4.833 4.833 0 016.5.667zm-.167 1.666a3 3 0 00-3 3v7.333c0 1.659 1.342 3 3 3h7.334a3 3 0 003-3V5.333c0-1.658-1.342-3-3-3H6.333zm8.042 1.25a1.042 1.042 0 110 2.084 1.042 1.042 0 010-2.084zM10 4.833a4.167 4.167 0 110 8.334 4.167 4.167 0 010-8.334zM10 6.5a2.5 2.5 0 100 5 2.5 2.5 0 000-5z" fill="#F90"/></g><defs><filter id="filter0_d_195_65" x="-2.333" y=".667" width="24.667" height="24.666" filterUnits="userSpaceOnUse" color-interpolation-filters="sRGB"><feFlood flood-opacity="0" result="BackgroundImageFix"/><feColorMatrix in="SourceAlpha" values="0 0 0 0 0 0 0 0 0 0 0 0 0 0 0 0 0 0 127 0" result="hardAlpha"/><feOffset dy="4"/><feGaussianBlur stdDeviation="2"/><feComposite in2="hardAlpha" operator="out"/><feColorMatrix values="0 0 0 0 0 0 0 0 0 0 0 0 0 0 0 0 0 0 0.25 0"/><feBlend in2="BackgroundImageFix" result="effect1_dropShadow_195_65"/><feBlend in="SourceGraphic" in2="effect1_dropShadow_195_65" result="shape"/></filter></defs></svg>