<svg width="20" height="20" fill="none" xmlns="http://www.w3.org/2000/svg"><path d="M17.316 6.246c.008.162.011.326.011.488 0 4.99-3.797 10.742-10.74 10.742-2.133 0-4.116-.625-5.787-1.697a7.576 7.576 0 005.588-1.562 3.78 3.78 0 01-3.526-2.621 3.857 3.857 0 001.705-.065 3.779 3.779 0 01-3.028-3.703V7.78c.524.292 1.11.454 1.71.473a3.775 3.775 0 01-1.168-5.041 10.716 10.716 0 007.781 3.945 3.813 3.813 0 01.19-2.305 3.774 3.774 0 014.989-2.02 3.77 3.77 0 011.254.882 7.602 7.602 0 002.397-.916 3.789 3.789 0 01-1.66 2.088 7.55 7.55 0 002.168-.594 7.621 7.621 0 01-1.884 1.953z" fill="#F90"/></svg>