<svg width="99" height="107" fill="none" xmlns="http://www.w3.org/2000/svg"><g clip-path="url(#clip0_1490_7236)"><path d="M24.117 22.25L3.021 31.326M20.855 7.168l12.144-5.225m59.784 18.303l2.972-1.279M14.91 9.531l-.546.235M86.838 22.61l-.546.235M81.488 46.33l10.375-4.463m-26.425 44.22L89.464 75.75M3.021 91.436L27.048 81.1m68.707-7.963l-.546.235" stroke="#FFC234" stroke-width="3.567" stroke-linecap="round"/><path d="M12.527 26.79c0-5.582 4.524-10.106 10.105-10.106H70.67c5.58 0 10.105 4.524 10.105 10.105v57.906c0 5.581-4.524 10.106-10.105 10.106H22.632c-5.581 0-10.106-4.525-10.106-10.106V26.79z" fill="#fff" stroke="#000" stroke-width="3.567"/><path stroke="#000" stroke-width="1.783" d="M10.743 27.166h70.719"/><path d="M87.206 92.198c0 7.108-5.762 12.87-12.87 12.87s-12.87-5.762-12.87-12.87c0-7.107 5.762-12.87 12.87-12.87s12.87 5.763 12.87 12.87z" fill="#fff" stroke="#000" stroke-width="3.864"/><path d="M84.065 92.198a9.73 9.73 0 11-19.46-.001 9.73 9.73 0 0119.46.002z" stroke="#FFC234" stroke-width="3.567"/><path d="M73.101 92.06v-5.205m.826 5.204h5.753" stroke="#000" stroke-width="3.567" stroke-linecap="round"/><path d="M12.54 26.274c.268-5.341 4.684-9.59 10.092-9.59H70.67c5.408 0 9.824 4.249 10.092 9.59H12.54z" fill="#FFE4A5" stroke="#000" stroke-width="3.567"/><path d="M66.252 11.337a1.232 1.232 0 012.464 0v8.772a1.232 1.232 0 01-2.464 0v-8.772zm-8.223 0a1.232 1.232 0 012.463 0v8.772a1.232 1.232 0 01-2.463 0v-8.772zm-8.224 0a1.232 1.232 0 012.464 0v8.772a1.232 1.232 0 01-2.464 0v-8.772zm-8.222 0a1.232 1.232 0 012.463 0v8.772a1.232 1.232 0 01-2.463 0v-8.772zm-8.224 0a1.232 1.232 0 012.464 0v8.772a1.232 1.232 0 01-2.464 0v-8.772zm-8.223 0a1.232 1.232 0 012.463 0v8.772a1.232 1.232 0 01-2.463 0v-8.772z" fill="#fff" stroke="#000" stroke-width="3.567"/><path d="M23.9 36.829h47.146v7.127H23.9v-7.127zm9.32 7.127v31.796H23.9V43.956h9.32z" fill="#FFC234"/><path d="M59.535 64.24v8.223H51.86V64.24h7.675zm-9.32-9.32v8.223H42.54V54.92h7.675z" fill="#FFE4A5"/><path d="M33.359 35.733v39.47m-9.32-39.47v39.47m18.64-39.47v39.47m9.319-39.47v39.47m9.32-39.47v39.47m9.32-39.47v39.47m-48.382-11.65h48.242m-48.242-9.32h48.242m-48.242-9.32h48.242M23.9 35.734h46.598v38.375H23.9V35.733z" stroke="#000" stroke-width="3.567"/></g><defs><clipPath id="clip0_1490_7236"><path fill="#fff" d="M0 0h99v107H0z"/></clipPath></defs></svg>