<svg width="25" height="25" fill="none" xmlns="http://www.w3.org/2000/svg"><path d="M21.341 3.646A12.415 12.415 0 0012.544 0C5.662 0 .087 5.556.087 12.413c0 2.17.61 4.34 1.655 6.163L0 25l6.62-1.736c1.83.955 3.833 1.476 5.924 1.476C19.425 24.74 25 19.184 25 12.326c-.087-3.211-1.307-6.336-3.659-8.68zM18.555 16.84c-.261.695-1.48 1.39-2.09 1.476a4.885 4.885 0 01-1.917-.087c-.436-.173-1.045-.347-1.742-.694-3.136-1.302-5.14-4.427-5.314-4.688-.174-.173-1.306-1.65-1.306-3.212 0-1.562.784-2.257 1.045-2.604.261-.347.61-.347.871-.347h.61c.174 0 .435-.087.697.52.261.609.87 2.171.958 2.258a.552.552 0 010 .52 1.804 1.804 0 01-.349.522c-.174.173-.348.434-.435.52-.174.174-.349.348-.174.608.174.347.784 1.302 1.742 2.17 1.22 1.042 2.178 1.389 2.526 1.563.348.173.523.086.697-.087.174-.174.784-.868.958-1.216.174-.347.436-.26.697-.173.261.087 1.83.868 2.09 1.042.349.173.523.26.61.347.087.26.087.868-.174 1.562z" fill="#000"/></svg>