<svg viewBox="0 0 52 39" xmlns="http://www.w3.org/2000/svg" xmlns:xlink="http://www.w3.org/1999/xlink"><style>:root&gt;svg{display:none}:root&gt;svg:target{display:block}</style><svg viewBox="0 0 25 16" id="arrow-next" xmlns="http://www.w3.org/2000/svg"><path d="M1 7a1 1 0 000 2V7zm23.707 1.707a1 1 0 000-1.414L18.343.929a1 1 0 10-1.414 1.414L22.586 8l-5.657 5.657a1 1 0 001.414 1.414l6.364-6.364zM1 9h23V7H1v2z"/></svg><svg viewBox="0 0 25 16" id="arrow-prev" xmlns="http://www.w3.org/2000/svg"><path d="M.293 7.293a1 1 0 000 1.414l6.364 6.364a1 1 0 001.414-1.414L2.414 8l5.657-5.657A1 1 0 006.657.93L.293 7.293zM24 9a1 1 0 100-2v2zM1 9h23V7H1v2z"/></svg><svg viewBox="0 0 52 16" id="btn-next" xmlns="http://www.w3.org/2000/svg"><path d="M1.5 7a1 1 0 000 2V7zm50.207 1.707a1 1 0 000-1.414L45.343.929a1 1 0 10-1.414 1.414L49.586 8l-5.657 5.657a1 1 0 001.414 1.414l6.364-6.364zM1.5 9H51V7H1.5v2z"/></svg><svg viewBox="0 0 51 16" id="btn-prev" xmlns="http://www.w3.org/2000/svg"><path d="M.293 7.293a1 1 0 000 1.414l6.364 6.364a1 1 0 001.414-1.414L2.414 8l5.657-5.657A1 1 0 006.657.93L.293 7.293zM1 9h49.5V7H1v2z"/></svg><svg aria-hidden="true" viewBox="0 0 1024 1024" id="calc-arrow" xmlns="http://www.w3.org/2000/svg"><path d="M452.864 149.312a29.12 29.12 0 0141.728.064L826.24 489.664a32 32 0 010 44.672L494.592 874.624a29.12 29.12 0 01-41.728 0 30.592 30.592 0 010-42.752L764.736 512 452.864 192a30.592 30.592 0 010-42.688zm-256 0a29.12 29.12 0 0141.728.064L570.24 489.664a32 32 0 010 44.672L238.592 874.624a29.12 29.12 0 01-41.728 0 30.592 30.592 0 010-42.752L508.736 512 196.864 192a30.592 30.592 0 010-42.688z"/></svg><svg viewBox="0 0 33 39" id="play" xmlns="http://www.w3.org/2000/svg"><path d="M33 19.5L.75 38.12V.88L33 19.5z"/></svg><svg viewBox="0 0 24 22" id="star" xmlns="http://www.w3.org/2000/svg"><path d="M11.075 1.633c.32-.844 1.532-.844 1.853 0l2.07 5.734a.99.99 0 00.926.633h5.087c.94 0 1.35 1.17.61 1.743L18.002 13a.968.968 0 00-.322 1.092l1.323 5.603c.322.9-.72 1.673-1.508 1.119l-4.918-3.12a1 1 0 00-1.15 0l-4.916 3.12c-.787.554-1.83-.22-1.508-1.12l1.322-5.602A.968.968 0 006.002 13l-3.62-3.257C1.642 9.17 2.054 8 2.992 8h5.087a.99.99 0 00.926-.633l2.07-5.734z"/></svg></svg>