<svg width="31" height="30" fill="none" xmlns="http://www.w3.org/2000/svg"><path fill-rule="evenodd" clip-rule="evenodd" d="M9.847 3.075C11.18 3.014 11.605 3 15 3c3.395 0 3.82.015 5.152.075 1.332.06 2.241.273 3.037.58A6.15 6.15 0 0125.402 5.1a6.107 6.107 0 011.441 2.212c.31.796.52 1.705.582 3.034.061 1.336.075 1.76.075 5.155 0 3.395-.015 3.82-.075 5.153-.06 1.33-.273 2.239-.582 3.035a6.133 6.133 0 01-1.44 2.214 6.13 6.13 0 01-2.214 1.441c-.796.31-1.705.52-3.035.582-1.334.06-1.759.074-5.154.074-3.396 0-3.82-.015-5.153-.075-1.33-.06-2.239-.273-3.034-.582a6.133 6.133 0 01-2.215-1.44 6.128 6.128 0 01-1.442-2.214c-.308-.796-.52-1.705-.581-3.035-.061-1.335-.075-1.76-.075-5.154 0-3.396.015-3.82.075-5.152.06-1.332.273-2.241.58-3.037A6.132 6.132 0 014.6 5.098a6.127 6.127 0 012.21-1.442c.796-.308 1.705-.52 3.034-.581h.002zm10.204 2.25c-1.318-.06-1.713-.073-5.051-.073s-3.733.013-5.051.073c-1.22.056-1.88.26-2.322.43a3.88 3.88 0 00-1.437.935 3.877 3.877 0 00-.934 1.437c-.172.441-.375 1.103-.431 2.322-.06 1.318-.073 1.713-.073 5.051 0 3.337.013 3.733.073 5.051.056 1.22.26 1.88.43 2.322.2.542.52 1.034.935 1.437a3.88 3.88 0 001.437.934c.441.172 1.103.375 2.322.431 1.318.06 1.712.073 5.051.073 3.339 0 3.733-.013 5.051-.073 1.22-.056 1.88-.26 2.322-.43a3.88 3.88 0 001.437-.935 3.88 3.88 0 00.934-1.437c.172-.441.375-1.103.431-2.322.06-1.318.073-1.713.073-5.051s-.013-3.733-.073-5.051c-.056-1.22-.26-1.88-.43-2.322a3.88 3.88 0 00-.935-1.437 3.878 3.878 0 00-1.437-.934c-.441-.172-1.103-.375-2.322-.431zm-6.648 14.028a4.169 4.169 0 004.546-6.802 4.17 4.17 0 10-4.546 6.802zm-2.946-8.396a6.425 6.425 0 119.086 9.086 6.425 6.425 0 01-9.086-9.086zm12.393-.925a1.52 1.52 0 10-2.087-2.212 1.52 1.52 0 002.087 2.212z" fill="#F7FBEB"/></svg>