<svg width="31" height="30" fill="none" xmlns="http://www.w3.org/2000/svg"><path d="M21.25 16.913v4.62h-2.679v-4.312c0-1.082-.387-1.82-1.357-1.82-.74 0-1.181.497-1.375.98-.07.172-.089.412-.089.652v4.5h-2.68s.036-7.302 0-8.058h2.68v1.141l-.018.027h.018v-.025c.356-.55.991-1.333 2.415-1.333 1.762 0 3.085 1.153 3.085 3.628zM10.266 9.589c-.916 0-1.516.602-1.516 1.392 0 .775.582 1.394 1.481 1.394h.018c.935 0 1.516-.62 1.516-1.394-.018-.79-.581-1.392-1.499-1.392zM8.91 21.534h2.68v-8.059H8.91v8.059z" fill="#F7FBEB"/><path d="M7.5 5.5A2.5 2.5 0 005 8v15a2.5 2.5 0 002.5 2.5h15A2.5 2.5 0 0025 23V8a2.5 2.5 0 00-2.5-2.5h-15zm0-2.5h15a5 5 0 015 5v15a5 5 0 01-5 5h-15a5 5 0 01-5-5V8a5 5 0 015-5z" fill="#F7FBEB"/></svg>