<svg width="31" height="30" fill="none" xmlns="http://www.w3.org/2000/svg"><path fill-rule="evenodd" clip-rule="evenodd" d="M21.868 9.983h-.003a.865.865 0 00-.192.048L6.575 15.257a.872.872 0 00.01 1.652l5.037 1.679 5.087 5.087a.872.872 0 001.431-.306l4.647-12.197a.862.862 0 00.055-.432v-.003a.867.867 0 00-.598-.718.876.876 0 00-.376-.035zm-5.424 3.704L9.57 16.066l2.38.793 4.493-3.172zm-3.002 4.254l3.548 3.548 3.154-8.28-6.702 4.732z" fill="#F7FBEB"/><path fill-rule="evenodd" clip-rule="evenodd" d="M2.5 15.5C2.5 8.596 8.096 3 15 3s12.5 5.596 12.5 12.5S21.904 28 15 28 2.5 22.404 2.5 15.5zM15 4.744C9.06 4.744 4.244 9.56 4.244 15.5S9.06 26.256 15 26.256 25.756 21.44 25.756 15.5 20.94 4.744 15 4.744z" fill="#F7FBEB"/></svg>