<svg width="31" height="30" fill="none" xmlns="http://www.w3.org/2000/svg"><path d="M19.255 17.239a6.268 6.268 0 00-1.112-.951 8.946 8.946 0 003.249-5.081 1.134 1.134 0 00-.853-1.371 1.136 1.136 0 00-1.363.866 6.66 6.66 0 01-3.432 4.435v-4.18a1.082 1.082 0 00-.05-.246 1.162 1.162 0 00-.04-.194 1.124 1.124 0 00-.19-.284c-.02-.023-.03-.055-.052-.077a1.138 1.138 0 00-.279-.19c-.03-.016-.051-.042-.082-.055a1.159 1.159 0 00-.268-.055 1.076 1.076 0 00-.173-.036l-.743-.002h-.003a1.13 1.13 0 00-.398 2.192v5.557a12.848 12.848 0 01-3.42-6.8 1.137 1.137 0 00-2.241.38 15.152 15.152 0 006.136 9.822c.047.028.095.052.145.073.04.023.08.044.123.061.127.051.261.078.398.081.167-.002.332-.042.482-.116.011-.006.024-.002.035-.008.1-.052.192-.12.273-.2.017-.016.027-.034.043-.05a1.124 1.124 0 00.224-.37 1.12 1.12 0 00.08-.392v-2.416a4.023 4.023 0 011.835 1.142l1.872 2.042a1.137 1.137 0 001.675-1.537l-1.872-2.04zM18.491 3h-6.973C4.523 3 2.5 5.02 2.5 12.008v6.973C2.5 25.977 4.52 28 11.508 28h6.973c6.996 0 9.019-2.02 9.019-9.008v-6.973C27.5 5.023 25.48 3 18.492 3zm6.735 15.992c0 5.727-1.009 6.735-6.747 6.735h-6.97c-5.73 0-6.737-1.009-6.737-6.747v-6.97c0-5.73 1.009-6.737 6.748-6.737h6.971c5.727 0 6.735 1.009 6.735 6.748v6.971z" fill="#F7FBEB"/></svg>