<svg viewBox="0 0 391 274" xmlns="http://www.w3.org/2000/svg" xmlns:xlink="http://www.w3.org/1999/xlink"><style>:root&gt;svg{display:none}:root&gt;svg:target{display:block}</style><svg fill="none" viewBox="0 0 391 274" id="border-reviews" xmlns="http://www.w3.org/2000/svg"><path d="M18 272h-8a8 8 0 01-8-8V10a8 8 0 018-8h8" stroke="#fff" stroke-width="3"/><path opacity=".8" stroke="#fff" stroke-width="2" d="M10 40v198"/><circle cx="35" cy="2" r="2" fill="#fff"/><circle cx="43" cy="2" r="2" fill="#fff"/><circle cx="51" cy="2" r="2" fill="#fff"/><circle cx="35" cy="272" r="2" fill="#fff"/><circle cx="43" cy="272" r="2" fill="#fff"/><circle cx="51" cy="272" r="2" fill="#fff"/><path d="M373 2h8a8 8 0 018 8v254a8 8 0 01-8 8h-8" stroke="#fff" stroke-width="3"/><path opacity=".8" stroke="#fff" stroke-width="2" d="M381 234V36"/><circle cx="339" cy="2" r="2" fill="#fff"/><circle cx="347" cy="2" r="2" fill="#fff"/><circle cx="355" cy="2" r="2" fill="#fff"/><circle cx="339" cy="272" r="2" fill="#fff"/><circle cx="347" cy="272" r="2" fill="#fff"/><circle cx="355" cy="272" r="2" fill="#fff"/><path d="M84.5 1H306" stroke="url(#apaint0_linear_216_6)" stroke-width="2"/><path d="M84.5 272H306" stroke="url(#apaint1_linear_216_6)" stroke-width="2"/><defs><linearGradient id="apaint0_linear_216_6" x1="90.26" y1="1" x2="338.989" y2="1" gradientUnits="userSpaceOnUse"><stop stop-color="#fff"/><stop offset="1" stop-color="#8DA4EA" stop-opacity="0"/></linearGradient><linearGradient id="apaint1_linear_216_6" x1="90.26" y1="272" x2="338.989" y2="272" gradientUnits="userSpaceOnUse"><stop stop-color="#fff"/><stop offset="1" stop-color="#8DA4EA" stop-opacity="0"/></linearGradient></defs></svg><svg fill="none" viewBox="0 0 253 90" id="btn-svg" xmlns="http://www.w3.org/2000/svg"><path d="M8 19.798a5 5 0 014.875-4.999L126.5 11.961l113.375-2.833A5 5 0 01245 14.126v64.726a5 5 0 01-5.146 4.998l-227-6.616A5 5 0 018 72.236V19.798z" fill="#8DA4EA"/><path d="M49 10l165-7" stroke="url(#bpaint0_linear_205_1905)" stroke-width="2"/><path d="M49 82l165 7" stroke="url(#bpaint1_linear_205_1905)" stroke-width="2"/><circle cx="213" cy="2" r="2" fill="#8DA4EA"/><circle cx="221" cy="2" r="2" fill="#8DA4EA"/><circle cx="229" cy="2" r="2" fill="#8DA4EA"/><circle cx="213" cy="87" r="2" fill="#8DA4EA"/><circle cx="221" cy="87" r="2" fill="#8DA4EA"/><circle cx="229" cy="87" r="2" fill="#8DA4EA"/><circle cx="26.005" cy="10.245" r="2" transform="rotate(-1.753 26.005 10.245)" fill="#8DA4EA"/><circle cx="34.001" cy="10" r="2" transform="rotate(-1.753 34 10)" fill="#8DA4EA"/><circle cx="41.997" cy="9.755" r="2" transform="rotate(-1.753 41.997 9.755)" fill="#8DA4EA"/><circle cx="24.002" cy="80.804" r="2" transform="rotate(1.402 24.002 80.804)" fill="#8DA4EA"/><circle cx="32" cy="81" r="2" transform="rotate(1.402 32 81)" fill="#8DA4EA"/><circle cx="39.997" cy="81.196" r="2" transform="rotate(1.402 39.997 81.196)" fill="#8DA4EA"/><path d="M17 80.5l-8.747-.82A8 8 0 011 71.715v-52.43a8 8 0 017.253-7.965L17 10.5M236 88h8a8 8 0 008-8V11a8 8 0 00-8-8h-8" stroke="#fff" stroke-width="2"/><defs><linearGradient id="bpaint0_linear_205_1905" x1="58.586" y1="5.033" x2="209.183" y2="1.982" gradientUnits="userSpaceOnUse"><stop stop-color="#fff"/><stop offset="1" stop-color="#fff" stop-opacity="0"/></linearGradient><linearGradient id="bpaint1_linear_205_1905" x1="58.586" y1="86.967" x2="209.183" y2="90.018" gradientUnits="userSpaceOnUse"><stop stop-color="#fff"/><stop offset="1" stop-color="#fff" stop-opacity="0"/></linearGradient></defs></svg><svg viewBox="0 0 17 17" id="insta" xmlns="http://www.w3.org/2000/svg"><path d="M14.58 0H2.42C1.045 0 0 1.046 0 2.42v12.16C0 15.955 1.046 17 2.42 17h12.16c1.374 0 2.42-1.046 2.42-2.42V2.42C17 1.045 15.954 0 14.58 0zM8.5 13.6c2.812 0 5.1-2.223 5.1-4.904 0-.458-.065-.98-.196-1.373h1.438v6.93a.655.655 0 01-.654.655H2.813a.655.655 0 01-.654-.654V7.258h1.504a4.964 4.964 0 00-.197 1.373C3.4 11.377 5.688 13.6 8.5 13.6zm0-1.961c-1.83 0-3.27-1.439-3.27-3.204 0-1.766 1.44-3.204 3.27-3.204s3.27 1.438 3.27 3.204c0 1.83-1.44 3.204-3.27 3.204zm6.277-6.997c0 .393-.327.72-.72.72h-1.83a.726.726 0 01-.72-.72V2.877c0-.392.328-.72.72-.72h1.83c.393 0 .72.328.72.72v1.765z"/></svg><svg viewBox="0 0 18 17" id="mail" xmlns="http://www.w3.org/2000/svg"><path d="M14.58 2.158C13.013.719 11.116 0 8.763 0 6.342 0 4.25.785 2.55 2.42.85 4.053 0 6.08 0 8.5c0 2.354.785 4.315 2.42 6.015C4.053 16.215 6.211 17 9.022 17c1.635 0 3.27-.327 4.904-1.046.523-.196.784-.85.588-1.373-.196-.523-.85-.785-1.373-.589-1.373.589-2.746.916-4.054.916-2.092 0-3.726-.654-4.903-1.962-1.177-1.307-1.766-2.811-1.766-4.511 0-1.897.654-3.466 1.831-4.708C5.492 2.485 6.996 1.83 8.827 1.83c1.634 0 3.073.523 4.25 1.569 1.177 1.046 1.7 2.354 1.7 3.923 0 1.046-.262 1.962-.785 2.68-.523.72-1.046 1.047-1.634 1.047-.327 0-.458-.13-.458-.523 0-.262 0-.589.065-.915l.654-5.297h-2.223l-.13.523c-.59-.457-1.178-.719-1.831-.719-1.047 0-1.962.458-2.747 1.308-.784.85-1.111 1.961-1.111 3.27 0 1.307.327 2.353 1.046 3.203.654.785 1.504 1.177 2.42 1.177.85 0 1.569-.327 2.157-1.046.458.654 1.112 1.046 2.027 1.046 1.308 0 2.42-.588 3.4-1.7s1.438-2.485 1.438-4.12c-.196-1.96-.98-3.726-2.484-5.1zm-5.165 7.977c-.392.523-.85.784-1.438.784-.392 0-.654-.196-.915-.588-.262-.393-.327-.85-.327-1.439 0-.719.13-1.307.457-1.7.327-.457.72-.654 1.177-.654.393 0 .785.131 1.112.524.327.326.457.784.457 1.307.066.654-.13 1.243-.523 1.766z"/></svg><svg viewBox="0 0 12 20" id="odn" xmlns="http://www.w3.org/2000/svg"><path d="M11.61 12.308c.46-.469.525-1.137.131-1.806-.329-.535-.92-.803-1.578-.67a2.222 2.222 0 00-.789.402c-2.038 1.405-4.799 1.338-6.837-.067l-.394-.2c-.723-.335-1.447-.201-1.841.468-.46.669-.394 1.404.197 2.006.132.134.263.201.329.335l.066.067c.92.736 2.038 1.204 3.484 1.405l-.855.87-2.235 2.273c-.197.201-.46.535-.46 1.004 0 .602.329 1.204.92 1.471.198.134.395.134.592.134.329 0 .723-.134.986-.468l2.564-2.609.066-.067s.065 0 .065.067c.526.602 1.118 1.137 1.644 1.74l.789.802c.329.334.592.468.986.468.592.067 1.25-.334 1.512-.936a1.355 1.355 0 00-.329-1.606c-.657-.669-1.314-1.404-2.038-2.073L7.468 14.18c.591-.067 1.249-.201 1.84-.469.987-.334 1.71-.802 2.302-1.404z"/><path d="M5.956 10.435a5.122 5.122 0 005.128-5.15 5.309 5.309 0 00-1.512-3.747C8.585.535 7.336 0 6.022 0 3.194 0 .958 2.341.893 5.15c0 1.405.526 2.676 1.512 3.68.92 1.07 2.17 1.605 3.55 1.605zm-1.447-6.69c.395-.4.92-.601 1.447-.601 1.183 0 2.038.936 2.038 2.073 0 1.204-.92 2.074-2.038 2.074-1.184 0-2.038-.936-2.038-2.074 0-.535.197-1.07.591-1.471z"/><path d="M11.61 12.308c.46-.469.525-1.137.131-1.806-.329-.535-.92-.803-1.578-.67a2.222 2.222 0 00-.789.402c-2.038 1.405-4.799 1.338-6.837-.067l-.394-.2c-.723-.335-1.447-.201-1.841.468-.46.669-.394 1.404.197 2.006.132.134.263.201.329.335l.066.067c.92.736 2.038 1.204 3.484 1.405l-.855.87-2.235 2.273c-.197.201-.46.535-.46 1.004 0 .602.329 1.204.92 1.471.198.134.395.134.592.134.329 0 .723-.134.986-.468l2.564-2.609.066-.067s.065 0 .065.067c.526.602 1.118 1.137 1.644 1.74l.789.802c.329.334.592.468.986.468.592.067 1.25-.334 1.512-.936a1.355 1.355 0 00-.329-1.606c-.657-.669-1.314-1.404-2.038-2.073L7.468 14.18c.591-.067 1.249-.201 1.84-.469.987-.334 1.71-.802 2.302-1.404z"/></svg><svg viewBox="0 0 73 73" id="play" xmlns="http://www.w3.org/2000/svg"><path d="M69.948 31.525L7.861.512A5.54 5.54 0 00.708 2.823 5.525 5.525 0 000 5.454v61.998a5.498 5.498 0 002.617 4.73 5.512 5.512 0 005.405.212L69.948 41.38A5.533 5.533 0 0073 36.44a5.525 5.525 0 00-3.052-4.942v.027z"/></svg><svg viewBox="0 0 21 13" id="vk" xmlns="http://www.w3.org/2000/svg"><path d="M20.673 10.876c0-.083-.083-.083-.083-.166-.332-.664-1.08-1.494-2.076-2.408-.498-.415-.747-.747-.913-.913-.25-.332-.25-.581-.166-.913.083-.25.415-.664.996-1.412.332-.415.498-.664.747-.913 1.246-1.66 1.827-2.74 1.66-3.238L20.757.83c-.083-.083-.166-.166-.332-.166-.166-.083-.415-.083-.665 0h-3.737l-.083.083c-.083.083-.083.083-.083.166-.332.913-.747 1.66-1.162 2.49-.249.416-.498.831-.747 1.163-.25.332-.415.581-.581.747-.166.167-.332.25-.415.416-.084.083-.25.166-.25.083-.082 0-.165 0-.165-.083l-.25-.25c-.083-.083-.083-.249-.166-.415V.914c0-.083-.083-.249-.083-.332l-.248-.25c-.084-.082-.25-.082-.333-.166A7.447 7.447 0 009.963 0C8.634 0 7.72.083 7.389.25c-.166.082-.332.165-.415.331-.166.166-.166.25-.083.25.415.082.747.248.913.497l.083.166c.083.083.083.25.166.499s.083.498.083.83V4.15c0 .415-.083.664-.083.913 0 .25-.083.416-.166.499-.083.166-.083.249-.166.249 0 0 0 .083-.083.083s-.166.083-.332.083c-.083 0-.249-.083-.332-.166a1 1 0 01-.415-.416c-.166-.166-.332-.415-.498-.747-.166-.332-.415-.664-.581-1.162l-.167-.332c-.083-.166-.249-.498-.415-.913-.166-.415-.332-.748-.498-1.163a1.146 1.146 0 00-.249-.332h-.083S3.985.664 3.902.664 3.736.581 3.653.581H.664C.332.581.166.664.083.747L0 .83v.166c0 .083 0 .166.083.332.415.997.913 1.993 1.411 2.99.499.912.997 1.743 1.329 2.324.415.581.747 1.162 1.162 1.66.415.498.664.83.747.997l.332.332.25.249c.166.166.415.415.747.664.332.249.747.498 1.162.747.415.25.913.415 1.411.581.582.166 1.08.25 1.578.166h1.245a.754.754 0 00.581-.249l.083-.083c0-.083.083-.083.083-.166v-.332c0-.332 0-.581.083-.83.083-.25.083-.415.166-.581a1.15 1.15 0 01.25-.332l.166-.166h.083c.166-.083.415 0 .58.166.25.166.499.415.665.664.166.249.415.498.747.83.332.332.581.581.747.664l.25.166c.165.083.332.166.58.25.25.082.416.082.582.082l2.822-.083c.25 0 .499-.083.665-.166.166-.083.249-.166.249-.332v-.332c-.166-.166-.166-.249-.166-.332z"/></svg><svg viewBox="0 0 21 21" id="whatsap" xmlns="http://www.w3.org/2000/svg"><path d="M17.927 3.063A10.428 10.428 0 0010.537 0C4.757 0 .073 4.667.073 10.427c0 1.823.512 3.646 1.39 5.177L0 21l5.561-1.458c1.537.802 3.22 1.24 4.976 1.24 5.78 0 10.463-4.667 10.463-10.428-.073-2.698-1.098-5.323-3.073-7.291zm-2.342 11.083c-.22.583-1.244 1.166-1.756 1.24a4.104 4.104 0 01-1.61-.073c-.365-.146-.877-.292-1.463-.584-2.634-1.094-4.317-3.719-4.463-3.937-.147-.146-1.098-1.386-1.098-2.698 0-1.313.659-1.896.878-2.188.22-.291.512-.291.732-.291h.512c.146 0 .366-.073.585.437.22.51.732 1.823.805 1.896a.463.463 0 010 .437 1.525 1.525 0 01-.292.438c-.147.146-.293.364-.366.437-.147.146-.293.292-.147.51.147.293.659 1.095 1.464 1.824 1.024.875 1.83 1.166 2.122 1.312.293.146.439.073.585-.073.146-.146.659-.729.805-1.02.146-.292.366-.22.585-.146.22.073 1.537.729 1.757.875.292.146.438.218.512.291.073.22.073.73-.147 1.313z"/></svg><svg viewBox="0 0 18 13" id="youtube" xmlns="http://www.w3.org/2000/svg"><path d="M17.713 4.913c0-.388-.065-.84-.065-1.357a88.45 88.45 0 00-.194-1.487c-.129-.517-.323-.905-.71-1.229-.324-.323-.776-.517-1.229-.581C14.028.065 11.83 0 8.857 0 5.883 0 3.62.065 2.198.259 1.745.323 1.293.517.97.84a2.58 2.58 0 00-.711 1.23c-.13.452-.194.905-.194 1.487C0 4.073 0 4.526 0 4.913v2.974c0 .388.065.84.065 1.357.064.518.129 1.035.194 1.487.129.518.323.905.71 1.229.324.323.776.517 1.229.581 1.487.194 3.685.259 6.659.259 2.973 0 5.236-.065 6.658-.259.453-.064.905-.258 1.228-.581.324-.324.582-.712.712-1.229a5.19 5.19 0 00.194-1.487c.064-.517.064-.97.064-1.357V4.913zm-5.43 2.004l-5.107 3.168a.494.494 0 01-.323.13c-.13 0-.194 0-.324-.066a.679.679 0 01-.323-.581v-6.4a.68.68 0 01.323-.582.587.587 0 01.647 0l5.107 3.168c.194.129.323.323.323.517s-.13.517-.323.646z"/></svg></svg>