<svg width="17" height="20" fill="none" xmlns="http://www.w3.org/2000/svg"><path fill-rule="evenodd" clip-rule="evenodd" d="M6.532.098C3.347.685.834 3.083.162 6.175c-.861 3.963 1.732 8.702 7.318 13.371l.542.454.543-.454c2.294-1.917 4.063-3.815 5.334-5.72.604-.905 1.335-2.327 1.615-3.139 1.039-3.02.496-5.951-1.508-8.136C13.056 1.515 11.474.58 10.063.22c-.916-.234-2.61-.292-3.531-.122zm2.18 4.008c1.772.327 3.127 1.9 3.13 3.634.006 2.355-2.314 4.15-4.678 3.62-1.333-.298-2.49-1.385-2.831-2.663-.7-2.61 1.668-5.09 4.38-4.59z" fill="#fff"/></svg>