<svg width="40" height="40" fill="none" xmlns="http://www.w3.org/2000/svg"><rect width="40" height="40" rx="5" fill="#fff"/><path fill-rule="evenodd" clip-rule="evenodd" d="M25.115 4.296c-1.07.165-2.358.8-3.227 1.59-.561.51-1.199 1.413-1.512 2.14-.296.687-.386 1.117-.406 1.94l-.015.618.198.018c.484.045 1.271-.086 1.799-.299 1.64-.662 3.106-2.49 3.498-4.366a6.105 6.105 0 00.112-1.399l-.02-.286-.088.003c-.049.001-.201.02-.339.04zm-.399 6.594c-.81.089-1.428.252-2.709.716-.404.146-.918.325-1.143.399-.695.228-.923.2-2.201-.268l-.817-.299a11.14 11.14 0 00-1.354-.391c-.313-.066-.416-.074-.904-.075-1.191 0-2.221.291-3.284.93a6.08 6.08 0 00-1.288 1.007c-.595.59-.973 1.11-1.379 1.901-1.232 2.4-1.287 5.698-.152 9.148.667 2.03 1.428 3.464 2.802 5.28 1.052 1.39 1.969 2.155 2.92 2.435.227.067.3.075.692.075.379 0 .481-.01.77-.076a9.238 9.238 0 001.346-.437c.85-.335 1.486-.5 2.159-.56.83-.073 1.83.123 2.85.56.492.21 1.263.422 1.74.477 1.277.147 2.43-.478 3.637-1.972 1.279-1.582 2.153-3.108 2.79-4.87.08-.221.14-.405.136-.409a17.658 17.658 0 00-.349-.177 6.475 6.475 0 01-2.417-2.141 6.096 6.096 0 01-.809-1.922 7.617 7.617 0 01-.115-2.128 5.997 5.997 0 01.547-1.92c.48-.97 1.11-1.638 2.372-2.516.052-.037.045-.052-.155-.316a7.014 7.014 0 00-1.086-1.092c-.933-.696-1.916-1.09-3.23-1.296-.34-.053-1.13-.09-1.369-.063z" fill="#4A4748"/></svg>