<svg width="99" height="107" fill="none" xmlns="http://www.w3.org/2000/svg"><g clip-path="url(#clip0_1490_7245)"><path d="M55.693 105.846L95.955 88.81M3.977 14.288l-.546.235m73.662 12.842l-.546.235M34.293 73.08l10.375-4.463m9.836 22.225l24.027-10.336m-71.928 5.35l-3.857 1.659M52.721 65.28l24.026-10.336m8.074 22.948l-.546.235m-71.382 4.52l-.546.236M5.47 32.925l24.026-10.337m52.906 2.08l10.375-4.463m-82.6 0l10.375-4.464m53.894-6.82l5.188-2.232" stroke="#FFC234" stroke-width="3.567" stroke-linecap="round"/><path d="M83.59 57.067v10.997H72c-.951 0 .396-8.719 1.189-13.078L55.355 44.583l1.783-4.755 10.997 5.647 13.375 5.944 2.08 5.648zM14.338 69.55h11.294V54.986L41.98 44.583v-4.755l-14.862 6.539-12.78 8.62V69.55z" fill="#fff"/><path d="M79.43 50.528l-5.053-2.972h-.595l2.675-5.35 2.973-2.378 3.863 2.377v4.459l-3.863 3.864zm-55.878-2.972c-.892.792-2.913 2.496-3.864 2.972h-2.972l-2.378-3.864.594-5.35 3.864-1.486 2.675 2.972 2.08 4.756z" fill="#FFE4A5"/><path d="M58.03 16.05c-1.486 2.08-5.053 6.598-7.43 8.025-.793-.297-2.735-.892-4.162-.892s-4.16-5.944-5.35-8.916L39.602 1.783H58.03V16.05z" fill="#FFC844" stroke="#FFC234" stroke-width=".594"/><path fill-rule="evenodd" clip-rule="evenodd" d="M38.23 1.27c-.646.646-.746.676-2.317.682-1.286.006-1.832.107-2.52.469-1.368.72-2.276 1.631-2.907 2.916-.496 1.01-.58 1.434-.58 2.947 0 1.468.092 1.96.539 2.91 1.28 2.715 2.774 3.545 7.308 4.052.835.094 1.195.223 1.195.43 0 .164-.191.297-.425.297-.596 0-1.446.916-1.446 1.56 0 .825.863 1.56 1.81 1.543.434-.008.97-.085 1.192-.172.334-.131.605.113 1.575 1.417 1.315 1.767 3.397 3.792 4.841 4.707l.96.61.008 2.44.007 2.44-2.274 1.14c-1.25.627-2.603 1.43-3.005 1.782-1.015.892-1.745 2.502-1.917 4.23l-.142 1.433-3.78 1.83c-2.08 1.007-3.908 1.984-4.063 2.171-.43.518-.359 1.75.122 2.102.873.639 1.233.548 4.954-1.248 3.351-1.618 3.661-1.73 3.657-1.316-.006.647-.687 2.043-1.234 2.53-.256.23-4.454 2.427-9.329 4.884-9.579 4.83-9.542 4.805-9.06 6.177.3.854 1.153 1.258 1.99.942.369-.14.71-.213.759-.165.048.049.02 2.526-.065 5.504l-.153 5.415h-7.431l.121-6.598c.106-5.78.166-6.66.479-7.102.446-.63-.048-.359 6.521-3.57 3.122-1.526 5.698-2.912 5.872-3.161.453-.647.381-1.339-.2-1.92-.657-.657-1.01-.642-2.678.114-.756.343-1.416.624-1.466.624-.05 0-.427-1.006-.837-2.235-.865-2.592-1.278-3.342-2.233-4.051-1.47-1.092-2.643-1.218-4.835-.52-2.43.773-3.856 2.485-3.86 4.633-.001.881 1.52 5.323 2.086 6.088l.466.63-.756.713c-.416.392-.967 1.17-1.225 1.728-.462 1.003-.468 1.122-.468 9.847 0 6.189.112 10.606.375 14.756l.375 5.923-2.298 7.954c-1.263 4.375-2.297 8.226-2.297 8.558 0 .404.18.745.547 1.034.479.376.836.43 2.822.43 2.206 0 2.292-.017 2.84-.571.31-.314 1.903-3.125 3.54-6.247 1.636-3.12 3.004-5.646 3.038-5.61.034.034-.49 2.495-1.164 5.466-1.592 7.012-1.609 6.962 2.405 6.962 1.954 0 2.21-.044 2.664-.467.763-.711 7.058-16.204 7.036-17.318-.028-1.435-1.323-4.677-4.52-11.315l-1.753-3.642.19-6.92c.104-3.805.222-6.948.262-6.983.04-.036 2.972-1.518 6.516-3.294s6.832-3.512 7.308-3.858c1.627-1.182 2.684-3.181 2.85-5.389l.088-1.186 4.878-.056 4.877-.056.104 1.451c.07.99.282 1.814.665 2.598 1.02 2.086 1.735 2.578 9.186 6.334l6.834 3.445.175 6.909.175 6.91-4.124 5.644c-2.268 3.105-4.286 5.98-4.483 6.392-.812 1.692-.665 2.237 3.084 11.413 2.3 5.628 3.624 8.61 3.961 8.921.459.422.716.467 2.669.467 4.011 0 3.994.051 2.402-6.962-.674-2.971-1.2-5.428-1.17-5.46.031-.03 1.481 2.647 3.223 5.95 2.357 4.473 3.296 6.066 3.677 6.24.281.128 1.477.232 2.656.232 1.855 0 2.219-.058 2.692-.43.347-.273.548-.634.548-.985 0-.304-1.041-4.199-2.313-8.655l-2.314-8.102 1.593-6.864c1.382-5.952 1.593-7.117 1.586-8.764-.008-2.152-.264-2.684-1.396-2.903-.99-.191-1.729.615-1.729 1.884v.944h-7.421l-.15-5.422c-.083-2.983-.115-5.458-.072-5.5.043-.044.426.028.852.159.677.208.845.185 1.34-.184.643-.477.882-1.744.433-2.285-.145-.175-4.252-2.313-9.127-4.75-6.356-3.178-9.015-4.612-9.397-5.066-.572-.679-1.059-1.907-.948-2.392.048-.212 3.36 1.307 11.672 5.356 6.382 3.108 11.819 5.858 12.08 6.11.632.608.738 1.254.738 4.508 0 2.599.026 2.767.481 3.195.639.6 1.492.576 2.127-.058.496-.496.51-.596.51-3.6 0-3.813-.26-4.856-1.55-6.202l-.907-.946.486-.717c.73-1.076 1.972-4.989 1.97-6.21-.005-2.147-1.49-3.78-4.142-4.554-1.552-.453-2.428-.41-3.691.177-1.458.679-2.108 1.648-2.98 4.446-.397 1.273-.79 2.317-.873 2.318-.083.002-3.556-1.65-7.717-3.671l-7.567-3.675-.11-1.071c-.17-1.638-.544-2.665-1.377-3.769-.634-.841-1.177-1.223-3.298-2.318l-2.54-1.311v-4.944l.987-.672c1.438-.978 3.905-3.41 4.977-4.905.79-1.104.987-1.267 1.314-1.091.542.29 1.903.244 2.327-.078 1.199-.91.593-2.834-.892-2.834-.404 0-.542-.302-.227-.497.093-.058.968-.204 1.943-.326 2.938-.364 3.824-.717 5.162-2.055 1.423-1.422 1.948-2.746 1.952-4.915.006-3.613-2.959-6.533-6.387-6.291-1.146.08-1.25.048-1.902-.605l-.69-.69H38.907l-.676.676zm19.16 5.819c-.136 4.005-.534 5.786-1.92 8.583-.511 1.034-1.447 2.506-2.077 3.27-1.52 1.841-3.757 3.682-4.476 3.682-.751 0-3.083-1.989-4.51-3.845-1.387-1.807-2.616-4.29-3.193-6.454-.332-1.243-.467-2.512-.548-5.132l-.108-3.481h16.948l-.115 3.377zM36.96 5.161c.293.112.533.309.533.438 0 .13-.122.189-.27.132-.517-.198-1.58.424-1.727 1.01-.237.946.14 1.612 1.1 1.946.806.28.87.361.991 1.247.071.521.184 1.22.25 1.551l.12.604-1.29-.135c-2.423-.253-3.472-1.196-3.672-3.303-.234-2.462 1.848-4.295 3.965-3.49zm26.266.09c1.354.704 2.017 2.045 1.786 3.61-.272 1.843-1.465 2.868-3.6 3.091l-1.297.136.134-1.019c.27-2.038.307-2.127.95-2.268.672-.148 1.445-.988 1.445-1.573 0-.613-.894-1.49-1.519-1.49-1.185 0-.262-.738.957-.766.32-.007.835.118 1.144.279zM20.198 42.523c.558.485 1.789 4.266 1.615 4.96-.15.596-1.584 1.343-2.635 1.373-.895.025-1.273-.486-2.074-2.808-.655-1.898-.68-2.071-.387-2.594.316-.563 1.74-1.261 2.618-1.284.244-.006.633.153.863.353zm59.921-.047c1.162.41 1.648.863 1.644 1.534-.004.727-1.354 4.402-1.698 4.62-.847.537-3.063-.1-3.472-.996-.212-.465-.142-.858.496-2.772.918-2.753 1.249-3.014 3.03-2.386zM8.904 104.393c-.28.28-.51.752-.51 1.048 0 .297.23.768.51 1.049.502.503.563.51 4.134.51 3.23 0 3.676-.042 4.104-.389.667-.54.667-1.799 0-2.339-.428-.347-.873-.389-4.104-.389-3.57 0-3.632.007-4.134.51zm11.166-.029c-.64.68-.597 1.661.095 2.205.505.397.822.431 4.026.431 3.203 0 3.52-.034 4.025-.431.757-.595.757-1.66 0-2.255-.506-.398-.821-.431-4.121-.431-3.466 0-3.587.014-4.025.481zm47.694-.05c-.757.595-.757 1.66 0 2.255.505.397.822.431 4.025.431 3.204 0 3.52-.034 4.025-.431.398-.312.548-.622.548-1.128 0-.505-.15-.815-.548-1.127-.504-.397-.821-.431-4.025-.431-3.203 0-3.52.034-4.025.431zm11.074-.042c-.348.281-.48.604-.48 1.169 0 .566.132.889.48 1.17.428.347.873.389 4.104.389 3.57 0 3.631-.007 4.134-.51.28-.281.51-.752.51-1.049 0-.296-.23-.768-.51-1.048-.503-.503-.564-.51-4.134-.51-3.231 0-3.676.042-4.104.389z" fill="#000"/></g><defs><clipPath id="clip0_1490_7245"><path fill="#fff" d="M0 0h99v107H0z"/></clipPath></defs></svg>