<svg width="80" height="29" fill="none" xmlns="http://www.w3.org/2000/svg"><path fill-rule="evenodd" clip-rule="evenodd" d="M71.96 20.382c-.269.143-.418.368-.356.537.03.082-.025.11-.22.11-.774 0-1.435.436-1.435.948 0 .343.228.6.7.788.318.126.329.14.178.22a.712.712 0 00-.242.224c-.065.111-.052.162.062.25a.607.607 0 00.316.111c.228 0 .308-.221.13-.358-.131-.1-.13-.104.023-.104.25 0 .752.235.83.39.108.208.095.22-.185.173-.325-.055-.432.139-.201.363.083.081.174.22.2.31.048.155.056.156.194.026.143-.135.145-.12.135 1.225-.005.748-.027 1.43-.049 1.517-.062.247-.234.19-.227-.076.008-.298-.06-.364-.247-.242-.096.062-.181.071-.237.025-.047-.04-.302-.068-.567-.062l-.48.01v.231c0 .194.03.232.185.237.306.01.37.03.37.11 0 .042-.132.077-.291.077-.338 0-.362.047-.364.732l-.002.462.383-.008c.388-.008.653-.058.794-.149.042-.027.124-.008.181.041.139.12.259.033.259-.187a.41.41 0 01.11-.275c.097-.083.112-.044.112.296 0 .45.167.628.443.474.14-.078.148-.162.15-1.755.002-1.582.045-2.71.111-2.924.017-.053.123-.097.236-.098.272-.001.422-.108.366-.26-.05-.136-.42-.173-.42-.042 0 .045-.033.06-.074.034-.236-.153.39-.585.825-.569.136.005.189.025.118.044-.071.02-.13.104-.13.189 0 .125.042.149.233.129.345-.036.434-.238.214-.483-.132-.146-.148-.196-.064-.196.188 0 .566-.229.724-.439.451-.598-.148-1.333-1.087-1.333-.347 0-.354-.004-.353-.24.001-.319-.26-.521-.74-.573-.26-.028-.438-.002-.611.09zm1.06.374c.136.107.131.113-.096.116-.276.003-.335.192-.085.274.113.038.133.075.074.136-.247.258.07.643.417.509.186-.072.228-.3.056-.3-.061 0-.111-.035-.111-.078 0-.042.134-.077.299-.077.378 0 .662.266.662.619 0 .344-.348.69-.692.69-.297 0-.418-.115-.187-.178.239-.065.123-.242-.175-.268-.208-.019-.285.011-.349.135-.067.132-.05.191.103.351.101.106.244.196.317.2.326.018-.276.131-.74.138-.29.005-.485.038-.46.08.023.04-.09.013-.25-.058l-.293-.13.245-.131c.251-.135.373-.325.294-.458-.085-.142-.403-.223-.553-.14-.19.106-.18.219.024.3.154.063.156.072.029.125-.219.092-.648-.062-.81-.29-.132-.184-.14-.245-.064-.507.094-.328.312-.478.693-.478.216 0 .223.009.112.137-.169.194-.053.342.243.312.3-.03.444-.23.318-.44-.075-.124-.065-.153.062-.188.216-.059.149-.323-.08-.314-.164.007-.166.001-.038-.096.183-.14.855-.134 1.036.01zm-36.597.319c-.067.18.107.259.567.259.46 0 .634-.08.567-.26-.035-.096-.157-.123-.567-.123-.41 0-.532.027-.567.124zm13.649-.038c-.513.213-.577.568-.186 1.026.142.167.258.332.258.369 0 .036-.216.306-.48.6-.397.44-.48.578-.48.794 0 .549.65 1 1.447 1.003.374.002.522-.04.877-.249l.428-.251.235.237c.236.239.509.308.6.153.028-.046-.072-.215-.221-.374l-.272-.29.275-.23c.425-.355.117-.594-.334-.259l-.202.15-1.234-1.293.309-.349c.424-.48.412-.66-.061-.959a1.083 1.083 0 00-.96-.078zm6.457-.002c-.282.085-.607.413-.67.674-.08.332.122.552 1.213 1.314.909.634 1.053.763 1.053.938 0 .39-.227.497-1.024.48a22.66 22.66 0 01-.97-.04c-.19-.016-.26.009-.26.093 0 .212.41.334 1.145.341.845.008 1.028-.04 1.367-.35.296-.27.345-.608.129-.886-.07-.09-.585-.48-1.144-.868-.838-.58-1.016-.737-1.016-.89 0-.221.164-.41.413-.475.156-.04 1.065-.005 1.656.064.142.017.185-.014.185-.13 0-.11-.081-.177-.296-.244-.345-.108-1.45-.122-1.781-.021zm2.892-.01c-.038.063-.057 1.548-.043 3.296.004.48.004.482.22.482h.218l.023-1.419c.013-.78.047-1.444.076-1.474.03-.03.213.13.407.358.448.525.772.84.865.84.04 0 .329-.277.642-.616.313-.34.588-.616.611-.616.023 0 .051.65.062 1.444l.02 1.444h.444v-1.887c0-2.352.035-2.315-1.052-1.12l-.74.813-.718-.81c-.669-.752-.92-.93-1.035-.735zm4.284.177c-.024.137-.034.995-.022 1.906l.022 1.656h.443l.042-3.004.615.674c.337.37.647.674.687.674.04 0 .336-.277.656-.616.32-.34.607-.616.637-.616.03 0 .054.624.053 1.387 0 .763.02 1.422.045 1.464.025.041.126.076.226.076.203 0 .186.178.186-1.965 0-2.038.014-1.887-.172-1.887-.116-.001-.387.24-.885.79l-.72.79-.736-.79c-.805-.862-1.004-.962-1.077-.54zm-12.863.237c.128.098.124.116-.082.357-.194.225-.235.242-.369.155-.24-.157-.346-.375-.242-.505.11-.138.515-.142.693-.007zm-20.996.703c-.129.058-.27.176-.314.262-.044.086-.08.563-.08 1.07 0 .861.01.927.173 1.086.25.245.56.314 1.377.308.771-.006.937-.054.865-.25-.038-.102-.178-.123-.828-.123-.431 0-.848-.036-.927-.08-.128-.072-.142-.17-.142-1 0-1.076-.1-.983 1.084-1.017.413-.012.774-.046.803-.076.029-.03.033-.108.009-.174-.037-.098-.197-.118-.915-.115-.572.002-.951.04-1.105.109zm3.091.017c-.135.07-.276.21-.314.312-.037.102-.067.581-.067 1.066 0 .77.018.9.144 1.03.269.281 1.195.4 1.799.23.188-.053.358-.056.49-.008.204.074.45-.002.45-.14 0-.038-.092-.114-.204-.17l-.203-.102-.074-2.309-.887-.019c-.705-.014-.937.008-1.133.11zm2.907-.052c-.028.048-.05.59-.047 1.208.004 1.256.037 1.35.521 1.486.424.119 1.772.065 1.854-.075.038-.063.067-.659.066-1.323-.002-1.286-.043-1.44-.356-1.337-.14.047-.15.123-.17 1.22l-.02 1.17-.572.023c-.882.034-.861.064-.885-1.276-.02-1.096-.026-1.136-.18-1.159-.088-.012-.182.016-.21.063zm3.102.018c-.021.057-.03.674-.018 1.371l.02 1.268.177.026c.097.015.204-.02.239-.077.034-.056.06-.519.059-1.027a78.836 78.836 0 01.001-1.098c.005-.163.036-.173.52-.173h.515l.041 2.35h.444l.04-2.35h.48c.456 0 .485.011.558.21.042.115.072.436.066.712-.006.277-.008.72-.005.984l.006.482h.447l-.04-2.41-.209-.163c-.194-.15-.317-.163-1.756-.185-1.243-.02-1.555-.004-1.585.08zm4.378-.047c-.029.03-.052.653-.052 1.384 0 1.52-.062 1.401.735 1.413.808.01 1.22-.198 1.304-.662.11-.613-.283-.95-1.105-.95h-.485l-.021-.598c-.02-.533-.038-.6-.173-.62-.083-.012-.174.003-.203.033zm2.313.144c-.08.218-.104 2.257-.03 2.459.027.072.132.122.26.122h.216l-.02-1.367c-.02-1.352-.022-1.368-.186-1.392-.123-.019-.186.028-.24.178zM34.55 23.375c0 1.12 0 1.12-.739 1.12-.734 0-.739-.007-.739-1.075 0-.66.026-.926.093-.954.05-.021.383-.042.739-.045l.646-.006v.96zm16.552.017l.53.592-.171.145c-.25.21-.617.366-.854.364-.442-.004-.981-.384-.981-.692 0-.098.803-1.001.89-1.001.031 0 .295.266.586.592zm-6.372.391c.142.192.114.54-.05.632-.08.044-.328.08-.555.08h-.411v-.411c0-.226.014-.425.03-.443.017-.018.225-.02.463-.007.287.017.462.066.523.15z" fill="#fff"/><path d="M79.031 3.267v2.466h-7.9c-.683 0-.928.771-.917 1.743 0 .968.247 1.603.825 1.603h5.883c1.97 0 2.991 1.63 2.991 4.164 0 2.134-.201 4.384-2.637 4.384h-9.379s-.061-1.766 0-2.648h9.23c.953 0 .953-3.323 0-3.323h-6.32c-2.058 0-3.108-1.644-3.108-4.18-.009-2.1 1.023-4.21 3.109-4.21h8.223zM16.978 6.378C19.538 1.6 24.99-.445 28.813 1.732c5.346 2.525 5.898 8.679 2.316 12.568-5.523 5.067-15.309 2.555-17.553-1.04a.036.036 0 01.044-.054c5.642 2.172 11.618 1.27 14.43-3.488 1.07-2.429.162-4.644-2.491-5.766-2.762-.745-4.674-.12-8.528 2.476-.032.022-.072-.015-.053-.05z" fill="#fff"/><path d="M25.065 10.884c1.43 0 2.59-1.209 2.59-2.7 0-1.49-1.16-2.7-2.59-2.7s-2.59 1.21-2.59 2.7c0 1.491 1.16 2.7 2.59 2.7zm-7.729 1.191C14.765 7.302 9.307 5.272 5.49 7.459.15 9.997-.388 16.152 3.203 20.032c5.534 5.054 15.315 2.516 17.55-1.085a.037.037 0 00-.044-.053c-5.636 2.186-11.615 1.3-14.438-3.452C5.197 13.017 6.1 10.8 8.75 9.67c2.76-.752 4.673-.132 8.534 2.455.032.021.072-.015.053-.05z" fill="#fff"/><path d="M9.26 16.6c-1.43.004-2.593-1.201-2.596-2.692-.004-1.491 1.153-2.702 2.583-2.706 1.43-.004 2.592 1.202 2.596 2.693.003 1.49-1.153 2.702-2.584 2.706zM37.491 3.161h-2.167a.152.152 0 00-.145.18l2.095 13.304c.17 1.079 1.548 1.331 2.061.378l4.048-7.522a.145.145 0 01.258 0l4.014 7.52c.51.955 1.888.707 2.062-.37l2.15-13.294a.152.152 0 00-.146-.18h-2.135a.15.15 0 00-.146.132l-1.227 8.766a.147.147 0 01-.274.057l-3.388-5.905a1.086 1.086 0 00-1.907.008l-3.38 5.991c-.07.125-.25.089-.273-.054l-1.354-8.88a.15.15 0 00-.146-.13z" fill="#fff"/><path fill-rule="evenodd" clip-rule="evenodd" d="M53.884 4.279v12.182c0 .638.496 1.152 1.109 1.151l9.283-.001c1.094 0 1.933-1.15 1.871-2.833v-2.032c0-1.035-.59-1.88-1.615-2.71a.162.162 0 01-.03-.216c.444-.65.586-1.02.671-1.573.009-.055.012-.111.012-.167V4.676c0-.818-.614-1.494-1.398-1.538l-.213-.012h-8.581c-.612 0-1.109.515-1.109 1.153zm2.26 10.676v-9.04c0-.085.066-.154.148-.154h6.629c.081 0 .148.069.148.154v1.537c0 .698-.546 1.692-1.732 1.692h-4.06a.151.151 0 00-.147.154v2.224c0 .085.066.154.148.154h5.79c.83 0 1.119.81 1.119 1.165v2.114a.15.15 0 01-.148.154h-7.747a.151.151 0 01-.148-.154z" fill="#fff"/></svg>