<svg width="99" height="107" fill="none" xmlns="http://www.w3.org/2000/svg"><g clip-path="url(#clip0_1490_7240)"><path d="M3.345 29.425L7.09 38.52h2.675L9.5 33.565l3 .435 1.5 2.5 8.264-2.935L23.5 35.5l3.385 6.765L25 45.5l-13 6 3.5 8 9.941-3.86 2.55 2.862 4.78.883 3.21-3.21L34 51.5l9-4-4-8.98-2.485.535-6.262-3.745 2.95-5.02L35 29l-3.835-11.88-27.82 12.305z" fill="#FFC234" stroke="#FFC234" stroke-width=".594"/><path d="M18.127 103.357l21.42-9.424-.294-3.445-4.95.061-1.316-2.512 4.322-.974-2.524-6.982 1.243-3.177 6.252-2.55 4.272 1.671 6.123 12.053 7.047-2.904-3.952-9.206 2.667-2.62 1.582-4.044-2.573-4.337-5.117 1.329-4.066-8.917-9.321 3.68.181 3.735-1.581 4.043-6.031.306-2.799-3.76L6.727 76.252l11.4 27.105z" fill="#fff"/><path d="M97.856 69l-2.97-7.73-3.266 1.325-.118 3.919-3.487.361-1.21-3.21-5.771 2.366-3.178-1.243-2.82-6.473 1.942-4.05 12.053-6.123-2.905-7.048-10.02 4.381L74.5 41.73l-5.35-1.07-3.23 2.71.556 5.85-8.56 4.28 3.745 8.56 4.928-.79 3.096 3.518.41 4.518-3.759 2.798 3.884 9.216L97.856 69z" fill="#FFE4A5"/><path d="M69.387 3.643l-7.714 3.011.312 3.444 4.95-.088 1.33 2.506-4.317.997 2.56 6.968-1.226 3.183-6.239 2.583-4.28-1.648-6.187-12.02-7.032 2.94 4 9.186-2.652 2.634-1.56 4.052 2.595 4.323 5.11-1.356 4.112 8.896 9.302-3.73-.2-3.733 1.56-4.052 6.029-.337 2.818 3.744 8.272-4.458L69.387 3.643z" fill="#fff"/><path fill-rule="evenodd" clip-rule="evenodd" d="M1.52 28.927c-.11.334 1.053 3.074 2.522 6.432l1.678 3.833-3.065 1.41c-1.484.65-1.786.952-1.533 1.532.328.749.445.724 4.017-.84l5.114-2.306.044-1.931c.024-1.062.099-2.096.165-2.297.269-.807 1.633-.837 1.98-.043.085.195.148.816.14 1.379-.013.84.041 1.075.304 1.312l.32.287 3.016-1.315c1.658-.724 3.305-1.37 3.658-1.435 1.09-.203 2.111.207 2.819 1.132l.28.366-3.034 1.328c-2.162.946-3.063 1.402-3.134 1.585-.159.408.214 1.08.616 1.112.21.017 1.546-.492 3.271-1.247l2.916-1.276.86 2.203-2.945 1.337c-1.867.848-2.99 1.43-3.07 1.588-.191.384.188 1.095.602 1.129.21.016 1.544-.492 3.267-1.246l2.912-1.275.085.453c.15.797-.013 1.552-.465 2.157-.366.492-2.246 1.604-3.38 2.103-1.473.648-1.762.961-1.48 1.606.261.597.567.576 2.227-.155 1.768-.778 3.995-2.263 4.503-3.49.624-1.507.574-1.773-1.07-5.674-1.633-3.873-1.922-4.325-3.202-5.008-.378-.202-1.13-.41-1.67-.461-.975-.093-1.013-.082-3.726 1.047-3.02 1.257-2.728 1.24-2.877.17-.082-.594-.915-1.44-1.734-1.762-.935-.369-1.889-.272-2.611.263-.88.653-1.153 1.402-1.19 3.27l-.033 1.719-1.41.623-3.912-8.94L29.719 18.13l2.718 6.104 1.748 3.886-1.062.53c-2.031 1.015-3.348 3.222-3.254 5.455.03.72.184 1.33.555 2.195.447 1.042.631 1.301 1.415 1.988 1.703 1.493 3.891 1.921 6.052 1.185l1.094-.373 3.38 7.722-4.438 1.942c-5.236 2.291-4.974 2.054-4.207 3.812.6 1.374.708 2.08.496 3.266-.332 1.857-2.143 3.304-4.121 3.294-1.901-.01-3.1-.89-3.995-2.928-.888-2.023-.52-2.04-5.815.277l-4.386 1.92-2.941-6.72 2.051-.899c1.398-.611 2.084-.98 2.152-1.155.148-.379-.126-.88-.56-1.026-.334-.113-.865.084-4.355 1.611-2.457 1.075-10.988 4.246-11.124 4.42-.249.317-.008 1.046.399 1.206.162.065 7.69-2.518 8.567-2.902l1.383-.605 1.719 3.927c1.25 2.856 1.789 3.955 1.975 4.029.189.074 1.436-.415 4.67-1.83l4.414-1.932.548.96c.793 1.39 1.65 2.198 2.94 2.774 4.79 2.14 9.655-2.423 7.857-7.37l-.417-1.146 4.43-1.94c3.83-1.675 4.448-1.984 4.561-2.275.114-.292-.15-.98-2.008-5.226-1.613-3.685-2.211-4.927-2.43-5.044-.215-.116-.66-.015-1.732.393-1.644.624-2.372.681-3.568.279-3.06-1.029-3.887-4.924-1.53-7.197.219-.21.97-.64 1.67-.953 1.036-.465 1.297-.642 1.4-.952.112-.338-.114-.929-2.009-5.26-2.048-4.68-3.123-7.102-3.534-7.264-.422-.166-.626-.082-14.604 6.036-13.545 5.927-14.182 6.22-14.302 6.584zM69.817 1.928c-.333-.11-1.468.35-4.823 1.819l-3.83 1.676-.556-1.27c-.647-1.48-.949-1.78-1.528-1.527-.748.327-.724.444.835 4.005l1.45 3.313 1.928.042c1.06.023 2.093.097 2.294.163.805.267.834 1.627.042 1.974-.196.085-.816.149-1.378.14-.84-.011-1.074.043-1.31.305l-.288.32 1.311 3.006c.722 1.653 1.365 3.295 1.43 3.647.202 1.088-.208 2.106-1.132 2.812l-.366.28-1.324-3.025c-.943-2.155-1.398-3.053-1.58-3.124-.408-.158-1.079.214-1.112.615-.017.21.49 1.541 1.243 3.261l1.272 2.907-2.201.86-1.333-2.936c-.845-1.861-1.425-2.98-1.583-3.06-.383-.19-1.094.188-1.128.6-.017.21.49 1.54 1.242 3.258l1.27 2.903-.452.085c-.796.15-1.55-.012-2.154-.462-.49-.365-1.405-2.193-1.902-3.324-.646-1.468-.959-1.756-1.603-1.474-.596.26-.575.566.153 2.22.776 1.763 2.062 3.937 3.286 4.442 1.505.622 1.771.572 5.668-1.071 3.87-1.632 4.321-1.92 5.005-3.197.202-.377.41-1.127.462-1.667.093-.971.082-1.01-1.043-3.714-1.253-3.01-1.236-2.72-.167-2.869.593-.083 1.438-.913 1.76-1.73.37-.934.274-1.884-.26-2.605-.651-.877-1.399-1.148-3.266-1.183l-1.715-.032-.621-1.406 7.328-3.207L80.579 30.04l-4.496 2.014-3.883 1.747-.529-1.06c-1.011-2.024-3.215-3.336-5.445-3.24-.718.03-1.327.185-2.192.556-1.042.446-1.3.63-1.987 1.412-1.492 1.7-1.922 3.882-1.188 6.036l.371 1.09-7.715 3.377-1.936-4.424c-2.284-5.22-2.047-4.959-3.804-4.191-1.373.6-2.078.707-3.262.497-1.854-.33-3.299-2.135-3.286-4.108.012-1.895.89-3.091 2.927-3.986 2.021-.887 2.039-.52-.272-5.799l-1.913-4.373 6.714-2.938.895 2.046c.61 1.393.977 2.077 1.152 2.145.378.146.879-.127 1.025-.56.113-.333-.083-.863-1.606-4.342-3-7.604-3.77-9.203-3.943-9.338C45.89 2.353 45.16 2.594 45 3c-.064.162.12.76.502 1.635l2.532 6.534-3.924 1.717c-2.853 1.249-3.952 1.788-4.025 1.974-.074.187.413 1.431 1.824 4.656l1.926 4.4-.96.547c-1.388.792-2.196 1.647-2.772 2.933-2.14 4.78 2.412 9.627 7.354 7.83l1.145-.417 1.933 4.417c1.67 3.817 1.979 4.434 2.27 4.547.291.113.979-.151 5.22-2.008 3.682-1.611 4.923-2.208 5.04-2.426.116-.215.016-.658-.39-1.728-.623-1.639-.68-2.364-.276-3.558 1.03-3.051 4.92-3.88 7.189-1.53.21.217.638.966.95 1.664.463 1.032.64 1.292.95 1.395.337.111.928-.114 5.254-2.008 4.676-2.046 5.495-2.419 5.656-2.828.167-.421.083-.625-6.016-14.56-5.91-13.503-6.201-14.138-6.565-14.258zM17.386 104.509c.333.11 15.493-6.488 18.848-7.956l3.83-1.676 3.463 7.912c.647 1.48.948 1.781 1.528 1.527.748-.327.724-.444-.835-4.005l-4.357-9.955-1.928-.043c-1.06-.023-2.093-.096-2.294-.163-.806-.266-.835-1.626-.042-1.973.195-.086.815-.149 1.378-.141.84.012 1.074-.043 1.31-.305l.288-.32-1.312-3.005c-.72-1.654-1.364-3.295-1.43-3.647-.201-1.088.209-2.106 1.133-2.813l.366-.28 1.324 3.026c.943 2.155 1.398 3.053 1.58 3.124.408.158 1.079-.214 1.111-.616.018-.21-.49-1.54-1.242-3.26l-1.273-2.907 2.202-.86 1.333 2.935c.845 1.862 1.424 2.981 1.583 3.06.383.191 1.094-.187 1.128-.6.017-.21-.49-1.54-1.242-3.257l-1.27-2.903.451-.085c.797-.15 1.55.011 2.155.462.49.365 1.596 3.321 2.093 4.452.646 1.469.959 1.757 1.603 1.475.597-.261.576-.566-.153-2.22-.775-1.763-2.253-5.066-3.477-5.572-1.506-.622-1.772-.571-5.668 1.072-3.87 1.631-4.321 1.92-5.005 3.197-.202.377-.41 1.126-.462 1.666-.094.972-.083 1.01 1.043 3.715 1.253 3.01 1.236 2.72.167 2.868-.593.083-1.438.914-1.761 1.73-.369.934-.273 1.885.26 2.605.652.877 1.4 1.148 3.266 1.183l1.716.032.621 1.406-21.353 9.345L6.624 76.396l18.52-8.152 3.883-1.746.53 1.059c1.01 2.025 3.215 3.336 5.444 3.24.719-.03 1.328-.184 2.193-.555 1.042-.446 1.3-.63 1.987-1.412 1.492-1.7 1.922-3.882 1.188-6.037l-.372-1.09 7.715-3.377 1.936 4.424c2.285 5.22 2.048 4.96 3.805 4.192 1.372-.6 2.078-.707 3.262-.497 1.854.33 3.298 2.135 3.286 4.107-.012 1.896-.89 3.092-2.927 3.986-2.022.888-2.039.52.271 5.8l1.914 4.372-6.714 2.939-.895-2.046c-.61-1.393-.977-2.077-1.152-2.145-.379-.147-.879.127-1.026.56-.112.333.084.862 1.606 4.342 1.072 2.448 7.102 15.821 7.274 15.956.318.249 1.046.008 1.207-.398.064-.162-.12-.76-.502-1.634l-5.863-13.153 3.924-1.718c2.853-1.248 3.951-1.787 4.025-1.973.074-.188-.413-1.432-1.825-4.656l-1.925-4.4.96-.547c1.387-.792 2.196-1.648 2.772-2.934 2.14-4.78-2.412-9.627-7.354-7.83l-1.145.417-1.933-4.416c-1.671-3.818-1.979-4.434-2.27-4.547-.292-.113-.979.15-5.22 2.007-3.683 1.611-4.923 2.209-5.04 2.427-.116.214-.016.657.39 1.727.623 1.64.679 2.365.276 3.558-1.03 3.052-4.92 3.88-7.19 1.531-.21-.217-.637-.966-.95-1.664-.463-1.033-.64-1.293-.949-1.395-.337-.112-.928.114-5.255 2.007-4.675 2.047-19.518 8.557-19.68 8.967-.166.42-.082.624 6.016 14.559 5.91 13.503 6.202 14.138 6.565 14.258z" fill="#000"/><path d="M64.161 47.7c-.892-2.612-.083-5.291 2.076-6.873.954-.698.888-.667 1.992-.925 2.881-.671 5.705.754 6.923 3.494l.281.633 4.452-1.949c4.432-1.94 4.454-1.947 4.83-1.717.316.194.638.83 2.028 4.005l1.652 3.775L95 45.424c.991-.434 1.377-.535 1.67-.436.47.159.615.467.451.962-.117.351-5.76 2.674-9.58 4.345 0 0-3.73 1.917-4.136 1.81-.633-.165-1.113-1.003-.567-1.54.169-.167 1.106-.652 2.082-1.08l1.774-.776-2.876-6.57-4.357 1.907c-3.262 1.427-4.438 1.886-4.675 1.823-.236-.062-.495-.44-1.008-1.471-.38-.764-.897-1.584-1.15-1.824-2.227-2.115-6.058-1.163-6.972 1.734-.362 1.143-.297 1.845.32 3.493.402 1.076.506 1.538.394 1.751-.115.217-1.249.769-4.51 2.197l-4.358 1.907 3.38 7.722.968-.317c1.909-.625 3.697-.439 5.275.548 3.838 2.401 3.618 8.219-.386 10.22l-1.054.526 3.45 7.882L95.45 68.72 92.511 62l-1.298.568-.061 1.691c-.034.93-.174 1.954-.313 2.276-.526 1.225-1.983 1.892-3.246 1.487-1.103-.354-1.524-.772-1.916-1.908l-.337-.976-2.492 1.09c-2.747 1.203-3.394 1.34-4.684.998-.409-.108-1.097-.469-1.53-.8l-.786-.603-1.502-3.303c-1.755-3.859-1.917-4.535-1.442-6.032.378-1.19 2.605-2.743 4.073-3.537 1.805-.977 2.759-.93 2.725.132-.014.463-.062.501-3.022 1.966-1.275.631-1.604.858-1.836 1.265-.379.663-.556 1.694-.366 2.127l.153.352 2.9-1.27c2.7-1.181 2.928-1.256 3.327-1.1.506.2.629.424.515.942-.077.353-.313.487-3.05 1.735l-2.965 1.353.907 2.073 2.9-1.269c2.7-1.182 2.928-1.257 3.327-1.1.515.203.659.48.484.932-.11.284-.599.542-3.094 1.634l-2.963 1.296.186.426c.245.56 1.132 1.112 1.948 1.21.597.073.944-.042 4.017-1.335 2.06-.866 3.464-1.386 3.621-1.34.382.11.494.494.5 1.706.006 1.275.33 1.784 1.098 1.728.932-.068 1.113-.48 1.209-2.74l.087-2.084 3.277-1.482C95.696 58.826 97.705 57.884 98 58c.455.18.561.472.36.99-.14.36-.365.515-1.423.978l-2.777 1.31 1.66 3.914c1.559 3.674 1.649 3.936 1.465 4.253-.166.286-2.36 1.285-14.302 6.511-9.44 4.131-14.224 6.164-14.462 6.145-.34-.028-.447-.24-2.605-5.17-2.076-4.745-2.235-5.161-2.05-5.393.11-.138.823-.558 1.584-.934 1.63-.803 2.195-1.397 2.599-2.737.666-2.206-.458-4.417-2.665-5.241-1.116-.417-1.89-.367-3.546.227-.78.28-1.53.479-1.668.443-.353-.093-4.699-10.004-4.552-10.382.073-.188 1.278-.773 4.51-2.187l4.409-1.93-.376-1.097z" fill="#000"/><path clip-rule="evenodd" d="M1.52 28.927c-.11.334 1.053 3.074 2.522 6.432l1.678 3.833-3.065 1.41c-1.484.65-1.786.952-1.533 1.532.328.749.445.724 4.017-.84l5.114-2.306.044-1.931c.024-1.062.099-2.096.165-2.297.269-.807 1.633-.837 1.98-.043.085.195.148.816.14 1.379-.013.84.041 1.075.304 1.312l.32.287 3.016-1.315c1.658-.724 3.305-1.37 3.658-1.435 1.09-.203 2.111.207 2.819 1.132l.28.366-3.034 1.328c-2.162.946-3.063 1.402-3.134 1.585-.159.408.214 1.08.616 1.112.21.017 1.546-.492 3.271-1.247l2.916-1.276.86 2.203-2.945 1.337c-1.867.848-2.99 1.43-3.07 1.588-.191.384.188 1.095.602 1.129.21.016 1.544-.492 3.267-1.246l2.912-1.275.085.453c.15.797-.013 1.552-.465 2.157-.366.492-2.246 1.604-3.38 2.103-1.473.648-1.762.961-1.48 1.606.261.597.567.576 2.227-.155 1.768-.778 3.995-2.263 4.503-3.49.624-1.507.574-1.773-1.07-5.674-1.633-3.873-1.922-4.325-3.202-5.008-.378-.202-1.13-.41-1.67-.461-.975-.093-1.013-.082-3.726 1.047-3.02 1.257-2.728 1.24-2.877.17-.082-.594-.915-1.44-1.734-1.762-.935-.369-1.889-.272-2.611.263-.88.653-1.153 1.402-1.19 3.27l-.033 1.719-1.41.623-3.912-8.94L29.719 18.13l2.718 6.104 1.748 3.886-1.062.53c-2.031 1.015-3.348 3.222-3.254 5.455.03.72.184 1.33.555 2.195.447 1.042.631 1.301 1.415 1.988 1.703 1.493 3.891 1.921 6.052 1.185l1.094-.373 3.38 7.722-4.438 1.942c-5.236 2.291-4.974 2.054-4.207 3.812.6 1.374.708 2.08.496 3.266-.332 1.857-2.143 3.304-4.121 3.294-1.901-.01-3.1-.89-3.995-2.928-.888-2.023-.52-2.04-5.815.277l-4.386 1.92-2.941-6.72 2.051-.899c1.398-.611 2.084-.98 2.152-1.155.148-.379-.126-.88-.56-1.026-.334-.113-.865.084-4.355 1.611-2.457 1.075-10.988 4.246-11.124 4.42-.249.317-.008 1.046.399 1.206.162.065 7.69-2.518 8.567-2.902l1.383-.605 1.719 3.927c1.25 2.856 1.789 3.955 1.975 4.029.189.074 1.436-.415 4.67-1.83l4.414-1.932.548.96c.793 1.39 1.65 2.198 2.94 2.774 4.79 2.14 9.655-2.423 7.857-7.37l-.417-1.146 4.43-1.94c3.83-1.675 4.448-1.984 4.561-2.275.114-.292-.15-.98-2.008-5.226-1.613-3.685-2.211-4.927-2.43-5.044-.215-.116-.66-.015-1.732.393-1.644.624-2.372.681-3.568.279-3.06-1.029-3.887-4.924-1.53-7.197.219-.21.97-.64 1.67-.953 1.036-.465 1.297-.642 1.4-.952.112-.338-.114-.929-2.009-5.26-2.048-4.68-3.123-7.102-3.534-7.264-.422-.166-.626-.082-14.604 6.036-13.545 5.927-14.182 6.22-14.302 6.584zM69.817 1.928c-.333-.11-1.468.35-4.823 1.819l-3.83 1.676-.556-1.27c-.647-1.48-.949-1.78-1.528-1.527-.748.327-.724.444.835 4.005l1.45 3.313 1.928.042c1.06.023 2.093.097 2.294.163.805.267.834 1.627.042 1.974-.196.085-.816.149-1.378.14-.84-.011-1.074.043-1.31.305l-.288.32 1.311 3.006c.722 1.653 1.365 3.295 1.43 3.647.202 1.088-.208 2.106-1.132 2.812l-.366.28-1.324-3.025c-.943-2.155-1.398-3.053-1.58-3.124-.408-.158-1.079.214-1.112.615-.017.21.49 1.541 1.243 3.261l1.272 2.907-2.201.86-1.333-2.936c-.845-1.861-1.425-2.98-1.583-3.06-.383-.19-1.094.188-1.128.6-.017.21.49 1.54 1.242 3.258l1.27 2.903-.452.085c-.796.15-1.55-.012-2.154-.462-.49-.365-1.405-2.193-1.902-3.324-.646-1.468-.959-1.756-1.603-1.474-.596.26-.575.566.153 2.22.776 1.763 2.062 3.937 3.286 4.442 1.505.622 1.771.572 5.668-1.071 3.87-1.632 4.321-1.92 5.005-3.197.202-.377.41-1.127.462-1.667.093-.971.082-1.01-1.043-3.714-1.253-3.01-1.236-2.72-.167-2.869.593-.083 1.438-.913 1.76-1.73.37-.934.274-1.884-.26-2.605-.651-.877-1.399-1.148-3.266-1.183l-1.715-.032-.621-1.406 7.328-3.207L80.579 30.04l-4.496 2.014-3.883 1.747-.529-1.06c-1.011-2.024-3.215-3.336-5.445-3.24-.718.03-1.327.185-2.192.556-1.042.446-1.3.63-1.987 1.412-1.492 1.7-1.922 3.882-1.188 6.036l.371 1.09-7.715 3.377-1.936-4.424c-2.284-5.22-2.047-4.959-3.804-4.191-1.373.6-2.078.707-3.262.497-1.854-.33-3.299-2.135-3.286-4.108.012-1.895.89-3.091 2.927-3.986 2.021-.887 2.039-.52-.272-5.799l-1.913-4.373 6.714-2.938.895 2.046c.61 1.393.977 2.077 1.152 2.145.378.146.879-.127 1.025-.56.113-.333-.083-.863-1.606-4.342-3-7.604-3.77-9.203-3.943-9.338C45.89 2.353 45.16 2.594 45 3c-.064.162.12.76.502 1.635l2.532 6.534-3.924 1.717c-2.853 1.249-3.952 1.788-4.025 1.974-.074.187.413 1.431 1.824 4.656l1.926 4.4-.96.547c-1.388.792-2.196 1.647-2.772 2.933-2.14 4.78 2.412 9.627 7.354 7.83l1.145-.417 1.933 4.417c1.67 3.817 1.979 4.434 2.27 4.547.291.113.979-.151 5.22-2.008 3.682-1.611 4.923-2.208 5.04-2.426.116-.215.016-.658-.39-1.728-.623-1.639-.68-2.364-.276-3.558 1.03-3.051 4.92-3.88 7.189-1.53.21.217.638.966.95 1.664.463 1.032.64 1.292.95 1.395.337.111.928-.114 5.254-2.008 4.676-2.046 5.495-2.419 5.656-2.828.167-.421.083-.625-6.016-14.56-5.91-13.503-6.201-14.138-6.565-14.258zM17.386 104.509c.333.11 15.493-6.488 18.848-7.956l3.83-1.676 3.463 7.912c.647 1.48.948 1.781 1.528 1.527.748-.327.724-.444-.835-4.005l-4.357-9.955-1.928-.043c-1.06-.023-2.093-.096-2.294-.163-.806-.266-.835-1.626-.042-1.973.195-.086.815-.149 1.378-.141.84.012 1.074-.043 1.31-.305l.288-.32-1.312-3.005c-.72-1.654-1.364-3.295-1.43-3.647-.201-1.088.209-2.106 1.133-2.813l.366-.28 1.324 3.026c.943 2.155 1.398 3.053 1.58 3.124.408.158 1.079-.214 1.111-.616.018-.21-.49-1.54-1.242-3.26l-1.273-2.907 2.202-.86 1.333 2.935c.845 1.862 1.424 2.981 1.583 3.06.383.191 1.094-.187 1.128-.6.017-.21-.49-1.54-1.242-3.257l-1.27-2.903.451-.085c.797-.15 1.55.011 2.155.462.49.365 1.596 3.321 2.093 4.452.646 1.469.959 1.757 1.603 1.475.597-.261.576-.566-.153-2.22-.775-1.763-2.253-5.066-3.477-5.572-1.506-.622-1.772-.571-5.668 1.072-3.87 1.631-4.321 1.92-5.005 3.197-.202.377-.41 1.126-.462 1.666-.094.972-.083 1.01 1.043 3.715 1.253 3.01 1.236 2.72.167 2.868-.593.083-1.438.914-1.761 1.73-.369.934-.273 1.885.26 2.605.652.877 1.4 1.148 3.266 1.183l1.716.032.621 1.406-21.353 9.345L6.624 76.396l18.52-8.152 3.883-1.746.53 1.059c1.01 2.025 3.215 3.336 5.444 3.24.719-.03 1.328-.184 2.193-.555 1.042-.446 1.3-.63 1.987-1.412 1.492-1.7 1.922-3.882 1.188-6.037l-.372-1.09 7.715-3.377 1.936 4.424c2.285 5.22 2.048 4.96 3.805 4.192 1.372-.6 2.078-.707 3.262-.497 1.854.33 3.298 2.135 3.286 4.107-.012 1.896-.89 3.092-2.927 3.986-2.022.888-2.039.52.271 5.8l1.914 4.372-6.714 2.939-.895-2.046c-.61-1.393-.977-2.077-1.152-2.145-.379-.147-.879.127-1.026.56-.112.333.084.862 1.606 4.342 1.072 2.448 7.102 15.821 7.274 15.956.318.249 1.046.008 1.207-.398.064-.162-.12-.76-.502-1.634l-5.863-13.153 3.924-1.718c2.853-1.248 3.951-1.787 4.025-1.973.074-.188-.413-1.432-1.825-4.656l-1.925-4.4.96-.547c1.387-.792 2.196-1.648 2.772-2.934 2.14-4.78-2.412-9.627-7.354-7.83l-1.145.417-1.933-4.416c-1.671-3.818-1.979-4.434-2.27-4.547-.292-.113-.979.15-5.22 2.007-3.683 1.611-4.923 2.209-5.04 2.427-.116.214-.016.657.39 1.727.623 1.64.679 2.365.276 3.558-1.03 3.052-4.92 3.88-7.19 1.531-.21-.217-.637-.966-.95-1.664-.463-1.033-.64-1.293-.949-1.395-.337-.112-.928.114-5.255 2.007-4.675 2.047-19.518 8.557-19.68 8.967-.166.42-.082.624 6.016 14.559 5.91 13.503 6.202 14.138 6.565 14.258z" stroke="#000" stroke-width="1.5"/><path d="M64.161 47.7c-.892-2.612-.083-5.291 2.076-6.873.954-.698.888-.667 1.992-.925 2.881-.671 5.705.754 6.923 3.494l.281.633 4.452-1.949c4.432-1.94 4.454-1.947 4.83-1.717.316.194.638.83 2.028 4.005l1.652 3.775L95 45.424c.991-.434 1.377-.535 1.67-.436.47.159.615.467.451.962-.117.351-5.76 2.674-9.58 4.345 0 0-3.73 1.917-4.136 1.81-.633-.165-1.113-1.003-.567-1.54.169-.167 1.106-.652 2.082-1.08l1.774-.776-2.876-6.57-4.357 1.907c-3.262 1.427-4.438 1.886-4.675 1.823-.236-.062-.495-.44-1.008-1.471-.38-.764-.897-1.584-1.15-1.824-2.227-2.115-6.058-1.163-6.972 1.734-.362 1.143-.297 1.845.32 3.493.402 1.076.506 1.538.394 1.751-.115.217-1.249.769-4.51 2.197l-4.358 1.907 3.38 7.722.968-.317c1.909-.625 3.697-.439 5.275.548 3.838 2.401 3.618 8.219-.386 10.22l-1.054.526 3.45 7.882L95.45 68.72 92.511 62l-1.298.568-.061 1.691c-.034.93-.174 1.954-.313 2.276-.526 1.225-1.983 1.892-3.246 1.487-1.103-.354-1.524-.772-1.916-1.908l-.337-.976-2.492 1.09c-2.747 1.203-3.394 1.34-4.684.998-.409-.108-1.097-.469-1.53-.8l-.786-.603-1.502-3.303c-1.755-3.859-1.917-4.535-1.442-6.032.378-1.19 2.605-2.743 4.073-3.537 1.805-.977 2.759-.93 2.725.132-.014.463-.062.501-3.022 1.966-1.275.631-1.604.858-1.836 1.265-.379.663-.556 1.694-.366 2.127l.153.352 2.9-1.27c2.7-1.181 2.928-1.256 3.327-1.1.506.2.629.424.515.942-.077.353-.313.487-3.05 1.735l-2.965 1.353.907 2.073 2.9-1.269c2.7-1.182 2.928-1.257 3.327-1.1.515.203.659.48.484.932-.11.284-.599.542-3.094 1.634l-2.963 1.296.186.426c.245.56 1.132 1.112 1.948 1.21.597.073.944-.042 4.017-1.335 2.06-.866 3.464-1.386 3.621-1.34.382.11.494.494.5 1.706.006 1.275.33 1.784 1.098 1.728.932-.068 1.113-.48 1.209-2.74l.087-2.084 3.277-1.482C95.696 58.826 97.705 57.884 98 58c.455.18.561.472.36.99-.14.36-.365.515-1.423.978l-2.777 1.31 1.66 3.914c1.559 3.674 1.649 3.936 1.465 4.253-.166.286-2.36 1.285-14.302 6.511-9.44 4.131-14.224 6.164-14.462 6.145-.34-.028-.447-.24-2.605-5.17-2.076-4.745-2.235-5.161-2.05-5.393.11-.138.823-.558 1.584-.934 1.63-.803 2.195-1.397 2.599-2.737.666-2.206-.458-4.417-2.665-5.241-1.116-.417-1.89-.367-3.546.227-.78.28-1.53.479-1.668.443-.353-.093-4.699-10.004-4.552-10.382.073-.188 1.278-.773 4.51-2.187l4.409-1.93-.376-1.097z" stroke="#000" stroke-width="1.5"/><path fill-rule="evenodd" clip-rule="evenodd" d="M28.744 4.696c-4.862 2.12-9.021 4.01-9.241 4.2-1.368 1.181-.481 3.21 1.314 3.006.29-.033 4.5-1.807 9.355-3.943L39 4.076l.27-.69c.381-.974-.02-1.894-.995-2.274l-.69-.27-8.84 3.854zm-14.238 6.482c-.597.016-1.409.56-1.612 1.08-.11.279-.077.737.083 1.167.546 1.468 2.499 1.495 3.067.042.42-1.073-.417-2.319-1.538-2.289zm71.48 77.405c-4.863 2.12-9.022 4.01-9.242 4.2-1.368 1.182-.48 3.21 1.315 3.007.29-.033 4.499-1.808 9.354-3.943l8.828-3.883.27-.69c.382-.975-.02-1.894-.994-2.275l-.69-.27-8.841 3.854zm-14.239 6.483c-.596.016-1.408.56-1.612 1.079-.109.28-.076.738.084 1.167.546 1.468 2.498 1.496 3.066.043.42-1.074-.417-2.32-1.538-2.29zM87.597 20.3c-.596.015-1.408.56-1.611 1.079-.11.28-.077.738.083 1.167.546 1.468 2.498 1.495 3.066.043.42-1.073-.417-2.32-1.538-2.29z" fill="#FFC234"/></g><defs><clipPath id="clip0_1490_7240"><path fill="#fff" d="M0 0h99v107H0z"/></clipPath></defs></svg>