<svg width="40" height="40" fill="none" xmlns="http://www.w3.org/2000/svg"><rect width="40" height="40" rx="5" fill="#fff"/><path d="M21.913 20.064L10.843 7.985a.996.996 0 00-.673.945v22.194c0 .45.286.803.657.94l11.086-12z" fill="#5DCCF0"/><path d="M25.265 24.093L10.823 7.979a.938.938 0 01.749.082l19.53 11.006c.668.377.668 1.36 0 1.737l-5.837 3.289z" fill="#80C682"/><path d="M31.257 20.856a1 1 0 000-1.751l-5.705-3.136-14.743 16.095a1.01 1.01 0 00.312-.11l20.136-11.098z" fill="#ED596C"/><path d="M25.276 24.13l-3.545-3.968 3.849-4.186 5.724 3.079a1 1 0 01.008 1.757l-6.036 3.317z" fill="#F8D733"/></svg>