<svg width="99" height="107" fill="none" xmlns="http://www.w3.org/2000/svg"><g clip-path="url(#clip0_1490_7255)"><path d="M3.442 44.311l5.682-2.445M4.036 13.907L19.188 7.39m55.034 24.746L94.69 23.33M2.722 92.893l8.78-4.66m-17.53-59.085l-.546.235m74.852 5.115l-.546.234M57.578 66.543l10.375-4.464m-49.608-8.614L28.72 49m24.102 47.787L76.85 86.45m-.844-27.708l18.387-7.91M83.139 83.837l-.546.235M28.45 98.104l-.546.235M76.006 7.75l-.547.235M26.667 4.182l-.546.235m-7.776 80.61l-.546.234" stroke="#FFC234" stroke-width="3.567" stroke-linecap="round"/><circle cx="49.373" cy="51.717" r="31.208" fill="#FFE4A5"/><path d="M74.909 69.659a31.208 31.208 0 10-9.768 8.99" stroke="#000" stroke-width="4" stroke-linecap="round"/><path fill-rule="evenodd" clip-rule="evenodd" d="M36.284 37.813c-.42.108-1.252.483-1.85.834-3.334 1.958-4.424 6.664-1.852 7.997 1.848.958 3.418-.07 3.97-2.6.305-1.396 2.134-1.385 2.439.016.406 1.868 1.396 2.947 2.706 2.95 1.455.002 2.698-1.363 2.698-2.962 0-3.848-4.355-7.195-8.111-6.235zm23.101.123c-2.673.873-4.608 3.335-4.666 5.94-.044 1.957 1.22 3.277 2.9 3.032 1.076-.158 1.898-.963 2.22-2.175.143-.54.43-1.172.637-1.404.803-.902 1.752-.297 2.204 1.404.374 1.408 1.258 2.157 2.549 2.157 1.854 0 2.877-1.48 2.529-3.659-.25-1.571-.721-2.483-1.861-3.606-1.706-1.681-4.399-2.38-6.512-1.69zm-22.76 18.75c-.626.366-1.144 1.526-1.144 2.56 0 .81.179 1.085 1.582 2.43 1.88 1.801 5.556 3.726 8.185 4.284 2.15.456 6.262.456 8.413 0 2.628-.558 6.305-2.482 8.184-4.284 1.404-1.345 1.583-1.62 1.583-2.43 0-1.068-.534-2.219-1.192-2.572-.255-.136-.898-.248-1.429-.248-.81 0-1.18.188-2.302 1.172-2.673 2.344-5.511 3.415-9.05 3.415-3.54 0-6.378-1.07-9.051-3.415-1.15-1.008-1.479-1.171-2.347-1.165-.556.004-1.2.118-1.432.254z" fill="#000"/><path d="M56.732 23.113c.532-2.582 2.295-4.453 4.748-5.04 1.34-.32 1.825-.32 3.02.002 1.357.365 2.048.737 3.103 1.668l.89.786.763-.672c1.937-1.705 3.847-2.309 5.934-1.878 2.257.467 4.356 2.338 4.927 4.395.335 1.209.614 3.05-.415 4.44-.551 1.058-9.668 10.108-10.565 10.487-.41.174-.754.194-1.107.067-.607-.22-9.438-8.72-10.289-9.904-.88-1.224-1.29-2.992-1.01-4.351z" fill="#fff" stroke="#000" stroke-width="4.161"/><path d="M9.185 76.499C9.77 73.682 11.71 71.64 14.408 71c1.473-.35 2.007-.35 3.321.001 1.493.399 2.254.804 3.414 1.82l.978.857.84-.733c2.132-1.859 4.232-2.518 6.528-2.048 2.483.51 4.79 2.55 5.42 4.794.369 1.32.675 3.328-.457 4.844-.606 1.155-10.635 11.027-11.621 11.44-.452.19-.83.213-1.218.073-.668-.24-10.382-9.512-11.318-10.804-.967-1.335-1.418-3.264-1.11-4.746z" fill="#FFC234" stroke="#000" stroke-width="4.161"/></g><defs><clipPath id="clip0_1490_7255"><path fill="#fff" d="M0 0h99v107H0z"/></clipPath></defs></svg>