<svg width="50" height="51" fill="none" xmlns="http://www.w3.org/2000/svg"><circle cx="25" cy="25.415" r="25" fill="#48C95F"/><path d="M33.862 16.735A12.717 12.717 0 0024.849 13c-7.049 0-12.76 5.691-12.76 12.716 0 2.223.625 4.446 1.696 6.313L12 38.61l6.782-1.778c1.874.978 3.926 1.512 6.067 1.512 7.05 0 12.76-5.691 12.76-12.716-.089-3.29-1.338-6.491-3.747-8.892zM31.006 30.25c-.267.711-1.516 1.423-2.141 1.512a5.006 5.006 0 01-1.963-.09c-.446-.177-1.07-.355-1.785-.71-3.212-1.334-5.265-4.536-5.443-4.802-.178-.178-1.338-1.69-1.338-3.29 0-1.601.803-2.313 1.07-2.668.268-.356.625-.356.893-.356h.624c.179 0 .446-.089.714.534.268.622.892 2.223.982 2.312a.565.565 0 010 .533c-.09.178-.179.356-.357.534-.179.177-.357.444-.446.533-.179.178-.357.356-.179.623.179.355.803 1.334 1.785 2.223 1.249 1.067 2.23 1.422 2.587 1.6.357.178.536.09.714-.089.179-.177.803-.889.982-1.244.178-.356.446-.267.714-.178.267.089 1.874.889 2.141 1.067.357.178.536.266.625.355.09.267.09.89-.178 1.601z" fill="#fff"/></svg>