<svg width="50" height="50" fill="none" xmlns="http://www.w3.org/2000/svg"><circle cx="25" cy="25" r="25" fill="#7C509A"/><path d="M31.822 11.666a37.788 37.788 0 00-14.123 0c-2.056.444-4.649 2.929-5.096 4.882a27.889 27.889 0 000 11.54c.537 1.952 3.129 4.438 5.095 4.882.09 0 .18.089.18.177v5.593c0 .266.357.443.536.177l2.681-2.752s2.146-2.219 2.503-2.574c0 0 .09-.089.179-.089 2.682.09 5.453-.177 8.134-.621 2.056-.444 4.648-2.93 5.095-4.882a27.89 27.89 0 000-11.54c-.536-1.864-3.128-4.35-5.184-4.793zm.09 16.688c-.448.887-.984 1.598-1.878 2.041l-.804.267c-.358-.089-.626-.178-.894-.267-2.86-1.154-5.542-2.751-7.688-5.06-1.162-1.33-2.145-2.84-2.95-4.438-.357-.798-.715-1.509-.983-2.307-.268-.71.179-1.42.626-1.953.447-.533.983-.888 1.609-1.154.447-.267.894-.09 1.251.266.715.888 1.43 1.775 1.967 2.752.358.621.268 1.331-.358 1.775-.178.089-.268.178-.447.355-.089.089-.268.178-.357.355-.179.267-.179.533-.09.8.716 2.04 2.056 3.638 4.112 4.526.358.178.626.266 1.073.266.626-.088.894-.798 1.34-1.154.448-.354.984-.354 1.52-.088.447.266.894.621 1.43.976.448.355.895.622 1.342.977.268.177.357.621.178 1.065zm-3.755-6.658c-.179 0-.09 0 0 0-.358 0-.447-.177-.536-.444 0-.177 0-.443-.09-.62-.09-.356-.268-.711-.625-.977l-.537-.267c-.268-.088-.447-.088-.715-.088-.268-.09-.357-.267-.357-.533 0-.177.268-.355.447-.355 1.43.089 2.502.888 2.681 2.574v.355c0 .178-.09.355-.268.355zm-.894-3.905c-.447-.178-.894-.355-1.43-.444-.179 0-.447-.089-.626-.089-.268 0-.447-.177-.357-.444 0-.266.178-.444.447-.355.893.089 1.698.266 2.502.622 1.61.798 2.503 2.13 2.771 3.905v1.154c-.089.355-.715.444-.804 0 0-.089-.09-.266-.09-.355 0-.799-.178-1.598-.536-2.308-.536-.799-1.162-1.331-1.877-1.686zm4.827 5.326c-.268 0-.447-.267-.447-.533 0-.533-.09-1.065-.179-1.598-.357-2.84-2.681-5.148-5.452-5.592-.447-.089-.894-.089-1.252-.178-.268 0-.626 0-.715-.355-.09-.266.179-.532.447-.532h.179c3.665.088.179 0 0 0 3.754.088 6.883 2.574 7.508 6.302.09.622.18 1.243.18 1.953.178.266 0 .533-.269.533z" fill="#fff"/></svg>