<svg width="99" height="107" fill="none" xmlns="http://www.w3.org/2000/svg"><g clip-path="url(#clip0_1490_7238)"><path d="M10.246 10.514L28.177 3.21m60.908 12.678l7.365-3m-60.975 3L66.012 3.449M58.811 104.86l25.382-10.339M3.94 12.888l-.58.236m79.419 5.138l-.58.236M71.425 50.45l11.008-4.484m-52.635-8.653l11.008-4.484m22.376 48.965L88.674 71.41M40.52 63.515L66.012 53.13m24.965-10.516l5.473-2.229m-1.102 28.4l-.58.236M13.4 81.558l-.58.236" stroke="#FFC234" stroke-width="3.567" stroke-linecap="round"/><path d="M32.281 48.15c.582-1.139 2.21-1.139 2.791 0l7.225 14.158a5.566 5.566 0 004.084 2.967l15.696 2.496c1.264.201 1.767 1.75.863 2.655L51.708 81.67a5.567 5.567 0 00-1.56 4.801l2.477 15.7c.199 1.264-1.118 2.221-2.258 1.641L36.2 96.606a5.567 5.567 0 00-5.049 0l-14.166 7.207c-1.14.58-2.457-.377-2.258-1.641l2.477-15.7a5.567 5.567 0 00-1.56-4.8L4.413 70.425c-.904-.905-.4-2.454.863-2.655l15.696-2.496a5.567 5.567 0 004.084-2.967l7.225-14.157z" fill="#FFC234" stroke="#000" stroke-width="4"/><path d="M82.616 83.72c.662-1.298 2.515-1.298 3.177 0l1.166 2.284a5.35 5.35 0 003.925 2.852l2.534.403c1.438.228 2.01 1.99.981 3.021l-1.812 1.815a5.35 5.35 0 00-1.5 4.614l.4 2.534c.227 1.438-1.272 2.528-2.57 1.868l-2.287-1.164a5.353 5.353 0 00-4.851 0l-2.286 1.164c-1.298.66-2.797-.43-2.57-1.868l.399-2.534a5.35 5.35 0 00-1.5-4.614L74.01 92.28c-1.029-1.03-.456-2.793.982-3.021l2.533-.403a5.35 5.35 0 003.925-2.852l1.166-2.285z" fill="#FFE4A5" stroke="#000" stroke-width="3.567"/><path d="M64.486 21.302c.662-1.296 2.515-1.296 3.177 0l.542 1.063a5.35 5.35 0 003.925 2.852l1.178.187c1.438.229 2.011 1.991.982 3.022l-.843.844a5.35 5.35 0 00-1.5 4.614l.187 1.179c.227 1.438-1.273 2.527-2.57 1.867l-1.064-.541a5.35 5.35 0 00-4.851 0l.808 1.59-.808-1.59-1.064.541c-1.298.66-2.797-.429-2.57-1.867l.186-1.179a5.35 5.35 0 00-1.5-4.614l-.843-.844c-1.028-1.03-.456-2.793.982-3.022l1.178-.187a5.35 5.35 0 003.925-2.852l.543-1.063z" fill="#000" stroke="#000" stroke-width="3.567"/><path d="M14.448 21.401c.581-1.14 2.21-1.14 2.79 0l1.88 3.682a5.567 5.567 0 004.084 2.967l4.081.649c1.264.2 1.767 1.75.863 2.654l-2.92 2.925a5.567 5.567 0 00-1.56 4.8l.643 4.084c.2 1.263-1.118 2.22-2.258 1.64l-3.684-1.874a5.567 5.567 0 00-5.048 0l-3.684 1.874c-1.14.58-2.457-.377-2.258-1.64l.644-4.083a5.567 5.567 0 00-1.56-4.801l-2.92-2.925c-.904-.905-.401-2.453.862-2.654l4.082-.65a5.566 5.566 0 004.084-2.966l1.879-3.682z" fill="#fff" stroke="#000" stroke-width="4"/><path d="M84.268 52.454c.593-1.161 2.253-1.161 2.845 0a4.597 4.597 0 003.373 2.45c1.288.205 1.8 1.784.88 2.706a4.597 4.597 0 00-1.289 3.965c.203 1.288-1.14 2.264-2.302 1.673a4.597 4.597 0 00-4.169 0c-1.162.59-2.505-.385-2.301-1.673a4.597 4.597 0 00-1.289-3.965c-.921-.922-.408-2.5.88-2.706a4.597 4.597 0 003.372-2.45z" fill="#fff" stroke="#000" stroke-width="3"/><path d="M29.635 69.907c-.446-1.249-1.516-2.14-2.943-2.14s-2.497.802-2.942 2.14c-.179.535-.179.802-.179 2.764 0 1.961.09 2.318.179 2.764.445 1.248 1.515 2.14 2.942 2.14 1.427 0 2.497-.803 2.943-2.14.178-.535.178-.803.178-2.764 0-1.962-.09-2.319-.178-2.764zM27.94 74.9c-.178.624-.624.892-1.248.892s-1.07-.357-1.248-.892c-.09-.268-.09-.535-.09-2.14 0-1.694.09-1.962.09-2.23.178-.623.624-.89 1.248-.89s1.07.356 1.248.89c.09.268.09.536.09 2.23 0 1.605-.09 1.872-.09 2.14zm12.692 5.707c-.446-1.249-1.516-2.14-2.943-2.14-1.426 0-2.496.802-2.942 2.14-.178.535-.178.802-.178 2.764 0 1.961.089 2.318.178 2.764.446 1.248 1.516 2.14 2.942 2.14 1.427 0 2.497-.803 2.943-2.14.178-.535.178-.803.178-2.764 0-1.962-.089-2.319-.178-2.764zM38.938 85.6c-.179.624-.625.892-1.249.892-.624 0-1.07-.357-1.248-.892-.09-.268-.09-.535-.09-2.14 0-1.694.09-1.962.09-2.23.178-.623.624-.89 1.248-.89s1.07.356 1.249.89c.089.268.089.536.089 2.23 0 1.605-.09 1.872-.09 2.14zM36.56 68.629c.09-.179.178-.268.446-.268h1.248c.178 0 .178.178.178.267L27.822 87.71c-.09.178-.179.268-.357.268h-1.248c-.179 0-.268-.179-.179-.268L36.56 68.63z" fill="#000" stroke="#000" stroke-width="1.783"/></g><defs><clipPath id="clip0_1490_7238"><path fill="#fff" d="M0 0h99v107H0z"/></clipPath></defs></svg>