<svg width="99" height="107" fill="none" xmlns="http://www.w3.org/2000/svg"><path d="M23.118 32.356L2.872 41.064m16.983-23.777L53.096 2.972m13.126 41.053l23.926-10.296M13.91 19.617l-.546.238M66.816 65.93l10.361-4.447m-12.75 34.71l24.045-10.337m-71.928 5.35L4.524 96.37m80.72-38.222l8.964-3.858m.547 28.955l-.547.232m-71.38 4.5l-.548.232m-6.426-28.765L3.841 64.591m18.303-8.375l-.541.238M43.639 23.1l-12.014 5.172m25.192 70.507l-12.013 5.172m26.013-26.417l-12.014 5.165M74.936 9.172L62.91 14.338m-12.982 5.558l-.547.232" stroke="#FCC138" stroke-width="3.567" stroke-linecap="round"/><path d="M25.014 43.466l-9.19 2.116a41.753 41.753 0 004.714 11.699c3.703 6.438 7.204 9.1 7.204 9.1l4.637 3.787s7.995-7.086 9.725-9.838c4.161-6.735 6.474-12.875 11.479-19.242l5.582-8.84s-7.074.375-10.314 1.231c-3.24.856-5.469 1.225-11.342 5.44-5.873 4.214-8.584 3.144-12.495 4.547z" fill="#FCC138" stroke="#010101" stroke-width="3.567"/><path d="M68.277 32.605a5.35 5.35 0 100-10.7 5.35 5.35 0 000 10.7z" fill="#FFE5A7"/><path d="M58.107 56.627c-3.014-1.742-9.178-5.35-9.725-5.873l9.41-17.24 4.108.292 5.35.38c.998.066 2.02.084 3.013.227.595.089 1.19.362 1.784.451 1.516.22 3.251-1.07 4.47-1.825 1.581-.986 3.08-2.092 4.642-3.103 2.378-1.551 5.018-2.912 7.86-3.103a3.407 3.407 0 012.18.434c.833.595 1.106 1.695 1.083 2.705.001.437-.071.871-.214 1.284a5.41 5.41 0 01-1.938 2.194 92.713 92.713 0 01-6.961 4.898c-3.626 2.312-7.58 4.428-11.89 4.684-1.432.083-3.423-.125-4.606.874-.75.63-1.284 1.783-1.837 2.627l-6.73 10.094z" fill="#fff"/><path fill-rule="evenodd" clip-rule="evenodd" d="M77.468 34.514c0-.022.024-.044.05-.067a.31.31 0 00.045-.046c.18-.251.283-.548.297-.856a1.979 1.979 0 00-.208-.975.666.666 0 00-.244-.327.943.943 0 00-.362-.101 3.964 3.964 0 00-.993 0 1.13 1.13 0 00-.244.06 2.017 2.017 0 00-.196.124 3.667 3.667 0 01-.749.41c-.123.058-.256.09-.392.095-.244 0-.476-.071-.547-.32a1.713 1.713 0 010-.738c.074-.475.222-.925.37-1.376.079-.237.157-.475.224-.716.88-3.383.595-4.756-.594-6.54-.993-1.444-1.783-2.199-4.256-2.734-2.473-.535-4.851-.13-6.182 1.278-.981 1.04-2.557 6.13-2.681 8.774-.011.239-.011.42-.011.557 0 .235 0 .343-.054.396-.047.046-.133.051-.294.061-.15.009-.364.022-.67.074-2.324.398-3.245 1.397-8.215 8.715-3.347 4.916-6.093 9.493-9.6 15.764l-5.1 8.97-8.044 7.075-1.593 1.388c-4.876 4.245-6.661 5.8-6.424 6.928.138.651.95 1.161 2.23 1.965.21.131.43.27.663.418 2.17 1.392 2.913 1.606 3.567 1.415.446-.13 3.757-1.872 7.454-3.953 3.698-2.08 6.658-3.662 6.676-3.566.018.095-2.05 2.306-4.66 4.874-.826.813-1.605 1.576-2.287 2.244l-.001.002c-1.472 1.442-2.487 2.436-2.527 2.51a1.64 1.64 0 00.065.915c.267 1.189 5.231 4.41 6.349 4.078.998-.303 18.427-12.52 18.88-13.232.594-.981 1.664-6.212 2.579-13.209l.707-6.539 4.928-7.33a204.25 204.25 0 012.057-3.043c.306-.446.62-.892.933-1.333l.137-.195c.047-.084.096-.167.146-.25.203-.068.406-.133.61-.178a14.505 14.505 0 001.913-.362c.204-.088.402-.187.595-.297a19.498 19.498 0 011.819-.963c.431-.175.862-.349 1.294-.522 2.243-.903 4.482-1.805 6.701-2.807a100.214 100.214 0 009.22-4.815c1.867-1.19 3.537-4.019 3.923-6.486a6.592 6.592 0 00.09-2.574c-.22-1.48-2.557-3.037-5.154-2.496a37.868 37.868 0 01-4.875 2.496c-4.684 2.087-5.136 2.568-5.278 3.49a1.921 1.921 0 001.783 2.27c.286 0 1.669-.63 3.356-1.398.45-.204.921-.42 1.4-.634.95-.429 1.862-.858 2.613-1.212 1.04-.491 1.773-.837 1.88-.833.595 0 .31 1.747-.475 2.93-.559.838-2.215 1.592-9.294 4.813l-2.993 1.364a167.108 167.108 0 00-8.757 4.279c-.44.084-.86.255-1.236.506-.535.32-1.087.612-1.653.874-.317.2-.581.473-.773.796l-1.135 1.45c-1.159 1.57-3.15 4.4-4.209 6.04l-2.015 3.097-7.971-5.118 4.375-6.812c2.716-4.227 4.571-6.902 5.077-7.229.527-.343 2.416-.124 7.218.432l1.978.228a9.51 9.51 0 002.526.125l1.872-.291c.146-.021.293-.033.44-.045.182-.015.366-.03.547-.062.16-.036.316-.082.47-.137a9.05 9.05 0 00.535-.16c.16-.055.318-.12.47-.197l.237-.119a9.11 9.11 0 001.088-.517c.135-.09.258-.196.369-.315l.148-.196a.5.5 0 01.042-.06zm-6.194-8.638c.273 1.237-.868 5.279-1.712 5.903-1.19.856-4.601 0-4.756-1.302-.13-1.189.963-5.35 1.629-5.944 1.117-1.029 4.506-.16 4.839 1.343z" fill="#000"/><path d="M17.215 82.984c-1.052.232-1.409.839-1.112 1.909.34 1.248 7.627 5.944 8.822 5.665.921-.196 1.337-.595 1.427-1.706.053-.731-.322-1.082-4.096-3.502-3.335-2.128-4.393-2.502-5.041-2.365zm11.687 7.508a1.664 1.664 0 00-1.19 1.855c0 .91.128.99 2.534 2.515.439.278.953.604 1.557.992 4.291 2.752 5.23 2.747 6.146 1.32.797-1.24.347-1.528-3.736-4.143l-.27-.173c-.611-.393-1.13-.73-1.574-1.02h-.001c-2.485-1.62-2.63-1.714-3.466-1.346z" fill="#000"/><path clip-rule="evenodd" d="M77.468 34.514c0-.022.024-.044.05-.067a.31.31 0 00.045-.046c.18-.251.283-.548.297-.856a1.979 1.979 0 00-.208-.975.666.666 0 00-.244-.327.943.943 0 00-.362-.101 3.964 3.964 0 00-.993 0 1.13 1.13 0 00-.244.06 2.017 2.017 0 00-.196.124 3.667 3.667 0 01-.749.41c-.123.058-.256.09-.392.095-.244 0-.476-.071-.547-.32a1.713 1.713 0 010-.738c.074-.475.222-.925.37-1.376.079-.237.157-.475.224-.716.88-3.383.595-4.756-.594-6.54-.993-1.444-1.783-2.199-4.256-2.734-2.473-.535-4.851-.13-6.182 1.278-.981 1.04-2.557 6.13-2.681 8.774-.011.239-.011.42-.011.557 0 .235 0 .343-.054.396-.047.046-.133.051-.294.061-.15.009-.364.022-.67.074-2.324.398-3.245 1.397-8.215 8.715-3.347 4.916-6.093 9.493-9.6 15.764l-5.1 8.97-8.044 7.075-1.593 1.388c-4.876 4.245-6.661 5.8-6.424 6.928.138.651.95 1.161 2.23 1.965.21.131.43.27.663.418 2.17 1.392 2.913 1.606 3.567 1.415.446-.13 3.757-1.872 7.454-3.953 3.698-2.08 6.658-3.662 6.676-3.566.018.095-2.05 2.306-4.66 4.874-.826.813-1.605 1.576-2.287 2.244h0l-.001.002c-1.472 1.442-2.487 2.436-2.527 2.51a1.64 1.64 0 00.065.915c.267 1.189 5.231 4.41 6.349 4.078.998-.303 18.427-12.52 18.88-13.232.594-.981 1.664-6.212 2.579-13.209l.707-6.539 4.928-7.33a204.25 204.25 0 012.057-3.043c.306-.446.62-.892.933-1.333l.137-.195c.047-.084.096-.167.146-.25.203-.068.406-.133.61-.178a14.505 14.505 0 001.913-.362c.204-.088.402-.187.595-.297a19.498 19.498 0 011.819-.963c.431-.175.862-.349 1.294-.522 2.243-.903 4.482-1.805 6.701-2.807a100.214 100.214 0 009.22-4.815c1.867-1.19 3.537-4.019 3.923-6.486a6.592 6.592 0 00.09-2.574c-.22-1.48-2.557-3.037-5.154-2.496a37.868 37.868 0 01-4.875 2.496c-4.684 2.087-5.136 2.568-5.278 3.49a1.921 1.921 0 001.783 2.27c.286 0 1.669-.63 3.356-1.398.45-.204.921-.42 1.4-.634.95-.429 1.862-.858 2.613-1.212 1.04-.491 1.773-.837 1.88-.833.595 0 .31 1.747-.475 2.93-.559.838-2.215 1.592-9.294 4.813l-2.993 1.364a167.108 167.108 0 00-8.757 4.279c-.44.084-.86.255-1.236.506-.535.32-1.087.612-1.653.874-.317.2-.581.473-.773.796l-1.135 1.45c-1.159 1.57-3.15 4.4-4.209 6.04l-2.015 3.097-7.971-5.118 4.375-6.812c2.716-4.227 4.571-6.902 5.077-7.229.527-.343 2.416-.124 7.218.432l1.978.228a9.51 9.51 0 002.526.125l1.872-.291c.146-.021.293-.033.44-.045.182-.015.366-.03.547-.062.16-.036.316-.082.47-.137a9.05 9.05 0 00.535-.16c.16-.055.318-.12.47-.197l.237-.119a9.11 9.11 0 001.088-.517c.135-.09.258-.196.369-.315l.148-.196a.5.5 0 01.042-.06zm-6.194-8.638c.273 1.237-.868 5.279-1.712 5.903-1.19.856-4.601 0-4.756-1.302-.13-1.189.963-5.35 1.629-5.944 1.117-1.029 4.506-.16 4.839 1.343z" stroke="#000" stroke-width=".594"/><path d="M17.215 82.984c-1.052.232-1.409.839-1.112 1.909.34 1.248 7.627 5.944 8.822 5.665.921-.196 1.337-.595 1.427-1.706.053-.731-.322-1.082-4.096-3.502-3.335-2.128-4.393-2.502-5.041-2.365zm11.687 7.508a1.664 1.664 0 00-1.19 1.855c0 .91.128.99 2.534 2.515.439.278.953.604 1.557.992 4.291 2.752 5.23 2.747 6.146 1.32.797-1.24.347-1.528-3.736-4.143l-.27-.173c-.611-.393-1.13-.73-1.574-1.02h-.001c-2.485-1.62-2.63-1.714-3.466-1.346z" stroke="#000" stroke-width=".594"/></svg>