<svg width="25" height="25" fill="none" xmlns="http://www.w3.org/2000/svg"><path d="M19.35.593a40.339 40.339 0 00-13.787 0C3.556.99 1.025 3.204.589 4.945a22.745 22.745 0 000 10.285c.524 1.74 3.054 3.956 4.974 4.352.087 0 .174.079.174.158v4.984c0 .238.35.396.524.159l2.618-2.453s2.094-1.978 2.443-2.294c0 0 .087-.08.175-.08 2.617.08 5.322-.158 7.94-.553 2.007-.396 4.538-2.611 4.974-4.352a22.746 22.746 0 000-10.285C23.887 3.204 21.357.989 19.35.593zm.087 14.875c-.436.79-.96 1.424-1.832 1.82l-.786.237c-.349-.08-.61-.159-.872-.238-2.792-1.028-5.41-2.452-7.505-4.51a18.992 18.992 0 01-2.88-3.955c-.348-.712-.697-1.345-.959-2.057-.262-.633.174-1.266.61-1.741.437-.475.96-.791 1.571-1.029.437-.237.873-.079 1.222.238.698.791 1.396 1.582 1.92 2.452.349.554.262 1.187-.35 1.583-.174.079-.261.158-.436.316-.087.08-.261.159-.349.317-.174.237-.174.474-.087.712.698 1.82 2.007 3.244 4.014 4.035.35.158.611.237 1.047.237.611-.079.873-.712 1.31-1.028.436-.317.959-.317 1.483-.08.436.238.872.554 1.396.87.436.317.872.555 1.309.871.261.158.349.554.174.95zm-3.665-5.934c-.174 0-.087 0 0 0-.349 0-.436-.159-.523-.396 0-.158 0-.395-.088-.554a1.494 1.494 0 00-.61-.87l-.524-.237c-.262-.08-.436-.08-.698-.08-.262-.079-.35-.237-.35-.474 0-.158.263-.317.437-.317 1.396.08 2.444.792 2.618 2.295v.316c0 .158-.087.317-.262.317zM14.9 6.053c-.437-.159-.873-.317-1.396-.396-.175 0-.437-.08-.611-.08-.262 0-.437-.157-.35-.395 0-.237.175-.395.437-.316.872.079 1.658.237 2.443.554 1.57.712 2.443 1.898 2.705 3.48v1.03c-.087.317-.698.396-.785 0 0-.079-.087-.237-.087-.316 0-.712-.175-1.424-.524-2.057A4.567 4.567 0 0014.9 6.053zm4.712 4.747c-.262 0-.437-.238-.437-.475 0-.475-.087-.95-.174-1.424-.35-2.532-2.618-4.59-5.323-4.985-.436-.079-.873-.079-1.222-.158-.261 0-.61 0-.698-.316-.087-.238.175-.475.437-.475h.174c3.578.079.175 0 0 0 3.665.079 6.72 2.294 7.33 5.617.087.554.174 1.108.174 1.74.175.238 0 .476-.261.476z" fill="#000"/></svg>