<svg width="23" height="24" fill="none" xmlns="http://www.w3.org/2000/svg"><path d="M17.802.568a35.706 35.706 0 00-12.684 0C3.27.946.943 3.066.542 4.73a22.611 22.611 0 000 9.841c.482 1.666 2.81 3.785 4.576 4.164.08 0 .16.075.16.151v4.77c0 .226.321.378.482.15l2.408-2.346s1.927-1.892 2.248-2.195c0 0 .08-.076.16-.076 2.41.076 4.898-.151 7.306-.53 1.847-.378 4.175-2.498 4.576-4.163a22.611 22.611 0 000-9.841c-.482-1.59-2.81-3.71-4.656-4.088zm.08 14.231c-.401.757-.883 1.363-1.686 1.742-.24.075-.481.15-.722.227-.321-.076-.562-.152-.803-.227-2.569-.985-4.977-2.347-6.904-4.315a18.164 18.164 0 01-2.65-3.785c-.32-.682-.641-1.287-.882-1.969-.241-.605.16-1.21.562-1.665.401-.454.883-.757 1.445-.984.401-.227.803-.076 1.124.227.642.757 1.284 1.514 1.766 2.347.32.53.24 1.135-.321 1.514-.16.075-.241.151-.402.302-.08.076-.24.152-.32.303-.161.227-.161.454-.081.682.642 1.74 1.846 3.103 3.693 3.86.32.152.562.227.963.227.562-.075.803-.68 1.204-.984.402-.303.883-.303 1.365-.075.401.227.803.53 1.284.832.402.303.803.53 1.205.833.24.151.32.53.16.908zM14.51 9.122c-.16 0-.08 0 0 0-.32 0-.4-.152-.481-.379 0-.151 0-.378-.08-.53a1.432 1.432 0 00-.562-.832l-.482-.227c-.241-.076-.401-.076-.642-.076-.241-.076-.322-.227-.322-.454 0-.152.241-.303.402-.303 1.284.076 2.248.757 2.408 2.195v.303c0 .151-.08.303-.24.303zm-.802-3.33c-.402-.152-.803-.304-1.285-.38-.16 0-.401-.075-.562-.075-.24 0-.401-.152-.32-.379 0-.227.16-.378.4-.302.803.075 1.526.227 2.248.53 1.445.68 2.248 1.816 2.489 3.33V9.5c-.08.303-.642.379-.723 0 0-.075-.08-.227-.08-.302a4.21 4.21 0 00-.482-1.969c-.481-.681-1.043-1.135-1.685-1.438zm4.335 4.541c-.241 0-.402-.227-.402-.454 0-.454-.08-.909-.16-1.363-.321-2.422-2.409-4.39-4.897-4.769-.402-.076-.803-.076-1.124-.151-.241 0-.562 0-.642-.303-.08-.227.16-.454.401-.454h.16c3.292.075.161 0 0 0 3.372.075 6.182 2.195 6.744 5.374.08.53.16 1.06.16 1.666.161.227 0 .454-.24.454z" fill="#000"/></svg>