<svg width="25" height="25" fill="none" xmlns="http://www.w3.org/2000/svg"><path d="M24.768 22.431c0-.17-.1-.17-.1-.342-.398-1.37-1.293-3.082-2.486-4.966-.597-.856-.896-1.54-1.095-1.883-.298-.685-.298-1.199-.198-1.884.099-.514.497-1.37 1.193-2.91.398-.857.597-1.37.895-1.884 1.492-3.425 2.189-5.651 1.99-6.678l-.1-.172c-.1-.17-.199-.342-.398-.342-.199-.171-.497-.171-.795 0h-4.477l-.099.171c-.1.171-.1.171-.1.343-.397 1.883-.895 3.424-1.392 5.137-.298.856-.597 1.712-.895 2.397-.299.685-.498 1.198-.696 1.54-.2.343-.398.515-.498.857-.1.171-.298.343-.298.171-.1 0-.2 0-.2-.17l-.298-.515c-.1-.17-.1-.513-.198-.856V1.884c0-.172-.1-.514-.1-.685l-.298-.514c-.1-.171-.299-.171-.398-.343C13.229.172 12.633 0 11.937 0 10.344 0 9.25.171 8.852.514c-.2.17-.398.342-.498.685-.199.342-.199.513-.1.513.498.172.896.514 1.095 1.028l.1.342c.099.171.099.514.198 1.028.1.513.1 1.027.1 1.712v2.74c0 .856-.1 1.37-.1 1.883 0 .514-.099.856-.198 1.028-.1.342-.1.513-.2.513 0 0 0 .171-.099.171-.1 0-.199.172-.398.172-.1 0-.298-.171-.398-.343-.199-.17-.397-.513-.497-.856-.199-.342-.398-.856-.597-1.541-.199-.685-.497-1.37-.696-2.397l-.199-.685c-.1-.343-.298-1.028-.497-1.884-.2-.856-.398-1.54-.597-2.397a2.667 2.667 0 00-.299-.685h-.099s-.1-.171-.199-.171c-.1 0-.199-.171-.298-.171H.796c-.398 0-.597.17-.697.342L0 1.712v.343c0 .171 0 .342.1.685.497 2.055 1.094 4.11 1.69 6.164.597 1.884 1.194 3.596 1.592 4.795.497 1.198.895 2.397 1.393 3.424.497 1.028.795 1.713.895 2.055l.398.685.298.514c.199.342.497.856.895 1.37.398.513.895 1.027 1.393 1.54.497.514 1.094.857 1.69 1.2.697.342 1.294.513 1.89.342h1.493c.298 0 .497-.172.696-.514l.1-.171c0-.171.099-.171.099-.343v-.684c0-.686 0-1.2.1-1.713.099-.514.099-.856.198-1.198.1-.343.2-.514.299-.686l.199-.342h.1c.198-.171.497 0 .695.342.299.343.597.857.796 1.37.2.514.498 1.028.895 1.713.398.685.697 1.198.896 1.37l.298.342c.199.171.398.343.696.514.299.171.498.171.697.171l3.382-.171c.298 0 .596-.171.795-.343.2-.17.299-.342.299-.685v-.684c-.2-.343-.2-.514-.2-.686z" fill="#000"/></svg>