<svg width="23" height="14" fill="none" xmlns="http://www.w3.org/2000/svg"><path d="M22.786 11.983c0-.092-.091-.092-.091-.183-.366-.732-1.19-1.647-2.288-2.653-.549-.457-.823-.823-1.007-1.006-.274-.366-.274-.64-.183-1.006.092-.275.458-.732 1.099-1.555.366-.458.549-.732.823-1.006 1.373-1.83 2.013-3.019 1.83-3.568l-.091-.091c-.092-.092-.183-.183-.366-.183-.183-.092-.458-.092-.732 0h-4.118l-.092.091c-.091.092-.091.092-.091.183-.366 1.006-.824 1.83-1.281 2.744-.275.458-.55.915-.824 1.28-.275.367-.458.641-.64.824-.184.183-.367.275-.458.458-.092.091-.275.182-.275.091-.091 0-.183 0-.183-.091l-.274-.275c-.092-.091-.092-.274-.183-.457V1.007c0-.091-.092-.274-.092-.366l-.274-.274c-.092-.092-.275-.092-.366-.183A8.211 8.211 0 0010.98 0C9.516 0 8.51.091 8.144.274c-.183.092-.367.183-.458.366-.183.183-.183.275-.092.275.458.091.824.274 1.007.549l.092.182c.091.092.091.275.183.55.091.274.091.548.091.914v1.464c0 .457-.091.731-.091 1.006 0 .274-.092.457-.183.549-.092.183-.092.274-.183.274 0 0 0 .091-.092.091-.091 0-.183.092-.366.092-.092 0-.275-.092-.366-.183a1.103 1.103 0 01-.458-.457c-.183-.183-.366-.458-.549-.824-.183-.365-.457-.731-.64-1.28l-.183-.366a12.94 12.94 0 01-.458-1.006c-.183-.458-.366-.824-.549-1.28a1.263 1.263 0 00-.274-.367h-.092s-.09-.091-.182-.091C4.21.732 4.118.64 4.027.64H.732C.366.64.183.732.092.823L0 .915v.183c0 .091 0 .183.092.366.457 1.097 1.006 2.195 1.555 3.293.55 1.006 1.098 1.92 1.464 2.56.458.641.824 1.281 1.282 1.83.457.549.732.915.823 1.098l.366.366.275.274c.183.183.457.457.823.732.366.274.824.549 1.281.823.458.274 1.007.458 1.556.64.64.183 1.19.275 1.739.183h1.373a.831.831 0 00.64-.274l.092-.091c0-.092.091-.092.091-.184v-.365c0-.366 0-.64.092-.915.091-.274.091-.457.183-.64a1.26 1.26 0 01.274-.366l.183-.183h.092c.183-.092.457 0 .64.183.275.183.55.457.732.731.184.275.458.55.824.915.366.366.64.64.824.732l.274.183c.183.091.366.183.64.274.275.092.458.092.641.092l3.112-.092c.274 0 .549-.091.732-.183.183-.091.274-.182.274-.366v-.365c-.183-.183-.183-.275-.183-.366z" fill="#000"/></svg>