<svg width="49" height="14" fill="none" xmlns="http://www.w3.org/2000/svg"><path d="M2.69 11.344h6.552V13H.764V1.12H2.69v10.224zM16.067.94c1.152 0 2.148.246 2.988.738.84.492 1.488 1.194 1.944 2.106.456.912.684 2.004.684 3.276 0 1.272-.228 2.364-.684 3.276-.456.912-1.104 1.614-1.944 2.106-.84.492-1.836.738-2.988.738-1.14 0-2.13-.246-2.97-.738-.84-.492-1.488-1.194-1.944-2.106-.456-.912-.684-2.004-.684-3.276 0-1.272.228-2.364.684-3.276.456-.912 1.104-1.614 1.944-2.106.84-.492 1.83-.738 2.97-.738zm0 1.674c-.744 0-1.386.174-1.926.522-.528.348-.936.852-1.224 1.512-.288.66-.432 1.464-.432 2.412 0 .936.144 1.74.432 2.412.288.66.696 1.164 1.224 1.512.54.348 1.182.522 1.926.522.756 0 1.398-.174 1.926-.522.54-.348.954-.852 1.242-1.512.288-.672.432-1.476.432-2.412 0-.948-.144-1.752-.432-2.412-.288-.66-.702-1.164-1.242-1.512-.528-.348-1.17-.522-1.926-.522zM29.371 13.18c-1.116 0-2.082-.246-2.898-.738-.816-.492-1.452-1.188-1.908-2.088-.456-.912-.684-2.01-.684-3.294 0-1.26.234-2.346.702-3.258A5.096 5.096 0 0126.6 1.696c.876-.504 1.878-.756 3.006-.756 1.236 0 2.232.228 2.988.684.768.456 1.38 1.164 1.836 2.124l-1.782.846c-.228-.66-.606-1.152-1.134-1.476-.516-.336-1.146-.504-1.89-.504s-1.398.174-1.962.522c-.552.348-.984.858-1.296 1.53-.312.66-.468 1.458-.468 2.394 0 .948.138 1.758.414 2.43.276.66.69 1.164 1.242 1.512.564.348 1.254.522 2.07.522.444 0 .858-.054 1.242-.162.384-.12.72-.288 1.008-.504.288-.228.51-.51.666-.846.168-.348.252-.756.252-1.224v-.342h-3.456V6.88h5.166V13h-1.44l-.108-2.394.36.18a3.485 3.485 0 01-1.44 1.764c-.66.42-1.494.63-2.502.63zM42.505.94c1.152 0 2.148.246 2.988.738.84.492 1.488 1.194 1.944 2.106.456.912.684 2.004.684 3.276 0 1.272-.228 2.364-.684 3.276-.456.912-1.104 1.614-1.944 2.106-.84.492-1.836.738-2.988.738-1.14 0-2.13-.246-2.97-.738-.84-.492-1.488-1.194-1.944-2.106-.456-.912-.684-2.004-.684-3.276 0-1.272.228-2.364.684-3.276.456-.912 1.104-1.614 1.944-2.106.84-.492 1.83-.738 2.97-.738zm0 1.674c-.744 0-1.386.174-1.926.522-.528.348-.936.852-1.224 1.512-.288.66-.432 1.464-.432 2.412 0 .936.144 1.74.432 2.412.288.66.696 1.164 1.224 1.512.54.348 1.182.522 1.926.522.756 0 1.398-.174 1.926-.522.54-.348.954-.852 1.242-1.512.288-.672.432-1.476.432-2.412 0-.948-.144-1.752-.432-2.412-.288-.66-.702-1.164-1.242-1.512-.528-.348-1.17-.522-1.926-.522z" fill="#38778E"/></svg>