<svg width="203" height="25" fill="none" xmlns="http://www.w3.org/2000/svg"><path d="M16.502 24h-4.68V9.44h-6.5V24H.642V5.8h15.86V24zm11.193-3.77c-.087 1.248-.486 2.236-1.196 2.964-.711.71-1.586 1.066-2.626 1.066-1.04 0-2.02-.087-2.938-.26v-3.51h1.17c.329 0 .598-.113.806-.338.225-.225.346-.503.364-.832l.78-13.52h14.43V24h-4.68V9.44h-5.46l-.65 10.79zM47.458 24h-5.07l6.89-18.2h5.2l6.89 18.2h-5.07l-1.17-3.25h-6.5L47.458 24zm2.34-6.63h4.16l-2.08-6.11-2.08 6.11zM81.127 24h-4.68v-7.41h-6.5V24h-4.68V5.8h4.68v7.15h6.5V5.8h4.68V24zm20.162 0h-14.43V5.8h14.43v3.64h-9.75v3.51h7.67v3.64h-7.67v3.77h9.75V24zm13.514 0h-4.68V9.44h-5.46V5.8h15.6v3.64h-5.46V24zm11.305 0h-5.07l6.89-18.2h5.2l6.89 18.2h-5.07l-1.17-3.25h-6.5l-1.17 3.25zm2.34-6.63h4.16l-2.08-6.11-2.08 6.11zM143.917 5.8h10.92c1.82 0 3.137.416 3.952 1.248.832.815 1.248 2.132 1.248 3.952v2.6c0 1.82-.416 3.146-1.248 3.978-.815.815-2.132 1.222-3.952 1.222h-6.24V24h-4.68V5.8zm11.44 5.2c0-1.04-.52-1.56-1.56-1.56h-5.2v5.72h5.2c1.04 0 1.56-.52 1.56-1.56V11zm25.479 13h-4.68V12.82L169.916 24h-4.94V5.8h4.68v11.18l6.24-11.18h4.94V24zm16.912 0V12.82L191.508 24h-4.94V5.8h4.68v11.18l6.24-11.18h4.94V24h-4.68zm-4.68-19.5c-2.254 0-3.38-1.127-3.38-3.38V.34h3.38v.65c0 .26.086.477.26.65.173.173.39.26.65.26h.78c.26 0 .476-.087.65-.26a.883.883 0 00.26-.65V.34h3.38v.78c0 2.253-1.127 3.38-3.38 3.38h-2.6z" fill="url(#paint0_linear)"/><defs><linearGradient id="paint0_linear" x1="30.5" y1="16" x2="204" y2="16" gradientUnits="userSpaceOnUse"><stop stop-color="#449EF5"/><stop offset="1" stop-color="#D6219C"/></linearGradient></defs></svg>