<svg width="58" height="57" fill="none" xmlns="http://www.w3.org/2000/svg"><path d="M56.224 24.255H17.957l36.353-9.833c.227-.061.44-.168.626-.314s.342-.328.46-.536a1.85 1.85 0 00.175-1.388l-2.415-9.096A4.213 4.213 0 0051.23.558 4.038 4.038 0 0048.125.14L3.055 12.33a4.035 4.035 0 00-1.448.722 4.14 4.14 0 00-1.061 1.24 4.212 4.212 0 00-.402 3.16l2.224 8.422v26.881a4.3 4.3 0 001.214 3.002A4.093 4.093 0 006.512 57h47.345a4.093 4.093 0 002.93-1.243A4.298 4.298 0 0058 52.755V26.074c0-.483-.187-.945-.52-1.287a1.754 1.754 0 00-1.255-.532zM29.518 8.937l9.765 5.782-12.555 3.396-9.765-5.782 12.555-3.396zm19.53-5.279a.556.556 0 01.422.049.58.58 0 01.271.333l1.944 7.332L44.17 13.4l-9.765-5.782 14.645-3.96zM3.62 16.111a.556.556 0 01.34-.264l8.132-2.204 9.765 5.785-16.334 4.426-1.953-7.358a.506.506 0 01.05-.385zm50.83 36.644a.614.614 0 01-.173.429.585.585 0 01-.419.178H6.511a.585.585 0 01-.418-.178.614.614 0 01-.174-.429V27.893h48.53v24.862z" fill="#fff"/></svg>