<svg width="44" height="45" fill="none" xmlns="http://www.w3.org/2000/svg"><path d="M24.9 30.59a31.13 31.13 0 00-3.394-4.566 24.577 24.577 0 00-7.585-5.71l-.014-.005a11.616 11.616 0 00-2.694-.835 3.986 3.986 0 00-.546-.04c-.148 0-.295.01-.441.034a1.68 1.68 0 00-1.541 1.375h-.009L2.288 35.022a1.237 1.237 0 00-.034.085c-1.01 2.78-1.719 4.576-2.125 5.387a1.222 1.222 0 00-.116.723s.364 1.629.523 2.088c.11.302.273.582.484.825.138.159.297.299.471.416a2.88 2.88 0 001.646.453 6.899 6.899 0 002.416-.521 161.469 161.469 0 0014.695-7.035h-.008a11.695 11.695 0 004.658-3.587h-.003a2.951 2.951 0 00.004-3.264zm-9.54 6.686c-1.202.588-2.65 1.274-4.358 2.06a31.734 31.734 0 00-1.415-5.341l-.01-.027a9.914 9.914 0 00-2.355-3.947l2.045-4.54a15.946 15.946 0 013.89 4.642 25.325 25.325 0 012.203 7.153zm-10.8 4.967h-.008a4.652 4.652 0 01-1.394.343.558.558 0 01-.298-.065.235.235 0 01-.033-.064 2.425 2.425 0 01-.017-1.083 1.216 1.216 0 00-.09-.66h-.008c.441-1.027 1.044-2.59 1.807-4.689h-.004l1.61-3.573c.484.737.874 1.531 1.16 2.365a25.623 25.623 0 011.39 5.582 611.567 611.567 0 01-4.115 1.844zm18.287-9.723a1.1 1.1 0 00-.055.094 9.642 9.642 0 01-3.689 2.664 1.236 1.236 0 00-.094.055c-.332.214-.8.481-1.392.797a25.68 25.68 0 00-2.36-7.254l-.003-.006a17.55 17.55 0 00-4.966-5.656l.593-1.317h.008a9.504 9.504 0 012.08.668 22.285 22.285 0 016.777 5.156h-.003a28.657 28.657 0 013.022 4.063.703.703 0 01.082.736zm-5.643-18.489a3.204 3.204 0 01-.657 1.915 4.024 4.024 0 01-.615.67.617.617 0 01-.154.112 4.126 4.126 0 00-.67.461 1.203 1.203 0 01-.937.42 1.29 1.29 0 01-.545-.126 1.214 1.214 0 01-.67-1.09c0-.19.043-.375.125-.545.096-.18.224-.341.378-.475.29-.232.593-.447.908-.643.08-.07.15-.15.21-.238a.74.74 0 00.167-.433v-.056a2.469 2.469 0 00-.447-.964l-.042-.084c-.112-.181-.503-.67-1.174-1.467a6.623 6.623 0 01-.6-.908l-.014-.028a2.558 2.558 0 01-.35-1.76l.014-.029c.11-.565.4-1.08.825-1.467h.014c.075-.093.164-.173.265-.237.224-.168.825-.531 1.817-1.104a1.249 1.249 0 011.677.461 1.23 1.23 0 01-.462 1.663c-.81.46-1.313.754-1.523.908-.028.028-.056.042-.084.07a.496.496 0 00-.14.167h.015c.022.059.05.115.083.168.116.202.242.398.378.587.502.55.96 1.139 1.37 1.76a4.66 4.66 0 01.81 2.04l.014.015c0 .084.014.167.014.237zm20.5 10.564a1.395 1.395 0 00-.434.322 14.169 14.169 0 01-1.439 1.914c-.084.07-.154.126-.223.181A6.355 6.355 0 0134 28.047l-.098.041a4.225 4.225 0 01-2.138.252 5.051 5.051 0 01-.908-.21h-.028c0-.014-.028-.014-.056-.028a31.649 31.649 0 00-1.537-.573c-.056-.014-.084-.014-.126-.027a1.707 1.707 0 00-.447-.084h-.042a.915.915 0 00-.224.167c.029.272-.03.546-.167.783a1.225 1.225 0 01-1.048.6 1.43 1.43 0 01-1.356-1.34c.004-.287.071-.568.196-.825.046-.123.107-.24.181-.35.047-.086.098-.17.154-.251a.422.422 0 00.07-.098 3.058 3.058 0 011.803-1.09L28.27 25a4.512 4.512 0 011.397.112c.057.014.113.028.155.042.237.07.838.28 1.788.657.168.042.335.084.49.112h.027a1.683 1.683 0 00.866-.112 3.311 3.311 0 001.035-.67c.041-.029.07-.057.111-.085a13.63 13.63 0 001.174-1.607.424.424 0 00.07-.098 3.9 3.9 0 011.174-.922 1.222 1.222 0 011.648.517 1.224 1.224 0 01-.502 1.65zm-13.638-8.747a.406.406 0 01-.028.126 1.204 1.204 0 01-.95.992.546.546 0 01-.196.042 1.165 1.165 0 01-.615 0h-.014a1.393 1.393 0 01-.713-.392 1.37 1.37 0 01-.419-.6l-.014-.042a.57.57 0 01-.028-.126 1.2 1.2 0 010-.629.674.674 0 01.056-.154c.132-.341.393-.617.727-.768a1.515 1.515 0 01.88-.154c.042 0 .07.014.098.014h.014a1.413 1.413 0 01.67.335.338.338 0 00.07.056c0 .014.014.028.028.042.113.107.204.235.266.377.145.27.203.577.168.88zm13.19-.35c0 .029-.014.043-.028.07h.014v.028c.012.084.016.168.014.252a1.466 1.466 0 01-.35.796l-.041.042a1.377 1.377 0 01-.978.49 1.704 1.704 0 01-1.034-.42l-.07-.07a1.537 1.537 0 01-.308-1.97.14.14 0 01.056-.07c.197-.284.474-.503.797-.629.042-.014.07-.028.112-.042.028 0 .056-.014.083-.014.1-.03.203-.05.308-.055a.387.387 0 01.126-.014c.166 0 .332.027.489.084a1.212 1.212 0 01.81 1.522zm-10.82 6.028h-.003l2.616-1.99a4.235 4.235 0 00.976-1.142 5.294 5.294 0 00.652-1.97 11.79 11.79 0 00-.089-2.448h-.005c-.001-.056 0-.113.005-.17h-.008a1.222 1.222 0 00-2.233-.994 2.15 2.15 0 00-.131.392 3.324 3.324 0 00-.07.921c.093.641.131 1.29.114 1.937l-.005.037a2.88 2.88 0 01-.348 1.076l-.009.016c-.105.173-.24.327-.396.456h-.005l-2.543 1.933-.049.04c-.471.4-.902.847-1.286 1.333a1.22 1.22 0 101.913 1.521c.27-.344.573-.661.904-.948zM25.263 8.134c-.03.081-.068.16-.112.235h-.001c-.205.294-.47.54-.777.724a1.222 1.222 0 001.319 2.058 4.869 4.869 0 001.563-1.54l.02-.034c.141-.243.255-.5.338-.77l.007-.026c.137-.546.3-1.085.493-1.614l.023-.052c.117-.272.27-.527.456-.758l.068-.092h.009a3.418 3.418 0 011.614-.89c.055-.016.109-.036.16-.06h-.008l.047-.018a1.225 1.225 0 00.624-1.441 1.17 1.17 0 00-1.173-.834 1.786 1.786 0 00-.544.09l.17-.068h-.007a5.554 5.554 0 00-2.87 1.79c-.322.4-.588.842-.79 1.314-.25.649-.461 1.312-.629 1.986zM38.276 6.08v.154c-.04.302-.172.585-.377.81l-.028.029a1.803 1.803 0 01-1.006.489h-.042a.307.307 0 01-.112.014h-.056a.238.238 0 01-.098.014 1.742 1.742 0 01-.936-.252 1.39 1.39 0 01-.754-1.272v-.125c.028-.238.042-.308.056-.378.14-.429.427-.794.81-1.034a1.203 1.203 0 011.411.07h.014c.098.043.191.095.28.154h.014c.235.121.437.299.587.517.161.239.244.522.237.81zM23.931 2.905h.02l.093-.003a1.51 1.51 0 00.91-.377h-.006c.258-.214.43-.515.483-.846.013-.068.02-.137.022-.206v-.02a1.462 1.462 0 00-.06-.454 1.296 1.296 0 00-.322-.535l-.004-.003a1.23 1.23 0 00-.864-.38h-.009a1.206 1.206 0 00-.43-.081c-.165 0-.328.036-.477.108l-.066.03a1.33 1.33 0 00-.606.561h-.008c-.087.15-.146.314-.173.485l-.005.035a1.39 1.39 0 00.515 1.349c.28.223.63.342.987.337zM43.49 19.05a1.065 1.065 0 00-.65-1.133h-.009a1.25 1.25 0 00-.493-.374 1.22 1.22 0 00-1.332.265 1.51 1.51 0 00-.431.885 1.74 1.74 0 00.117.92 1.343 1.343 0 00.82.753 1.5 1.5 0 00.475.078l.063-.002h.008l.037.001c.25 0 .492-.076.697-.218h-.009c.21-.128.385-.304.512-.514l.002-.002c.125-.197.192-.426.192-.659z" fill="#000"/></svg>