<svg width="55" height="41" fill="none" xmlns="http://www.w3.org/2000/svg"><path d="M54 15.742L49.935 1.445A.613.613 0 0049.349 1h-4.652a.607.607 0 00-.586.445l-4.066 14.297a.604.604 0 00.097.537.618.618 0 00.488.244h5.78v21.87h-4.408a.612.612 0 00-.61.61c0 .334.275.609.61.609h10.035c.336 0 .61-.275.61-.61a.612.612 0 00-.61-.61H47.63v-21.87h5.78a.618.618 0 00.592-.78zm-12.565-.439l3.719-13.078h3.725l3.72 13.078H41.434zm-7.829 9.067h-2.518v-5.244a2.75 2.75 0 00-2.75-2.75H9.019a2.75 2.75 0 00-2.75 2.75v5.244H3.75A2.75 2.75 0 001 27.12v9.742a2.75 2.75 0 002.75 2.75h29.856a2.75 2.75 0 002.75-2.75V27.12a2.75 2.75 0 00-2.75-2.75zM7.487 19.12c0-.841.69-1.53 1.53-1.53H28.34c.841 0 1.53.689 1.53 1.53v5.243h-.268a2.75 2.75 0 00-2.75 2.75v3.634h-16.34v-3.634a2.75 2.75 0 00-2.75-2.75h-.274V19.12zm3.018 12.852h16.34v6.42h-16.34v-6.42zm-3.115 6.42H3.75c-.842 0-1.53-.688-1.53-1.53V27.12c0-.841.688-1.53 1.53-1.53h4.012c.84 0 1.53.689 1.53 1.53v11.273H7.39zm27.747-1.53c0 .842-.69 1.53-1.53 1.53h-5.543V27.12c0-.841.69-1.53 1.53-1.53h4.012c.842 0 1.53.689 1.53 1.53v9.743z" fill="#000" stroke="#000" stroke-width="1.04"/></svg>