<svg width="40" height="35" fill="none" xmlns="http://www.w3.org/2000/svg"><path d="M38.665.137a1.093 1.093 0 00-1.117.045 32.76 32.76 0 01-17.926 5.31A32.757 32.757 0 011.69.176 1.093 1.093 0 000 1.092V33.6a1.093 1.093 0 001.688.915 32.754 32.754 0 0117.92-5.306 32.788 32.788 0 0117.94 5.314 1.091 1.091 0 001.688-.915V1.098c0-.402-.22-.77-.571-.961zM2.185 3.04a34.846 34.846 0 007.806 3.29v22.034a34.792 34.792 0 00-7.806 3.287V3.041zm9.99 24.778V6.88a35.188 35.188 0 0015.063-.037v21.02a35.207 35.207 0 00-15.062-.043zm24.877 3.84a34.878 34.878 0 00-7.628-3.239V6.283a34.873 34.873 0 007.628-3.237V31.66z" fill="#000"/></svg>