<svg width="44" height="44" fill="none" xmlns="http://www.w3.org/2000/svg"><path d="M25.667 25.208a1.375 1.375 0 100-2.75v2.75zm0 14.667a1.375 1.375 0 100-2.75v2.75zM27.5 29.792a1.375 1.375 0 000 2.75v-2.75zm11 2.75a1.375 1.375 0 100-2.75v2.75zm-6.875 4.125a1.375 1.375 0 102.75 0h-2.75zm2.75-11a1.375 1.375 0 00-2.75 0h2.75zM26.125 11a5.958 5.958 0 01-5.958 5.958v2.75A8.708 8.708 0 0028.875 11h-2.75zm-5.958 5.958A5.958 5.958 0 0114.208 11h-2.75a8.708 8.708 0 008.709 8.708v-2.75zM14.208 11a5.958 5.958 0 015.959-5.958v-2.75A8.708 8.708 0 0011.458 11h2.75zm5.959-5.958A5.958 5.958 0 0126.125 11h2.75a8.708 8.708 0 00-8.708-8.708v2.75zm-5.5 20.166h11v-2.75h-11v2.75zm11 11.917h-11v2.75h11v-2.75zm-11 0a5.958 5.958 0 01-5.958-5.958h-2.75a8.708 8.708 0 008.708 8.708v-2.75zm0-14.667a8.708 8.708 0 00-8.709 8.709h2.75a5.958 5.958 0 015.959-5.959v-2.75zM27.5 32.542h11v-2.75h-11v2.75zm6.875 4.125v-11h-2.75v11h2.75z" fill="#000"/></svg>