<svg width="45" height="45" fill="none" xmlns="http://www.w3.org/2000/svg"><g clip-path="url(#clip0_135_61)" fill="#000"><path d="M20.625 30a1.875 1.875 0 103.75 0 1.875 1.875 0 00-3.75 0zM9.49 41.334l.826-1.137-.826 1.137zM7.415 39.26l1.138-.826-1.138.827zm30.17 0l-1.138-.826 1.137.827zm-2.075 2.075l-.826-1.138.827 1.137zm0-37.67l-.826 1.138.827-1.138zm2.075 2.075l-1.138.826 1.137-.826zM9.49 3.665l.826 1.138-.826-1.138zM7.415 5.74l1.138.826-1.138-.826zM37.97 18.75v7.5h2.812v-7.5H37.97zm-30.94 7.5v-7.5H4.22v7.5h2.81zM22.5 41.719c-3.547 0-6.094-.002-8.066-.216-1.946-.21-3.165-.614-4.118-1.306l-1.653 2.275c1.512 1.099 3.282 1.59 5.468 1.827 2.159.234 4.885.232 8.369.232V41.72zM4.219 26.25c0 3.484-.002 6.21.232 8.37.237 2.184.728 3.955 1.827 5.467l2.275-1.653c-.692-.953-1.095-2.172-1.306-4.118-.214-1.972-.216-4.52-.216-8.066H4.22zm6.097 13.947a7.97 7.97 0 01-1.763-1.763l-2.275 1.653c.665.915 1.47 1.72 2.385 2.385l1.653-2.275zM37.97 26.25c0 3.547-.002 6.094-.216 8.066-.21 1.946-.614 3.165-1.306 4.118l2.275 1.653c1.099-1.512 1.59-3.283 1.827-5.468.234-2.159.232-4.885.232-8.369H37.97zM22.5 44.531c3.484 0 6.21.002 8.37-.232 2.184-.236 3.955-.728 5.467-1.827l-1.653-2.275c-.953.692-2.172 1.095-4.118 1.306-1.972.214-4.52.216-8.066.216v2.812zm13.947-6.097a7.973 7.973 0 01-1.763 1.763l1.653 2.275c.915-.665 1.72-1.47 2.385-2.385l-2.275-1.653zM22.5 3.28c3.547 0 6.094.002 8.066.216 1.946.21 3.165.614 4.118 1.306l1.653-2.275C34.825 1.429 33.054.938 30.87.7 28.71.467 25.984.469 22.5.469V3.28zm18.281 15.47c0-3.484.002-6.21-.232-8.37-.236-2.184-.728-3.955-1.827-5.467l-2.275 1.653c.692.953 1.095 2.172 1.306 4.118.214 1.972.216 4.52.216 8.066h2.812zM34.684 4.803a7.97 7.97 0 011.763 1.763l2.275-1.653a10.783 10.783 0 00-2.385-2.385l-1.653 2.275zM22.5.47c-3.484 0-6.21-.002-8.37.232-2.185.237-3.955.728-5.467 1.827l1.653 2.275c.953-.692 2.172-1.095 4.118-1.306 1.972-.214 4.52-.216 8.066-.216V.47zM7.031 18.75c0-3.547.002-6.094.216-8.066.21-1.946.614-3.165 1.306-4.118L6.278 4.913C5.179 6.425 4.688 8.196 4.45 10.38c-.234 2.159-.232 4.885-.232 8.369H7.03zM8.663 2.528c-.915.665-1.72 1.47-2.385 2.385l2.275 1.653a7.968 7.968 0 011.763-1.763L8.663 2.528zM15.469 30a7.031 7.031 0 007.031 7.031V34.22A4.219 4.219 0 0118.281 30H15.47zm7.031 7.031A7.031 7.031 0 0029.531 30H26.72a4.219 4.219 0 01-4.219 4.219v2.812zM29.531 30a7.031 7.031 0 00-7.031-7.031v2.812A4.219 4.219 0 0126.719 30h2.812zM22.5 22.969A7.031 7.031 0 0015.469 30h2.812a4.219 4.219 0 014.219-4.219V22.97zm-5.156-9.844a5.156 5.156 0 005.156 5.156V15.47a2.344 2.344 0 01-2.344-2.344h-2.812zm5.156 5.156a5.156 5.156 0 005.156-5.156h-2.812a2.344 2.344 0 01-2.344 2.344v2.812zm5.156-5.156A5.156 5.156 0 0022.5 7.969v2.812a2.344 2.344 0 012.344 2.344h2.812zM22.5 7.969a5.156 5.156 0 00-5.156 5.156h2.812a2.344 2.344 0 012.344-2.344V7.97z"/></g><defs><clipPath id="clip0_135_61"><path fill="#fff" d="M0 0h45v45H0z"/></clipPath></defs></svg>