<svg width="45" height="45" fill="none" xmlns="http://www.w3.org/2000/svg"><path d="M33.072 18.608c-.354-.633-.321-1.444.192-1.956.59-.591 1.57-.553 2.012.156 2.564 4.119 2.088 9.588-1.427 13.206l-.22.22-.76.76a1.406 1.406 0 11-1.988-1.988l.75-.75c.115-.116.163-.163.2-.203a7.972 7.972 0 001.241-9.445zm-5.828.086c.264-.264.412-.622.412-.995-.001-2.51-.019-4.542-.216-6.092-.215-1.692-.69-3.25-2.038-4.169a5.155 5.155 0 00-1.46-.688c-1.565-.457-3.07.168-4.512 1.079-1.45.914-3.208 2.363-5.409 4.177l-1.95 1.607a18.92 18.92 0 01-.675.545 7.968 7.968 0 01-4.372 1.569c-.187.01-.382.01-.867.01H6.08c-.418 0-.74 0-1.027.031A5.156 5.156 0 00.5 20.32c-.032.288-.032.61-.032 1.028v2.306c0 .418 0 .74.032 1.027a5.156 5.156 0 004.55 4.551c.288.033.61.032 1.028.032h.078c.485 0 .68 0 .867.01a7.968 7.968 0 014.372 1.57c.15.111.301.235.675.543l.374.309a1.406 1.406 0 101.79-2.17l-.404-.333a20.149 20.149 0 00-.754-.605 10.781 10.781 0 00-5.915-2.123c-.264-.013-.532-.013-.967-.013h-.038c-.532 0-.682-.002-.793-.015a2.344 2.344 0 01-2.068-2.068c-.013-.11-.015-.26-.015-.793v-2.15c0-.532.002-.683.015-.793a2.344 2.344 0 012.068-2.068c.11-.013.26-.015.793-.015h.038c.435 0 .703 0 .967-.013a10.781 10.781 0 005.915-2.123c.211-.158.418-.328.754-.605l1.896-1.563c2.303-1.898 3.924-3.23 5.204-4.038 1.303-.822 1.887-.856 2.225-.757.236.069.46.174.663.313.291.198.637.67.831 2.199.191 1.5.194 3.6.194 6.583 0 .94 1.137 1.412 1.802.746l.598-.598zm-2.4 6.96c0-.373.148-.73.412-.994.886-.886 2.4-.259 2.4.994v.909c0 2.851 0 5.13-.216 6.83-.215 1.692-.69 3.25-2.038 4.169-.447.304-.94.537-1.46.688-1.565.456-3.07-.169-4.512-1.079-.773-.487-1.633-1.127-2.602-1.892a1.393 1.393 0 01-.112-2.08 1.42 1.42 0 011.887-.102c.901.711 1.66 1.275 2.328 1.696 1.303.822 1.887.855 2.225.757a2.33 2.33 0 00.663-.313c.291-.198.637-.67.831-2.199.191-1.5.194-3.6.194-6.583v-.8z" fill="#000"/><path d="M37.968 13.783c-.462-.552-.473-1.363.036-1.872l.066-.065c.553-.553 1.464-.56 1.972.034l.084.1a16.406 16.406 0 010 21.04c-.47.563-1.07 1.163-2.127 2.22l-1.38 1.38a1.406 1.406 0 11-1.988-1.99l1.312-1.312c1.142-1.141 1.646-1.647 2.025-2.101a13.594 13.594 0 000-17.434z" fill="#000"/><path d="M6.677 37.5l30-30" stroke="#000" stroke-width="2.813" stroke-linecap="round"/></svg>