<svg width="100" height="100" fill="none" xmlns="http://www.w3.org/2000/svg"><circle cx="50" cy="50" r="50" fill="#FFD4CA"/><circle cx="50.365" cy="50.365" r="29.365" fill="#FF3C11"/><path d="M61.434 41.994a.8.8 0 000-1.131l-2.297-2.297a.8.8 0 00-1.131 0L50 46.572l-8.006-8.006a.8.8 0 00-1.131 0l-2.297 2.297a.8.8 0 000 1.131L46.572 50l-8.006 8.006a.8.8 0 000 1.131l2.297 2.297a.8.8 0 001.131 0L50 53.428l8.006 8.006a.8.8 0 001.131 0l2.297-2.297a.8.8 0 000-1.131L53.428 50l8.006-8.006z" fill="#fff"/></svg>