<svg width="26" height="48" fill="none" xmlns="http://www.w3.org/2000/svg"><path d="M1.484 47.178A1 1 0 010 46.303V6a6 6 0 016-6h14a6 6 0 016 6v40.303a1 1 0 01-1.485.875l-11.03-6.11a1 1 0 00-.97 0l-11.03 6.11z" fill="url(#paint0_linear_18545_344935)"/><path d="M11.622 23.32c.416.231.92.347 1.515.347.623 0 1.153-.131 1.59-.393.437-.265.75-.644.94-1.137l-1.139-.234c-.118.271-.29.48-.516.627-.222.143-.513.215-.875.215-.53 0-.931-.16-1.203-.482-.269-.321-.405-.742-.408-1.263.003-.337.062-.636.177-.898.115-.262.29-.468.526-.618.237-.153.54-.229.908-.229.326 0 .614.08.865.239.254.155.436.375.547.66l1.118-.282c-.144-.477-.44-.852-.892-1.127-.447-.274-.988-.412-1.622-.412-.587 0-1.09.114-1.51.342a2.39 2.39 0 00-.966.945c-.226.4-.34.86-.344 1.38.004.512.115.968.333 1.37.222.403.541.72.956.95z" fill="#fff"/><path fill-rule="evenodd" clip-rule="evenodd" d="M13 27a6 6 0 100-12 6 6 0 000 12zm0-1a5 5 0 100-10 5 5 0 000 10z" fill="#fff"/><defs><linearGradient id="paint0_linear_18545_344935" x1="0" y1="48" x2="36.679" y2="20.587" gradientUnits="userSpaceOnUse"><stop stop-color="#CE40CD"/><stop offset="1" stop-color="#AC49AB"/></linearGradient></defs></svg>