<svg width="144" height="37" fill="none" xmlns="http://www.w3.org/2000/svg"><path d="M40.951 27.984c-3.293 0-5.999-1.08-8.118-3.24-2.12-2.14-3.18-4.796-3.18-7.965 0-3.169 1.06-5.823 3.18-7.964 2.12-2.16 4.825-3.24 8.118-3.24 1.955 0 3.766.473 5.433 1.42 1.667.946 2.963 2.222 3.89 3.827l-2.501 1.45c-.617-1.193-1.544-2.14-2.778-2.84-1.214-.72-2.562-1.08-4.044-1.08-2.51 0-4.548.803-6.112 2.408-1.564 1.585-2.346 3.591-2.346 6.02 0 2.407.782 4.403 2.346 5.988 1.564 1.605 3.602 2.407 6.112 2.407 1.482 0 2.83-.35 4.044-1.05 1.235-.72 2.16-1.666 2.778-2.839l2.5 1.42c-.905 1.605-2.191 2.891-3.858 3.858-1.647.947-3.468 1.42-5.464 1.42zm25.717-13.18v-2.655h2.685v15.434h-2.685v-2.655c-1.318 2.038-3.262 3.056-5.835 3.056-2.18 0-4.023-.782-5.525-2.346-1.523-1.584-2.284-3.508-2.284-5.772 0-2.243.761-4.157 2.284-5.741 1.523-1.585 3.365-2.377 5.526-2.377 2.572 0 4.516 1.019 5.834 3.056zm-5.495 10.588c1.564 0 2.87-.525 3.92-1.575 1.05-1.09 1.575-2.407 1.575-3.95 0-1.565-.525-2.872-1.575-3.921-1.05-1.07-2.356-1.605-3.92-1.605-1.543 0-2.84.535-3.89 1.605-1.049 1.05-1.574 2.356-1.574 3.92 0 1.544.525 2.86 1.575 3.951 1.05 1.05 2.346 1.575 3.89 1.575zm29.469-13.644c1.749 0 3.148.566 4.198 1.698 1.07 1.131 1.605 2.644 1.605 4.537v9.6h-2.686v-9.507c0-1.173-.308-2.089-.926-2.748-.596-.679-1.42-1.018-2.47-1.018-1.193 0-2.129.401-2.808 1.204-.659.782-.988 1.944-.988 3.488v8.581h-2.685v-9.507c0-1.173-.299-2.089-.896-2.748-.576-.679-1.368-1.018-2.376-1.018-1.173 0-2.13.412-2.871 1.235-.72.802-1.08 1.955-1.08 3.457v8.581h-2.686V12.15h2.686v2.068c1.049-1.646 2.582-2.47 4.599-2.47 2.078 0 3.59.876 4.537 2.625 1.07-1.75 2.686-2.624 4.847-2.624zm18.597 0c2.161 0 4.003.792 5.526 2.377 1.522 1.584 2.284 3.498 2.284 5.741 0 2.264-.762 4.188-2.284 5.772-1.503 1.564-3.344 2.346-5.526 2.346-2.551 0-4.496-1.018-5.834-3.056v2.655h-2.685V5.976h2.685v8.828c1.338-2.037 3.283-3.056 5.834-3.056zm-.339 13.644c1.543 0 2.84-.525 3.889-1.575 1.05-1.09 1.574-2.407 1.574-3.95 0-1.565-.524-2.872-1.574-3.921-1.049-1.07-2.346-1.605-3.889-1.605-1.564 0-2.871.535-3.921 1.605-1.049 1.05-1.574 2.356-1.574 3.92 0 1.544.525 2.86 1.574 3.951 1.05 1.05 2.357 1.575 3.921 1.575zM122.163 9.34c-.515 0-.947-.175-1.297-.525a1.724 1.724 0 01-.525-1.265c0-.494.175-.916.525-1.266.35-.37.782-.555 1.297-.555.494 0 .915.185 1.265.555.35.35.525.772.525 1.266s-.175.916-.525 1.265c-.35.35-.771.525-1.265.525zm1.327 18.243h-2.686V12.15h2.686v15.434zm17.674-1.945c-1.564 1.564-3.488 2.346-5.772 2.346-2.284 0-4.208-.782-5.772-2.346s-2.346-3.488-2.346-5.772c0-2.284.782-4.208 2.346-5.772s3.488-2.346 5.772-2.346c2.284 0 4.208.782 5.772 2.346 1.585 1.584 2.377 3.508 2.377 5.772 0 2.264-.792 4.188-2.377 5.772zm-5.772-.277c1.544 0 2.84-.525 3.889-1.575 1.05-1.05 1.575-2.356 1.575-3.92s-.525-2.87-1.575-3.92c-1.049-1.05-2.345-1.574-3.889-1.574-1.523 0-2.809.524-3.858 1.574-1.05 1.05-1.575 2.356-1.575 3.92s.525 2.87 1.575 3.92c1.049 1.05 2.335 1.575 3.858 1.575z" fill="#000"/><path d="M16.962.094c-.46.159-.908.374-1.527.743-.295.176-.579.335-.624.358-.045.023-.159.09-.255.153a1.72 1.72 0 01-.313.17.649.649 0 00-.17.102.547.547 0 01-.17.108c-.08.04-.267.148-.426.244a3.658 3.658 0 01-.437.239c-.09.04-.158.09-.158.113 0 .023-.029.045-.063.045s-.318.154-.63.341c-.306.187-.573.34-.584.34-.012 0-.273.148-.579.33-.306.181-.596.346-.641.368-.046.023-.16.091-.256.154-.09.062-.238.142-.323.176-.09.034-.159.085-.159.113 0 .028-.028.051-.062.051s-.273.125-.534.284c-.26.153-.5.284-.533.284-.034 0-.063.022-.063.056a.057.057 0 01-.056.057c-.046 0-.92.494-1.306.738-.045.028-.21.119-.368.204a2.421 2.421 0 00-.313.187 2.355 2.355 0 01-.283.165c-.142.074-.33.182-.426.244-.09.057-.238.136-.323.17-.091.034-.16.085-.16.114 0 .028-.028.05-.062.05s-.272.126-.533.285c-.261.153-.5.283-.534.283-.034 0-.062.023-.062.057a.057.057 0 01-.057.057c-.028 0-.306.147-.607.329-.306.181-.596.346-.641.369-.046.022-.159.09-.256.153-.09.062-.232.142-.312.17a.65.65 0 00-.17.102 1.986 1.986 0 01-.3.182c-.324.164-.364.193-.778.46-.358.238-.624.47-.624.561 0 .029-.023.057-.051.057-.085 0-.233.477-.233.75 0 .141.04.357.09.47.097.233.67.823.795.823.046 0 .08.023.08.051 0 .028.068.08.159.114.085.034.232.113.323.17.097.062.284.17.426.244.142.074.266.142.283.159.029.034.34.215.766.454.125.068.437.25.687.403.255.153.494.278.528.278.034 0 .062.022.062.045s.068.074.16.114c.084.034.283.141.436.238.159.096.346.204.426.244a.53.53 0 01.17.108.651.651 0 00.17.102c.08.028.222.108.312.17.097.057.284.165.426.238a2.4 2.4 0 01.284.165c.045.045.72.448.754.448.023 0 .29.154.602.34.312.188.596.341.63.341.028 0 .057.023.057.046 0 .022.068.073.158.113.086.034.233.114.324.176.096.063.284.17.425.244.142.074.267.148.284.17a.651.651 0 00.17.102c.08.029.222.108.313.17.096.063.21.131.255.154.045.023.335.187.641.369.307.181.585.329.613.329.028 0 .051.023.051.045 0 .023.068.074.159.114a3.7 3.7 0 01.437.238c.159.097.346.204.426.244a.543.543 0 01.17.108.649.649 0 00.17.102c.08.028.221.108.312.17a11 11 0 00.426.239c.142.073.266.147.283.164.018.023.16.108.313.188.34.187.539.3 1.14.663.256.154.494.279.528.279.034 0 .062.022.062.056 0 .029.029.057.063.057s.272.125.533.284c.261.153.5.284.534.284.034 0 .062.022.062.05 0 .029.057.074.125.097.176.051 1.01.636 1.305.908.136.125.352.357.471.51.125.154.238.29.255.307.029.028.341.664.528 1.078.085.188.091.193.12.057.05-.204.005-21.717-.04-21.99a11.35 11.35 0 01-.074-.465c-.017-.136-.051-.255-.085-.272 0-.335-.704-1.271-1.198-1.532-.272-.148-.363-.165-.953-.182-.528-.011-.715.006-.97.09z" fill="#0084F8"/><path d="M5.005 26.244l.062 9.44c.04.128.108.324.108.324.25.348.593.431.593.431s.81.064 1.172-.083c.37-.142.931-.426 1.005-.505a.979.979 0 01.17-.102c.08-.04.221-.12.312-.182.097-.057.284-.164.426-.238a2.39 2.39 0 00.283-.165c.018-.023.16-.102.313-.187.363-.193.505-.278.539-.324a.429.429 0 01.17-.079.526.526 0 00.17-.08c.04-.05.72-.46.76-.46.023 0 .143-.067.279-.152.29-.188.64-.392.834-.488a.548.548 0 00.17-.108.648.648 0 01.17-.102 1.74 1.74 0 00.312-.17 11 11 0 01.426-.239c.142-.074.29-.164.33-.198.039-.04.096-.074.124-.074.028 0 .165-.08.3-.17.143-.097.268-.17.285-.17.022 0 .289-.154.595-.341.312-.188.585-.34.602-.34.023 0 .142-.069.278-.154.306-.204.38-.244.675-.409.301-.164 1.05-.732 1.311-.993.505-.505 1.027-1.361 1.095-1.798.023-.125.063-.239.085-.256.029-.017.052-.26.052-.545 0-.499-.08-.908-.262-1.333a.862.862 0 01-.079-.238c0-.035-.023-.063-.051-.063-.029 0-.074-.057-.097-.13-.102-.33-1.282-1.572-1.498-1.572-.028 0-.073-.034-.096-.08-.023-.045-.148-.136-.273-.204a7.48 7.48 0 01-.397-.233 2.556 2.556 0 00-.323-.17c-.091-.034-.16-.08-.16-.108 0-.023-.045-.056-.096-.074-.107-.034-.516-.26-.896-.493-.13-.08-.284-.17-.34-.21a9.034 9.034 0 00-.398-.221 2.429 2.429 0 01-.312-.188 2.4 2.4 0 00-.284-.164c-.363-.188-.874-.477-.908-.517a1.81 1.81 0 00-.255-.147 6.87 6.87 0 01-.51-.301c-.154-.096-.313-.182-.353-.182-.04 0-.073-.028-.073-.056a.057.057 0 00-.057-.057c-.034 0-.318-.153-.63-.34-.312-.188-.59-.341-.619-.341-.028 0-.085-.034-.124-.074a2.39 2.39 0 00-.33-.204 3.071 3.071 0 01-.283-.17 2.4 2.4 0 00-.284-.165c-.142-.074-.33-.182-.426-.238a1.72 1.72 0 00-.312-.17.65.65 0 01-.17-.103 1.628 1.628 0 00-.284-.17 6.212 6.212 0 01-.425-.244 2.042 2.042 0 00-.324-.176c-.09-.04-.159-.09-.159-.113 0-.023-.022-.046-.05-.046-.052 0-.744-.391-.8-.454a2.05 2.05 0 00-.256-.142 5.13 5.13 0 01-.471-.266c-.136-.086-.267-.16-.301-.16-.034 0-.045 3.36-.04 9.233z" fill="#96CDFF"/></svg>