<svg width="22" height="22" xmlns="http://www.w3.org/2000/svg"><path d="M17.267 15.042H9.378a3.199 3.199 0 01-3.092-2.47l-1.257-5.11A3.212 3.212 0 018.17 3.488h10.372a3.212 3.212 0 013.143 3.972l-1.257 5.123a3.206 3.206 0 01-3.162 2.458zM8.134 5.06a1.647 1.647 0 00-1.597 2.03l1.257 5.123a1.634 1.634 0 001.597 1.257h7.876a1.634 1.634 0 001.596-1.257l1.258-5.123a1.642 1.642 0 00-1.597-2.03H8.134z"/><path d="M5.946 8.8a.786.786 0 01-.76-.628L4.06 3.288a2.018 2.018 0 00-1.974-1.56H1.062a.786.786 0 110-1.57h1.025a3.59 3.59 0 013.507 2.771l1.12 4.884a.78.78 0 01-.585.943.9.9 0 01-.183.044zm3.552 13.043a2.514 2.514 0 110-5.028 2.514 2.514 0 010 5.028zm0-3.482a.955.955 0 100 1.91.955.955 0 000-1.91zm8.687 3.482a2.514 2.514 0 110-5.029 2.514 2.514 0 010 5.029zm0-3.482a.955.955 0 10.012 1.91.955.955 0 00-.012-1.91z"/><path d="M18.185 18.36H7.713a2.445 2.445 0 110-4.89h1.665a.786.786 0 010 1.572H7.713a.874.874 0 000 1.747h10.472a.786.786 0 010 1.571z"/></svg>