<svg width="20" height="17" xmlns="http://www.w3.org/2000/svg"><path d="M17.657 1.8a6.173 6.173 0 00-7.929-.613 6.154 6.154 0 00-8.253.902 5.959 5.959 0 00-1.47 4.155 5.971 5.971 0 001.795 4.03l6.034 5.96A2.72 2.72 0 009.728 17a2.72 2.72 0 001.895-.765l6.034-5.962a5.968 5.968 0 001.772-4.236c0-1.587-.637-3.11-1.772-4.236zm-1.37 7.15l-6.034 5.952a.738.738 0 01-.525.216.746.746 0 01-.524-.216L3.17 8.922a4.083 4.083 0 01-1.19-2.875c0-1.075.428-2.107 1.19-2.876a4.179 4.179 0 012.915-1.18c1.09 0 2.138.424 2.915 1.18a.973.973 0 00.69.284.983.983 0 00.69-.284 4.179 4.179 0 012.914-1.18c1.092 0 2.139.424 2.915 1.18a4.084 4.084 0 011.228 2.86 4.08 4.08 0 01-1.15 2.89v.03z"/></svg>